<svg width="28" height="36" viewBox="0 0 28 36" fill="none" xmlns="http://www.w3.org/2000/svg">
<g clip-path="url(#clip0)">
<path d="M18.039 13.6246L12.4026 19.7026L10.0016 17.1046C9.89367 16.9877 9.76519 16.8949 9.62359 16.8315C9.48199 16.7681 9.33007 16.7354 9.1766 16.7353C9.02314 16.7351 8.87117 16.7676 8.72947 16.8307C8.58776 16.8938 8.45914 16.9864 8.35101 17.1031C8.13196 17.3401 8.00896 17.6602 8.0087 17.9938C8.00844 18.3274 8.13093 18.6476 8.34961 18.8851L11.5752 22.3756C11.6828 22.4932 11.8111 22.5867 11.9528 22.6505C12.0944 22.7144 12.2465 22.7473 12.4002 22.7474C12.5539 22.7476 12.7061 22.7149 12.8478 22.6513C12.9896 22.5877 13.1181 22.4945 13.2258 22.3771L19.6882 15.4081C19.9073 15.171 20.0303 14.851 20.0305 14.5174C20.0308 14.1838 19.9083 13.8635 19.6896 13.6261C19.5819 13.5088 19.4534 13.4157 19.3118 13.3521C19.1702 13.2885 19.0182 13.2556 18.8646 13.2555C18.711 13.2554 18.559 13.2879 18.4172 13.3513C18.2755 13.4146 18.1469 13.5075 18.039 13.6246Z" fill="#888887"/>
<path d="M27.0144 5.98497C24.2578 5.98197 22.0164 3.74997 22.0192 1.00947C22.0192 0.460469 21.5726 0.0149686 21.0196 0.0134686L7.02097 0.00146862C6.46937 -3.13793e-05 6.02137 0.445469 6.02137 0.994468C6.01857 3.73647 3.77437 5.96397 1.01777 5.96097C0.466171 5.96097 0.0167712 6.40497 0.0167712 6.95397L0.0139712 11.25C0.00417123 23.895 1.28657 32.2455 13.706 35.9595C13.8936 36.0166 14.0924 36.0166 14.28 35.9595C26.4348 32.3445 28 24.195 28.0098 11.2725L28.0126 6.97797C28.014 6.43047 27.566 5.98497 27.0144 5.98497ZM26.0106 11.2725C26.0022 23.1495 25.3736 30.4515 13.9944 33.9675C2.71177 30.4605 2.00477 23.0625 2.01317 11.2515L2.01597 7.88097C5.07637 7.44597 7.50677 5.03397 7.94777 1.99047L20.0886 2.00097C20.5254 5.04597 22.9516 7.46097 26.012 7.90197L26.0106 11.2725Z" fill="#888887"/>
</g>
<defs>
<clipPath id="clip0">
<rect width="28" height="36" fill="white"/>
</clipPath>
</defs>
</svg>
