<svg width="84" height="55" viewBox="0 0 84 55" fill="none" xmlns="http://www.w3.org/2000/svg">
<path d="M65.4364 52.1837L63.0334 37.9393C62.7744 36.4045 61.6992 35.1716 60.2269 34.722L53.7455 32.7419C53.6113 31.1376 52.9617 29.6242 51.8806 28.4262C51.0158 27.468 49.9282 26.7703 48.7292 26.3853C48.9344 26.1548 49.1246 25.925 49.2991 25.7003C50.8404 23.7154 51.6656 21.5287 51.8757 20.0365H52.3757C53.6762 20.0365 54.7343 18.9653 54.7343 17.6484V16.4243C54.7343 15.5455 54.246 14.7491 53.5118 14.3359V11.3921C53.5118 10.9473 53.1556 10.5866 52.7163 10.5866C52.2769 10.5866 51.9209 10.9471 51.9209 11.3921V14.6968C51.6111 14.7513 51.2415 14.8454 50.8634 15.0066C50.8246 15.0209 50.787 15.0375 50.7513 15.0573C50.6659 15.0967 50.5804 15.1383 50.4952 15.1852V8.69451C50.4952 6.90132 49.0545 5.44253 47.2835 5.44253H45.0879C44.3306 5.44253 43.5908 5.70969 43.0045 6.19502L42.789 6.37334C42.3933 6.70098 41.8938 6.88144 41.3826 6.88144C40.8713 6.88144 40.3717 6.70098 39.976 6.37334L39.7606 6.19502C39.1743 5.70979 38.4346 5.44253 37.6773 5.44253H35.4814C33.7104 5.44253 32.2697 6.90132 32.2697 8.69451V15.1852C32.1845 15.1383 32.099 15.0967 32.0136 15.0573C31.9779 15.0375 31.9404 15.0209 31.9017 15.0066C31.5235 14.8454 31.1538 14.7513 30.8441 14.6968V6.34058C30.8441 3.73259 32.9397 1.61079 35.5154 1.61079H47.2494C49.8252 1.61079 51.9207 3.73259 51.9207 6.34058V7.60665C51.9207 8.05149 52.2768 8.4121 52.7161 8.4121C53.1553 8.4121 53.5116 8.05159 53.5116 7.60665V6.34058C53.5116 2.84442 50.7023 0 47.2494 0H35.5154C32.0624 0 29.2533 2.84442 29.2533 6.34058V14.336C28.519 14.7492 28.0307 15.5454 28.0307 16.4244V17.6486C28.0307 18.9654 29.0888 20.0366 30.3893 20.0366H30.8893C31.0993 21.5288 31.9246 23.7155 33.4659 25.7004C33.6402 25.9249 33.8303 26.1544 34.0353 26.3847C31.279 27.2712 29.269 29.7804 29.0195 32.7419L22.5379 34.722C21.0656 35.1716 19.9903 36.4045 19.7314 37.9393L18.7555 43.7238C18.6816 44.1623 18.9727 44.5784 19.4057 44.6532C19.8385 44.7283 20.2497 44.4335 20.3237 43.995L21.2996 38.2104C21.4561 37.2818 22.1067 36.5361 22.9974 36.2641L28.9922 34.4327V36.0259C27.618 36.282 26.4488 37.2377 25.9672 38.5619C25.8394 38.9134 25.7599 39.2814 25.7311 39.6556L25.1517 47.1854C25.108 47.7526 25.3018 48.3174 25.6832 48.7347C26.0646 49.1522 26.6056 49.3917 27.1674 49.3917H28.1591C28.5984 49.3917 28.9546 49.0312 28.9546 48.5863C28.9546 48.1413 28.5984 47.7809 28.1591 47.7809H27.1674C27.0476 47.7809 26.9324 47.73 26.851 47.6409C26.7697 47.5519 26.7284 47.4316 26.7378 47.3107L27.3172 39.7809C27.3347 39.5541 27.3827 39.3312 27.4602 39.1184C27.7952 38.1973 28.7 37.5735 29.7118 37.5663L29.8428 37.5653C29.849 37.5652 29.855 37.5652 29.8611 37.5652C30.8444 37.5652 31.7149 38.1298 32.0821 39.0076C32.1851 39.2537 32.2477 39.5139 32.2683 39.7809L32.8479 47.3108C32.8571 47.4316 32.8159 47.5519 32.7346 47.641C32.6533 47.7299 32.538 47.7809 32.4182 47.7809H31.4265C30.9871 47.7809 30.631 48.1414 30.631 48.5863C30.631 49.0311 30.9871 49.3917 31.4265 49.3917H32.4182C32.98 49.3917 33.5211 49.1523 33.9024 48.7347C34.2839 48.3172 34.4777 47.7525 34.434 47.1855L33.8544 39.6556C33.8205 39.215 33.717 38.7854 33.5469 38.379C33.023 37.1268 31.9025 36.2562 30.5829 36.0206V33.9467L33.3174 33.1113C33.5662 33.6418 34.0592 34.7884 35.0358 37.2598C36.02 39.7535 37.2433 42.9498 38.4166 46.0571C38.425 46.0832 38.4347 46.1087 38.4455 46.1336C39.2284 48.208 39.988 50.2398 40.6376 51.9925C40.7541 52.3068 41.0508 52.515 41.3824 52.515C41.7139 52.515 42.0106 52.3068 42.1271 51.9925C42.7766 50.2398 43.5361 48.208 44.3192 46.1336C44.3301 46.1087 44.3397 46.0831 44.3481 46.0571C45.5205 42.9517 46.7432 39.7574 47.727 37.2644C48.7049 34.7898 49.1983 33.6423 49.4472 33.1113L52.1817 33.9467V38.7039C50.2871 39.0765 48.8519 40.7684 48.8519 42.7942C48.8519 45.0921 50.6983 46.9616 52.9678 46.9616C55.2374 46.9616 57.0837 45.0922 57.0837 42.7942C57.0837 40.7751 55.658 39.0873 53.7725 38.7073V34.4328L59.7674 36.2642C60.6581 36.5362 61.3086 37.2819 61.4653 38.2105L63.8683 52.455C63.9082 52.6912 63.8461 52.9221 63.6934 53.1053C63.5409 53.2883 63.3264 53.3893 63.0897 53.3893H19.6749C19.4383 53.3893 19.2239 53.2884 19.0713 53.1053C18.9187 52.9221 18.8565 52.6913 18.8964 52.455L19.6895 47.754C19.7634 47.3155 19.4723 46.8994 19.0393 46.8246C18.6065 46.7494 18.1954 47.0444 18.1213 47.4828L17.3283 52.1838C17.21 52.8855 17.4021 53.6 17.8553 54.1441C18.3088 54.6881 18.972 55 19.6749 55H63.0897C63.7927 55 64.456 54.688 64.9094 54.144C65.3626 53.5999 65.5547 52.8854 65.4364 52.1837ZM51.9302 16.3377C52.3541 16.2307 52.6943 16.2326 52.6981 16.2327C52.8352 16.2346 52.9685 16.2021 53.0869 16.1393C53.1223 16.2285 53.1432 16.3245 53.1432 16.4244V17.6486C53.1432 18.0772 52.7988 18.4259 52.3755 18.4259H51.9302V16.3377ZM30.8345 18.4259H30.3892C29.9659 18.4259 29.6215 18.0772 29.6215 17.6486V16.4244C29.6215 16.3245 29.6425 16.2285 29.6778 16.1394C29.7961 16.2022 29.9294 16.2347 30.0666 16.2327C30.0726 16.2338 30.4119 16.2319 30.8345 16.3381V18.4259ZM32.4253 19.329V17.213C32.6664 17.2861 32.93 17.2761 33.1734 17.1733C33.5909 16.9969 33.8606 16.5873 33.8606 16.1296V8.69451C33.8606 7.78959 34.5877 7.05332 35.4814 7.05332H37.677C38.0683 7.05332 38.4506 7.19136 38.7535 7.44208L38.9688 7.6204C39.6479 8.18265 40.5051 8.49213 41.3824 8.49213C42.2596 8.49213 43.1168 8.18254 43.7959 7.6204L44.0112 7.44208C44.314 7.19136 44.6964 7.05332 45.0877 7.05332H47.2832C48.177 7.05332 48.9041 7.78959 48.9041 8.69451V16.1297C48.9041 16.5873 49.1738 16.997 49.5913 17.1734C49.7307 17.2323 49.8767 17.2609 50.0214 17.2609C50.1293 17.2609 50.2364 17.2449 50.3394 17.2137V19.329C50.3394 20.5049 49.5365 22.7885 48.0484 24.7047C47.5555 25.3394 46.9219 26.0213 46.1418 26.6173C46.1171 26.6341 46.0934 26.6522 46.0708 26.6716C44.8623 27.5763 43.3084 28.2694 41.3824 28.2694C39.4563 28.2694 37.9024 27.5763 36.6938 26.6715C36.6712 26.6522 36.6476 26.6341 36.623 26.6174C35.8429 26.0213 35.2093 25.3394 34.7163 24.7047C33.2283 22.7886 32.4253 20.5049 32.4253 19.329ZM46.5936 32.3415L41.3824 36.2854L36.1711 32.3415C36.6878 31.6765 36.9774 30.8228 36.9774 30.0609V28.7626C38.2028 29.4299 39.6651 29.8803 41.3824 29.8803C43.0996 29.8803 44.562 29.4299 45.7873 28.7626V30.0609C45.7873 30.8228 46.0769 31.6765 46.5936 32.3415ZM34.8435 31.4425C34.4187 31.2787 33.9478 31.2518 33.5023 31.3742C33.4828 31.3788 33.4637 31.3841 33.4451 31.3896L30.697 32.2292C31.1618 29.9152 33.0175 28.0733 35.3865 27.7166V30.0609C35.3865 30.5662 35.1637 31.0886 34.8435 31.4425ZM37.0024 37.908C37.0009 37.9042 36.9994 37.9005 36.9981 37.8968C36.9577 37.7936 36.9179 37.6918 36.8785 37.5911C36.8714 37.5728 36.8643 37.5547 36.8572 37.5366C36.8185 37.4381 36.7802 37.3404 36.7425 37.2442C36.7398 37.2375 36.7372 37.2308 36.7345 37.2239C36.6166 36.9239 36.503 36.6361 36.3937 36.3604C36.3858 36.3404 36.3778 36.3201 36.3699 36.3002C36.3385 36.2212 36.3076 36.1433 36.2769 36.0664C36.2657 36.0381 36.2546 36.0102 36.2434 35.9822C36.2137 35.9077 36.1842 35.8336 36.1551 35.7611C36.1464 35.7394 36.138 35.7183 36.1294 35.6967C36.0766 35.565 36.0251 35.4367 35.9748 35.3115C35.9612 35.2777 35.9473 35.2432 35.9338 35.2098C35.9141 35.161 35.8949 35.1135 35.8756 35.0657C35.8548 35.0142 35.834 34.963 35.8136 34.9128C35.806 34.894 35.798 34.8741 35.7904 34.8554C35.7842 34.8404 35.7786 34.8265 35.7726 34.8116C35.6807 34.5855 35.5934 34.3725 35.5105 34.1722C35.5099 34.1706 35.5091 34.169 35.5085 34.1674C35.4644 34.0607 35.4212 33.9565 35.3797 33.8572C35.3582 33.8058 35.337 33.7552 35.3162 33.7055L39.7981 37.0973L37.9253 37.9028C37.922 37.9042 37.9186 37.9056 37.9153 37.9071L37.1334 38.2435C37.0891 38.1299 37.0457 38.0186 37.0024 37.908ZM38.9004 42.8395C38.7433 42.4267 38.585 42.0115 38.4264 41.5968C38.1783 40.948 37.9414 40.3312 37.7147 39.7436L38.0116 39.6159L39.2244 41.0434L38.9004 42.8395ZM41.3977 49.3856C41.3749 49.3377 41.3478 49.2925 41.3164 49.2504C40.9569 48.2884 40.5007 47.0712 39.9958 45.732L40.7385 41.615H42.0262L42.7689 45.732C42.2398 47.135 41.7646 48.4037 41.3977 49.3856ZM42.3246 40.0043H40.4401L39.5484 38.9548L41.3824 38.166L43.2163 38.9548L42.3246 40.0043ZM44.3383 41.5968C44.1797 42.0115 44.0214 42.4267 43.8643 42.8395L43.5403 41.0433L44.7531 39.6158L45.05 39.7435C44.8233 40.3311 44.5864 40.948 44.3383 41.5968ZM47.3851 33.8572C47.3457 33.9513 47.3048 34.0501 47.2631 34.1508C47.2577 34.1639 47.2522 34.1771 47.2468 34.1903C47.2055 34.2902 47.1635 34.3923 47.12 34.4985C47.1171 34.5055 47.1141 34.5129 47.1113 34.52C47.0737 34.6117 47.0352 34.7062 46.9961 34.8025C46.9887 34.8206 46.9818 34.8372 46.9745 34.8554C46.9658 34.877 46.9565 34.8999 46.9477 34.9217C46.9303 34.9646 46.9126 35.0085 46.8947 35.0523C46.8729 35.1063 46.8511 35.1601 46.8287 35.2155C46.8216 35.2331 46.8143 35.2515 46.8071 35.2692C46.7517 35.4066 46.6949 35.5482 46.6367 35.6936C46.6276 35.7164 46.6186 35.7387 46.6095 35.7618C46.5807 35.8337 46.5514 35.9071 46.522 35.9809C46.5106 36.0097 46.499 36.0385 46.4874 36.0678C46.4571 36.1439 46.4264 36.221 46.3955 36.2993C46.3868 36.3211 46.378 36.3434 46.3693 36.3653C46.2614 36.6373 46.1494 36.921 46.0333 37.2166C46.0294 37.2264 46.0256 37.236 46.0218 37.2458C45.9842 37.3413 45.9463 37.4385 45.9079 37.5363C45.9007 37.5546 45.8935 37.5728 45.8863 37.5912C45.8466 37.6924 45.8066 37.7947 45.7661 37.8985C45.7654 37.9005 45.7646 37.9024 45.7639 37.9042C45.7202 38.0162 45.6763 38.1288 45.6315 38.2437L44.8488 37.907C44.8461 37.9058 44.8433 37.9047 44.8407 37.9035L42.9669 37.0975L47.4488 33.7058C47.4277 33.7552 47.4065 33.8057 47.3851 33.8572ZM49.3196 31.3897L49.3172 31.389C48.8557 31.2488 48.3634 31.272 47.9213 31.4425C47.601 31.0886 47.3783 30.5662 47.3783 30.0609V27.7154C49.7621 28.0712 51.6123 29.8957 52.071 32.2302L49.3196 31.3897ZM55.4928 42.7942C55.4928 44.204 54.3601 45.3508 52.9678 45.3508C51.5756 45.3508 50.4428 44.204 50.4428 42.7942C50.4428 41.3844 51.5756 40.2375 52.9678 40.2375C54.3601 40.2375 55.4928 41.3844 55.4928 42.7942Z" fill="#939393"/>
<path d="M83.9834 28.5919L82.8127 21.4696C82.6865 20.7023 82.1627 20.0858 81.4454 19.861L78.2878 18.8709C78.2224 18.0688 77.9059 17.3121 77.3792 16.7131C76.9579 16.234 76.428 15.8851 75.8439 15.6926C75.9439 15.5774 76.0366 15.4625 76.1216 15.3501C76.8725 14.3577 77.2745 13.2644 77.3769 12.5183H77.6204C78.254 12.5183 78.7695 11.9827 78.7695 11.3242V10.7121C78.7695 10.2727 78.5316 9.87457 78.1739 9.66794V8.19604C78.1739 7.97363 78.0004 7.79332 77.7864 7.79332C77.5723 7.79332 77.3989 7.97357 77.3989 8.19604V9.84841C77.2479 9.87564 77.0679 9.92269 76.8837 10.0033C76.8648 10.0105 76.8464 10.0187 76.8291 10.0287C76.7875 10.0484 76.7458 10.0692 76.7043 10.0926V6.84726C76.7043 5.95066 76.0024 5.22126 75.1396 5.22126H74.07C73.701 5.22126 73.3406 5.35484 73.055 5.59751L72.95 5.68667C72.7572 5.85049 72.5139 5.94072 72.2648 5.94072C72.0157 5.94072 71.7723 5.85049 71.5796 5.68667L71.4746 5.59751C71.189 5.3549 70.8286 5.22126 70.4597 5.22126H69.3899C68.5271 5.22126 67.8252 5.95066 67.8252 6.84726V10.0926C67.7837 10.0692 67.742 10.0484 67.7004 10.0287C67.6831 10.0187 67.6648 10.0105 67.6459 10.0033C67.4617 9.92269 67.2816 9.87564 67.1307 9.84841V5.67029C67.1307 4.36629 68.1516 3.3054 69.4064 3.3054H75.123C76.3779 3.3054 77.3988 4.36629 77.3988 5.67029V6.30333C77.3988 6.52574 77.5723 6.70605 77.7863 6.70605C78.0002 6.70605 78.1738 6.5258 78.1738 6.30333V5.67029C78.1738 3.92221 76.8052 2.5 75.123 2.5H69.4064C67.7242 2.5 66.3557 3.92221 66.3557 5.67029V9.66799C65.9979 9.87462 65.7601 10.2727 65.7601 10.7122V11.3243C65.7601 11.9827 66.2755 12.5183 66.9091 12.5183H67.1527C67.255 13.2644 67.6571 14.3578 68.408 15.3502C68.4929 15.4624 68.5855 15.5772 68.6854 15.6924C67.3426 16.1356 66.3633 17.3902 66.2418 18.8709L63.0841 19.861C62.3668 20.0858 61.8429 20.7023 61.7168 21.4696L61.2414 24.3619C61.2054 24.5812 61.3472 24.7892 61.5581 24.8266C61.769 24.8642 61.9693 24.7167 62.0054 24.4975L62.4808 21.6052C62.5571 21.1409 62.874 20.7681 63.3079 20.6321L66.2285 19.7163V20.5129C65.559 20.641 64.9894 21.1188 64.7548 21.7809C64.6925 21.9567 64.6538 22.1407 64.6397 22.3278L64.3575 26.0927C64.3362 26.3763 64.4306 26.6587 64.6164 26.8674C64.8022 27.0761 65.0658 27.1959 65.3394 27.1959H65.8226C66.0366 27.1959 66.2102 27.0156 66.2102 26.7931C66.2102 26.5707 66.0366 26.3905 65.8226 26.3905H65.3394C65.2811 26.3905 65.225 26.365 65.1853 26.3204C65.1457 26.276 65.1256 26.2158 65.1302 26.1554L65.4124 22.3904C65.421 22.2771 65.4444 22.1656 65.4821 22.0592C65.6453 21.5986 66.0861 21.2867 66.579 21.2831L66.6429 21.2827C66.6459 21.2826 66.6488 21.2826 66.6518 21.2826C67.1308 21.2826 67.5549 21.5649 67.7338 22.0038C67.784 22.1268 67.8145 22.2569 67.8245 22.3904L68.1069 26.1554C68.1114 26.2158 68.0913 26.276 68.0517 26.3205C68.0121 26.365 67.9559 26.3905 67.8976 26.3905H67.4144C67.2004 26.3905 67.0269 26.5707 67.0269 26.7931C67.0269 27.0156 67.2004 27.1959 67.4144 27.1959H67.8976C68.1712 27.1959 68.4348 27.0761 68.6206 26.8674C68.8065 26.6586 68.9009 26.3762 68.8796 26.0927L68.5972 22.3278C68.5807 22.1075 68.5303 21.8927 68.4475 21.6895C68.1922 21.0634 67.6463 20.6281 67.0034 20.5103V19.4734L68.3356 19.0556C68.4568 19.3209 68.697 19.8942 69.1728 21.1299C69.6523 22.3768 70.2483 23.9749 70.8199 25.5286C70.8239 25.5416 70.8287 25.5543 70.8339 25.5668C71.2154 26.604 71.5854 27.6199 71.9019 28.4963C71.9586 28.6534 72.1032 28.7575 72.2647 28.7575C72.4262 28.7575 72.5708 28.6534 72.6275 28.4963C72.944 27.6199 73.314 26.604 73.6955 25.5668C73.7008 25.5543 73.7055 25.5416 73.7095 25.5286C74.2807 23.9758 74.8764 22.3787 75.3557 21.1322C75.8321 19.8949 76.0725 19.3211 76.1937 19.0556L77.5259 19.4734V21.8519C76.6029 22.0383 75.9037 22.8842 75.9037 23.8971C75.9037 25.046 76.8032 25.9808 77.9089 25.9808C79.0146 25.9808 79.9141 25.0461 79.9141 23.8971C79.9141 22.8875 79.2195 22.0436 78.3009 21.8537V19.7164L81.2215 20.6321C81.6555 20.7681 81.9723 21.141 82.0487 21.6052L83.2194 28.7275C83.2388 28.8456 83.2086 28.9611 83.1342 29.0526C83.0599 29.1442 82.9554 29.1947 82.8401 29.1947H61.6893C61.574 29.1947 61.4696 29.1442 61.3952 29.0526C61.3209 28.9611 61.2906 28.8456 61.31 28.7275L61.6964 26.377C61.7324 26.1577 61.5906 25.9497 61.3797 25.9123C61.1688 25.8747 60.9685 26.0222 60.9324 26.2414L60.5461 28.5919C60.4884 28.9428 60.582 29.3 60.8028 29.572C61.0237 29.844 61.3468 30 61.6893 30H82.8401C83.1826 30 83.5057 29.844 83.7266 29.572C83.9474 29.2999 84.041 28.9427 83.9834 28.5919ZM77.4034 10.6688C77.6099 10.6153 77.7757 10.6163 77.7775 10.6164C77.8443 10.6173 77.9092 10.6011 77.9669 10.5696C77.9842 10.6143 77.9943 10.6622 77.9943 10.7122V11.3243C77.9943 11.5386 77.8266 11.7129 77.6203 11.7129H77.4034V10.6688ZM67.126 11.7129H66.9091C66.7028 11.7129 66.5351 11.5386 66.5351 11.3243V10.7122C66.5351 10.6622 66.5453 10.6143 66.5625 10.5697C66.6201 10.6011 66.6851 10.6173 66.7519 10.6164C66.7548 10.6169 66.9201 10.6159 67.126 10.6691V11.7129ZM67.901 12.1645V11.1065C68.0185 11.1431 68.1469 11.1381 68.2655 11.0867C68.4689 10.9985 68.6002 10.7937 68.6002 10.5648V6.84726C68.6002 6.3948 68.9545 6.02666 69.3899 6.02666H70.4596C70.6502 6.02666 70.8364 6.09568 70.984 6.22104L71.0889 6.3102C71.4197 6.59132 71.8373 6.74607 72.2647 6.74607C72.6921 6.74607 73.1097 6.59127 73.4405 6.3102L73.5454 6.22104C73.693 6.09568 73.8792 6.02666 74.0698 6.02666H75.1395C75.5749 6.02666 75.9292 6.3948 75.9292 6.84726V10.5649C75.9292 10.7937 76.0606 10.9985 76.2639 11.0867C76.3319 11.1161 76.403 11.1304 76.4735 11.1304C76.526 11.1304 76.5782 11.1224 76.6284 11.1069V12.1645C76.6284 12.7525 76.2372 13.8942 75.5123 14.8523C75.2721 15.1697 74.9635 15.5107 74.5834 15.8087C74.5714 15.817 74.5598 15.8261 74.5488 15.8358C73.9601 16.2881 73.203 16.6347 72.2647 16.6347C71.3264 16.6347 70.5693 16.2881 69.9805 15.8357C69.9695 15.8261 69.958 15.817 69.9461 15.8087C69.566 15.5107 69.2573 15.1697 69.0171 14.8523C68.2922 13.8943 67.901 12.7525 67.901 12.1645ZM74.8035 18.6708L72.2647 20.6427L69.7259 18.6708C69.9776 18.3382 70.1187 17.9114 70.1187 17.5305V16.8813C70.7157 17.215 71.4281 17.4401 72.2647 17.4401C73.1013 17.4401 73.8138 17.215 74.4107 16.8813V17.5305C74.4107 17.9114 74.5518 18.3382 74.8035 18.6708ZM69.0791 18.2212C68.8722 18.1393 68.6427 18.1259 68.4257 18.1871C68.4162 18.1894 68.4069 18.192 68.3978 18.1948L67.059 18.6146C67.2854 17.4576 68.1895 16.5367 69.3437 16.3583V17.5305C69.3437 17.7831 69.2351 18.0443 69.0791 18.2212ZM70.1309 21.454C70.1302 21.4521 70.1294 21.4502 70.1288 21.4484C70.1091 21.3968 70.0897 21.3459 70.0705 21.2956C70.0671 21.2864 70.0636 21.2773 70.0601 21.2683C70.0413 21.2191 70.0227 21.1702 70.0042 21.1221C70.003 21.1187 70.0017 21.1154 70.0004 21.112C69.9429 20.962 69.8876 20.8181 69.8344 20.6802C69.8305 20.6702 69.8266 20.66 69.8227 20.6501C69.8074 20.6106 69.7924 20.5716 69.7775 20.5332C69.772 20.5191 69.7665 20.5051 69.7611 20.4911C69.7466 20.4538 69.7323 20.4168 69.7181 20.3805C69.7139 20.3697 69.7097 20.3592 69.7056 20.3484C69.6799 20.2825 69.6547 20.2183 69.6302 20.1558C69.6236 20.1388 69.6169 20.1216 69.6103 20.1049C69.6007 20.0805 69.5913 20.0568 69.5819 20.0329C69.5718 20.0071 69.5617 19.9815 69.5517 19.9564C69.548 19.947 69.5441 19.937 69.5404 19.9277C69.5374 19.9202 69.5347 19.9132 69.5317 19.9058C69.487 19.7928 69.4444 19.6863 69.4041 19.5861C69.4038 19.5853 69.4034 19.5845 69.4031 19.5837C69.3816 19.5303 69.3605 19.4782 69.3403 19.4286C69.3298 19.4029 69.3195 19.3776 69.3094 19.3528L71.4929 21.0486L70.5805 21.4514C70.5789 21.4521 70.5772 21.4528 70.5756 21.4536L70.1947 21.6217C70.1731 21.565 70.152 21.5093 70.1309 21.454ZM71.0556 23.9198C70.979 23.7134 70.9019 23.5058 70.8246 23.2984C70.7038 22.974 70.5884 22.6656 70.4779 22.3718L70.6225 22.3079L71.2134 23.0217L71.0556 23.9198ZM72.2722 27.1928C72.2611 27.1688 72.2479 27.1462 72.2326 27.1252C72.0574 26.6442 71.8352 26.0356 71.5892 25.366L71.951 23.3075H72.5784L72.9402 25.366C72.6824 26.0675 72.4509 26.7018 72.2722 27.1928ZM72.7237 22.5022H71.8057L71.3713 21.9774L72.2647 21.583L73.1582 21.9774L72.7237 22.5022ZM73.7048 23.2984C73.6275 23.5058 73.5504 23.7134 73.4739 23.9198L73.316 23.0217L73.9069 22.3079L74.0515 22.3718C73.941 22.6656 73.8256 22.974 73.7048 23.2984ZM75.1891 19.4286C75.1699 19.4757 75.15 19.525 75.1297 19.5754C75.127 19.582 75.1244 19.5886 75.1217 19.5952C75.1016 19.6451 75.0811 19.6961 75.06 19.7493C75.0586 19.7528 75.0571 19.7565 75.0557 19.76C75.0374 19.8058 75.0187 19.8531 74.9996 19.9013C74.996 19.9103 74.9927 19.9186 74.9891 19.9277C74.9849 19.9385 74.9803 19.9499 74.976 19.9608C74.9675 19.9823 74.9589 20.0042 74.9502 20.0261C74.9396 20.0532 74.929 20.0801 74.9181 20.1077C74.9146 20.1165 74.911 20.1257 74.9075 20.1346C74.8806 20.2033 74.8529 20.2741 74.8245 20.3468C74.8201 20.3582 74.8157 20.3694 74.8112 20.3809C74.7972 20.4168 74.783 20.4535 74.7687 20.4904C74.7631 20.5049 74.7574 20.5193 74.7518 20.5339C74.737 20.572 74.7221 20.6105 74.707 20.6496C74.7028 20.6605 74.6985 20.6717 74.6942 20.6827C74.6417 20.8187 74.5871 20.9605 74.5305 21.1083C74.5287 21.1132 74.5268 21.118 74.5249 21.1229C74.5067 21.1707 74.4882 21.2192 74.4694 21.2682C74.466 21.2773 74.4625 21.2864 74.4589 21.2956C74.4396 21.3462 74.4201 21.3973 74.4004 21.4493C74.4 21.4502 74.3997 21.4512 74.3993 21.4521C74.378 21.5081 74.3566 21.5644 74.3348 21.6218L73.9535 21.4535C73.9522 21.4529 73.9508 21.4523 73.9495 21.4517L73.0366 21.0488L75.2201 19.3529C75.2099 19.3776 75.1996 19.4028 75.1891 19.4286ZM76.1316 18.1949L76.1304 18.1945C75.9055 18.1244 75.6657 18.136 75.4503 18.2212C75.2943 18.0443 75.1858 17.7831 75.1858 17.5305V16.3577C76.3472 16.5356 77.2485 17.4479 77.472 18.6151L76.1316 18.1949ZM79.139 23.8971C79.139 24.602 78.5872 25.1754 77.9089 25.1754C77.2306 25.1754 76.6788 24.602 76.6788 23.8971C76.6788 23.1922 77.2306 22.6188 77.9089 22.6188C78.5872 22.6188 79.139 23.1922 79.139 23.8971Z" fill="#939393"/>
<path d="M23.4539 28.5919L22.2832 21.4696C22.1571 20.7023 21.6332 20.0858 20.916 19.861L17.7584 18.8709C17.693 18.0688 17.3765 17.3121 16.8498 16.7131C16.4285 16.234 15.8986 15.8851 15.3145 15.6926C15.4145 15.5774 15.5072 15.4625 15.5922 15.3501C16.3431 14.3577 16.7451 13.2644 16.8474 12.5183H17.091C17.7246 12.5183 18.2401 11.9827 18.2401 11.3242V10.7121C18.2401 10.2727 18.0022 9.87457 17.6445 9.66794V8.19604C17.6445 7.97363 17.471 7.79332 17.257 7.79332C17.0429 7.79332 16.8695 7.97357 16.8695 8.19604V9.84841C16.7185 9.87564 16.5385 9.92269 16.3542 10.0033C16.3354 10.0105 16.317 10.0187 16.2997 10.0287C16.2581 10.0484 16.2164 10.0692 16.1749 10.0926V6.84726C16.1749 5.95066 15.473 5.22126 14.6102 5.22126H13.5405C13.1716 5.22126 12.8112 5.35484 12.5256 5.59751L12.4206 5.68667C12.2278 5.85049 11.9845 5.94072 11.7354 5.94072C11.4863 5.94072 11.2429 5.85049 11.0501 5.68667L10.9452 5.59751C10.6596 5.3549 10.2992 5.22126 9.93025 5.22126H8.8605C7.99769 5.22126 7.29579 5.95066 7.29579 6.84726V10.0926C7.25429 10.0692 7.21263 10.0484 7.17102 10.0287C7.15366 10.0187 7.13536 10.0105 7.11649 10.0033C6.93228 9.92269 6.75216 9.87564 6.60128 9.84841V5.67029C6.60128 4.36629 7.62219 3.3054 8.87704 3.3054H14.5936C15.8485 3.3054 16.8694 4.36629 16.8694 5.67029V6.30333C16.8694 6.52574 17.0429 6.70605 17.2568 6.70605C17.4708 6.70605 17.6444 6.5258 17.6444 6.30333V5.67029C17.6444 3.92221 16.2758 2.5 14.5936 2.5H8.87704C7.1948 2.5 5.82625 3.92221 5.82625 5.67029V9.66799C5.46852 9.87462 5.23066 10.2727 5.23066 10.7122V11.3243C5.23066 11.9827 5.74613 12.5183 6.3797 12.5183H6.6233C6.72559 13.2644 7.12766 14.3578 7.87856 15.3502C7.96348 15.4624 8.0561 15.5772 8.15596 15.6924C6.81314 16.1356 5.83389 17.3902 5.71238 18.8709L2.55465 19.861C1.8374 20.0858 1.3135 20.7023 1.18739 21.4696L0.711978 24.3619C0.675953 24.5812 0.81778 24.7892 1.02871 24.8266C1.23959 24.8642 1.43988 24.7167 1.47595 24.4975L1.95137 21.6052C2.02766 21.1409 2.3446 20.7681 2.7785 20.6321L5.69904 19.7163V20.5129C5.0296 20.641 4.45997 21.1188 4.22536 21.7809C4.16308 21.9567 4.12437 22.1407 4.11031 22.3278L3.82805 26.0927C3.80675 26.3763 3.90119 26.6587 4.087 26.8674C4.27281 27.0761 4.53636 27.1959 4.81004 27.1959H5.2932C5.50724 27.1959 5.68075 27.0156 5.68075 26.7931C5.68075 26.5707 5.50724 26.3905 5.2932 26.3905H4.81004C4.75168 26.3905 4.69555 26.365 4.65591 26.3204C4.61632 26.276 4.59621 26.2158 4.60076 26.1554L4.88302 22.3904C4.89155 22.2771 4.91496 22.1656 4.95269 22.0592C5.11592 21.5986 5.5567 21.2867 6.04963 21.2831L6.11347 21.2827C6.11646 21.2826 6.11941 21.2826 6.12236 21.2826C6.60144 21.2826 7.02553 21.5649 7.20441 22.0038C7.2546 22.1268 7.28509 22.2569 7.29512 22.3904L7.57748 26.1554C7.58198 26.2158 7.56187 26.276 7.52228 26.3205C7.48269 26.365 7.42651 26.3905 7.36815 26.3905H6.88499C6.67096 26.3905 6.49744 26.5707 6.49744 26.7931C6.49744 27.0156 6.67096 27.1959 6.88499 27.1959H7.36815C7.64183 27.1959 7.90543 27.0761 8.0912 26.8674C8.27706 26.6586 8.37149 26.3762 8.3502 26.0927L8.06783 22.3278C8.05129 22.1075 8.0009 21.8927 7.91805 21.6895C7.66277 21.0634 7.11691 20.6281 6.47403 20.5103V19.4734L7.8062 19.0556C7.9274 19.3209 8.16759 19.8942 8.64336 21.1299C9.12286 22.3768 9.71885 23.9749 10.2905 25.5286C10.2945 25.5416 10.2992 25.5543 10.3045 25.5668C10.686 26.604 11.056 27.6199 11.3725 28.4963C11.4292 28.6534 11.5738 28.7575 11.7353 28.7575C11.8968 28.7575 12.0414 28.6534 12.0981 28.4963C12.4146 27.6199 12.7846 26.604 13.1661 25.5668C13.1714 25.5543 13.1761 25.5416 13.1801 25.5286C13.7513 23.9758 14.347 22.3787 14.8263 21.1322C15.3027 19.8949 15.5431 19.3211 15.6643 19.0556L16.9965 19.4734V21.8519C16.0735 22.0383 15.3743 22.8842 15.3743 23.8971C15.3743 25.046 16.2738 25.9808 17.3795 25.9808C18.4852 25.9808 19.3847 25.0461 19.3847 23.8971C19.3847 22.8875 18.6901 22.0436 17.7715 21.8537V19.7164L20.6921 20.6321C21.126 20.7681 21.4429 21.141 21.5193 21.6052L22.69 28.7275C22.7094 28.8456 22.6792 28.9611 22.6048 29.0526C22.5305 29.1442 22.426 29.1947 22.3107 29.1947H1.15989C1.04458 29.1947 0.940174 29.1442 0.865797 29.0526C0.791472 28.9611 0.761184 28.8456 0.780618 28.7275L1.16697 26.377C1.203 26.1577 1.06117 25.9497 0.850239 25.9123C0.639359 25.8747 0.439074 26.0222 0.402997 26.2414L0.0166409 28.5919C-0.0409895 28.9428 0.0526147 29.3 0.273419 29.572C0.494327 29.844 0.817419 30 1.15989 30H22.3107C22.6532 30 22.9763 29.844 23.1972 29.572C23.418 29.2999 23.5116 28.9427 23.4539 28.5919ZM16.874 10.6688C17.0805 10.6153 17.2463 10.6163 17.2481 10.6164C17.3149 10.6173 17.3798 10.6011 17.4375 10.5696C17.4548 10.6143 17.4649 10.6622 17.4649 10.7122V11.3243C17.4649 11.5386 17.2972 11.7129 17.0909 11.7129H16.874V10.6688ZM6.59658 11.7129H6.37965C6.17342 11.7129 6.00565 11.5386 6.00565 11.3243V10.7122C6.00565 10.6622 6.01588 10.6143 6.03309 10.5697C6.09072 10.6011 6.15564 10.6173 6.22247 10.6164C6.22542 10.6169 6.39071 10.6159 6.59658 10.6691V11.7129ZM7.37162 12.1645V11.1065C7.48905 11.1431 7.61749 11.1381 7.73606 11.0867C7.93944 10.9985 8.07083 10.7937 8.07083 10.5648V6.84726C8.07083 6.3948 8.42509 6.02666 8.8605 6.02666H9.93015C10.1208 6.02666 10.307 6.09568 10.4546 6.22104L10.5595 6.3102C10.8903 6.59132 11.3079 6.74607 11.7353 6.74607C12.1627 6.74607 12.5803 6.59127 12.9111 6.3102L13.016 6.22104C13.1635 6.09568 13.3498 6.02666 13.5404 6.02666H14.6101C15.0455 6.02666 15.3998 6.3948 15.3998 6.84726V10.5649C15.3998 10.7937 15.5311 10.9985 15.7345 11.0867C15.8024 11.1161 15.8736 11.1304 15.9441 11.1304C15.9966 11.1304 16.0488 11.1224 16.099 11.1069V12.1645C16.099 12.7525 15.7078 13.8942 14.9829 14.8523C14.7427 15.1697 14.434 15.5107 14.054 15.8087C14.042 15.817 14.0304 15.8261 14.0194 15.8358C13.4307 16.2881 12.6736 16.6347 11.7353 16.6347C10.797 16.6347 10.0399 16.2881 9.45112 15.8357C9.44011 15.8261 9.42863 15.817 9.41664 15.8087C9.03659 15.5107 8.72792 15.1697 8.48773 14.8523C7.76283 13.8943 7.37162 12.7525 7.37162 12.1645ZM14.2741 18.6708L11.7353 20.6427L9.19646 18.6708C9.44822 18.3382 9.58927 17.9114 9.58927 17.5305V16.8813C10.1863 17.215 10.8987 17.4401 11.7353 17.4401C12.5719 17.4401 13.2843 17.215 13.8813 16.8813V17.5305C13.8813 17.9114 14.0224 18.3382 14.2741 18.6708ZM8.54971 18.2212C8.34275 18.1393 8.11332 18.1259 7.89629 18.1871C7.88678 18.1894 7.87747 18.192 7.86843 18.1948L6.52959 18.6146C6.75603 17.4576 7.66013 16.5367 8.81424 16.3583V17.5305C8.81424 17.7831 8.7057 18.0443 8.54971 18.2212ZM9.60147 21.454C9.60075 21.4521 9.60003 21.4502 9.59935 21.4484C9.57971 21.3968 9.56033 21.3459 9.5411 21.2956C9.53764 21.2864 9.53418 21.2773 9.53071 21.2683C9.5119 21.2191 9.49324 21.1702 9.47484 21.1221C9.47355 21.1187 9.47226 21.1154 9.47096 21.112C9.41354 20.962 9.35818 20.8181 9.30495 20.6802C9.30107 20.6702 9.29719 20.66 9.29332 20.6501C9.27802 20.6106 9.26298 20.5716 9.24804 20.5332C9.24256 20.5191 9.23713 20.5051 9.23171 20.4911C9.21724 20.4538 9.20287 20.4168 9.1887 20.3805C9.18447 20.3697 9.18033 20.3592 9.17615 20.3484C9.15046 20.2825 9.12534 20.2183 9.10084 20.1558C9.09422 20.1388 9.08745 20.1216 9.08089 20.1049C9.07127 20.0805 9.06192 20.0568 9.05251 20.0329C9.04238 20.0071 9.03225 19.9815 9.02233 19.9564C9.0186 19.947 9.01473 19.937 9.01101 19.9277C9.00801 19.9202 9.00527 19.9132 9.00232 19.9058C8.95756 19.7928 8.91503 19.6863 8.87466 19.5861C8.87435 19.5853 8.87399 19.5845 8.87368 19.5837C8.85217 19.5303 8.83114 19.4782 8.81093 19.4286C8.80044 19.4029 8.7901 19.3776 8.77997 19.3528L10.9635 21.0486L10.0511 21.4514C10.0495 21.4521 10.0478 21.4528 10.0462 21.4536L9.66531 21.6217C9.6437 21.565 9.62256 21.5093 9.60147 21.454ZM10.5261 23.9198C10.4496 23.7134 10.3725 23.5058 10.2952 23.2984C10.1744 22.974 10.0589 22.6656 9.94849 22.3718L10.0931 22.3079L10.684 23.0217L10.5261 23.9198ZM11.7428 27.1928C11.7317 27.1688 11.7184 27.1462 11.7031 27.1252C11.528 26.6442 11.3058 26.0356 11.0598 25.366L11.4216 23.3075H12.049L12.4108 25.366C12.153 26.0675 11.9215 26.7018 11.7428 27.1928ZM12.1943 22.5022H11.2763L10.8418 21.9774L11.7353 21.583L12.6287 21.9774L12.1943 22.5022ZM13.1754 23.2984C13.0981 23.5058 13.021 23.7134 12.9444 23.9198L12.7866 23.0217L13.3775 22.3079L13.5221 22.3718C13.4116 22.6656 13.2962 22.974 13.1754 23.2984ZM14.6597 19.4286C14.6405 19.4757 14.6206 19.525 14.6003 19.5754C14.5976 19.582 14.5949 19.5886 14.5923 19.5952C14.5722 19.6451 14.5517 19.6961 14.5305 19.7493C14.5292 19.7528 14.5277 19.7565 14.5263 19.76C14.508 19.8058 14.4892 19.8531 14.4702 19.9013C14.4666 19.9103 14.4632 19.9186 14.4597 19.9277C14.4554 19.9385 14.4509 19.9499 14.4466 19.9608C14.4381 19.9823 14.4295 20.0042 14.4208 20.0261C14.4102 20.0532 14.3996 20.0801 14.3887 20.1077C14.3852 20.1165 14.3816 20.1257 14.3781 20.1346C14.3511 20.2033 14.3234 20.2741 14.2951 20.3468C14.2907 20.3582 14.2863 20.3694 14.2818 20.3809C14.2678 20.4168 14.2536 20.4535 14.2392 20.4904C14.2337 20.5049 14.228 20.5193 14.2224 20.5339C14.2076 20.572 14.1927 20.6105 14.1776 20.6496C14.1733 20.6605 14.1691 20.6717 14.1648 20.6827C14.1122 20.8187 14.0577 20.9605 14.0011 21.1083C13.9993 21.1132 13.9974 21.118 13.9955 21.1229C13.9772 21.1707 13.9587 21.2192 13.94 21.2682C13.9366 21.2773 13.9331 21.2864 13.9295 21.2956C13.9102 21.3462 13.8907 21.3973 13.871 21.4493C13.8706 21.4502 13.8703 21.4512 13.8699 21.4521C13.8486 21.5081 13.8272 21.5644 13.8054 21.6218L13.4241 21.4535C13.4228 21.4529 13.4214 21.4523 13.4201 21.4517L12.5072 21.0488L14.6907 19.3529C14.6805 19.3776 14.6701 19.4028 14.6597 19.4286ZM15.6022 18.1949L15.601 18.1945C15.3761 18.1244 15.1363 18.136 14.9209 18.2212C14.7649 18.0443 14.6564 17.7831 14.6564 17.5305V16.3577C15.8177 16.5356 16.7191 17.4479 16.9426 18.6151L15.6022 18.1949ZM18.6096 23.8971C18.6096 24.602 18.0578 25.1754 17.3795 25.1754C16.7012 25.1754 16.1494 24.602 16.1494 23.8971C16.1494 23.1922 16.7012 22.6188 17.3795 22.6188C18.0578 22.6188 18.6096 23.1922 18.6096 23.8971Z" fill="#939393"/>
</svg>
