<svg width="53" height="53" viewBox="0 0 53 53" fill="none" xmlns="http://www.w3.org/2000/svg">
<path d="M52.1494 19.0644C51.9453 17.2703 50.5524 15.8341 48.7627 15.5717C48.2789 15.5003 47.6661 15.4267 46.9378 15.3521C46.854 13.0749 46.7387 10.7979 46.5906 8.54059C46.5625 8.11273 46.1924 7.7888 45.7649 7.81675C45.3369 7.84481 45.0129 8.21449 45.041 8.64236C45.2807 12.2926 45.4358 15.9943 45.5048 19.6642C45.2482 19.5977 44.9824 19.5542 44.7096 19.5366C39.0689 19.1717 33.3501 19.0004 27.7096 19.0256C26.3122 19.0314 25.1364 17.9874 24.9843 16.5941L24.9783 16.5383C24.9584 16.3547 24.9384 16.1702 24.9176 15.9868C24.7034 14.0939 23.2397 12.5572 21.358 12.2498C17.0627 11.5481 12.5862 11.4371 7.756 11.9151C7.86781 9.7336 8.01057 7.52564 8.18532 5.33528C8.30944 3.78149 9.52802 2.53371 11.0825 2.36828C21.3079 1.28076 31.6778 1.28076 41.9042 2.36828C43.4589 2.53381 44.6774 3.78159 44.8017 5.33745L44.8194 5.56106C44.8553 5.98841 45.2317 6.30551 45.6582 6.26969C46.0855 6.23376 46.4027 5.85818 46.3669 5.43093L46.3496 5.21157C46.1659 2.91385 44.3654 1.06874 42.0684 0.824215C31.733 -0.274901 21.2528 -0.274901 10.9184 0.824215C8.62146 1.06864 6.82118 2.91375 6.63732 5.21167C6.4545 7.50194 6.30625 9.81156 6.19216 12.0901C5.64887 12.157 5.10257 12.2286 4.54996 12.3099C2.62742 12.5925 1.13315 14.1344 0.916058 16.0595C-0.296209 26.7915 -0.305319 37.6737 0.888935 48.4033C1.11503 50.4441 2.76272 52.044 4.80587 52.2078C5.26562 52.2453 5.72548 52.2806 6.1843 52.3139C6.61082 52.3447 6.98381 52.0234 7.01487 51.5958C7.04593 51.1681 6.72438 50.7961 6.29662 50.7651C5.84236 50.7322 5.38706 50.6971 4.93072 50.6599C3.62725 50.5554 2.57648 49.5345 2.43217 48.2318C1.25065 37.6166 1.25965 26.8509 2.45898 16.2336C2.59719 15.0081 3.54971 14.0264 4.77585 13.8463C10.6951 12.9749 16.0374 12.954 21.1075 13.7823C22.3059 13.9782 23.2381 14.9565 23.3745 16.1615C23.395 16.3425 23.4146 16.5243 23.4342 16.7053L23.4403 16.7618C23.678 18.9416 25.5047 20.5786 27.6941 20.5784H27.717C33.321 20.553 39.004 20.7235 44.6093 21.0862C45.979 21.1746 47.075 22.277 47.1587 23.6507C47.5516 30.0862 47.5062 36.6072 47.0239 43.0326C47.0236 43.0363 47.0233 43.0399 47.0231 43.0436C46.8936 44.7783 46.7303 46.5306 46.5378 48.253C46.3949 49.5434 45.3455 50.5555 44.0421 50.6598C32.539 51.5856 20.8791 51.6922 9.38609 50.9766C8.95709 50.9488 8.58958 51.2754 8.56297 51.7032C8.53626 52.1312 8.86164 52.4997 9.28971 52.5264C14.3273 52.8401 19.3965 52.9969 24.4709 52.9969C25.4935 52.9969 29.4848 52.9998 30.4603 52.9998C36.468 52.9998 42.5311 52.7565 48.5234 52.2742C50.4268 52.1206 51.9617 50.6293 52.1732 48.7282C53.2685 38.8886 53.2604 28.9083 52.1494 19.0644ZM50.63 48.5568C50.5006 49.7202 49.5621 50.6327 48.3987 50.7266C47.9265 50.7646 47.4537 50.8008 46.9805 50.8358C47.5788 50.1861 47.9787 49.3514 48.0811 48.4248C48.2762 46.6813 48.4414 44.9064 48.5725 43.1496C48.5727 43.1463 48.5729 43.1429 48.5731 43.1395C49.0599 36.6473 49.1056 30.0586 48.7088 23.5561C48.6318 22.2928 48.0074 21.1763 47.0709 20.441C47.0529 19.2698 47.0258 18.095 46.9902 16.9188C47.6018 16.9834 48.1213 17.0469 48.5366 17.1081C49.6307 17.2684 50.4818 18.1451 50.6062 19.2393C51.7045 28.9678 51.7124 38.8315 50.63 48.5568Z" fill="#939393"/>
<path d="M39.5551 7.94999C39.0446 7.92804 38.5184 7.90931 37.989 7.8944C37.9739 7.36301 37.9552 6.8368 37.9334 6.32818C37.9052 5.67484 37.44 5.13061 36.8022 5.00473C35.5491 4.75751 34.2787 4.75751 33.0258 5.00473C32.3879 5.13061 31.9228 5.67484 31.8945 6.32829C31.8726 6.83876 31.8538 7.36498 31.839 7.8944C31.3095 7.90941 30.7833 7.92804 30.2728 7.94999C29.6194 7.97815 29.0752 8.44328 28.9492 9.0813C28.702 10.3342 28.702 11.6047 28.9492 12.8576C29.0752 13.4955 29.6195 13.9606 30.2728 13.9888C30.7833 14.0107 31.3095 14.0294 31.839 14.0444C31.854 14.5738 31.8726 15.1 31.8945 15.6106C31.9227 16.2639 32.3879 16.8081 33.0258 16.934C33.6523 17.0576 34.2831 17.1194 34.9139 17.1194C35.5447 17.1194 36.1757 17.0576 36.8022 16.934C37.4399 16.8081 37.905 16.2638 37.9333 15.6105C37.9551 15.1019 37.9739 14.5756 37.9889 14.0443C38.5183 14.0292 39.0445 14.0106 39.555 13.9887C40.2085 13.9605 40.7527 13.4954 40.8787 12.8573C41.1259 11.6045 41.1259 10.334 40.8787 9.0811C40.7529 8.44328 40.2086 7.97815 39.5551 7.94999ZM39.3772 12.442C38.8676 12.4633 38.3432 12.4813 37.8162 12.4956C37.0651 12.516 36.4608 13.1204 36.4405 13.8715C36.4261 14.4003 36.4081 14.9248 36.3868 15.4324C35.4088 15.6112 34.4192 15.6112 33.4414 15.4324C33.4201 14.9229 33.4021 14.3983 33.3878 13.8716C33.3675 13.1205 32.7631 12.5161 32.0118 12.4956C31.485 12.4813 30.9604 12.4633 30.451 12.442C30.2722 11.4642 30.2722 10.4744 30.451 9.49675C30.9605 9.47542 31.485 9.45741 32.0118 9.44312C32.7631 9.42273 33.3675 8.81835 33.3878 8.06718C33.4021 7.54035 33.4201 7.01579 33.4414 6.50645C34.4193 6.32766 35.4089 6.32766 36.3868 6.50645C36.408 7.01413 36.4261 7.53859 36.4405 8.06728C36.4608 8.81845 37.0652 9.42283 37.8163 9.44322C38.3432 9.45751 38.8676 9.47552 39.3772 9.49685C39.5558 10.4745 39.5558 11.4643 39.3772 12.442Z" fill="#939393"/>
<path d="M11.9543 6.68206C11.5254 6.68206 11.1779 7.0297 11.1779 7.45849C11.1779 7.88729 11.5254 8.23493 11.9543 8.23493H24.7588C25.1877 8.23493 25.5352 7.88729 25.5352 7.45849C25.5352 7.0297 25.1877 6.68206 24.7588 6.68206H11.9543Z" fill="#939393"/>
<path d="M18.0525 34.0288C19.6632 33.948 20.9858 32.6804 21.1291 31.0802C21.2752 29.4513 21.2752 27.7993 21.1291 26.1703C20.9858 24.57 19.6632 23.3025 18.0525 23.2216C14.8063 23.0589 11.5141 23.0589 8.26779 23.2216C6.65727 23.3024 5.33454 24.57 5.19116 26.1702C5.04509 27.7992 5.04509 29.4512 5.19116 31.0801C5.33454 32.6803 6.65727 33.948 8.26779 34.0287C9.89095 34.1102 11.5256 34.1509 13.1601 34.1509C14.7947 34.1509 16.4294 34.1103 18.0525 34.0288ZM6.73781 30.9416C6.60012 29.4046 6.60012 27.846 6.73781 26.3089C6.81255 25.4754 7.50368 24.8149 8.34564 24.7726C9.94302 24.6925 11.5516 24.6524 13.1601 24.6524C14.7687 24.6524 16.3772 24.6925 17.9746 24.7726C18.8166 24.8149 19.5078 25.4754 19.5825 26.3089C19.7201 27.846 19.7201 29.4046 19.5825 30.9417C19.5077 31.7753 18.8166 32.4358 17.9746 32.4779C14.78 32.6382 11.5404 32.6382 8.34564 32.4779C7.50379 32.4357 6.81255 31.7752 6.73781 30.9416Z" fill="#939393"/>
<path d="M8.9179 28.0221H17.4024C17.8313 28.0221 18.1789 27.6745 18.1789 27.2457C18.1789 26.8169 17.8313 26.4692 17.4024 26.4692H8.9179C8.489 26.4692 8.14147 26.8169 8.14147 27.2457C8.14147 27.6745 8.489 28.0221 8.9179 28.0221Z" fill="#939393"/>
<path d="M14.962 30.0049C14.962 29.5761 14.6145 29.2285 14.1856 29.2285H8.9179C8.489 29.2285 8.14147 29.5761 8.14147 30.0049C8.14147 30.4337 8.489 30.7813 8.9179 30.7813H14.1856C14.6144 30.7813 14.962 30.4337 14.962 30.0049Z" fill="#939393"/>
</svg>
