<svg width="53" height="53" viewBox="0 0 53 53" fill="none" xmlns="http://www.w3.org/2000/svg">
<path d="M50.5156 0.828125H2.48438C1.11228 0.828125 0 1.9404 0 3.3125V39.75C0 40.2073 0.370793 40.5781 0.828125 40.5781H19.6928L18.3678 47.2031H16.5625C16.1052 47.2031 15.7344 47.5739 15.7344 48.0312V50.5156H14.0781V52.1719H38.9219V50.5156H37.2656V48.0312C37.2656 47.5739 36.8948 47.2031 36.4375 47.2031H34.6308L33.3058 40.5781H52.1719C52.6292 40.5781 53 40.2073 53 39.75V3.3125C53 1.9404 51.8877 0.828125 50.5156 0.828125ZM35.6094 48.8594V50.5156H17.3906V48.8594H35.6094ZM20.0572 47.2031L21.3809 40.5781H31.6178L32.9428 47.2031H20.0572ZM51.3438 38.9219H1.65625V31.4688H51.3438V38.9219ZM10.7656 20.7031C10.983 20.7027 11.1914 20.6164 11.3453 20.463L14.9236 16.9236L21.7739 23.773C22.0973 24.0963 22.6215 24.0963 22.9449 23.773L25.6719 21.046L30.0551 25.4292C30.2104 25.5845 30.421 25.6719 30.6406 25.6719C30.8608 25.6723 31.0721 25.5849 31.2278 25.4292L38.8548 17.8022L41.5876 21.2207C41.7449 21.4171 41.9828 21.5314 42.2344 21.5312H47.2031V29.8125H5.79688V20.7031H10.7656ZM5.79688 19.0469V6.625H47.2031V19.875H42.6319L39.5686 16.0441C39.4216 15.8603 39.2033 15.7476 38.9683 15.7344C38.7332 15.7246 38.5045 15.8124 38.3364 15.977L30.6406 23.6728L26.2574 19.2895C25.934 18.9662 25.4098 18.9662 25.0864 19.2895L22.3594 22.0165L15.5116 15.1663C15.1885 14.8447 14.6662 14.8447 14.3431 15.1663L10.4253 19.0469H5.79688ZM51.3438 29.8125H48.8594V5.79688C48.8594 5.33954 48.4886 4.96875 48.0312 4.96875H4.96875C4.51142 4.96875 4.14062 5.33954 4.14062 5.79688V29.8125H1.65625V3.3125C1.65625 2.85517 2.02704 2.48438 2.48438 2.48438H50.5156C50.973 2.48438 51.3438 2.85517 51.3438 3.3125V29.8125Z" fill="#939393"/>
<path d="M26.5 32.2969C25.1279 32.2969 24.0156 33.4091 24.0156 34.7812C24.0156 36.1534 25.1279 37.2656 26.5 37.2656C27.8721 37.2656 28.9844 36.1534 28.9844 34.7812C28.9844 33.4091 27.8721 32.2969 26.5 32.2969ZM26.5 35.6094C26.0427 35.6094 25.6719 35.2386 25.6719 34.7812C25.6719 34.3239 26.0427 33.9531 26.5 33.9531C26.9573 33.9531 27.3281 34.3239 27.3281 34.7812C27.3281 35.2386 26.9573 35.6094 26.5 35.6094Z" fill="#939393"/>
<path d="M9.10938 9.10938C8.65204 9.10938 8.28125 9.48017 8.28125 9.9375V13.25H9.9375V10.7656H12.4219V9.10938H9.10938Z" fill="#939393"/>
</svg>
