<svg width="49" height="55" viewBox="0 0 49 55" fill="none" xmlns="http://www.w3.org/2000/svg">
<path d="M48.9653 52.1837L46.5212 37.9393C46.2578 36.4045 45.1641 35.1716 43.6667 34.722L37.0745 32.7419C36.938 31.1376 36.2773 29.6242 35.1777 28.4262C34.2981 27.468 33.1919 26.7703 31.9724 26.3853C32.1811 26.1548 32.3746 25.925 32.5521 25.7003C34.1198 23.7154 34.9591 21.5287 35.1727 20.0365H35.6813C37.004 20.0365 38.0802 18.9653 38.0802 17.6484V16.4243C38.0802 15.5454 37.5836 14.7491 36.8368 14.3359V11.3921C36.8368 10.9473 36.4745 10.5866 36.0277 10.5866C35.5808 10.5866 35.2187 10.9471 35.2187 11.3921V14.6968C34.9036 14.7513 34.5277 14.8454 34.1431 15.0066C34.1037 15.0209 34.0654 15.0374 34.0291 15.0573C33.9423 15.0967 33.8553 15.1383 33.7686 15.1852V8.69451C33.7686 6.90132 32.3033 5.44253 30.502 5.44253H28.2689C27.4986 5.44253 26.7462 5.70969 26.1499 6.19502L25.9307 6.37334C25.5282 6.70098 25.0202 6.88144 24.5002 6.88144C23.9802 6.88144 23.4721 6.70098 23.0696 6.37334L22.8505 6.19502C22.2542 5.70979 21.5018 5.44253 20.7316 5.44253H18.4982C16.6969 5.44253 15.2316 6.90132 15.2316 8.69451V15.1852C15.1449 15.1383 15.0579 15.0967 14.9711 15.0573C14.9348 15.0374 14.8966 15.0209 14.8572 15.0066C14.4727 14.8454 14.0966 14.7513 13.7816 14.6968V6.34058C13.7816 3.73259 15.913 1.61079 18.5328 1.61079H30.4673C33.0872 1.61079 35.2185 3.73259 35.2185 6.34058V7.60665C35.2185 8.05148 35.5807 8.4121 36.0275 8.4121C36.4742 8.4121 36.8365 8.05159 36.8365 7.60665V6.34058C36.8365 2.84442 33.9793 0 30.4673 0H18.5328C15.0207 0 12.1636 2.84442 12.1636 6.34058V14.336C11.4167 14.7492 10.9202 15.5454 10.9202 16.4244V17.6486C10.9202 18.9654 11.9963 20.0366 13.319 20.0366H13.8276C14.0411 21.5288 14.8805 23.7155 16.4482 25.7004C16.6255 25.9249 16.8189 26.1544 17.0273 26.3847C14.2239 27.2712 12.1795 29.7803 11.9258 32.7419L5.33339 34.722C3.83597 35.1716 2.74223 36.4045 2.47894 37.9393L1.48641 43.7238C1.4112 44.1623 1.7073 44.5784 2.14766 44.6532C2.58792 44.7283 3.00606 44.4334 3.08138 43.995L4.07391 38.2104C4.23318 37.2818 4.89486 36.5361 5.80074 36.2641L11.898 34.4327V36.0259C10.5004 36.282 9.31116 37.2377 8.82137 38.5619C8.69134 38.9134 8.61052 39.2814 8.58117 39.6556L7.99189 47.1854C7.94743 47.7526 8.14458 48.3174 8.5325 48.7347C8.92043 49.1522 9.47064 49.3917 10.042 49.3917H11.0507C11.4976 49.3917 11.8598 49.0312 11.8598 48.5863C11.8598 48.1413 11.4976 47.7809 11.0507 47.7809H10.042C9.92018 47.7809 9.803 47.73 9.72023 47.6409C9.63758 47.5519 9.5956 47.4316 9.6051 47.3107L10.1944 39.7809C10.2122 39.5541 10.2611 39.3312 10.3398 39.1184C10.6806 38.1973 11.6008 37.5735 12.6299 37.5663L12.7632 37.5653C12.7695 37.5652 12.7756 37.5652 12.7818 37.5652C13.7819 37.5652 14.6673 38.1298 15.0408 39.0076C15.1456 39.2537 15.2092 39.5138 15.2302 39.7809L15.8197 47.3108C15.829 47.4316 15.7871 47.5519 15.7044 47.641C15.6218 47.7299 15.5045 47.7809 15.3826 47.7809H14.3739C13.9271 47.7809 13.5648 48.1414 13.5648 48.5863C13.5648 49.0311 13.9271 49.3917 14.3739 49.3917H15.3826C15.954 49.3917 16.5043 49.1523 16.8921 48.7347C17.2802 48.3172 17.4773 47.7525 17.4329 47.1855L16.8434 39.6556C16.8088 39.215 16.7036 38.7854 16.5307 38.379C15.9977 37.1268 14.8581 36.2562 13.516 36.0206V33.9467L16.2971 33.1113C16.5502 33.6418 17.0516 34.7884 18.0449 37.2598C19.046 39.7535 20.2902 42.9498 21.4836 46.0571C21.4921 46.0832 21.5019 46.1087 21.5129 46.1336C22.3093 48.208 23.0818 50.2398 23.7425 51.9925C23.861 52.3068 24.1628 52.515 24.5 52.515C24.8372 52.515 25.139 52.3068 25.2575 51.9925C25.9181 50.2398 26.6906 48.208 27.4871 46.1336C27.4982 46.1087 27.5079 46.0831 27.5164 46.0571C28.7089 42.9517 29.9525 39.7574 30.9531 37.2644C31.9477 34.7898 32.4496 33.6423 32.7027 33.1113L35.4839 33.9467V38.7039C33.5569 39.0765 32.0973 40.7684 32.0973 42.7942C32.0973 45.092 33.9752 46.9616 36.2835 46.9616C38.5919 46.9616 40.4698 45.0922 40.4698 42.7942C40.4698 40.7751 39.0197 39.0873 37.102 38.7073V34.4328L43.1994 36.2642C44.1052 36.5362 44.7668 37.2819 44.9262 38.2105L47.3703 52.455C47.4109 52.6912 47.3477 52.9221 47.1925 53.1053C47.0373 53.2883 46.8192 53.3893 46.5785 53.3893H2.42153C2.18079 53.3893 1.96282 53.2884 1.80754 53.1053C1.65237 52.9221 1.58914 52.6913 1.62971 52.455L2.43631 47.754C2.51152 47.3155 2.21543 46.8994 1.77506 46.8246C1.3348 46.7494 0.916663 47.0444 0.841344 47.4828L0.0347415 52.1838C-0.0855745 52.8855 0.109845 53.6 0.570822 54.1441C1.03202 54.688 1.70654 55 2.42153 55H46.5785C47.2935 55 47.9681 54.688 48.4292 54.144C48.8902 53.5999 49.0856 52.8854 48.9653 52.1837ZM35.2282 16.3377C35.6593 16.2307 36.0053 16.2326 36.0092 16.2327C36.1486 16.2346 36.2842 16.2021 36.4046 16.1393C36.4406 16.2285 36.4619 16.3245 36.4619 16.4244V17.6486C36.4619 18.0772 36.1116 18.4259 35.6811 18.4259H35.2282V16.3377ZM13.7718 18.4259H13.3189C12.8884 18.4259 12.5381 18.0772 12.5381 17.6486V16.4244C12.5381 16.3245 12.5595 16.2285 12.5954 16.1394C12.7157 16.2022 12.8513 16.2347 12.9908 16.2327C12.9969 16.2338 13.342 16.2319 13.7718 16.3381V18.4259ZM15.3899 19.329V17.213C15.635 17.2861 15.9032 17.2761 16.1507 17.1733C16.5753 16.9969 16.8496 16.5873 16.8496 16.1296V8.69451C16.8496 7.78959 17.5892 7.05332 18.4982 7.05332H20.7314C21.1293 7.05332 21.5181 7.19136 21.8262 7.44208L22.0452 7.6204C22.7359 8.18265 23.6077 8.49213 24.5 8.49213C25.3923 8.49213 26.2641 8.18254 26.9548 7.6204L27.1738 7.44208C27.4818 7.19136 27.8707 7.05332 28.2686 7.05332H30.5018C31.4108 7.05332 32.1504 7.78959 32.1504 8.69451V16.1297C32.1504 16.5873 32.4247 16.997 32.8493 17.1734C32.9911 17.2323 33.1395 17.2609 33.2867 17.2609C33.3965 17.2609 33.5054 17.2449 33.6101 17.2137V19.329C33.6101 20.5049 32.7935 22.7885 31.28 24.7047C30.7787 25.3394 30.1342 26.0213 29.3408 26.6173C29.3157 26.6341 29.2916 26.6522 29.2686 26.6716C28.0394 27.5763 26.4589 28.2694 24.5 28.2694C22.5411 28.2694 20.9606 27.5763 19.7313 26.6715C19.7083 26.6522 19.6843 26.6341 19.6593 26.6174C18.8659 26.0213 18.2214 25.3394 17.72 24.7047C16.2066 22.7886 15.3899 20.5049 15.3899 19.329ZM29.8004 32.3415L24.5 36.2854L19.1996 32.3415C19.7252 31.6765 20.0197 30.8228 20.0197 30.0609V28.7626C21.2661 29.4299 22.7534 29.8803 24.5 29.8803C26.2466 29.8803 27.734 29.4299 28.9803 28.7626V30.0609C28.9803 30.8228 29.2748 31.6765 29.8004 32.3415ZM17.8494 31.4425C17.4173 31.2787 16.9383 31.2518 16.4852 31.3742C16.4654 31.3788 16.4459 31.3841 16.4271 31.3896L13.632 32.2292C14.1047 29.9152 15.9922 28.0733 18.4017 27.7166V30.0609C18.4017 30.5662 18.175 31.0886 17.8494 31.4425ZM20.0452 37.908C20.0437 37.9042 20.0422 37.9005 20.0408 37.8968C19.9998 37.7936 19.9593 37.6918 19.9191 37.5911C19.9119 37.5728 19.9047 37.5547 19.8975 37.5366C19.8582 37.4381 19.8192 37.3404 19.7808 37.2442C19.7781 37.2375 19.7754 37.2308 19.7727 37.2239C19.6528 36.9239 19.5373 36.6361 19.4261 36.3604C19.418 36.3404 19.4099 36.3201 19.4018 36.3002C19.3699 36.2211 19.3385 36.1433 19.3073 36.0664C19.2959 36.0381 19.2845 36.0102 19.2732 35.9822C19.243 35.9077 19.213 35.8336 19.1834 35.7611C19.1746 35.7394 19.166 35.7183 19.1572 35.6967C19.1036 35.565 19.0511 35.4366 19 35.3115C18.9862 35.2777 18.972 35.2432 18.9583 35.2098C18.9383 35.161 18.9187 35.1135 18.8991 35.0657C18.878 35.0142 18.8568 34.963 18.8361 34.9128C18.8283 34.894 18.8202 34.8741 18.8125 34.8554C18.8062 34.8404 18.8005 34.8265 18.7943 34.8116C18.7009 34.5855 18.6121 34.3725 18.5278 34.1722C18.5271 34.1706 18.5264 34.169 18.5257 34.1674C18.4809 34.0607 18.4369 33.9565 18.3947 33.8572C18.3728 33.8058 18.3513 33.7552 18.3301 33.7055L22.8886 37.0973L20.9839 37.9028C20.9805 37.9042 20.9771 37.9056 20.9737 37.9071L20.1784 38.2435C20.1333 38.1299 20.0892 38.0186 20.0452 37.908ZM21.9756 42.8395C21.8158 42.4267 21.6548 42.0115 21.4935 41.5968C21.2412 40.948 21.0003 40.3312 20.7697 39.7436L21.0716 39.6159L22.3052 41.0434L21.9756 42.8395ZM24.5156 49.3856C24.4924 49.3377 24.4648 49.2925 24.4329 49.2504C24.0673 48.2884 23.6033 47.0712 23.0898 45.732L23.8451 41.615H25.1549L25.9102 45.732C25.3721 47.135 24.8888 48.4036 24.5156 49.3856ZM25.4583 40.0043H23.5417L22.6347 38.9548L24.5 38.166L26.3653 38.9548L25.4583 40.0043ZM27.5065 41.5968C27.3452 42.0115 27.1842 42.4267 27.0244 42.8395L26.6948 41.0433L27.9284 39.6158L28.2303 39.7435C27.9997 40.3311 27.7588 40.948 27.5065 41.5968ZM30.6054 33.8572C30.5653 33.9513 30.5237 34.05 30.4813 34.1508C30.4758 34.1639 30.4702 34.1771 30.4646 34.1903C30.4227 34.2902 30.3799 34.3923 30.3357 34.4985C30.3328 34.5055 30.3298 34.5129 30.3269 34.52C30.2887 34.6116 30.2495 34.7062 30.2097 34.8025C30.2022 34.8206 30.1952 34.8372 30.1878 34.8554C30.1789 34.877 30.1694 34.8999 30.1605 34.9217C30.1428 34.9646 30.1247 35.0085 30.1066 35.0523C30.0844 35.1063 30.0623 35.1601 30.0395 35.2155C30.0323 35.2331 30.0248 35.2515 30.0175 35.2692C29.9612 35.4066 29.9033 35.5482 29.8442 35.6936C29.8349 35.7164 29.8257 35.7387 29.8165 35.7618C29.7872 35.8337 29.7574 35.9071 29.7275 35.9809C29.7159 36.0097 29.7041 36.0385 29.6924 36.0678C29.6615 36.1439 29.6303 36.221 29.5988 36.2992C29.59 36.3211 29.581 36.3434 29.5722 36.3653C29.4624 36.6373 29.3486 36.921 29.2304 37.2166C29.2265 37.2264 29.2226 37.236 29.2188 37.2458C29.1806 37.3413 29.1419 37.4385 29.1029 37.5363C29.0956 37.5546 29.0883 37.5728 29.081 37.5912C29.0406 37.6924 28.9999 37.7947 28.9587 37.8985C28.9579 37.9005 28.9572 37.9024 28.9564 37.9042C28.912 38.0162 28.8673 38.1287 28.8218 38.2437L28.0257 37.907C28.0229 37.9058 28.0201 37.9047 28.0174 37.9035L26.1116 37.0975L30.6701 33.7058C30.6487 33.7552 30.6272 33.8057 30.6054 33.8572ZM32.5729 31.3897L32.5725 31.3896L32.5704 31.389C32.1011 31.2488 31.6004 31.272 31.1507 31.4425C30.825 31.0886 30.5985 30.5662 30.5985 30.0609V27.7154C33.023 28.0712 34.9048 29.8957 35.3714 32.2302L32.5729 31.3897ZM38.8517 42.7942C38.8517 44.204 37.6996 45.3508 36.2835 45.3508C34.8675 45.3508 33.7153 44.204 33.7153 42.7942C33.7153 41.3844 34.8675 40.2375 36.2835 40.2375C37.6996 40.2375 38.8517 41.3844 38.8517 42.7942Z" fill="#939393"/>
</svg>
