<svg width="40" height="51" viewBox="0 0 40 51" fill="none" xmlns="http://www.w3.org/2000/svg">
<path d="M37.4531 3.1875H30.2812V0.796875C30.2812 0.356801 29.9244 0 29.4844 0H10.3594C9.9193 0 9.5625 0.356801 9.5625 0.796875V3.1875H2.39062C1.0703 3.1875 0 4.2578 0 5.57812V48.6094C0 49.9297 1.0703 51 2.39062 51H37.4531C38.7734 51 39.8438 49.9297 39.8438 48.6094V5.57812C39.8438 4.2578 38.7734 3.1875 37.4531 3.1875ZM26.2969 7.96875V6.375H11.1562V1.59375H28.6875V7.17188C28.6875 7.61195 29.0443 7.96875 29.4844 7.96875H31.0781V9.5625H8.76562V7.96875H26.2969ZM31.875 11.1562C32.3151 11.1562 32.6719 10.7994 32.6719 10.3594H34.2656V45.4219H5.57812V10.3594H7.17188C7.17188 10.7994 7.52868 11.1562 7.96875 11.1562H31.875ZM38.25 48.6094C38.25 49.0494 37.8932 49.4062 37.4531 49.4062H2.39062C1.95055 49.4062 1.59375 49.0494 1.59375 48.6094V5.57812C1.59375 5.13805 1.95055 4.78125 2.39062 4.78125H9.5625V6.375H7.96875C7.52868 6.375 7.17188 6.7318 7.17188 7.17188V8.76562H4.78125C4.34118 8.76562 3.98438 9.12243 3.98438 9.5625V46.2188C3.98438 46.6588 4.34118 47.0156 4.78125 47.0156H35.0625C35.5026 47.0156 35.8594 46.6588 35.8594 46.2188V9.5625C35.8594 9.12243 35.5026 8.76562 35.0625 8.76562H32.6719V7.17188C32.6719 6.7318 32.3151 6.375 31.875 6.375H30.2812V4.78125H37.4531C37.8932 4.78125 38.25 5.13805 38.25 5.57812V48.6094Z" fill="#D0D0D0"/>
<path d="M14.3438 36.6562H9.5625C9.12243 36.6562 8.76562 37.0131 8.76562 37.4531V42.2344C8.76562 42.6744 9.12243 43.0312 9.5625 43.0312H14.3438C14.7838 43.0312 15.1406 42.6744 15.1406 42.2344V37.4531C15.1406 37.0131 14.7838 36.6562 14.3438 36.6562ZM13.5469 41.4375H10.3594V38.25H13.5469V41.4375Z" fill="#D0D0D0"/>
<path d="M18.3281 37.4531H16.7344V39.0469H18.3281V37.4531Z" fill="#D0D0D0"/>
<path d="M21.5156 37.4531H19.9219V39.0469H21.5156V37.4531Z" fill="#D0D0D0"/>
<path d="M31.0781 40.6406H16.7344V42.2344H31.0781V40.6406Z" fill="#D0D0D0"/>
<path d="M28.6875 19.9219H23.9062V15.1406C23.9062 14.7006 23.5494 14.3438 23.1094 14.3438H16.7344C16.2943 14.3438 15.9375 14.7006 15.9375 15.1406V19.9219H11.1562C10.7162 19.9219 10.3594 20.2787 10.3594 20.7188V27.0938C10.3594 27.5338 10.7162 27.8906 11.1562 27.8906H15.9375V32.6719C15.9375 33.1119 16.2943 33.4688 16.7344 33.4688H23.1094C23.5494 33.4688 23.9062 33.1119 23.9062 32.6719V27.8906H28.6875C29.1276 27.8906 29.4844 27.5338 29.4844 27.0938V20.7188C29.4844 20.2787 29.1276 19.9219 28.6875 19.9219ZM27.8906 26.2969H23.1094C22.6693 26.2969 22.3125 26.6537 22.3125 27.0938V31.875H17.5312V27.0938C17.5312 26.6537 17.1744 26.2969 16.7344 26.2969H11.9531V21.5156H16.7344C17.1744 21.5156 17.5312 21.1588 17.5312 20.7188V15.9375H22.3125V20.7188C22.3125 21.1588 22.6693 21.5156 23.1094 21.5156H27.8906V26.2969Z" fill="#D0D0D0"/>
</svg>
