<svg width="40" height="36" viewBox="0 0 40 36" fill="none" xmlns="http://www.w3.org/2000/svg">
<g clip-path="url(#clip0)">
<path d="M39.3436 18.1157L33.5436 5.59129H35.2636C35.82 5.59129 36.2727 5.13049 36.2727 4.55989C36.2727 3.98929 35.8218 3.52849 35.2655 3.52849H24.2873C23.7709 1.10929 21.4327 -0.424306 19.0655 0.103094C17.3873 0.477494 16.0782 1.81489 15.7127 3.52849H4.73636C4.18 3.52849 3.72727 3.98929 3.72727 4.55989C3.72727 5.13049 4.17818 5.59129 4.73636 5.59129H6.45636L0.656364 18.1157C0.467032 18.1892 0.303794 18.3164 0.187054 18.4813C0.0703146 18.6461 0.00525222 18.8414 0 19.0427C0 23.5391 3.56727 27.1859 7.96909 27.1859H8.02C12.4345 27.1319 16.0091 23.5013 16.0909 18.9905C16.0967 18.7855 16.029 18.585 15.8999 18.4246C15.7708 18.2642 15.5886 18.1542 15.3855 18.1139L9.58545 5.58949H15.7164C16.1709 7.16809 17.4255 8.37049 18.9945 8.73409V28.0103C15.5636 28.4783 13.0127 31.4843 13.0436 35.0195C13.0436 35.5595 13.4709 35.9987 14 36.0005L14.0509 35.9987H25.9545C26.0823 36.0037 26.2098 35.9837 26.3296 35.9398C26.4495 35.8959 26.5594 35.8289 26.6531 35.7427C26.7467 35.6566 26.8222 35.5529 26.8752 35.4378C26.9282 35.3226 26.9576 35.1982 26.9618 35.0717L26.9636 35.0195C26.9945 31.4825 24.4418 28.4783 21.0127 28.0103V8.73409C21.7927 8.54681 22.5079 8.15651 23.0842 7.60362C23.6606 7.05073 24.0772 6.35535 24.2909 5.58949H30.42L24.62 18.1139C24.4126 18.165 24.2292 18.2852 24.1008 18.4543C23.9723 18.6235 23.9065 18.8312 23.9145 19.0427C23.9145 23.5391 27.4818 27.1859 31.8836 27.1859H31.9345C36.3418 27.1589 39.9218 23.5445 40.0036 19.0427C39.9907 18.843 39.9221 18.6507 39.8057 18.4871C39.6892 18.3235 39.5293 18.1949 39.3436 18.1157ZM8.02 25.1249C5.09273 25.1393 2.59091 22.9739 2.11818 20.0219H13.9709C13.4218 22.9487 10.9364 25.0799 8.02 25.1249ZM13.1145 17.9609H2.92545L8.02 6.77569L13.1145 17.9609ZM24.8418 33.9377H15.1582C15.7164 31.6463 17.6909 30.0083 20 29.9183C22.3091 30.0083 24.2836 31.6463 24.8418 33.9377ZM20 6.77569C18.6909 6.77569 17.6291 5.69029 17.6291 4.35289C17.6291 3.01549 18.6909 1.93009 20 1.93009C21.3091 1.93009 22.3709 3.01369 22.3709 4.35289C22.3709 5.69029 21.3091 6.77569 20 6.77569ZM31.98 6.77569L37.0745 17.9609H26.8855L31.98 6.77569ZM31.9309 25.1249C29.0036 25.1393 26.5018 22.9739 26.0291 20.0219H37.8818C37.3327 22.9487 34.8473 25.0799 31.9309 25.1249Z" fill="#888887"/>
</g>
<defs>
<clipPath id="clip0">
<rect width="40" height="36" fill="white"/>
</clipPath>
</defs>
</svg>
