<svg width="56" height="55" viewBox="0 0 56 55" fill="none" xmlns="http://www.w3.org/2000/svg">
<path d="M55.0667 0H7.46667V1.83333H23.3333V3.66667H1.86667V1.83333H5.6V0H0.933333C0.685798 0 0.448401 0.0965771 0.273367 0.268485C0.098333 0.440394 0 0.673552 0 0.916667V4.58333C0 4.82645 0.098333 5.05961 0.273367 5.23151C0.448401 5.40342 0.685798 5.5 0.933333 5.5H13.3817C13.1736 5.92953 13.066 6.39933 13.0667 6.875V8.25C13.0666 8.35785 13.0858 8.46486 13.1236 8.56614L9.17572 11.8891C8.62195 12.3542 8.24271 12.9881 8.09848 13.6896C7.95425 14.3912 8.05333 15.1199 8.37993 15.7597L8.98333 16.9444L7.93333 17.5395C7.71897 17.6611 7.56256 17.8613 7.49849 18.0961C7.43443 18.3309 7.46797 18.5811 7.59173 18.7917L8.99173 21.1733C9.06422 21.2965 9.16487 21.4014 9.28573 21.4799L11.0275 22.6092C11.1721 22.703 11.3405 22.7554 11.5137 22.7605C11.6869 22.7656 11.8582 22.7232 12.0083 22.6381L12.9416 24.2259L14.5582 23.3092L13.6249 21.7214C13.775 21.6363 13.898 21.5119 13.9802 21.362C14.0623 21.2121 14.1003 21.0427 14.0899 20.8727L13.965 18.8266C13.9563 18.6846 13.914 18.5465 13.8416 18.4233L12.4416 16.0417C12.3178 15.8311 12.1139 15.6775 11.8748 15.6146C11.6358 15.5517 11.381 15.5846 11.1666 15.7062L10.6023 16.0261L10.0497 14.9404C9.90968 14.6662 9.8672 14.3539 9.92901 14.0533C9.99081 13.7526 10.1533 13.4809 10.3907 13.2816L15.2787 9.16667H20.3707L17.0996 12.9148C16.6804 13.3938 16.4149 13.9838 16.3363 14.6106C16.2578 15.2374 16.3697 15.8731 16.6581 16.4376L17.2216 17.5445L16.4808 17.8093C16.3656 17.8505 16.2598 17.9136 16.1694 17.9949C16.0791 18.0762 16.0059 18.1742 15.9541 18.2833C15.9023 18.3924 15.8728 18.5105 15.8675 18.6308C15.8622 18.751 15.881 18.8712 15.9229 18.9843L17.1998 22.4298C17.2494 22.5635 17.3299 22.6841 17.4351 22.7819L18.9506 24.1913C19.0765 24.3084 19.2331 24.3887 19.4028 24.4233C19.5725 24.4579 19.7487 24.4453 19.9116 24.3871L20.8692 26.9712L22.6233 26.3442L21.6657 23.76C21.8285 23.7018 21.9716 23.6002 22.079 23.4667C22.1864 23.3331 22.2538 23.1728 22.2737 23.0038L22.5122 20.9675C22.5288 20.8261 22.5116 20.6829 22.4621 20.5491L21.1853 17.1036C21.1434 16.9905 21.0792 16.8866 20.9964 16.7978C20.9136 16.7091 20.8138 16.6372 20.7027 16.5863C20.5916 16.5354 20.4714 16.5065 20.3489 16.5013C20.2265 16.496 20.1041 16.5145 19.989 16.5557L18.9873 16.9139L18.3276 15.6177C18.2041 15.3758 18.1561 15.1034 18.1898 14.8347C18.2234 14.5661 18.3372 14.3132 18.5169 14.108L22.8293 9.16667H27.0667V18.3333H26.1333C25.8858 18.3333 25.6484 18.4299 25.4734 18.6018C25.2983 18.7737 25.2 19.0069 25.2 19.25V23.8333C25.2 23.9757 25.2337 24.116 25.2986 24.2433L26.2319 26.0766C26.3094 26.2289 26.4286 26.3569 26.576 26.4464C26.7235 26.5359 26.8933 26.5833 27.0667 26.5833V29.3333H28.9333V26.5833C29.1067 26.5833 29.2765 26.5359 29.424 26.4464C29.5714 26.3569 29.6906 26.2289 29.7681 26.0766L30.7014 24.2433C30.7663 24.116 30.8 23.9757 30.8 23.8333V19.25C30.8 19.0069 30.7017 18.7737 30.5266 18.6018C30.3516 18.4299 30.1142 18.3333 29.8667 18.3333H28.9333V9.16667H33.1707L37.4831 14.108C37.6628 14.3132 37.7766 14.5661 37.8102 14.8347C37.8439 15.1034 37.7959 15.3758 37.6724 15.6177L37.0127 16.9134L36.011 16.5552C35.8959 16.5141 35.7735 16.4956 35.6511 16.5008C35.5286 16.5061 35.4084 16.535 35.2973 16.5858C35.1862 16.6367 35.0864 16.7086 35.0036 16.7974C34.9208 16.8861 34.8566 16.99 34.8147 17.1032L33.5379 20.5487C33.4884 20.6824 33.4712 20.8256 33.4878 20.967L33.7263 23.0033C33.7462 23.1723 33.8136 23.3326 33.921 23.4662C34.0284 23.5998 34.1715 23.7013 34.3343 23.7595L33.3767 26.3437L35.1308 26.9707L36.0884 24.3867C36.2513 24.4449 36.4275 24.4574 36.5972 24.4228C36.7669 24.3882 36.9235 24.3079 37.0494 24.1908L38.5649 22.7815C38.6701 22.6836 38.7506 22.5631 38.8002 22.4293L40.0771 18.9838C40.119 18.8707 40.1378 18.7506 40.1325 18.6303C40.1272 18.51 40.0977 18.392 40.0459 18.2829C39.9941 18.1738 39.9209 18.0757 39.8306 17.9944C39.7402 17.9131 39.6344 17.85 39.5192 17.8089L38.7784 17.5441L39.3419 16.4371C39.6303 15.8726 39.7422 15.237 39.6637 14.6101C39.5851 13.9833 39.3196 13.3933 38.9004 12.9143L35.6293 9.16667H40.7213L45.6097 13.2815C45.847 13.4809 46.0095 13.7525 46.0713 14.0532C46.1331 14.3539 46.0907 14.6662 45.9507 14.9404L45.398 16.0261L44.8337 15.7062C44.7276 15.6459 44.6104 15.6069 44.4888 15.5911C44.3673 15.5754 44.2438 15.5833 44.1254 15.6145C44.007 15.6456 43.8959 15.6994 43.7987 15.7727C43.7014 15.846 43.6198 15.9374 43.5585 16.0417L42.1586 18.4233C42.0861 18.5465 42.0438 18.6846 42.0351 18.8266L41.91 20.8727C41.8997 21.0427 41.9377 21.2121 42.0198 21.362C42.102 21.5119 42.225 21.6363 42.3751 21.7214L41.4417 23.3092L43.0584 24.2259L43.9917 22.6381C44.1418 22.7232 44.3131 22.7656 44.4863 22.7605C44.6595 22.7554 44.8279 22.703 44.9725 22.6092L46.7143 21.4799C46.8351 21.4014 46.9358 21.2965 47.0083 21.1733L48.4083 18.7917C48.532 18.5811 48.5656 18.3309 48.5015 18.0961C48.4374 17.8613 48.281 17.6611 48.0667 17.5395L47.0167 16.9444L47.6195 15.7603C47.9461 15.1205 48.0452 14.3917 47.9009 13.6901C47.7567 12.9886 47.3774 12.3547 46.8236 11.8895L42.8758 8.56659C42.9139 8.46523 42.9333 8.35804 42.9333 8.25V6.875C42.934 6.39933 42.8264 5.92953 42.6183 5.5H55.0667C55.3142 5.5 55.5516 5.40342 55.7266 5.23151C55.9017 5.05961 56 4.82645 56 4.58333V0.916667C56 0.673552 55.9017 0.440394 55.7266 0.268485C55.5516 0.0965771 55.3142 0 55.0667 0ZM11.2916 17.7522L12.1147 19.1525L12.192 20.417L11.5745 20.7672L10.4981 20.0692L9.67493 18.6688L11.2916 17.7522ZM20.6326 20.972L20.4851 22.2304L19.8152 22.4699L18.8785 21.5991L17.9963 19.2183L19.7504 18.5913L20.6326 20.972ZM28.9333 23.6169L28.3565 24.75H27.6435L27.0667 23.6169V20.1667H28.9333V23.6169ZM37.1215 21.599L36.1847 22.4698L35.5149 22.2303L35.3674 20.9718L36.2496 18.591L38.0037 19.218L37.1215 21.599ZM45.5019 20.0687L44.4255 20.7667L43.808 20.4166L43.8853 19.152L44.7084 17.7517L46.3251 18.6684L45.5019 20.0687ZM23.3333 5.5V7.33333H14.9333V6.875C14.9337 6.51045 15.0814 6.16094 15.3438 5.90316C15.6063 5.64539 15.9622 5.50039 16.3333 5.5H23.3333ZM25.2 7.33333V1.83333H30.8V7.33333H25.2ZM41.0667 6.875V7.33333H32.6667V5.5H39.6667C40.0378 5.50039 40.3937 5.64539 40.6562 5.90316C40.9186 6.16094 41.0663 6.51045 41.0667 6.875ZM54.1333 3.66667H32.6667V1.83333H54.1333V3.66667Z" fill="#939393"/>
<path d="M28.9333 3.66667H27.0667V5.5H28.9333V3.66667Z" fill="#939393"/>
<path d="M55.0667 31.1667H15.8667C15.8667 30.9236 15.7683 30.6904 15.5933 30.5185C15.4183 30.3466 15.1809 30.25 14.9333 30.25H4.66667C4.41913 30.25 4.18173 30.3466 4.0067 30.5185C3.83167 30.6904 3.73333 30.9236 3.73333 31.1667H0.933333C0.685798 31.1667 0.448401 31.2632 0.273367 31.4352C0.098333 31.6071 0 31.8402 0 32.0833V33.4583C0.000941336 34.3025 0.340205 35.1124 0.944409 35.7128C1.54861 36.3132 2.36918 36.6559 3.22863 36.6667L3.73333 36.7041V45.8333C3.73333 46.0765 3.83167 46.3096 4.0067 46.4815C4.18173 46.6534 4.41913 46.75 4.66667 46.75H14.9333C15.1809 46.75 15.4183 46.6534 15.5933 46.4815C15.7683 46.3096 15.8667 46.0765 15.8667 45.8333V37.6033L17.7333 37.7417V41.25C17.7333 41.4931 17.8317 41.7263 18.0067 41.8982C18.1817 42.0701 18.4191 42.1667 18.6667 42.1667H19.6V49.5H14.4667C13.6006 49.501 12.7703 49.8393 12.1579 50.4408C11.5455 51.0422 11.201 51.8577 11.2 52.7083V54.0833C11.2 54.3265 11.2983 54.5596 11.4734 54.7315C11.6484 54.9034 11.8858 55 12.1333 55H37.3333V53.1667H13.0667V52.7083C13.0671 52.3438 13.2147 51.9943 13.4772 51.7365C13.7396 51.4787 14.0955 51.3337 14.4667 51.3333H41.5333C41.9045 51.3337 42.2604 51.4787 42.5228 51.7365C42.7853 51.9943 42.9329 52.3438 42.9333 52.7083V53.1667H39.2V55H43.8667C44.1142 55 44.3516 54.9034 44.5266 54.7315C44.7017 54.5596 44.8 54.3265 44.8 54.0833V52.7083C44.799 51.8577 44.4545 51.0422 43.8421 50.4408C43.2297 49.8393 42.3994 49.501 41.5333 49.5H36.4V42.1667H37.3333C37.5809 42.1667 37.8183 42.0701 37.9933 41.8982C38.1683 41.7263 38.2667 41.4931 38.2667 41.25V37.7416L52.7714 36.6667C53.6308 36.6559 54.4514 36.3132 55.0556 35.7128C55.6598 35.1124 55.9991 34.3025 56 33.4583V32.0833C56 31.8402 55.9017 31.6071 55.7266 31.4352C55.5516 31.2632 55.3142 31.1667 55.0667 31.1667ZM3.33667 34.8359C3.31333 34.8343 3.29 34.8333 3.26667 34.8333C2.89549 34.8329 2.53962 34.6879 2.27716 34.4302C2.0147 34.1724 1.86707 33.8229 1.86667 33.4583V33H3.73333V34.8653L3.33667 34.8359ZM5.6 44.9167V32.0833H14V41.25H7.46667V43.0833H14V44.9167H5.6ZM34.5333 49.5H21.4667V42.1667H23.3333V43.3125C23.3347 44.4669 23.8022 45.5736 24.6333 46.3899C25.4644 47.2062 26.5913 47.6654 27.7667 47.6667H28.2333C29.4087 47.6654 30.5356 47.2062 31.3667 46.3899C32.1978 45.5736 32.6653 44.4669 32.6667 43.3125V42.1667H34.5333V49.5ZM25.2 42.1667H30.8V43.3125C30.7992 43.9808 30.5286 44.6216 30.0474 45.0942C29.5662 45.5667 28.9138 45.8326 28.2333 45.8333H27.7667C27.0862 45.8326 26.4338 45.5667 25.9526 45.0942C25.4714 44.6216 25.2008 43.9808 25.2 43.3125V42.1667ZM36.4 40.3333H19.6V37.88L27.93 38.4975C27.9533 38.4992 27.9767 38.5 28 38.5C28.0233 38.5 28.0467 38.4992 28.07 38.4975L36.4 37.88V40.3333ZM54.1333 33.4583C54.1329 33.8229 53.9853 34.1724 53.7228 34.4302C53.4604 34.6879 53.1045 34.8329 52.7333 34.8333C52.71 34.8333 52.6867 34.8342 52.6633 34.8359L28 36.664L15.8667 35.7647V33H54.1333V33.4583Z" fill="#939393"/>
</svg>
