<svg width="36" height="36" viewBox="0 0 36 36" fill="none" xmlns="http://www.w3.org/2000/svg">
<g clip-path="url(#clip0)">
<path d="M34.1237 11.2736H24.7307V1.88362C24.7307 0.847115 23.8892 0.00561523 22.8527 0.00561523H13.1462C12.1082 0.00561523 11.2682 0.847115 11.2682 1.88362V11.2736H1.87522C0.838719 11.2736 -0.00278091 12.1136 -0.00278091 13.1516V22.8536C-0.00278091 23.8901 0.838719 24.7316 1.87522 24.7316H11.2682V34.1216C11.2682 35.1596 12.1082 35.9996 13.1462 35.9996H22.8527C23.8892 35.9996 24.7307 35.1581 24.7307 34.1216V24.7316H34.1237C35.1602 24.7316 36.0032 23.8901 36.0032 22.8536V13.1516C36.0028 12.6534 35.8046 12.1757 35.4522 11.8236C35.0998 11.4714 34.6219 11.2736 34.1237 11.2736Z" fill="#888887"/>
<path d="M32.2455 13.4192H22.5855V3.76075C22.5855 2.87125 21.864 2.15125 20.9745 2.15125H15.0255C14.136 2.15125 13.4145 2.87125 13.4145 3.76075V13.4192H3.75448C2.86498 13.4192 2.14348 14.1407 2.14348 15.0287V20.9747C2.14348 21.8642 2.86498 22.5842 3.75448 22.5842H13.4145V32.2427C13.4145 33.1322 14.136 33.8522 15.0255 33.8522H20.9745C21.864 33.8522 22.5855 33.1322 22.5855 32.2427V22.5842H32.2455C33.135 22.5842 33.8565 21.8627 33.8565 20.9747V15.0302C33.8561 14.6031 33.6862 14.1936 33.3842 13.8915C33.0822 13.5895 32.6726 13.4196 32.2455 13.4192Z" fill="#F8F8F9"/>
</g>
<defs>
<clipPath id="clip0">
<rect width="36" height="36" fill="white"/>
</clipPath>
</defs>
</svg>
