<svg width="55" height="55" viewBox="0 0 55 55" fill="none" xmlns="http://www.w3.org/2000/svg">
<path d="M54.1403 11.1721H40.3905V6.01592H42.1092C42.5838 6.01592 42.9686 5.63114 42.9686 5.15656V2.57847C42.9686 1.62919 42.1991 0.859741 41.2498 0.859741H13.7502C12.8009 0.859741 12.0315 1.62919 12.0315 2.57847V5.15656C12.0315 5.63114 12.4163 6.01592 12.8909 6.01592H14.6096V11.1721H0.859766C0.385183 11.1721 0.000402826 11.5569 0.000402826 12.0315V28.3594C-0.000134275 28.3831 -0.000134275 28.4068 0.000402826 28.4306C0.0200608 29.3601 0.789621 30.0977 1.71913 30.0781H2.57849V52.4061C2.57849 52.6336 2.66883 52.8518 2.82943 53.0128L3.7034 53.8885C3.86474 54.0498 4.08367 54.1405 4.31183 54.1403H50.696C50.9241 54.1405 51.143 54.0498 51.3044 53.8885L52.1698 53.0214C52.3309 52.8602 52.4216 52.6417 52.4216 52.4138V30.0781H53.2809C53.3047 30.0786 53.3284 30.0786 53.3521 30.0781C54.2818 30.0584 55.0193 29.2889 54.9997 28.3594V12.0315C54.9995 11.5568 54.6149 11.1721 54.1403 11.1721ZM13.7502 4.29719V2.57847H41.2498V4.29719H13.7502ZM38.6717 6.01592V11.1721H16.3283V6.01592H38.6717ZM53.2808 14.6096H38.6716V16.3283H53.2808V28.3594H44.6873V30.0781H46.406V43.8279H48.1247V30.0781H50.7028V52.058L50.3402 52.4215H4.66836L4.29711 52.0503V49.8434H42.9685V48.1247H4.29711V30.0781H6.8752V43.8279H8.59393V30.0781H10.3127V28.3594H1.71902V12.8908H53.2808V14.6096Z" fill="#939393"/>
<path d="M4.29718 14.6095C3.82249 14.6095 3.43782 14.9942 3.43782 15.4689V18.9063H5.15655V16.3283H7.73464V14.6095H4.29718Z" fill="#939393"/>
<path d="M27.5 17.1876C19.9062 17.1876 13.7502 23.3437 13.7502 30.9375C13.7502 38.5312 19.9062 44.6873 27.5 44.6873C35.0901 44.6782 41.2408 38.5276 41.2498 30.9375C41.2498 23.3436 35.0938 17.1876 27.5 17.1876ZM27.5 42.9685C20.8554 42.9685 15.4689 37.582 15.4689 30.9375C15.4689 24.2929 20.8554 18.9064 27.5 18.9064C34.1416 18.9135 39.524 24.2959 39.5311 30.9375C39.5311 37.5819 34.1445 42.9685 27.5 42.9685Z" fill="#939393"/>
<path d="M35.2343 27.5H30.9374V23.2032C30.9374 22.7286 30.5527 22.3438 30.0781 22.3438H24.9219C24.4473 22.3438 24.0625 22.7286 24.0625 23.2032V27.5H19.7657C19.2911 27.5 18.9064 27.8848 18.9064 28.3594V33.5155C18.9064 33.9901 19.2911 34.3749 19.7657 34.3749H24.0625V38.6717C24.0625 39.1463 24.4473 39.5311 24.9219 39.5311H30.0781C30.5527 39.5311 30.9374 39.1463 30.9374 38.6717V34.3749H35.2343C35.7088 34.3749 36.0936 33.9901 36.0936 33.5155V28.3594C36.0936 27.8847 35.7088 27.5 35.2343 27.5ZM34.3749 32.6562H30.0781C29.6035 32.6562 29.2187 33.041 29.2187 33.5155V37.8124H25.7813V33.5155C25.7813 33.041 25.3965 32.6562 24.9219 32.6562H20.6251V29.2187H24.9219C25.3965 29.2187 25.7813 28.8339 25.7813 28.3594V24.0625H29.2187V28.3594C29.2187 28.8339 29.6035 29.2187 30.0781 29.2187H34.3749V32.6562Z" fill="#939393"/>
</svg>
