<svg width="26" height="34" viewBox="0 0 26 34" fill="none" xmlns="http://www.w3.org/2000/svg">
<path d="M23.6583 14.8169H23.1568V10.387C23.1568 4.66225 18.4917 0 12.7457 0C7.00825 0 2.33608 4.65517 2.33608 10.387C2.33608 10.9154 2.75967 11.3376 3.2895 11.3376C3.41467 11.3383 3.53876 11.3143 3.65459 11.2668C3.77041 11.2193 3.87569 11.1494 3.96433 11.061C4.05298 10.9726 4.12324 10.8676 4.17105 10.7519C4.21887 10.6362 4.24329 10.5122 4.24292 10.387C4.24292 5.71058 8.05375 1.90117 12.7472 1.90117C17.4335 1.90117 21.2514 5.7035 21.2514 10.387V14.8169H1.84167C1.35396 14.8169 0.88617 15.0104 0.540912 15.3548C0.195654 15.6993 0.00112547 16.1666 0 16.6543L0 28.492C0.0037495 29.9536 0.586814 31.3541 1.6214 32.3866C2.65599 33.4191 4.05771 33.9993 5.51933 34H19.9807C21.442 33.9993 22.8436 33.4193 23.8781 32.3871C24.9126 31.3549 25.4959 29.9548 25.5 28.4934V16.6558C25.4992 16.1678 25.3049 15.7001 24.9596 15.3553C24.6143 15.0106 24.1463 14.8169 23.6583 14.8169ZM23.5946 28.4934C23.5927 29.4505 23.2111 30.3678 22.5335 31.0438C21.8559 31.7197 20.9378 32.0992 19.9807 32.0988H5.52642C4.5693 32.0992 3.65116 31.7197 2.97358 31.0438C2.296 30.3678 1.91438 29.4505 1.9125 28.4934V16.7181H23.5946V28.4934Z" fill="#888887"/>
<path d="M12.7529 28.1045C13.6968 28.1049 14.6024 27.7307 15.2706 27.064C15.9389 26.3973 16.3153 25.4927 16.3172 24.5487C16.3172 23.6034 15.9417 22.6968 15.2732 22.0283C14.6048 21.3599 13.6982 20.9844 12.7529 20.9844C11.8076 20.9844 10.9009 21.3599 10.2325 22.0283C9.56406 22.6968 9.18854 23.6034 9.18854 24.5487C9.19041 25.4927 9.56681 26.3973 10.2351 27.064C10.9034 27.7307 11.8089 28.1049 12.7529 28.1045ZM12.7529 22.887C13.6709 22.887 14.4118 23.6335 14.4118 24.5416C14.4127 24.9816 14.2389 25.4039 13.9284 25.7157C13.618 26.0275 13.1964 26.2031 12.7564 26.2041C12.3164 26.205 11.8941 26.0311 11.5823 25.7207C11.2706 25.4103 11.0949 24.9887 11.094 24.5487C11.0954 24.1089 11.2706 23.6876 11.5813 23.3763C11.892 23.0651 12.3131 22.8892 12.7529 22.887Z" fill="#888887"/>
</svg>
