<?xml version="1.0" encoding="utf-8"?>
<svg version="1.1" xmlns="http://www.w3.org/2000/svg" viewBox="0 0 200 200">
<style type="text/css">
	#Pulse{fill:none;stroke:#D38911;stroke-width:5; transform: rotateX(80deg);}
  ._transformer{transform-box: fill-box; transform-origin: center;}
	#side{fill:#F7931E;}
	#front{fill:#FBB03B;}
	.particles{fill:none;stroke:#F15A24;stroke-width:5;stroke-linecap:round;stroke-miterlimit:10;stroke-dasharray:12,200;}
	</style>

	<circle id="Pulse" cx="100" cy="167" r="0">

    </circle>
	<g id="Sign">
		<path id="side" d="M60.3,74.1c0-5.3,1.7-10.6,5.1-16.1c3.4-5.4,8.3-9.9,14.9-13.5c6.5-3.6,14.1-5.3,22.8-5.3
			c8.1,0,15.2,1.5,21.4,4.5c6.2,3,11,7,14.3,12.1c3.4,5.1,5.1,10.7,5.1,16.7c0,4.7-1,8.9-2.9,12.4c-1.9,3.6-4.2,6.6-6.8,9.2
			c-2.6,2.6-7.4,6.9-14.2,13.1c-1.9,1.7-3.4,3.2-4.5,4.6c-1.1,1.3-2,2.5-2.5,3.6c-0.6,1.1-1,2.2-1.3,3.3c-0.3,1.1-0.8,3-1.4,5.7
			c-1.1,5.8-4.4,8.7-9.9,8.7c-2.9,0-5.3-0.9-7.3-2.8c-2-1.9-3-4.7-3-8.4c0-4.7,0.7-8.7,2.2-12.1c1.4-3.4,3.4-6.4,5.8-9
			c2.4-2.6,5.6-5.7,9.7-9.2c3.6-3.1,6.1-5.5,7.7-7.1c1.6-1.6,2.9-3.4,4-5.3c1.1-1.9,1.6-4.1,1.6-6.3c0-4.5-1.7-8.2-5-11.3
			c-3.3-3.1-7.6-4.6-12.8-4.6c-6.1,0-10.6,1.5-13.5,4.6c-2.9,3.1-5.3,7.6-7.3,13.7c-1.9,6.3-5.5,9.4-10.8,9.4
			c-3.1,0-5.7-1.1-7.9-3.3C61.3,79,60.3,76.6,60.3,74.1z M101,165.6c-3.4,0-6.4-1.1-8.9-3.3c-2.5-2.2-3.8-5.3-3.8-9.2
			c0-3.5,1.2-6.5,3.7-8.8c2.4-2.4,5.5-3.6,9-3.6c3.5,0,6.5,1.2,8.8,3.6c2.4,2.4,3.6,5.3,3.6,8.8c0,3.9-1.3,7-3.8,9.2
			C107.2,164.5,104.3,165.6,101,165.6z"/>
		<path id="front" d="M57.3,72.1c0-5.3,1.7-10.6,5.1-16.1c3.4-5.4,8.3-9.9,14.9-13.5c6.5-3.6,14.1-5.3,22.8-5.3
			c8.1,0,15.2,1.5,21.4,4.5c6.2,3,11,7,14.3,12.1c3.4,5.1,5.1,10.7,5.1,16.7c0,4.7-1,8.9-2.9,12.4c-1.9,3.6-4.2,6.6-6.8,9.2
			c-2.6,2.6-7.4,6.9-14.2,13.1c-1.9,1.7-3.4,3.2-4.5,4.6c-1.1,1.3-2,2.5-2.5,3.6c-0.6,1.1-1,2.2-1.3,3.3c-0.3,1.1-0.8,3-1.4,5.7
			c-1.1,5.8-4.4,8.7-9.9,8.7c-2.9,0-5.3-0.9-7.3-2.8c-2-1.9-3-4.7-3-8.4c0-4.7,0.7-8.7,2.2-12.1c1.4-3.4,3.4-6.4,5.8-9
			c2.4-2.6,5.6-5.7,9.7-9.2c3.6-3.1,6.1-5.5,7.7-7.1c1.6-1.6,2.9-3.4,4-5.3c1.1-1.9,1.6-4.1,1.6-6.3c0-4.5-1.7-8.2-5-11.3
			c-3.3-3.1-7.6-4.6-12.8-4.6c-6.1,0-10.6,1.5-13.5,4.6c-2.9,3.1-5.3,7.6-7.3,13.7c-1.9,6.3-5.5,9.4-10.8,9.4
			c-3.1,0-5.7-1.1-7.9-3.3C58.3,77,57.3,74.6,57.3,72.1z M98,163.6c-3.4,0-6.4-1.1-8.9-3.3c-2.5-2.2-3.8-5.3-3.8-9.2
			c0-3.5,1.2-6.5,3.7-8.8c2.4-2.4,5.5-3.6,9-3.6c3.5,0,6.5,1.2,8.8,3.6c2.4,2.4,3.6,5.3,3.6,8.8c0,3.9-1.3,7-3.8,9.2
			C104.2,162.5,101.3,163.6,98,163.6z"/>
	</g>
<g id="Particles">
	<line class="particles" x1="81.5" y1="149.5" x2="52.5" y2="91.5"/>
	<line class="particles" x1="90.5" y1="146.5" x2="86.5" y2="86.5"/>
	<line class="particles" x1="100.5" y1="146.5" x2="123.5" y2="99.5"/>
	<line class="particles" x1="109.5" y1="152.5" x2="137.5" y2="112.5"/>
</g>
</svg>
