<?xml version="1.0" encoding="UTF-8"?><!DOCTYPE svg PUBLIC "-//W3C//DTD SVG 1.1//EN" "http://www.w3.org/Graphics/SVG/1.1/DTD/svg11.dtd"><svg xmlns="http://www.w3.org/2000/svg" xmlns:xlink="http://www.w3.org/1999/xlink"><defs>
<linearGradient id="paint0_linear" x1="30" y1="56.3672" x2="30" y2="10.6641" gradientUnits="userSpaceOnUse">
<stop stop-color="#FD5900"/>
<stop offset="1" stop-color="#FFDE00"/>
</linearGradient>
<linearGradient id="paint1_linear" x1="30.0001" y1="49.3359" x2="30.0001" y2="3.63281" gradientUnits="userSpaceOnUse">
<stop stop-color="#FFE59A"/>
<stop offset="1" stop-color="#FFF7B0"/>
</linearGradient>

<linearGradient id="paint0_linear" x1="28.1977" y1="60" x2="28.1977" y2="0" gradientUnits="userSpaceOnUse">
<stop stop-color="#5558FF"/>
<stop offset="1" stop-color="#00C0FF"/>
</linearGradient>
<linearGradient id="paint1_linear" x1="31.1272" y1="51.0341" x2="31.1272" y2="2.0859" gradientUnits="userSpaceOnUse">
<stop stop-color="#ADDCFF"/>
<stop offset="1" stop-color="#E1F2FF"/>
</linearGradient>

<linearGradient id="paint0_linear" x1="30.0011" y1="53.999" x2="30.0011" y2="35.1562" gradientUnits="userSpaceOnUse">
<stop stop-color="#C3FFE8"/>
<stop offset="0.9973" stop-color="#F0FFF4"/>
</linearGradient>
<linearGradient id="paint1_linear" x1="30.0004" y1="60" x2="30.0004" y2="0" gradientUnits="userSpaceOnUse">
<stop stop-color="#00B59C"/>
<stop offset="1" stop-color="#9CFFAC"/>
</linearGradient>
<linearGradient id="paint2_linear" x1="30" y1="31.641" x2="30" y2="7.03125" gradientUnits="userSpaceOnUse">
<stop stop-color="#9BFF9D"/>
<stop offset="0.9973" stop-color="#E2FFEA"/>
<stop offset="1" stop-color="#E2FFEA"/>
</linearGradient>

<linearGradient id="paint0_linear" x1="30.0007" y1="60" x2="30.0007" y2="0" gradientUnits="userSpaceOnUse">
<stop stop-color="#A93AFF"/>
<stop offset="1" stop-color="#FF81FF"/>
</linearGradient>
<linearGradient id="paint1_linear" x1="30.0008" y1="45.9371" x2="30.0008" y2="14.2969" gradientUnits="userSpaceOnUse">
<stop stop-color="#FFBEF9"/>
<stop offset="1" stop-color="#FFF1FF"/>
</linearGradient>
<linearGradient id="paint2_linear" x1="30.0009" y1="37.1483" x2="30.0009" y2="26.6016" gradientUnits="userSpaceOnUse">
<stop stop-color="#A93AFF"/>
<stop offset="1" stop-color="#FF81FF"/>
</linearGradient>
<clipPath id="clip0">
<rect width="60" height="60" fill="white"/>
</clipPath>

<linearGradient id="paint0_linear" x1="24.6094" y1="60" x2="24.6094" y2="10.7812" gradientUnits="userSpaceOnUse">
<stop stop-color="#FD3A84"/>
<stop offset="1" stop-color="#FFA68D"/>
</linearGradient>
<linearGradient id="paint1_linear" x1="24.6094" y1="52.9688" x2="24.6094" y2="17.8125" gradientUnits="userSpaceOnUse">
<stop stop-color="#FFC2CC"/>
<stop offset="1" stop-color="#FFF2F4"/>
</linearGradient>
<linearGradient id="paint2_linear" x1="24.6094" y1="45.9375" x2="24.6094" y2="24.8438" gradientUnits="userSpaceOnUse">
<stop stop-color="#FD3A84"/>
<stop offset="1" stop-color="#FFA68D"/>
</linearGradient>
<linearGradient id="paint3_linear" x1="41.4257" y1="37.1484" x2="41.4257" y2="-7.30692e-05" gradientUnits="userSpaceOnUse">
<stop stop-color="#FFC2CC"/>
<stop offset="1" stop-color="#FFF2F4"/>
</linearGradient>
<clipPath id="clip0">
<rect width="60" height="60" fill="white"/>
</clipPath>
</defs><symbol id="icon-arrow-light" viewBox="0 0 512 512">
<g>
	<g>
		<path d="M508.875,248.458l-160-160c-4.167-4.167-10.917-4.167-15.083,0c-4.167,4.167-4.167,10.917,0,15.083l141.792,141.792
			H10.667C4.771,245.333,0,250.104,0,256s4.771,10.667,10.667,10.667h464.917L333.792,408.458c-4.167,4.167-4.167,10.917,0,15.083
			c2.083,2.083,4.813,3.125,7.542,3.125c2.729,0,5.458-1.042,7.542-3.125l160-160C513.042,259.375,513.042,252.625,508.875,248.458z
			"/>
	</g>
</g>
<g>
</g>
<g>
</g>
<g>
</g>
<g>
</g>
<g>
</g>
<g>
</g>
<g>
</g>
<g>
</g>
<g>
</g>
<g>
</g>
<g>
</g>
<g>
</g>
<g>
</g>
<g>
</g>
<g>
</g>
</symbol><symbol id="icon-arrow" viewBox="0 0 512 512">
<g>
	<g>
		<path d="M508.875,248.458l-160-160c-4.167-4.167-10.917-4.167-15.083,0c-4.167,4.167-4.167,10.917,0,15.083l141.792,141.792
			H10.667C4.771,245.333,0,250.104,0,256s4.771,10.667,10.667,10.667h464.917L333.792,408.458c-4.167,4.167-4.167,10.917,0,15.083
			c2.083,2.083,4.813,3.125,7.542,3.125c2.729,0,5.458-1.042,7.542-3.125l160-160C513.042,259.375,513.042,252.625,508.875,248.458z
			"/>
	</g>
</g>
<g>
</g>
<g>
</g>
<g>
</g>
<g>
</g>
<g>
</g>
<g>
</g>
<g>
</g>
<g>
</g>
<g>
</g>
<g>
</g>
<g>
</g>
<g>
</g>
<g>
</g>
<g>
</g>
<g>
</g>
</symbol><symbol id="icon-card" viewBox="0 0 60 60">
<path d="M1.75781 10.6641C0.77332 10.6641 0 11.4374 0 12.4219V54.6094C0 55.5939 0.77332 56.3672 1.75781 56.3672H58.2422C59.2267 56.3672 60 55.5939 60 54.6094V12.4219C60 11.4374 59.2267 10.6641 58.2422 10.6641H1.75781Z" fill="url(#paint0_linear)"/>
<path d="M24.7266 31.7578C24.7266 27.88 21.5732 24.7266 17.6953 24.7266C13.8175 24.7266 10.6641 27.88 10.6641 31.7578C10.6641 35.6357 13.8175 38.7891 17.6953 38.7891C21.5732 38.7891 24.7266 35.6357 24.7266 31.7578ZM31.7578 30C31.7578 30.9716 32.544 31.7578 33.5156 31.7578H51.0938C52.0654 31.7578 52.8516 30.9716 52.8516 30C52.8516 29.0284 52.0654 28.2422 51.0938 28.2422H33.5156C32.544 28.2422 31.7578 29.0284 31.7578 30ZM51.0938 35.2734H33.5156C32.544 35.2734 31.7578 36.0596 31.7578 37.0312C31.7578 38.0029 32.544 38.7891 33.5156 38.7891H51.0938C52.0654 38.7891 52.8516 38.0029 52.8516 37.0312C52.8516 36.0596 52.0654 35.2734 51.0938 35.2734ZM47.5781 42.3047H37.0312C36.0596 42.3047 35.2734 43.0909 35.2734 44.0625C35.2734 45.0341 36.0596 45.8203 37.0312 45.8203H47.5781C48.5497 45.8203 49.3359 45.0341 49.3359 44.0625C49.3359 43.0909 48.5497 42.3047 47.5781 42.3047ZM19.4531 38.7891H17.6953H15.9375C11.0914 38.7891 7.14844 42.7321 7.14844 47.5781C7.14844 48.5497 7.93465 49.3359 8.90625 49.3359H26.4844C27.456 49.3359 28.2422 48.5497 28.2422 47.5781C28.2422 42.7321 24.2992 38.7891 19.4531 38.7891ZM22.9688 21.2109H37.0312C38.0157 21.2109 38.7891 20.4376 38.7891 19.4531C38.7891 18.4686 38.0157 17.6953 37.0312 17.6953H35.2734V5.39062C35.2734 4.40613 34.5001 3.63281 33.5156 3.63281H26.4844C25.4999 3.63281 24.7266 4.40613 24.7266 5.39062V17.6953H22.9688C21.9843 17.6953 21.2109 18.4686 21.2109 19.4531C21.2109 20.4376 21.9843 21.2109 22.9688 21.2109Z" fill="url(#paint1_linear)"/>

</symbol><symbol id="icon-earth" viewBox="0 0 60 60">
<path d="M30 60C22.0179 60 14.4928 56.8709 8.81098 51.189C3.12914 45.5072 0 37.9821 0 30C0 25.9424 0.805781 22.0012 2.3952 18.2859C2.68242 17.6146 3.35531 17.1898 4.08434 17.2211C4.81395 17.2514 5.44875 17.7295 5.67926 18.4223L7.22531 23.0691L10.1061 24.9896L10.6726 19.2796C10.7323 18.6789 11.0959 18.1507 11.6359 17.8808L18.1126 14.6435L19.6656 11.2249C19.8539 10.8104 20.1956 10.4851 20.6189 10.3175L23.5239 9.16746L18.3164 5.24824C17.8112 4.86797 17.5492 4.24582 17.6302 3.61875C17.711 2.99168 18.1226 2.45637 18.7078 2.21695C22.3025 0.745898 26.1019 0 30 0C40.8096 0 50.8373 5.89172 56.1697 15.3761C56.4253 15.8305 56.4659 16.3751 56.2805 16.8625C56.0951 17.3498 55.7029 17.7298 55.2098 17.8996L48.9966 20.0394C48.7199 20.1347 48.4236 20.1595 48.1351 20.1112L42.3156 19.1409C41.8365 19.061 41.4118 18.7864 41.1423 18.3824L40.0796 16.7891L33.3932 20.2977L37.4375 21.2585C37.8795 21.3635 38.2635 21.6354 38.5093 22.0173L40.4909 25.0956L43.1473 24.4311C43.6277 24.3108 44.1367 24.399 44.5487 24.6737L47.4585 26.6132C47.9476 26.9392 48.2414 27.4881 48.2414 28.0759V31.2684L53.3895 36.843C53.6893 37.1678 53.8559 37.5936 53.8559 38.0357V47.5361C53.8559 47.9338 53.721 48.3198 53.4732 48.6309C50.7185 52.0911 47.1766 54.9529 43.2305 56.907C39.0857 58.9593 34.6342 60 30 60Z" fill="url(#paint0_linear)"/>
<path d="M56.1699 15.3755C55.7536 14.6357 54.8682 14.2991 54.0656 14.5755L48.2739 16.5702L43.6451 15.7984L42.1269 13.5219C41.6279 12.7735 40.6442 12.5227 39.8477 12.9406L27.6028 19.366C26.9536 19.7067 26.584 20.4144 26.6754 21.1418C26.7669 21.8691 27.3001 22.4634 28.0133 22.6329L35.9368 24.5154L38.2172 28.0581C38.6249 28.6914 39.391 28.9948 40.1219 28.8118L43.2465 28.0302L44.7262 29.0165V31.9557C44.7262 32.3977 44.8927 32.8236 45.1926 33.1483L50.3406 38.7229V47.5359C50.3406 48.2832 50.813 48.9487 51.5185 49.1953C51.7086 49.2617 51.9043 49.2938 52.0981 49.2938C52.6233 49.2938 53.1335 49.0579 53.4735 48.6309C55.5434 46.0315 57.156 43.1375 58.2667 40.0292C59.4172 36.8101 60.0004 33.4358 60.0004 30C60.0004 24.8865 58.6758 19.8295 56.1699 15.3755ZM29.3703 33.0036L23.8809 31.9053L19.2472 26.8088C18.9086 26.4364 18.4267 26.2284 17.9233 26.2337L13.5103 26.292L14.0758 20.5918L20.2419 17.5098C20.6022 17.3297 20.8897 17.0313 21.0563 16.6645L22.5734 13.3251L27.7331 11.2824C28.3243 11.0484 28.743 10.5132 28.8281 9.88309C28.9131 9.25297 28.6511 8.6259 28.1431 8.24363L20.431 2.43934C19.9359 2.06668 19.2812 1.98219 18.7076 2.21715C11.4308 5.19758 5.48513 11.0547 2.39525 18.2867C2.2265 18.6816 2.20822 19.1247 2.34381 19.5323L4.08053 24.7518C4.20404 25.1231 4.44791 25.4424 4.77345 25.6595L9.809 29.0165V32.7879C9.809 33.2456 9.98748 33.6853 10.3067 34.0134L14.6594 38.4891V43.4566C14.6594 43.8678 14.8035 44.266 15.0669 44.5818L19.9161 50.4014C20.2566 50.8101 20.755 51.0339 21.2668 51.0339C21.4669 51.0339 21.6692 50.9997 21.8648 50.9289C22.5606 50.677 23.0242 50.0162 23.0242 49.2761V45.3058L26.2011 42.9234C26.6437 42.5914 26.9042 42.0704 26.9042 41.5172V39.3354L30.2684 35.9701C30.7267 35.5116 30.8955 34.8383 30.7076 34.2179C30.5199 33.5974 30.0059 33.1309 29.3703 33.0036Z" fill="url(#paint1_linear)"/>

</symbol><symbol id="icon-facebook" viewBox="0 0 24 24">
<path d="M2.0458 0.800781H21.9678C22.6538 0.800781 23.1998 1.34678 23.1998 2.03278V21.9688C23.1998 22.6408 22.6538 23.2008 21.9678 23.2008H16.2558V14.5208H19.1678L19.6018 11.1468H16.2558V8.99078C16.2558 8.01078 16.5358 7.33878 17.9358 7.33878H19.7278V4.31478C19.4198 4.27278 18.3558 4.18878 17.1238 4.18878C14.5338 4.18878 12.7698 5.75678 12.7698 8.65478V11.1468H9.8438V14.5208H12.7698V23.2008H2.0458C1.71776 23.2008 1.40293 23.0714 1.16966 22.8408C0.936391 22.6101 0.803491 22.2968 0.799805 21.9688V2.03278C0.799805 1.34678 1.3598 0.800781 2.0458 0.800781Z" fill="#037EFF"/>
</symbol><symbol id="icon-home" viewBox="0 0 16 16">
<path d="M-0.75 7.125L8 1L16.75 7.125" stroke="#BDBDBD" stroke-width="1.5"/>
<path d="M1.875 5.375V15H14.125V5.375" stroke="#BDBDBD" stroke-width="1.5"/>
<path d="M9.75 15L9.75 8.875L6.25 8.875L6.25 15" stroke="#BDBDBD" stroke-width="1.5"/>
</symbol><symbol id="icon-inst" viewBox="0 0 512 512">
<linearGradient id="SVGID_1_" gradientUnits="userSpaceOnUse" x1="-46.0041" y1="634.1208" x2="-32.9334" y2="647.1917" gradientTransform="matrix(32 0 0 -32 1519 20757)">
	<stop offset="0" style="stop-color:#FFC107"/>
	<stop offset="0.507" style="stop-color:#F44336"/>
	<stop offset="0.99" style="stop-color:#9C27B0"/>
</linearGradient>
<path style="fill:url(#SVGID_1_);" d="M352,0H160C71.648,0,0,71.648,0,160v192c0,88.352,71.648,160,160,160h192
	c88.352,0,160-71.648,160-160V160C512,71.648,440.352,0,352,0z M464,352c0,61.76-50.24,112-112,112H160c-61.76,0-112-50.24-112-112
	V160C48,98.24,98.24,48,160,48h192c61.76,0,112,50.24,112,112V352z"/>
<linearGradient id="SVGID_2_" gradientUnits="userSpaceOnUse" x1="-42.2971" y1="637.8279" x2="-36.6404" y2="643.4846" gradientTransform="matrix(32 0 0 -32 1519 20757)">
	<stop offset="0" style="stop-color:#FFC107"/>
	<stop offset="0.507" style="stop-color:#F44336"/>
	<stop offset="0.99" style="stop-color:#9C27B0"/>
</linearGradient>
<path style="fill:url(#SVGID_2_);" d="M256,128c-70.688,0-128,57.312-128,128s57.312,128,128,128s128-57.312,128-128
	S326.688,128,256,128z M256,336c-44.096,0-80-35.904-80-80c0-44.128,35.904-80,80-80s80,35.872,80,80
	C336,300.096,300.096,336,256,336z"/>
<linearGradient id="SVGID_3_" gradientUnits="userSpaceOnUse" x1="-35.5456" y1="644.5793" x2="-34.7919" y2="645.3331" gradientTransform="matrix(32 0 0 -32 1519 20757)">
	<stop offset="0" style="stop-color:#FFC107"/>
	<stop offset="0.507" style="stop-color:#F44336"/>
	<stop offset="0.99" style="stop-color:#9C27B0"/>
</linearGradient>
<circle style="fill:url(#SVGID_3_);" cx="393.6" cy="118.4" r="17.056"/>
<g>
</g>
<g>
</g>
<g>
</g>
<g>
</g>
<g>
</g>
<g>
</g>
<g>
</g>
<g>
</g>
<g>
</g>
<g>
</g>
<g>
</g>
<g>
</g>
<g>
</g>
<g>
</g>
<g>
</g>
</symbol><symbol id="icon-map" viewBox="0 0 512 512">
<g>
	<g>
		<path d="M256,0C161.896,0,85.333,76.563,85.333,170.667c0,28.25,7.063,56.26,20.49,81.104L246.667,506.5
			c1.875,3.396,5.448,5.5,9.333,5.5s7.458-2.104,9.333-5.5l140.896-254.813c13.375-24.76,20.438-52.771,20.438-81.021
			C426.667,76.563,350.104,0,256,0z M256,256c-47.052,0-85.333-38.281-85.333-85.333c0-47.052,38.281-85.333,85.333-85.333
			s85.333,38.281,85.333,85.333C341.333,217.719,303.052,256,256,256z"/>
	</g>
</g>
<g>
</g>
<g>
</g>
<g>
</g>
<g>
</g>
<g>
</g>
<g>
</g>
<g>
</g>
<g>
</g>
<g>
</g>
<g>
</g>
<g>
</g>
<g>
</g>
<g>
</g>
<g>
</g>
<g>
</g>
</symbol><symbol id="icon-messenger" viewBox="0 0 28 28">
<path d="M13.9993 2C7.37344 2 2 6.972 2 13.1093C2 16.5973 3.73862 19.712 6.45901 21.748V26L10.5544 23.7507C11.6466 24.0547 12.8007 24.2173 14.0007 24.2173C20.6266 24.2173 26 19.244 26 13.1093C25.9987 6.972 20.6252 2 13.9993 2ZM15.2626 16.896L12.1584 13.704L6.18158 16.976L12.7334 10.092L15.8376 13.2853L21.8157 10.012L15.2626 16.896Z" fill="#589BFF"/>
</symbol><symbol id="icon-money" viewBox="0 0 60 60">
<path d="M30.0011 53.999C29.0303 53.999 28.2433 53.212 28.2433 52.2412L28.2432 36.9141C28.2432 35.9433 29.0302 35.1562 30.001 35.1562C30.9718 35.1562 31.7589 35.9433 31.7589 36.9141L31.759 52.2412C31.759 53.212 30.9719 53.999 30.0011 53.999Z" fill="url(#paint0_linear)"/>
<path d="M30.0004 38.6725C40.6624 38.6725 49.3366 29.9982 49.3366 19.3362C49.3366 8.67424 40.6624 0 30.0004 0C19.3384 0 10.6641 8.67424 10.6641 19.3362C10.6641 29.9982 19.3384 38.6725 30.0004 38.6725ZM53.3985 37.2941C53.0108 36.8417 52.4213 36.6164 51.8297 36.696C51.2853 36.7691 38.4301 38.5481 32.2811 43.8186C31.3178 44.6443 30.5733 45.5051 30.0002 46.3692C29.4272 45.505 28.6827 44.6443 27.7194 43.8186C21.5703 38.548 8.71514 36.7691 8.1708 36.696C7.57958 36.6164 6.98976 36.8419 6.60198 37.2941C6.2142 37.7465 6.0819 38.3645 6.25077 38.9359C6.40628 39.4626 10.1304 51.8946 16.2795 57.1651C18.8423 59.3618 21.4144 59.9999 23.5382 59.9999C24.3572 59.9999 25.1099 59.9048 25.7692 59.7678C28.0363 59.2964 29.6075 58.2642 30.0001 57.9867C30.3927 58.2642 31.964 59.2964 34.231 59.7678C34.8904 59.905 35.6428 59.9999 36.4621 59.9999C38.5858 59.9999 41.1582 59.3614 43.7208 57.1651C49.8698 51.8946 53.594 39.4626 53.7495 38.9359C53.9186 38.3645 53.7863 37.7466 53.3985 37.2941Z" fill="url(#paint1_linear)"/>
<path d="M35.1981 19.2169C34.223 18.4858 33.0387 17.9822 31.758 17.7412V12.5785C33.1185 13.0182 34.1017 13.9356 34.1017 14.9415C34.1017 15.9123 34.8888 16.6994 35.8596 16.6994C36.8304 16.6994 37.6174 15.9123 37.6174 14.9415C37.6174 13.2261 36.7357 11.581 35.1981 10.4277C34.223 9.6966 33.0387 9.19304 31.758 8.95198V8.78909C31.758 7.81829 30.9709 7.03125 30.0001 7.03125C29.0293 7.03125 28.2423 7.81829 28.2423 8.78909V8.9521C26.9615 9.19316 25.7771 9.69672 24.8022 10.4279C23.2647 11.581 22.3828 13.2262 22.3828 14.9416C22.3828 16.6571 23.2645 18.3022 24.8022 19.4554C25.7772 20.1866 26.9615 20.6901 28.2423 20.9312V26.0938C26.8817 25.6541 25.8985 24.7368 25.8985 23.7308C25.8985 22.76 25.1114 21.973 24.1407 21.973C23.1699 21.973 22.3828 22.76 22.3828 23.7308C22.3828 25.4463 23.2645 27.0914 24.8022 28.2446C25.7772 28.9758 26.9615 29.4793 28.2423 29.7204V29.8832C28.2423 30.854 29.0293 31.641 30.0001 31.641C30.9709 31.641 31.758 30.854 31.758 29.8832V29.7201C33.0387 29.4791 34.2232 28.9755 35.1981 28.2444C36.7356 27.0912 37.6174 25.446 37.6174 23.7306C37.6174 22.0152 36.7356 20.3702 35.1981 19.2169ZM28.2422 17.3045C26.8816 16.8648 25.8984 15.9475 25.8984 14.9415C25.8984 13.9356 26.8816 13.0183 28.2422 12.5785V17.3045ZM31.7578 26.0937V21.3678C33.1184 21.8075 34.1016 22.7249 34.1016 23.7308C34.1016 24.7368 33.1184 25.6539 31.7578 26.0937Z" fill="url(#paint2_linear)"/>

</symbol><symbol id="icon-pdf" viewBox="0 0 29 28">
<path d="M3.0732 11V1.77H6.9472C7.3632 1.77 7.74454 1.85667 8.0912 2.03C8.44654 2.20333 8.74987 2.433 9.0012 2.719C9.25254 2.99633 9.44754 3.317 9.5862 3.681C9.73354 4.03633 9.8072 4.40033 9.8072 4.773C9.8072 5.163 9.73787 5.54 9.5992 5.904C9.4692 6.25933 9.28287 6.58 9.0402 6.866C8.79754 7.14333 8.50287 7.36867 8.1562 7.542C7.8182 7.70667 7.4412 7.789 7.0252 7.789H4.5292V11H3.0732ZM4.5292 6.502H6.9342C7.1422 6.502 7.32854 6.45867 7.4932 6.372C7.66654 6.28533 7.81387 6.164 7.9352 6.008C8.05654 5.852 8.15187 5.67 8.2212 5.462C8.29054 5.254 8.3252 5.02433 8.3252 4.773C8.3252 4.513 8.2862 4.279 8.2082 4.071C8.1302 3.863 8.02187 3.68533 7.8832 3.538C7.74454 3.382 7.5842 3.265 7.4022 3.187C7.22887 3.10033 7.04687 3.057 6.8562 3.057H4.5292V6.502ZM11.1728 11V1.77H14.4488C15.1941 1.77 15.8441 1.89133 16.3988 2.134C16.9621 2.37667 17.4301 2.706 17.8028 3.122C18.1841 3.538 18.4701 4.02767 18.6608 4.591C18.8515 5.14567 18.9468 5.73933 18.9468 6.372C18.9468 7.074 18.8385 7.711 18.6218 8.283C18.4138 8.84633 18.1148 9.33167 17.7248 9.739C17.3348 10.1377 16.8625 10.4497 16.3078 10.675C15.7531 10.8917 15.1335 11 14.4488 11H11.1728ZM17.4648 6.372C17.4648 5.88667 17.3955 5.44033 17.2568 5.033C17.1268 4.62567 16.9318 4.279 16.6718 3.993C16.4118 3.69833 16.0955 3.46867 15.7228 3.304C15.3501 3.13933 14.9255 3.057 14.4488 3.057H12.6288V9.713H14.4488C14.9341 9.713 15.3631 9.63067 15.7358 9.466C16.1171 9.29267 16.4335 9.05867 16.6848 8.764C16.9448 8.46067 17.1398 8.10533 17.2698 7.698C17.3998 7.29067 17.4648 6.84867 17.4648 6.372ZM20.4785 11V1.77H26.6275V3.057H21.9345V5.813H25.8605V7.022H21.9345V11H20.4785Z" fill="#0033A0"/>
<path d="M3.5 20V26H26.5V20" stroke="#0033A0" stroke-width="1.5"/>
<path d="M10.5 19L15.5 24L20.5 19" stroke="#0033A0" stroke-width="1.5"/>
<path d="M15.5 24V13.5" stroke="#0033A0" stroke-width="1.5"/>
</symbol><symbol id="icon-shield" viewBox="0 0 60 60">
<g clip-path="url(#clip0)">
<path d="M30.0007 60C29.8135 60 29.6247 59.9691 29.4445 59.9091C16.11 55.4648 7.14941 43.0332 7.14941 28.9761V8.78974C7.14941 7.81815 7.93561 7.03195 8.9072 7.03195C15.4594 7.03195 21.8022 5.11104 27.2542 1.4771L29.0257 0.2961C29.6162 -0.0986999 30.3853 -0.0986999 30.9758 0.2961L32.7473 1.4771C38.1991 5.11115 44.5419 7.03195 51.0942 7.03195C52.0658 7.03195 52.852 7.81815 52.852 8.78974V28.9761C52.852 43.0332 43.8914 55.4648 30.5569 59.9091C30.3766 59.9692 30.1877 60 30.0007 60Z" fill="url(#paint0_linear)"/>
<path d="M30.0008 45.9371C21.2771 45.9371 14.1807 38.8406 14.1807 30.117C14.1807 21.3933 21.2771 14.2969 30.0008 14.2969C38.7244 14.2969 45.8209 21.3933 45.8209 30.117C45.8209 38.8406 38.7244 45.9371 30.0008 45.9371Z" fill="url(#paint1_linear)"/>
<path d="M28.243 37.1483C27.7932 37.1483 27.3435 36.9766 27.0002 36.6333L23.4847 33.1177C22.7981 32.4311 22.7981 31.3187 23.4847 30.6321C24.1713 29.9455 25.2837 29.9455 25.9703 30.6321L28.2431 32.9049L34.0315 27.1165C34.7181 26.4299 35.8306 26.4299 36.5172 27.1165C37.2037 27.8031 37.2037 28.9155 36.5172 29.6021L29.486 36.6333C29.1424 36.9766 28.6928 37.1483 28.243 37.1483Z" fill="url(#paint2_linear)"/>
</g>

</symbol><symbol id="icon-target" viewBox="0 0 60 60">
<g clip-path="url(#clip0)">
<path d="M24.6094 60C11.0398 60 0 48.9604 0 35.3906C0 21.8209 11.0398 10.7812 24.6094 10.7812C38.179 10.7812 49.2188 21.821 49.2188 35.3906C49.2188 48.9602 38.179 60 24.6094 60Z" fill="url(#paint0_linear)"/>
<path d="M24.6094 52.9688C14.9168 52.9688 7.03125 45.0832 7.03125 35.3906C7.03125 25.698 14.9168 17.8125 24.6094 17.8125C34.302 17.8125 42.1875 25.698 42.1875 35.3906C42.1875 45.0832 34.302 52.9688 24.6094 52.9688Z" fill="url(#paint1_linear)"/>
<path d="M24.6094 45.9375C18.7938 45.9375 14.0625 41.2062 14.0625 35.3906C14.0625 29.5751 18.7938 24.8438 24.6094 24.8438C30.4249 24.8438 35.1562 29.5751 35.1562 35.3906C35.1562 41.2062 30.4249 45.9375 24.6094 45.9375Z" fill="url(#paint2_linear)"/>
<path d="M59.8661 8.11633C59.594 7.4595 58.9531 7.03118 58.2422 7.03118H52.9687V1.75774C52.9687 1.04676 52.5405 0.405748 51.8836 0.133756C51.227 -0.138119 50.4706 0.0121154 49.9679 0.51485L42.9366 7.5461C42.607 7.87575 42.4218 8.32282 42.4218 8.78899V15.0922L23.3664 34.1477C22.6799 34.8341 22.6799 35.9471 23.3664 36.6336C24.0529 37.32 25.166 37.3199 25.8523 36.6336L44.9077 17.5781H51.2109C51.6772 17.5781 52.1243 17.3928 52.4538 17.0631L59.485 10.0319C59.9878 9.52926 60.1382 8.77317 59.8661 8.11633Z" fill="url(#paint3_linear)"/>
</g>

</symbol><symbol id="icon-telegram" viewBox="0 0 28 28">
<path d="M25.245 2.15123L2.21404 11.519C0.642268 12.1849 0.651361 13.1097 1.92567 13.5221L7.83864 15.4678L21.5196 6.36308C22.1664 5.94793 22.7575 6.17126 22.2717 6.62615L11.1874 17.1777H11.1848L11.1874 17.1791L10.7795 23.6078C11.3771 23.6078 11.6408 23.3187 11.9759 22.9776L14.848 20.0317L20.822 24.6861C21.9235 25.326 22.7146 24.9972 22.9887 23.6106L26.9103 4.11603C27.3117 2.41841 26.2959 1.64975 25.245 2.15123Z" fill="#53BAF3"/>
</symbol><symbol id="icon-viber" viewBox="0 0 28 28">
<path fill-rule="evenodd" clip-rule="evenodd" d="M25.755 15.8943C26.5361 9.87238 25.38 6.07086 23.2939 4.35111L23.2949 4.35017C19.9287 1.41368 8.55893 0.97906 4.5314 4.48225C2.72257 6.19544 2.08558 8.71042 2.01545 11.8235C1.94578 14.9379 1.86276 20.7716 7.79837 22.3541H7.80362L7.79837 24.7712C7.79837 24.7712 7.75781 25.7505 8.44108 25.9472C9.17654 26.1655 9.53296 25.7751 11.6004 23.5102C11.7286 23.3698 11.8634 23.2221 12.0053 23.0669C16.0677 23.3896 19.1877 22.6501 19.5427 22.5424C19.616 22.5199 19.7199 22.4949 19.8488 22.4638C21.1617 22.1477 25.0716 21.2064 25.755 15.8943ZM18.5283 11.5451C18.5455 9.57765 16.8378 7.77361 14.7222 7.52398C14.6802 7.5193 14.6344 7.51181 14.5857 7.50385L14.5857 7.50384L14.5789 7.50274C14.476 7.48622 14.3701 7.46919 14.2632 7.46919C13.8294 7.46919 13.7135 7.76799 13.683 7.94642C13.6534 8.11971 13.6815 8.26536 13.7669 8.37917C13.9106 8.57072 14.163 8.60491 14.3662 8.63207C14.4259 8.64004 14.4817 8.64753 14.5289 8.65783C16.4299 9.07466 17.0697 9.73033 17.3827 11.5803C17.39 11.6239 17.3934 11.6765 17.397 11.7332V11.7332L17.3975 11.7404L17.3975 11.7413C17.4114 11.9627 17.4401 12.4219 17.9433 12.4219C17.9853 12.4219 18.0302 12.4181 18.0774 12.4111C18.5469 12.3413 18.5321 11.9208 18.525 11.7184L18.5249 11.715C18.523 11.6592 18.5213 11.6072 18.5259 11.5718C18.5278 11.5634 18.5283 11.5545 18.5283 11.5451ZM14.2942 6.81624C14.2498 6.80968 14.1964 6.80547 14.1401 6.80172C13.9067 6.78533 13.422 6.75067 13.4506 6.25751C13.463 6.04488 13.5603 5.68754 14.0723 5.68754C14.1245 5.68754 14.1758 5.69092 14.2223 5.69399L14.2384 5.69503L14.245 5.69548L14.245 5.69548C14.2841 5.69814 14.3212 5.70065 14.3514 5.70065C14.3715 5.70065 14.3834 5.69972 14.3896 5.69878C14.4025 5.69738 14.4154 5.69644 14.4287 5.69691C17.6432 5.80322 20.4283 8.66712 20.3887 11.8251C20.3878 11.8657 20.3899 11.9114 20.3922 11.9602L20.3925 11.9675L20.3925 11.9678C20.4021 12.1776 20.4139 12.4378 20.2432 12.6134C20.1453 12.714 20.0084 12.7651 19.8362 12.7651H19.819C19.2698 12.7548 19.2617 12.2527 19.2579 12.0115L19.2576 11.9989C19.2563 11.9357 19.2551 11.8762 19.2488 11.827C18.8513 8.73924 17.4156 7.28739 14.2942 6.81624ZM19.098 15.8177C19.0317 15.7681 18.963 15.7165 18.8985 15.6655C18.5579 15.3962 18.1952 15.148 17.8445 14.9082L17.6265 14.7588C17.1775 14.4492 16.7734 14.2984 16.3921 14.2984C15.8783 14.2984 15.4302 14.5771 15.0604 15.1264C14.8968 15.37 14.6978 15.4885 14.453 15.4885C14.308 15.4885 14.1439 15.4477 13.964 15.3676C12.514 14.7223 11.479 13.7327 10.8869 12.4269C10.6006 11.7956 10.6937 11.383 11.197 11.0472L11.1978 11.0467C11.4838 10.856 12.0153 10.5015 11.9776 9.82249C11.9347 9.05113 10.2008 6.73004 9.47028 6.46636C9.16109 6.3549 8.83616 6.35349 8.50264 6.46355C7.66288 6.74081 7.06025 7.22741 6.75965 7.87091C6.46908 8.49287 6.48244 9.22301 6.79782 9.98266C7.70916 12.1787 8.99028 14.0933 10.6063 15.6735C12.1881 17.2199 14.1319 18.4872 16.384 19.4389C16.5866 19.5245 16.7996 19.5714 16.9551 19.6055L16.9556 19.6056L16.9777 19.6105C17.0213 19.6201 17.0591 19.6284 17.0878 19.6361C17.1059 19.6408 17.125 19.6436 17.1441 19.6436H17.1618C18.221 19.6436 19.4931 18.6933 19.8834 17.6105C20.225 16.6635 19.6004 16.1947 19.098 15.8177ZM14.607 9.31076L14.6082 9.31073C15.0887 9.29902 15.6173 9.54536 16.0554 9.98279C16.4919 10.4183 16.7491 10.9654 16.7434 11.4473C16.7591 11.9091 16.5874 12.1643 16.2338 12.2055C16.2119 12.2079 16.1899 12.2093 16.168 12.2093C15.8741 12.2093 15.645 11.976 15.6111 11.6421C15.5381 10.926 15.1731 10.5406 14.4627 10.4287C14.2666 10.3977 14.0514 10.3415 13.9388 10.157C13.8624 10.031 13.8548 9.87788 13.9168 9.70179C14.0492 9.32516 14.4252 9.31545 14.607 9.31076Z" fill="#8673FB"/>
</symbol><symbol id="icon-youtube" viewBox="0 0 26 20">
<path d="M13.0004 0.199219C0.617111 0.199219 0.400391 1.31158 0.400391 9.99922C0.400391 18.6869 0.617111 19.7992 13.0004 19.7992C25.3837 19.7992 25.6004 18.6869 25.6004 9.99922C25.6004 1.31158 25.3837 0.199219 13.0004 0.199219ZM17.0387 10.4243L11.3813 13.0919C10.8861 13.3236 10.4804 13.0639 10.4804 12.5116V7.48686C10.4804 6.93576 10.8861 6.67486 11.3813 6.90649L17.0387 9.57413C17.5339 9.80831 17.5339 10.1901 17.0387 10.4243Z" fill="#FF4040"/>
</symbol></svg>