<svg xmlns="http://www.w3.org/2000/svg" xmlns:xlink="http://www.w3.org/1999/xlink"
      viewBox="0 -40 169.1 95.79">
  <defs>
    <clipPath id="a">
      <rect x="0" y="-40" width="160" height="80" fill="red" style="opacity: .5;"/>
    </clipPath>
  </defs>
  <g>
    <animate attributeType="CSS"
             attributeName="opacity"
             values="0; 0; 1; 1; 0; 0"
             keyTimes="0; 0.02; 0.12; 0.64; 0.68; 1"
             dur="5s"
             repeatCount="indefinite"/>
    <animateTransform attributeName="transform"
                      type="translate"
                      from="0 0"
                      to="20 0"
                      dur="5s"
                      additive="sum"
                      repeatCount="indefinite"/>
    <path d="M15.68,38A5.23,5.23,0,1,1,5.23,38" transform="translate(0 0.1)" fill="none" stroke="#fff"
          stroke-miterlimit="10"/>
    <path d="M31.36,43.23A5.22,5.22,0,0,1,26.14,38" transform="translate(0 0.1)" fill="none" stroke="#fff"
          stroke-miterlimit="10"/>
    <path d="M5.23,38A5.23,5.23,0,0,1,0,43.23" transform="translate(0 0.1)" fill="none" stroke="#fff"
          stroke-miterlimit="10"/>
    <path d="M26.14,38a5.23,5.23,0,0,1-10.46,0" transform="translate(0 0.1)" fill="none" stroke="#fff"
          stroke-miterlimit="10"/>
  </g>
  <g>
    <animate attributeType="CSS"
             attributeName="opacity"
             values="0; 1; 1; 0; 0"
             keyTimes="0; 0.1; 0.62; 0.66; 1"
             dur="5s"
             repeatCount="indefinite"/>
    <animateTransform attributeName="transform"
                      type="translate"
                      from="0 0"
                      to="15 0"
                      dur="5s"
                      additive="sum"
                      repeatCount="indefinite"/>
    <path d="M15.68,45A5.23,5.23,0,1,1,5.23,45" transform="translate(0 0.1)" fill="none" stroke="#fff"
          stroke-miterlimit="10"/>
    <path d="M31.36,50.2A5.22,5.22,0,0,1,26.14,45" transform="translate(0 0.1)" fill="none" stroke="#fff"
          stroke-miterlimit="10"/>
    <path d="M5.23,45A5.23,5.23,0,0,1,0,50.2" transform="translate(0 0.1)" fill="none" stroke="#fff"
          stroke-miterlimit="10"/>
    <path d="M26.14,45a5.23,5.23,0,0,1-10.46,0" transform="translate(0 0.1)" fill="none" stroke="#fff"
          stroke-miterlimit="10"/>
  </g>
  <g transform="translate(84 -6)">
    <animate attributeType="CSS"
             attributeName="opacity"
             values="0; 0; 1; 1; 1; 0; 0"
             keyTimes="0; 0.04; 0.14; 0.52; 0.66; 0.7; 1"
             dur="5s"
             repeatCount="indefinite"/>
    <animateTransform attributeName="transform"
                      type="translate"
                      from="-5 0"
                      to="5 0"
                      dur="5s"
                      additive="sum"
                      repeatCount="indefinite"/>
    <path d="M15.68,45A5.23,5.23,0,1,1,5.23,45" transform="translate(0 0.1)" fill="none" stroke="#fff"
          stroke-miterlimit="10"/>
    <path d="M31.36,50.2A5.22,5.22,0,0,1,26.14,45" transform="translate(0 0.1)" fill="none" stroke="#fff"
          stroke-miterlimit="10"/>
    <path d="M5.23,45A5.23,5.23,0,0,1,0,50.2" transform="translate(0 0.1)" fill="none" stroke="#fff"
          stroke-miterlimit="10"/>
    <path d="M26.14,45a5.23,5.23,0,0,1-10.46,0" transform="translate(0 0.1)" fill="none" stroke="#fff"
          stroke-miterlimit="10"/>
  </g>
  <g clip-path="url(#a)">
    <g transform="translate(0, 70)">
      <g>
        <animateTransform attributeName="transform"
                          type="rotate"
                          from="-90 30 0"
                          to="180 30 0"
                          dur="5s"
                          repeatCount="indefinite"/>
        <g>
          <g>
            <animateMotion path="M0 0 q 10 -200, 20 0"
                            dur="5s"
                            repeatCount="indefinite"/>
            <path
              d="M25.82,2.39a11.45,11.45,0,0,1,1.39-.09A11.78,11.78,0,0,1,38.6,11,7.75,7.75,0,0,1,26,11.5a11.72,11.72,0,0,0-7.87,10A11.61,11.61,0,0,1,15.42,14,11.74,11.74,0,0,1,25.82,2.39Z"
              fill="none" stroke="#fff" stroke-linejoin="round"/>
            <path d="M28.74,2.3s-3-5-12.8,1.2c0,0,3,1.18,2.79,2.38" transform="translate(0 0.1)" fill="none"
                  stroke="#fff"
                  stroke-linejoin="round"/>
            <path
              d="M17.5,21.5h1.14a4.08,4.08,0,0,1,4.09,4.06v1a4.76,4.76,0,0,1-4.67-3.8,4.76,4.76,0,0,1-4.67,3.8v-1A4.1,4.1,0,0,1,17.5,21.5Z"
              fill="none" stroke="#fff" stroke-linejoin="round"/>
            <path d="M23.33,8.93l-2.68,2.64s1.64,1.49,5.36-.07" transform="translate(0 0.1)" fill="none"
                  stroke="#fff"
                  stroke-linecap="round" stroke-linejoin="round"/>
          </g>
        </g>
      </g>
    </g>
  </g>
</svg>
