<svg width="165" height="49" viewBox="0 0 165 49" fill="none" xmlns="http://www.w3.org/2000/svg">
<path fill-rule="evenodd" clip-rule="evenodd" d="M115.573 24.0757C114.555 24.0757 113.727 24.9092 113.727 25.9281C113.727 26.9569 114.555 27.7825 115.573 27.7825C116.59 27.7825 117.416 26.9569 117.416 25.9281C117.416 24.9092 116.59 24.0757 115.573 24.0757ZM51.6142 25.8369C51.6142 25.8369 52.535 22.7438 52.6751 22.2594C53.0475 21.0009 53.6041 19.0196 53.6041 19.0196H53.6953C53.6953 19.0196 54.2078 21.0735 54.5425 22.2413C54.6737 22.6955 55.5532 25.8369 55.5532 25.8369H51.6142ZM57.2192 31.4534H60.5505L55.519 16.0202C54.9896 15.8407 54.3281 15.7286 53.63 15.7286C52.8672 15.7286 52.5949 15.8303 51.9966 16.0202L46.661 31.4534H49.8519C49.8519 31.4534 50.28 30.102 50.8028 28.4229H56.3207C56.818 30.1008 57.2192 31.4534 57.2192 31.4534ZM165 31.4534C165 31.4534 163.423 28.0745 163.036 27.3105C162.601 26.4434 162.2 25.8451 161.309 25.6326V25.5817C161.906 25.4689 162.38 25.1057 162.893 24.0022C163.387 22.9225 163.534 22.6919 163.822 22.4367C164.107 22.1783 164.495 22.2767 164.495 22.2767L164.641 20.2669C164.226 20.2117 163.769 20.2111 163.296 20.2366C162.514 20.2853 162.106 20.5079 161.724 20.9004C161.424 21.1988 161.217 21.6443 160.963 22.1665C160.691 22.7243 160.478 23.1755 160.206 23.7438C159.928 24.3254 159.792 24.5852 159.043 24.5852H158.557V20.4129H155.653V31.4534H158.557V26.9418L158.953 26.9353C159.778 26.9353 159.919 27.1418 160.357 28.0154C160.874 29.0596 161.849 31.4534 161.849 31.4534H165ZM153.131 31.4534V20.4129H150.238V24.5871H146.964V20.4129H144.077V31.4534H146.964V26.945H150.238V31.4534H153.131ZM73.6597 20.3123L73.6478 30.8728C75.0186 31.4534 76.5249 31.715 77.8629 31.715C80.9336 31.715 82.577 30.1221 82.577 27.4971C82.577 25.1215 81.1225 23.6519 78.4039 23.6519C77.7133 23.6519 77.3085 23.7438 76.55 23.9265V20.3123H73.6597ZM79.5869 27.6315C79.5869 28.7209 79.2044 29.4673 77.8156 29.4673C77.3477 29.4673 77.1555 29.4673 76.5485 29.2965V26.1125C77.302 25.9655 77.3688 25.9406 77.8156 25.9406C79.143 25.9406 79.5869 26.5882 79.5869 27.6315ZM142.562 30.3938C141.796 29.2291 141.598 28.5419 141.598 27.0769V24.1031C141.598 22.4962 141.414 21.9069 140.991 21.3181C140.403 20.4917 139.426 20.1346 137.62 20.1346C136.345 20.1346 135.097 20.273 133.902 20.5782L134.329 22.7081C135.14 22.5945 135.992 22.4962 136.603 22.4962C138.514 22.4962 138.735 22.7762 138.735 24.2152V24.7546C138.31 24.6401 137.833 24.5571 137.275 24.5571C134.384 24.5571 132.862 25.972 132.862 28.308C132.862 30.5033 134.489 31.702 136.48 31.702C137.221 31.702 137.992 31.5636 138.602 31.316C138.972 31.1527 139.133 31.0609 139.609 30.7452C139.898 31.1701 140.476 31.5996 140.711 31.6771L142.562 30.3938ZM138.886 29.121C138.251 29.3419 137.833 29.3927 137.329 29.3927C136.294 29.3927 135.711 28.9825 135.711 27.918C135.711 26.8102 136.452 26.4347 137.885 26.4347C138.233 26.4347 138.577 26.4877 138.735 26.5443V27.3386C138.735 28.1955 138.781 28.7559 138.886 29.121ZM110.659 30.3938C109.896 29.2291 109.698 28.5419 109.698 27.0769V24.1031C109.698 22.4962 109.512 21.9069 109.088 21.3181C108.503 20.4917 107.524 20.1346 105.719 20.1346C104.447 20.1346 103.195 20.273 101.999 20.5782L102.428 22.7081C103.241 22.5945 104.088 22.4962 104.701 22.4962C106.615 22.4962 106.836 22.7762 106.836 24.2152V24.7546C106.411 24.6401 105.931 24.5571 105.374 24.5571C102.481 24.5571 100.959 25.972 100.959 28.308C100.959 30.5033 102.585 31.702 104.579 31.702C105.319 31.702 106.092 31.5636 106.703 31.316C107.07 31.1527 107.231 31.0609 107.709 30.7452C107.998 31.1701 108.573 31.5996 108.809 31.6771L110.659 30.3938ZM106.985 29.121C106.349 29.3419 105.931 29.3927 105.429 29.3927C104.395 29.3927 103.807 28.9825 103.807 27.918C103.807 26.8102 104.549 26.4347 105.982 26.4347C106.327 26.4347 106.674 26.4877 106.836 26.5443V27.3386C106.836 28.1955 106.878 28.7559 106.985 29.121ZM71.3673 31.4534V20.8149C69.78 20.3403 68.5585 20.1346 66.9653 20.1346C65.3737 20.1346 64.1824 20.3403 62.5943 20.8149V26.2618C62.5943 27.7429 62.5689 28.1873 62.408 28.6661C62.2482 29.0856 62.0337 29.5895 61.4512 29.9786L62.2392 31.6771C64.561 31.0195 65.4354 30.0057 65.4354 26.7835V22.7762C66.2026 22.6638 66.3542 22.6378 66.9653 22.6378C67.5806 22.6378 67.7088 22.6638 68.4738 22.7762V31.4534H71.3673ZM93.248 35.0697V31.103C93.6143 31.3203 94.3448 31.6414 95.5762 31.6414C98.0253 31.6414 99.8298 29.5992 99.8298 25.8675C99.8298 21.8475 98.037 20.1266 95.0903 20.1266C94.3415 20.1266 93.8546 20.2038 93.248 20.4939V15.7545H90.3681V20.4939C89.7626 20.2038 89.2724 20.1266 88.5247 20.1266C85.5782 20.1266 83.7844 21.9189 83.7844 25.9359C83.7844 29.6694 85.406 31.6414 88.0344 31.6414C89.2712 31.6414 90.0018 31.3203 90.3681 31.103V35.0697H93.248ZM86.7537 25.9359C86.7537 23.72 87.4192 22.5484 88.7455 22.5484C89.3058 22.5484 89.6775 22.5447 90.3681 22.8763V28.9721C89.7411 29.1786 89.4447 29.2067 88.8855 29.2067C87.374 29.2067 86.7537 27.9685 86.7537 25.9359ZM96.8616 25.8675C96.8616 27.8975 96.0558 29.2067 94.7295 29.2067C94.1725 29.2067 93.8772 29.1786 93.248 28.9721V22.8763C93.9386 22.5448 94.3102 22.5484 94.8684 22.5484C96.1969 22.5484 96.8616 23.6498 96.8616 25.8675ZM131.759 26.6606C131.759 23.9254 130.162 22.041 126.807 22.041C125.983 22.041 125.407 22.1199 124.519 22.3308L124.512 18.3932C125.065 18.3144 126.012 18.2452 127.055 18.2452C128.042 18.2452 129.292 18.2992 130.388 18.4336L130.465 16.1521C129.218 15.8714 127.41 15.7002 126.008 15.7002C124.625 15.7002 122.476 16.0473 121.452 16.3251L121.451 30.8781C123.047 31.4641 124.604 31.7322 126.203 31.7322C129.86 31.7322 131.759 29.7863 131.759 26.6606H131.759ZM128.683 26.8808C128.683 28.3559 127.869 29.3267 126.371 29.3267C125.778 29.3267 125.292 29.3285 124.519 29.1167V24.6516C124.86 24.5954 125.566 24.4855 126.371 24.5146C127.894 24.5723 128.683 25.2865 128.683 26.8808ZM15.6493 7.74961L11.3221 20.7855H20.0451L15.7031 7.74961H15.6493ZM0.484849 42.4603C0.216499 42.4603 0 42.683 0 42.9587V48.502C0 48.7784 0.216499 49 0.484849 49H30.8655C31.1316 49 31.3464 48.7784 31.3464 48.502V42.9587C31.3464 42.683 31.1316 42.4603 30.8655 42.4603H0.484849ZM15.6752 0C19 0 20.0451 2.38973 20.9185 4.78183C21.2891 5.79347 29.9253 29.5239 30.1831 30.2359C30.2556 30.432 30.2079 30.7603 29.903 30.8771C29.597 30.9938 25.1088 32.7452 24.8615 32.8386C24.6133 32.9323 24.3339 32.7939 24.2427 32.5464C24.1507 32.3002 22.2908 27.1277 22.0806 26.5483C21.4622 26.5483 9.90308 26.5483 9.28543 26.5483C9.07497 27.1277 7.19563 32.3095 7.10899 32.5464C7.02279 32.7831 6.75385 32.9431 6.49168 32.8386C6.22844 32.7334 1.72058 30.9809 1.4541 30.8771C1.1962 30.7786 1.07767 30.4846 1.16931 30.2359C1.48716 29.3451 9.99108 5.99633 10.4267 4.78183C11.2679 2.42789 12.3517 0 15.6752 0Z" fill="#E52215"/>
</svg>
