<svg xmlns="http://www.w3.org/2000/svg" width="88" height="143" viewBox="0 0 88 143">
    <path fill="#19C176" fill-rule="evenodd" d="M22.64 131.275c4.044-6.558 7.46-9.355 14.319-14.006 8.103-5.494 17.182-9.86 26.745-10.215 3.17-.118 2.92 4.613.049 4.72-16.342.606-34.33 13.234-43.111 29.188-.759 1.378-3.955 2.425-4.393-.047-1.639-9.243-1.678-18.58-2.885-27.863-1.4-10.77-5.397-19.508-12.55-26.637-2.278-2.27 1.387-5.666 3.307-3.753 6.869 6.845 11.763 15.333 13.439 25.803.72 4.495 1.69 10.145 2.423 15.052 4.57-19.271 10.585-40.385 20.794-59.44C52.234 42.691 69.452 20.353 83.8 1.447c1.8-2.37 5.696.732 3.646 3.433C73.36 23.44 60.814 38.283 45.15 66.49c-14.584 26.26-21.203 57.34-22.51 64.786zm-1.696 3.033a1.83 1.83 0 0 1-.081.012l-.223.402c.14.002.24-.142.304-.414z"/>
</svg>
