<?xml version="1.0" encoding="UTF-8"?> <svg xmlns="http://www.w3.org/2000/svg" width="148" height="145" viewBox="0 0 148 145" fill="none"> <g clip-path="url(#clip0)"> <path d="M146.025 55.4846C146.025 55.4846 145.726 55.8973 144.986 56.7172C144.319 57.4693 143.421 58.7075 142.093 60.0703C140.833 61.5065 139.138 63.2086 137.291 65.1877C136.336 66.0699 135.234 67.0878 134.2 68.1791C133.099 69.197 131.855 70.2093 130.607 71.3629C128.047 73.4553 125.267 75.7514 122.142 77.8214C119.012 80.0328 115.604 82.0917 111.988 84.0716C108.371 86.0514 104.545 87.9523 100.442 89.7006C96.4808 91.4545 92.2479 92.9146 88.0205 94.2334C83.7931 95.5522 79.4356 96.5827 75.1571 97.4041C70.8786 98.2255 66.6114 98.7643 62.4231 99.0939C60.3657 99.2248 58.3083 99.3557 56.2565 99.3453C54.2726 99.4083 52.2942 99.33 50.3837 99.3251C48.4733 99.3203 46.6418 99.1063 44.8048 99.0336C42.9733 98.8196 41.2832 98.6112 39.593 98.4027C37.9764 98.1265 36.3541 97.9915 34.8843 97.5795C33.4089 97.3088 32.007 96.9703 30.6729 96.7052C29.4123 96.3722 28.1517 96.0393 27.0324 95.7119C25.9131 95.3846 24.8673 94.9893 23.9571 94.741C23.047 94.4927 22.2103 94.1765 21.515 93.866C20.8196 93.5554 20.1921 93.3182 19.7737 93.1601C18.8692 92.7705 18.3095 92.6068 18.3095 92.6068C17.8233 92.3753 17.631 91.8723 17.7946 91.3127C17.9527 90.8943 18.3878 90.6285 18.8796 90.7187C18.8796 90.7187 19.3714 90.8089 20.4229 91.0629C21.4064 91.2433 22.8762 91.6553 24.7755 91.9428C25.7591 92.1232 26.7427 92.3037 27.8676 92.4897C28.9925 92.6758 30.2587 92.8674 31.5249 93.0591C34.1252 93.5158 37.0871 93.7745 40.3261 94.1858C41.9483 94.3208 43.5706 94.4557 45.3342 94.5963C47.0299 94.6634 48.8614 94.8774 50.704 94.8088C54.3781 94.9542 58.2725 94.896 62.3139 94.7021C63.3086 94.6 64.3713 94.5712 65.366 94.4691C66.3608 94.3669 67.4234 94.3382 68.4916 94.1682C69.4864 94.066 70.5546 93.896 71.6172 93.8673C72.6855 93.6973 73.6802 93.5951 74.7485 93.4251C78.9479 92.8128 83.2263 91.9914 87.3747 90.8818C91.523 89.7722 95.7448 88.5947 99.7008 86.9821C103.725 85.443 107.539 83.8248 111.224 81.9184C112.162 81.4601 113.032 80.9285 113.897 80.5381C114.767 80.0064 115.632 79.616 116.502 79.0843C118.169 78.0888 119.836 77.0933 121.294 76.0187C124.198 74.1522 126.973 71.9975 129.532 69.905C130.775 68.8927 131.951 67.807 133.052 66.7891C134.154 65.7712 135.182 64.8212 136.069 63.8656C137.024 62.9834 137.838 62.0956 138.646 61.3492C139.459 60.4614 140.126 59.7094 140.793 58.9573C141.979 57.589 142.877 56.3507 143.544 55.5987C144.143 54.7732 144.583 54.366 144.583 54.366C144.815 53.8798 145.454 53.8343 145.866 54.1337C146.279 54.4331 146.325 55.0718 146.025 55.4846Z" fill="#2FC6DE"></path> <path d="M19.089 105.093C18.4839 104.29 17.9466 103.561 17.3414 102.759C16.6629 102.024 16.1256 101.295 15.447 100.561C14.1577 99.1653 12.727 97.7642 11.2173 96.5722C10.4653 95.9055 9.70766 95.3802 8.95561 94.7135C8.19798 94.1882 7.37249 93.5893 6.61485 93.064C4.95827 92.0077 3.36954 91.0249 1.70736 90.1099C0.876277 89.6524 0.564948 88.5786 1.02243 87.7475C1.24838 87.4026 1.54218 87.1312 1.83039 87.0011L2.11861 86.871L4.49777 85.7621C5.28896 85.4396 6.08015 85.1171 6.94479 84.7267C7.73598 84.4042 8.52717 84.0816 9.31836 83.7591L11.6919 82.7916C13.2743 82.1465 14.9246 81.5749 16.5748 81.0033C18.2929 80.5052 19.9375 80.0749 21.7179 79.7916C22.2887 79.6726 22.8372 80.1189 22.8148 80.6842C22.8715 81.0402 22.7869 81.3907 22.5665 81.5943C21.9055 82.205 21.1087 82.6689 20.3797 83.2061C19.6508 83.7434 18.854 84.2073 18.1307 84.6032C16.6106 85.463 15.0226 86.2494 13.3668 86.9623C11.7844 87.6073 10.0607 88.2468 8.41049 88.8183C6.76025 89.3899 5.04215 89.8881 3.32405 90.3862L3.66185 87.2151C4.48734 87.8139 5.23938 88.4806 6.06488 89.0793C6.81692 89.746 7.56897 90.4127 8.32101 91.0793C9.07306 91.746 9.8251 92.4126 10.5771 93.0793C11.3292 93.7459 12.0078 94.4805 12.7598 95.1471C13.5119 95.8138 14.1905 96.5483 14.8691 97.2828L16.9048 99.4863C17.5834 100.221 18.3355 100.888 18.9406 101.69L20.9764 103.893C21.3157 104.261 21.1464 104.962 20.7791 105.301C20.1349 105.488 19.5696 105.465 19.089 105.093C19.1625 105.025 19.089 105.093 19.089 105.093Z" fill="#2FC6DE"></path> </g> <defs> <clipPath id="clip0"> <rect width="130.5" height="76.1" fill="white" transform="translate(147.495 55.8966) rotate(137.266)"></rect> </clipPath> </defs> </svg> 