<svg xmlns="http://www.w3.org/2000/svg" width="89" height="132" viewBox="0 0 89 132">
    <path fill="#19C176" fill-rule="evenodd" d="M69.627 114.238c3.314-15.116 9.872-27.379 13.921-43.611.512-2.054 5.44-3.448 4.765-.741-5.005 20.056-14.925 38.808-16.738 59.616-.154 1.77-3.532 3.268-4.654 1.666-8.862-12.668-12.214-33.792-30.64-35.56-3.152-.302-.127-4.128 2.035-3.921 14.504 1.39 24.252 17.982 28.004 27.394 2.31-23.102-7.496-45.128-18.961-64.575-5.846-9.915-11.986-19.804-19.393-28.635-7.135-8.508-15.373-16.61-25.95-20.569C.199 4.622.546-.557 2.663.236c11.156 4.177 20.12 12.92 27.48 22.045 7.646 9.478 14.163 19.757 20.287 30.275 10.926 18.768 19.689 39.735 19.198 61.682zm-1.549 9.425a.812.812 0 0 1-.237.02c.249 1.076.271 1.73.059 1.805.053-.614.113-1.222.178-1.825z"/>
</svg>
