<svg xmlns="http://www.w3.org/2000/svg" width="3440" height="348" viewBox="0 0 3440 348">
    <path fill="#E9FAFF" fill-rule="evenodd" d="M0 333.132V0h3440v284.427c-12.201-.1-24.59-1-37-2.902-55.393-8.494-110.526-71.12-159.96-80.084-36.036-6.534-72.187 36.5-112 35.372-36.813-1.042-58.112-53.9-96-56.39-38.778-2.549-64.8 34.824-107 38.033-36.537 2.778-81.337-102.211-115-106.091-50.988-5.877-87.732 86.679-121 80.069-19.212-3.818-42.096-34.363-66-38.033-23.905-3.67-39.538 19.366-48 20.017-30.721 2.365-51.08-41.81-103-25.021-65 21.018-49 60.368-101 60.368s-64-50.36-168-45.356c-104 5.005-120 111.797-224.141 117.116-109.44 5.589-136.093-66.939-189.86-71.76-44.01-3.946-68 91.702-135 66.387-67-25.314-102.494 56.83-143 56.83-40.505 0-51-96.035-100-96.17-49-.133-70 106.188-108 106.188-41 0-108-72.22-188-66.848-80 5.373-153 72.416-198 71.415-45-1.001-51-28.024-77-30.026-26-2.002-37.745 25.475-57 25.459-19.985-.017-52.756-46.643-77-46.477-21.826.149-40.586 28.249-65 29.025-54.249 1.724-102.853-51.986-165-49.396-38.396 1.601-87.93 63.215-127 66.848-49.062 4.563-61.936-37.315-108-34.467-31.555 1.951-29.504 13.454-60 17.015-27.873 3.254-64.541-25.548-92-22.02-36.551 4.698-55.857 15.81-92.039 29.604z"/>
</svg>
