<?xml version="1.0" encoding="UTF-8"?>
<svg width="3440px" height="501px" viewBox="0 0 3440 501" version="1.1" xmlns="http://www.w3.org/2000/svg" xmlns:xlink="http://www.w3.org/1999/xlink">
    <!-- Generator: Sketch 45.2 (43514) - http://www.bohemiancoding.com/sketch -->
    <title>bg_header</title>
    <desc>Created with Sketch.</desc>
    <defs>
        <linearGradient x1="50%" y1="1.68769408%" x2="50%" y2="112.170313%" id="linearGradient-1">
            <stop stop-color="#02758D" offset="0%"></stop>
            <stop stop-color="#1F98AD" offset="49.4878029%"></stop>
            <stop stop-color="#10C4C9" offset="100%"></stop>
        </linearGradient>
        <linearGradient x1="17419.2703%" y1="3.66515499%" x2="17419.2703%" y2="61.6328179%" id="linearGradient-2">
            <stop stop-color="#FFFFFF" stop-opacity="0" offset="0%"></stop>
            <stop stop-color="#FFFFFF" offset="100%"></stop>
        </linearGradient>
        <linearGradient x1="50.0345142%" y1="73.5107325%" x2="50.0345143%" y2="13.7498861%" id="linearGradient-3">
            <stop stop-color="#FFFFFF" stop-opacity="0.3" offset="0%"></stop>
            <stop stop-color="#E9FAFF" stop-opacity="0" offset="100%"></stop>
        </linearGradient>
        <circle id="path-4" cx="29" cy="29" r="29"></circle>
        <linearGradient x1="50%" y1="50%" x2="50.5273434%" y2="75.5741514%" id="linearGradient-6">
            <stop stop-color="#0F7883" offset="0%"></stop>
            <stop stop-color="#006071" offset="100%"></stop>
        </linearGradient>
        <linearGradient x1="50%" y1="50%" x2="74.8619343%" y2="75.5741514%" id="linearGradient-7">
            <stop stop-color="#0F7883" offset="0%"></stop>
            <stop stop-color="#006071" offset="100%"></stop>
        </linearGradient>
        <circle id="path-8" cx="40" cy="40" r="40"></circle>
        <circle id="path-10" cx="27" cy="27" r="27"></circle>
        <circle id="path-12" cx="19" cy="19" r="19"></circle>
        <circle id="path-14" cx="19" cy="19" r="19"></circle>
        <linearGradient x1="50%" y1="0%" x2="50%" y2="100%" id="linearGradient-16">
            <stop stop-color="#BBFCEB" offset="0%"></stop>
            <stop stop-color="#FFFFFF" offset="100%"></stop>
        </linearGradient>
        <circle id="path-17" cx="16" cy="16" r="16"></circle>
        <circle id="path-19" cx="16" cy="16" r="16"></circle>
        <circle id="path-21" cx="21" cy="21" r="21"></circle>
    </defs>
    <g id="Page-1" stroke="none" stroke-width="1" fill="none" fill-rule="evenodd">
        <g id="bg_header" transform="translate(0.000000, -13.000000)">
            <g id="bg">
                <path d="M3440,462 L3440,13 L0,13 L0,501.251867 C10.543669,501.786951 22.286249,500.558174 35,496.437261 C91.196015,478.222428 110.068058,462.769647 155,457 C182.458564,453.474085 219.126487,482.251628 247,479 C277.49604,475.442437 275.44446,463.949607 307,462 C353.06432,459.153992 365.93745,500.995949 415,496.437261 C454.06995,492.807045 503.60368,431.246321 542,429.647014 C604.14664,427.058445 652.75108,480.72279 707,479 C731.41338,478.224701 750.1736,450.14887 772,450 C796.24422,449.834639 829.01528,496.420442 849,496.437261 C868.25494,496.453466 880,469 906,471 C932,473 938,500 983,501 C1028,502 1101,435.014518 1181,429.647014 C1261,424.279511 1328,496.437261 1369,496.437261 C1407,496.437261 1428,390.207096 1477,390.341299 C1526,390.475503 1536.49439,486.428208 1577,486.428208 C1617.50561,486.428208 1653,404.353973 1720,429.647014 C1787,454.940055 1810.99008,359.374332 1855,363.316856 C1908.76695,368.13344 1935.41974,440.598926 2044.85938,435.014518 C2149,429.700504 2165,323 2269,318 C2373,313 2385,363.316856 2437,363.316856 C2489,363.316856 2473,324 2538,303 C2589.92049,286.225688 2610.27955,330.363112 2641,328 C2649.46284,327.349012 2665.09545,304.332876 2689,308 C2712.90455,311.667124 2735.78845,342.186229 2755,346 C2788.26896,352.604372 2825.01306,260.128419 2876,266 C2909.6637,269.876662 2954.46335,374.775369 2991,372 C3033.20076,368.794378 3059.22264,331.453247 3098,334 C3135.88914,336.488418 3157.1874,389.29991 3194,390.341299 C3233.81336,391.467577 3269.96499,348.47172 3306,355 C3355.43485,363.955859 3405.21752,452.798794 3440,462 Z" id="Shape" fill="url(#linearGradient-1)" fill-rule="nonzero"></path>
                <g id="Group" opacity="0.4" transform="translate(60.000000, 0.000000)" stroke="url(#linearGradient-2)" stroke-dasharray="2,5">
                    <path d="M1022.5,510.466597 L1022.5,0.901784864" id="Line"></path>
                    <path d="M949.5,510.466597 L949.5,0.901784864" id="Line"></path>
                    <path d="M1095.5,510.466597 L1095.5,0.901784864" id="Line"></path>
                    <path d="M1168.5,510.466597 L1168.5,0.901784864" id="Line"></path>
                    <path d="M1241.5,510.466597 L1241.5,0.901784864" id="Line"></path>
                    <path d="M1314.5,510.466597 L1314.5,0.901784864" id="Line"></path>
                    <path d="M1387.5,510.466597 L1387.5,0.901784864" id="Line"></path>
                    <path d="M1460.5,510.466597 L1460.5,0.901784864" id="Line"></path>
                    <path d="M1533.5,510.466597 L1533.5,0.901784864" id="Line"></path>
                    <path d="M1606.5,510.466597 L1606.5,0.901784864" id="Line"></path>
                    <path d="M1679.5,510.466597 L1679.5,0.901784864" id="Line"></path>
                    <path d="M1752.5,510.466597 L1752.5,0.901784864" id="Line"></path>
                    <path d="M1825.5,510.466597 L1825.5,0.901784864" id="Line"></path>
                    <path d="M1898.5,510.466597 L1898.5,0.901784864" id="Line"></path>
                    <path d="M1971.5,510.466597 L1971.5,0.901784864" id="Line"></path>
                    <path d="M2044.5,510.466597 L2044.5,0.901784864" id="Line"></path>
                    <path d="M2117.5,510.466597 L2117.5,0.901784864" id="Line"></path>
                    <path d="M2190.5,510.466597 L2190.5,0.901784864" id="Line"></path>
                    <path d="M2253.5,510.466597 L2253.5,0.901784864" id="Line"></path>
                    <path d="M2326.5,510.466597 L2326.5,0.901784864" id="Line"></path>
                    <path d="M2399.5,510.466597 L2399.5,0.901784864" id="Line"></path>
                    <path d="M2552.5,510.466597 L2552.5,0.901784864" id="Line"></path>
                    <path d="M2479.5,510.466597 L2479.5,0.901784864" id="Line"></path>
                    <path d="M2625.5,510.466597 L2625.5,0.901784864" id="Line"></path>
                    <path d="M2698.5,510.466597 L2698.5,0.901784864" id="Line"></path>
                    <path d="M2771.5,510.466597 L2771.5,0.901784864" id="Line"></path>
                    <path d="M2844.5,510.466597 L2844.5,0.901784864" id="Line"></path>
                    <path d="M2917.5,510.466597 L2917.5,0.901784864" id="Line"></path>
                    <path d="M2990.5,510.466597 L2990.5,0.901784864" id="Line"></path>
                    <path d="M3063.5,510.466597 L3063.5,0.901784864" id="Line"></path>
                    <path d="M3136.5,510.466597 L3136.5,0.901784864" id="Line"></path>
                    <path d="M3209.5,510.466597 L3209.5,0.901784864" id="Line"></path>
                    <path d="M3282.5,510.466597 L3282.5,0.901784864" id="Line"></path>
                    <path d="M3355.5,510.466597 L3355.5,0.901784864" id="Line"></path>
                    <path d="M0.5,510.466597 L0.5,0.901784864" id="Line"></path>
                    <path d="M73.5,510.466597 L73.5,0.901784864" id="Line"></path>
                    <path d="M146.5,510.466597 L146.5,0.901784864" id="Line"></path>
                    <path d="M219.5,510.466597 L219.5,0.901784864" id="Line"></path>
                    <path d="M292.5,510.466597 L292.5,0.901784864" id="Line"></path>
                    <path d="M365.5,510.466597 L365.5,0.901784864" id="Line"></path>
                    <path d="M438.5,510.466597 L438.5,0.901784864" id="Line"></path>
                    <path d="M511.5,510.466597 L511.5,0.901784864" id="Line"></path>
                    <path d="M584.5,510.466597 L584.5,0.901784864" id="Line"></path>
                    <path d="M657.5,510.466597 L657.5,0.901784864" id="Line"></path>
                    <path d="M730.5,510.466597 L730.5,0.901784864" id="Line"></path>
                    <path d="M803.5,510.466597 L803.5,0.901784864" id="Line"></path>
                    <path d="M876.5,510.466597 L876.5,0.901784864" id="Line"></path>
                </g>
                <path d="M3440,297.655608 L3440,513.452651 L0,513.452651 L0,486.622819 C91.339186,462.097376 134.99634,418.746596 177.003278,415.783715 C227.79689,412.201084 295.86971,488.372959 330.00328,482 C349.481,478.363383 372.00328,450 400.00328,448 C428.00328,446 440.00328,471.844513 504.00328,471.844513 C568.00328,471.844513 595.09941,422.561402 639.00328,415.783715 C682.90715,409.006029 737.27469,443.772591 759.00328,440 C802.51346,432.445617 803.00328,377.617324 850.00328,382.747888 C897.00328,387.878452 915.00243,441.061129 970.50286,387.878452 C1026.00328,334.695776 1080.10426,379.496724 1116.34331,415.783715 C1152.58237,452.070706 1150.33526,474.84777 1210.32106,471.844513 C1246.51708,470.032318 1272.50118,388.546764 1325.29382,382.747888 C1391.2782,375.5 1428.39005,439.958461 1447.26494,428.797829 C1501.29814,396.848254 1506.25096,336.697948 1536.24386,334.695776 C1566.23676,332.693605 1606.22729,393.493917 1634.22065,368.599732 C1662.21402,343.705547 1677.38291,308.344785 1715.20147,304.107916 C1753.02004,299.871048 1809.98643,379.403819 1836.17282,397.764173 C1847.60729,405.781346 1906.15625,282.639321 1938.14867,280.63715 C1970.14109,278.634979 1988.98711,328.06895 2026.12783,297.655606 C2063.89417,266.729965 2057.12049,238.591552 2098.11078,236.589381 C2139.10107,234.587209 2216.39491,354.730676 2259.07266,375.5 C2301.66589,396.228192 2402.00328,148 2457.02577,165.512298 C2512.04827,183.024596 2522.22875,259.371734 2572.00328,263 C2590.56265,264.352868 2615.17793,215.61429 2638.00328,217 C2666.01139,218.700352 2700.10364,301.410155 2733.00328,304.107916 C2767.12858,306.906182 2773.44542,267.007678 2811.00328,269 C2853.86321,271.27358 2874.33249,340.574866 2920.00328,344 C2952.40544,346.430038 2976.64992,314.816186 3010.00328,316 C3031.12362,316.749627 3066.96524,347.990081 3088.00328,349 C3124.61822,350.757678 3160.05338,291.544231 3194.00328,292 C3227.95318,292.455769 3228.00328,334.695776 3274.00328,316 C3320.00328,297.304224 3315.00328,352.36285 3369.00328,359 C3422.99934,365.636667 3425.00299,297.665512 3440,297.655608 Z" id="график-сзади" fill="url(#linearGradient-3)" fill-rule="nonzero"></path>
            </g>
            <g id="2" transform="translate(2038.000000, 208.000000)">
                <g id="Oval">
                    <g id="path-5-link" fill="#1890A6">
                        <circle id="path-5" cx="37" cy="37" r="37"></circle>
                    </g>
                    <circle stroke="#FFFFFF" stroke-width="3" cx="37" cy="37" r="35.5"></circle>
                </g>
                <g id="Oval" transform="translate(30.000000, 215.000000)">
                    <g id="path-6-link" fill-rule="nonzero" fill="#000000">
                        <circle id="path-6" cx="7" cy="7" r="7"></circle>
                    </g>
                    <g id="path-6-link" fill="#19C176">
                        <circle id="path-6" cx="7" cy="7" r="7"></circle>
                    </g>
                    <circle stroke="#FFFFFF" stroke-width="3" cx="7" cy="7" r="5.5"></circle>
                </g>
                <g id="Shape" transform="translate(8.000000, 8.000000)">
                    <g id="Mask" fill-rule="nonzero" fill="#97D3DE">
                        <circle id="path-8" cx="29" cy="29" r="29"></circle>
                    </g>
                    <g id="user-(5)-Clipped">
                        <mask id="mask-5" fill="white">
                            <use xlink:href="#path-4"></use>
                        </mask>
                        <g id="path-8"></g>
                        <g id="user-(5)" mask="url(#mask-5)">
                            <g transform="translate(-9.000000, -3.000000)" id="Group">
                                <g>
                                    <path d="M38.0004595,0 C17.0133707,0 0,17.0120447 0,38.0009191 C0,58.9865767 17.0133707,76 38.0004595,76 C58.9866293,76 76,58.9865767 76,38.0009191 C76,17.0118915 58.9866293,0 38.0004595,0 Z" id="Shape" fill="#024C5B" fill-rule="nonzero"></path>
                                    <polygon id="Shape" fill="#261D17" fill-rule="nonzero" points="38 16 23 26.320469 23 62 53 62 53 26.320469"></polygon>
                                    <path d="M60.4507541,58.577801 C59.3320414,54.3876071 49.7552051,51 37.9490521,51 C26.142899,51 16.6679586,54.3876071 15.5492459,58.577801 C15.0506292,60.4453319 14.484082,63.9834721 14,67.4139351 C20.5401553,72.779976 28.8953119,76 38.000612,76 C47.1053001,76 55.4599977,72.779976 62,67.4140887 C61.515918,63.9836257 60.9493708,60.4453319 60.4507541,58.577801 Z" id="Shape" fill="#4ABC96" fill-rule="nonzero"></path>
                                    <path d="M44,43 L32,43 C33.8723579,48.5476523 32.1508871,51.0806981 32.1508871,51.0806981 L36.3029056,52 L39.6970944,52 L43.8491129,51.0808498 C43.8491129,51.0806981 42.1276421,48.5476523 44,43 Z" id="Shape" fill="#E2A176" fill-rule="nonzero"></path>
                                    <path d="M38.0001505,9 C31.372638,9 26,12.2910374 26,26.6618645 C26,31.5230908 26.8418492,35.3321863 28.1024413,38.2719953 C30.875804,44.7396371 35.6760749,47 38.0001505,47 C40.324226,47 45.1244969,44.7396371 47.8977092,38.2719953 C49.1581508,35.3321863 50,31.5230908 50,26.6618645 C50,12.2910374 44.627362,9 38.0001505,9 Z" id="Shape" fill="#F4B382" fill-rule="nonzero"></path>
                                    <path d="M39.1227556,40.0057209 C38.6606,39.9495386 37.5,40.3256656 37.5,40.3256656 C37.5,40.3256656 36.3230667,39.9505625 35.8571778,40.0082805 C35.1108222,40.1006805 34,41.1540663 34,41.3281162 C34,41.3281162 35.5670667,42 37.5,42 C39.4329333,42 41,41.3281162 41,41.3281162 C41,41.3281162 39.8804667,40.097865 39.1227556,40.0057209 Z" id="Shape" fill="#E24444" fill-rule="nonzero"></path>
                                    <path d="M38.4530889,40.0007011 C38.1496,39.9842916 37.7591556,40.2613773 37.5,40.2613773 C37.2005556,40.2613773 36.7519333,39.9874172 36.4072222,40.0086714 C34.3616667,40.1352588 34,40.5739387 34,40.5739387 C34,40.5739387 35.5670667,42 37.5,42 C39.4329333,42 41,40.5739387 41,40.5739387 C41,40.5739387 40.5773556,40.1152548 38.4530889,40.0007011 Z" id="Shape" fill="#D33D3D" fill-rule="nonzero"></path>
                                    <g transform="translate(32.000000, 48.000000)" id="Shape" fill-rule="nonzero" fill="#E2A176">
                                        <path d="M11.8324615,2.84709333 C11.8324615,2.84709333 10.4609231,5.38926667 5.96738462,5.38926667 C1.47369231,5.38926667 0.191538462,2.84709333 0.191538462,2.84709333 C0.191538462,2.84709333 -0.887692308,10.86492 6.02384615,10.86492 C12.9352308,10.86492 11.8324615,2.84709333 11.8324615,2.84709333 Z"></path>
                                        <path d="M5.97369231,0.14608 L0.179538462,2.84724 C0.179538462,2.84724 2.76846154,6.96461333 5.96723077,6.96461333 C9.166,6.96461333 11.8447692,2.84724 11.8447692,2.84724 L5.97369231,0.14608 Z"></path>
                                    </g>
                                    <path d="M38.0002268,9 L38.0002268,9 L37.9999244,9 C29.7158155,9 23,12.167858 23,26 C23,26 42.6726045,25.7831526 42.6726045,20.7477728 C42.6726045,25.7831526 53,26 53,26 C53.0001512,12.167858 46.2844869,9 38.0002268,9 Z" id="Shape" fill="#261D17" fill-rule="nonzero"></path>
                                    <g transform="translate(24.000000, 27.000000)" id="Shape" fill-rule="nonzero" fill="#F4B382">
                                        <path d="M1.68406704,0.151894737 C0.491486034,0.357789474 -0.415620112,0.876157895 0.257162011,4.84863158 C0.930256983,8.82110526 1.76587709,9.00584211 2.95830168,8.79994737 L1.68406704,0.151894737 Z"></path>
                                        <path d="M26.1997095,0.151894737 L24.9254749,8.79994737 C26.1182123,9.00584211 26.9538324,8.82110526 27.6266145,4.84863158 C28.2993966,0.876157895 27.3921341,0.357789474 26.1997095,0.151894737 Z"></path>
                                    </g>
                                    <g transform="translate(24.000000, 26.000000)" id="Shape" fill-rule="nonzero" fill="#261D17">
                                        <path d="M2.47689888,1.95978947 C2.31298876,0.920368421 2.4874382,0.0914210526 2.4874382,0.0914210526 L0.129932584,0.975 C0.129932584,0.975 1.58546067,1.17031579 2.10991011,2.85457895 C2.10991011,2.85457895 2.68595506,3.28531579 2.47689888,1.95978947 Z"></path>
                                        <path d="M25.5433933,0.0914210526 C25.5433933,0.0914210526 25.7178427,0.920368421 25.5539326,1.95978947 C25.3450337,3.28515789 25.9210787,2.85457895 25.9210787,2.85457895 C26.4453708,1.17031579 27.9008989,0.975 27.9008989,0.975 L25.5433933,0.0914210526 Z"></path>
                                    </g>
                                    <g transform="translate(24.000000, 34.000000)" id="Shape" fill-rule="nonzero" fill="#8E7920">
                                        <path d="M26.9012045,0.87425 C26.8677614,0.536 26.6173977,0.254875 26.271,0.112875 L26.1113011,0.397125 C26.335892,0.493375 26.4974318,0.678 26.5192159,0.899375 C26.5532727,1.243125 26.2386307,1.544375 25.8167557,1.572125 C25.3947273,1.59975 25.0251648,1.3435 24.991108,0.99975 C24.9710114,0.796625 25.0731818,0.609 25.2465341,0.483125 L25.1558693,0.15075 C24.7981193,0.329375 24.5727614,0.66075 24.6091193,1.024875 C24.6600511,1.54075 25.2144716,1.925125 25.8474375,1.8835 C26.4804034,1.841875 26.9522898,1.39 26.9012045,0.87425 Z"></path>
                                        <path d="M1.879875,0.150625 L1.78921023,0.483 C1.9625625,0.60875 2.06473295,0.796375 2.04463636,0.999625 C2.01057955,1.343375 1.64101705,1.599625 1.21898864,1.572 C0.797113636,1.54425 0.482471591,1.243 0.516528409,0.89925 C0.538465909,0.677875 0.699852273,0.49325 0.924443182,0.397 L0.764744318,0.11275 C0.418193182,0.25475 0.167829545,0.536 0.134539773,0.874125 C0.0834545455,1.389875 0.555340909,1.84175 1.18830682,1.88325 C1.82127273,1.92475 2.37569318,1.5405 2.426625,1.024625 C2.46298295,0.660625 2.237625,0.32925 1.879875,0.150625 Z"></path>
                                    </g>
                                    <path d="M32.5000742,26 C30.0146707,26 28,26.5250672 28,30.2749328 C28,32.6360323 29.117267,35 32.5000742,35 C34.9851809,35 37,32.6360323 37,30.2749328 C37,27.9140125 34.9851809,26 32.5000742,26 Z M32.5000727,34 C29.8691261,34 29,32.1613551 29,30.3249956 C29,27.4083729 30.5670165,27 32.5000727,27 C34.4329835,27 36,28.4886361 36,30.3249956 C36,32.1613551 34.4329835,34 32.5000727,34 Z" id="Shape" fill="#261D17" fill-rule="nonzero"></path>
                                    <path d="M32.5000727,28 C30.5670165,28 29,28.3500339 29,30.8499962 C29,32.4240187 29.8691261,34 32.5000727,34 C34.4329835,34 36,32.4240187 36,30.8499962 C36,29.2759738 34.4329835,28 32.5000727,28 Z" id="Shape" fill="#F4C4A4" fill-rule="nonzero"></path>
                                    <path d="M32.9283498,27 C30.7587603,27 29,27.4165108 29,30.3912553 C29,31.9619118 29.6866203,33.5332855 31.6493256,34 L34,27.1289158 C33.6592208,27.0455419 33.2999902,27 32.9283498,27 Z" id="Shape" fill="#F4CCB0" fill-rule="nonzero"></path>
                                    <path d="M33.2571339,27 L31,33.8608916 C31.3628097,33.950587 31.7703042,34 32.2281279,34 C34.3112261,34 36,32.1274969 36,30.2573212 C36,28.707793 34.8399185,27.4022865 33.2571339,27 Z" id="Shape" fill="#F4C4A4" fill-rule="nonzero"></path>
                                    <g transform="translate(26.000000, 26.000000)" id="Shape" fill-rule="nonzero" fill="#261D17">
                                        <path d="M2.69335032,3.07003774 L0.910012739,1.15803774 C0.738343949,0.974037736 0.448203822,0.962113208 0.262012739,1.13177358 C0.0756687898,1.30128302 0.0637452229,1.58762264 0.235261146,1.77162264 L2.01859873,3.68362264 C2.10909554,3.78067925 2.23230573,3.82973585 2.35612739,3.82973585 C2.46726115,3.82973585 2.57854777,3.79018868 2.66659873,3.71003774 C2.85294268,3.54037736 2.86486624,3.25403774 2.69335032,3.07003774 Z"></path>
                                        <path d="M23.7112357,1.13177358 C23.5250446,0.962113208 23.2349045,0.974037736 23.0632357,1.15803774 L21.2798981,3.07003774 C21.1083822,3.25403774 21.1203057,3.54037736 21.3066497,3.70988679 C21.3947006,3.79003774 21.5061401,3.82958491 21.617121,3.82958491 C21.7409427,3.82958491 21.8641529,3.7805283 21.9546497,3.6834717 L23.7379873,1.7714717 C23.9095032,1.58762264 23.8975796,1.30128302 23.7112357,1.13177358 Z"></path>
                                        <path d="M17.438828,0.0118966126 C14.8781656,0.0118966126 12.8020892,1.89613556 12.8020892,4.22033027 C12.8020892,6.54470146 14.8781656,8.87189627 17.438828,8.87189627 C20.9244841,8.87189627 22.0757197,6.54470146 22.0757197,4.22033027 C22.0757197,0.528796105 19.9997962,0.0118966126 17.438828,0.0118966126 Z M17.438828,7.95545412 C15.4078471,7.95545412 13.7613248,6.10968703 13.7613248,4.26621415 C13.7613248,2.42274126 15.4078471,0.928338764 17.438828,0.928338764 C19.4699618,0.928338764 21.1164841,1.33829353 21.1164841,4.26621415 C21.1164841,6.10968703 20.2032611,7.95545412 17.438828,7.95545412 Z"></path>
                                    </g>
                                    <path d="M43.4999273,28 C41.5670165,28 40,29.2759738 40,30.8499962 C40,32.4240187 41.5670165,34 43.4999273,34 C46.1308739,34 47,32.4240187 47,30.8499962 C47,28.3500339 45.4329835,28 43.4999273,28 Z" id="Shape" fill="#F4C4A4" fill-rule="nonzero"></path>
                                    <path d="M43.7693513,27 C43.4127233,27 43.0680038,27.0456729 42.7409903,27.1292867 C41.1591977,27.5333299 40,28.8445375 40,30.4010121 C40,31.9547895 41.1551238,33.5089265 42.7323723,34 L45,27.0733643 C44.6140708,27.0185209 44.2004074,27 43.7693513,27 Z" id="Shape" fill="#F4CCB0" fill-rule="nonzero"></path>
                                    <path d="M44.3588473,27 L42,33.8419223 C42.3429391,33.9433407 42.7042965,34 43.0786934,34 C43.5546355,34 43.9782566,33.9509782 44.3554244,33.8619928 C46.3146108,33.39966 47,31.8428611 47,30.287128 C47,27.9502423 45.8955535,27.2074548 44.3588473,27 Z" id="Shape" fill="#F4C4A4" fill-rule="nonzero"></path>
                                    <g transform="translate(36.000000, 30.000000)" id="Shape" fill-rule="nonzero" fill="#261D17">
                                        <path d="M3.89657143,0.0961363636 L0.124714286,0.0961363636 C0.0901428571,0.0961363636 0.809428571,1.51663636 0.837285714,1.51663636 L3.54428571,1.5165 C3.57242857,1.51636364 3.93157143,0.0961363636 3.89657143,0.0961363636 Z"></path>
                                        <path d="M3.30642857,1.53354545 C2.93242857,1.28181818 2.479,1.0335 1.996,1.0335 C1.62785714,1.0335 1.27728571,1.22236364 0.965714286,1.37290909 C0.476142857,1.60909091 0.475714286,2.89418182 0.475714286,2.89418182 C0.755,2.33740909 1.35214286,1.97781818 1.996,1.97781818 C2.63985714,1.97781818 3.23685714,2.33754545 3.51628571,2.89418182 C3.51628571,2.89418182 3.66471429,1.77463636 3.30642857,1.53354545 Z"></path>
                                    </g>
                                </g>
                            </g>
                        </g>
                    </g>
                </g>
                <path d="M36.5,74.5 L36.5,215.5" id="Line-2" stroke="#FFFFFF" opacity="0.5" stroke-linecap="square"></path>
            </g>
            <g id="2" transform="translate(2156.000000, 128.000000)">
                <circle id="Oval" stroke="#FFFFFF" stroke-width="5" cx="49" cy="49" r="48.5"></circle>
                <g id="Oval" transform="translate(42.000000, 203.000000)">
                    <g id="path-10-link" fill-rule="nonzero" fill="#000000">
                        <circle id="path-10" cx="7" cy="7" r="7"></circle>
                    </g>
                    <g id="path-10-link" fill="#19C176">
                        <circle id="path-10" cx="7" cy="7" r="7"></circle>
                    </g>
                    <circle stroke="#FFFFFF" stroke-width="3" cx="7" cy="7" r="5.5"></circle>
                </g>
                <g id="Shape" transform="translate(9.000000, 9.000000)">
                    <g id="Mask" fill-rule="nonzero" fill="url(#linearGradient-7)">
                        <circle id="path-13" cx="40" cy="40" r="40"></circle>
                    </g>
                    <g id="user-(3)-Clipped">
                        <mask id="mask-9" fill="white">
                            <use xlink:href="#path-8"></use>
                        </mask>
                        <g id="path-13"></g>
                        <g id="user-(3)" mask="url(#mask-9)">
                            <g transform="translate(-6.000000, -6.000000)" id="Group">
                                <g>
                                    <path d="M47.5005744,0 C21.2667134,0 0,21.2650559 0,47.5011488 C0,73.7332209 21.2667134,95 47.5005744,95 C73.7332866,95 95,73.7332209 95,47.5011488 C95,21.2648644 73.7332866,0 47.5005744,0 Z" id="Shape" fill="#024C5B" fill-rule="nonzero"></path>
                                    <path d="M75.0632576,73.3964732 C73.6648711,68.2006329 61.6938639,64 46.9362197,64 C32.1785754,64 20.3349377,68.2006329 18.9365511,73.3964732 C18.3132823,75.7122116 17.6052918,80.0995054 17,84.3532795 C25.1751681,91.0071703 35.6192718,95 47.0006694,95 C58.3814932,95 68.8250232,91.0071703 77,84.3534699 C76.3947082,80.0996959 75.6867177,75.7122116 75.0632576,73.3964732 Z" id="Shape" fill="#4ABC96" fill-rule="nonzero"></path>
                                    <path d="M47.4322946,64 C43.7377634,64 40.2229346,64.2551275 37,64.7165037 C37.0671201,68.9143186 38.38162,77 47.5175605,77 C56.6415988,77 57.9416602,68.9352118 58,64.7327966 C54.7335545,64.2608779 51.1707269,64 47.4322946,64 Z" id="Shape" fill="#339672" fill-rule="nonzero"></path>
                                    <g transform="translate(40.000000, 54.000000)" id="Shape" fill-rule="nonzero" fill="#E2A379">
                                        <path d="M7.46711538,6.8284878 L0.224423077,10.4220488 C0.224423077,10.4220488 3.46076923,15.8997073 7.45923077,15.8997073 C11.4576923,15.8997073 14.8063462,10.4220488 14.8063462,10.4220488 L7.46711538,6.8284878 Z"></path>
                                        <path d="M14.9940385,0.0230243902 L0.0363461538,0.0230243902 C2.37019231,7.16214634 0.224230769,10.4218537 0.224230769,10.4218537 L5.39980769,11.604878 L9.63057692,11.604878 L14.8061538,10.4220488 C14.8061538,10.4218537 12.66,7.16214634 14.9940385,0.0230243902 Z"></path>
                                    </g>
                                    <path d="M54.9177009,64 C54.9177009,64 53.1692712,67.1706514 47.440737,67.1706514 C41.7122029,67.1706514 40.0779163,64 40.0779163,64 C40.0779163,64 38.7021189,74 47.51291,74 C56.3237011,74 54.9177009,64 54.9177009,64 Z" id="Shape" fill="#F7F7F7" fill-rule="nonzero"></path>
                                    <path d="M48.0001926,12 C38.6113107,12 31,16.0704936 31,33.8449377 C31,39.857507 32.19256,44.5687568 33.9784143,48.2048362 C37.9072553,56.204288 44.7077946,59 48.0001926,59 C51.2925906,59 58.0929374,56.204288 62.0217783,48.2048362 C63.8076326,44.5687568 65,39.857507 65,33.8449377 C65,16.0704936 57.3886893,12 48.0001926,12 Z" id="Shape" fill="#000000" fill-rule="nonzero"></path>
                                    <g transform="translate(28.000000, 12.000000)" id="Shape" fill-rule="nonzero" fill="#F4B382">
                                        <path d="M18.972766,0.110653333 C9.63938298,0.110653333 2.07306383,4.15590222 2.07306383,21.8201111 C2.07306383,27.7953911 3.25857447,32.4774222 5.03387234,36.0909511 C8.93948936,44.0407911 15.6998298,42.8599156 18.972766,42.8599156 C22.2457021,42.8599156 29.0058511,44.0407911 32.9114681,36.0911422 C34.686766,32.4776133 35.8720851,27.7955822 35.8720851,21.8203022 C35.8720851,4.15590222 28.305766,0.110653333 18.972766,0.110653333 Z"></path>
                                        <path d="M2.37370213,22.3636311 C0.757914894,22.6394044 -0.47106383,23.3339022 0.440425532,28.6553911 C1.35210638,33.9770711 2.48419149,34.22456 4.10017021,33.9487867 L2.37370213,22.3636311 Z"></path>
                                    </g>
                                    <g transform="translate(30.000000, 12.000000)" id="Shape" fill-rule="nonzero" fill="#000000">
                                        <path d="M17.0152809,0.109540541 C7.70520225,0.109540541 0.157775281,4.11410811 0.157775281,21.6006757 L14.4030112,14.5825135 L16.728573,8.43386486 L33.8724045,21.6006757 C33.8724045,4.11410811 26.3249775,0.109540541 17.0152809,0.109540541 Z"></path>
                                        <path d="M4.02632584,15.2762703 L1.23278652,15.0910541 C0.420988764,17.1484865 0.157775281,19.6995135 0.157775281,22.1816757 C0.157775281,22.1816757 1.82969663,21.819 1.82969663,22.6703514 L2.35497753,27.8967027 L3.09514607,27.541973 C3.04739326,23.1906216 4.02632584,15.2762703 4.02632584,15.2762703 Z"></path>
                                    </g>
                                    <path d="M63.7392679,34 L62,45.9242619 C63.6277664,46.2081073 64.7684376,45.9533742 65.6868775,40.4759246 C66.6053174,34.9986717 65.3670343,34.2838454 63.7392679,34 Z" id="Shape" fill="#F4B382" fill-rule="nonzero"></path>
                                    <path d="M62.888461,27.0676347 L60,27 C60,27 61.0121957,35.2474207 60.9628203,39.6417654 L61.728139,40 L62.2712685,34.7220099 C62.2712685,33.8622468 64,34.2285059 64,34.2285059 C64,31.7214368 63.7278428,29.1452044 62.888461,27.0676347 Z" id="Shape" fill="#000000" fill-rule="nonzero"></path>
                                </g>
                            </g>
                        </g>
                    </g>
                </g>
                <path d="M48.5,101.5 L48.5,203.5" id="Line-2" stroke="#FFFFFF" opacity="0.5" stroke-linecap="square"></path>
            </g>
            <g id="2" transform="translate(1702.000000, 308.000000)">
                <circle id="Oval" stroke="#FFFFFF" stroke-width="3" cx="33" cy="33" r="32.5"></circle>
                <g id="Oval" transform="translate(26.000000, 118.000000)">
                    <g id="path-15-link" fill-rule="nonzero" fill="#000000">
                        <circle id="path-15" cx="7" cy="7" r="7"></circle>
                    </g>
                    <g id="path-15-link" fill="#19C176">
                        <circle id="path-15" cx="7" cy="7" r="7"></circle>
                    </g>
                    <circle stroke="#FFFFFF" stroke-width="3" cx="7" cy="7" r="5.5"></circle>
                </g>
                <g id="Shape" transform="translate(6.000000, 6.000000)">
                    <g id="Mask" fill-rule="nonzero" fill="#97D3DE">
                        <circle id="path-17" cx="27" cy="27" r="27"></circle>
                    </g>
                    <g id="user-(6)-Clipped">
                        <mask id="mask-11" fill="white">
                            <use xlink:href="#path-10"></use>
                        </mask>
                        <g id="path-17"></g>
                        <g id="user-(6)" mask="url(#mask-11)">
                            <g transform="translate(-2.000000, -1.000000)" id="Group">
                                <g>
                                    <path d="M28.0003386,0 C12.5361679,0 0,12.5351908 0,28.0006772 C0,43.4637934 12.5361679,56 28.0003386,56 C43.4638321,56 56,43.4637934 56,28.0006772 C56,12.535078 43.4638321,0 28.0003386,0 Z" id="Shape" fill="#337180" fill-rule="nonzero"></path>
                                    <path d="M45.8380656,43.4560167 C44.999031,40.4390771 37.8164038,38 28.961789,38 C20.1071743,38 13.000969,40.4390771 12.1619344,43.4560167 C11.7879719,44.800639 11.3630615,47.3480999 11,49.8180332 C15.9051165,53.6815827 22.1714839,56 29.000459,56 C35.828975,56 42.0949983,53.6815827 47,49.8181438 C46.6369385,47.3482105 46.2120281,44.800639 45.8380656,43.4560167 Z" id="Shape" fill="#261D17" fill-rule="nonzero"></path>
                                    <polygon id="Shape" fill="#969899" fill-rule="nonzero" points="28.4717145 36 24 36.5646497 24.2105574 37.9806836 28.4669625 41 32.7894426 37.9806836 33 36.5646497"></polygon>
                                    <path d="M29.470326,36 L25,37.9807485 C25,37.9807485 26.9974151,41 29.4653408,41 C31.9332665,41 34,37.9807485 34,37.9807485 L29.470326,36 Z" id="Shape" fill="#7F3E09" fill-rule="nonzero"></path>
                                    <path d="M29.4655063,39.9025006 C27.0364364,39.9025006 25.8220205,38.9729819 25.3106812,38.4134487 L29.5091587,44 L33.7638966,38.3154371 C33.2909761,38.8558728 32.0428991,39.9025006 29.4655063,39.9025006 Z M25.3106812,38.4134487 L25,38 C25,38 25.0907541,38.172755 25.3106812,38.4134487 Z M33.7640155,38.3154371 C33.9286337,38.1274261 34,38.0001098 34,38.0001098 L33.7640155,38.3154371 Z" id="Shape" fill="#261D17" fill-rule="nonzero"></path>
                                    <path d="M33,31 L24,31 C25.4042684,35.6623435 24.1131653,37.7911593 24.1131653,37.7911593 L27.2271792,40 L29.7728208,40 L32.8868347,37.7912867 C32.8868347,37.7911593 31.5957316,35.6623435 33,31 Z" id="Shape" fill="#E2A176" fill-rule="nonzero"></path>
                                    <g transform="translate(22.000000, 36.000000)" id="Shape" fill-rule="nonzero" fill="#F3FAFF">
                                        <path d="M10.9661724,0.0265945946 L6.5065,3.32389189 C6.5065,3.32389189 10.3202069,3.97351351 10.3390345,3.95545946 L12.9713103,1.70724324 L10.9661724,0.0265945946 Z"></path>
                                        <path d="M2.05153448,0.0265945946 L0.0461724138,1.70735135 L2.67856034,3.95556757 C2.69738793,3.97362162 6.5065,3.324 6.5065,3.324 L2.05153448,0.0265945946 Z"></path>
                                    </g>
                                    <path d="M28.0001133,6 C22.4772416,6 18,8.42497494 18,19.0140054 C18,22.5959616 18.7013926,25.4026636 19.7520084,27.5688386 C22.0630913,32.3344694 26.0634086,34 28.0001133,34 C29.936818,34 33.9371353,32.3344694 36.2479916,27.5688386 C37.2984941,25.4026636 38,22.5959616 38,19.0140054 C38,8.42497494 33.5227584,6 28.0001133,6 Z" id="Shape" fill="#F4B382" fill-rule="nonzero"></path>
                                    <g transform="translate(15.000000, 3.000000)" id="Shape" fill-rule="nonzero" fill="#261D17">
                                        <path d="M24.7288372,14.0264975 C24.7288372,14.0264975 25.6605814,12.2126497 23.2890698,10.6353401 C23.2890698,10.6353401 24.4747674,10.3989188 24.6440698,10.9509188 C24.6440698,10.9509188 24.0511628,8.03307107 22.2726744,7.24441624 C22.2726744,7.24441624 23.035,7.00787817 24.0511628,8.03307107 C24.0511628,8.03307107 23.6277907,5.82495431 21.0872093,5.11522335 C21.0872093,5.11522335 21.5952326,4.87868528 22.442093,5.27307107 C22.442093,5.27307107 21.7646512,3.85349239 19.6473256,3.38029949 C19.6473256,3.38029949 19.477907,2.67068528 20.4095349,2.74949239 C20.4095349,2.74949239 18.5465116,1.88203046 16.7680233,1.8031066 C16.7680233,1.8031066 17.3609302,0.541492386 18.377093,0.541492386 C18.377093,0.541492386 15.9210465,-0.168238579 14.2273256,0.777913706 C14.2273256,0.777913706 13.2956977,0.38364467 13.8886047,0.0681827411 C13.8886047,0.0681827411 9.31534884,-0.0895482234 9.06127907,2.35522335 C9.06127907,2.35522335 7.79093023,2.27629949 6.69,1.72429949 C6.69,1.72429949 5.58895349,2.51295431 6.60523256,3.45922335 C6.60523256,3.45922335 3.97988372,3.53814721 2.79418605,5.43080203 C2.79418605,5.43080203 3.38709302,5.19426396 4.14918605,5.27307107 C4.14918605,5.27307107 2.11674419,6.29814721 1.86255814,8.03318782 C1.86255814,8.03318782 2.45534884,7.79664975 3.13290698,7.8753401 C3.13290698,7.8753401 1.94732558,8.58507107 1.43918605,10.004533 C1.43918605,10.004533 1.94732558,9.84680203 2.70953488,9.76811168 C2.70953488,9.76811168 0.0841860465,11.8184975 0.0841860465,14.7362284 C0.0841860465,14.7362284 1.10046512,13.1590355 1.69325581,13.1590355 C1.69325581,13.1590355 1.3544186,15.6824975 2.03209302,18.5215381 C2.03209302,18.5215381 2.45546512,17.181 2.87895349,17.2598071 C2.87895349,17.2598071 2.79418605,19.4678071 4.14930233,20.9661929 C4.14930233,20.9661929 4.14930233,15.8403452 5.08081395,15.7613046 C5.08081395,15.7613046 5.58906977,16.4711523 6.18186047,16.9443452 C6.18186047,16.9443452 5.08081395,10.7144975 7.79104651,10.2411878 C7.79104651,10.2411878 8.63790698,14.8940761 11.940814,15.5248832 C11.940814,15.5248832 10.8398837,12.2127665 10.9246512,10.9510355 C10.9246512,10.9510355 14.4816279,12.6070355 15.5826744,15.9191523 C15.5826744,15.9191523 16.0060465,14.1054213 15.4132558,11.3453046 C15.4132558,11.3453046 17.1917442,12.2914569 17.0223256,15.4460761 C17.0223256,15.4460761 18.3773256,14.8939594 18.462093,13.0802284 C18.462093,13.0802284 19.5630233,14.8150355 19.055,16.6288832 C19.055,16.6288832 19.309186,17.0231523 19.8172093,16.1556904 C19.8172093,16.1556904 21.87,17.1717766 21.7537209,20.4928832 C21.7537209,20.4928832 23.8997674,17.755533 23.2362791,14.9727665 C23.2362791,14.9727665 23.8443023,16.4711523 23.7595349,17.4963452 C23.7595349,17.4963452 24.3056977,15.2093046 23.7130233,12.5281117 C23.7126744,12.5281117 24.4747674,13.1589188 24.7288372,14.0264975 Z"></path>
                                        <path d="M8.73011628,17.0428832 C6.78209302,17.0428832 5.20302326,17.3848477 5.20302326,19.8270508 C5.20302326,21.3647817 6.07872093,22.9043807 8.73011628,22.9043807 C10.677907,22.9043807 12.257093,21.3647817 12.257093,19.8270508 C12.257093,18.2894365 10.677907,17.0428832 8.73011628,17.0428832 Z M8.73011628,22.2980914 C6.62732558,22.2980914 5.93267442,21.0769898 5.93267442,19.8574061 C5.93267442,17.9203858 7.18511628,17.6491726 8.73011628,17.6491726 C10.275,17.6491726 11.5274419,18.6378223 11.5274419,19.8574061 C11.5274419,21.0769898 10.275,22.2980914 8.73011628,22.2980914 Z"></path>
                                    </g>
                                    <path d="M23.500052,21 C22.1192975,21 21,21.2333559 21,22.8999975 C21,23.9493458 21.6208043,25 23.500052,25 C24.8807025,25 26,23.9493458 26,22.8999975 C26,21.8506492 24.8807025,21 23.500052,21 Z" id="Shape" fill="#F4C4A4" fill-rule="nonzero"></path>
                                    <path d="M23.3570099,21 C22.0552562,21 21,21.2380062 21,22.9378602 C21,23.8353782 21.4119722,24.733306 22.5895954,25 L24,21.0736661 C23.7955325,21.0260239 23.5799941,21 23.3570099,21 Z" id="Shape" fill="#F4CCB0" fill-rule="nonzero"></path>
                                    <path d="M24.3542803,21 L23,24.9205095 C23.2176858,24.971764 23.4621825,25 23.7368768,25 C24.9867357,25 26,23.9299982 26,22.8613264 C26,21.9758817 25.3039511,21.229878 24.3542803,21 Z" id="Shape" fill="#F4C4A4" fill-rule="nonzero"></path>
                                    <g transform="translate(19.000000, 20.000000)" id="Shape" fill-rule="nonzero" fill="#261D17">
                                        <path d="M2.02001274,1.29377358 L0.682509554,0.0987735849 C0.553757962,-0.0162264151 0.336152866,-0.0236792453 0.196509554,0.0823584906 C0.0567515924,0.188301887 0.0478089172,0.367264151 0.17644586,0.482264151 L1.51394904,1.67726415 C1.58182166,1.73792453 1.6742293,1.76858491 1.76709554,1.76858491 C1.85044586,1.76858491 1.93391083,1.74386792 1.99994904,1.69377358 C2.13970701,1.58773585 2.14864968,1.40877358 2.02001274,1.29377358 Z"></path>
                                        <path d="M17.7834268,0.0823584906 C17.6437834,-0.0236792453 17.4261783,-0.0162264151 17.2974268,0.0987735849 L15.9599236,1.29377358 C15.8312866,1.40877358 15.8402293,1.58773585 15.9799873,1.69367925 C16.0460255,1.74377358 16.1296051,1.76849057 16.2128408,1.76849057 C16.305707,1.76849057 16.3981146,1.73783019 16.4659873,1.67716981 L17.8034904,0.482169811 C17.9321274,0.367264151 17.9231847,0.188301887 17.7834268,0.0823584906 Z"></path>
                                        <path d="M13.079121,0.186415094 C11.1586242,0.186415094 9.60156688,1.42277892 9.60156688,2.9478245 C9.60156688,4.47298587 11.1586242,6 13.079121,6 C15.6933631,6 16.5567898,4.47298587 16.5567898,2.9478245 C16.5567898,0.525584304 14.9998471,0.186415094 13.079121,0.186415094 Z M13.079121,5.39866654 C11.5558854,5.39866654 10.3209936,4.18754644 10.3209936,2.9779317 C10.3209936,1.76831696 11.5558854,0.787748555 13.079121,0.787748555 C14.6024713,0.787748555 15.8373631,1.05674483 15.8373631,2.9779317 C15.8373631,4.18754644 15.1524459,5.39866654 13.079121,5.39866654 Z"></path>
                                    </g>
                                    <path d="M31.499948,21 C30.1192975,21 29,21.8506492 29,22.8999975 C29,23.9493458 30.1192975,25 31.499948,25 C33.3791957,25 34,23.9493458 34,22.8999975 C34,21.2333559 32.8807025,21 31.499948,21 Z" id="Shape" fill="#F4C4A4" fill-rule="nonzero"></path>
                                    <path d="M32.2616108,21 C32.047634,21 31.8408023,21.0260988 31.6445942,21.0738781 C30.6955186,21.3047599 30,22.0540214 30,22.9434355 C30,23.8313083 30.6930743,24.7193866 31.6394234,25 L33,21.0419225 C32.7684425,21.0105834 32.5202444,21 32.2616108,21 Z" id="Shape" fill="#F4CCB0" fill-rule="nonzero"></path>
                                    <path d="M33.4153084,21 L32,24.9096699 C32.2057635,24.9676233 32.4225779,25 32.6472161,25 C32.9327813,25 33.186954,24.9719875 33.4132547,24.9211388 C34.5887665,24.6569486 35,23.7673492 35,22.8783588 C35,21.5429956 34.3373321,21.1185456 33.4153084,21 Z" id="Shape" fill="#F4C4A4" fill-rule="nonzero"></path>
                                    <g transform="translate(27.000000, 23.000000)" id="Shape" fill-rule="nonzero" fill="#261D17">
                                        <path d="M2.92242857,0.0640909091 L0.0935357143,0.0640909091 C0.0676071429,0.0640909091 0.607071429,1.01109091 0.627964286,1.01109091 L2.65821429,1.011 C2.67932143,1.01090909 2.94867857,0.0640909091 2.92242857,0.0640909091 Z"></path>
                                        <path d="M2.47982143,1.02236364 C2.19932143,0.854545455 1.85925,0.689 1.497,0.689 C1.22089286,0.689 0.957964286,0.814909091 0.724285714,0.915272727 C0.357107143,1.07272727 0.356785714,1.92945455 0.356785714,1.92945455 C0.56625,1.55827273 1.01410714,1.31854545 1.497,1.31854545 C1.97989286,1.31854545 2.42764286,1.55836364 2.63721429,1.92945455 C2.63721429,1.92945455 2.74853571,1.18309091 2.47982143,1.02236364 Z"></path>
                                    </g>
                                    <g transform="translate(17.000000, 20.000000)" id="Shape" fill-rule="nonzero" fill="#F4B382">
                                        <path d="M1.43993939,0.00183870968 C0.459767677,0.141483871 -0.285757576,0.49316129 0.267171717,3.18783871 C0.82010101,5.88251613 1.50696465,6.00793548 2.48725253,5.86829032 L1.43993939,0.00183870968 Z"></path>
                                        <path d="M21.589798,0.00183870968 L20.5424848,5.86829032 C21.5226566,6.00793548 22.209404,5.8826129 22.7624495,3.18783871 C23.3156111,0.49316129 22.5699697,0.141483871 21.589798,0.00183870968 Z"></path>
                                    </g>
                                </g>
                            </g>
                        </g>
                    </g>
                </g>
                <path d="M32.5,65.5 L32.5,118.5" id="Line-2" stroke="#FFFFFF" opacity="0.5" stroke-linecap="square"></path>
            </g>
            <g id="1" transform="translate(1341.000000, 376.000000)">
                <g id="Oval">
                    <g id="path-19-link" fill="#19AAB9">
                        <circle id="path-19" cx="24" cy="24" r="24"></circle>
                    </g>
                    <circle stroke="#FFFFFF" stroke-width="2" cx="24" cy="24" r="23"></circle>
                </g>
                <g id="Oval" transform="translate(17.000000, 112.000000)">
                    <g id="path-20-link" fill-rule="nonzero" fill="#000000">
                        <circle id="path-20" cx="7" cy="7" r="7"></circle>
                    </g>
                    <g id="path-20-link" fill="#19C176">
                        <circle id="path-20" cx="7" cy="7" r="7"></circle>
                    </g>
                    <circle stroke="#FFFFFF" stroke-width="3" cx="7" cy="7" r="5.5"></circle>
                </g>
                <g id="Shape" transform="translate(5.000000, 5.000000)">
                    <g id="Mask" fill-rule="nonzero" fill="#006071">
                        <circle id="path-22" cx="19" cy="19" r="19"></circle>
                    </g>
                    <g id="user-(4)-Clipped">
                        <mask id="mask-13" fill="white">
                            <use xlink:href="#path-12"></use>
                        </mask>
                        <g id="path-22"></g>
                        <g id="user-(4)" mask="url(#mask-13)">
                            <g transform="translate(-6.000000, -3.000000)" id="Group">
                                <g>
                                    <path d="M24.5002963,0 C10.9691469,0 0,10.968292 0,24.5005926 C0,38.0308192 10.9691469,49 24.5002963,49 C38.0308531,49 49,38.0308192 49,24.5005926 C49,10.9681932 38.0308531,0 24.5002963,0 Z" id="Shape" fill="#4ABC96" fill-rule="nonzero"></path>
                                    <path d="M38.9994454,37.8497926 C38.2769434,35.1680686 32.0919033,33 24.4670961,33 C16.842289,33 10.7230566,35.1680686 10.0005546,37.8497926 C9.67853136,39.0450124 9.31263626,41.3094221 9,43.5049184 C13.2238503,46.9391847 18.6198889,49 24.5003952,49 C30.3805063,49 35.7762485,46.9391847 40,43.5050167 C39.6873637,41.3095204 39.3214686,39.0450124 38.9994454,37.8497926 Z" id="Shape" fill="#33333B" fill-rule="nonzero"></path>
                                    <polygon id="Shape" fill="#969899" fill-rule="nonzero" points="24.9748573 31 21 31.5646497 21.1871621 32.9806836 24.9706333 36 28.8128379 32.9806836 29 31.5646497"></polygon>
                                    <path d="M24.4769202,31 L21,32.9807485 C21,32.9807485 22.5535451,36 24.4730428,36 C26.3925406,36 28,32.9807485 28,32.9807485 L24.4769202,31 Z" id="Shape" fill="#7F3E09" fill-rule="nonzero"></path>
                                    <path d="M21.2416409,33.3445406 L21,33 C21,33 21.0705865,33.1439625 21.2416409,33.3445406 Z M27.8164565,33.2628643 C27.9444929,33.1061884 28,33.0000915 28,33.0000915 L27.8164565,33.2628643 Z M24.4731716,34.5854172 C22.583895,34.5854172 21.6393492,33.8108182 21.2416409,33.3445406 L24.5071234,38 L27.816364,33.2628643 C27.448537,33.7132274 26.4778104,34.5854172 24.4731716,34.5854172 Z" id="Shape" fill="#33333B" fill-rule="nonzero"></path>
                                    <path d="M29,28 L21,28 C22.2482386,31.6262672 21.1005914,33.2820128 21.1005914,33.2820128 L23.8686038,35 L26.1313962,35 L28.8994086,33.2821119 C28.8994086,33.2820128 27.7517614,31.6262672 29,28 Z" id="Shape" fill="#E5BA9C" fill-rule="nonzero"></path>
                                    <g transform="translate(19.000000, 32.000000)" id="Shape" fill-rule="nonzero" fill="#F3FAFF">
                                        <path d="M10.1226207,0.0265945946 L6.006,3.32389189 C6.006,3.32389189 9.52634483,3.97351351 9.54372414,3.95545946 L11.9735172,1.70724324 L10.1226207,0.0265945946 Z"></path>
                                        <path d="M1.89372414,0.0265945946 L0.0426206897,1.70735135 L2.47251724,3.95556757 C2.48989655,3.97362162 6.006,3.324 6.006,3.324 L1.89372414,0.0265945946 Z"></path>
                                    </g>
                                    <path d="M25.000102,6 C20.0295174,6 16,8.07854995 16,17.1548618 C16,20.22511 16.6312533,22.6308545 17.5768076,24.4875759 C19.6567822,28.5724024 23.2570677,30 25.000102,30 C26.7431362,30 30.3434218,28.5724024 32.4231924,24.4875759 C33.3686447,22.6308545 34,20.22511 34,17.1548618 C34,8.07854995 29.9704826,6 25.000102,6 Z" id="Shape" fill="#AF4B19" fill-rule="nonzero"></path>
                                    <path d="M25.0002039,6 C20.0625291,6 16.053339,8.07368794 16.0000001,17.0957447 C15.9996941,17.1565106 16.7707118,17.2176738 16.7707118,17.2790355 C16.7707118,20.383461 18.0311626,27 25.0002039,27 C31.9692453,27 33.2294921,20.383461 33.2294921,17.2790355 C33.2294921,17.209234 34.0004078,17.1398298 33.9999998,17.0708227 C33.9392159,8.0698156 29.9330854,6 25.0002039,6 Z" id="Shape" fill="#F9C5A2" fill-rule="nonzero"></path>
                                    <path d="M25.0001512,6 C25.0000504,6 25.0000504,6 25.0001512,6 L24.9999496,6 C19.4772103,6 15,8.04979049 15,17 C15,17 28.1150697,16.859687 28.1150697,13.6015001 C28.1150697,16.859687 35,17 35,17 C35.0001008,8.04979049 30.5229913,6 25.0001512,6 Z" id="Shape" fill="#AF4B19" fill-rule="nonzero"></path>
                                    <g transform="translate(15.000000, 18.000000)" id="Shape" fill-rule="nonzero" fill="#F9C5A2">
                                        <path d="M1.25212121,0.00183870968 C0.39979798,0.141483871 -0.248484848,0.49316129 0.232323232,3.18783871 C0.713131313,5.88251613 1.31040404,6.00793548 2.16282828,5.86829032 L1.25212121,0.00183870968 Z"></path>
                                        <path d="M18.7737374,0.00183870968 L17.8630303,5.86829032 C18.7153535,6.00793548 19.3125253,5.8826129 19.7934343,3.18783871 C20.2744444,0.49316129 19.6260606,0.141483871 18.7737374,0.00183870968 Z"></path>
                                    </g>
                                    <path d="M24.5,24 C22.1775762,24 21,24.7540856 21,26.2412451 C21,28.0679533 22.7990464,30 24.5,30 C26.2009536,30 28,28.0679533 28,26.2412451 C28,24.7540856 26.8224238,24 24.5,24 Z M24.5,28.8547237 C23.2579868,28.8547237 21.8422252,27.6465992 21.8422252,26.2970895 C21.8422252,25.9216809 21.8422252,24.7794864 24.5,24.7794864 C27.1577748,24.7794864 27.1577748,25.9217743 27.1577748,26.2970895 C27.1577748,27.6465992 25.7420132,28.8547237 24.5,28.8547237 Z" id="Shape" fill="#AF4B19" fill-rule="nonzero"></path>
                                </g>
                            </g>
                        </g>
                    </g>
                </g>
                <path d="M23.5,48.5 L23.5,112.5" id="Line-2" stroke="#FFFFFF" opacity="0.5" stroke-linecap="square"></path>
            </g>
            <g id="1" transform="translate(1933.000000, 300.000000)">
                <circle id="Oval" stroke="#FFFFFF" stroke-width="2" cx="23" cy="23" r="23"></circle>
                <g id="Oval" transform="translate(16.000000, 111.000000)">
                    <g id="path-24-link" fill-rule="nonzero" fill="#000000">
                        <circle id="path-24" cx="7" cy="7" r="7"></circle>
                    </g>
                    <g id="path-24-link" fill="#19C176">
                        <circle id="path-24" cx="7" cy="7" r="7"></circle>
                    </g>
                    <circle stroke="#FFFFFF" stroke-width="3" cx="7" cy="7" r="5.5"></circle>
                </g>
                <g id="Shape" transform="translate(4.000000, 4.000000)">
                    <g id="Mask" fill-rule="nonzero" fill="#006071">
                        <circle id="path-26" cx="19" cy="19" r="19"></circle>
                    </g>
                    <g id="user-(2)-Clipped">
                        <mask id="mask-15" fill="white">
                            <use xlink:href="#path-14"></use>
                        </mask>
                        <g id="path-26"></g>
                        <g id="user-(2)" mask="url(#mask-15)">
                            <g transform="translate(-7.000000, -6.000000)" id="Group">
                                <g>
                                    <path d="M26.0003144,0 C11.6407273,0 0,11.6398201 0,26.0006288 C0,40.3592367 11.6407273,52 26.0003144,52 C40.3592727,52 52,40.3592367 52,26.0006288 C52,11.6397152 40.3592727,0 26.0003144,0 Z" id="Shape" fill="#4ABC96" fill-rule="nonzero"></path>
                                    <polygon id="Shape" fill="#AF4B19" fill-rule="nonzero" points="26.5 11 16 18.1794567 16 43 37 43 37 18.1794567"></polygon>
                                    <path d="M40.9348935,40.1529047 C40.1657784,37.3035729 33.5817035,35 25.4649733,35 C17.3482431,35 10.8342216,37.3035729 10.0651065,40.1529047 C9.72230757,41.4228257 9.33280634,43.828761 9,46.1614758 C13.4963568,49.8103837 19.2405269,52 25.5004207,52 C31.7598938,52 37.5037484,49.8103837 42,46.1615803 C41.6671937,43.8288655 41.2776924,41.4228257 40.9348935,40.1529047 Z" id="Shape" fill="#F9C5A2" fill-rule="nonzero"></path>
                                    <path d="M34.3114704,35.9068421 C31.9200436,35.3348694 29.0734696,35 26.0054246,35 C22.9879748,35 20.1938736,35.3236931 17.8395846,35.8784315 C17.3522026,38.1456413 15.5873204,46.3863944 15,49.5280666 C18.3487695,51.1124813 22.0909289,52 26.0405804,52 C29.95831,52 33.6718858,51.1272088 37,49.5667134 L34.3114704,35.9068421 Z" id="Shape" fill="#33333B" fill-rule="nonzero"></path>
                                    <path d="M30,29 L22,29 C23.2482386,32.6984349 22.1005914,34.3871321 22.1005914,34.3871321 L24.8686038,35 L27.1313962,35 L29.8994086,34.3872332 C29.8994086,34.3871321 28.7517614,32.6984349 30,29 Z" id="Shape" fill="#E5BA9C" fill-rule="nonzero"></path>
                                    <path d="M26.5001066,6 C21.8056186,6 18,8.25176244 18,18.0844336 C18,21.4105358 18.5963099,24.0167591 19.4892292,26.0282073 C21.4536945,30.4534359 24.8538864,32 26.5001066,32 C28.1463268,32 31.5465186,30.4534359 33.5108773,26.0282073 C34.4036901,24.0167591 35,21.4105358 35,18.0844336 C35,8.25176244 31.1943814,6 26.5001066,6 Z" id="Shape" fill="#F9C5A2" fill-rule="nonzero"></path>
                                    <path d="M26.6591111,27.0057209 C26.329,26.9495386 25.5,27.3256656 25.5,27.3256656 C25.5,27.3256656 24.6593333,26.9505625 24.3265556,27.0082805 C23.7934444,27.1006805 23,28.1540663 23,28.3281162 C23,28.3281162 24.1193333,29 25.5,29 C26.8806667,29 28,28.3281162 28,28.3281162 C28,28.3281162 27.2003333,27.097865 26.6591111,27.0057209 Z" id="Shape" fill="#E24444" fill-rule="nonzero"></path>
                                    <path d="M26.1807778,28.0007011 C25.964,27.9842916 25.6851111,28.2613773 25.5,28.2613773 C25.2861111,28.2613773 24.9656667,27.9874172 24.7194444,28.0086714 C23.2583333,28.1352588 23,28.5739387 23,28.5739387 C23,28.5739387 24.1193333,30 25.5,30 C26.8806667,30 28,28.5739387 28,28.5739387 C28,28.5739387 27.6981111,28.1152548 26.1807778,28.0007011 Z" id="Shape" fill="#D33D3D" fill-rule="nonzero"></path>
                                    <g transform="translate(22.000000, 33.000000)" id="Shape" fill-rule="nonzero" fill="#E5BA9C">
                                        <path d="M7.88830769,2.07061333 C7.88830769,2.07061333 6.97394872,3.91946667 3.97825641,3.91946667 C0.982461538,3.91946667 0.127692308,2.07061333 0.127692308,2.07061333 C0.127692308,2.07061333 -0.591794872,7.90176 4.01589744,7.90176 C8.62348718,7.90176 7.88830769,2.07061333 7.88830769,2.07061333 Z"></path>
                                        <path d="M3.98246154,0.10624 L0.119692308,2.07072 C0.119692308,2.07072 1.84564103,5.06517333 3.97815385,5.06517333 C6.11066667,5.06517333 7.89651282,2.07072 7.89651282,2.07072 L3.98246154,0.10624 Z"></path>
                                    </g>
                                    <path d="M26.5001587,6 C26.5000529,6 26.5000529,6 26.5001587,6 L26.4999471,6 C20.7010708,6 16,8.23613508 16,18 C16,18 29.7708231,17.8469312 29.7708231,14.2925455 C29.7708231,17.8469312 37,18 37,18 C37.0001058,8.23613508 32.2991408,6 26.5001587,6 Z" id="Shape" fill="#AF4B19" fill-rule="nonzero"></path>
                                    <g transform="translate(17.000000, 19.000000)" id="Shape" fill-rule="nonzero" fill="#F9C5A2">
                                        <path d="M1.14275978,0.101263158 C0.33350838,0.238526316 -0.282027933,0.584105263 0.174502793,3.23242105 C0.63124581,5.88073684 1.19827374,6.00389474 2.00741899,5.86663158 L1.14275978,0.101263158 Z"></path>
                                        <path d="M17.7783743,0.101263158 L16.9137151,5.86663158 C17.7230726,6.00389474 18.2901006,5.88073684 18.7466313,3.23242105 C19.203162,0.584105263 18.5875196,0.238526316 17.7783743,0.101263158 Z"></path>
                                    </g>
                                    <g transform="translate(17.000000, 18.000000)" id="Shape" fill-rule="nonzero" fill="#AF4B19">
                                        <path d="M1.68075281,1.30652632 C1.56952809,0.613578947 1.68790449,0.0609473684 1.68790449,0.0609473684 L0.0881685393,0.65 C0.0881685393,0.65 1.07584831,0.780210526 1.43172472,1.90305263 C1.43172472,1.90305263 1.82261236,2.19021053 1.68075281,1.30652632 Z"></path>
                                        <path d="M17.3330169,0.0609473684 C17.3330169,0.0609473684 17.4513933,0.613578947 17.3401685,1.30652632 C17.1984157,2.19010526 17.5893034,1.90305263 17.5893034,1.90305263 C17.945073,0.780210526 18.9327528,0.65 18.9327528,0.65 L17.3330169,0.0609473684 Z"></path>
                                    </g>
                                </g>
                            </g>
                        </g>
                    </g>
                </g>
                <path d="M22.5,47.5 L22.5,111.5" id="Line-2" stroke="#FFFFFF" opacity="0.5" stroke-linecap="square"></path>
            </g>
            <g id="1" transform="translate(1282.000000, 367.000000)">
                <g id="Oval">
                    <g id="path-28-link" fill="#97D3DE">
                        <circle id="path-28" cx="13" cy="13" r="13"></circle>
                    </g>
                    <circle stroke="#FFFFFF" stroke-width="2" cx="13" cy="13" r="12"></circle>
                </g>
                <g id="Oval" transform="translate(6.000000, 89.000000)">
                    <g id="path-29-link" fill-rule="nonzero" fill="#000000">
                        <circle id="path-29" cx="7" cy="7" r="7"></circle>
                    </g>
                    <g id="path-29-link" fill="#19C176">
                        <circle id="path-29" cx="7" cy="7" r="7"></circle>
                    </g>
                    <circle stroke="#FFFFFF" stroke-width="3" cx="7" cy="7" r="5.5"></circle>
                </g>
                <path d="M12.5,25.5 L12.5,89.5" id="Line-2" stroke="#FFFFFF" opacity="0.5" stroke-linecap="square"></path>
            </g>
            <g id="1" transform="translate(2144.000000, 255.000000)">
                <g id="Oval">
                    <g id="path-31-link" fill="#97D3DE">
                        <circle id="path-31" cx="13" cy="13" r="13"></circle>
                    </g>
                    <circle stroke="#FFFFFF" stroke-width="2" cx="13" cy="13" r="12"></circle>
                </g>
                <g id="Oval" transform="translate(6.000000, 113.000000)">
                    <g id="path-32-link" fill-rule="nonzero" fill="#000000">
                        <circle id="path-32" cx="7" cy="7" r="7"></circle>
                    </g>
                    <g id="path-32-link" fill="#19C176">
                        <circle id="path-32" cx="7" cy="7" r="7"></circle>
                    </g>
                    <circle stroke="#FFFFFF" stroke-width="3" cx="7" cy="7" r="5.5"></circle>
                </g>
                <path d="M12.5,25.5 L12.5,114.5" id="Line-2" stroke="#FFFFFF" opacity="0.5" stroke-linecap="square"></path>
            </g>
            <g id="?" transform="translate(1569.000000, 418.000000)">
                <g id="Shape">
                    <g id="Mask" fill-rule="nonzero" fill="url(#linearGradient-16)">
                        <circle id="path-35" cx="16" cy="16" r="16"></circle>
                    </g>
                    <g id="?-Clipped">
                        <mask id="mask-18" fill="white">
                            <use xlink:href="#path-17"></use>
                        </mask>
                        <g id="path-35"></g>
                        <path d="M11.528,13.456 L14.384,13.48 C14.432,11.968 15.176,11.224 16.52,11.224 C17.72,11.224 18.44,11.752 18.44,12.904 C18.44,15.424 14.96,15.568 14.96,19.336 L17.72,19.336 C17.72,16.36 21.896,16 21.896,12.328 C21.896,9.64 19.928,8.176 16.832,8.176 C13.592,8.176 11.576,10.12 11.528,13.456 Z M16.28,21.4 C15.224,21.4 14.432,22.168 14.432,23.296 C14.432,24.4 15.224,25.216 16.28,25.216 C17.36,25.216 18.128,24.4 18.128,23.296 C18.128,22.168 17.36,21.4 16.28,21.4 Z" id="?" fill="#1F98AD" fill-rule="nonzero" mask="url(#mask-18)"></path>
                    </g>
                </g>
                <path d="M16.5,32.5 L16.5,77.5" id="Line-2" stroke="#FFFFFF" opacity="0.5" stroke-linecap="square"></path>
            </g>
            <g id="?" transform="translate(1029.000000, 405.000000)">
                <g id="Shape" fill-rule="nonzero" fill="url(#linearGradient-16)">
                    <g id="Mask">
                        <circle id="path-37" cx="16" cy="16" r="16"></circle>
                    </g>
                </g>
                <path d="M16.5,31.5 L16.5,93.5" id="Line-2" stroke="#FFFFFF" opacity="0.5" stroke-linecap="square"></path>
            </g>
            <g id="?" transform="translate(1983.000000, 335.000000)">
                <g id="Shape">
                    <g id="Mask" opacity="0.599999964" fill-rule="nonzero" fill="url(#linearGradient-16)">
                        <circle id="path-39" cx="16" cy="16" r="16"></circle>
                    </g>
                    <g id="?-Clipped">
                        <mask id="mask-20" fill="white">
                            <use xlink:href="#path-19"></use>
                        </mask>
                        <g id="path-39"></g>
                        <path d="M11.528,13.456 L14.384,13.48 C14.432,11.968 15.176,11.224 16.52,11.224 C17.72,11.224 18.44,11.752 18.44,12.904 C18.44,15.424 14.96,15.568 14.96,19.336 L17.72,19.336 C17.72,16.36 21.896,16 21.896,12.328 C21.896,9.64 19.928,8.176 16.832,8.176 C13.592,8.176 11.576,10.12 11.528,13.456 Z M16.28,21.4 C15.224,21.4 14.432,22.168 14.432,23.296 C14.432,24.4 15.224,25.216 16.28,25.216 C17.36,25.216 18.128,24.4 18.128,23.296 C18.128,22.168 17.36,21.4 16.28,21.4 Z" id="?" fill="#1F98AD" fill-rule="nonzero" mask="url(#mask-20)"></path>
                    </g>
                </g>
                <path d="M16.5,32.5 L16.5,102.5" id="Line-2" stroke="#FFFFFF" opacity="0.5" stroke-linecap="square"></path>
            </g>
            <g id="?" transform="translate(2322.000000, 221.000000)">
                <g id="Shape">
                    <g id="Mask" fill-rule="nonzero" fill="url(#linearGradient-16)">
                        <circle id="path-41" cx="21" cy="21" r="21"></circle>
                    </g>
                    <g id="?-Clipped">
                        <mask id="mask-22" fill="white">
                            <use xlink:href="#path-21"></use>
                        </mask>
                        <g id="path-41"></g>
                        <path d="M14.66,17.57 L18.23,17.6 C18.29,15.71 19.22,14.78 20.9,14.78 C22.4,14.78 23.3,15.44 23.3,16.88 C23.3,20.03 18.95,20.21 18.95,24.92 L22.4,24.92 C22.4,21.2 27.62,20.75 27.62,16.16 C27.62,12.8 25.16,10.97 21.29,10.97 C17.24,10.97 14.72,13.4 14.66,17.57 Z M20.6,27.5 C19.28,27.5 18.29,28.46 18.29,29.87 C18.29,31.25 19.28,32.27 20.6,32.27 C21.95,32.27 22.91,31.25 22.91,29.87 C22.91,28.46 21.95,27.5 20.6,27.5 Z" id="?" fill="#1F98AD" fill-rule="nonzero" mask="url(#mask-22)"></path>
                    </g>
                </g>
                <path d="M21.5,38.5 L21.5,117.5" id="Line-2" stroke="#FFFFFF" opacity="0.5" stroke-linecap="square"></path>
            </g>
            <g id="доход" transform="translate(2212.000000, 115.000000)">
                <rect id="Rectangle-2" fill="#4ABC96" fill-rule="nonzero" x="0" y="0" width="133" height="34" rx="4"></rect>
                <g id="Доход-+30-490-₽" transform="translate(12.000000, 7.000000)" font-size="14" fill="#FFFFFF" font-weight="normal">
                    <text id="Доход-+30-490" font-family="Roboto-Regular, Roboto">
                        <tspan x="0" y="15">Доход +30 490</tspan>
                    </text>
                    <text id="₽" font-family=".HelveticaNeueDeskInterface-Regular, .Helvetica Neue DeskInterface">
                        <tspan x="100.378906" y="15">₽</tspan>
                    </text>
                </g>
            </g>
            <g id="доход" transform="translate(2074.000000, 193.000000)">
                <rect id="Rectangle-2" fill="#4ABC96" fill-rule="nonzero" x="0" y="0" width="125" height="34" rx="4"></rect>
                <g id="Доход-+5-500-₽" transform="translate(12.000000, 7.000000)" font-size="14" fill="#FFFFFF" font-weight="normal">
                    <text id="Доход-+5-500" font-family="Roboto-Regular, Roboto">
                        <tspan x="0" y="15">Доход +5 500</tspan>
                    </text>
                    <text id="₽" font-family=".HelveticaNeueDeskInterface-Regular, .Helvetica Neue DeskInterface">
                        <tspan x="92.49707" y="15">₽</tspan>
                    </text>
                </g>
            </g>
            <g id="расход" transform="translate(2212.000000, 76.000000)">
                <rect id="Rectangle-2" fill="#F46060" fill-rule="nonzero" x="0" y="0" width="128" height="34" rx="4"></rect>
                <g id="Расход--2-000-₽" transform="translate(12.000000, 7.000000)" font-size="14" fill="#FFFFFF" font-weight="normal">
                    <text id="Расход--2-000" font-family="Roboto-Regular, Roboto">
                        <tspan x="0" y="15">Расход -2 000</tspan>
                    </text>
                    <text id="₽" font-family=".HelveticaNeueDeskInterface-Regular, .Helvetica Neue DeskInterface">
                        <tspan x="96.06543" y="15">₽</tspan>
                    </text>
                </g>
            </g>
            <g id="расход" transform="translate(1734.000000, 293.000000)">
                <rect id="Rectangle-2" fill="#F46060" fill-rule="nonzero" x="0" y="0" width="128" height="34" rx="4"></rect>
                <g id="Расход--2-000-₽" transform="translate(12.000000, 7.000000)" font-size="14" fill="#FFFFFF" font-weight="normal">
                    <text id="Расход--2-000" font-family="Roboto-Regular, Roboto">
                        <tspan x="0" y="15">Расход -2 000</tspan>
                    </text>
                    <text id="₽" font-family=".HelveticaNeueDeskInterface-Regular, .Helvetica Neue DeskInterface">
                        <tspan x="96.06543" y="15">₽</tspan>
                    </text>
                </g>
            </g>
        </g>
    </g>
</svg>