<?xml version="1.0" encoding="UTF-8"?> <svg xmlns="http://www.w3.org/2000/svg" width="40" height="49" viewBox="0 0 40 49" fill="none"> <path d="M33.5156 6.875H25.7812V3.4375C25.7812 2.75374 25.5096 2.09798 25.0261 1.61449C24.5426 1.131 23.8869 0.859375 23.2031 0.859375H16.3281C15.6444 0.859375 14.9886 1.131 14.5051 1.61449C14.0216 2.09798 13.75 2.75374 13.75 3.4375V6.875H6.01562C5.33186 6.875 4.67611 7.14662 4.19262 7.63012C3.70912 8.11361 3.4375 8.76936 3.4375 9.45312V42.1094C3.4375 42.7931 3.70912 43.4489 4.19262 43.9324C4.67611 44.4159 5.33186 44.6875 6.01562 44.6875H33.5156C34.1994 44.6875 34.8551 44.4159 35.3386 43.9324C35.8221 43.4489 36.0938 42.7931 36.0938 42.1094V9.45312C36.0938 8.76936 35.8221 8.11361 35.3386 7.63012C34.8551 7.14662 34.1994 6.875 33.5156 6.875ZM15.4688 3.4375C15.4688 3.20958 15.5593 2.99099 15.7205 2.82983C15.8816 2.66867 16.1002 2.57813 16.3281 2.57812H23.2031C23.431 2.57813 23.6496 2.66867 23.8108 2.82983C23.972 2.99099 24.0625 3.20958 24.0625 3.4375V6.875H15.4688V3.4375ZM34.375 42.1094C34.375 42.3373 34.2845 42.5559 34.1233 42.717C33.9621 42.8782 33.7435 42.9688 33.5156 42.9688H6.01562C5.7877 42.9688 5.56912 42.8782 5.40796 42.717C5.24679 42.5559 5.15625 42.3373 5.15625 42.1094V9.45312C5.15625 9.2252 5.24679 9.00662 5.40796 8.84546C5.56912 8.68429 5.7877 8.59375 6.01562 8.59375H33.5156C33.7435 8.59375 33.9621 8.68429 34.1233 8.84546C34.2845 9.00662 34.375 9.2252 34.375 9.45312V42.1094Z" fill="#2C9FB9"></path> <path d="M14.7975 23.5254L11.9616 27.0729L10.0623 25.1737C9.90027 25.0171 9.68319 24.9305 9.45786 24.9325C9.23254 24.9344 9.017 25.0248 8.85766 25.1842C8.69833 25.3435 8.60795 25.559 8.60599 25.7844C8.60403 26.0097 8.69065 26.2268 8.84719 26.3888L11.4253 28.967C11.5108 29.0524 11.6133 29.1189 11.7262 29.1621C11.839 29.2053 11.9598 29.2242 12.0804 29.2175C12.2011 29.2109 12.319 29.1789 12.4265 29.1235C12.534 29.0682 12.6285 28.9908 12.7041 28.8965L16.1416 24.5996C16.284 24.4216 16.3499 24.1943 16.3248 23.9677C16.2996 23.7411 16.1855 23.5338 16.0075 23.3913C15.8295 23.2489 15.6022 23.183 15.3756 23.2081C15.149 23.2333 14.9417 23.3474 14.7992 23.5254H14.7975Z" fill="#2C9FB9"></path> <path d="M14.7975 14.9316L11.9616 18.4791L10.0623 16.5799C9.90027 16.4234 9.68319 16.3368 9.45786 16.3387C9.23254 16.3407 9.017 16.4311 8.85766 16.5904C8.69833 16.7497 8.60795 16.9653 8.60599 17.1906C8.60403 17.4159 8.69065 17.633 8.84719 17.7951L11.4253 20.3732C11.5108 20.4587 11.6133 20.5252 11.7262 20.5684C11.839 20.6116 11.9598 20.6304 12.0804 20.6238C12.2011 20.6171 12.319 20.5851 12.4265 20.5298C12.534 20.4745 12.6285 20.3971 12.7041 20.3027L16.1416 16.0059C16.2121 15.9177 16.2646 15.8166 16.296 15.7081C16.3274 15.5997 16.3372 15.4862 16.3248 15.374C16.3123 15.2618 16.2779 15.1531 16.2235 15.0542C16.169 14.9553 16.0956 14.8681 16.0075 14.7976C15.9194 14.7271 15.8182 14.6746 15.7098 14.6431C15.6013 14.6117 15.4878 14.6019 15.3756 14.6144C15.2634 14.6268 15.1547 14.6612 15.0559 14.7157C14.957 14.7701 14.8698 14.8435 14.7992 14.9316H14.7975Z" fill="#2C9FB9"></path> <path d="M30.0781 24.9219H19.7656C19.5377 24.9219 19.3191 25.0124 19.158 25.1736C18.9968 25.3347 18.9062 25.5533 18.9062 25.7812C18.9062 26.0092 18.9968 26.2278 19.158 26.3889C19.3191 26.5501 19.5377 26.6406 19.7656 26.6406H30.0781C30.306 26.6406 30.5246 26.5501 30.6858 26.3889C30.847 26.2278 30.9375 26.0092 30.9375 25.7812C30.9375 25.5533 30.847 25.3347 30.6858 25.1736C30.5246 25.0124 30.306 24.9219 30.0781 24.9219Z" fill="#2C9FB9"></path> <path d="M14.7975 32.5254L11.9616 36.0729L10.0623 34.1737C9.90027 34.0171 9.68319 33.9305 9.45786 33.9325C9.23254 33.9344 9.017 34.0248 8.85766 34.1842C8.69833 34.3435 8.60795 34.559 8.60599 34.7844C8.60403 35.0097 8.69065 35.2268 8.84719 35.3888L11.4253 37.967C11.5108 38.0524 11.6133 38.1189 11.7262 38.1621C11.839 38.2053 11.9598 38.2242 12.0804 38.2175C12.2011 38.2109 12.319 38.1789 12.4265 38.1235C12.534 38.0682 12.6285 37.9908 12.7041 37.8965L16.1416 33.5996C16.284 33.4216 16.3499 33.1943 16.3248 32.9677C16.2996 32.7411 16.1855 32.5338 16.0075 32.3913C15.8295 32.2489 15.6022 32.183 15.3756 32.2081C15.149 32.2333 14.9417 32.3474 14.7992 32.5254H14.7975Z" fill="#2C9FB9"></path> <path d="M30.0781 33.9219H19.7656C19.5377 33.9219 19.3191 34.0124 19.158 34.1736C18.9968 34.3347 18.9062 34.5533 18.9062 34.7812C18.9062 35.0092 18.9968 35.2278 19.158 35.3889C19.3191 35.5501 19.5377 35.6406 19.7656 35.6406H30.0781C30.306 35.6406 30.5246 35.5501 30.6858 35.3889C30.847 35.2278 30.9375 35.0092 30.9375 34.7812C30.9375 34.5533 30.847 34.3347 30.6858 34.1736C30.5246 34.0124 30.306 33.9219 30.0781 33.9219Z" fill="#2C9FB9"></path> <path d="M30.0781 16.3281H19.7656C19.5377 16.3281 19.3191 16.4187 19.158 16.5798C18.9968 16.741 18.9062 16.9596 18.9062 17.1875C18.9062 17.4154 18.9968 17.634 19.158 17.7952C19.3191 17.9563 19.5377 18.0469 19.7656 18.0469H30.0781C30.306 18.0469 30.5246 17.9563 30.6858 17.7952C30.847 17.634 30.9375 17.4154 30.9375 17.1875C30.9375 16.9596 30.847 16.741 30.6858 16.5798C30.5246 16.4187 30.306 16.3281 30.0781 16.3281Z" fill="#2C9FB9"></path> </svg> 