<?xml version="1.0" encoding="UTF-8"?> <svg xmlns="http://www.w3.org/2000/svg" width="176" height="176" viewBox="0 0 176 176" fill="none"> <g opacity="0.7" filter="url(#filter0_b)"> <circle cx="88" cy="88" r="88" fill="white"></circle> </g> <circle cx="88" cy="88" r="82" stroke="#E0E0E0" stroke-linecap="round" stroke-dasharray="2 4"></circle> <g clip-path="url(#clip0)"> <path d="M92.921 40.4641C100.59 40.3469 106.849 46.3829 106.998 54.0512C107.02 55.1771 106.907 56.2729 106.675 57.3241C106.283 59.1039 106.049 60.9151 106.049 62.7377V66.2608C106.049 66.8006 105.612 67.2381 105.072 67.2381H101.549C99.7262 67.2381 97.915 67.4715 96.1352 67.8641C95.0841 68.0959 93.9882 68.2085 92.8624 68.1867C85.1941 68.0383 79.1581 61.7791 79.2751 54.1104C79.3892 46.625 85.4357 40.5784 92.921 40.4641Z" fill="url(#paint0_linear)"></path> <path d="M92.921 40.4641C100.59 40.3469 106.849 46.3829 106.998 54.0512C107.02 55.1771 106.907 56.2729 106.675 57.3241C106.283 59.1039 106.049 60.9151 106.049 62.7377V66.2608C106.049 66.8006 105.612 67.2381 105.072 67.2381H101.549C99.7262 67.2381 97.915 67.4715 96.1352 67.8641C95.0841 68.0959 93.9882 68.2085 92.8624 68.1867C85.1941 68.0383 79.1581 61.7791 79.2751 54.1104C79.3892 46.625 85.4357 40.5784 92.921 40.4641Z" fill="#B7E3E9"></path> <path d="M82.1526 27.8128C72.8097 27.6701 65.1842 35.0234 65.0032 44.3656C64.9767 45.7371 65.1138 47.0723 65.3963 48.3528C65.8746 50.5211 66.1589 52.7276 66.1589 54.9481V59.2402C66.1589 59.8977 66.6919 60.4309 67.3496 60.4309H71.6416C73.862 60.4309 76.0686 60.7152 78.2369 61.1934C79.5174 61.4759 80.8525 61.613 82.224 61.5864C91.566 61.4056 98.9194 53.7803 98.777 44.4376C98.6379 35.3184 91.2716 27.952 82.1526 27.8128Z" fill="#FF533C"></path> <path d="M73.9398 48.2015C75.3846 48.2015 76.5558 47.0302 76.5558 45.5854C76.5558 44.1406 75.3846 42.9694 73.9398 42.9694C72.495 42.9694 71.3237 44.1406 71.3237 45.5854C71.3237 47.0302 72.495 48.2015 73.9398 48.2015Z" fill="white"></path> <path d="M81.3387 48.2015C82.7835 48.2015 83.9548 47.0302 83.9548 45.5854C83.9548 44.1406 82.7835 42.9694 81.3387 42.9694C79.8939 42.9694 78.7227 44.1406 78.7227 45.5854C78.7227 47.0302 79.8939 48.2015 81.3387 48.2015Z" fill="white"></path> <path d="M88.7371 48.2015C90.182 48.2015 91.3532 47.0302 91.3532 45.5854C91.3532 44.1406 90.182 42.9694 88.7371 42.9694C87.2923 42.9694 86.1211 44.1406 86.1211 45.5854C86.1211 47.0302 87.2923 48.2015 88.7371 48.2015Z" fill="white"></path> </g> <path d="M34.2486 85.172C34.678 85.172 35.0466 85.186 35.3546 85.214C35.672 85.2327 35.9613 85.2653 36.2226 85.312C36.484 85.3493 36.7546 85.4053 37.0346 85.48L36.8806 86.782C36.5913 86.7633 36.3206 86.7493 36.0686 86.74C35.8166 86.7213 35.546 86.7073 35.2566 86.698C34.9766 86.6887 34.6406 86.684 34.2486 86.684C33.7073 86.684 33.2826 86.7913 32.9746 87.006C32.6666 87.2207 32.4473 87.58 32.3166 88.084C32.1953 88.588 32.1346 89.2833 32.1346 90.17C32.1346 91.0567 32.1953 91.752 32.3166 92.256C32.4473 92.76 32.6666 93.1193 32.9746 93.334C33.2826 93.5487 33.7073 93.656 34.2486 93.656C34.874 93.656 35.3966 93.6467 35.8166 93.628C36.246 93.6 36.666 93.5627 37.0766 93.516L37.2306 94.804C36.8013 94.9347 36.3626 95.028 35.9146 95.084C35.4666 95.14 34.9113 95.168 34.2486 95.168C33.278 95.168 32.5033 95.0093 31.9246 94.692C31.346 94.3653 30.926 93.838 30.6646 93.11C30.4126 92.382 30.2866 91.402 30.2866 90.17C30.2866 88.938 30.4126 87.958 30.6646 87.23C30.926 86.502 31.346 85.9793 31.9246 85.662C32.5033 85.3353 33.278 85.172 34.2486 85.172Z" fill="#4C6073"></path> <path d="M42.5619 88.126V90.016C42.5619 90.296 42.5339 90.5713 42.4779 90.842H43.2059C43.6072 90.842 43.9246 90.7533 44.1579 90.576C44.3912 90.3987 44.5919 90.114 44.7599 89.722C44.9279 89.3207 45.1192 88.7887 45.3339 88.126H47.0699C46.8646 88.7233 46.6826 89.2227 46.5239 89.624C46.3746 90.016 46.2159 90.338 46.0479 90.59C45.8892 90.8327 45.6886 91.0193 45.4459 91.15C45.2126 91.2713 44.9092 91.3553 44.5359 91.402V91.458C44.9279 91.4953 45.2499 91.5793 45.5019 91.71C45.7539 91.8313 45.9686 92.0227 46.1459 92.284C46.3326 92.536 46.5099 92.8813 46.6779 93.32C46.8459 93.7587 47.0466 94.3187 47.2799 95H45.5019C45.2966 94.3933 45.1192 93.8987 44.9699 93.516C44.8206 93.124 44.6712 92.8207 44.5219 92.606C44.3726 92.3913 44.1952 92.242 43.9899 92.158C43.7846 92.074 43.5279 92.032 43.2199 92.032H42.4919C42.5386 92.2653 42.5619 92.4753 42.5619 92.662V95H40.8679V88.126H42.5619Z" fill="#4C6073"></path> <path d="M51.2398 87.958C52.0705 87.958 52.7331 88.0747 53.2278 88.308C53.7318 88.5413 54.0911 88.924 54.3058 89.456C54.5298 89.988 54.6418 90.6927 54.6418 91.57C54.6418 92.4473 54.5298 93.152 54.3058 93.684C54.0911 94.216 53.7318 94.5987 53.2278 94.832C52.7331 95.0653 52.0705 95.182 51.2398 95.182C50.3998 95.182 49.7278 95.0653 49.2238 94.832C48.7291 94.5987 48.3698 94.216 48.1458 93.684C47.9218 93.152 47.8098 92.4473 47.8098 91.57C47.8098 90.6927 47.9218 89.988 48.1458 89.456C48.3698 88.924 48.7291 88.5413 49.2238 88.308C49.7278 88.0747 50.3998 87.958 51.2398 87.958ZM51.2398 89.246C50.8198 89.246 50.4885 89.316 50.2458 89.456C50.0031 89.5867 49.8305 89.82 49.7278 90.156C49.6345 90.492 49.5878 90.9633 49.5878 91.57C49.5878 92.1767 49.6345 92.648 49.7278 92.984C49.8305 93.32 50.0031 93.5533 50.2458 93.684C50.4885 93.8147 50.8198 93.88 51.2398 93.88C51.6505 93.88 51.9725 93.8147 52.2058 93.684C52.4485 93.5533 52.6165 93.32 52.7098 92.984C52.8125 92.648 52.8638 92.1767 52.8638 91.57C52.8638 90.9633 52.8125 90.492 52.7098 90.156C52.6165 89.82 52.4485 89.5867 52.2058 89.456C51.9725 89.316 51.6505 89.246 51.2398 89.246Z" fill="#4C6073"></path> <path d="M63.9659 88.126C64.3672 88.126 64.5679 88.3313 64.5679 88.742L64.8199 95H63.2659L63.0279 89.386H62.8179L61.4179 93.642C61.3246 93.9967 61.1052 94.174 60.7599 94.174H59.7659C59.4206 94.174 59.2012 93.9967 59.1079 93.642L57.7079 89.386H57.4979L57.2879 95H55.7479L55.9859 88.742C55.9859 88.3313 56.1912 88.126 56.6019 88.126H58.1699C58.5246 88.126 58.7392 88.308 58.8139 88.672L59.9339 92.088C59.9899 92.2653 60.0366 92.4333 60.0739 92.592C60.1112 92.7507 60.1439 92.9187 60.1719 93.096H60.3539C60.4006 92.9187 60.4379 92.7507 60.4659 92.592C60.5032 92.424 60.5452 92.256 60.5919 92.088L61.7119 88.672C61.7959 88.308 62.0152 88.126 62.3699 88.126H63.9659Z" fill="#4C6073"></path> <path d="M74.3057 88.126C74.707 88.126 74.9077 88.3313 74.9077 88.742L75.1597 95H73.6057L73.3677 89.386H73.1577L71.7577 93.642C71.6643 93.9967 71.445 94.174 71.0997 94.174H70.1057C69.7603 94.174 69.541 93.9967 69.4477 93.642L68.0477 89.386H67.8377L67.6277 95H66.0877L66.3257 88.742C66.3257 88.3313 66.531 88.126 66.9417 88.126H68.5097C68.8643 88.126 69.079 88.308 69.1537 88.672L70.2737 92.088C70.3297 92.2653 70.3763 92.4333 70.4137 92.592C70.451 92.7507 70.4837 92.9187 70.5117 93.096H70.6937C70.7403 92.9187 70.7777 92.7507 70.8057 92.592C70.843 92.424 70.885 92.256 70.9317 92.088L72.0517 88.672C72.1357 88.308 72.355 88.126 72.7097 88.126H74.3057Z" fill="#4C6073"></path> <path d="M79.5781 87.958C80.6888 87.958 81.4868 88.154 81.9721 88.546C82.4574 88.9287 82.7048 89.498 82.7141 90.254C82.7141 90.8793 82.5648 91.3553 82.2661 91.682C81.9768 91.9993 81.4821 92.158 80.7821 92.158H77.9961C78.0614 92.8207 78.2388 93.2593 78.5281 93.474C78.8174 93.6887 79.2654 93.796 79.8721 93.796C80.2174 93.796 80.6141 93.782 81.0621 93.754C81.5194 93.726 81.9581 93.6887 82.3781 93.642L82.5461 94.72C82.2941 94.8227 82.0048 94.9113 81.6781 94.986C81.3514 95.0513 81.0108 95.098 80.6561 95.126C80.3014 95.154 79.9701 95.168 79.6621 95.168C78.4114 95.168 77.5201 94.888 76.9881 94.328C76.4654 93.7587 76.2041 92.8393 76.2041 91.57C76.2041 90.6647 76.3161 89.9507 76.5401 89.428C76.7734 88.896 77.1374 88.518 77.6321 88.294C78.1268 88.07 78.7754 87.958 79.5781 87.958ZM79.6341 89.218C79.2328 89.218 78.9108 89.2693 78.6681 89.372C78.4348 89.4747 78.2621 89.666 78.1501 89.946C78.0474 90.2167 77.9914 90.604 77.9821 91.108H80.3201C80.6281 91.108 80.8241 91.024 80.9081 90.856C81.0014 90.688 81.0481 90.4827 81.0481 90.24C81.0481 89.8667 80.9408 89.6053 80.7261 89.456C80.5114 89.2973 80.1474 89.218 79.6341 89.218Z" fill="#4C6073"></path> <path d="M85.5377 88.126V90.772H88.5897V88.126H90.2557V95H88.5897V91.962H85.5377V95H83.8577V88.126H85.5377Z" fill="#4C6073"></path> <path d="M97.5459 88.126V89.456H95.1799V95H93.4859V89.456H91.1059V88.126H97.5459Z" fill="#4C6073"></path> <path d="M101.871 87.958C102.692 87.958 103.317 88.1307 103.747 88.476C104.185 88.812 104.405 89.4327 104.405 90.338V95H103.061L102.879 93.88C102.711 94.076 102.496 94.272 102.235 94.468C101.973 94.6547 101.67 94.8133 101.325 94.944C100.989 95.0747 100.611 95.14 100.191 95.14C99.5653 95.14 99.0519 94.9767 98.6506 94.65C98.2493 94.3233 98.0486 93.8473 98.0486 93.222V92.494C98.0486 91.9527 98.2259 91.5327 98.5806 91.234C98.9353 90.926 99.4299 90.772 100.065 90.772H102.711V90.324C102.701 89.96 102.613 89.6987 102.445 89.54C102.277 89.372 101.959 89.288 101.493 89.288C101.129 89.288 100.676 89.302 100.135 89.33C99.6026 89.358 99.0659 89.3953 98.5246 89.442L98.3706 88.28C98.6973 88.224 99.0659 88.1727 99.4766 88.126C99.8873 88.07 100.303 88.028 100.723 88C101.143 87.972 101.525 87.958 101.871 87.958ZM99.7286 92.998C99.7286 93.558 100.037 93.8427 100.653 93.852C100.951 93.852 101.283 93.782 101.647 93.642C102.02 93.502 102.375 93.2967 102.711 93.026V91.822H100.527C100.237 91.8313 100.032 91.906 99.9106 92.046C99.7892 92.186 99.7286 92.3773 99.7286 92.62V92.998Z" fill="#4C6073"></path> <path d="M107.267 88.126L107.407 89.176C107.734 88.812 108.144 88.518 108.639 88.294C109.134 88.07 109.638 87.958 110.151 87.958C111.019 87.958 111.635 88.2707 111.999 88.896C112.372 89.5213 112.559 90.4267 112.559 91.612C112.559 92.5173 112.461 93.2313 112.265 93.754C112.078 94.2673 111.794 94.636 111.411 94.86C111.028 95.0747 110.548 95.182 109.969 95.182C109.53 95.182 109.101 95.126 108.681 95.014C108.27 94.902 107.888 94.72 107.533 94.468C107.58 94.9533 107.598 95.4387 107.589 95.924V97.73H105.895V88.126H107.267ZM109.521 89.302C109.185 89.302 108.868 89.372 108.569 89.512C108.28 89.652 107.953 89.8573 107.589 90.128V93.53C107.916 93.6233 108.214 93.7073 108.485 93.782C108.765 93.8473 109.073 93.88 109.409 93.88C109.745 93.88 110.016 93.824 110.221 93.712C110.426 93.5907 110.576 93.3667 110.669 93.04C110.762 92.7133 110.809 92.242 110.809 91.626C110.809 91.0193 110.762 90.548 110.669 90.212C110.585 89.876 110.45 89.6427 110.263 89.512C110.076 89.372 109.829 89.302 109.521 89.302Z" fill="#4C6073"></path> <path d="M120.227 88.126V95L118.701 95.014V90.996C118.701 90.828 118.706 90.6647 118.715 90.506C118.734 90.338 118.748 90.1607 118.757 89.974H118.729C118.664 90.1233 118.585 90.2867 118.491 90.464C118.398 90.632 118.305 90.7767 118.211 90.898L115.229 95H113.773V88.126H115.299V92.186C115.299 92.354 115.295 92.5127 115.285 92.662C115.276 92.8113 115.262 92.9793 115.243 93.166H115.271C115.346 93.0073 115.425 92.8533 115.509 92.704C115.603 92.5547 115.696 92.4193 115.789 92.298L118.785 88.126H120.227Z" fill="#4C6073"></path> <path d="M124.394 88.028C124.945 88.028 125.402 88.0327 125.766 88.042C126.139 88.042 126.461 88.0513 126.732 88.07C127.012 88.0793 127.297 88.098 127.586 88.126V95H125.934V92.578C125.738 92.578 125.514 92.578 125.262 92.578C125.019 92.578 124.749 92.578 124.45 92.578C123.89 92.578 123.559 92.774 123.456 93.166L122.966 95H121.23L121.818 92.9C121.911 92.6013 122.093 92.396 122.364 92.284C122.644 92.172 122.905 92.102 123.148 92.074V92.018C122.569 91.9247 122.168 91.71 121.944 91.374C121.72 91.038 121.608 90.6227 121.608 90.128C121.608 89.6427 121.687 89.246 121.846 88.938C122.005 88.6207 122.285 88.392 122.686 88.252C123.087 88.1027 123.657 88.028 124.394 88.028ZM124.45 91.444H125.934V89.288C125.719 89.288 125.486 89.288 125.234 89.288C124.982 89.288 124.711 89.288 124.422 89.288C123.946 89.288 123.633 89.3673 123.484 89.526C123.335 89.6753 123.26 89.932 123.26 90.296C123.26 90.716 123.339 91.0147 123.498 91.192C123.657 91.36 123.974 91.444 124.45 91.444Z" fill="#4C6073"></path> <path d="M137.213 88.126C137.615 88.126 137.815 88.3313 137.815 88.742L138.067 95H136.513L136.275 89.386H136.065L134.665 93.642C134.572 93.9967 134.353 94.174 134.007 94.174H133.013C132.668 94.174 132.449 93.9967 132.355 93.642L130.955 89.386H130.745L130.535 95H128.995L129.233 88.742C129.233 88.3313 129.439 88.126 129.849 88.126H131.417C131.772 88.126 131.987 88.308 132.061 88.672L133.181 92.088C133.237 92.2653 133.284 92.4333 133.321 92.592C133.359 92.7507 133.391 92.9187 133.419 93.096H133.601C133.648 92.9187 133.685 92.7507 133.713 92.592C133.751 92.424 133.793 92.256 133.839 92.088L134.959 88.672C135.043 88.308 135.263 88.126 135.617 88.126H137.213Z" fill="#4C6073"></path> <path d="M145.901 88.126V95L144.375 95.014V90.996C144.375 90.828 144.38 90.6647 144.389 90.506C144.408 90.338 144.422 90.1607 144.431 89.974H144.403C144.338 90.1233 144.258 90.2867 144.165 90.464C144.072 90.632 143.978 90.7767 143.885 90.898L140.903 95H139.447V88.126H140.973V92.186C140.973 92.354 140.968 92.5127 140.959 92.662C140.95 92.8113 140.936 92.9793 140.917 93.166H140.945C141.02 93.0073 141.099 92.8533 141.183 92.704C141.276 92.5547 141.37 92.4193 141.463 92.298L144.459 88.126H145.901Z" fill="#4C6073"></path> <path d="M43.6452 102.958C43.9905 102.958 44.3872 102.986 44.8352 103.042C45.2832 103.089 45.6892 103.187 46.0532 103.336L45.8572 104.4C45.5119 104.381 45.1665 104.367 44.8212 104.358C44.4852 104.349 44.1865 104.344 43.9252 104.344C43.4585 104.344 43.0852 104.409 42.8052 104.54C42.5345 104.671 42.3385 104.895 42.2172 105.212C42.0959 105.529 42.0352 105.977 42.0352 106.556C42.0352 107.135 42.0959 107.587 42.2172 107.914C42.3385 108.231 42.5345 108.455 42.8052 108.586C43.0852 108.717 43.4585 108.782 43.9252 108.782C44.1492 108.782 44.4572 108.773 44.8492 108.754C45.2505 108.735 45.6379 108.703 46.0112 108.656L46.1652 109.748C45.8105 109.897 45.4092 110.005 44.9612 110.07C44.5225 110.135 44.0792 110.168 43.6312 110.168C42.8099 110.168 42.1519 110.051 41.6572 109.818C41.1625 109.585 40.8032 109.207 40.5792 108.684C40.3645 108.152 40.2572 107.443 40.2572 106.556C40.2572 105.669 40.3692 104.965 40.5932 104.442C40.8172 103.91 41.1765 103.532 41.6712 103.308C42.1659 103.075 42.8239 102.958 43.6452 102.958Z" fill="#4C6073"></path> <path d="M50.1988 102.958C51.0295 102.958 51.6922 103.075 52.1868 103.308C52.6908 103.541 53.0502 103.924 53.2648 104.456C53.4888 104.988 53.6008 105.693 53.6008 106.57C53.6008 107.447 53.4888 108.152 53.2648 108.684C53.0502 109.216 52.6908 109.599 52.1868 109.832C51.6922 110.065 51.0295 110.182 50.1988 110.182C49.3588 110.182 48.6868 110.065 48.1828 109.832C47.6882 109.599 47.3288 109.216 47.1048 108.684C46.8808 108.152 46.7688 107.447 46.7688 106.57C46.7688 105.693 46.8808 104.988 47.1048 104.456C47.3288 103.924 47.6882 103.541 48.1828 103.308C48.6868 103.075 49.3588 102.958 50.1988 102.958ZM50.1988 104.246C49.7788 104.246 49.4475 104.316 49.2048 104.456C48.9622 104.587 48.7895 104.82 48.6868 105.156C48.5935 105.492 48.5468 105.963 48.5468 106.57C48.5468 107.177 48.5935 107.648 48.6868 107.984C48.7895 108.32 48.9622 108.553 49.2048 108.684C49.4475 108.815 49.7788 108.88 50.1988 108.88C50.6095 108.88 50.9315 108.815 51.1648 108.684C51.4075 108.553 51.5755 108.32 51.6688 107.984C51.7715 107.648 51.8228 107.177 51.8228 106.57C51.8228 105.963 51.7715 105.492 51.6688 105.156C51.5755 104.82 51.4075 104.587 51.1648 104.456C50.9315 104.316 50.6095 104.246 50.1988 104.246Z" fill="#4C6073"></path> <path d="M60.7129 99.668L61.0209 100.97C60.6196 101.203 60.2463 101.357 59.9009 101.432C59.5556 101.507 59.2149 101.563 58.8789 101.6C58.5523 101.628 58.2069 101.689 57.8429 101.782C57.2549 101.95 56.8443 102.202 56.6109 102.538C56.3776 102.865 56.2236 103.219 56.1489 103.602C56.0836 103.798 56.0369 103.985 56.0089 104.162C55.9903 104.33 55.9716 104.479 55.9529 104.61H55.9949C56.1256 104.395 56.2843 104.195 56.4709 104.008C56.6669 103.812 56.9283 103.653 57.2549 103.532C57.5816 103.411 58.0063 103.35 58.5289 103.35C59.2383 103.35 59.7983 103.462 60.2089 103.686C60.6289 103.91 60.9276 104.265 61.1049 104.75C61.2916 105.235 61.3849 105.865 61.3849 106.64C61.3849 107.387 61.2869 108.026 61.0909 108.558C60.9043 109.081 60.5683 109.482 60.0829 109.762C59.6069 110.033 58.9396 110.168 58.0809 110.168C57.2783 110.168 56.6483 110.061 56.1909 109.846C55.7336 109.622 55.3976 109.314 55.1829 108.922C54.9776 108.521 54.8469 108.054 54.7909 107.522C54.7349 106.99 54.7069 106.411 54.7069 105.786C54.7069 104.834 54.7629 104.013 54.8749 103.322C54.9963 102.622 55.2389 102.043 55.6029 101.586C55.9763 101.119 56.5363 100.769 57.2829 100.536C57.6843 100.405 58.0669 100.321 58.4309 100.284C58.8043 100.237 59.1729 100.181 59.5369 100.116C59.9103 100.041 60.3023 99.892 60.7129 99.668ZM58.1089 104.554C57.6423 104.554 57.2876 104.629 57.0449 104.778C56.8116 104.927 56.6529 105.156 56.5689 105.464C56.4849 105.763 56.4429 106.155 56.4429 106.64C56.4429 107.219 56.4943 107.671 56.5969 107.998C56.6996 108.325 56.8676 108.553 57.1009 108.684C57.3343 108.815 57.6469 108.88 58.0389 108.88C58.4309 108.88 58.7389 108.815 58.9629 108.684C59.1963 108.553 59.3596 108.325 59.4529 107.998C59.5556 107.671 59.6069 107.219 59.6069 106.64C59.6069 106.089 59.5603 105.665 59.4669 105.366C59.3829 105.058 59.2289 104.848 59.0049 104.736C58.7903 104.615 58.4916 104.554 58.1089 104.554Z" fill="#4C6073"></path> <path d="M65.6821 102.958C66.0274 102.958 66.4241 102.986 66.8721 103.042C67.3201 103.089 67.7261 103.187 68.0901 103.336L67.8941 104.4C67.5487 104.381 67.2034 104.367 66.8581 104.358C66.5221 104.349 66.2234 104.344 65.9621 104.344C65.4954 104.344 65.1221 104.409 64.8421 104.54C64.5714 104.671 64.3754 104.895 64.2541 105.212C64.1327 105.529 64.0721 105.977 64.0721 106.556C64.0721 107.135 64.1327 107.587 64.2541 107.914C64.3754 108.231 64.5714 108.455 64.8421 108.586C65.1221 108.717 65.4954 108.782 65.9621 108.782C66.1861 108.782 66.4941 108.773 66.8861 108.754C67.2874 108.735 67.6747 108.703 68.0481 108.656L68.2021 109.748C67.8474 109.897 67.4461 110.005 66.9981 110.07C66.5594 110.135 66.1161 110.168 65.6681 110.168C64.8467 110.168 64.1887 110.051 63.6941 109.818C63.1994 109.585 62.8401 109.207 62.6161 108.684C62.4014 108.152 62.2941 107.443 62.2941 106.556C62.2941 105.669 62.4061 104.965 62.6301 104.442C62.8541 103.91 63.2134 103.532 63.7081 103.308C64.2027 103.075 64.8607 102.958 65.6821 102.958Z" fill="#4C6073"></path> <path d="M74.9914 103.126V104.456H72.6254V110H70.9314V104.456H68.5514V103.126H74.9914Z" fill="#4C6073"></path> <path d="M78.9381 103.056C79.6661 103.056 80.2448 103.107 80.6741 103.21C81.1128 103.313 81.4254 103.499 81.6121 103.77C81.8081 104.031 81.9061 104.405 81.9061 104.89C81.9061 105.375 81.7894 105.744 81.5561 105.996C81.3228 106.248 80.9448 106.397 80.4221 106.444V106.486C81.0661 106.533 81.5141 106.71 81.7661 107.018C82.0274 107.326 82.1581 107.755 82.1581 108.306C82.1581 108.782 82.0601 109.151 81.8641 109.412C81.6774 109.664 81.3741 109.846 80.9541 109.958C80.5434 110.061 80.0021 110.112 79.3301 110.112C78.8074 110.112 78.3501 110.107 77.9581 110.098C77.5661 110.098 77.2021 110.089 76.8661 110.07C76.5394 110.061 76.1988 110.047 75.8441 110.028V103.14C76.1614 103.112 76.4648 103.093 76.7541 103.084C77.0528 103.075 77.3748 103.07 77.7201 103.07C78.0748 103.061 78.4808 103.056 78.9381 103.056ZM78.8681 104.246C78.5881 104.237 78.3314 104.232 78.0981 104.232C77.8648 104.232 77.6454 104.232 77.4401 104.232V105.954H79.0081C79.4934 105.954 79.8341 105.898 80.0301 105.786C80.2261 105.665 80.3241 105.427 80.3241 105.072C80.3241 104.745 80.2168 104.526 80.0021 104.414C79.7874 104.302 79.4094 104.246 78.8681 104.246ZM79.0081 106.976H77.4401V108.908C77.6734 108.908 77.9254 108.908 78.1961 108.908C78.4668 108.908 78.7561 108.908 79.0641 108.908C79.5868 108.908 79.9508 108.847 80.1561 108.726C80.3708 108.595 80.4781 108.339 80.4781 107.956C80.4781 107.583 80.3661 107.326 80.1421 107.186C79.9274 107.046 79.5494 106.976 79.0081 106.976Z" fill="#4C6073"></path> <path d="M86.3924 102.958C87.5031 102.958 88.3011 103.154 88.7864 103.546C89.2718 103.929 89.5191 104.498 89.5284 105.254C89.5284 105.879 89.3791 106.355 89.0804 106.682C88.7911 106.999 88.2964 107.158 87.5964 107.158H84.8104C84.8758 107.821 85.0531 108.259 85.3424 108.474C85.6318 108.689 86.0798 108.796 86.6864 108.796C87.0318 108.796 87.4284 108.782 87.8764 108.754C88.3338 108.726 88.7724 108.689 89.1924 108.642L89.3604 109.72C89.1084 109.823 88.8191 109.911 88.4924 109.986C88.1658 110.051 87.8251 110.098 87.4704 110.126C87.1158 110.154 86.7844 110.168 86.4764 110.168C85.2258 110.168 84.3344 109.888 83.8024 109.328C83.2798 108.759 83.0184 107.839 83.0184 106.57C83.0184 105.665 83.1304 104.951 83.3544 104.428C83.5878 103.896 83.9518 103.518 84.4464 103.294C84.9411 103.07 85.5898 102.958 86.3924 102.958ZM86.4484 104.218C86.0471 104.218 85.7251 104.269 85.4824 104.372C85.2491 104.475 85.0764 104.666 84.9644 104.946C84.8618 105.217 84.8058 105.604 84.7964 106.108H87.1344C87.4424 106.108 87.6384 106.024 87.7224 105.856C87.8158 105.688 87.8624 105.483 87.8624 105.24C87.8624 104.867 87.7551 104.605 87.5404 104.456C87.3258 104.297 86.9618 104.218 86.4484 104.218Z" fill="#4C6073"></path> <path d="M92.3521 103.126V105.772H95.4041V103.126H97.0701V110H95.4041V106.962H92.3521V110H90.6721V103.126H92.3521Z" fill="#4C6073"></path> <path d="M100.258 103.126V105.772H103.31V103.126H104.976V110H103.31V106.962H100.258V110H98.5782V103.126H100.258Z" fill="#4C6073"></path> <path d="M112.938 103.126V110L111.412 110.014V105.996C111.412 105.828 111.417 105.665 111.426 105.506C111.445 105.338 111.459 105.161 111.468 104.974H111.44C111.375 105.123 111.296 105.287 111.202 105.464C111.109 105.632 111.016 105.777 110.922 105.898L107.94 110H106.484V103.126H108.01V107.186C108.01 107.354 108.006 107.513 107.996 107.662C107.987 107.811 107.973 107.979 107.954 108.166H107.982C108.057 108.007 108.136 107.853 108.22 107.704C108.314 107.555 108.407 107.419 108.5 107.298L111.496 103.126H112.938Z" fill="#4C6073"></path> <path d="M116.153 103.126V105.016C116.153 105.296 116.125 105.571 116.069 105.842H116.797C117.198 105.842 117.516 105.753 117.749 105.576C117.982 105.399 118.183 105.114 118.351 104.722C118.519 104.321 118.71 103.789 118.925 103.126H120.661C120.456 103.723 120.274 104.223 120.115 104.624C119.966 105.016 119.807 105.338 119.639 105.59C119.48 105.833 119.28 106.019 119.037 106.15C118.804 106.271 118.5 106.355 118.127 106.402V106.458C118.519 106.495 118.841 106.579 119.093 106.71C119.345 106.831 119.56 107.023 119.737 107.284C119.924 107.536 120.101 107.881 120.269 108.32C120.437 108.759 120.638 109.319 120.871 110H119.093C118.888 109.393 118.71 108.899 118.561 108.516C118.412 108.124 118.262 107.821 118.113 107.606C117.964 107.391 117.786 107.242 117.581 107.158C117.376 107.074 117.119 107.032 116.811 107.032H116.083C116.13 107.265 116.153 107.475 116.153 107.662V110H114.459V103.126H116.153Z" fill="#4C6073"></path> <path d="M124.831 102.958C125.662 102.958 126.324 103.075 126.819 103.308C127.323 103.541 127.682 103.924 127.897 104.456C128.121 104.988 128.233 105.693 128.233 106.57C128.233 107.447 128.121 108.152 127.897 108.684C127.682 109.216 127.323 109.599 126.819 109.832C126.324 110.065 125.662 110.182 124.831 110.182C123.991 110.182 123.319 110.065 122.815 109.832C122.32 109.599 121.961 109.216 121.737 108.684C121.513 108.152 121.401 107.447 121.401 106.57C121.401 105.693 121.513 104.988 121.737 104.456C121.961 103.924 122.32 103.541 122.815 103.308C123.319 103.075 123.991 102.958 124.831 102.958ZM124.831 104.246C124.411 104.246 124.08 104.316 123.837 104.456C123.594 104.587 123.422 104.82 123.319 105.156C123.226 105.492 123.179 105.963 123.179 106.57C123.179 107.177 123.226 107.648 123.319 107.984C123.422 108.32 123.594 108.553 123.837 108.684C124.08 108.815 124.411 108.88 124.831 108.88C125.242 108.88 125.564 108.815 125.797 108.684C126.04 108.553 126.208 108.32 126.301 107.984C126.404 107.648 126.455 107.177 126.455 106.57C126.455 105.963 126.404 105.492 126.301 105.156C126.208 104.82 126.04 104.587 125.797 104.456C125.564 104.316 125.242 104.246 124.831 104.246Z" fill="#4C6073"></path> <path d="M132.545 103.056C133.273 103.056 133.852 103.107 134.281 103.21C134.72 103.313 135.032 103.499 135.219 103.77C135.415 104.031 135.513 104.405 135.513 104.89C135.513 105.375 135.396 105.744 135.163 105.996C134.93 106.248 134.552 106.397 134.029 106.444V106.486C134.673 106.533 135.121 106.71 135.373 107.018C135.634 107.326 135.765 107.755 135.765 108.306C135.765 108.782 135.667 109.151 135.471 109.412C135.284 109.664 134.981 109.846 134.561 109.958C134.15 110.061 133.609 110.112 132.937 110.112C132.414 110.112 131.957 110.107 131.565 110.098C131.173 110.098 130.809 110.089 130.473 110.07C130.146 110.061 129.806 110.047 129.451 110.028V103.14C129.768 103.112 130.072 103.093 130.361 103.084C130.66 103.075 130.982 103.07 131.327 103.07C131.682 103.061 132.088 103.056 132.545 103.056ZM132.475 104.246C132.195 104.237 131.938 104.232 131.705 104.232C131.472 104.232 131.252 104.232 131.047 104.232V105.954H132.615C133.1 105.954 133.441 105.898 133.637 105.786C133.833 105.665 133.931 105.427 133.931 105.072C133.931 104.745 133.824 104.526 133.609 104.414C133.394 104.302 133.016 104.246 132.475 104.246ZM132.615 106.976H131.047V108.908C131.28 108.908 131.532 108.908 131.803 108.908C132.074 108.908 132.363 108.908 132.671 108.908C133.194 108.908 133.558 108.847 133.763 108.726C133.978 108.595 134.085 108.339 134.085 107.956C134.085 107.583 133.973 107.326 133.749 107.186C133.534 107.046 133.156 106.976 132.615 106.976Z" fill="#4C6073"></path> <path d="M62.688 118.126V125L61.162 125.014V120.996C61.162 120.828 61.1666 120.665 61.176 120.506C61.1946 120.338 61.2086 120.161 61.218 119.974H61.19C61.1246 120.123 61.0453 120.287 60.952 120.464C60.8586 120.632 60.7653 120.777 60.672 120.898L57.69 125H56.234V118.126H57.76V122.186C57.76 122.354 57.7553 122.513 57.746 122.662C57.7366 122.811 57.7226 122.979 57.704 123.166H57.732C57.8066 123.007 57.886 122.853 57.97 122.704C58.0633 122.555 58.1566 122.419 58.25 122.298L61.246 118.126H62.688Z" fill="#4C6073"></path> <path d="M68.1527 118.126C68.386 118.779 68.5867 119.307 68.7547 119.708C68.932 120.109 69.1233 120.403 69.3287 120.59C69.534 120.767 69.7953 120.856 70.1127 120.856H70.9107C70.864 120.595 70.8407 120.315 70.8407 120.016V118.126H72.3247V120.016C72.3247 120.315 72.2967 120.595 72.2407 120.856H72.9827C73.3093 120.856 73.5753 120.767 73.7807 120.59C73.986 120.403 74.1727 120.109 74.3407 119.708C74.518 119.307 74.7233 118.779 74.9567 118.126H76.6507C76.4453 118.714 76.268 119.209 76.1187 119.61C75.9693 120.002 75.8107 120.324 75.6427 120.576C75.484 120.819 75.288 121.005 75.0547 121.136C74.8213 121.267 74.5227 121.351 74.1587 121.388V121.444C74.5413 121.491 74.854 121.579 75.0967 121.71C75.3487 121.831 75.5633 122.023 75.7407 122.284C75.918 122.545 76.0907 122.895 76.2587 123.334C76.4267 123.773 76.6227 124.328 76.8467 125H75.1247C74.91 124.403 74.7233 123.913 74.5647 123.53C74.406 123.138 74.2567 122.83 74.1167 122.606C73.9767 122.382 73.818 122.228 73.6407 122.144C73.4727 122.06 73.258 122.018 72.9967 122.018H72.2547C72.3013 122.261 72.3247 122.471 72.3247 122.648V125H70.8267V122.648C70.8267 122.471 70.8547 122.261 70.9107 122.018H70.0567C69.814 122.018 69.6087 122.065 69.4407 122.158C69.282 122.251 69.1327 122.41 68.9927 122.634C68.8527 122.849 68.7033 123.152 68.5447 123.544C68.3953 123.927 68.2087 124.412 67.9847 125H66.2627C66.4867 124.328 66.6827 123.773 66.8507 123.334C67.0187 122.895 67.1913 122.545 67.3687 122.284C67.546 122.023 67.756 121.831 67.9987 121.71C68.2507 121.579 68.5727 121.491 68.9647 121.444V121.388C68.5913 121.351 68.288 121.267 68.0547 121.136C67.8213 121.005 67.6253 120.819 67.4667 120.576C67.308 120.324 67.1493 120.002 66.9907 119.61C66.8413 119.209 66.6687 118.714 66.4727 118.126H68.1527Z" fill="#4C6073"></path> <path d="M84.2053 118.126V125L82.6793 125.014V120.996C82.6793 120.828 82.684 120.665 82.6933 120.506C82.712 120.338 82.726 120.161 82.7353 119.974H82.7073C82.642 120.123 82.5626 120.287 82.4693 120.464C82.376 120.632 82.2826 120.777 82.1893 120.898L79.2073 125H77.7513V118.126H79.2773V122.186C79.2773 122.354 79.2726 122.513 79.2633 122.662C79.254 122.811 79.24 122.979 79.2213 123.166H79.2493C79.324 123.007 79.4033 122.853 79.4873 122.704C79.5806 122.555 79.674 122.419 79.7673 122.298L82.7633 118.126H84.2053Z" fill="#4C6073"></path> <path d="M88.8198 118.056C89.5478 118.056 90.1265 118.107 90.5558 118.21C90.9945 118.313 91.3072 118.499 91.4938 118.77C91.6898 119.031 91.7878 119.405 91.7878 119.89C91.7878 120.375 91.6712 120.744 91.4378 120.996C91.2045 121.248 90.8265 121.397 90.3038 121.444V121.486C90.9478 121.533 91.3958 121.71 91.6478 122.018C91.9092 122.326 92.0398 122.755 92.0398 123.306C92.0398 123.782 91.9418 124.151 91.7458 124.412C91.5592 124.664 91.2558 124.846 90.8358 124.958C90.4252 125.061 89.8838 125.112 89.2118 125.112C88.6892 125.112 88.2318 125.107 87.8398 125.098C87.4478 125.098 87.0838 125.089 86.7478 125.07C86.4212 125.061 86.0805 125.047 85.7258 125.028V118.14C86.0432 118.112 86.3465 118.093 86.6358 118.084C86.9345 118.075 87.2565 118.07 87.6018 118.07C87.9565 118.061 88.3625 118.056 88.8198 118.056ZM88.7498 119.246C88.4698 119.237 88.2132 119.232 87.9798 119.232C87.7465 119.232 87.5272 119.232 87.3218 119.232V120.954H88.8898C89.3752 120.954 89.7158 120.898 89.9118 120.786C90.1078 120.665 90.2058 120.427 90.2058 120.072C90.2058 119.745 90.0985 119.526 89.8838 119.414C89.6692 119.302 89.2912 119.246 88.7498 119.246ZM88.8898 121.976H87.3218V123.908C87.5552 123.908 87.8072 123.908 88.0778 123.908C88.3485 123.908 88.6378 123.908 88.9458 123.908C89.4685 123.908 89.8325 123.847 90.0378 123.726C90.2525 123.595 90.3598 123.339 90.3598 122.956C90.3598 122.583 90.2478 122.326 90.0238 122.186C89.8092 122.046 89.4312 121.976 88.8898 121.976Z" fill="#4C6073"></path> <path d="M96.1619 120.646C96.9085 120.646 97.4919 120.716 97.9119 120.856C98.3412 120.987 98.6445 121.215 98.8219 121.542C99.0085 121.859 99.1019 122.298 99.1019 122.858C99.1019 123.437 99.0085 123.889 98.8219 124.216C98.6352 124.533 98.3459 124.757 97.9539 124.888C97.5712 125.019 97.0672 125.084 96.4419 125.084C95.9565 125.084 95.5365 125.079 95.1819 125.07C94.8272 125.07 94.5005 125.061 94.2019 125.042C93.9032 125.033 93.5952 125.019 93.2779 125H93.2219V118.126H94.8739V120.646H96.1619ZM101.874 118.126V125H100.152V118.126H101.874ZM96.1619 121.738H94.8739V123.866C95.2565 123.875 95.6859 123.88 96.1619 123.88C96.6285 123.88 96.9505 123.81 97.1279 123.67C97.3052 123.53 97.3939 123.241 97.3939 122.802C97.3939 122.391 97.3099 122.111 97.1419 121.962C96.9739 121.813 96.6472 121.738 96.1619 121.738Z" fill="#4C6073"></path> <path d="M111.49 118.126C111.891 118.126 112.092 118.331 112.092 118.742L112.344 125H110.79L110.552 119.386H110.342L108.942 123.642C108.849 123.997 108.629 124.174 108.284 124.174H107.29C106.945 124.174 106.725 123.997 106.632 123.642L105.232 119.386H105.022L104.812 125H103.272L103.51 118.742C103.51 118.331 103.715 118.126 104.126 118.126H105.694C106.049 118.126 106.263 118.308 106.338 118.672L107.458 122.088C107.514 122.265 107.561 122.433 107.598 122.592C107.635 122.751 107.668 122.919 107.696 123.096H107.878C107.925 122.919 107.962 122.751 107.99 122.592C108.027 122.424 108.069 122.256 108.116 122.088L109.236 118.672C109.32 118.308 109.539 118.126 109.894 118.126H111.49Z" fill="#4C6073"></path> <path d="M120.178 118.126V125L118.652 125.014V120.996C118.652 120.828 118.656 120.665 118.666 120.506C118.684 120.338 118.698 120.161 118.708 119.974H118.68C118.614 120.123 118.535 120.287 118.442 120.464C118.348 120.632 118.255 120.777 118.162 120.898L115.18 125H113.724V118.126H115.25V122.186C115.25 122.354 115.245 122.513 115.236 122.662C115.226 122.811 115.212 122.979 115.194 123.166H115.222C115.296 123.007 115.376 122.853 115.46 122.704C115.553 122.555 115.646 122.419 115.74 122.298L118.736 118.126H120.178Z" fill="#4C6073"></path> <path d="M57.5437 133.126V140H55.8777V134.358H52.8957V140H51.2437V133.126H57.5437Z" fill="#4C6073"></path> <path d="M60.4402 133.126L60.5802 134.176C60.9069 133.812 61.3175 133.518 61.8122 133.294C62.3069 133.07 62.8109 132.958 63.3242 132.958C64.1922 132.958 64.8082 133.271 65.1722 133.896C65.5455 134.521 65.7322 135.427 65.7322 136.612C65.7322 137.517 65.6342 138.231 65.4382 138.754C65.2515 139.267 64.9669 139.636 64.5842 139.86C64.2015 140.075 63.7209 140.182 63.1422 140.182C62.7035 140.182 62.2742 140.126 61.8542 140.014C61.4435 139.902 61.0609 139.72 60.7062 139.468C60.7529 139.953 60.7715 140.439 60.7622 140.924V142.73H59.0682V133.126H60.4402ZM62.6942 134.302C62.3582 134.302 62.0409 134.372 61.7422 134.512C61.4529 134.652 61.1262 134.857 60.7622 135.128V138.53C61.0889 138.623 61.3875 138.707 61.6582 138.782C61.9382 138.847 62.2462 138.88 62.5822 138.88C62.9182 138.88 63.1889 138.824 63.3942 138.712C63.5995 138.591 63.7489 138.367 63.8422 138.04C63.9355 137.713 63.9822 137.242 63.9822 136.626C63.9822 136.019 63.9355 135.548 63.8422 135.212C63.7582 134.876 63.6229 134.643 63.4362 134.512C63.2495 134.372 63.0022 134.302 62.6942 134.302Z" fill="#4C6073"></path> <path d="M73.4007 133.126V140L71.8747 140.014V135.996C71.8747 135.828 71.8794 135.665 71.8887 135.506C71.9074 135.338 71.9214 135.161 71.9307 134.974H71.9027C71.8374 135.123 71.758 135.287 71.6647 135.464C71.5714 135.632 71.478 135.777 71.3847 135.898L68.4027 140H66.9467V133.126H68.4727V137.186C68.4727 137.354 68.468 137.513 68.4587 137.662C68.4494 137.811 68.4354 137.979 68.4167 138.166H68.4447C68.5194 138.007 68.5987 137.853 68.6827 137.704C68.776 137.555 68.8694 137.419 68.9627 137.298L71.9587 133.126H73.4007Z" fill="#4C6073"></path> <path d="M83.0272 133.126C83.4286 133.126 83.6292 133.331 83.6292 133.742L83.8812 140H82.3272L82.0892 134.386H81.8792L80.4792 138.642C80.3859 138.997 80.1666 139.174 79.8212 139.174H78.8272C78.4819 139.174 78.2626 138.997 78.1692 138.642L76.7692 134.386H76.5592L76.3492 140H74.8092L75.0472 133.742C75.0472 133.331 75.2526 133.126 75.6632 133.126H77.2312C77.5859 133.126 77.8006 133.308 77.8752 133.672L78.9952 137.088C79.0512 137.265 79.0979 137.433 79.1352 137.592C79.1726 137.751 79.2052 137.919 79.2332 138.096H79.4152C79.4619 137.919 79.4992 137.751 79.5272 137.592C79.5646 137.424 79.6066 137.256 79.6532 137.088L80.7732 133.672C80.8572 133.308 81.0766 133.126 81.4312 133.126H83.0272Z" fill="#4C6073"></path> <path d="M88.2997 132.958C89.4103 132.958 90.2083 133.154 90.6937 133.546C91.179 133.929 91.4263 134.498 91.4357 135.254C91.4357 135.879 91.2863 136.355 90.9877 136.682C90.6983 136.999 90.2037 137.158 89.5037 137.158H86.7177C86.783 137.821 86.9603 138.259 87.2497 138.474C87.539 138.689 87.987 138.796 88.5937 138.796C88.939 138.796 89.3357 138.782 89.7837 138.754C90.241 138.726 90.6797 138.689 91.0997 138.642L91.2677 139.72C91.0157 139.823 90.7263 139.911 90.3997 139.986C90.073 140.051 89.7323 140.098 89.3777 140.126C89.023 140.154 88.6917 140.168 88.3837 140.168C87.133 140.168 86.2417 139.888 85.7097 139.328C85.187 138.759 84.9257 137.839 84.9257 136.57C84.9257 135.665 85.0377 134.951 85.2617 134.428C85.495 133.896 85.859 133.518 86.3537 133.294C86.8483 133.07 87.497 132.958 88.2997 132.958ZM88.3557 134.218C87.9543 134.218 87.6323 134.269 87.3897 134.372C87.1563 134.475 86.9837 134.666 86.8717 134.946C86.769 135.217 86.713 135.604 86.7037 136.108H89.0417C89.3497 136.108 89.5457 136.024 89.6297 135.856C89.723 135.688 89.7697 135.483 89.7697 135.24C89.7697 134.867 89.6623 134.605 89.4477 134.456C89.233 134.297 88.869 134.218 88.3557 134.218Z" fill="#4C6073"></path> <path d="M93.9653 133.126L94.1053 134.176C94.4319 133.812 94.8426 133.518 95.3373 133.294C95.832 133.07 96.336 132.958 96.8493 132.958C97.7173 132.958 98.3333 133.271 98.6973 133.896C99.0706 134.521 99.2573 135.427 99.2573 136.612C99.2573 137.517 99.1593 138.231 98.9633 138.754C98.7766 139.267 98.492 139.636 98.1093 139.86C97.7266 140.075 97.246 140.182 96.6673 140.182C96.2286 140.182 95.7993 140.126 95.3793 140.014C94.9686 139.902 94.586 139.72 94.2313 139.468C94.278 139.953 94.2966 140.439 94.2873 140.924V142.73H92.5933V133.126H93.9653ZM96.2193 134.302C95.8833 134.302 95.566 134.372 95.2673 134.512C94.978 134.652 94.6513 134.857 94.2873 135.128V138.53C94.614 138.623 94.9126 138.707 95.1833 138.782C95.4633 138.847 95.7713 138.88 96.1073 138.88C96.4433 138.88 96.714 138.824 96.9193 138.712C97.1246 138.591 97.274 138.367 97.3673 138.04C97.4606 137.713 97.5073 137.242 97.5073 136.626C97.5073 136.019 97.4606 135.548 97.3673 135.212C97.2833 134.876 97.148 134.643 96.9613 134.512C96.7746 134.372 96.5273 134.302 96.2193 134.302Z" fill="#4C6073"></path> <path d="M103.944 132.958C104.765 132.958 105.39 133.131 105.82 133.476C106.258 133.812 106.478 134.433 106.478 135.338V140H105.134L104.952 138.88C104.784 139.076 104.569 139.272 104.308 139.468C104.046 139.655 103.743 139.813 103.398 139.944C103.062 140.075 102.684 140.14 102.264 140.14C101.638 140.14 101.125 139.977 100.724 139.65C100.322 139.323 100.122 138.847 100.122 138.222V137.494C100.122 136.953 100.299 136.533 100.654 136.234C101.008 135.926 101.503 135.772 102.138 135.772H104.784V135.324C104.774 134.96 104.686 134.699 104.518 134.54C104.35 134.372 104.032 134.288 103.566 134.288C103.202 134.288 102.749 134.302 102.208 134.33C101.676 134.358 101.139 134.395 100.598 134.442L100.444 133.28C100.77 133.224 101.139 133.173 101.55 133.126C101.96 133.07 102.376 133.028 102.796 133C103.216 132.972 103.598 132.958 103.944 132.958ZM101.802 137.998C101.802 138.558 102.11 138.843 102.726 138.852C103.024 138.852 103.356 138.782 103.72 138.642C104.093 138.502 104.448 138.297 104.784 138.026V136.822H102.6C102.31 136.831 102.105 136.906 101.984 137.046C101.862 137.186 101.802 137.377 101.802 137.62V137.998Z" fill="#4C6073"></path> <path d="M116.06 133.126C116.461 133.126 116.662 133.331 116.662 133.742L116.914 140H115.36L115.122 134.386H114.912L113.512 138.642C113.419 138.997 113.199 139.174 112.854 139.174H111.86C111.515 139.174 111.295 138.997 111.202 138.642L109.802 134.386H109.592L109.382 140H107.842L108.08 133.742C108.08 133.331 108.285 133.126 108.696 133.126H110.264C110.619 133.126 110.833 133.308 110.908 133.672L112.028 137.088C112.084 137.265 112.131 137.433 112.168 137.592C112.205 137.751 112.238 137.919 112.266 138.096H112.448C112.495 137.919 112.532 137.751 112.56 137.592C112.597 137.424 112.639 137.256 112.686 137.088L113.806 133.672C113.89 133.308 114.109 133.126 114.464 133.126H116.06Z" fill="#4C6073"></path> <path d="M124.748 133.126V140L123.222 140.014V135.996C123.222 135.828 123.227 135.665 123.236 135.506C123.255 135.338 123.269 135.161 123.278 134.974H123.25C123.185 135.123 123.105 135.287 123.012 135.464C122.919 135.632 122.825 135.777 122.732 135.898L119.75 140H118.294V133.126H119.82V137.186C119.82 137.354 119.815 137.513 119.806 137.662C119.797 137.811 119.783 137.979 119.764 138.166H119.792C119.867 138.007 119.946 137.853 120.03 137.704C120.123 137.555 120.217 137.419 120.31 137.298L123.306 133.126H124.748Z" fill="#4C6073"></path> <defs> <filter id="filter0_b" x="-60" y="-60" width="296" height="296" filterUnits="userSpaceOnUse" color-interpolation-filters="sRGB"> <feFlood flood-opacity="0" result="BackgroundImageFix"></feFlood> <feGaussianBlur in="BackgroundImage" stdDeviation="30"></feGaussianBlur> <feComposite in2="SourceAlpha" operator="in" result="effect1_backgroundBlur"></feComposite> <feBlend mode="normal" in="SourceGraphic" in2="effect1_backgroundBlur" result="shape"></feBlend> </filter> <linearGradient id="paint0_linear" x1="90.3384" y1="51.5282" x2="110.692" y2="71.8821" gradientUnits="userSpaceOnUse"> <stop stop-color="#A7F3CE"></stop> <stop offset="1" stop-color="#61DB99"></stop> </linearGradient> <clipPath id="clip0"> <rect width="42" height="42" fill="white" transform="translate(65 27)"></rect> </clipPath> </defs> </svg> 