<?xml version="1.0" encoding="UTF-8"?> <svg xmlns="http://www.w3.org/2000/svg" width="156" height="61" viewBox="0 0 156 61" fill="none"> <path d="M23.5707 16.916C23.3653 16.9453 23.2113 16.96 23.1087 16.96C22.566 16.96 22.1187 16.7913 21.7667 16.454C21.4147 16.1166 21.2387 15.6473 21.2387 15.046C21.18 14.4006 21.3193 13.6013 21.6567 12.648C22.0087 11.6946 22.4487 10.8953 22.9767 10.25C23.3433 9.82463 23.6587 9.47996 23.9227 9.21596C24.1867 8.95196 24.4287 8.77596 24.6487 8.68796C24.9567 8.55596 25.3013 8.48996 25.6827 8.48996C25.9467 8.54863 26.2033 8.65863 26.4527 8.81996C26.7167 8.98129 26.8487 9.14263 26.8487 9.30396L26.9587 9.41396C27.0467 9.41396 27.1273 9.52396 27.2007 9.74396C27.274 9.94929 27.3107 10.1766 27.3107 10.426C27.3107 10.6313 27.274 10.8073 27.2007 10.954C27.142 11.2326 27.0393 11.4746 26.8927 11.68C26.7607 11.8853 26.6287 11.988 26.4967 11.988C26.3353 11.988 26.2547 12.032 26.2547 12.12C26.2547 12.1786 26.2253 12.208 26.1667 12.208C26.0933 12.208 26.0053 12.164 25.9027 12.076C25.8 11.988 25.7267 11.8853 25.6827 11.768C25.6827 11.724 25.712 11.5993 25.7707 11.394C25.8293 11.1886 25.888 10.9613 25.9467 10.712C25.9907 10.536 26.0127 10.382 26.0127 10.25C26.0127 9.95663 25.9027 9.80996 25.6827 9.80996C25.5653 9.80996 25.448 9.83929 25.3307 9.89796C24.744 10.2206 24.2233 10.734 23.7687 11.438C23.314 12.142 22.9327 13.11 22.6247 14.342C22.5513 14.6646 22.5147 14.9213 22.5147 15.112C22.5147 15.2586 22.522 15.376 22.5367 15.464C22.566 15.552 22.5953 15.6033 22.6247 15.618C22.698 15.6473 22.852 15.662 23.0867 15.662C23.6293 15.662 24.0107 15.596 24.2307 15.464C24.7 15.2146 25.2207 14.8773 25.7927 14.452C25.8513 14.408 25.9393 14.3346 26.0567 14.232C26.174 14.1146 26.284 14.034 26.3867 13.99C26.4893 13.8286 26.5847 13.7333 26.6727 13.704C26.7607 13.66 26.9 13.638 27.0907 13.638C27.2813 13.6966 27.4353 13.7773 27.5527 13.88C27.67 13.968 27.67 14.0413 27.5527 14.1C27.5087 14.1 27.4793 14.1146 27.4647 14.144C27.45 14.1733 27.4427 14.1953 27.4427 14.21C27.472 14.2833 27.3547 14.4666 27.0907 14.76C26.8267 15.0533 26.5333 15.332 26.2107 15.596C25.888 15.8453 25.668 15.97 25.5507 15.97C25.492 15.97 25.4407 15.9773 25.3967 15.992C25.3527 16.0066 25.3307 16.0433 25.3307 16.102C25.3307 16.1606 25.1033 16.3 24.6487 16.52C24.2087 16.7253 23.8493 16.8573 23.5707 16.916ZM34.9811 16.674C34.8784 16.6593 34.7831 16.6153 34.6951 16.542C34.6218 16.4686 34.5338 16.3806 34.4311 16.278C34.3431 16.1753 34.2624 16.0946 34.1891 16.036C34.1744 15.8013 34.2551 15.376 34.4311 14.76C34.6071 14.1293 34.7611 13.6746 34.8931 13.396C34.9371 13.1173 35.0618 12.6773 35.2671 12.076C35.4284 11.592 35.5164 11.3206 35.5311 11.262C35.6778 10.6166 35.8171 10.0813 35.9491 9.65596C35.9931 9.52396 36.0224 9.39929 36.0371 9.28196C36.0664 9.16463 36.0958 9.08396 36.1251 9.03996C36.1691 8.99596 36.2718 8.92996 36.4331 8.84196C36.6238 8.91529 36.7851 8.95196 36.9171 8.95196C37.0344 8.95196 37.1518 8.91529 37.2691 8.84196C37.3131 8.82729 37.3718 8.82729 37.4451 8.84196C37.5331 8.84196 37.6284 8.84196 37.7311 8.84196H38.2371C38.5891 8.84196 38.8164 8.83463 38.9191 8.81996C39.0658 8.80529 39.2711 8.82729 39.5351 8.88596C39.7991 8.94463 39.9971 8.97396 40.1291 8.97396C40.6424 9.17929 41.0238 9.39196 41.2731 9.61196C41.5371 9.81729 41.6618 10.1106 41.6471 10.492C41.6324 10.6386 41.6178 10.8513 41.6031 11.13C41.5884 11.4086 41.5298 11.6433 41.4271 11.834C41.4124 11.922 41.3024 12.2666 41.0971 12.868C40.7891 13.66 40.6204 14.1953 40.5911 14.474C40.5764 14.5326 40.5398 14.6206 40.4811 14.738C40.4224 14.8553 40.3931 14.958 40.3931 15.046C40.3931 15.2073 40.3638 15.4053 40.3051 15.64C40.2611 15.86 40.1951 16.0213 40.1071 16.124C39.9898 16.2413 39.8578 16.3 39.7111 16.3C39.5058 16.3 39.3224 16.2266 39.1611 16.08C38.9998 15.9186 38.9264 15.7426 38.9411 15.552C38.9411 15.2 38.9704 14.76 39.0291 14.232C39.1464 14.1146 39.2051 13.9973 39.2051 13.88C39.2198 13.748 39.2271 13.6673 39.2271 13.638C39.4178 13.1686 39.6011 12.6113 39.7771 11.966C39.9531 11.306 40.0411 10.7926 40.0411 10.426C40.0411 10.2793 40.0338 10.184 40.0191 10.14C39.6671 10.14 39.1831 10.162 38.5671 10.206C37.9511 10.25 37.6064 10.272 37.5331 10.272C37.4744 10.2866 37.4231 10.3233 37.3791 10.382C37.3351 10.426 37.3131 10.47 37.3131 10.514C37.2691 10.7926 37.1591 11.1593 36.9831 11.614C36.9538 11.7166 36.9024 11.878 36.8291 12.098C36.7558 12.3033 36.7044 12.4866 36.6751 12.648C36.6604 12.7213 36.5504 13.0586 36.3451 13.66C35.9931 14.584 35.8098 15.178 35.7951 15.442C35.6778 15.6473 35.6191 15.9333 35.6191 16.3C35.6044 16.4173 35.5531 16.498 35.4651 16.542C35.3771 16.5713 35.2158 16.6153 34.9811 16.674ZM44.4114 16.828C44.2354 16.828 44.096 16.7986 43.9934 16.74C43.8907 16.6813 43.744 16.5713 43.5534 16.41C43.0694 15.8966 42.8274 15.4273 42.8274 15.002C42.8274 14.8993 42.8347 14.826 42.8494 14.782C42.8934 14.6793 42.908 14.5766 42.8934 14.474C42.8934 14.3713 42.8934 14.3053 42.8934 14.276C42.8347 14.2173 42.8054 14.1806 42.8054 14.166C42.8054 14.1366 42.82 14.1146 42.8494 14.1C42.8787 14.0706 42.9007 14.0413 42.9154 14.012C43.0034 14.012 43.0327 13.9313 43.0034 13.77C42.974 13.6526 43.0327 13.396 43.1794 13C43.326 12.5893 43.5094 12.2153 43.7294 11.878C43.8907 11.614 44.1254 11.284 44.4334 10.888C44.756 10.492 45.042 10.1913 45.2914 9.98596C45.6434 9.67796 45.9587 9.45063 46.2374 9.30396C46.516 9.15729 46.824 9.04729 47.1614 8.97396C47.4547 8.90063 47.6527 8.86396 47.7554 8.86396C47.858 8.86396 47.946 8.89329 48.0194 8.95196C48.1074 8.99596 48.2174 9.08396 48.3494 9.21596C48.7454 9.39196 49.0167 9.61929 49.1634 9.89796C49.3247 10.162 49.4054 10.58 49.4054 11.152C49.4054 12.1053 49.0167 13.1393 48.2394 14.254C47.902 14.738 47.5867 15.112 47.2934 15.376C47 15.6253 46.6114 15.8966 46.1274 16.19C45.8194 16.41 45.5334 16.5713 45.2694 16.674C45.02 16.762 44.734 16.8133 44.4114 16.828ZM46.5234 14.496C46.8754 14.1 47.154 13.726 47.3594 13.374C47.5794 13.022 47.7847 12.5746 47.9754 12.032C48.0487 11.7826 48.0854 11.482 48.0854 11.13C48.0854 10.69 48.0267 10.4406 47.9094 10.382C47.7627 10.3086 47.616 10.272 47.4694 10.272C47.1467 10.272 46.8094 10.4186 46.4574 10.712C46.032 11.0786 45.6507 11.5333 45.3134 12.076C44.976 12.604 44.6314 13.264 44.2794 14.056C44.1327 14.364 44.0594 14.6646 44.0594 14.958C44.0594 15.178 44.1107 15.354 44.2134 15.486C44.3307 15.618 44.4847 15.684 44.6754 15.684C45.1594 15.684 45.7754 15.288 46.5234 14.496ZM50.6932 15.486C50.6786 15.4126 50.6639 15.2586 50.6492 15.024C50.6346 14.7893 50.5906 14.65 50.5172 14.606L50.5832 14.122C50.6419 13.5646 50.7152 13.1466 50.8032 12.868C50.8766 12.6333 51.0159 12.318 51.2212 11.922C51.4266 11.526 51.6026 11.262 51.7492 11.13C51.8226 11.0566 51.9106 10.9613 52.0132 10.844C52.1159 10.712 52.2112 10.6166 52.2992 10.558C52.3579 10.514 52.4092 10.4406 52.4532 10.338C52.5119 10.2206 52.5706 10.1473 52.6292 10.118L53.0912 9.76596C53.2966 9.60463 53.4726 9.48729 53.6192 9.41396C53.7659 9.32596 53.9639 9.24529 54.2132 9.17196C54.3599 9.12796 54.5212 9.08396 54.6972 9.03996C54.8879 8.98129 55.0419 8.95196 55.1592 8.95196C55.3059 8.95196 55.5406 8.99596 55.8632 9.08396C55.8632 8.99596 55.8412 8.81996 55.7972 8.55596C55.7679 8.29196 55.7532 8.14529 55.7532 8.11596C55.7679 8.07196 55.7752 7.99862 55.7752 7.89596C55.7752 7.76396 55.7679 7.64663 55.7532 7.54396C55.7386 7.44129 55.7239 7.36796 55.7092 7.32396C55.6652 7.27996 55.6286 7.19929 55.5992 7.08196C55.5846 6.96463 55.5699 6.89129 55.5552 6.86196C55.4966 6.56862 55.4306 6.37796 55.3572 6.28996C55.3866 6.02596 55.2839 5.76196 55.0492 5.49796C54.8292 5.23396 54.5432 5.02862 54.1912 4.88196C53.8392 4.73529 53.5239 4.67663 53.2452 4.70596C53.1866 4.70596 53.0839 4.72062 52.9372 4.74996C52.8052 4.76463 52.6806 4.79396 52.5632 4.83796C52.4459 4.86729 52.3432 4.91862 52.2552 4.99196C52.1526 5.00662 52.0206 5.01396 51.8592 5.01396C51.6832 5.01396 51.5512 4.97729 51.4632 4.90396C51.2872 4.66929 51.1772 4.50063 51.1332 4.39796C51.0892 4.29529 51.0966 4.21463 51.1552 4.15596C51.1992 4.09729 51.3166 4.02396 51.5072 3.93596C51.7126 3.83329 51.8959 3.72329 52.0572 3.60596C52.1012 3.62063 52.1526 3.62796 52.2112 3.62796C52.2552 3.62796 52.3286 3.60596 52.4312 3.56196C52.5339 3.51796 52.6439 3.51796 52.7612 3.56196C52.8492 3.51796 52.9739 3.49596 53.1352 3.49596C53.4139 3.49596 53.6412 3.52529 53.8172 3.58396C53.8612 3.61329 53.9126 3.63529 53.9712 3.64996C54.0299 3.66462 54.0666 3.67196 54.0812 3.67196C54.5946 3.78929 55.0419 4.00196 55.4232 4.30996C55.8192 4.60329 56.1346 4.99196 56.3692 5.47596L56.8972 6.59796C56.9119 6.65663 56.9339 6.80329 56.9632 7.03796C56.9926 7.25796 57.0292 7.49263 57.0732 7.74196L57.1612 8.33596C57.1906 8.51196 57.2052 8.63663 57.2052 8.70996C57.2052 8.81263 57.1906 8.96663 57.1612 9.17196C56.9852 10.3306 56.7212 11.394 56.3692 12.362C56.0172 13.33 55.5406 14.3126 54.9392 15.31C54.7632 15.5886 54.4039 15.9553 53.8612 16.41C53.4506 16.762 52.8859 16.9526 52.1672 16.982C51.8152 16.7033 51.5292 16.4833 51.3092 16.322C51.1039 16.146 50.9646 16.014 50.8912 15.926C50.8326 15.8233 50.7666 15.6766 50.6932 15.486ZM52.3872 15.904C52.4312 15.8746 52.5192 15.838 52.6512 15.794C52.7979 15.7353 52.8932 15.6473 52.9372 15.53C53.2012 15.3246 53.5312 14.9286 53.9272 14.342C54.3232 13.7553 54.6092 13.242 54.7852 12.802C54.8146 12.7433 54.8586 12.6113 54.9172 12.406C54.9906 12.2006 55.0712 12.032 55.1592 11.9C55.2766 11.68 55.3719 11.4306 55.4452 11.152C55.5186 10.8733 55.5552 10.624 55.5552 10.404C55.5552 10.2426 55.5332 10.1106 55.4892 10.008C54.7412 10.2573 54.1252 10.5946 53.6412 11.02C53.1572 11.4453 52.7172 12.032 52.3212 12.78C52.2772 13.0293 52.1966 13.3006 52.0792 13.594C51.9326 14.0046 51.8519 14.3126 51.8372 14.518C51.7639 14.6646 51.7272 14.8113 51.7272 14.958C51.7272 15.1193 51.7639 15.3246 51.8372 15.574C52.0279 15.7353 52.1526 15.8233 52.2112 15.838C52.2699 15.8526 52.3286 15.8746 52.3872 15.904ZM56.6851 22.064C56.5238 22.0053 56.3625 21.8733 56.2011 21.668C56.0398 21.4773 55.9591 21.316 55.9591 21.184C55.9591 20.964 56.1058 20.238 56.3991 19.006C56.6925 17.7886 56.9785 16.7986 57.2571 16.036C57.2718 15.9773 57.3671 15.7353 57.5431 15.31C57.7191 14.8846 57.8878 14.3713 58.0491 13.77C58.1665 13.3446 58.4745 12.516 58.9731 11.284L59.6111 9.69996L60.1171 8.31396C60.1611 8.19663 60.2345 8.09396 60.3371 8.00596C60.4545 7.90329 60.5571 7.83729 60.6451 7.80796C60.6745 7.79329 60.7258 7.78596 60.7991 7.78596C61.0045 7.78596 61.1805 7.90329 61.3271 8.13796C61.3711 8.22596 61.3931 8.31396 61.3931 8.40196C61.3931 8.54863 61.3051 8.83463 61.1291 9.25996L60.9751 9.69996L61.7671 9.52396C61.9725 9.52396 62.1411 9.53129 62.2731 9.54596C62.8011 9.54596 63.1311 9.56063 63.2631 9.58996C63.5858 9.60463 63.8131 9.66329 63.9451 9.76596C64.0918 9.86863 64.2311 10.03 64.3631 10.25C64.6271 10.4993 64.7738 10.7193 64.8031 10.91C64.8325 11.086 64.8471 11.2253 64.8471 11.328C64.8471 11.7973 64.7078 12.2813 64.4291 12.78C64.1505 13.264 63.8205 13.6306 63.4391 13.88C63.2925 13.9386 63.1678 13.9973 63.0651 14.056C62.9625 14.1146 62.8965 14.1513 62.8671 14.166C62.8378 14.2833 62.5005 14.474 61.8551 14.738C61.2245 14.9873 60.7038 15.1413 60.2931 15.2C60.1465 15.2293 59.9778 15.244 59.7871 15.244C59.6258 15.244 59.5011 15.222 59.4131 15.178C59.2371 15.1486 59.1198 15.134 59.0611 15.134C59.0171 15.134 58.9951 15.1633 58.9951 15.222C58.6285 16.3073 58.3278 17.2973 58.0931 18.192C57.5798 19.7466 57.2351 20.7586 57.0591 21.228C56.8831 21.712 56.7585 21.9906 56.6851 22.064ZM59.4351 13.946C59.4498 14.0046 59.5305 14.034 59.6771 14.034C59.9851 14.034 60.4545 13.8946 61.0851 13.616C61.7305 13.3226 62.2365 13.022 62.6031 12.714C62.9111 12.3473 63.1458 12.0466 63.3071 11.812C63.4831 11.5626 63.5711 11.372 63.5711 11.24C63.5711 11.1813 63.5418 11.1226 63.4831 11.064C63.3365 10.844 63.0725 10.734 62.6911 10.734C62.2071 10.734 61.6278 10.9173 60.9531 11.284C60.6598 11.3866 60.4471 11.526 60.3151 11.702C60.1978 11.8633 60.0878 12.0686 59.9851 12.318C59.8825 12.5673 59.8018 12.758 59.7431 12.89C59.5085 13.4473 59.4058 13.7993 59.4351 13.946ZM68.2776 16.322C68.0576 16.366 67.8962 16.388 67.7936 16.388C67.7056 16.388 67.6322 16.3733 67.5736 16.344C67.5149 16.3 67.4342 16.2266 67.3316 16.124C67.0089 15.9626 66.7522 15.7353 66.5616 15.442C66.3856 15.134 66.3122 14.8626 66.3416 14.628C66.4002 13.9533 66.5909 13.2126 66.9136 12.406C67.2509 11.5993 67.6469 10.888 68.1016 10.272C68.5562 9.65596 68.9962 9.27463 69.4216 9.12796C69.6856 9.02529 69.9056 8.97396 70.0816 8.97396C70.4336 8.97396 70.6829 9.12063 70.8296 9.41396C70.9322 9.61929 70.9836 9.77329 70.9836 9.87596C70.9836 10.052 70.8809 10.1693 70.6756 10.228C70.6316 10.228 70.5802 10.25 70.5216 10.294C70.4629 10.338 70.4336 10.382 70.4336 10.426C70.4482 10.4406 70.5142 10.448 70.6316 10.448C70.8809 10.448 71.1889 10.4113 71.5556 10.338C71.9222 10.2646 72.1569 10.184 72.2596 10.096C72.3476 10.052 72.4209 10.03 72.4796 10.03L72.7876 10.074C73.0369 10.1473 73.1616 10.2353 73.1616 10.338C73.1616 10.3966 73.1836 10.4553 73.2276 10.514C73.2716 10.558 73.3229 10.58 73.3816 10.58C73.4696 10.5946 73.4549 10.6533 73.3376 10.756C73.2349 10.8586 73.0296 11.0273 72.7216 11.262C72.6482 11.306 72.5382 11.372 72.3916 11.46C72.2596 11.548 72.1789 11.6213 72.1496 11.68C72.1349 11.7386 72.1422 11.8193 72.1716 11.922C72.2302 12.054 72.2596 12.2153 72.2596 12.406C72.2596 12.89 72.0469 13.4253 71.6216 14.012C71.2109 14.5986 70.6902 15.112 70.0596 15.552C69.4436 15.992 68.8496 16.2486 68.2776 16.322ZM67.9036 15.354C67.9916 15.354 68.2116 15.266 68.5636 15.09C68.7542 14.8993 68.9082 14.782 69.0256 14.738C69.1282 14.738 69.2676 14.6646 69.4436 14.518C69.6196 14.3566 69.8909 14.0413 70.2576 13.572C70.5362 13.2493 70.7416 12.978 70.8736 12.758C71.0202 12.538 71.0936 12.3253 71.0936 12.12C71.0936 12.032 71.0862 11.966 71.0716 11.922C71.0569 11.878 71.0056 11.8413 70.9176 11.812C70.8442 11.768 70.7709 11.7313 70.6976 11.702C70.5656 11.702 70.4409 11.6726 70.3236 11.614C70.2209 11.5406 70.0669 11.4233 69.8616 11.262L69.5096 10.822L69.1356 11.196C68.7836 11.548 68.4242 12.1273 68.0576 12.934C67.6909 13.726 67.4856 14.342 67.4416 14.782C67.4269 14.9873 67.4562 15.134 67.5296 15.222C67.6176 15.2953 67.7422 15.3393 67.9036 15.354ZM75.2194 17.048C75.1314 17.004 74.9848 16.9306 74.7794 16.828C74.5888 16.7106 74.4421 16.608 74.3394 16.52C73.8701 16.0946 73.6354 15.5373 73.6354 14.848C73.6354 14.5693 73.6721 14.2686 73.7454 13.946C73.8188 13.6086 73.8554 13.418 73.8554 13.374C73.8408 13.2566 73.8701 13.132 73.9434 13C74.0168 12.8533 74.0681 12.7506 74.0974 12.692C74.4054 12.0906 74.6694 11.614 74.8894 11.262C75.1094 10.91 75.4248 10.5066 75.8354 10.052C75.8794 10.0226 75.9528 9.96396 76.0554 9.87596C76.1581 9.78796 76.2534 9.72929 76.3414 9.69996L76.8474 10.074C76.9208 10.1766 76.9574 10.272 76.9574 10.36C76.9574 10.404 76.9428 10.4846 76.9134 10.602C76.8254 10.866 76.7448 11.0493 76.6714 11.152C76.4954 11.3133 76.3414 11.4966 76.2094 11.702C76.0921 11.8926 75.9748 12.098 75.8574 12.318C75.7548 12.5233 75.6741 12.6846 75.6154 12.802C75.6154 12.89 75.5568 13 75.4394 13.132C75.3368 13.264 75.2854 13.374 75.2854 13.462C75.2854 13.594 75.2414 13.8066 75.1534 14.1C75.0654 14.2906 75.0214 14.5326 75.0214 14.826L75.0434 15.464C75.1901 15.5226 75.2854 15.552 75.3294 15.552C75.4468 15.552 75.5714 15.486 75.7034 15.354C75.9968 15.1193 76.2021 14.9066 76.3194 14.716C76.4514 14.5253 76.5688 14.2906 76.6714 14.012C76.7154 13.9386 76.7521 13.858 76.7814 13.77C76.8254 13.6673 76.8768 13.5646 76.9354 13.462C77.0968 13.154 77.2361 12.7506 77.3534 12.252C77.4854 11.7386 77.5514 11.3206 77.5514 10.998C77.5514 10.866 77.5441 10.778 77.5294 10.734V10.69L77.5514 10.426C77.5514 10.3233 77.5074 10.2353 77.4194 10.162C77.4781 10.1033 77.5074 9.97863 77.5074 9.78796C77.5074 9.64129 77.4854 9.48729 77.4414 9.32596C77.4121 9.14996 77.3754 9.02529 77.3314 8.95196C77.2874 8.21863 77.2654 7.62463 77.2654 7.16996C77.2654 6.55396 77.3094 6.01863 77.3974 5.56396C77.4121 5.50529 77.5074 5.35129 77.6834 5.10196C77.8594 4.83796 78.0134 4.63996 78.1454 4.50796C78.3948 4.30262 78.7321 4.13396 79.1574 4.00196C79.5828 3.86996 79.9568 3.81862 80.2794 3.84796C80.2648 3.86263 80.3381 3.86996 80.4994 3.86996C80.8661 3.86996 81.2914 3.84796 81.7754 3.80396C81.9368 3.77462 82.0688 3.74529 82.1714 3.71596C82.2888 3.67196 82.4721 3.57663 82.7214 3.42996C82.7801 3.38596 82.8241 3.36396 82.8534 3.36396C82.8974 3.34929 82.9488 3.34929 83.0074 3.36396L83.6014 3.86996C83.5868 4.29529 83.4768 4.60329 83.2714 4.79396C83.0808 4.98463 82.7214 5.10929 82.1934 5.16796L81.8634 5.14596C81.8048 5.14596 81.7168 5.16063 81.5994 5.18996C81.5701 5.20462 81.5334 5.21196 81.4894 5.21196C81.4308 5.21196 81.3648 5.20462 81.2914 5.18996C81.2181 5.16063 81.1521 5.14596 81.0934 5.14596C80.9761 5.14596 80.8514 5.16063 80.7194 5.18996C80.5874 5.20462 80.4554 5.21196 80.3234 5.21196C80.1914 5.21196 80.0961 5.20462 80.0374 5.18996C79.4508 5.36596 79.0254 5.57863 78.7614 5.82796C78.4974 6.07729 78.3654 6.47329 78.3654 7.01596C78.3948 7.30929 78.4534 7.70529 78.5414 8.20396C78.6734 8.86396 78.7394 9.42129 78.7394 9.87596C78.7541 9.96396 78.7761 10.052 78.8054 10.14C78.8348 10.2133 78.8494 10.272 78.8494 10.316C78.8494 10.3893 78.8274 10.448 78.7834 10.492C78.8568 10.8586 78.8934 11.174 78.8934 11.438C78.8934 11.7606 78.8494 12.01 78.7614 12.186C78.7468 12.274 78.7248 12.4646 78.6954 12.758C78.6808 13.0513 78.6074 13.33 78.4754 13.594C78.0794 14.4006 77.7054 15.0533 77.3534 15.552C77.0161 16.036 76.5981 16.4466 76.0994 16.784C76.0114 16.8426 75.8721 16.894 75.6814 16.938C75.4908 16.982 75.3368 17.0186 75.2194 17.048ZM85.859 16.916C85.7417 16.8866 85.617 16.8573 85.485 16.828C85.353 16.784 85.2137 16.74 85.067 16.696C84.9497 16.5346 84.891 16.322 84.891 16.058C84.891 15.838 84.935 15.5813 85.023 15.288C85.111 14.98 85.2063 14.6793 85.309 14.386C85.3383 14.298 85.3897 14.1293 85.463 13.88C85.551 13.6306 85.6023 13.4253 85.617 13.264C85.6023 13.22 85.5803 13.2053 85.551 13.22C85.5217 13.2346 85.507 13.2566 85.507 13.286C85.3603 13.4473 85.0377 13.5646 84.539 13.638C83.9083 13.7406 83.3583 13.858 82.889 13.99L82.603 13.77C82.4857 13.77 82.383 13.902 82.295 14.166C82.207 14.43 82.119 14.782 82.031 15.222C81.943 15.662 81.877 15.9333 81.833 16.036L81.459 16.08C81.327 16.08 81.1143 16.0286 80.821 15.926C80.689 15.7206 80.623 15.5373 80.623 15.376C80.623 15.2586 80.645 15.1266 80.689 14.98C80.7183 14.8773 80.7623 14.672 80.821 14.364C80.8943 14.056 81.0043 13.726 81.151 13.374C81.1803 13.3006 81.239 13.1686 81.327 12.978C81.415 12.7726 81.459 12.5746 81.459 12.384C81.5617 12.252 81.6423 12.0833 81.701 11.878C81.7597 11.658 81.811 11.4893 81.855 11.372L82.295 10.294C82.4417 9.91263 82.559 9.58996 82.647 9.32596C82.7497 9.06196 82.8083 8.84196 82.823 8.66596C82.8377 8.46063 82.9477 8.35796 83.153 8.35796C83.3583 8.35796 83.5637 8.44596 83.769 8.62196C83.989 8.79796 84.099 8.99596 84.099 9.21596C84.099 9.27463 84.0843 9.34796 84.055 9.43596C83.9963 9.56796 83.9377 9.72196 83.879 9.89796C83.8203 10.074 83.747 10.2646 83.659 10.47C83.3217 11.4233 83.1017 12.01 82.999 12.23C82.9843 12.274 82.955 12.3253 82.911 12.384C82.867 12.428 82.845 12.4793 82.845 12.538C82.9037 12.5966 83.0283 12.626 83.219 12.626C83.483 12.626 83.703 12.582 83.879 12.494H85.177C85.397 12.626 85.5657 12.824 85.683 13.088L86.013 12.208C86.541 10.844 86.8343 9.96396 86.893 9.56796C86.937 9.33329 87.091 9.13529 87.355 8.97396C87.443 9.01796 87.5677 9.06929 87.729 9.12796C87.905 9.18663 88.0443 9.26729 88.147 9.36996C88.2497 9.45796 88.3157 9.58263 88.345 9.74396C88.3303 9.89063 88.2937 10.0446 88.235 10.206C88.1763 10.3526 88.1397 10.448 88.125 10.492C88.081 10.624 87.9197 11.0346 87.641 11.724C87.597 11.8413 87.4797 12.1346 87.289 12.604C87.113 13.0586 86.959 13.484 86.827 13.88C86.7097 14.2613 86.629 14.5986 86.585 14.892C86.541 15.0826 86.4677 15.354 86.365 15.706C86.277 16.0433 86.211 16.2853 86.167 16.432C86.167 16.6226 86.0643 16.784 85.859 16.916ZM91.5431 17.026C91.3671 17.0406 91.2204 17.0333 91.1031 17.004C91.0004 16.96 90.8464 16.872 90.6411 16.74C90.0104 16.2266 89.7024 15.7206 89.7171 15.222C89.7318 15.178 89.7391 15.112 89.7391 15.024C89.7391 14.936 89.7318 14.87 89.7171 14.826C89.7024 14.7673 89.6951 14.7306 89.6951 14.716C89.6364 14.672 89.5998 14.6426 89.5851 14.628C89.5851 14.5986 89.5924 14.5693 89.6071 14.54C89.6364 14.5106 89.6584 14.4813 89.6731 14.452C89.7318 14.4373 89.7611 14.408 89.7611 14.364C89.7611 14.32 89.7464 14.2686 89.7171 14.21C89.6731 14.0926 89.6951 13.8286 89.7831 13.418C89.8858 12.9926 90.0178 12.5966 90.1791 12.23C90.2964 11.9513 90.4798 11.592 90.7291 11.152C90.9931 10.712 91.2351 10.3746 91.4551 10.14C91.7631 9.78796 92.0418 9.51663 92.2911 9.32596C92.5551 9.13529 92.8558 8.98129 93.1931 8.86396C93.5011 8.73196 93.7138 8.66596 93.8311 8.66596C93.9778 8.66596 94.1611 8.75396 94.3811 8.92996C94.7331 9.03263 94.9971 9.17929 95.1731 9.36996C95.3638 9.54596 95.5104 9.82463 95.6131 10.206C95.7011 10.514 95.7451 10.8586 95.7451 11.24C95.7451 12.0613 95.4884 12.9633 94.9751 13.946C94.7111 14.474 94.4544 14.8846 94.2051 15.178C93.9558 15.4566 93.6111 15.7866 93.1711 16.168C92.8631 16.4173 92.5918 16.608 92.3571 16.74C92.1371 16.872 91.8658 16.9673 91.5431 17.026ZM93.3031 14.408C93.6111 13.9533 93.8458 13.5426 94.0071 13.176C94.1684 12.7946 94.3004 12.3253 94.4031 11.768C94.4178 11.7093 94.4251 11.592 94.4251 11.416C94.4251 11.1226 94.3958 10.844 94.3371 10.58C94.2784 10.316 94.2051 10.1766 94.1171 10.162C93.9998 10.118 93.8898 10.096 93.7871 10.096C93.4498 10.096 93.0904 10.294 92.7091 10.69C92.3571 11.1006 92.0491 11.5993 91.7851 12.186C91.5358 12.758 91.2864 13.462 91.0371 14.298C90.9638 14.5913 90.9271 14.826 90.9271 15.002C90.9271 15.266 90.9784 15.4786 91.0811 15.64C91.1838 15.7866 91.3304 15.86 91.5211 15.86C91.7558 15.86 92.0271 15.7426 92.3351 15.508C92.6431 15.2586 92.9658 14.892 93.3031 14.408ZM102.335 17.114C102.232 17.1726 102.093 17.1506 101.917 17.048C101.756 16.9453 101.594 16.7913 101.433 16.586C101.316 16.3953 101.242 16.1973 101.213 15.992C101.198 15.7866 101.191 15.3613 101.191 14.716C101.191 14.5693 101.162 14.496 101.103 14.496C101.059 14.496 100.956 14.5693 100.795 14.716C100.634 14.848 100.436 15.0313 100.201 15.266C99.8196 15.6326 99.4676 15.9186 99.145 16.124C98.8223 16.3293 98.5583 16.4246 98.353 16.41C98.1916 16.41 98.0156 16.3 97.825 16.08C97.649 15.86 97.5096 15.6033 97.407 15.31C97.363 15.134 97.341 14.9286 97.341 14.694C97.341 14.078 97.4656 13.33 97.715 12.45C97.979 11.57 98.2796 10.8146 98.617 10.184C98.969 9.53863 99.277 9.21596 99.541 9.21596C99.761 9.21596 99.9663 9.45796 100.157 9.94196C100.201 10.03 100.223 10.1033 100.223 10.162C100.223 10.2646 100.164 10.3673 100.047 10.47C99.827 10.7486 99.5703 11.2473 99.277 11.966C98.9836 12.6846 98.749 13.352 98.573 13.968C98.4116 14.584 98.3823 14.892 98.485 14.892C98.6903 14.892 98.9323 14.8113 99.211 14.65C99.4896 14.4886 99.7683 14.276 100.047 14.012C100.326 13.7333 100.575 13.44 100.795 13.132C101.015 12.8093 101.286 12.3766 101.609 11.834C102.225 10.8513 102.562 10.2793 102.621 10.118C102.841 9.70729 102.995 9.44329 103.083 9.32596C103.186 9.19396 103.31 9.10596 103.457 9.06196H103.765C103.853 9.07663 103.956 9.14263 104.073 9.25996C104.176 9.30396 104.234 9.35529 104.249 9.41396C104.278 9.45796 104.293 9.52396 104.293 9.61196L103.941 10.426L103.743 10.888C103.728 10.9466 103.648 11.1153 103.501 11.394C103.164 12.142 102.907 12.7433 102.731 13.198C102.555 13.6526 102.423 14.122 102.335 14.606C102.32 14.6793 102.313 14.804 102.313 14.98C102.313 15.42 102.357 15.728 102.445 15.904C102.577 16.168 102.709 16.3586 102.841 16.476C102.914 16.5346 102.951 16.5933 102.951 16.652C102.951 16.7546 102.863 16.8573 102.687 16.96C102.526 17.0626 102.408 17.114 102.335 17.114ZM102.049 7.98396C101.154 8.08663 100.538 7.47796 100.201 6.15796C100.172 6.04063 100.157 5.95996 100.157 5.91596C100.157 5.81329 100.186 5.70329 100.245 5.58596C100.274 5.52729 100.333 5.48329 100.421 5.45396C100.509 5.42463 100.582 5.41729 100.641 5.43196C100.832 5.50529 100.978 5.60063 101.081 5.71796C101.184 5.82063 101.25 5.95263 101.279 6.11396C101.323 6.21662 101.345 6.31929 101.345 6.42196C101.462 6.78862 101.624 6.97196 101.829 6.97196C101.873 6.97196 101.983 6.94263 102.159 6.88396C102.775 6.63463 103.237 6.35596 103.545 6.04796C103.545 6.04796 103.853 5.76196 104.469 5.18996L104.491 5.16796C104.55 5.13862 104.601 5.12396 104.645 5.12396C104.748 5.12396 104.821 5.14596 104.865 5.18996C104.938 5.27796 104.982 5.35862 104.997 5.43196C105.012 5.50529 105.019 5.57863 105.019 5.65196C105.019 5.72529 105.019 5.78396 105.019 5.82796L104.997 5.87196C105.026 5.95996 104.953 6.13596 104.777 6.39996C104.601 6.64929 104.403 6.85462 104.183 7.01596C103.904 7.23596 103.442 7.50729 102.797 7.82996C102.694 7.88863 102.562 7.92529 102.401 7.93996C102.24 7.95463 102.122 7.96929 102.049 7.98396ZM21.8327 54.674C21.73 54.6593 21.6347 54.6153 21.5467 54.542C21.4733 54.4686 21.3853 54.3806 21.2827 54.278C21.1947 54.1753 21.114 54.0946 21.0407 54.036C21.026 53.8013 21.1067 53.376 21.2827 52.76C21.4587 52.1293 21.6127 51.6746 21.7447 51.396C21.7887 51.1173 21.9133 50.6773 22.1187 50.076C22.28 49.592 22.368 49.3206 22.3827 49.262C22.5293 48.6166 22.6687 48.0813 22.8007 47.656C22.8447 47.524 22.874 47.3993 22.8887 47.282C22.918 47.1646 22.9473 47.084 22.9767 47.04C23.0207 46.996 23.1233 46.93 23.2847 46.842C23.4753 46.9153 23.6367 46.952 23.7687 46.952C23.886 46.952 24.0033 46.9153 24.1207 46.842C24.1647 46.8273 24.2233 46.8273 24.2967 46.842C24.3847 46.842 24.48 46.842 24.5827 46.842H25.0887C25.4407 46.842 25.668 46.8346 25.7707 46.82C25.9173 46.8053 26.1227 46.8273 26.3867 46.886C26.6507 46.9446 26.8487 46.974 26.9807 46.974C27.494 47.1793 27.8753 47.392 28.1247 47.612C28.3887 47.8173 28.5133 48.1106 28.4987 48.492C28.484 48.6386 28.4693 48.8513 28.4547 49.13C28.44 49.4086 28.3813 49.6433 28.2787 49.834C28.264 49.922 28.154 50.2666 27.9487 50.868C27.6407 51.66 27.472 52.1953 27.4427 52.474C27.428 52.5326 27.3913 52.6206 27.3327 52.738C27.274 52.8553 27.2447 52.958 27.2447 53.046C27.2447 53.2073 27.2153 53.4053 27.1567 53.64C27.1127 53.86 27.0467 54.0213 26.9587 54.124C26.8413 54.2413 26.7093 54.3 26.5627 54.3C26.3573 54.3 26.174 54.2266 26.0127 54.08C25.8513 53.9186 25.778 53.7426 25.7927 53.552C25.7927 53.2 25.822 52.76 25.8807 52.232C25.998 52.1146 26.0567 51.9973 26.0567 51.88C26.0713 51.748 26.0787 51.6673 26.0787 51.638C26.2693 51.1686 26.4527 50.6113 26.6287 49.966C26.8047 49.306 26.8927 48.7926 26.8927 48.426C26.8927 48.2793 26.8853 48.184 26.8707 48.14C26.5187 48.14 26.0347 48.162 25.4187 48.206C24.8027 48.25 24.458 48.272 24.3847 48.272C24.326 48.2866 24.2747 48.3233 24.2307 48.382C24.1867 48.426 24.1647 48.47 24.1647 48.514C24.1207 48.7926 24.0107 49.1593 23.8347 49.614C23.8053 49.7166 23.754 49.878 23.6807 50.098C23.6073 50.3033 23.556 50.4866 23.5267 50.648C23.512 50.7213 23.402 51.0586 23.1967 51.66C22.8447 52.584 22.6613 53.178 22.6467 53.442C22.5293 53.6473 22.4707 53.9333 22.4707 54.3C22.456 54.4173 22.4047 54.498 22.3167 54.542C22.2287 54.5713 22.0673 54.6153 21.8327 54.674ZM31.2629 54.828C31.0869 54.828 30.9476 54.7986 30.8449 54.74C30.7423 54.6813 30.5956 54.5713 30.4049 54.41C29.9209 53.8966 29.6789 53.4273 29.6789 53.002C29.6789 52.8993 29.6863 52.826 29.7009 52.782C29.7449 52.6793 29.7596 52.5766 29.7449 52.474C29.7449 52.3713 29.7449 52.3053 29.7449 52.276C29.6863 52.2173 29.6569 52.1806 29.6569 52.166C29.6569 52.1366 29.6716 52.1146 29.7009 52.1C29.7303 52.0706 29.7523 52.0413 29.7669 52.012C29.8549 52.012 29.8843 51.9313 29.8549 51.77C29.8256 51.6526 29.8843 51.396 30.0309 51C30.1776 50.5893 30.3609 50.2153 30.5809 49.878C30.7423 49.614 30.9769 49.284 31.2849 48.888C31.6076 48.492 31.8936 48.1913 32.1429 47.986C32.4949 47.678 32.8103 47.4506 33.0889 47.304C33.3676 47.1573 33.6756 47.0473 34.0129 46.974C34.3063 46.9006 34.5043 46.864 34.6069 46.864C34.7096 46.864 34.7976 46.8933 34.8709 46.952C34.9589 46.996 35.0689 47.084 35.2009 47.216C35.5969 47.392 35.8683 47.6193 36.0149 47.898C36.1763 48.162 36.2569 48.58 36.2569 49.152C36.2569 50.1053 35.8683 51.1393 35.0909 52.254C34.7536 52.738 34.4383 53.112 34.1449 53.376C33.8516 53.6253 33.4629 53.8966 32.9789 54.19C32.6709 54.41 32.3849 54.5713 32.1209 54.674C31.8716 54.762 31.5856 54.8133 31.2629 54.828ZM33.3749 52.496C33.7269 52.1 34.0056 51.726 34.2109 51.374C34.4309 51.022 34.6363 50.5746 34.8269 50.032C34.9003 49.7826 34.9369 49.482 34.9369 49.13C34.9369 48.69 34.8783 48.4406 34.7609 48.382C34.6143 48.3086 34.4676 48.272 34.3209 48.272C33.9983 48.272 33.6609 48.4186 33.3089 48.712C32.8836 49.0786 32.5023 49.5333 32.1649 50.076C31.8276 50.604 31.4829 51.264 31.1309 52.056C30.9843 52.364 30.9109 52.6646 30.9109 52.958C30.9109 53.178 30.9623 53.354 31.0649 53.486C31.1823 53.618 31.3363 53.684 31.5269 53.684C32.0109 53.684 32.6269 53.288 33.3749 52.496ZM48.4609 54.344C48.2116 54.3 48.0062 54.1826 47.8449 53.992C47.6836 53.7866 47.6029 53.5666 47.6029 53.332C47.6029 53.2586 47.6176 53.1633 47.6469 53.046C47.8229 52.474 47.9402 51.99 47.9989 51.594C48.0282 51.418 48.0942 51.2053 48.1969 50.956C48.3289 50.56 48.4316 50.2373 48.5049 49.988C48.5782 49.7386 48.6149 49.4966 48.6149 49.262C48.6149 48.91 48.5049 48.6606 48.2849 48.514C48.0942 48.3966 47.9036 48.316 47.7129 48.272C47.5222 48.2133 47.2876 48.162 47.0089 48.118C46.8036 48.0886 46.6496 48.0593 46.5469 48.03C46.5029 48.0153 46.4296 48.0153 46.3269 48.03C46.2389 48.0446 46.1436 48.052 46.0409 48.052C45.9382 48.052 45.8649 48.0446 45.8209 48.03C45.6889 48.514 45.6082 48.8366 45.5789 48.998C45.3442 49.7606 45.2122 50.1933 45.1829 50.296C45.0802 50.736 44.9849 51.1026 44.8969 51.396C44.8236 51.6746 44.7209 52.0266 44.5889 52.452C44.5596 52.54 44.5229 52.672 44.4789 52.848C44.4496 53.0093 44.3982 53.1486 44.3249 53.266C44.2956 53.3393 44.2809 53.4053 44.2809 53.464C44.2809 53.508 44.2809 53.5446 44.2809 53.574C44.2809 53.7646 44.1929 53.926 44.0169 54.058C43.9436 54.102 43.8629 54.1386 43.7749 54.168C43.7016 54.1973 43.6282 54.234 43.5549 54.278C43.4229 54.1753 43.3129 54.058 43.2249 53.926C43.1369 53.794 43.0562 53.6766 42.9829 53.574C43.3056 52.122 43.5182 51.33 43.6209 51.198C43.6502 51.154 43.6942 50.9926 43.7529 50.714C43.8262 50.3473 43.8922 50.098 43.9509 49.966C43.9362 49.8046 43.9656 49.636 44.0389 49.46C44.1269 49.2693 44.1782 49.1446 44.1929 49.086C44.2662 48.8806 44.3322 48.558 44.3909 48.118C44.4056 47.9273 44.4422 47.6926 44.5009 47.414C44.6622 47.3113 44.7796 47.2526 44.8529 47.238C44.9262 47.2086 45.0729 47.1793 45.2929 47.15L45.3809 46.864C45.6009 46.7026 45.9236 46.622 46.3489 46.622C46.6716 46.622 46.9722 46.6733 47.2509 46.776C47.3096 46.7906 47.3536 46.8053 47.3829 46.82C47.4122 46.82 47.4489 46.82 47.4929 46.82C47.6982 46.8346 47.9622 46.93 48.2849 47.106C48.6222 47.2673 48.8789 47.4286 49.0549 47.59C49.5829 48.074 49.8469 48.7193 49.8469 49.526C49.8469 50.1126 49.6856 50.8753 49.3629 51.814C49.3336 51.8873 49.2822 52.056 49.2089 52.32C49.1502 52.584 49.1209 52.7453 49.1209 52.804C49.1209 52.936 49.1429 53.0606 49.1869 53.178C49.2456 53.2953 49.3336 53.4273 49.4509 53.574C49.4216 53.6766 49.3556 53.794 49.2529 53.926C49.1649 54.0433 49.0696 54.102 48.9669 54.102C48.8789 54.102 48.7836 54.1386 48.6809 54.212C48.5929 54.2853 48.5196 54.3293 48.4609 54.344ZM50.9918 60.064C50.8304 60.0053 50.6691 59.8733 50.5078 59.668C50.3464 59.4773 50.2658 59.316 50.2658 59.184C50.2658 58.964 50.4124 58.238 50.7058 57.006C50.9991 55.7886 51.2851 54.7986 51.5638 54.036C51.5784 53.9773 51.6738 53.7353 51.8498 53.31C52.0258 52.8846 52.1944 52.3713 52.3558 51.77C52.4731 51.3446 52.7811 50.516 53.2798 49.284L53.9178 47.7L54.4238 46.314C54.4678 46.1966 54.5411 46.094 54.6438 46.006C54.7611 45.9033 54.8638 45.8373 54.9518 45.808C54.9811 45.7933 55.0324 45.786 55.1058 45.786C55.3111 45.786 55.4871 45.9033 55.6338 46.138C55.6778 46.226 55.6998 46.314 55.6998 46.402C55.6998 46.5486 55.6118 46.8346 55.4358 47.26L55.2818 47.7L56.0738 47.524C56.2791 47.524 56.4478 47.5313 56.5798 47.546C57.1078 47.546 57.4378 47.5606 57.5698 47.59C57.8924 47.6046 58.1198 47.6633 58.2518 47.766C58.3984 47.8686 58.5378 48.03 58.6698 48.25C58.9338 48.4993 59.0804 48.7193 59.1098 48.91C59.1391 49.086 59.1538 49.2253 59.1538 49.328C59.1538 49.7973 59.0144 50.2813 58.7358 50.78C58.4571 51.264 58.1271 51.6306 57.7458 51.88C57.5991 51.9386 57.4744 51.9973 57.3718 52.056C57.2691 52.1146 57.2031 52.1513 57.1738 52.166C57.1444 52.2833 56.8071 52.474 56.1618 52.738C55.5311 52.9873 55.0104 53.1413 54.5998 53.2C54.4531 53.2293 54.2844 53.244 54.0938 53.244C53.9324 53.244 53.8078 53.222 53.7198 53.178C53.5438 53.1486 53.4264 53.134 53.3678 53.134C53.3238 53.134 53.3018 53.1633 53.3018 53.222C52.9351 54.3073 52.6344 55.2973 52.3998 56.192C51.8864 57.7466 51.5418 58.7586 51.3658 59.228C51.1898 59.712 51.0651 59.9906 50.9918 60.064ZM53.7418 51.946C53.7564 52.0046 53.8371 52.034 53.9838 52.034C54.2918 52.034 54.7611 51.8946 55.3918 51.616C56.0371 51.3226 56.5431 51.022 56.9098 50.714C57.2178 50.3473 57.4524 50.0466 57.6138 49.812C57.7898 49.5626 57.8778 49.372 57.8778 49.24C57.8778 49.1813 57.8484 49.1226 57.7898 49.064C57.6431 48.844 57.3791 48.734 56.9978 48.734C56.5138 48.734 55.9344 48.9173 55.2598 49.284C54.9664 49.3866 54.7538 49.526 54.6218 49.702C54.5044 49.8633 54.3944 50.0686 54.2918 50.318C54.1891 50.5673 54.1084 50.758 54.0498 50.89C53.8151 51.4473 53.7124 51.7993 53.7418 51.946ZM66.4342 54.894C65.9796 54.7326 65.6129 54.4173 65.3342 53.948C65.0556 53.4786 64.8796 52.98 64.8062 52.452C64.7769 52.4373 64.6082 52.5913 64.3002 52.914C63.8016 53.4273 63.3469 53.8526 62.9362 54.19C62.5256 54.5126 62.1442 54.652 61.7922 54.608C61.5282 54.4466 61.2862 54.2633 61.0662 54.058C60.9342 53.926 60.8536 53.8013 60.8242 53.684C60.6482 53.1706 60.5602 52.7306 60.5602 52.364C60.5602 52.0706 60.5896 51.792 60.6482 51.528C60.7216 51.2493 60.8462 50.846 61.0222 50.318C61.0516 50.23 61.2129 49.6873 61.5062 48.69C61.8142 47.678 62.0416 47.1133 62.1882 46.996L62.4742 46.974C62.6209 46.974 62.7309 47.0253 62.8042 47.128C62.8336 47.1866 62.9142 47.26 63.0462 47.348C63.1929 47.436 63.2662 47.5386 63.2662 47.656C63.2662 47.876 63.1049 48.4333 62.7822 49.328C62.5182 50.076 62.3129 50.6993 62.1662 51.198C62.0196 51.682 61.9462 52.122 61.9462 52.518C61.9462 52.7233 61.9682 52.9066 62.0122 53.068C62.1002 53.068 62.2396 52.98 62.4302 52.804C62.6356 52.6133 62.7822 52.4813 62.8702 52.408C63.0609 52.2906 63.3616 52.0046 63.7722 51.55C64.1976 51.0806 64.4909 50.7213 64.6522 50.472C64.7989 50.2373 65.0042 49.8046 65.2682 49.174C65.5469 48.5433 65.6862 48.118 65.6862 47.898C65.6862 47.7366 65.7082 47.612 65.7522 47.524C65.7962 47.436 65.8769 47.3553 65.9942 47.282C66.2142 47.282 66.3756 47.2893 66.4782 47.304C66.5809 47.4213 66.6836 47.5313 66.7862 47.634C66.9036 47.722 66.9989 47.8026 67.0722 47.876C67.1016 47.9933 67.1162 48.0813 67.1162 48.14C67.1162 48.4333 66.9769 48.9833 66.6982 49.79C66.5076 50.3326 66.3609 50.7873 66.2582 51.154C66.1702 51.5206 66.1262 51.88 66.1262 52.232C66.1262 52.7746 66.2802 53.2293 66.5882 53.596C66.8229 53.4933 67.0282 53.3833 67.2042 53.266C67.3802 53.1486 67.5416 53.0313 67.6882 52.914C67.8496 52.7673 68.0916 52.5913 68.4142 52.386C68.5462 52.4593 68.6489 52.628 68.7222 52.892C68.8102 53.1413 68.8542 53.3613 68.8542 53.552C68.6929 53.684 68.5976 53.772 68.5682 53.816C68.4509 54.08 68.1869 54.3366 67.7762 54.586C67.3802 54.8206 67.0209 54.938 66.6982 54.938C66.6396 54.938 66.5516 54.9233 66.4342 54.894ZM78.8056 55.092C78.7176 55.048 78.6076 54.9746 78.4756 54.872C78.3436 54.7546 78.2189 54.6593 78.1016 54.586C78.0723 54.4686 78.0136 54.2853 77.9256 54.036C77.8523 53.772 77.8229 53.5373 77.8376 53.332C77.8376 53.2586 77.8156 53.1413 77.7716 52.98C77.7423 52.804 77.7496 52.672 77.7936 52.584L77.7716 52.32C77.7716 51.792 77.8963 50.9706 78.1456 49.856C78.1016 49.7973 78.0576 49.7606 78.0136 49.746C77.9843 49.7313 77.9403 49.7533 77.8816 49.812C77.6909 49.988 77.4123 50.2886 77.0456 50.714C77.0163 50.7433 76.9576 50.7946 76.8696 50.868C76.7816 50.9266 76.7376 51.0073 76.7376 51.11L75.9456 52.166C75.8869 52.254 75.7769 52.408 75.6156 52.628C75.4543 52.8333 75.3369 53.046 75.2636 53.266C75.2196 53.3833 75.1463 53.486 75.0436 53.574C74.9556 53.6473 74.9043 53.6913 74.8896 53.706C74.8163 53.6766 74.7283 53.6473 74.6256 53.618C74.5376 53.5886 74.4643 53.552 74.4056 53.508C74.3469 53.4493 74.2736 53.376 74.1856 53.288C73.8923 53.0093 73.7749 52.7453 73.8336 52.496C73.8189 52.3493 73.8116 52.2026 73.8116 52.056C73.8263 51.9093 73.8336 51.7773 73.8336 51.66C73.8483 51.484 73.8556 51.22 73.8556 50.868C73.8556 50.1933 73.8189 49.7753 73.7456 49.614C73.5843 49.6286 73.4743 49.6506 73.4156 49.68C73.3569 49.7093 73.2836 49.7973 73.1956 49.944C73.1663 50.0026 73.0783 50.142 72.9316 50.362C72.7996 50.5673 72.6236 50.824 72.4036 51.132C72.1836 51.4693 71.8976 51.902 71.5456 52.43C71.2083 52.958 71.0469 53.2146 71.0616 53.2C70.8856 53.4053 70.7389 53.6693 70.6216 53.992C70.4603 54.3586 70.2989 54.4613 70.1376 54.3C69.8296 54.1386 69.6023 53.9993 69.4556 53.882C69.3236 53.6473 69.2503 53.4126 69.2356 53.178C69.2796 53.1633 69.3309 53.1413 69.3896 53.112C69.4483 53.068 69.4923 53.0313 69.5216 53.002C69.5509 52.9726 69.5729 52.936 69.5876 52.892L71.2596 50.45L71.5456 50.032C71.6189 49.8853 71.8169 49.6066 72.1396 49.196C72.1689 49.1226 72.3083 48.9246 72.5576 48.602C72.8216 48.2793 72.9976 48.096 73.0856 48.052C73.1589 48.008 73.2176 47.9346 73.2616 47.832C73.3203 47.7146 73.3569 47.6413 73.3716 47.612C73.4156 47.3773 73.5696 47.26 73.8336 47.26C73.9216 47.26 73.9876 47.2673 74.0316 47.282L74.8896 47.942C74.8749 48.0006 74.8676 48.096 74.8676 48.228C74.8676 48.4333 74.9263 48.7413 75.0436 49.152C75.0289 49.196 75.0216 49.262 75.0216 49.35C75.0216 49.4673 75.0289 49.5846 75.0436 49.702C75.0729 49.8046 75.0876 49.9146 75.0876 50.032C75.0876 50.12 75.0803 50.186 75.0656 50.23C75.0656 50.5086 75.1389 50.648 75.2856 50.648C75.3883 50.648 75.5129 50.5746 75.6596 50.428C76.0703 49.9146 76.8476 49.086 77.9916 47.942C78.4169 47.5166 78.6443 47.282 78.6736 47.238C78.7176 47.1646 78.7909 47.128 78.8936 47.128C78.9669 47.128 79.0256 47.1426 79.0696 47.172C79.2749 47.2746 79.4289 47.3626 79.5316 47.436C79.6489 47.5093 79.7883 47.6266 79.9496 47.788C80.0376 47.8906 80.0816 48.0006 80.0816 48.118C80.0816 48.1913 80.0596 48.2646 80.0156 48.338C79.8836 48.646 79.7076 49.2546 79.4876 50.164C79.2676 51.0586 79.1503 51.6893 79.1356 52.056C79.1356 52.1586 79.1209 52.32 79.0916 52.54C79.0769 52.7453 79.0696 52.9286 79.0696 53.09C79.0696 53.4126 79.0989 53.6986 79.1576 53.948C79.2309 54.2266 79.2676 54.4613 79.2676 54.652C79.2676 54.7986 79.2309 54.9013 79.1576 54.96C79.0989 55.0186 78.9816 55.0626 78.8056 55.092ZM83.0838 54.63C82.6144 54.4393 82.2844 54.1973 82.0938 53.904C81.9031 53.596 81.8078 53.1706 81.8078 52.628C81.8078 52.364 81.8298 52.056 81.8738 51.704L81.9178 50.912C81.9178 50.78 81.9031 50.6773 81.8738 50.604C81.8444 50.5306 81.7784 50.45 81.6758 50.362C81.6464 50.3326 81.5731 50.2593 81.4558 50.142C81.3384 50.0246 81.2871 49.9293 81.3018 49.856L81.2798 49.746C81.2798 49.6433 81.2944 49.548 81.3238 49.46C81.3678 49.372 81.4118 49.328 81.4558 49.328C81.4998 49.328 81.5584 49.3206 81.6318 49.306C81.7051 49.2766 81.7711 49.2693 81.8298 49.284C82.0351 49.284 82.1378 49.328 82.1378 49.416C82.1964 49.5333 82.2918 49.548 82.4238 49.46C82.5704 49.3573 82.7098 49.1666 82.8418 48.888C83.0471 48.5653 83.3478 48.228 83.7438 47.876C84.1544 47.5093 84.4918 47.2526 84.7558 47.106C84.8584 47.0473 85.0271 46.996 85.2618 46.952C85.4964 46.8933 85.7018 46.864 85.8778 46.864C86.1418 46.864 86.3691 46.9226 86.5598 47.04C86.7651 47.1573 86.9704 47.326 87.1758 47.546C87.4544 47.7513 87.5938 48.074 87.5938 48.514C87.5938 48.822 87.5204 49.1373 87.3738 49.46C87.3151 49.68 87.0804 49.9586 86.6698 50.296C86.2738 50.6333 85.9071 50.868 85.5698 51C85.1591 51.1026 84.6898 51.154 84.1618 51.154C83.8098 51.154 83.5824 51.1246 83.4798 51.066C83.3038 50.9633 83.1791 51.3593 83.1058 52.254C83.0911 52.3566 83.0838 52.496 83.0838 52.672C83.0838 52.9213 83.1204 53.1193 83.1938 53.266C83.2084 53.2806 83.2598 53.3393 83.3478 53.442C83.4358 53.53 83.5458 53.6106 83.6778 53.684C83.8098 53.7426 83.9491 53.772 84.0958 53.772C84.2278 53.772 84.3304 53.7573 84.4038 53.728C84.5651 53.684 84.7191 53.6033 84.8658 53.486C85.0124 53.354 85.2178 53.156 85.4818 52.892C85.7164 52.6573 85.8851 52.496 85.9878 52.408C86.0611 52.276 86.2078 52.21 86.4278 52.21C86.4864 52.21 86.5891 52.2246 86.7358 52.254C86.8678 52.3566 86.9338 52.4666 86.9338 52.584C86.9338 52.7013 86.8604 52.9213 86.7138 53.244C86.6404 53.3906 86.4571 53.596 86.1638 53.86C85.8851 54.1093 85.6358 54.3073 85.4158 54.454C84.9611 54.7033 84.5064 54.828 84.0518 54.828C83.7731 54.828 83.4504 54.762 83.0838 54.63ZM84.3818 50.164C84.5284 50.1346 84.7411 50.098 85.0198 50.054C85.2984 50.01 85.5258 49.9146 85.7018 49.768C85.8924 49.6066 86.1124 49.3353 86.3618 48.954C86.4058 48.8366 86.4278 48.7193 86.4278 48.602C86.4278 48.382 86.3838 48.228 86.2958 48.14C86.1931 48.0373 86.0758 47.986 85.9438 47.986C85.7384 47.986 85.5258 48.074 85.3058 48.25C85.1591 48.294 84.9391 48.4553 84.6458 48.734C84.3671 49.0126 84.1251 49.2913 83.9198 49.57C83.7144 49.834 83.6484 49.988 83.7218 50.032C83.6924 50.076 83.7658 50.1126 83.9418 50.142C84.1178 50.1566 84.2644 50.164 84.3818 50.164ZM94.066 54.916C93.9487 54.8866 93.824 54.8573 93.692 54.828C93.56 54.784 93.4207 54.74 93.274 54.696C93.1567 54.5346 93.098 54.322 93.098 54.058C93.098 53.838 93.142 53.5813 93.23 53.288C93.318 52.98 93.4134 52.6793 93.516 52.386C93.5454 52.298 93.5967 52.1293 93.67 51.88C93.758 51.6306 93.8094 51.4253 93.824 51.264C93.8094 51.22 93.7874 51.2053 93.758 51.22C93.7287 51.2346 93.714 51.2566 93.714 51.286C93.5674 51.4473 93.2447 51.5646 92.746 51.638C92.1154 51.7406 91.5654 51.858 91.096 51.99L90.81 51.77C90.6927 51.77 90.59 51.902 90.502 52.166C90.414 52.43 90.326 52.782 90.238 53.222C90.15 53.662 90.084 53.9333 90.04 54.036L89.666 54.08C89.534 54.08 89.3214 54.0286 89.028 53.926C88.896 53.7206 88.83 53.5373 88.83 53.376C88.83 53.2586 88.852 53.1266 88.896 52.98C88.9254 52.8773 88.9694 52.672 89.028 52.364C89.1014 52.056 89.2114 51.726 89.358 51.374C89.3874 51.3006 89.446 51.1686 89.534 50.978C89.622 50.7726 89.666 50.5746 89.666 50.384C89.7687 50.252 89.8494 50.0833 89.908 49.878C89.9667 49.658 90.018 49.4893 90.062 49.372L90.502 48.294C90.6487 47.9126 90.766 47.59 90.854 47.326C90.9567 47.062 91.0154 46.842 91.03 46.666C91.0447 46.4606 91.1547 46.358 91.36 46.358C91.5654 46.358 91.7707 46.446 91.976 46.622C92.196 46.798 92.306 46.996 92.306 47.216C92.306 47.2746 92.2914 47.348 92.262 47.436C92.2034 47.568 92.1447 47.722 92.086 47.898C92.0274 48.074 91.954 48.2646 91.866 48.47C91.5287 49.4233 91.3087 50.01 91.206 50.23C91.1914 50.274 91.162 50.3253 91.118 50.384C91.074 50.428 91.052 50.4793 91.052 50.538C91.1107 50.5966 91.2354 50.626 91.426 50.626C91.69 50.626 91.91 50.582 92.086 50.494H93.384C93.604 50.626 93.7727 50.824 93.89 51.088L94.22 50.208C94.748 48.844 95.0414 47.964 95.1 47.568C95.144 47.3333 95.298 47.1353 95.562 46.974C95.65 47.018 95.7747 47.0693 95.936 47.128C96.112 47.1866 96.2514 47.2673 96.354 47.37C96.4567 47.458 96.5227 47.5826 96.552 47.744C96.5374 47.8906 96.5007 48.0446 96.442 48.206C96.3834 48.3526 96.3467 48.448 96.332 48.492C96.288 48.624 96.1267 49.0346 95.848 49.724C95.804 49.8413 95.6867 50.1346 95.496 50.604C95.32 51.0586 95.166 51.484 95.034 51.88C94.9167 52.2613 94.836 52.5986 94.792 52.892C94.748 53.0826 94.6747 53.354 94.572 53.706C94.484 54.0433 94.418 54.2853 94.374 54.432C94.374 54.6226 94.2714 54.784 94.066 54.916ZM101.4 54.388C101.033 54.7106 100.593 54.872 100.08 54.872C99.7135 54.872 99.3615 54.784 99.0241 54.608C98.7015 54.432 98.4301 54.19 98.2101 53.882C98.0195 53.6473 97.8801 53.3833 97.7921 53.09C97.7041 52.7966 97.6601 52.4373 97.6601 52.012C97.6601 51.8653 97.6748 51.572 97.7041 51.132C97.7481 50.5893 97.9241 50.0246 98.2321 49.438C98.5548 48.8513 98.9508 48.3306 99.4201 47.876C99.8895 47.4066 100.351 47.084 100.806 46.908C101.041 46.7613 101.253 46.688 101.444 46.688C101.547 46.688 101.649 46.6953 101.752 46.71C101.855 46.7246 101.965 46.7393 102.082 46.754C102.405 46.798 102.647 46.864 102.808 46.952C102.984 47.0253 103.131 47.1426 103.248 47.304C103.615 47.6706 103.798 48.096 103.798 48.58C103.739 48.932 103.512 49.3353 103.116 49.79C102.72 50.2446 102.243 50.6113 101.686 50.89C101.422 50.978 101.121 51.022 100.784 51.022C100.329 51.022 99.9628 50.9266 99.6841 50.736C99.5521 50.692 99.4495 50.67 99.3761 50.67C99.2441 50.67 99.1415 50.758 99.0681 50.934C99.0095 51.11 98.9508 51.4326 98.8921 51.902C98.8775 52.0046 98.8701 52.1513 98.8701 52.342C98.8701 53.09 99.1195 53.5006 99.6181 53.574C99.9555 53.6473 100.197 53.684 100.344 53.684C100.52 53.684 100.718 53.6253 100.938 53.508L101.356 53.266C101.444 53.222 101.525 53.1633 101.598 53.09C101.671 53.0166 101.737 52.9506 101.796 52.892C101.825 52.8626 101.869 52.8186 101.928 52.76C101.987 52.6866 102.038 52.6426 102.082 52.628C102.141 52.5986 102.192 52.584 102.236 52.584C102.295 52.584 102.361 52.6206 102.434 52.694C102.507 52.7526 102.566 52.7966 102.61 52.826C102.742 52.826 102.771 52.9213 102.698 53.112C102.625 53.288 102.463 53.5006 102.214 53.75C101.979 53.9846 101.708 54.1973 101.4 54.388ZM101.378 49.724C101.627 49.6213 101.877 49.438 102.126 49.174C102.39 48.91 102.522 48.69 102.522 48.514C102.522 48.338 102.456 48.1913 102.324 48.074C102.192 47.9566 102.009 47.898 101.774 47.898C101.598 47.898 101.466 47.9126 101.378 47.942C101.173 48.0006 100.931 48.162 100.652 48.426C100.373 48.6753 100.131 48.932 99.9261 49.196C99.7208 49.46 99.6401 49.614 99.6841 49.658C99.7575 49.79 100.043 49.856 100.542 49.856C100.879 49.856 101.158 49.812 101.378 49.724ZM105.826 54.652C105.782 54.6373 105.658 54.6153 105.452 54.586C105.247 54.542 105.071 54.4833 104.924 54.41C104.792 54.322 104.726 54.212 104.726 54.08C104.726 53.816 104.792 53.6253 104.924 53.508L104.968 53.398C104.968 53.3393 104.954 53.2733 104.924 53.2C104.895 53.1266 104.895 53.0533 104.924 52.98C104.939 52.936 104.976 52.8406 105.034 52.694C105.093 52.5326 105.122 52.3493 105.122 52.144C105.122 52.056 105.13 51.99 105.144 51.946C105.203 51.7846 105.276 51.528 105.364 51.176C105.526 50.6186 105.658 50.2226 105.76 49.988C106.332 48.7853 106.794 47.7073 107.146 46.754C107.249 46.5046 107.388 46.38 107.564 46.38C107.726 46.38 107.902 46.468 108.092 46.644C108.298 46.8053 108.452 46.974 108.554 47.15C107.718 48.69 107.242 49.658 107.124 50.054C107.315 50.0686 107.542 50.0686 107.806 50.054C107.909 50.0393 108.07 50.032 108.29 50.032C108.481 50.032 108.62 50.0393 108.708 50.054C108.811 50.0686 108.958 50.076 109.148 50.076C109.368 50.076 109.786 50.032 110.402 49.944L110.622 49.262C110.798 48.6606 110.967 48.1766 111.128 47.81C111.29 47.4286 111.517 47.1426 111.81 46.952C111.854 46.9373 111.913 46.93 111.986 46.93C112.089 46.93 112.199 46.9813 112.316 47.084C112.375 47.128 112.456 47.194 112.558 47.282C112.661 47.3553 112.734 47.4213 112.778 47.48C112.822 47.524 112.844 47.5753 112.844 47.634C112.844 47.7366 112.749 47.9273 112.558 48.206C112.47 48.338 112.397 48.5213 112.338 48.756C112.25 49.02 112.17 49.2033 112.096 49.306C112.038 49.3793 111.818 49.966 111.436 51.066C111.055 52.166 110.857 52.7746 110.842 52.892L110.776 53.332C110.718 53.6546 110.688 53.904 110.688 54.08C110.688 54.3 110.571 54.41 110.336 54.41C110.072 54.41 109.779 54.3073 109.456 54.102C109.339 54.0286 109.266 53.8673 109.236 53.618C109.324 53.266 109.464 52.826 109.654 52.298L109.896 51.55C109.955 51.4033 109.955 51.286 109.896 51.198C109.588 51.154 109.288 51.132 108.994 51.132C108.672 51.132 108.202 51.1613 107.586 51.22L106.948 51.264C106.831 51.3813 106.648 51.902 106.398 52.826C106.34 52.9873 106.296 53.134 106.266 53.266C106.281 53.4273 106.237 53.6766 106.134 54.014C106.032 54.3366 105.929 54.5493 105.826 54.652ZM119.952 54.894C119.497 54.7326 119.13 54.4173 118.852 53.948C118.573 53.4786 118.397 52.98 118.324 52.452C118.294 52.4373 118.126 52.5913 117.818 52.914C117.319 53.4273 116.864 53.8526 116.454 54.19C116.043 54.5126 115.662 54.652 115.31 54.608C115.046 54.4466 114.804 54.2633 114.584 54.058C114.452 53.926 114.371 53.8013 114.342 53.684C114.166 53.1706 114.078 52.7306 114.078 52.364C114.078 52.0706 114.107 51.792 114.166 51.528C114.239 51.2493 114.364 50.846 114.54 50.318C114.569 50.23 114.73 49.6873 115.024 48.69C115.332 47.678 115.559 47.1133 115.706 46.996L115.992 46.974C116.138 46.974 116.248 47.0253 116.322 47.128C116.351 47.1866 116.432 47.26 116.564 47.348C116.71 47.436 116.784 47.5386 116.784 47.656C116.784 47.876 116.622 48.4333 116.3 49.328C116.036 50.076 115.83 50.6993 115.684 51.198C115.537 51.682 115.464 52.122 115.464 52.518C115.464 52.7233 115.486 52.9066 115.53 53.068C115.618 53.068 115.757 52.98 115.948 52.804C116.153 52.6133 116.3 52.4813 116.388 52.408C116.578 52.2906 116.879 52.0046 117.29 51.55C117.715 51.0806 118.008 50.7213 118.17 50.472C118.316 50.2373 118.522 49.8046 118.786 49.174C119.064 48.5433 119.204 48.118 119.204 47.898C119.204 47.7366 119.226 47.612 119.27 47.524C119.314 47.436 119.394 47.3553 119.512 47.282C119.732 47.282 119.893 47.2893 119.996 47.304C120.098 47.4213 120.201 47.5313 120.304 47.634C120.421 47.722 120.516 47.8026 120.59 47.876C120.619 47.9933 120.634 48.0813 120.634 48.14C120.634 48.4333 120.494 48.9833 120.216 49.79C120.025 50.3326 119.878 50.7873 119.776 51.154C119.688 51.5206 119.644 51.88 119.644 52.232C119.644 52.7746 119.798 53.2293 120.106 53.596C120.34 53.4933 120.546 53.3833 120.722 53.266C120.898 53.1486 121.059 53.0313 121.206 52.914C121.367 52.7673 121.609 52.5913 121.932 52.386C122.064 52.4593 122.166 52.628 122.24 52.892C122.328 53.1413 122.372 53.3613 122.372 53.552C122.21 53.684 122.115 53.772 122.086 53.816C121.968 54.08 121.704 54.3366 121.294 54.586C120.898 54.8206 120.538 54.938 120.216 54.938C120.157 54.938 120.069 54.9233 119.952 54.894ZM134.347 48.206C134.435 48.558 134.479 48.9026 134.479 49.24C134.479 50.12 134.23 51.0073 133.731 51.902C133.247 52.782 132.639 53.5373 131.905 54.168C131.231 54.7253 130.659 55.004 130.189 55.004C129.881 55.004 129.61 54.916 129.375 54.74C129.126 54.564 128.906 54.3366 128.715 54.058C128.525 53.7646 128.437 53.486 128.451 53.222C128.466 53.1633 128.473 53.0753 128.473 52.958C128.473 52.8553 128.459 52.7746 128.429 52.716C128.327 52.6573 128.319 52.5693 128.407 52.452C128.495 52.4373 128.525 52.4006 128.495 52.342C128.466 52.2686 128.451 52.2246 128.451 52.21C128.437 52.1806 128.429 52.122 128.429 52.034C128.429 51.7553 128.51 51.374 128.671 50.89C128.627 50.89 128.576 50.9046 128.517 50.934C128.268 51.022 127.938 51.066 127.527 51.066C127.073 51.066 126.691 51.1173 126.383 51.22C126.295 51.484 126.149 51.88 125.943 52.408C125.533 53.42 125.276 54.2046 125.173 54.762C125.159 54.8646 125.129 54.938 125.085 54.982C125.041 55.026 124.968 55.0626 124.865 55.092C124.792 55.1213 124.697 55.136 124.579 55.136C124.477 55.136 124.389 55.114 124.315 55.07C124.257 55.026 124.191 54.96 124.117 54.872C124.044 54.784 123.978 54.7106 123.919 54.652C123.89 54.476 123.875 54.3513 123.875 54.278C123.875 54.0433 123.934 53.794 124.051 53.53C124.301 53.0313 124.579 52.32 124.887 51.396C124.697 51.0733 124.535 50.7873 124.403 50.538C124.535 50.2593 124.645 50.0906 124.733 50.032C124.821 49.9733 125.027 49.922 125.349 49.878C125.452 49.746 125.547 49.548 125.635 49.284C125.738 49.0053 125.819 48.7633 125.877 48.558C125.951 48.3526 126.009 48.184 126.053 48.052C126.244 47.3773 126.405 46.864 126.537 46.512C126.684 46.16 126.853 45.9326 127.043 45.83C127.087 45.83 127.183 45.8446 127.329 45.874C127.491 45.8886 127.623 45.9253 127.725 45.984C127.843 46.0426 127.909 46.1233 127.923 46.226C127.967 46.4313 127.916 46.776 127.769 47.26C127.637 47.7293 127.447 48.3013 127.197 48.976L126.977 49.636C127.08 49.636 127.3 49.6433 127.637 49.658C127.989 49.658 128.297 49.6213 128.561 49.548C128.723 49.504 128.965 49.4673 129.287 49.438C129.991 48.1473 130.871 47.2893 131.927 46.864C131.986 46.8493 132.081 46.8126 132.213 46.754C132.36 46.6953 132.477 46.666 132.565 46.666C132.712 46.666 132.895 46.754 133.115 46.93C133.467 47.0326 133.731 47.1793 133.907 47.37C134.098 47.5606 134.245 47.8393 134.347 48.206ZM133.137 49.768C133.167 49.504 133.181 49.3206 133.181 49.218C133.181 48.866 133.123 48.5873 133.005 48.382C132.888 48.1766 132.719 48.074 132.499 48.074C132.206 48.074 131.854 48.2793 131.443 48.69C131.091 49.042 130.769 49.5626 130.475 50.252C130.182 50.9413 129.947 51.6233 129.771 52.298C129.713 52.562 129.683 52.782 129.683 52.958C129.683 53.222 129.727 53.442 129.815 53.618C129.918 53.7793 130.065 53.86 130.255 53.86C130.402 53.86 130.549 53.8233 130.695 53.75C130.945 53.6326 131.165 53.464 131.355 53.244C131.561 53.024 131.788 52.7453 132.037 52.408C132.624 51.6013 132.991 50.7213 133.137 49.768Z" fill="#FDFEFF"></path> <path d="M26.4307 36.114C26.0787 35.7766 25.8147 35.278 25.6387 34.618C25.6093 34.53 25.5947 34.376 25.5947 34.156C25.5947 33.936 25.5947 33.782 25.5947 33.694C25.5067 33.914 25.3453 34.112 25.1107 34.288C24.7733 34.6253 24.436 34.8746 24.0987 35.036C23.5853 35.3733 23.1673 35.542 22.8447 35.542C22.5513 35.542 22.2727 35.3806 22.0087 35.058C21.818 34.8966 21.6713 34.7353 21.5687 34.574C21.4807 34.4126 21.4367 34.2146 21.4367 33.98C21.4367 33.8186 21.4587 33.6426 21.5027 33.452C21.532 32.9093 21.6053 32.3886 21.7227 31.89C21.8547 31.3913 22.0967 30.7533 22.4487 29.976C22.918 29.052 23.2553 28.436 23.4607 28.128C23.534 28.0986 23.6293 28.084 23.7467 28.084C23.8933 28.084 24.0107 28.128 24.0987 28.216C24.2013 28.304 24.26 28.4213 24.2747 28.568C24.3187 28.6266 24.3407 28.7073 24.3407 28.81C24.3407 29.1766 24.1207 29.778 23.6807 30.614C23.1087 31.9926 22.8227 32.946 22.8227 33.474C22.8227 33.782 22.9107 33.9653 23.0867 34.024C23.16 34.068 23.2407 34.09 23.3287 34.09C23.6953 34.09 24.1353 33.8406 24.6487 33.342C25.162 32.8433 25.6533 32.044 26.1227 30.944C26.328 30.4453 26.4527 29.932 26.4967 29.404C26.482 29.36 26.4747 29.294 26.4747 29.206C26.4747 28.942 26.6067 28.7293 26.8707 28.568C26.9293 28.48 27.01 28.414 27.1127 28.37C27.2153 28.3113 27.2813 28.3113 27.3107 28.37L27.6627 28.348C27.7067 28.3333 27.7507 28.3773 27.7947 28.48C27.8387 28.568 27.8827 28.6266 27.9267 28.656C28.0293 28.744 28.0807 28.9053 28.0807 29.14C28.0807 29.624 27.868 30.3646 27.4427 31.362C27.164 31.9486 26.9733 32.4033 26.8707 32.726C26.7827 33.034 26.7313 33.3346 26.7167 33.628C26.7167 34.1853 26.9293 34.6473 27.3547 35.014C27.5013 35.1166 27.5893 35.2266 27.6187 35.344C27.648 35.4613 27.6553 35.6226 27.6407 35.828C27.6113 35.96 27.5233 36.07 27.3767 36.158C27.2447 36.2313 27.098 36.268 26.9367 36.268C26.746 36.268 26.5773 36.2166 26.4307 36.114ZM35.8712 28.348C36.0326 28.26 36.1939 28.216 36.3552 28.216C36.5606 28.216 36.7366 28.282 36.8832 28.414C37.0446 28.5313 37.1252 28.6853 37.1252 28.876C37.1252 28.9053 37.1106 28.9786 37.0812 29.096C37.1252 28.9053 36.9712 29.2206 36.6192 30.042C36.2672 30.8633 36.0766 31.3033 36.0472 31.362V31.428C36.2526 31.428 36.3846 31.494 36.4432 31.626C36.5166 31.7433 36.5459 31.9046 36.5312 32.11C36.3992 32.1393 36.2746 32.1906 36.1572 32.264C36.0399 32.3373 35.9446 32.374 35.8712 32.374C35.8272 32.374 35.7759 32.396 35.7172 32.44C35.6586 32.484 35.6219 32.5353 35.6072 32.594C35.5779 32.6526 35.5266 32.88 35.4532 33.276L35.0572 34.86C35.0279 34.9626 34.9766 35.0506 34.9032 35.124C34.8299 35.1973 34.7639 35.2413 34.7052 35.256C34.6466 35.2413 34.5292 35.2046 34.3532 35.146C34.1919 35.0726 34.0819 35.0213 34.0232 34.992C33.9646 34.948 33.9059 34.904 33.8472 34.86V34.728C33.8472 34.5226 33.8839 34.31 33.9572 34.09C34.0746 33.738 34.1919 33.2466 34.3092 32.616C34.1919 32.572 33.8986 32.594 33.4292 32.682C32.9599 32.7553 32.7032 32.792 32.6592 32.792C32.5712 32.836 32.3952 32.858 32.1312 32.858C31.7059 32.858 31.4052 32.8213 31.2292 32.748L31.0972 32.814C31.0679 32.946 31.0239 33.0926 30.9652 33.254C30.8039 33.7086 30.7232 34.046 30.7232 34.266C30.6939 34.4713 30.6646 34.64 30.6352 34.772C30.6059 34.9186 30.5766 35.1386 30.5472 35.432C30.5326 35.8426 30.3932 36.048 30.1292 36.048C29.9679 36.048 29.7919 35.9893 29.6012 35.872C29.4986 35.8133 29.3592 35.696 29.1832 35.52L29.5352 33.826C29.5792 33.694 29.6232 33.5106 29.6672 33.276C29.7259 33.0413 29.7846 32.8506 29.8432 32.704L30.0852 32.022C30.2612 31.5086 30.4226 31.0906 30.5692 30.768C30.5692 30.768 30.7232 30.3353 31.0312 29.47C31.0752 29.3673 31.1706 29.0886 31.3172 28.634C31.4786 28.1646 31.5739 27.8933 31.6032 27.82C31.6619 27.6586 31.7792 27.578 31.9552 27.578C32.1899 27.5633 32.3879 27.622 32.5492 27.754C32.7252 27.8713 32.8206 28.018 32.8352 28.194C32.8352 28.238 32.8279 28.3113 32.8132 28.414C32.7986 28.502 32.7839 28.568 32.7692 28.612L31.6252 31.406V31.582C31.6839 31.626 31.7866 31.648 31.9332 31.648C32.0506 31.648 32.2266 31.626 32.4612 31.582C32.7106 31.538 32.8646 31.516 32.9232 31.516C33.0552 31.5013 33.2532 31.4866 33.5172 31.472C33.7812 31.4573 34.0452 31.45 34.3092 31.45C34.5146 31.45 34.6246 31.4573 34.6392 31.472L34.8812 30.768C35.1159 30.0493 35.3652 29.47 35.6292 29.03C35.6439 28.986 35.6732 28.9053 35.7172 28.788C35.7612 28.656 35.8126 28.5093 35.8712 28.348ZM40.6916 35.652C40.237 35.652 39.9363 35.63 39.7896 35.586C39.643 35.5273 39.4743 35.41 39.2836 35.234C39.137 34.9406 38.9903 34.7206 38.8436 34.574C38.785 34.4126 38.7556 34.1706 38.7556 33.848C38.7556 33.4813 38.7996 33.0853 38.8876 32.66C38.9756 32.22 39.093 31.8093 39.2396 31.428C39.2983 31.3106 39.3423 31.2006 39.3716 31.098C39.4156 30.9953 39.445 30.9293 39.4596 30.9C39.4596 30.7973 39.643 30.482 40.0096 29.954C40.391 29.4113 40.6916 29.0373 40.9116 28.832C41.0143 28.7146 41.1683 28.59 41.3736 28.458C41.5936 28.326 41.7843 28.2306 41.9456 28.172C42.3563 28.0253 42.7156 27.952 43.0236 27.952C43.449 27.952 43.8083 28.15 44.1016 28.546C44.4243 28.8686 44.5856 29.228 44.5856 29.624C44.5856 29.7706 44.5636 29.932 44.5196 30.108C44.373 30.6946 44.1603 30.988 43.8816 30.988C43.691 30.988 43.5076 30.878 43.3316 30.658C43.273 30.5113 43.2436 30.416 43.2436 30.372C43.2436 30.328 43.273 30.2033 43.3316 29.998C43.361 29.8513 43.3756 29.7486 43.3756 29.69C43.3756 29.514 43.3463 29.36 43.2876 29.228C43.229 29.096 43.1483 29.03 43.0456 29.03C42.7083 29.03 42.2683 29.3233 41.7256 29.91C41.535 30.1153 41.2856 30.438 40.9776 30.878C40.6843 31.318 40.4643 31.714 40.3176 32.066C40.171 32.506 40.0536 32.8653 39.9656 33.144C39.8776 33.4226 39.819 33.5986 39.7896 33.672C39.7896 33.7013 39.8043 33.7526 39.8336 33.826C39.8776 33.8993 39.8996 33.958 39.8996 34.002C39.8996 34.1046 39.9216 34.1853 39.9656 34.244C40.0096 34.3026 40.0903 34.3613 40.2076 34.42C40.369 34.5373 40.5596 34.596 40.7796 34.596C41.0143 34.596 41.2856 34.5226 41.5936 34.376C41.7843 34.288 42.0556 34.0973 42.4076 33.804L42.9356 33.408C43.0383 33.3346 43.1263 33.276 43.1996 33.232C43.2876 33.1733 43.3536 33.1366 43.3976 33.122C43.4416 33.0926 43.4636 33.0926 43.4636 33.122C43.4636 33.1806 43.4856 33.21 43.5296 33.21C43.5736 33.21 43.625 33.1806 43.6836 33.122C43.8156 32.946 43.9843 32.858 44.1896 32.858C44.307 32.858 44.3656 32.88 44.3656 32.924L44.3436 33.034C44.3436 33.1073 44.3803 33.1806 44.4536 33.254C44.4536 33.3126 44.4316 33.3933 44.3876 33.496C44.3583 33.584 44.3143 33.6573 44.2556 33.716C44.1676 33.848 44.0136 34.0093 43.7936 34.2C43.5883 34.376 43.449 34.4933 43.3756 34.552H43.3536C43.2803 34.552 43.1776 34.618 43.0456 34.75C42.8256 34.9553 42.635 35.058 42.4736 35.058C42.415 35.0873 42.349 35.124 42.2756 35.168C42.2023 35.1973 42.1656 35.234 42.1656 35.278C42.019 35.4246 41.843 35.5273 41.6376 35.586C41.4323 35.63 41.117 35.652 40.6916 35.652ZM56.5225 34.244C56.5812 34.288 56.6105 34.354 56.6105 34.442C56.6105 34.5446 56.5739 34.6473 56.5005 34.75C56.4419 34.838 56.3832 34.882 56.3245 34.882C56.0459 34.882 55.7745 34.8086 55.5105 34.662C55.2612 34.5006 55.1365 34.2513 55.1365 33.914V32.55C55.1365 31.8606 55.0852 31.472 54.9825 31.384C54.7625 31.2666 54.3812 31.5086 53.8385 32.11C53.3105 32.7113 52.7972 33.4226 52.2985 34.244C52.1372 34.508 52.0052 34.7133 51.9025 34.86C51.7999 35.0066 51.7192 35.08 51.6605 35.08C51.6165 35.08 51.5432 35.0433 51.4405 34.97C50.9859 34.838 50.7585 34.5813 50.7585 34.2C50.7585 34.156 50.7732 34.0606 50.8025 33.914C50.9492 33.43 51.0959 32.8946 51.2425 32.308C51.3892 31.7066 51.5065 31.2006 51.5945 30.79C51.5505 30.702 51.4772 30.658 51.3745 30.658C51.2279 30.658 51.0592 30.7313 50.8685 30.878C50.5019 31.1273 50.0325 31.7213 49.4605 32.66C48.7419 33.76 48.2432 34.4273 47.9645 34.662C47.8619 34.838 47.7665 34.9773 47.6785 35.08C47.6052 35.168 47.5319 35.212 47.4585 35.212C47.3999 35.212 47.2899 35.168 47.1285 35.08C46.7032 34.8306 46.4905 34.4786 46.4905 34.024C46.4905 33.804 46.5565 33.364 46.6885 32.704C46.8205 32.044 46.9672 31.428 47.1285 30.856C47.2605 30.6066 47.3779 30.35 47.4805 30.086C47.5979 29.8073 47.6565 29.6386 47.6565 29.58C47.7152 29.272 47.7885 28.942 47.8765 28.59C47.9645 28.238 48.0305 28.04 48.0745 27.996C48.1772 27.8933 48.2945 27.842 48.4265 27.842C48.6465 27.842 48.8079 27.9593 48.9105 28.194C49.0719 28.3553 49.1525 28.5606 49.1525 28.81C49.1525 29.0886 49.0719 29.448 48.9105 29.888C48.6612 30.4306 48.3899 31.2226 48.0965 32.264C48.4045 31.9266 48.6245 31.6626 48.7565 31.472C49.1085 30.9733 49.5632 30.416 50.1205 29.8C50.5752 29.3013 51.0885 29.052 51.6605 29.052C52.3352 29.1693 52.7239 29.734 52.8265 30.746C52.8265 30.922 52.8119 31.142 52.7825 31.406C52.7532 31.6553 52.7312 31.8166 52.7165 31.89C52.7752 31.802 52.9219 31.6113 53.1565 31.318C53.4059 31.0246 53.7065 30.724 54.0585 30.416C54.3812 30.1666 54.6819 30.042 54.9605 30.042C55.1952 30.042 55.4005 30.1373 55.5765 30.328C55.8845 30.504 56.1045 30.7533 56.2365 31.076C56.3685 31.384 56.4345 31.78 56.4345 32.264C56.4345 32.5133 56.4272 32.7113 56.4125 32.858C56.3832 33.1513 56.3685 33.3346 56.3685 33.408C56.3685 33.6866 56.4199 33.9653 56.5225 34.244ZM57.3711 41.108C57.2537 41.108 57.1584 41.042 57.0851 40.91C57.0117 40.8073 56.9751 40.6826 56.9751 40.536C56.9751 40.4333 57.0117 40.184 57.0851 39.788C57.2464 39.172 57.3271 38.7466 57.3271 38.512C57.3271 38.4386 57.3417 38.3286 57.3711 38.182C57.4004 38.05 57.4224 37.9253 57.4371 37.808C57.4957 37.7053 57.5471 37.544 57.5911 37.324C57.6497 37.1186 57.6791 36.9353 57.6791 36.774C57.6791 36.7006 57.7011 36.6126 57.7451 36.51C57.8037 36.422 57.8697 36.3486 57.9431 36.29C57.9431 36.202 57.9651 36.07 58.0091 35.894C58.0531 35.7033 58.0824 35.5713 58.0971 35.498C58.1704 35.102 58.4564 34.1633 58.9551 32.682C59.4537 31.2006 59.8791 30.0053 60.2311 29.096C60.3924 28.7293 60.5097 28.392 60.5831 28.084C60.6564 27.776 60.6931 27.534 60.6931 27.358C60.6931 27.2993 60.7077 27.248 60.7371 27.204C60.7811 27.1453 60.8471 27.072 60.9351 26.984C61.0377 26.8813 61.1331 26.83 61.2211 26.83C61.2944 26.83 61.3751 26.8593 61.4631 26.918C61.5511 26.9766 61.6391 27.0426 61.7271 27.116C61.8151 27.248 61.8811 27.3726 61.9251 27.49C61.9837 27.6073 62.0131 27.732 62.0131 27.864C62.0131 27.908 61.9984 28.0473 61.9691 28.282C61.9691 28.59 61.9031 28.8466 61.7711 29.052C61.6391 29.2426 61.5877 29.3306 61.6171 29.316C62.2771 29.008 62.8637 28.854 63.3771 28.854C63.9931 28.854 64.4697 29.052 64.8071 29.448C65.1591 29.844 65.3351 30.3573 65.3351 30.988C65.3351 31.252 65.2544 31.5746 65.0931 31.956C64.9464 32.3226 64.7997 32.572 64.6531 32.704C64.5651 32.704 64.4477 32.858 64.3011 33.166C64.1104 33.4006 63.7951 33.65 63.3551 33.914C62.9151 34.1633 62.6071 34.2586 62.4311 34.2C62.4164 34.2 62.3944 34.2073 62.3651 34.222C62.3357 34.2366 62.3211 34.2733 62.3211 34.332C62.3211 34.3906 62.0717 34.5006 61.5731 34.662C61.0744 34.8233 60.6637 34.904 60.3411 34.904C60.1651 34.904 60.0331 34.8966 59.9451 34.882C59.8571 34.8526 59.7691 34.8013 59.6811 34.728C59.5784 34.8306 59.5271 34.926 59.5271 35.014C59.5271 35.1753 59.4537 35.4686 59.3071 35.894C59.1604 36.3193 59.0431 36.532 58.9551 36.532C58.9404 36.5466 58.9184 36.576 58.8891 36.62C58.8744 36.664 58.8964 36.7153 58.9551 36.774C58.9551 36.818 58.9477 36.9206 58.9331 37.082C58.9184 37.2433 58.8817 37.368 58.8231 37.456C58.8231 37.588 58.8011 37.764 58.7571 37.984C58.7131 38.2186 58.6617 38.3946 58.6031 38.512C58.6031 38.688 58.5737 38.8566 58.5151 39.018C58.4711 39.194 58.4197 39.282 58.3611 39.282C58.2731 39.3113 58.2291 39.524 58.2291 39.92C58.2144 40.2866 58.1411 40.5726 58.0091 40.778C57.8771 40.9833 57.7231 41.086 57.5471 41.086L57.3711 41.108ZM60.2091 33.738C60.4291 33.738 60.8691 33.628 61.5291 33.408C62.2037 33.1733 62.6731 32.946 62.9371 32.726C63.2451 32.462 63.4944 32.1833 63.6851 31.89C63.8757 31.582 63.9711 31.274 63.9711 30.966C63.9711 30.7313 63.9051 30.5186 63.7731 30.328C63.6704 30.1666 63.4944 30.086 63.2451 30.086C62.9517 30.086 62.5997 30.1886 62.1891 30.394C61.7931 30.5993 61.4264 30.8706 61.0891 31.208C60.8251 31.472 60.5904 31.8533 60.3851 32.352C60.1797 32.836 60.0771 33.2173 60.0771 33.496C60.0771 33.6573 60.1211 33.738 60.2091 33.738ZM73.0335 27.996C73.1509 28.2306 73.2095 28.4873 73.2095 28.766C73.2095 29.206 73.0922 29.602 72.8575 29.954C72.7109 30.1593 72.5789 30.4673 72.4615 30.878C72.3589 31.2886 72.2562 31.8386 72.1535 32.528C72.0215 33.0853 71.8602 33.9433 71.6695 35.102C71.4349 35.718 71.2882 36.18 71.2295 36.488C71.2149 36.576 71.1415 36.7593 71.0095 37.038C70.8922 37.3166 70.7969 37.5366 70.7235 37.698C70.1515 38.886 69.4989 39.7953 68.7655 40.426C68.0322 41.0566 67.2329 41.4013 66.3675 41.46C66.1329 41.4893 65.9935 41.504 65.9495 41.504C65.8175 41.504 65.6929 41.482 65.5755 41.438C65.4729 41.394 65.3555 41.3353 65.2235 41.262C65.1649 41.2326 65.0842 41.1813 64.9815 41.108C64.8789 41.0346 64.8055 40.976 64.7615 40.932C64.7322 40.9026 64.7175 40.866 64.7175 40.822C64.7175 40.7486 64.7615 40.6753 64.8495 40.602C64.9375 40.5286 65.0769 40.492 65.2675 40.492C65.3702 40.5506 65.5462 40.58 65.7955 40.58C66.0449 40.58 66.1915 40.5506 66.2355 40.492C66.2649 40.4626 66.3529 40.4113 66.4995 40.338C66.6462 40.2793 66.8149 40.228 67.0055 40.184C67.4602 39.964 67.8635 39.678 68.2155 39.326C68.5822 38.9886 68.9195 38.556 69.2275 38.028C69.5942 37.4706 69.8362 36.9646 69.9535 36.51C70.0855 36.202 70.2322 35.762 70.3935 35.19C70.5695 34.6033 70.7089 34.0753 70.8115 33.606L70.5255 33.87C70.4522 33.958 70.2689 34.09 69.9755 34.266C69.6822 34.4273 69.5062 34.508 69.4475 34.508C69.4329 34.508 69.4109 34.5153 69.3815 34.53C69.3522 34.5446 69.3375 34.574 69.3375 34.618C69.3375 34.6766 69.1469 34.772 68.7655 34.904C68.3842 35.0213 68.1422 35.08 68.0395 35.08C67.8929 35.08 67.7315 35.0066 67.5555 34.86C67.3942 34.6986 67.2769 34.5446 67.2035 34.398C67.1595 34.2953 67.1009 34.178 67.0275 34.046C66.9542 33.914 66.8955 33.7893 66.8515 33.672C66.8075 33.54 66.7855 33.3933 66.7855 33.232C66.7855 33.0413 66.8002 32.8946 66.8295 32.792C67.0055 32.132 67.2989 31.2006 67.7095 29.998C68.1349 28.7953 68.4575 28.0253 68.6775 27.688C68.7949 27.5266 68.9342 27.446 69.0955 27.446C69.3155 27.446 69.4915 27.5633 69.6235 27.798C69.7555 27.974 69.8215 28.1206 69.8215 28.238C69.8215 28.326 69.7849 28.4506 69.7115 28.612C69.6382 28.7733 69.5429 28.964 69.4255 29.184C69.3669 29.3453 69.2935 29.5213 69.2055 29.712C69.1175 29.9026 69.0735 30.02 69.0735 30.064C69.0589 30.1226 69.0149 30.306 68.9415 30.614C68.8682 30.9073 68.8022 31.054 68.7435 31.054C68.6409 31.142 68.5309 31.4793 68.4135 32.066C68.2962 32.6526 68.2375 33.1073 68.2375 33.43C68.2375 33.5913 68.2595 33.672 68.3035 33.672C69.1689 33.672 70.1075 33.0266 71.1195 31.736C71.2515 31.0906 71.3689 30.548 71.4715 30.108C71.6622 29.36 71.8089 28.6926 71.9115 28.106C71.9995 27.9006 72.0655 27.7833 72.1095 27.754C72.1535 27.71 72.2489 27.688 72.3955 27.688C72.5715 27.688 72.6962 27.7026 72.7695 27.732C72.8429 27.7613 72.9309 27.8493 73.0335 27.996ZM74.4816 36.048C74.3056 35.9893 74.1222 35.8206 73.9316 35.542C73.7409 35.2486 73.6456 34.9846 73.6456 34.75L73.9536 33.826L74.3716 32.506C74.5036 32.3153 74.6062 32.088 74.6796 31.824C74.7676 31.5453 74.8189 31.384 74.8336 31.34C74.9802 31.0613 75.2736 30.3866 75.7136 29.316L76.1316 28.304L76.3076 27.886C76.3956 27.666 76.4542 27.49 76.4836 27.358C76.4836 27.2406 76.5129 27.1453 76.5716 27.072C76.6302 26.984 76.6889 26.94 76.7476 26.94C76.8209 26.8666 76.9602 26.83 77.1656 26.83C77.3269 26.83 77.4662 26.9326 77.5836 27.138C77.7009 27.3433 77.7596 27.5413 77.7596 27.732C77.7596 27.8933 77.6862 28.15 77.5396 28.502C77.4076 28.854 77.2609 29.206 77.0996 29.558C76.9676 29.8366 76.8502 30.1006 76.7476 30.35C76.6596 30.5846 76.6376 30.724 76.6816 30.768C76.7402 30.7386 76.8649 30.68 77.0556 30.592C77.2462 30.4893 77.4442 30.3646 77.6496 30.218C77.7816 30.1446 77.9062 30.0713 78.0236 29.998C78.1409 29.91 78.2436 29.8366 78.3316 29.778C78.7862 29.47 79.0649 29.3013 79.1676 29.272C79.2556 29.2133 79.4242 29.1106 79.6736 28.964C79.9376 28.788 80.0769 28.6926 80.0916 28.678C80.2676 28.59 80.4142 28.546 80.5316 28.546C80.6196 28.546 80.7002 28.5753 80.7736 28.634C80.8469 28.6926 80.9349 28.7806 81.0376 28.898C81.1256 29.0006 81.1696 29.1033 81.1696 29.206C81.1696 29.3086 81.1109 29.4186 80.9936 29.536C80.8762 29.6386 80.6782 29.778 80.3996 29.954C80.2089 30.086 80.0109 30.2106 79.8056 30.328C79.6002 30.4453 79.4022 30.5626 79.2116 30.68C78.1556 31.3253 77.6129 31.67 77.5836 31.714C77.6129 31.7726 77.6789 31.9046 77.7816 32.11C77.8989 32.3153 78.0089 32.4913 78.1116 32.638L78.4416 33.21C78.6176 33.4593 78.7056 33.6206 78.7056 33.694C78.8376 34.0606 79.0136 34.3466 79.2336 34.552C79.4682 34.7573 79.7176 34.86 79.9816 34.86C80.1136 34.86 80.2676 34.8233 80.4436 34.75C80.6636 34.662 80.8396 34.618 80.9716 34.618C81.1769 34.618 81.3162 34.7353 81.3896 34.97C81.4336 35.058 81.4556 35.124 81.4556 35.168C81.4556 35.2266 81.3529 35.3586 81.1476 35.564C80.7662 35.9453 80.3776 36.136 79.9816 36.136C79.8496 36.136 79.6956 36.0993 79.5196 36.026C79.2996 36.0406 79.0209 35.894 78.6836 35.586C78.3609 35.278 77.9062 34.7426 77.3196 33.98C77.3196 33.9213 77.2389 33.7306 77.0776 33.408C77.0189 33.276 76.9529 33.1586 76.8796 33.056C76.8062 32.9386 76.7549 32.858 76.7256 32.814C76.7256 32.7553 76.6889 32.682 76.6156 32.594C76.5569 32.4913 76.5129 32.4106 76.4836 32.352C76.3222 32.308 76.1902 32.3226 76.0876 32.396C75.9996 32.4693 75.9116 32.572 75.8236 32.704C75.7502 32.836 75.6916 32.9313 75.6476 32.99C75.5009 33.3713 75.3542 33.8406 75.2076 34.398C75.0609 34.9406 75.0096 35.2926 75.0536 35.454C75.0536 35.6886 75.0169 35.85 74.9436 35.938C74.8702 36.0113 74.7162 36.048 74.4816 36.048ZM88.9627 33.738C89.0067 33.7966 89.1021 33.8773 89.2487 33.98C89.4101 34.068 89.5127 34.156 89.5567 34.244C89.6594 34.464 89.6887 34.662 89.6447 34.838C89.4981 35.542 89.3367 36.1653 89.1607 36.708C88.9994 37.2506 88.7941 37.6833 88.5447 38.006C88.4861 38.094 88.4054 38.138 88.3027 38.138C88.2294 38.138 88.1414 38.1086 88.0387 38.05C87.9361 37.9913 87.8554 37.9473 87.7967 37.918C87.6941 37.874 87.6281 37.83 87.5987 37.786C87.5694 37.742 87.5401 37.6833 87.5107 37.61C87.4961 37.5366 87.4814 37.478 87.4667 37.434L87.4227 37.346L87.9947 35.586C88.0241 35.5126 88.0387 35.4246 88.0387 35.322C88.0387 35.2633 88.0094 35.1533 87.9507 34.992C87.8774 35.0066 87.7967 35.0286 87.7087 35.058C87.6207 35.0873 87.5107 35.1166 87.3787 35.146C87.0267 35.2486 86.6527 35.3513 86.2567 35.454C85.8754 35.542 85.5601 35.586 85.3107 35.586H84.6947C84.5481 35.586 84.3721 35.5933 84.1667 35.608C83.9614 35.608 83.7194 35.6006 83.4407 35.586C83.0741 35.5566 82.8174 35.454 82.6707 35.278C82.5974 35.19 82.4874 35.0946 82.3407 34.992C82.2087 34.8893 82.1134 34.7866 82.0547 34.684C81.9961 34.5813 81.9667 34.4346 81.9667 34.244C81.9667 33.5693 82.3261 32.3226 83.0447 30.504C83.0887 30.416 83.1547 30.2913 83.2427 30.13C83.3307 29.954 83.3674 29.7926 83.3527 29.646C83.5434 29.4553 83.6754 29.2646 83.7487 29.074C83.8367 28.8686 83.9101 28.612 83.9687 28.304C84.0421 27.996 84.0861 27.82 84.1007 27.776C84.1741 27.7173 84.2327 27.666 84.2767 27.622C84.3354 27.5633 84.3867 27.5193 84.4307 27.49L84.5627 27.556C85.0467 27.6586 85.2814 27.842 85.2667 28.106L85.2887 28.26C85.2887 28.4066 85.2594 28.5973 85.2007 28.832C85.1567 29.0666 84.9734 29.492 84.6507 30.108C84.3574 30.6506 84.1814 31.054 84.1227 31.318C83.9614 31.978 83.7634 32.5793 83.5287 33.122C83.3381 33.5913 83.2427 33.958 83.2427 34.222C83.2427 34.398 83.3747 34.486 83.6387 34.486C83.7267 34.486 83.8294 34.4786 83.9467 34.464C84.0641 34.4346 84.1521 34.42 84.2107 34.42C84.2841 34.42 84.4454 34.4126 84.6947 34.398C84.9587 34.3686 85.1934 34.332 85.3987 34.288C85.6187 34.2293 85.8021 34.1633 85.9487 34.09C85.9781 33.9873 85.9927 33.8626 85.9927 33.716C86.0074 33.5693 86.0367 33.452 86.0807 33.364C86.1101 33.3053 86.1321 33.2026 86.1467 33.056C86.1614 32.9093 86.1834 32.7993 86.2127 32.726C86.2714 32.55 86.4327 32.022 86.6967 31.142C86.9607 30.218 87.1807 29.4846 87.3567 28.942C87.5327 28.3993 87.6867 28.084 87.8187 27.996C88.0974 28.0986 88.3247 28.2013 88.5007 28.304C88.6767 28.392 88.8307 28.5313 88.9627 28.722C88.7867 29.3086 88.6034 29.8366 88.4127 30.306C88.3981 30.5113 88.2221 31.1493 87.8847 32.22C87.6501 32.8506 87.5034 33.32 87.4447 33.628C87.4887 33.6866 87.5621 33.7233 87.6647 33.738C87.7821 33.738 87.8627 33.7526 87.9067 33.782C87.9507 33.8113 87.9947 33.826 88.0387 33.826C88.0827 33.826 88.1267 33.8113 88.1707 33.782C88.2294 33.7526 88.2734 33.738 88.3027 33.738H88.9627ZM96.6708 36.18C96.5388 36.2533 96.3848 36.224 96.2088 36.092C96.0475 35.96 95.9008 35.8133 95.7688 35.652C95.6515 35.4906 95.5561 35.2633 95.4828 34.97C95.4241 34.6766 95.3948 34.4053 95.3948 34.156C95.3948 33.9066 95.3875 33.7306 95.3728 33.628C95.3581 33.5253 95.3215 33.474 95.2628 33.474C95.1895 33.474 95.0355 33.606 94.8008 33.87L94.4268 34.266C94.2068 34.486 93.8695 34.7353 93.4148 35.014C92.9748 35.278 92.6228 35.41 92.3588 35.41C92.1681 35.41 91.9775 35.2853 91.7868 35.036C91.5961 34.772 91.4641 34.53 91.3908 34.31C91.3615 34.2366 91.3468 34.09 91.3468 33.87C91.3468 33.298 91.4788 32.5133 91.7428 31.516C92.0068 30.5186 92.3221 29.6386 92.6888 28.876C93.0701 28.1133 93.4221 27.732 93.7448 27.732C93.8768 27.732 93.9868 27.798 94.0748 27.93C94.1628 28.062 94.2581 28.238 94.3608 28.458C94.4048 28.5606 94.4268 28.6413 94.4268 28.7C94.4268 28.744 94.4121 28.788 94.3828 28.832C94.3535 28.876 94.3095 28.9273 94.2508 28.986C94.0308 29.25 93.7448 29.822 93.3928 30.702C93.0408 31.582 92.7768 32.2933 92.6008 32.836C92.4688 33.32 92.4101 33.6426 92.4248 33.804V33.826C92.4248 33.9286 92.4908 33.98 92.6228 33.98C93.1655 33.98 93.7155 33.6206 94.2728 32.902C94.8448 32.1686 95.4901 31.1933 96.2088 29.976C96.5755 29.3453 96.8541 28.898 97.0448 28.634C97.2355 28.3553 97.3821 28.2086 97.4848 28.194C97.6608 28.1646 97.8515 28.2013 98.0568 28.304C98.2621 28.392 98.3575 28.524 98.3428 28.7C98.2108 29.096 97.9688 29.69 97.6168 30.482C97.3381 31.142 97.1108 31.7066 96.9348 32.176C96.7588 32.6453 96.6341 33.122 96.5608 33.606C96.5461 33.6793 96.5388 33.7966 96.5388 33.958C96.5388 34.5593 96.7515 35.0873 97.1768 35.542C97.2355 35.6006 97.2648 35.6593 97.2648 35.718C97.2648 35.8353 97.1988 35.938 97.0668 36.026C96.9348 36.114 96.8028 36.1653 96.6708 36.18ZM102.775 35.388C102.408 35.7106 101.968 35.872 101.455 35.872C101.088 35.872 100.736 35.784 100.399 35.608C100.076 35.432 99.8051 35.19 99.5851 34.882C99.3945 34.6473 99.2551 34.3833 99.1671 34.09C99.0791 33.7966 99.0351 33.4373 99.0351 33.012C99.0351 32.8653 99.0498 32.572 99.0791 32.132C99.1231 31.5893 99.2991 31.0246 99.6071 30.438C99.9298 29.8513 100.326 29.3306 100.795 28.876C101.264 28.4066 101.726 28.084 102.181 27.908C102.416 27.7613 102.628 27.688 102.819 27.688C102.922 27.688 103.024 27.6953 103.127 27.71C103.23 27.7246 103.34 27.7393 103.457 27.754C103.78 27.798 104.022 27.864 104.183 27.952C104.359 28.0253 104.506 28.1426 104.623 28.304C104.99 28.6706 105.173 29.096 105.173 29.58C105.114 29.932 104.887 30.3353 104.491 30.79C104.095 31.2446 103.618 31.6113 103.061 31.89C102.797 31.978 102.496 32.022 102.159 32.022C101.704 32.022 101.338 31.9266 101.059 31.736C100.927 31.692 100.824 31.67 100.751 31.67C100.619 31.67 100.516 31.758 100.443 31.934C100.384 32.11 100.326 32.4326 100.267 32.902C100.252 33.0046 100.245 33.1513 100.245 33.342C100.245 34.09 100.494 34.5006 100.993 34.574C101.33 34.6473 101.572 34.684 101.719 34.684C101.895 34.684 102.093 34.6253 102.313 34.508L102.731 34.266C102.819 34.222 102.9 34.1633 102.973 34.09C103.046 34.0166 103.112 33.9506 103.171 33.892C103.2 33.8626 103.244 33.8186 103.303 33.76C103.362 33.6866 103.413 33.6426 103.457 33.628C103.516 33.5986 103.567 33.584 103.611 33.584C103.67 33.584 103.736 33.6206 103.809 33.694C103.882 33.7526 103.941 33.7966 103.985 33.826C104.117 33.826 104.146 33.9213 104.073 34.112C104 34.288 103.838 34.5006 103.589 34.75C103.354 34.9846 103.083 35.1973 102.775 35.388ZM102.753 30.724C103.002 30.6213 103.252 30.438 103.501 30.174C103.765 29.91 103.897 29.69 103.897 29.514C103.897 29.338 103.831 29.1913 103.699 29.074C103.567 28.9566 103.384 28.898 103.149 28.898C102.973 28.898 102.841 28.9126 102.753 28.942C102.548 29.0006 102.306 29.162 102.027 29.426C101.748 29.6753 101.506 29.932 101.301 30.196C101.096 30.46 101.015 30.614 101.059 30.658C101.132 30.79 101.418 30.856 101.917 30.856C102.254 30.856 102.533 30.812 102.753 30.724ZM111.315 36.114C111.213 36.1726 111.073 36.1506 110.897 36.048C110.736 35.9453 110.575 35.7913 110.413 35.586C110.296 35.3953 110.223 35.1973 110.193 34.992C110.179 34.7866 110.171 34.3613 110.171 33.716C110.171 33.5693 110.142 33.496 110.083 33.496C110.039 33.496 109.937 33.5693 109.775 33.716C109.614 33.848 109.416 34.0313 109.181 34.266C108.8 34.6326 108.448 34.9186 108.125 35.124C107.803 35.3293 107.539 35.4246 107.333 35.41C107.172 35.41 106.996 35.3 106.805 35.08C106.629 34.86 106.49 34.6033 106.387 34.31C106.343 34.134 106.321 33.9286 106.321 33.694C106.321 33.078 106.446 32.33 106.695 31.45C106.959 30.57 107.26 29.8146 107.597 29.184C107.949 28.5386 108.257 28.216 108.521 28.216C108.741 28.216 108.947 28.458 109.137 28.942C109.181 29.03 109.203 29.1033 109.203 29.162C109.203 29.2646 109.145 29.3673 109.027 29.47C108.807 29.7486 108.551 30.2473 108.257 30.966C107.964 31.6846 107.729 32.352 107.553 32.968C107.392 33.584 107.363 33.892 107.465 33.892C107.671 33.892 107.913 33.8113 108.191 33.65C108.47 33.4886 108.749 33.276 109.027 33.012C109.306 32.7333 109.555 32.44 109.775 32.132C109.995 31.8093 110.267 31.3766 110.589 30.834C111.205 29.8513 111.543 29.2793 111.601 29.118C111.821 28.7073 111.975 28.4433 112.063 28.326C112.166 28.194 112.291 28.106 112.437 28.062H112.745C112.833 28.0766 112.936 28.1426 113.053 28.26C113.156 28.304 113.215 28.3553 113.229 28.414C113.259 28.458 113.273 28.524 113.273 28.612L112.921 29.426L112.723 29.888C112.709 29.9466 112.628 30.1153 112.481 30.394C112.144 31.142 111.887 31.7433 111.711 32.198C111.535 32.6526 111.403 33.122 111.315 33.606C111.301 33.6793 111.293 33.804 111.293 33.98C111.293 34.42 111.337 34.728 111.425 34.904C111.557 35.168 111.689 35.3586 111.821 35.476C111.895 35.5346 111.931 35.5933 111.931 35.652C111.931 35.7546 111.843 35.8573 111.667 35.96C111.506 36.0626 111.389 36.114 111.315 36.114ZM111.029 26.984C110.135 27.0866 109.519 26.478 109.181 25.158C109.152 25.0406 109.137 24.96 109.137 24.916C109.137 24.8133 109.167 24.7033 109.225 24.586C109.255 24.5273 109.313 24.4833 109.401 24.454C109.489 24.4246 109.563 24.4173 109.621 24.432C109.812 24.5053 109.959 24.6006 110.061 24.718C110.164 24.8206 110.23 24.9526 110.259 25.114C110.303 25.2166 110.325 25.3193 110.325 25.422C110.443 25.7886 110.604 25.972 110.809 25.972C110.853 25.972 110.963 25.9426 111.139 25.884C111.755 25.6346 112.217 25.356 112.525 25.048C112.525 25.048 112.833 24.762 113.449 24.19L113.471 24.168C113.53 24.1386 113.581 24.124 113.625 24.124C113.728 24.124 113.801 24.146 113.845 24.19C113.919 24.278 113.963 24.3586 113.977 24.432C113.992 24.5053 113.999 24.5786 113.999 24.652C113.999 24.7253 113.999 24.784 113.999 24.828L113.977 24.872C114.007 24.96 113.933 25.136 113.757 25.4C113.581 25.6493 113.383 25.8546 113.163 26.016C112.885 26.236 112.423 26.5073 111.777 26.83C111.675 26.8886 111.543 26.9253 111.381 26.94C111.22 26.9546 111.103 26.9693 111.029 26.984Z" fill="#E6AD3D"></path> <g clip-path="url(#clip0)"> <path d="M9.70964 9.84462L8.52545 6.65711C8.47682 6.52514 8.36703 6.42483 8.23161 6.38738C8.09588 6.35019 7.9507 6.38039 7.84121 6.4685L3.06938 10.3085C2.95987 10.3966 2.89934 10.532 2.90661 10.6725C2.91423 10.8128 2.98846 10.9412 3.10693 11.0175L5.96758 12.857C5.51947 14.2547 5.79095 15.784 6.70972 16.9257C6.86133 17.1141 7.13646 17.1438 7.32485 16.9922L10.0516 14.798L13.343 18.8881L14.2324 19.2955L14.0247 18.3395L10.7333 14.2494L13.46 12.0551C13.6484 11.9035 13.6782 11.6284 13.5266 11.44C12.6076 10.298 11.1711 9.70558 9.70964 9.84462ZM7.1391 16.0186C6.56241 15.0771 6.46694 13.8981 6.90258 12.8461C6.98389 12.6507 6.91317 12.4252 6.73535 12.3105L4.09063 10.6098L7.91678 7.53082L9.01153 10.4777C9.08516 10.6762 9.29034 10.7935 9.4989 10.7562C10.6201 10.5548 11.752 10.9003 12.5486 11.6654L7.1391 16.0186Z" fill="#E6AD3D"></path> <path d="M9.10503 9.96615L8.08262 7.21434L3.7444 10.7054L6.60078 12.7756L6.02463 14.0334L7.0942 16.3494L12.8785 11.6946L11.6677 10.6835L9.10503 9.96615Z" fill="#E6AD3D"></path> </g> <defs> <clipPath id="clip0"> <rect width="14" height="14" fill="white" transform="translate(0 12.7771) rotate(-38.8245)"></rect> </clipPath> </defs> </svg> 