<?xml version="1.0" encoding="UTF-8"?> <svg xmlns="http://www.w3.org/2000/svg" width="126" height="122" viewBox="0 0 126 122" fill="none"> <path d="M114.784 83.3112C112.875 88.533 110.25 93.2801 107.148 97.5525C92.1137 118.44 64.1933 127.459 38.8978 118.202C19.8069 111.556 6.44325 95.891 1.90916 77.8521C-0.954472 66.6964 -0.715835 54.5914 3.57962 42.961C14.7955 12.3424 48.9205 -3.32301 79.466 7.83263L59.1819 63.1361L117.409 52.6926C119.318 62.6614 118.602 73.105 114.784 83.3112Z" fill="#FBFEFF"></path> <path d="M126 44.8599C122.42 24.9222 108.579 7.35798 88.0566 0L67.7725 55.3035L126 44.8599Z" fill="#FBFEFF"></path> <path d="M114.784 83.3113C112.875 88.5331 110.25 93.2802 107.148 97.5525L59.1816 63.1362L117.409 52.6926C119.318 62.6615 118.602 73.1051 114.784 83.3113Z" fill="#F0FDEC"></path> <path d="M79.466 7.83267L59.1819 63.1362L1.90916 77.6148C-0.954472 66.4591 -0.715835 54.3541 3.57962 42.7237C14.7955 12.3424 48.9205 -3.32297 79.466 7.83267Z" fill="#F0FDEC"></path> </svg> 