<?xml version="1.0" encoding="UTF-8"?> <svg xmlns="http://www.w3.org/2000/svg" width="512" height="512" viewBox="0 0 512 512" fill="none"> <path d="M0 192L246.528 348.896C249.344 350.976 252.672 352 256 352C259.328 352 262.656 350.976 265.472 348.896L512 192L265.6 3.19981C259.904 -1.05619 252.096 -1.05619 246.4 3.19981L0 192Z" fill="#43C4DB"></path> <path d="M416 45H96C78.368 45 64 57.7516 64 73.4V385.8C64 393.638 71.168 400 80 400H432C440.832 400 448 393.638 448 385.8V73.4C448 57.7516 433.664 45 416 45Z" fill="#E3F2F7"></path> <path d="M144 126H368C376.832 126 384 118.832 384 110C384 101.168 376.832 94 368 94H144C135.168 94 128 101.168 128 110C128 118.832 135.168 126 144 126Z" fill="#C6E0E4"></path> <path d="M368 158H144C135.168 158 128 165.168 128 174C128 182.832 135.168 190 144 190H368C376.832 190 384 182.832 384 174C384 165.168 376.832 158 368 158Z" fill="#C6E0E4"></path> <path d="M272 222H144C135.168 222 128 229.168 128 238C128 246.832 135.168 254 144 254H272C280.832 254 288 246.832 288 238C288 229.168 280.832 222 272 222Z" fill="#C6E0E4"></path> <path d="M265.472 348.896C262.656 350.976 259.328 352 256 352C252.672 352 249.344 350.976 246.528 348.896L0 192V480C0 497.664 14.336 512 32 512H480C497.664 512 512 497.664 512 480V192L265.472 348.896Z" fill="#2998AC"></path> <path d="M480 512H32C14.048 512 0 497.952 0 480C0 474.912 2.432 470.112 6.528 467.104L246.528 307.104C249.344 305.024 252.672 304 256 304C259.328 304 262.656 305.024 265.472 307.104L505.472 467.104C509.568 470.112 512 474.912 512 480C512 497.952 497.952 512 480 512Z" fill="#38ABBF"></path> <circle cx="429.5" cy="254.5" r="54.5" fill="#FFF9D9"></circle> <path d="M416.609 271.275H426.151V243.537L427.181 238.761L423.886 242.904L417.776 247.188L414 241.921L429.652 229H434.664V271.275H444V279H416.609V271.275Z" fill="#2998AC"></path> </svg> 