<?xml version="1.0" encoding="UTF-8"?>
<svg width="690px" height="744px" viewBox="0 0 690 744" version="1.1" xmlns="http://www.w3.org/2000/svg" xmlns:xlink="http://www.w3.org/1999/xlink">
    <!-- Generator: Sketch 45.2 (43514) - http://www.bohemiancoding.com/sketch -->
    <title>funnel</title>
    <desc>Created with Sketch.</desc>
    <defs>
        <linearGradient x1="50%" y1="0%" x2="50%" y2="47.0193365%" id="linearGradient-1">
            <stop stop-color="#FFFFFF" offset="0%"></stop>
            <stop stop-color="#E9FAFF" offset="100%"></stop>
        </linearGradient>
        <linearGradient x1="51.6513814%" y1="97.1619898%" x2="51.6513824%" y2="0%" id="linearGradient-2">
            <stop stop-color="#E1F9FE" offset="0%"></stop>
            <stop stop-color="#FFFFFF" offset="100%"></stop>
        </linearGradient>
        <linearGradient x1="59.0619339%" y1="50%" x2="3.86265851%" y2="50%" id="linearGradient-3">
            <stop stop-color="#FFFFFF" stop-opacity="0.5" offset="0%"></stop>
            <stop stop-color="#DDF2F8" offset="100%"></stop>
        </linearGradient>
        <ellipse id="path-4" cx="345" cy="181" rx="345" ry="41"></ellipse>
        <filter x="-0.3%" y="-2.4%" width="100.6%" height="109.8%" filterUnits="objectBoundingBox" id="filter-5">
            <feOffset dx="0" dy="4" in="SourceAlpha" result="shadowOffsetOuter1"></feOffset>
            <feColorMatrix values="0 0 0 0 1   0 0 0 0 1   0 0 0 0 1  0 0 0 1 0" type="matrix" in="shadowOffsetOuter1"></feColorMatrix>
        </filter>
        <linearGradient x1="50%" y1="12.3130986%" x2="50%" y2="100%" id="linearGradient-6">
            <stop stop-color="#F6FEFF" offset="0%"></stop>
            <stop stop-color="#9EDDE3" offset="100%"></stop>
        </linearGradient>
        <linearGradient x1="74.2975593%" y1="96.8427333%" x2="74.2975603%" y2="2.57133152%" id="linearGradient-7">
            <stop stop-color="#E9FAFF" offset="0%"></stop>
            <stop stop-color="#A3E0E8" offset="100%"></stop>
        </linearGradient>
        <path d="M0.881986008,0 L0,0 L0,269 L228,269 L228,0 L227.118014,0 C220.105616,7.89262315 172.134552,14 114,14 C55.8654485,14 7.89438376,7.89262315 0.881986008,-1.77635684e-15 Z" id="path-8"></path>
        <linearGradient x1="50%" y1="72.0439608%" x2="50%" y2="100%" id="linearGradient-10">
            <stop stop-color="#FFFFFF" stop-opacity="0" offset="0%"></stop>
            <stop stop-color="#FFFFFF" offset="100%"></stop>
        </linearGradient>
        <rect id="path-11" x="145" y="0" width="60" height="252"></rect>
        <filter x="-76.6%" y="-18.2%" width="253.2%" height="136.5%" filterUnits="objectBoundingBox" id="filter-12">
            <feGaussianBlur stdDeviation="15.3236607" in="SourceGraphic"></feGaussianBlur>
        </filter>
        <rect id="path-13" x="27" y="0" width="60" height="252"></rect>
        <filter x="-76.6%" y="-18.2%" width="253.2%" height="136.5%" filterUnits="objectBoundingBox" id="filter-14">
            <feGaussianBlur stdDeviation="15.3236607" in="SourceGraphic"></feGaussianBlur>
        </filter>
        <path d="M456.99936,339 L457.812661,339 C458.217708,339 534.585966,241.135231 686.917435,45.405694 C690.633804,41.8679269 691.048082,39 687.842751,39 L2.15724939,39 C-1.04808171,39 -0.633803942,41.8679269 3.08256468,45.405694 L232.187339,339 L233.00064,339 C243.005706,346.402582 289.345429,352 345,352 C400.654571,352 446.994294,346.402582 456.99936,339 Z M345,82 C535.538239,82 690,63.6436747 690,41 C690,18.3563253 535.538239,0 345,0 C154.461761,0 0,18.3563253 0,41 C0,63.6436747 154.461761,82 345,82 Z" id="path-15"></path>
        <filter x="-19.8%" y="-16.4%" width="139.6%" height="132.7%" filterUnits="objectBoundingBox" id="filter-17">
            <feGaussianBlur stdDeviation="16.8498884" in="SourceGraphic"></feGaussianBlur>
        </filter>
        <path d="M340.99936,148 L341.9007,148 C342.187116,148 380.426712,99.1414072 456.619488,1.42422153 C435.068805,19.4418509 341.478633,33 229.289253,33 C115.110774,33 20.1968708,18.9568214 0.880982029,0.461717831 L116.0993,148 L117.00064,148 C127.005706,155.402582 173.345429,161 229,161 C284.654571,161 330.994294,155.402582 340.99936,148 Z" id="path-18"></path>
        <filter x="-19.8%" y="-16.4%" width="139.6%" height="132.7%" filterUnits="objectBoundingBox" id="filter-20">
            <feGaussianBlur stdDeviation="16.8498884" in="SourceGraphic"></feGaussianBlur>
        </filter>
        <path d="M456.99936,339 L457.812661,339 C458.217708,339 534.585966,241.135231 686.917435,45.405694 C690.633804,41.8679269 691.048082,39 687.842751,39 L2.15724939,39 C-1.04808171,39 -0.633803942,41.8679269 3.08256468,45.405694 L232.187339,339 L233.00064,339 C243.005706,346.402582 289.345429,352 345,352 C400.654571,352 446.994294,346.402582 456.99936,339 Z M345,82 C535.538239,82 690,63.6436747 690,41 C690,18.3563253 535.538239,0 345,0 C154.461761,0 0,18.3563253 0,41 C0,63.6436747 154.461761,82 345,82 Z" id="path-21"></path>
        <filter x="-19.8%" y="-16.4%" width="139.6%" height="132.7%" filterUnits="objectBoundingBox" id="filter-23">
            <feGaussianBlur stdDeviation="16.8498884" in="SourceGraphic"></feGaussianBlur>
        </filter>
        <linearGradient x1="50%" y1="0%" x2="50%" y2="100%" id="linearGradient-24">
            <stop stop-color="#B4E9F3" offset="0%"></stop>
            <stop stop-color="#7DD7E1" offset="100%"></stop>
        </linearGradient>
        <path d="M340.99936,148 L341.9007,148 C342.187116,148 380.426712,99.1414072 456.619488,1.42422153 C435.068805,19.4418509 341.478633,33 229.289253,33 C115.110774,33 20.1968708,18.9568214 0.880982029,0.461717831 L116.0993,148 L117.00064,148 C127.005706,155.402582 173.345429,161 229,161 C284.654571,161 330.994294,155.402582 340.99936,148 Z" id="path-25"></path>
        <filter x="-19.8%" y="-16.4%" width="139.6%" height="132.7%" filterUnits="objectBoundingBox" id="filter-27">
            <feGaussianBlur stdDeviation="16.8498884" in="SourceGraphic"></feGaussianBlur>
        </filter>
        <circle id="path-28" cx="27" cy="27" r="27"></circle>
        <circle id="path-30" cx="19" cy="19" r="19"></circle>
        <circle id="path-32" cx="19" cy="19" r="19"></circle>
        <ellipse id="path-34" cx="345" cy="41" rx="345" ry="41"></ellipse>
        <circle id="path-36" cx="33" cy="33" r="33"></circle>
        <circle id="path-37" cx="29" cy="29" r="29"></circle>
        <linearGradient x1="50%" y1="50%" x2="74.8619343%" y2="75.5741514%" id="linearGradient-39">
            <stop stop-color="#0F7883" offset="0%"></stop>
            <stop stop-color="#006071" offset="100%"></stop>
        </linearGradient>
        <circle id="path-40" cx="24" cy="24" r="24"></circle>
        <linearGradient x1="50%" y1="0.711495536%" x2="50%" y2="100%" id="linearGradient-42">
            <stop stop-color="#DBF4F9" offset="0%"></stop>
            <stop stop-color="#FFFFFF" offset="100%"></stop>
        </linearGradient>
        <circle id="path-43" cx="17.5" cy="17.5" r="17.5"></circle>
        <circle id="path-45" cx="17.5" cy="17.5" r="17.5"></circle>
    </defs>
    <g id="var.3" stroke="none" stroke-width="1" fill="none" fill-rule="evenodd">
        <g id="stage-3-2-wide" transform="translate(-1375.000000, -928.000000)">
            <g id="воронка" transform="translate(1375.000000, 925.000000)">
                <g id="funnel">
                    <path d="M457.213733,478.769346 C461.76117,473.43702 538.329071,375.649136 686.917435,185.405694 C690.633804,181.867927 691.048082,179 687.842751,179 L2.15724939,179 C-1.04808171,179 -0.633803942,181.867927 3.08256468,185.405694 L230.958865,477.425729 L230.958865,520 L457.213733,520 L457.213733,478.769346 Z" id="Combined-Shape" fill="url(#linearGradient-1)"></path>
                    <g id="Oval">
                        <use fill="black" fill-opacity="1" filter="url(#filter-5)" xlink:href="#path-4"></use>
                        <use fill="url(#linearGradient-2)" fill-rule="evenodd" xlink:href="#path-4"></use>
                        <use fill="url(#linearGradient-3)" fill-rule="evenodd" xlink:href="#path-4"></use>
                        <use fill-opacity="0.2" fill="#71D2E4" fill-rule="evenodd" xlink:href="#path-4"></use>
                    </g>
                    <path d="M571.324845,333.43795 C502.523517,421.290695 464.748568,469.376354 458,477.694926 L458,510 L231,510 L231,477.592334 L116.880982,331.461718 C136.196871,349.956821 231.110774,364 345.289253,364 C455.364605,364 547.53509,350.948 571.324845,333.43795 Z" id="Combined-Shape" fill="url(#linearGradient-6)" opacity="0.15"></path>
                    <g id="Rectangle-11" transform="translate(230.000000, 478.000000)">
                        <mask id="mask-9" fill="white">
                            <use xlink:href="#path-8"></use>
                        </mask>
                        <use id="Mask" fill="url(#linearGradient-7)" xlink:href="#path-8"></use>
                        <g opacity="0.271456069" filter="url(#filter-12)" mask="url(#mask-9)">
                            <use fill="#1F98AD" xlink:href="#path-11"></use>
                            <use fill="url(#linearGradient-10)" xlink:href="#path-11"></use>
                        </g>
                        <g opacity="0.271456069" filter="url(#filter-14)" mask="url(#mask-9)">
                            <use fill="#FFFFFF" xlink:href="#path-13"></use>
                            <use fill="url(#linearGradient-10)" xlink:href="#path-13"></use>
                        </g>
                    </g>
                    <rect id="Rectangle-9" fill="#E9FAFF" x="307" y="524" width="74" height="28"></rect>
                    <g id="тень-2" transform="translate(0.000000, 140.000000)">
                        <mask id="mask-16" fill="white">
                            <use xlink:href="#path-15"></use>
                        </mask>
                        <g id="Mask"></g>
                        <polygon id="Rectangle-10" fill="#97D0DA" opacity="0.2" filter="url(#filter-17)" mask="url(#mask-16)" points="483 69 628 52 409 361 373 361"></polygon>
                    </g>
                    <g id="тень" transform="translate(116.000000, 331.000000)">
                        <mask id="mask-19" fill="white">
                            <use xlink:href="#path-18"></use>
                        </mask>
                        <g id="Mask" opacity="0.5"></g>
                        <polygon id="Rectangle-10" fill="#1F98AD" opacity="0.3" filter="url(#filter-20)" mask="url(#mask-19)" points="367 -122 512 -139 293 170 257 170"></polygon>
                    </g>
                    <g id="блик-" opacity="0.119999997" transform="translate(345.000000, 316.000000) scale(-1, 1) translate(-345.000000, -316.000000) translate(0.000000, 140.000000)">
                        <mask id="mask-22" fill="white">
                            <use xlink:href="#path-21"></use>
                        </mask>
                        <g id="Mask"></g>
                        <polygon id="Rectangle-10" fill="#FFFFFF" filter="url(#filter-23)" mask="url(#mask-22)" points="483 69 628 52 409 361 373 361"></polygon>
                    </g>
                    <g id="блик-2" transform="translate(344.500000, 411.500000) scale(-1, 1) translate(-344.500000, -411.500000) translate(116.000000, 331.000000)">
                        <mask id="mask-26" fill="white">
                            <use xlink:href="#path-25"></use>
                        </mask>
                        <use id="Mask" fill="url(#linearGradient-24)" opacity="0.5" xlink:href="#path-25"></use>
                        <polygon id="Rectangle-10" fill="#FFFFFF" opacity="0.2" filter="url(#filter-27)" mask="url(#mask-26)" points="367 -122 512 -139 293 170 257 170"></polygon>
                    </g>
                    <g id="2" transform="translate(308.000000, 124.000000)">
                        <circle id="Oval" stroke="#FFFFFF" stroke-width="4" transform="translate(37.000000, 37.000000) rotate(11.000000) translate(-37.000000, -37.000000) " cx="37" cy="37" r="29"></circle>
                        <g id="Shape" transform="translate(37.000000, 37.000000) rotate(11.000000) translate(-37.000000, -37.000000) translate(10.000000, 10.000000)">
                            <mask id="mask-29" fill="white">
                                <use xlink:href="#path-28"></use>
                            </mask>
                            <use id="Mask" fill="#97D3DE" xlink:href="#path-28"></use>
                            <g id="user-(6)" mask="url(#mask-29)">
                                <g transform="translate(-2.000000, -1.000000)">
                                    <path d="M28.0003386,0 C12.5361679,0 0,12.5351908 0,28.0006772 C0,43.4637934 12.5361679,56 28.0003386,56 C43.4638321,56 56,43.4637934 56,28.0006772 C56,12.535078 43.4638321,0 28.0003386,0 Z" id="Shape" fill="#337180" fill-rule="nonzero"></path>
                                    <path d="M45.8380656,43.4560167 C44.999031,40.4390771 37.8164038,38 28.961789,38 C20.1071743,38 13.000969,40.4390771 12.1619344,43.4560167 C11.7879719,44.800639 11.3630615,47.3480999 11,49.8180332 C15.9051165,53.6815827 22.1714839,56 29.000459,56 C35.828975,56 42.0949983,53.6815827 47,49.8181438 C46.6369385,47.3482105 46.2120281,44.800639 45.8380656,43.4560167 Z" id="Shape" fill="#261D17" fill-rule="nonzero"></path>
                                    <polygon id="Shape" fill="#969899" fill-rule="nonzero" points="28.4717145 36 24 36.5646497 24.2105574 37.9806836 28.4669625 41 32.7894426 37.9806836 33 36.5646497"></polygon>
                                    <path d="M29.470326,36 L25,37.9807485 C25,37.9807485 26.9974151,41 29.4653408,41 C31.9332665,41 34,37.9807485 34,37.9807485 L29.470326,36 Z" id="Shape" fill="#7F3E09" fill-rule="nonzero"></path>
                                    <path d="M29.4655063,39.9025006 C27.0364364,39.9025006 25.8220205,38.9729819 25.3106812,38.4134487 L29.5091587,44 L33.7638966,38.3154371 C33.2909761,38.8558728 32.0428991,39.9025006 29.4655063,39.9025006 Z M25.3106812,38.4134487 L25,38 C25,38 25.0907541,38.172755 25.3106812,38.4134487 Z M33.7640155,38.3154371 C33.9286337,38.1274261 34,38.0001098 34,38.0001098 L33.7640155,38.3154371 Z" id="Shape" fill="#261D17" fill-rule="nonzero"></path>
                                    <path d="M33,31 L24,31 C25.4042684,35.6623435 24.1131653,37.7911593 24.1131653,37.7911593 L27.2271792,40 L29.7728208,40 L32.8868347,37.7912867 C32.8868347,37.7911593 31.5957316,35.6623435 33,31 Z" id="Shape" fill="#E2A176" fill-rule="nonzero"></path>
                                    <g id="Group" stroke-width="1" fill="none" fill-rule="evenodd" transform="translate(22.000000, 36.000000)">
                                        <path d="M10.9661724,0.0265945946 L6.5065,3.32389189 C6.5065,3.32389189 10.3202069,3.97351351 10.3390345,3.95545946 L12.9713103,1.70724324 L10.9661724,0.0265945946 Z" id="Shape" fill="#F3FAFF" fill-rule="nonzero"></path>
                                        <path d="M2.05153448,0.0265945946 L0.0461724138,1.70735135 L2.67856034,3.95556757 C2.69738793,3.97362162 6.5065,3.324 6.5065,3.324 L2.05153448,0.0265945946 Z" id="Shape" fill="#F3FAFF" fill-rule="nonzero"></path>
                                    </g>
                                    <path d="M28.0001133,6 C22.4772416,6 18,8.42497494 18,19.0140054 C18,22.5959616 18.7013926,25.4026636 19.7520084,27.5688386 C22.0630913,32.3344694 26.0634086,34 28.0001133,34 C29.936818,34 33.9371353,32.3344694 36.2479916,27.5688386 C37.2984941,25.4026636 38,22.5959616 38,19.0140054 C38,8.42497494 33.5227584,6 28.0001133,6 Z" id="Shape" fill="#F4B382" fill-rule="nonzero"></path>
                                    <g id="Group" stroke-width="1" fill="none" fill-rule="evenodd" transform="translate(15.000000, 3.000000)">
                                        <path d="M24.7288372,14.0264975 C24.7288372,14.0264975 25.6605814,12.2126497 23.2890698,10.6353401 C23.2890698,10.6353401 24.4747674,10.3989188 24.6440698,10.9509188 C24.6440698,10.9509188 24.0511628,8.03307107 22.2726744,7.24441624 C22.2726744,7.24441624 23.035,7.00787817 24.0511628,8.03307107 C24.0511628,8.03307107 23.6277907,5.82495431 21.0872093,5.11522335 C21.0872093,5.11522335 21.5952326,4.87868528 22.442093,5.27307107 C22.442093,5.27307107 21.7646512,3.85349239 19.6473256,3.38029949 C19.6473256,3.38029949 19.477907,2.67068528 20.4095349,2.74949239 C20.4095349,2.74949239 18.5465116,1.88203046 16.7680233,1.8031066 C16.7680233,1.8031066 17.3609302,0.541492386 18.377093,0.541492386 C18.377093,0.541492386 15.9210465,-0.168238579 14.2273256,0.777913706 C14.2273256,0.777913706 13.2956977,0.38364467 13.8886047,0.0681827411 C13.8886047,0.0681827411 9.31534884,-0.0895482234 9.06127907,2.35522335 C9.06127907,2.35522335 7.79093023,2.27629949 6.69,1.72429949 C6.69,1.72429949 5.58895349,2.51295431 6.60523256,3.45922335 C6.60523256,3.45922335 3.97988372,3.53814721 2.79418605,5.43080203 C2.79418605,5.43080203 3.38709302,5.19426396 4.14918605,5.27307107 C4.14918605,5.27307107 2.11674419,6.29814721 1.86255814,8.03318782 C1.86255814,8.03318782 2.45534884,7.79664975 3.13290698,7.8753401 C3.13290698,7.8753401 1.94732558,8.58507107 1.43918605,10.004533 C1.43918605,10.004533 1.94732558,9.84680203 2.70953488,9.76811168 C2.70953488,9.76811168 0.0841860465,11.8184975 0.0841860465,14.7362284 C0.0841860465,14.7362284 1.10046512,13.1590355 1.69325581,13.1590355 C1.69325581,13.1590355 1.3544186,15.6824975 2.03209302,18.5215381 C2.03209302,18.5215381 2.45546512,17.181 2.87895349,17.2598071 C2.87895349,17.2598071 2.79418605,19.4678071 4.14930233,20.9661929 C4.14930233,20.9661929 4.14930233,15.8403452 5.08081395,15.7613046 C5.08081395,15.7613046 5.58906977,16.4711523 6.18186047,16.9443452 C6.18186047,16.9443452 5.08081395,10.7144975 7.79104651,10.2411878 C7.79104651,10.2411878 8.63790698,14.8940761 11.940814,15.5248832 C11.940814,15.5248832 10.8398837,12.2127665 10.9246512,10.9510355 C10.9246512,10.9510355 14.4816279,12.6070355 15.5826744,15.9191523 C15.5826744,15.9191523 16.0060465,14.1054213 15.4132558,11.3453046 C15.4132558,11.3453046 17.1917442,12.2914569 17.0223256,15.4460761 C17.0223256,15.4460761 18.3773256,14.8939594 18.462093,13.0802284 C18.462093,13.0802284 19.5630233,14.8150355 19.055,16.6288832 C19.055,16.6288832 19.309186,17.0231523 19.8172093,16.1556904 C19.8172093,16.1556904 21.87,17.1717766 21.7537209,20.4928832 C21.7537209,20.4928832 23.8997674,17.755533 23.2362791,14.9727665 C23.2362791,14.9727665 23.8443023,16.4711523 23.7595349,17.4963452 C23.7595349,17.4963452 24.3056977,15.2093046 23.7130233,12.5281117 C23.7126744,12.5281117 24.4747674,13.1589188 24.7288372,14.0264975 Z" id="Shape" fill="#261D17" fill-rule="nonzero"></path>
                                        <path d="M8.73011628,17.0428832 C6.78209302,17.0428832 5.20302326,17.3848477 5.20302326,19.8270508 C5.20302326,21.3647817 6.07872093,22.9043807 8.73011628,22.9043807 C10.677907,22.9043807 12.257093,21.3647817 12.257093,19.8270508 C12.257093,18.2894365 10.677907,17.0428832 8.73011628,17.0428832 Z M8.73011628,22.2980914 C6.62732558,22.2980914 5.93267442,21.0769898 5.93267442,19.8574061 C5.93267442,17.9203858 7.18511628,17.6491726 8.73011628,17.6491726 C10.275,17.6491726 11.5274419,18.6378223 11.5274419,19.8574061 C11.5274419,21.0769898 10.275,22.2980914 8.73011628,22.2980914 Z" id="Shape" fill="#261D17" fill-rule="nonzero"></path>
                                    </g>
                                    <path d="M23.500052,21 C22.1192975,21 21,21.2333559 21,22.8999975 C21,23.9493458 21.6208043,25 23.500052,25 C24.8807025,25 26,23.9493458 26,22.8999975 C26,21.8506492 24.8807025,21 23.500052,21 Z" id="Shape" fill="#F4C4A4" fill-rule="nonzero"></path>
                                    <path d="M23.3570099,21 C22.0552562,21 21,21.2380062 21,22.9378602 C21,23.8353782 21.4119722,24.733306 22.5895954,25 L24,21.0736661 C23.7955325,21.0260239 23.5799941,21 23.3570099,21 Z" id="Shape" fill="#F4CCB0" fill-rule="nonzero"></path>
                                    <path d="M24.3542803,21 L23,24.9205095 C23.2176858,24.971764 23.4621825,25 23.7368768,25 C24.9867357,25 26,23.9299982 26,22.8613264 C26,21.9758817 25.3039511,21.229878 24.3542803,21 Z" id="Shape" fill="#F4C4A4" fill-rule="nonzero"></path>
                                    <g id="Group" stroke-width="1" fill="none" fill-rule="evenodd" transform="translate(19.000000, 20.000000)">
                                        <path d="M2.02001274,1.29377358 L0.682509554,0.0987735849 C0.553757962,-0.0162264151 0.336152866,-0.0236792453 0.196509554,0.0823584906 C0.0567515924,0.188301887 0.0478089172,0.367264151 0.17644586,0.482264151 L1.51394904,1.67726415 C1.58182166,1.73792453 1.6742293,1.76858491 1.76709554,1.76858491 C1.85044586,1.76858491 1.93391083,1.74386792 1.99994904,1.69377358 C2.13970701,1.58773585 2.14864968,1.40877358 2.02001274,1.29377358 Z" id="Shape" fill="#261D17" fill-rule="nonzero"></path>
                                        <path d="M17.7834268,0.0823584906 C17.6437834,-0.0236792453 17.4261783,-0.0162264151 17.2974268,0.0987735849 L15.9599236,1.29377358 C15.8312866,1.40877358 15.8402293,1.58773585 15.9799873,1.69367925 C16.0460255,1.74377358 16.1296051,1.76849057 16.2128408,1.76849057 C16.305707,1.76849057 16.3981146,1.73783019 16.4659873,1.67716981 L17.8034904,0.482169811 C17.9321274,0.367264151 17.9231847,0.188301887 17.7834268,0.0823584906 Z" id="Shape" fill="#261D17" fill-rule="nonzero"></path>
                                        <path d="M13.079121,0.186415094 C11.1586242,0.186415094 9.60156688,1.42277892 9.60156688,2.9478245 C9.60156688,4.47298587 11.1586242,6 13.079121,6 C15.6933631,6 16.5567898,4.47298587 16.5567898,2.9478245 C16.5567898,0.525584304 14.9998471,0.186415094 13.079121,0.186415094 Z M13.079121,5.39866654 C11.5558854,5.39866654 10.3209936,4.18754644 10.3209936,2.9779317 C10.3209936,1.76831696 11.5558854,0.787748555 13.079121,0.787748555 C14.6024713,0.787748555 15.8373631,1.05674483 15.8373631,2.9779317 C15.8373631,4.18754644 15.1524459,5.39866654 13.079121,5.39866654 Z" id="Shape" fill="#261D17" fill-rule="nonzero"></path>
                                    </g>
                                    <path d="M31.499948,21 C30.1192975,21 29,21.8506492 29,22.8999975 C29,23.9493458 30.1192975,25 31.499948,25 C33.3791957,25 34,23.9493458 34,22.8999975 C34,21.2333559 32.8807025,21 31.499948,21 Z" id="Shape" fill="#F4C4A4" fill-rule="nonzero"></path>
                                    <path d="M32.2616108,21 C32.047634,21 31.8408023,21.0260988 31.6445942,21.0738781 C30.6955186,21.3047599 30,22.0540214 30,22.9434355 C30,23.8313083 30.6930743,24.7193866 31.6394234,25 L33,21.0419225 C32.7684425,21.0105834 32.5202444,21 32.2616108,21 Z" id="Shape" fill="#F4CCB0" fill-rule="nonzero"></path>
                                    <path d="M33.4153084,21 L32,24.9096699 C32.2057635,24.9676233 32.4225779,25 32.6472161,25 C32.9327813,25 33.186954,24.9719875 33.4132547,24.9211388 C34.5887665,24.6569486 35,23.7673492 35,22.8783588 C35,21.5429956 34.3373321,21.1185456 33.4153084,21 Z" id="Shape" fill="#F4C4A4" fill-rule="nonzero"></path>
                                    <g id="Group" stroke-width="1" fill="none" fill-rule="evenodd" transform="translate(27.000000, 23.000000)">
                                        <path d="M2.92242857,0.0640909091 L0.0935357143,0.0640909091 C0.0676071429,0.0640909091 0.607071429,1.01109091 0.627964286,1.01109091 L2.65821429,1.011 C2.67932143,1.01090909 2.94867857,0.0640909091 2.92242857,0.0640909091 Z" id="Shape" fill="#261D17" fill-rule="nonzero"></path>
                                        <path d="M2.47982143,1.02236364 C2.19932143,0.854545455 1.85925,0.689 1.497,0.689 C1.22089286,0.689 0.957964286,0.814909091 0.724285714,0.915272727 C0.357107143,1.07272727 0.356785714,1.92945455 0.356785714,1.92945455 C0.56625,1.55827273 1.01410714,1.31854545 1.497,1.31854545 C1.97989286,1.31854545 2.42764286,1.55836364 2.63721429,1.92945455 C2.63721429,1.92945455 2.74853571,1.18309091 2.47982143,1.02236364 Z" id="Shape" fill="#261D17" fill-rule="nonzero"></path>
                                    </g>
                                    <g id="Group" stroke-width="1" fill="none" fill-rule="evenodd" transform="translate(17.000000, 20.000000)">
                                        <path d="M1.43993939,0.00183870968 C0.459767677,0.141483871 -0.285757576,0.49316129 0.267171717,3.18783871 C0.82010101,5.88251613 1.50696465,6.00793548 2.48725253,5.86829032 L1.43993939,0.00183870968 Z" id="Shape" fill="#F4B382" fill-rule="nonzero"></path>
                                        <path d="M21.589798,0.00183870968 L20.5424848,5.86829032 C21.5226566,6.00793548 22.209404,5.8826129 22.7624495,3.18783871 C23.3156111,0.49316129 22.5699697,0.141483871 21.589798,0.00183870968 Z" id="Shape" fill="#F4B382" fill-rule="nonzero"></path>
                                    </g>
                                </g>
                            </g>
                        </g>
                    </g>
                    <g id="1" transform="translate(407.000000, 105.000000)">
                        <circle id="Oval" stroke="#FFFFFF" stroke-width="5" transform="translate(25.000000, 25.000000) rotate(-6.000000) translate(-25.000000, -25.000000) " cx="25" cy="25" r="19.5"></circle>
                        <g id="Shape" transform="translate(25.000000, 25.000000) rotate(-6.000000) translate(-25.000000, -25.000000) translate(6.000000, 6.000000)">
                            <mask id="mask-31" fill="white">
                                <use xlink:href="#path-30"></use>
                            </mask>
                            <use id="Mask" fill="#006071" xlink:href="#path-30"></use>
                            <g id="user-(4)" mask="url(#mask-31)">
                                <g transform="translate(-6.000000, -3.000000)">
                                    <path d="M24.5002963,0 C10.9691469,0 0,10.968292 0,24.5005926 C0,38.0308192 10.9691469,49 24.5002963,49 C38.0308531,49 49,38.0308192 49,24.5005926 C49,10.9681932 38.0308531,0 24.5002963,0 Z" id="Shape" fill="#4ABC96" fill-rule="nonzero"></path>
                                    <path d="M38.9994454,37.8497926 C38.2769434,35.1680686 32.0919033,33 24.4670961,33 C16.842289,33 10.7230566,35.1680686 10.0005546,37.8497926 C9.67853136,39.0450124 9.31263626,41.3094221 9,43.5049184 C13.2238503,46.9391847 18.6198889,49 24.5003952,49 C30.3805063,49 35.7762485,46.9391847 40,43.5050167 C39.6873637,41.3095204 39.3214686,39.0450124 38.9994454,37.8497926 Z" id="Shape" fill="#33333B" fill-rule="nonzero"></path>
                                    <polygon id="Shape" fill="#969899" fill-rule="nonzero" points="24.9748573 31 21 31.5646497 21.1871621 32.9806836 24.9706333 36 28.8128379 32.9806836 29 31.5646497"></polygon>
                                    <path d="M24.4769202,31 L21,32.9807485 C21,32.9807485 22.5535451,36 24.4730428,36 C26.3925406,36 28,32.9807485 28,32.9807485 L24.4769202,31 Z" id="Shape" fill="#7F3E09" fill-rule="nonzero"></path>
                                    <path d="M21.2416409,33.3445406 L21,33 C21,33 21.0705865,33.1439625 21.2416409,33.3445406 Z M27.8164565,33.2628643 C27.9444929,33.1061884 28,33.0000915 28,33.0000915 L27.8164565,33.2628643 Z M24.4731716,34.5854172 C22.583895,34.5854172 21.6393492,33.8108182 21.2416409,33.3445406 L24.5071234,38 L27.816364,33.2628643 C27.448537,33.7132274 26.4778104,34.5854172 24.4731716,34.5854172 Z" id="Shape" fill="#33333B" fill-rule="nonzero"></path>
                                    <path d="M29,28 L21,28 C22.2482386,31.6262672 21.1005914,33.2820128 21.1005914,33.2820128 L23.8686038,35 L26.1313962,35 L28.8994086,33.2821119 C28.8994086,33.2820128 27.7517614,31.6262672 29,28 Z" id="Shape" fill="#E5BA9C" fill-rule="nonzero"></path>
                                    <g id="Group" stroke-width="1" fill="none" fill-rule="evenodd" transform="translate(19.000000, 32.000000)">
                                        <path d="M10.1226207,0.0265945946 L6.006,3.32389189 C6.006,3.32389189 9.52634483,3.97351351 9.54372414,3.95545946 L11.9735172,1.70724324 L10.1226207,0.0265945946 Z" id="Shape" fill="#F3FAFF" fill-rule="nonzero"></path>
                                        <path d="M1.89372414,0.0265945946 L0.0426206897,1.70735135 L2.47251724,3.95556757 C2.48989655,3.97362162 6.006,3.324 6.006,3.324 L1.89372414,0.0265945946 Z" id="Shape" fill="#F3FAFF" fill-rule="nonzero"></path>
                                    </g>
                                    <path d="M25.000102,6 C20.0295174,6 16,8.07854995 16,17.1548618 C16,20.22511 16.6312533,22.6308545 17.5768076,24.4875759 C19.6567822,28.5724024 23.2570677,30 25.000102,30 C26.7431362,30 30.3434218,28.5724024 32.4231924,24.4875759 C33.3686447,22.6308545 34,20.22511 34,17.1548618 C34,8.07854995 29.9704826,6 25.000102,6 Z" id="Shape" fill="#AF4B19" fill-rule="nonzero"></path>
                                    <path d="M25.0002039,6 C20.0625291,6 16.053339,8.07368794 16.0000001,17.0957447 C15.9996941,17.1565106 16.7707118,17.2176738 16.7707118,17.2790355 C16.7707118,20.383461 18.0311626,27 25.0002039,27 C31.9692453,27 33.2294921,20.383461 33.2294921,17.2790355 C33.2294921,17.209234 34.0004078,17.1398298 33.9999998,17.0708227 C33.9392159,8.0698156 29.9330854,6 25.0002039,6 Z" id="Shape" fill="#F9C5A2" fill-rule="nonzero"></path>
                                    <path d="M25.0001512,6 C25.0000504,6 25.0000504,6 25.0001512,6 L24.9999496,6 C19.4772103,6 15,8.04979049 15,17 C15,17 28.1150697,16.859687 28.1150697,13.6015001 C28.1150697,16.859687 35,17 35,17 C35.0001008,8.04979049 30.5229913,6 25.0001512,6 Z" id="Shape" fill="#AF4B19" fill-rule="nonzero"></path>
                                    <g id="Group" stroke-width="1" fill="none" fill-rule="evenodd" transform="translate(19.000000, 20.000000)">
                                        <circle id="Oval" fill="#C98A5F" fill-rule="nonzero" cx="8.24475926" cy="3.2332381" r="1"></circle>
                                        <circle id="Oval" fill="#C98A5F" fill-rule="nonzero" cx="8.24475926" cy="2.04657143" r="1"></circle>
                                        <circle id="Oval" fill="#C98A5F" fill-rule="nonzero" cx="8.24475926" cy="0.859904762" r="1"></circle>
                                        <circle id="Oval" fill="#C98A5F" fill-rule="nonzero" cx="10.7829074" cy="3.2332381" r="1"></circle>
                                        <circle id="Oval" fill="#C98A5F" fill-rule="nonzero" cx="10.7829074" cy="2.04657143" r="1"></circle>
                                        <circle id="Oval" fill="#C98A5F" fill-rule="nonzero" cx="10.7829074" cy="0.859904762" r="1"></circle>
                                        <circle id="Oval" fill="#C98A5F" fill-rule="nonzero" cx="9.51383333" cy="3.8332381" r="1"></circle>
                                        <circle id="Oval" fill="#C98A5F" fill-rule="nonzero" cx="9.51383333" cy="2.64657143" r="1"></circle>
                                        <circle id="Oval" fill="#C98A5F" fill-rule="nonzero" cx="9.51383333" cy="1.45990476" r="1"></circle>
                                        <circle id="Oval" fill="#C98A5F" fill-rule="nonzero" cx="9.51383333" cy="0.273238095" r="1"></circle>
                                        <circle id="Oval" fill="#C98A5F" fill-rule="nonzero" cx="0.351240741" cy="3.2332381" r="1"></circle>
                                        <circle id="Oval" fill="#C98A5F" fill-rule="nonzero" cx="0.351240741" cy="2.04657143" r="1"></circle>
                                        <circle id="Oval" fill="#C98A5F" fill-rule="nonzero" cx="0.351240741" cy="0.859904762" r="1"></circle>
                                        <circle id="Oval" fill="#C98A5F" fill-rule="nonzero" cx="2.88938889" cy="3.2332381" r="1"></circle>
                                        <circle id="Oval" fill="#C98A5F" fill-rule="nonzero" cx="2.88938889" cy="2.04657143" r="1"></circle>
                                        <circle id="Oval" fill="#C98A5F" fill-rule="nonzero" cx="2.88938889" cy="0.859904762" r="1"></circle>
                                        <circle id="Oval" fill="#C98A5F" fill-rule="nonzero" cx="1.62031481" cy="3.8332381" r="1"></circle>
                                        <circle id="Oval" fill="#C98A5F" fill-rule="nonzero" cx="1.62031481" cy="2.64657143" r="1"></circle>
                                        <circle id="Oval" fill="#C98A5F" fill-rule="nonzero" cx="1.62031481" cy="1.45990476" r="1"></circle>
                                        <circle id="Oval" fill="#C98A5F" fill-rule="nonzero" cx="1.62031481" cy="0.273238095" r="1"></circle>
                                    </g>
                                    <g id="Group" stroke-width="1" fill="none" fill-rule="evenodd" transform="translate(15.000000, 18.000000)">
                                        <path d="M1.25212121,0.00183870968 C0.39979798,0.141483871 -0.248484848,0.49316129 0.232323232,3.18783871 C0.713131313,5.88251613 1.31040404,6.00793548 2.16282828,5.86829032 L1.25212121,0.00183870968 Z" id="Shape" fill="#F9C5A2" fill-rule="nonzero"></path>
                                        <path d="M18.7737374,0.00183870968 L17.8630303,5.86829032 C18.7153535,6.00793548 19.3125253,5.8826129 19.7934343,3.18783871 C20.2744444,0.49316129 19.6260606,0.141483871 18.7737374,0.00183870968 Z" id="Shape" fill="#F9C5A2" fill-rule="nonzero"></path>
                                    </g>
                                    <path d="M24.5,24 C22.1775762,24 21,24.7540856 21,26.2412451 C21,28.0679533 22.7990464,30 24.5,30 C26.2009536,30 28,28.0679533 28,26.2412451 C28,24.7540856 26.8224238,24 24.5,24 Z M24.5,28.8547237 C23.2579868,28.8547237 21.8422252,27.6465992 21.8422252,26.2970895 C21.8422252,25.9216809 21.8422252,24.7794864 24.5,24.7794864 C27.1577748,24.7794864 27.1577748,25.9217743 27.1577748,26.2970895 C27.1577748,27.6465992 25.7420132,28.8547237 24.5,28.8547237 Z" id="Shape" fill="#AF4B19" fill-rule="nonzero"></path>
                                </g>
                            </g>
                        </g>
                    </g>
                    <g id="3" transform="translate(205.000000, 187.000000) rotate(-11.000000) translate(-205.000000, -187.000000) translate(183.000000, 165.000000)">
                        <circle id="Oval" stroke="#FFFFFF" stroke-width="3" cx="22" cy="22" r="20.5"></circle>
                        <g id="Shape" transform="translate(3.000000, 3.000000)">
                            <mask id="mask-33" fill="white">
                                <use xlink:href="#path-32"></use>
                            </mask>
                            <use id="Mask" fill="#006071" xlink:href="#path-32"></use>
                            <g id="user-(2)" mask="url(#mask-33)">
                                <g transform="translate(-7.000000, -6.000000)">
                                    <path d="M26.0003144,0 C11.6407273,0 0,11.6398201 0,26.0006288 C0,40.3592367 11.6407273,52 26.0003144,52 C40.3592727,52 52,40.3592367 52,26.0006288 C52,11.6397152 40.3592727,0 26.0003144,0 Z" id="Shape" fill="#4ABC96" fill-rule="nonzero"></path>
                                    <polygon id="Shape" fill="#AF4B19" fill-rule="nonzero" points="26.5 11 16 18.1794567 16 43 37 43 37 18.1794567"></polygon>
                                    <path d="M40.9348935,40.1529047 C40.1657784,37.3035729 33.5817035,35 25.4649733,35 C17.3482431,35 10.8342216,37.3035729 10.0651065,40.1529047 C9.72230757,41.4228257 9.33280634,43.828761 9,46.1614758 C13.4963568,49.8103837 19.2405269,52 25.5004207,52 C31.7598938,52 37.5037484,49.8103837 42,46.1615803 C41.6671937,43.8288655 41.2776924,41.4228257 40.9348935,40.1529047 Z" id="Shape" fill="#F9C5A2" fill-rule="nonzero"></path>
                                    <path d="M34.3114704,35.9068421 C31.9200436,35.3348694 29.0734696,35 26.0054246,35 C22.9879748,35 20.1938736,35.3236931 17.8395846,35.8784315 C17.3522026,38.1456413 15.5873204,46.3863944 15,49.5280666 C18.3487695,51.1124813 22.0909289,52 26.0405804,52 C29.95831,52 33.6718858,51.1272088 37,49.5667134 L34.3114704,35.9068421 Z" id="Shape" fill="#33333B" fill-rule="nonzero"></path>
                                    <path d="M30,29 L22,29 C23.2482386,32.6984349 22.1005914,34.3871321 22.1005914,34.3871321 L24.8686038,35 L27.1313962,35 L29.8994086,34.3872332 C29.8994086,34.3871321 28.7517614,32.6984349 30,29 Z" id="Shape" fill="#E5BA9C" fill-rule="nonzero"></path>
                                    <path d="M26.5001066,6 C21.8056186,6 18,8.25176244 18,18.0844336 C18,21.4105358 18.5963099,24.0167591 19.4892292,26.0282073 C21.4536945,30.4534359 24.8538864,32 26.5001066,32 C28.1463268,32 31.5465186,30.4534359 33.5108773,26.0282073 C34.4036901,24.0167591 35,21.4105358 35,18.0844336 C35,8.25176244 31.1943814,6 26.5001066,6 Z" id="Shape" fill="#F9C5A2" fill-rule="nonzero"></path>
                                    <g id="Group" stroke-width="1" fill="none" fill-rule="evenodd" transform="translate(20.000000, 21.000000)">
                                        <ellipse id="Oval" fill="#C98A5F" fill-rule="nonzero" cx="8.33456296" cy="3.38765306" rx="1" ry="1"></ellipse>
                                        <ellipse id="Oval" fill="#C98A5F" fill-rule="nonzero" cx="8.33456296" cy="2.11622449" rx="1" ry="1"></ellipse>
                                        <ellipse id="Oval" fill="#C98A5F" fill-rule="nonzero" cx="8.33456296" cy="0.844795918" rx="1" ry="1"></ellipse>
                                        <ellipse id="Oval" fill="#C98A5F" fill-rule="nonzero" cx="10.9188593" cy="3.38765306" rx="1" ry="1"></ellipse>
                                        <ellipse id="Oval" fill="#C98A5F" fill-rule="nonzero" cx="10.9188593" cy="2.11622449" rx="1" ry="1"></ellipse>
                                        <ellipse id="Oval" fill="#C98A5F" fill-rule="nonzero" cx="10.9188593" cy="0.844795918" rx="1" ry="1"></ellipse>
                                        <ellipse id="Oval" fill="#C98A5F" fill-rule="nonzero" cx="9.62671111" cy="4.0305102" rx="1" ry="1"></ellipse>
                                        <ellipse id="Oval" fill="#C98A5F" fill-rule="nonzero" cx="9.62671111" cy="2.75908163" rx="1" ry="1"></ellipse>
                                        <ellipse id="Oval" fill="#C98A5F" fill-rule="nonzero" cx="9.62671111" cy="1.48765306" rx="1" ry="1"></ellipse>
                                        <ellipse id="Oval" fill="#C98A5F" fill-rule="nonzero" cx="9.62671111" cy="0.21622449" rx="1" ry="1"></ellipse>
                                        <ellipse id="Oval" fill="#C98A5F" fill-rule="nonzero" cx="0.297525926" cy="3.38765306" rx="1" ry="1"></ellipse>
                                        <ellipse id="Oval" fill="#C98A5F" fill-rule="nonzero" cx="0.297525926" cy="2.11622449" rx="1" ry="1"></ellipse>
                                        <ellipse id="Oval" fill="#C98A5F" fill-rule="nonzero" cx="0.297525926" cy="0.844795918" rx="1" ry="1"></ellipse>
                                        <ellipse id="Oval" fill="#C98A5F" fill-rule="nonzero" cx="2.88182222" cy="3.38765306" rx="1" ry="1"></ellipse>
                                        <ellipse id="Oval" fill="#C98A5F" fill-rule="nonzero" cx="2.88182222" cy="2.11622449" rx="1" ry="1"></ellipse>
                                        <ellipse id="Oval" fill="#C98A5F" fill-rule="nonzero" cx="2.88182222" cy="0.844795918" rx="1" ry="1"></ellipse>
                                        <ellipse id="Oval" fill="#C98A5F" fill-rule="nonzero" cx="1.58967407" cy="4.0305102" rx="1" ry="1"></ellipse>
                                        <ellipse id="Oval" fill="#C98A5F" fill-rule="nonzero" cx="1.58967407" cy="2.75908163" rx="1" ry="1"></ellipse>
                                        <ellipse id="Oval" fill="#C98A5F" fill-rule="nonzero" cx="1.58967407" cy="1.48765306" rx="1" ry="1"></ellipse>
                                        <ellipse id="Oval" fill="#C98A5F" fill-rule="nonzero" cx="1.58967407" cy="0.21622449" rx="1" ry="1"></ellipse>
                                    </g>
                                    <path d="M26.6591111,27.0057209 C26.329,26.9495386 25.5,27.3256656 25.5,27.3256656 C25.5,27.3256656 24.6593333,26.9505625 24.3265556,27.0082805 C23.7934444,27.1006805 23,28.1540663 23,28.3281162 C23,28.3281162 24.1193333,29 25.5,29 C26.8806667,29 28,28.3281162 28,28.3281162 C28,28.3281162 27.2003333,27.097865 26.6591111,27.0057209 Z" id="Shape" fill="#E24444" fill-rule="nonzero"></path>
                                    <path d="M26.1807778,28.0007011 C25.964,27.9842916 25.6851111,28.2613773 25.5,28.2613773 C25.2861111,28.2613773 24.9656667,27.9874172 24.7194444,28.0086714 C23.2583333,28.1352588 23,28.5739387 23,28.5739387 C23,28.5739387 24.1193333,30 25.5,30 C26.8806667,30 28,28.5739387 28,28.5739387 C28,28.5739387 27.6981111,28.1152548 26.1807778,28.0007011 Z" id="Shape" fill="#D33D3D" fill-rule="nonzero"></path>
                                    <g id="Group" stroke-width="1" fill="none" fill-rule="evenodd" transform="translate(22.000000, 33.000000)">
                                        <path d="M7.88830769,2.07061333 C7.88830769,2.07061333 6.97394872,3.91946667 3.97825641,3.91946667 C0.982461538,3.91946667 0.127692308,2.07061333 0.127692308,2.07061333 C0.127692308,2.07061333 -0.591794872,7.90176 4.01589744,7.90176 C8.62348718,7.90176 7.88830769,2.07061333 7.88830769,2.07061333 Z" id="Shape" fill="#E5BA9C" fill-rule="nonzero"></path>
                                        <path d="M3.98246154,0.10624 L0.119692308,2.07072 C0.119692308,2.07072 1.84564103,5.06517333 3.97815385,5.06517333 C6.11066667,5.06517333 7.89651282,2.07072 7.89651282,2.07072 L3.98246154,0.10624 Z" id="Shape" fill="#E5BA9C" fill-rule="nonzero"></path>
                                    </g>
                                    <path d="M26.5001587,6 C26.5000529,6 26.5000529,6 26.5001587,6 L26.4999471,6 C20.7010708,6 16,8.23613508 16,18 C16,18 29.7708231,17.8469312 29.7708231,14.2925455 C29.7708231,17.8469312 37,18 37,18 C37.0001058,8.23613508 32.2991408,6 26.5001587,6 Z" id="Shape" fill="#AF4B19" fill-rule="nonzero"></path>
                                    <g id="Group" stroke-width="1" fill="none" fill-rule="evenodd" transform="translate(17.000000, 19.000000)">
                                        <path d="M1.14275978,0.101263158 C0.33350838,0.238526316 -0.282027933,0.584105263 0.174502793,3.23242105 C0.63124581,5.88073684 1.19827374,6.00389474 2.00741899,5.86663158 L1.14275978,0.101263158 Z" id="Shape" fill="#F9C5A2" fill-rule="nonzero"></path>
                                        <path d="M17.7783743,0.101263158 L16.9137151,5.86663158 C17.7230726,6.00389474 18.2901006,5.88073684 18.7466313,3.23242105 C19.203162,0.584105263 18.5875196,0.238526316 17.7783743,0.101263158 Z" id="Shape" fill="#F9C5A2" fill-rule="nonzero"></path>
                                    </g>
                                    <g id="Group" stroke-width="1" fill="none" fill-rule="evenodd" transform="translate(17.000000, 18.000000)">
                                        <path d="M1.68075281,1.30652632 C1.56952809,0.613578947 1.68790449,0.0609473684 1.68790449,0.0609473684 L0.0881685393,0.65 C0.0881685393,0.65 1.07584831,0.780210526 1.43172472,1.90305263 C1.43172472,1.90305263 1.82261236,2.19021053 1.68075281,1.30652632 Z" id="Shape" fill="#AF4B19" fill-rule="nonzero"></path>
                                        <path d="M17.3330169,0.0609473684 C17.3330169,0.0609473684 17.4513933,0.613578947 17.3401685,1.30652632 C17.1984157,2.19010526 17.5893034,1.90305263 17.5893034,1.90305263 C17.945073,0.780210526 18.9327528,0.65 18.9327528,0.65 L17.3330169,0.0609473684 Z" id="Shape" fill="#AF4B19" fill-rule="nonzero"></path>
                                    </g>
                                </g>
                            </g>
                        </g>
                    </g>
                    <g id="4" transform="translate(0.000000, 140.000000)">
                        <mask id="mask-35" fill="white">
                            <use xlink:href="#path-34"></use>
                        </mask>
                        <g id="Mask" opacity="0">
                            <use fill="url(#linearGradient-2)" xlink:href="#path-34"></use>
                            <use fill="url(#linearGradient-3)" xlink:href="#path-34"></use>
                            <use fill-opacity="0.2" fill="#71D2E4" xlink:href="#path-34"></use>
                        </g>
                        <g id="Group-3" mask="url(#mask-35)">
                            <g transform="translate(490.000000, 62.000000) rotate(-3.000000) translate(-490.000000, -62.000000) translate(457.000000, 29.000000)">
                                <g id="Oval">
                                    <use fill="#1890A6" fill-rule="evenodd" xlink:href="#path-36"></use>
                                    <circle stroke="#FFFFFF" stroke-width="5" cx="33" cy="33" r="30.5"></circle>
                                </g>
                                <g id="Shape" stroke-width="1" fill-rule="evenodd" transform="translate(4.000000, 4.000000)">
                                    <mask id="mask-38" fill="white">
                                        <use xlink:href="#path-37"></use>
                                    </mask>
                                    <use id="Mask" fill="#97D3DE" xlink:href="#path-37"></use>
                                    <g id="user-(5)" mask="url(#mask-38)">
                                        <g transform="translate(-9.000000, -3.000000)">
                                            <path d="M38.0004595,0 C17.0133707,0 0,17.0120447 0,38.0009191 C0,58.9865767 17.0133707,76 38.0004595,76 C58.9866293,76 76,58.9865767 76,38.0009191 C76,17.0118915 58.9866293,0 38.0004595,0 Z" id="Shape" fill="#024C5B" fill-rule="nonzero"></path>
                                            <polygon id="Shape" fill="#261D17" fill-rule="nonzero" points="38 16 23 26.320469 23 62 53 62 53 26.320469"></polygon>
                                            <path d="M60.4507541,58.577801 C59.3320414,54.3876071 49.7552051,51 37.9490521,51 C26.142899,51 16.6679586,54.3876071 15.5492459,58.577801 C15.0506292,60.4453319 14.484082,63.9834721 14,67.4139351 C20.5401553,72.779976 28.8953119,76 38.000612,76 C47.1053001,76 55.4599977,72.779976 62,67.4140887 C61.515918,63.9836257 60.9493708,60.4453319 60.4507541,58.577801 Z" id="Shape" fill="#4ABC96" fill-rule="nonzero"></path>
                                            <path d="M44,43 L32,43 C33.8723579,48.5476523 32.1508871,51.0806981 32.1508871,51.0806981 L36.3029056,52 L39.6970944,52 L43.8491129,51.0808498 C43.8491129,51.0806981 42.1276421,48.5476523 44,43 Z" id="Shape" fill="#E2A176" fill-rule="nonzero"></path>
                                            <path d="M38.0001505,9 C31.372638,9 26,12.2910374 26,26.6618645 C26,31.5230908 26.8418492,35.3321863 28.1024413,38.2719953 C30.875804,44.7396371 35.6760749,47 38.0001505,47 C40.324226,47 45.1244969,44.7396371 47.8977092,38.2719953 C49.1581508,35.3321863 50,31.5230908 50,26.6618645 C50,12.2910374 44.627362,9 38.0001505,9 Z" id="Shape" fill="#F4B382" fill-rule="nonzero"></path>
                                            <path d="M39.1227556,40.0057209 C38.6606,39.9495386 37.5,40.3256656 37.5,40.3256656 C37.5,40.3256656 36.3230667,39.9505625 35.8571778,40.0082805 C35.1108222,40.1006805 34,41.1540663 34,41.3281162 C34,41.3281162 35.5670667,42 37.5,42 C39.4329333,42 41,41.3281162 41,41.3281162 C41,41.3281162 39.8804667,40.097865 39.1227556,40.0057209 Z" id="Shape" fill="#E24444" fill-rule="nonzero"></path>
                                            <path d="M38.4530889,40.0007011 C38.1496,39.9842916 37.7591556,40.2613773 37.5,40.2613773 C37.2005556,40.2613773 36.7519333,39.9874172 36.4072222,40.0086714 C34.3616667,40.1352588 34,40.5739387 34,40.5739387 C34,40.5739387 35.5670667,42 37.5,42 C39.4329333,42 41,40.5739387 41,40.5739387 C41,40.5739387 40.5773556,40.1152548 38.4530889,40.0007011 Z" id="Shape" fill="#D33D3D" fill-rule="nonzero"></path>
                                            <g id="Group" stroke-width="1" fill="none" fill-rule="evenodd" transform="translate(32.000000, 48.000000)">
                                                <path d="M11.8324615,2.84709333 C11.8324615,2.84709333 10.4609231,5.38926667 5.96738462,5.38926667 C1.47369231,5.38926667 0.191538462,2.84709333 0.191538462,2.84709333 C0.191538462,2.84709333 -0.887692308,10.86492 6.02384615,10.86492 C12.9352308,10.86492 11.8324615,2.84709333 11.8324615,2.84709333 Z" id="Shape" fill="#E2A176" fill-rule="nonzero"></path>
                                                <path d="M5.97369231,0.14608 L0.179538462,2.84724 C0.179538462,2.84724 2.76846154,6.96461333 5.96723077,6.96461333 C9.166,6.96461333 11.8447692,2.84724 11.8447692,2.84724 L5.97369231,0.14608 Z" id="Shape" fill="#E2A176" fill-rule="nonzero"></path>
                                            </g>
                                            <path d="M38.0002268,9 L38.0002268,9 L37.9999244,9 C29.7158155,9 23,12.167858 23,26 C23,26 42.6726045,25.7831526 42.6726045,20.7477728 C42.6726045,25.7831526 53,26 53,26 C53.0001512,12.167858 46.2844869,9 38.0002268,9 Z" id="Shape" fill="#261D17" fill-rule="nonzero"></path>
                                            <g id="Group" stroke-width="1" fill="none" fill-rule="evenodd" transform="translate(24.000000, 27.000000)">
                                                <path d="M1.68406704,0.151894737 C0.491486034,0.357789474 -0.415620112,0.876157895 0.257162011,4.84863158 C0.930256983,8.82110526 1.76587709,9.00584211 2.95830168,8.79994737 L1.68406704,0.151894737 Z" id="Shape" fill="#F4B382" fill-rule="nonzero"></path>
                                                <path d="M26.1997095,0.151894737 L24.9254749,8.79994737 C26.1182123,9.00584211 26.9538324,8.82110526 27.6266145,4.84863158 C28.2993966,0.876157895 27.3921341,0.357789474 26.1997095,0.151894737 Z" id="Shape" fill="#F4B382" fill-rule="nonzero"></path>
                                            </g>
                                            <g id="Group" stroke-width="1" fill="none" fill-rule="evenodd" transform="translate(24.000000, 26.000000)">
                                                <path d="M2.47689888,1.95978947 C2.31298876,0.920368421 2.4874382,0.0914210526 2.4874382,0.0914210526 L0.129932584,0.975 C0.129932584,0.975 1.58546067,1.17031579 2.10991011,2.85457895 C2.10991011,2.85457895 2.68595506,3.28531579 2.47689888,1.95978947 Z" id="Shape" fill="#261D17" fill-rule="nonzero"></path>
                                                <path d="M25.5433933,0.0914210526 C25.5433933,0.0914210526 25.7178427,0.920368421 25.5539326,1.95978947 C25.3450337,3.28515789 25.9210787,2.85457895 25.9210787,2.85457895 C26.4453708,1.17031579 27.9008989,0.975 27.9008989,0.975 L25.5433933,0.0914210526 Z" id="Shape" fill="#261D17" fill-rule="nonzero"></path>
                                            </g>
                                            <g id="Group" stroke-width="1" fill="none" fill-rule="evenodd" transform="translate(24.000000, 34.000000)">
                                                <path d="M26.9012045,0.87425 C26.8677614,0.536 26.6173977,0.254875 26.271,0.112875 L26.1113011,0.397125 C26.335892,0.493375 26.4974318,0.678 26.5192159,0.899375 C26.5532727,1.243125 26.2386307,1.544375 25.8167557,1.572125 C25.3947273,1.59975 25.0251648,1.3435 24.991108,0.99975 C24.9710114,0.796625 25.0731818,0.609 25.2465341,0.483125 L25.1558693,0.15075 C24.7981193,0.329375 24.5727614,0.66075 24.6091193,1.024875 C24.6600511,1.54075 25.2144716,1.925125 25.8474375,1.8835 C26.4804034,1.841875 26.9522898,1.39 26.9012045,0.87425 Z" id="Shape" fill="#8E7920" fill-rule="nonzero"></path>
                                                <path d="M1.879875,0.150625 L1.78921023,0.483 C1.9625625,0.60875 2.06473295,0.796375 2.04463636,0.999625 C2.01057955,1.343375 1.64101705,1.599625 1.21898864,1.572 C0.797113636,1.54425 0.482471591,1.243 0.516528409,0.89925 C0.538465909,0.677875 0.699852273,0.49325 0.924443182,0.397 L0.764744318,0.11275 C0.418193182,0.25475 0.167829545,0.536 0.134539773,0.874125 C0.0834545455,1.389875 0.555340909,1.84175 1.18830682,1.88325 C1.82127273,1.92475 2.37569318,1.5405 2.426625,1.024625 C2.46298295,0.660625 2.237625,0.32925 1.879875,0.150625 Z" id="Shape" fill="#8E7920" fill-rule="nonzero"></path>
                                            </g>
                                            <path d="M32.5000742,26 C30.0146707,26 28,26.5250672 28,30.2749328 C28,32.6360323 29.117267,35 32.5000742,35 C34.9851809,35 37,32.6360323 37,30.2749328 C37,27.9140125 34.9851809,26 32.5000742,26 Z M32.5000727,34 C29.8691261,34 29,32.1613551 29,30.3249956 C29,27.4083729 30.5670165,27 32.5000727,27 C34.4329835,27 36,28.4886361 36,30.3249956 C36,32.1613551 34.4329835,34 32.5000727,34 Z" id="Shape" fill="#261D17" fill-rule="nonzero"></path>
                                            <path d="M32.5000727,28 C30.5670165,28 29,28.3500339 29,30.8499962 C29,32.4240187 29.8691261,34 32.5000727,34 C34.4329835,34 36,32.4240187 36,30.8499962 C36,29.2759738 34.4329835,28 32.5000727,28 Z" id="Shape" fill="#F4C4A4" fill-rule="nonzero"></path>
                                            <path d="M32.9283498,27 C30.7587603,27 29,27.4165108 29,30.3912553 C29,31.9619118 29.6866203,33.5332855 31.6493256,34 L34,27.1289158 C33.6592208,27.0455419 33.2999902,27 32.9283498,27 Z" id="Shape" fill="#F4CCB0" fill-rule="nonzero"></path>
                                            <path d="M33.2571339,27 L31,33.8608916 C31.3628097,33.950587 31.7703042,34 32.2281279,34 C34.3112261,34 36,32.1274969 36,30.2573212 C36,28.707793 34.8399185,27.4022865 33.2571339,27 Z" id="Shape" fill="#F4C4A4" fill-rule="nonzero"></path>
                                            <g id="Group" stroke-width="1" fill="none" fill-rule="evenodd" transform="translate(26.000000, 26.000000)">
                                                <path d="M2.69335032,3.07003774 L0.910012739,1.15803774 C0.738343949,0.974037736 0.448203822,0.962113208 0.262012739,1.13177358 C0.0756687898,1.30128302 0.0637452229,1.58762264 0.235261146,1.77162264 L2.01859873,3.68362264 C2.10909554,3.78067925 2.23230573,3.82973585 2.35612739,3.82973585 C2.46726115,3.82973585 2.57854777,3.79018868 2.66659873,3.71003774 C2.85294268,3.54037736 2.86486624,3.25403774 2.69335032,3.07003774 Z" id="Shape" fill="#261D17" fill-rule="nonzero"></path>
                                                <path d="M23.7112357,1.13177358 C23.5250446,0.962113208 23.2349045,0.974037736 23.0632357,1.15803774 L21.2798981,3.07003774 C21.1083822,3.25403774 21.1203057,3.54037736 21.3066497,3.70988679 C21.3947006,3.79003774 21.5061401,3.82958491 21.617121,3.82958491 C21.7409427,3.82958491 21.8641529,3.7805283 21.9546497,3.6834717 L23.7379873,1.7714717 C23.9095032,1.58762264 23.8975796,1.30128302 23.7112357,1.13177358 Z" id="Shape" fill="#261D17" fill-rule="nonzero"></path>
                                                <path d="M17.438828,0.0118966126 C14.8781656,0.0118966126 12.8020892,1.89613556 12.8020892,4.22033027 C12.8020892,6.54470146 14.8781656,8.87189627 17.438828,8.87189627 C20.9244841,8.87189627 22.0757197,6.54470146 22.0757197,4.22033027 C22.0757197,0.528796105 19.9997962,0.0118966126 17.438828,0.0118966126 Z M17.438828,7.95545412 C15.4078471,7.95545412 13.7613248,6.10968703 13.7613248,4.26621415 C13.7613248,2.42274126 15.4078471,0.928338764 17.438828,0.928338764 C19.4699618,0.928338764 21.1164841,1.33829353 21.1164841,4.26621415 C21.1164841,6.10968703 20.2032611,7.95545412 17.438828,7.95545412 Z" id="Shape" fill="#261D17" fill-rule="nonzero"></path>
                                            </g>
                                            <path d="M43.4999273,28 C41.5670165,28 40,29.2759738 40,30.8499962 C40,32.4240187 41.5670165,34 43.4999273,34 C46.1308739,34 47,32.4240187 47,30.8499962 C47,28.3500339 45.4329835,28 43.4999273,28 Z" id="Shape" fill="#F4C4A4" fill-rule="nonzero"></path>
                                            <path d="M43.7693513,27 C43.4127233,27 43.0680038,27.0456729 42.7409903,27.1292867 C41.1591977,27.5333299 40,28.8445375 40,30.4010121 C40,31.9547895 41.1551238,33.5089265 42.7323723,34 L45,27.0733643 C44.6140708,27.0185209 44.2004074,27 43.7693513,27 Z" id="Shape" fill="#F4CCB0" fill-rule="nonzero"></path>
                                            <path d="M44.3588473,27 L42,33.8419223 C42.3429391,33.9433407 42.7042965,34 43.0786934,34 C43.5546355,34 43.9782566,33.9509782 44.3554244,33.8619928 C46.3146108,33.39966 47,31.8428611 47,30.287128 C47,27.9502423 45.8955535,27.2074548 44.3588473,27 Z" id="Shape" fill="#F4C4A4" fill-rule="nonzero"></path>
                                            <g id="Group" stroke-width="1" fill="none" fill-rule="evenodd" transform="translate(36.000000, 30.000000)">
                                                <path d="M3.89657143,0.0961363636 L0.124714286,0.0961363636 C0.0901428571,0.0961363636 0.809428571,1.51663636 0.837285714,1.51663636 L3.54428571,1.5165 C3.57242857,1.51636364 3.93157143,0.0961363636 3.89657143,0.0961363636 Z" id="Shape" fill="#261D17" fill-rule="nonzero"></path>
                                                <path d="M3.30642857,1.53354545 C2.93242857,1.28181818 2.479,1.0335 1.996,1.0335 C1.62785714,1.0335 1.27728571,1.22236364 0.965714286,1.37290909 C0.476142857,1.60909091 0.475714286,2.89418182 0.475714286,2.89418182 C0.755,2.33740909 1.35214286,1.97781818 1.996,1.97781818 C2.63985714,1.97781818 3.23685714,2.33754545 3.51628571,2.89418182 C3.51628571,2.89418182 3.66471429,1.77463636 3.30642857,1.53354545 Z" id="Shape" fill="#261D17" fill-rule="nonzero"></path>
                                            </g>
                                        </g>
                                    </g>
                                </g>
                            </g>
                        </g>
                    </g>
                    <g id="5" transform="translate(562.952295, 31.899019) rotate(4.000000) translate(-562.952295, -31.899019) translate(533.952295, 2.899019)">
                        <circle id="Oval" stroke="#FFFFFF" stroke-width="5" cx="29.0300063" cy="28.8904934" r="26"></circle>
                        <g id="Shape" transform="translate(5.000000, 5.000000)">
                            <mask id="mask-41" fill="white">
                                <use xlink:href="#path-40"></use>
                            </mask>
                            <use id="Mask" fill="url(#linearGradient-39)" xlink:href="#path-40"></use>
                            <g id="user-(3)" mask="url(#mask-41)">
                                <g transform="translate(-3.600000, -3.600000)">
                                    <path d="M28.5003446,0 C12.7600281,0 0,12.7590335 0,28.5006893 C0,44.2399325 12.7600281,57 28.5003446,57 C44.2399719,57 57,44.2399325 57,28.5006893 C57,12.7589186 44.2399719,0 28.5003446,0 Z" id="Shape" fill="#024C5B" fill-rule="nonzero"></path>
                                    <path d="M45.0379546,44.0378839 C44.1989227,40.9203797 37.0163183,38.4 28.1617318,38.4 C19.3071452,38.4 12.2009626,40.9203797 11.3619307,44.0378839 C10.9879694,45.427327 10.5631751,48.0597032 10.2,50.6119677 C15.1051008,54.6043022 21.3715631,57 28.2004016,57 C35.0288959,57 41.2950139,54.6043022 46.2,50.612082 C45.8368249,48.0598175 45.4120306,45.427327 45.0379546,44.0378839 Z" id="Shape" fill="#4ABC96" fill-rule="nonzero"></path>
                                    <path d="M28.4593767,38.4 C26.242658,38.4 24.1337607,38.5530765 22.2,38.8299022 C22.240272,41.3485911 23.028972,46.2 28.5105363,46.2 C33.9849593,46.2 34.7649961,41.3611271 34.8,38.839678 C32.8401327,38.5565267 30.7024362,38.4 28.4593767,38.4 Z" id="Shape" fill="#339672" fill-rule="nonzero"></path>
                                    <g id="Group" stroke-width="1" fill="none" fill-rule="evenodd" transform="translate(24.000000, 32.400000)">
                                        <path d="M4.48026923,4.09709268 L0.134653846,6.25322927 C0.134653846,6.25322927 2.07646154,9.53982439 4.47553846,9.53982439 C6.87461538,9.53982439 8.88380769,6.25322927 8.88380769,6.25322927 L4.48026923,4.09709268 Z" id="Shape" fill="#E2A379" fill-rule="nonzero"></path>
                                        <path d="M8.99642308,0.0138146341 L0.0218076923,0.0138146341 C1.42211538,4.2972878 0.134538462,6.2531122 0.134538462,6.2531122 L3.23988462,6.96292683 L5.77834615,6.96292683 L8.88369231,6.25322927 C8.88369231,6.2531122 7.596,4.2972878 8.99642308,0.0138146341 Z" id="Shape" fill="#E2A379" fill-rule="nonzero"></path>
                                    </g>
                                    <path d="M32.9506205,38.4 C32.9506205,38.4 31.9015627,40.3023908 28.4644422,40.3023908 C25.0273217,40.3023908 24.0467498,38.4 24.0467498,38.4 C24.0467498,38.4 23.2212713,44.4 28.507746,44.4 C33.7942207,44.4 32.9506205,38.4 32.9506205,38.4 Z" id="Shape" fill="#F7F7F7" fill-rule="nonzero"></path>
                                    <path d="M28.8001156,7.2 C23.1667864,7.2 18.6,9.64229619 18.6,20.3069626 C18.6,23.9145042 19.315536,26.7412541 20.3870486,28.9229017 C22.7443532,33.7225728 26.8246768,35.4 28.8001156,35.4 C30.7755544,35.4 34.8557624,33.7225728 37.213067,28.9229017 C38.2845796,26.7412541 39,23.9145042 39,20.3069626 C39,9.64229619 34.4332136,7.2 28.8001156,7.2 Z" id="Shape" fill="#000000" fill-rule="nonzero"></path>
                                    <g id="Group" stroke-width="1" fill="none" fill-rule="evenodd" transform="translate(16.800000, 7.200000)">
                                        <path d="M11.3836596,0.066392 C5.78362979,0.066392 1.2438383,2.49354133 1.2438383,13.0920667 C1.2438383,16.6772347 1.95514468,19.4864533 3.0203234,21.6545707 C5.36369362,26.4244747 9.41989787,25.7159493 11.3836596,25.7159493 C13.3474213,25.7159493 17.4035106,26.4244747 19.7468809,21.6546853 C20.8120596,19.486568 21.5232511,16.6773493 21.5232511,13.0921813 C21.5232511,2.49354133 16.9834596,0.066392 11.3836596,0.066392 Z" id="Shape" fill="#F4B382" fill-rule="nonzero"></path>
                                        <path d="M1.42422128,13.4181787 C0.454748936,13.5836427 -0.282638298,14.0003413 0.264255319,17.1932347 C0.81126383,20.3862427 1.49051489,20.534736 2.46010213,20.369272 L1.42422128,13.4181787 Z" id="Shape" fill="#F4B382" fill-rule="nonzero"></path>
                                    </g>
                                    <g id="Group" stroke-width="1" fill="none" fill-rule="evenodd" transform="translate(18.000000, 7.200000)">
                                        <path d="M10.2091685,0.0657243243 C4.62312135,0.0657243243 0.0946651685,2.46846486 0.0946651685,12.9604054 L8.64180674,8.74950811 L10.0371438,5.06031892 L20.3234427,12.9604054 C20.3234427,2.46846486 15.7949865,0.0657243243 10.2091685,0.0657243243 Z" id="Shape" fill="#000000" fill-rule="nonzero"></path>
                                        <path d="M2.41579551,9.16576216 L0.73967191,9.05463243 C0.252593258,10.2890919 0.0946651685,11.8197081 0.0946651685,13.3090054 C0.0946651685,13.3090054 1.09781798,13.0914 1.09781798,13.6022108 L1.41298652,16.7380216 L1.85708764,16.5251838 C1.82843596,13.914373 2.41579551,9.16576216 2.41579551,9.16576216 Z" id="Shape" fill="#000000" fill-rule="nonzero"></path>
                                    </g>
                                    <path d="M38.2435607,20.4 L37.2,27.5545571 C38.1766599,27.7248644 38.8610625,27.5720245 39.4121265,24.2855548 C39.9631904,20.999203 39.2202206,20.5703073 38.2435607,20.4 Z" id="Shape" fill="#F4B382" fill-rule="nonzero"></path>
                                    <path d="M37.7330766,16.2405808 L36,16.2 C36,16.2 36.6073174,21.1484524 36.5776922,23.7850592 L37.0368834,24 L37.3627611,20.833206 C37.3627611,20.3173481 38.4,20.5371036 38.4,20.5371036 C38.4,19.0328621 38.2367057,17.4871227 37.7330766,16.2405808 Z" id="Shape" fill="#000000" fill-rule="nonzero"></path>
                                </g>
                            </g>
                        </g>
                    </g>
                    <g id="Group-4" transform="translate(114.000000, 125.000000)">
                        <mask id="mask-44" fill="white">
                            <use xlink:href="#path-43"></use>
                        </mask>
                        <use id="Mask" fill="url(#linearGradient-42)" xlink:href="#path-43"></use>
                        <text id="?" opacity="0.5" font-family="Montserrat-SemiBold, Montserrat" font-size="26" font-weight="500" fill="#1F98AD">
                            <tspan x="11.6666667" y="27.4166667">?</tspan>
                        </text>
                    </g>
                    <g id="Group-4" transform="translate(564.000000, 145.000000)">
                        <mask id="mask-46" fill="white">
                            <use xlink:href="#path-45"></use>
                        </mask>
                        <use id="Mask" fill="url(#linearGradient-42)" xlink:href="#path-45"></use>
                        <text id="?" opacity="0.5" font-family="Montserrat-SemiBold, Montserrat" font-size="26" font-weight="500" fill="#1F98AD">
                            <tspan x="11.6666667" y="27.4166667">?</tspan>
                        </text>
                    </g>
                </g>
            </g>
        </g>
    </g>
</svg>