<?xml version="1.0" encoding="UTF-8"?> <svg xmlns="http://www.w3.org/2000/svg" width="512" height="512" viewBox="0 0 512 512" fill="none"> <g clip-path="url(#clip0)"> <path d="M497 106H15C6.716 106 0 112.714 0 121V181C0 189.284 6.716 196 15 196H497C505.284 196 512 189.284 512 181V121C512 112.714 505.284 106 497 106Z" fill="#6987C9"></path> <path d="M181.615 0.0710014C166 -0.338999 151.22 5.125 139.75 16.097C127.841 27.508 121 43.519 121 60.028L123.13 75.028H388.87L391 60.028C391 43.519 384.159 27.508 372.25 16.083C360.766 5.081 346.103 -0.719999 330.326 0.0710014C307.033 1.095 288.508 12.335 278.123 31.701C278.096 31.752 278.044 31.778 278.017 31.829L256 73.127L233.983 31.829C223.583 12.347 204.994 1.068 181.615 0.0710014Z" fill="#6987C9"></path> <path d="M482 497V226H30V497C30 505.291 36.709 512 45 512H467C475.291 512 482 505.291 482 497Z" fill="#E08D79"></path> </g> <defs> <clipPath id="clip0"> <rect width="512" height="512" fill="white"></rect> </clipPath> </defs> </svg> 