<?xml version="1.0" encoding="UTF-8"?> <svg xmlns="http://www.w3.org/2000/svg" width="137" height="34" viewBox="0 0 137 34" fill="none"> <path d="M27.7391 12.528C27.6218 12.464 27.5364 12.4053 27.4831 12.352C27.4404 12.2987 27.4191 12.2293 27.4191 12.144C27.4191 12.0373 27.4618 11.888 27.5471 11.696C27.6431 11.4933 27.8031 11.1787 28.0271 10.752C28.0911 10.6133 28.2138 10.368 28.3951 10.016C28.8538 9.14133 29.0831 8.496 29.0831 8.08C29.0724 8.05867 29.0671 8.02667 29.0671 7.984C29.0671 7.87733 29.1524 7.78133 29.3231 7.696C29.3551 7.664 29.4671 7.57333 29.6591 7.424C29.8618 7.27467 30.0218 7.104 30.1391 6.912C30.2778 6.592 30.4538 6.24 30.6671 5.856C30.8804 5.46133 31.2484 4.82133 31.7711 3.936C32.2831 2.99733 32.8271 2.14933 33.4031 1.392C33.5098 1.24267 33.6271 1.12533 33.7551 1.04C33.8938 0.954666 34.0111 0.912 34.1071 0.912C34.4378 0.912 34.7738 1.04 35.1151 1.296C35.4671 1.552 35.6964 1.808 35.8031 2.064C35.8458 2.13867 35.8671 2.29867 35.8671 2.544C35.8671 2.87467 35.8298 3.43467 35.7551 4.224C35.7338 4.36267 35.7124 4.58133 35.6911 4.88C35.6591 5.36 35.6111 5.872 35.5471 6.416C35.4298 7.61067 35.3444 8.544 35.2911 9.216C35.2378 9.888 35.2111 10.5173 35.2111 11.104C35.2111 11.4027 35.2164 11.6213 35.2271 11.76V11.872L35.2111 12.24C35.1471 12.304 35.0191 12.336 34.8271 12.336C34.6138 12.336 34.4004 12.2987 34.1871 12.224C33.9738 12.16 33.8564 12.08 33.8351 11.984C33.8244 11.9733 33.8084 11.9627 33.7871 11.952C33.7658 11.9413 33.7551 11.8933 33.7551 11.808L33.7711 11.456L33.8191 10.56L33.8991 8.112L33.6911 8.128C33.4778 8.128 33.0244 8.17067 32.3311 8.256C31.6484 8.34133 31.2164 8.41067 31.0351 8.464C30.9391 8.464 30.8218 8.528 30.6831 8.656C30.5444 8.784 30.4218 8.94933 30.3151 9.152C30.2831 9.25867 30.2084 9.41333 30.0911 9.616C29.9738 9.808 29.9151 9.92 29.9151 9.952C29.8511 9.99467 29.7924 10.0533 29.7391 10.128C29.6964 10.192 29.6698 10.2347 29.6591 10.256C29.6591 10.3733 29.5524 10.6773 29.3391 11.168C29.1364 11.648 28.9338 12.0427 28.7311 12.352L28.2991 12.96L27.7391 12.528ZM31.5631 7.024C31.6378 7.01333 31.7871 6.992 32.0111 6.96C32.2351 6.91733 32.4324 6.89067 32.6031 6.88C33.1151 6.752 33.4671 6.688 33.6591 6.688C33.7658 6.688 33.8404 6.69867 33.8831 6.72C33.9151 6.76267 33.9471 6.79467 33.9791 6.816C34.0218 6.82667 34.0484 6.832 34.0591 6.832C34.0804 6.74667 34.1658 6.16533 34.3151 5.088C34.4644 4.01067 34.5391 3.34933 34.5391 3.104C34.5391 2.93333 34.5338 2.78933 34.5231 2.672C34.5124 2.544 34.5018 2.464 34.4911 2.432C34.3951 2.432 34.1764 2.688 33.8351 3.2C33.4938 3.70133 33.1631 4.272 32.8431 4.912C32.5978 5.34933 32.4271 5.568 32.3311 5.568C32.2564 5.64267 32.0964 5.89333 31.8511 6.32C31.6058 6.74667 31.5098 6.98133 31.5631 7.024ZM42.631 6.944C42.5883 7.104 42.519 7.264 42.423 7.424C42.327 7.584 42.263 7.696 42.231 7.76C42.1563 7.92 42.0976 8.048 42.055 8.144C42.0123 8.22933 41.9803 8.304 41.959 8.368C42.1723 8.464 42.2683 8.69867 42.247 9.072L42.071 9.312L41.559 9.488C41.5163 9.66933 41.4843 9.824 41.463 9.952C41.4416 10.144 41.3776 10.4107 41.271 10.752L41.175 11.12C41.1216 11.2907 41.0523 11.4027 40.967 11.456C40.8923 11.5093 40.775 11.552 40.615 11.584C40.551 11.5627 40.4603 11.5307 40.343 11.488C40.2256 11.4453 40.1403 11.408 40.087 11.376C40.0336 11.344 39.9803 11.3013 39.927 11.248C39.863 11.152 39.831 11.0507 39.831 10.944C39.831 10.848 39.8683 10.672 39.943 10.416C40.071 10 40.1616 9.68533 40.215 9.472L39.943 9.52C39.783 9.53067 39.6603 9.54667 39.575 9.568C39.4896 9.57867 39.4256 9.58933 39.383 9.6C39.2976 9.64267 39.127 9.664 38.871 9.664C38.6576 9.664 38.471 9.648 38.311 9.616C38.2896 9.66933 38.263 9.744 38.231 9.84C38.199 9.92533 38.1616 10.0373 38.119 10.176C38.055 10.3893 38.023 10.5387 38.023 10.624L37.959 11.056C37.9376 11.1413 37.9163 11.2853 37.895 11.488C37.8843 11.712 37.831 11.8827 37.735 12C37.639 12.128 37.5163 12.192 37.367 12.192C37.1216 12.192 36.839 12.032 36.519 11.712L36.455 11.488L36.711 10.256C36.7323 10.192 36.7536 10.1227 36.775 10.048C36.7963 9.97333 36.8123 9.89333 36.823 9.808L36.951 9.392L37.127 8.896C37.2763 8.448 37.399 8.128 37.495 7.936C37.5376 7.78667 37.591 7.62133 37.655 7.44C37.7296 7.25867 37.783 7.13067 37.815 7.056C37.8363 7.024 37.9003 6.84267 38.007 6.512C38.1136 6.17067 38.1883 5.94133 38.231 5.824C38.3163 5.61067 38.471 5.504 38.695 5.504C38.919 5.49333 39.1163 5.55733 39.287 5.696C39.4576 5.824 39.5483 5.98933 39.559 6.192C39.559 6.23467 39.5536 6.30933 39.543 6.416C39.5323 6.512 39.5163 6.576 39.495 6.608L38.743 8.464C38.839 8.45333 38.9563 8.43733 39.095 8.416C39.2336 8.384 39.335 8.368 39.399 8.368C39.5483 8.336 39.735 8.32 39.959 8.32C40.183 8.32 40.359 8.336 40.487 8.368C40.5403 8.28267 40.6043 8.128 40.679 7.904C40.7003 7.808 40.7483 7.66933 40.823 7.488C40.9083 7.21067 41.0256 6.944 41.175 6.688C41.1856 6.656 41.1963 6.61333 41.207 6.56C41.2176 6.496 41.2923 6.34133 41.431 6.096C41.6016 6.01067 41.7563 5.968 41.895 5.968C42.1083 5.968 42.2896 6.03733 42.439 6.176C42.599 6.31467 42.679 6.48533 42.679 6.688C42.679 6.76267 42.663 6.848 42.631 6.944ZM43.5127 11.664C43.4807 11.6 43.3901 11.5147 43.2407 11.408C43.0914 11.3013 43.0167 11.2373 43.0167 11.216C43.0167 11.1733 42.9901 11.1147 42.9367 11.04C42.8941 10.9547 42.8514 10.88 42.8087 10.816C42.7234 10.7307 42.7821 10.4533 42.9847 9.984C43.1874 9.51467 43.4594 8.96 43.8007 8.32C43.8647 8.256 43.9447 8.144 44.0407 7.984C44.1474 7.824 44.2167 7.73333 44.2487 7.712C44.2487 7.66933 44.2647 7.632 44.2967 7.6C44.3287 7.55733 44.3661 7.536 44.4087 7.536L44.5367 7.28C44.5794 7.184 44.7874 6.95467 45.1607 6.592C45.5341 6.22933 45.8274 5.984 46.0407 5.856C46.2434 5.71733 46.4621 5.648 46.6967 5.648C46.9527 5.648 47.1714 5.72267 47.3527 5.872L47.7847 6.24C48.1047 6.50667 48.2861 6.66133 48.3287 6.704L48.9207 7.232L48.6487 8.032C48.5527 8.32 48.5047 8.592 48.5047 8.848C48.5047 9.25333 48.6167 9.632 48.8407 9.984C48.8941 10.1013 48.9634 10.192 49.0487 10.256C49.1447 10.32 49.2674 10.3627 49.4167 10.384C49.6514 10.4267 49.7687 10.544 49.7687 10.736C49.7687 10.9707 49.7261 11.1467 49.6407 11.264C49.5554 11.3813 49.4541 11.456 49.3367 11.488C49.1661 11.5093 49.0487 11.52 48.9847 11.52C48.6754 11.52 48.3927 11.44 48.1367 11.28C47.8807 11.12 47.6567 10.848 47.4647 10.464C47.4221 10.4 47.3634 10.2827 47.2887 10.112C47.2247 9.94133 47.1874 9.824 47.1767 9.76C47.1021 9.86667 46.9794 10.0053 46.8087 10.176C45.7101 11.2853 44.8194 11.84 44.1367 11.84C43.9021 11.84 43.6941 11.7813 43.5127 11.664ZM44.3927 10.336C44.5634 10.3573 44.8941 10.1653 45.3847 9.76C45.4381 9.71733 45.4967 9.66933 45.5607 9.616C45.6247 9.552 45.6941 9.488 45.7687 9.424C46.0674 9.17867 46.2967 8.976 46.4567 8.816C46.6274 8.64533 46.7981 8.44267 46.9687 8.208L47.3207 7.632C47.2141 7.39733 47.1181 7.24267 47.0327 7.168C46.9474 7.08267 46.8621 7.04 46.7767 7.04C46.5634 7.04 46.2967 7.232 45.9767 7.616C45.6567 7.98933 45.2727 8.56 44.8247 9.328C44.7074 9.52 44.6114 9.72267 44.5367 9.936C44.4621 10.1387 44.4141 10.272 44.3927 10.336ZM50.958 11.984C50.8726 11.952 50.766 11.92 50.638 11.888C50.5206 11.856 50.4246 11.8293 50.35 11.808C50.1366 11.5947 50.0086 11.3707 49.966 11.136C49.9446 11.0507 49.934 10.9973 49.934 10.976C49.934 10.88 49.9713 10.7893 50.046 10.704C50.046 10.6507 50.0566 10.5813 50.078 10.496H50.51C50.7873 10.272 51.07 9.952 51.358 9.536C51.646 9.12 51.8433 8.74667 51.95 8.416C51.9713 8.34133 51.9926 8.24533 52.014 8.128C52.0353 8 52.0673 7.89867 52.11 7.824L52.286 7.376C52.1153 7.344 51.9873 7.30133 51.902 7.248C51.8166 7.184 51.6833 7.06133 51.502 6.88C51.4806 6.624 51.5126 6.42133 51.598 6.272C51.6833 6.12267 51.854 6.02667 52.11 5.984C52.238 5.92 52.446 5.888 52.734 5.888C53.1073 5.888 53.4593 5.936 53.79 6.032C53.8646 6.05333 53.9553 6.09067 54.062 6.144C54.1686 6.19733 54.2646 6.24 54.35 6.272C54.6806 6.368 54.9633 6.56 55.198 6.848C55.4433 7.12533 55.566 7.42933 55.566 7.76C55.566 8.112 55.518 8.44267 55.422 8.752L55.23 9.408C55.134 9.696 55.0753 9.88267 55.054 9.968C54.8513 10.608 54.7446 11.1733 54.734 11.664C54.6806 11.6853 54.6113 11.712 54.526 11.744C54.4513 11.7653 54.3606 11.7867 54.254 11.808C54.0193 11.744 53.822 11.664 53.662 11.568C53.502 11.4613 53.406 11.312 53.374 11.12C53.3633 11.0667 53.358 10.9867 53.358 10.88C53.358 10.6667 53.39 10.4427 53.454 10.208C53.518 9.97333 53.614 9.65867 53.742 9.264L53.966 8.56C54.0833 8.176 54.142 7.904 54.142 7.744C54.142 7.63733 54.1313 7.56267 54.11 7.52C54.0353 7.46667 53.95 7.42933 53.854 7.408C53.758 7.376 53.694 7.35467 53.662 7.344C53.6086 7.472 53.518 7.70133 53.39 8.032C53.2726 8.36267 53.214 8.544 53.214 8.576C53.2033 8.74667 53.166 8.90667 53.102 9.056C53.0486 9.20533 52.99 9.344 52.926 9.472C52.8726 9.58933 52.8353 9.664 52.814 9.696L52.622 10.048C52.1953 10.912 51.6406 11.5573 50.958 11.984ZM61.287 12.048C60.9776 11.9413 60.7163 11.744 60.503 11.456C60.2896 11.1573 60.135 10.8267 60.039 10.464C59.9963 10.5067 59.8363 10.672 59.559 10.96C59.2816 11.2373 58.9936 11.4613 58.695 11.632C58.3963 11.8027 58.1296 11.8773 57.895 11.856C57.6283 11.6853 57.431 11.5467 57.303 11.44C57.175 11.3333 57.0843 11.184 57.031 10.992V11.008C56.8923 10.6453 56.823 10.2987 56.823 9.968C56.823 9.76533 56.9083 9.33867 57.079 8.688C57.2603 8.03733 57.4576 7.41867 57.671 6.832C57.8843 6.24533 58.055 5.904 58.183 5.808L58.455 5.792C58.551 5.792 58.6843 5.856 58.855 5.984C59.0363 6.112 59.1536 6.21867 59.207 6.304C59.2283 6.368 59.239 6.42667 59.239 6.48C59.239 6.61867 59.2016 6.816 59.127 7.072C59.0523 7.31733 58.9456 7.64267 58.807 8.048C58.4443 9.05067 58.263 9.73333 58.263 10.096C58.263 10.1707 58.2683 10.224 58.279 10.256C58.6736 10.1493 59.0256 9.92 59.335 9.568C59.6443 9.216 59.879 8.84267 60.039 8.448C60.2416 7.94667 60.3803 7.57867 60.455 7.344C60.5403 7.09867 60.583 6.90133 60.583 6.752C60.583 6.54933 60.6096 6.4 60.663 6.304C60.7163 6.208 60.8283 6.112 60.999 6.016C61.1163 6.016 61.2816 6.02667 61.495 6.048L62.023 6.56C62.055 6.656 62.071 6.768 62.071 6.896C62.071 7.19467 61.959 7.65867 61.735 8.288C61.607 8.68267 61.511 8.992 61.447 9.216C61.3936 9.44 61.367 9.65867 61.367 9.872C61.367 10.1387 61.4256 10.368 61.543 10.56C61.7136 10.4853 61.879 10.3893 62.039 10.272C62.199 10.144 62.295 10.0693 62.327 10.048C62.4763 9.93067 62.6416 9.81333 62.823 9.696C62.983 9.80267 63.111 9.984 63.207 10.24C63.3136 10.496 63.367 10.7307 63.367 10.944C63.3243 10.9973 63.2496 11.0667 63.143 11.152C63.015 11.376 62.7803 11.5893 62.439 11.792C62.1083 11.984 61.8043 12.08 61.527 12.08C61.4203 12.08 61.3403 12.0693 61.287 12.048ZM68.8152 8.112C68.6126 8.368 68.4259 8.576 68.2552 8.736C68.0952 8.88533 67.9032 8.99733 67.6792 9.072C68.0099 9.44533 68.1752 9.856 68.1752 10.304C68.1752 10.624 68.0899 10.928 67.9192 11.216C67.7486 11.5253 67.4766 11.7813 67.1032 11.984C66.7406 12.176 66.3619 12.272 65.9672 12.272C65.6686 12.272 65.3966 12.208 65.1512 12.08C64.8846 11.9307 64.6926 11.8027 64.5752 11.696C64.4579 11.5893 64.3299 11.424 64.1912 11.2C64.1699 11.1787 64.1432 11.152 64.1112 11.12C64.0792 11.0773 64.0579 11.0453 64.0472 11.024C64.0366 10.9707 63.9939 10.88 63.9192 10.752C63.8446 10.6133 63.8179 10.5013 63.8392 10.416C63.8499 10.3413 63.8552 10.24 63.8552 10.112C63.8659 9.984 63.8819 9.888 63.9032 9.824C63.9352 9.74933 63.9886 9.712 64.0632 9.712C64.1486 9.72267 64.2659 9.70133 64.4152 9.648C64.5752 9.59467 64.6819 9.568 64.7352 9.568C64.8312 9.568 64.9059 9.6 64.9592 9.664C65.0339 9.74933 65.1086 9.90933 65.1832 10.144C65.2579 10.3893 65.3486 10.5813 65.4552 10.72C65.5619 10.8587 65.7272 10.928 65.9512 10.928C66.1646 10.928 66.3192 10.8587 66.4152 10.72C66.5112 10.5813 66.5592 10.4053 66.5592 10.192C66.5592 10.0533 66.5432 9.92 66.5112 9.792C66.4472 9.728 66.3939 9.648 66.3512 9.552C66.3086 9.44533 66.2126 9.33867 66.0632 9.232L66.0312 8.96C66.0099 8.87467 65.9992 8.736 65.9992 8.544L66.3672 8.352C66.5379 8.26667 66.7086 8.17067 66.8792 8.064C67.0606 7.95733 67.1992 7.85067 67.2952 7.744C67.3379 7.70133 67.3806 7.61067 67.4232 7.472C67.4766 7.33333 67.5032 7.20533 67.5032 7.088C67.5032 6.88533 67.4179 6.784 67.2472 6.784C66.9912 6.784 66.7779 6.85867 66.6072 7.008C66.4472 7.14667 66.2819 7.33333 66.1112 7.568C66.0899 7.6 66.0526 7.65333 65.9992 7.728C65.9459 7.792 65.8979 7.82933 65.8552 7.84L65.5672 7.872C65.5886 7.88267 65.5779 7.888 65.5352 7.888C65.5032 7.87733 65.4766 7.86667 65.4552 7.856C65.4126 7.83467 65.3272 7.792 65.1992 7.728C65.0712 7.664 64.9699 7.6 64.8952 7.536C64.8206 7.472 64.7832 7.408 64.7832 7.344C64.7832 7.29067 64.7992 7.24267 64.8312 7.2C64.9059 7.104 64.9592 6.992 64.9912 6.864C65.0232 6.72533 65.0819 6.608 65.1672 6.512C65.2099 6.45867 65.2739 6.38933 65.3592 6.304C65.4446 6.21867 65.5139 6.13867 65.5672 6.064C65.7059 5.872 65.8926 5.728 66.1272 5.632C66.3619 5.536 66.6232 5.488 66.9112 5.488C67.2206 5.488 67.5246 5.54133 67.8232 5.648C68.1326 5.75467 68.3832 5.89333 68.5752 6.064C68.8206 6.50133 68.9432 6.928 68.9432 7.344C68.9432 7.536 68.9112 7.712 68.8472 7.872C68.8259 7.92533 68.8152 8.00533 68.8152 8.112ZM73.9034 12.256C73.8714 12.2667 73.8287 12.272 73.7754 12.272C73.6367 12.272 73.498 12.224 73.3594 12.128C73.2314 12.032 73.1194 11.92 73.0234 11.792C72.9167 11.632 72.8367 11.44 72.7834 11.216C72.73 10.9813 72.7034 10.7573 72.7034 10.544C72.7034 10.5333 72.698 10.5227 72.6874 10.512C72.6874 10.4907 72.682 10.4853 72.6714 10.496C72.4367 10.752 72.1167 11.0187 71.7114 11.296C71.3167 11.5733 70.986 11.712 70.7194 11.712C70.538 11.712 70.346 11.6 70.1434 11.376C69.9514 11.152 69.8287 10.9387 69.7754 10.736C69.7647 10.6933 69.7594 10.608 69.7594 10.48C69.7594 10.064 69.866 9.456 70.0794 8.656C70.2927 7.856 70.5487 7.152 70.8474 6.544C71.1567 5.92533 71.4447 5.616 71.7114 5.616C71.9567 5.616 72.1807 5.84533 72.3834 6.304C72.4474 6.44267 72.4794 6.544 72.4794 6.608C72.4794 6.65067 72.4634 6.69867 72.4314 6.752C72.3994 6.79467 72.3567 6.848 72.3034 6.912L72.2714 6.944C72.122 7.11467 71.9247 7.49867 71.6794 8.096C71.434 8.69333 71.2367 9.216 71.0874 9.664L71.1034 9.648C71.0287 9.904 70.986 10.0747 70.9754 10.16C71.2954 10.1173 71.6314 9.86667 71.9834 9.408C72.346 8.94933 72.7727 8.30933 73.2634 7.488C73.594 6.944 73.8394 6.55467 73.9994 6.32C74.17 6.08533 74.314 5.96267 74.4314 5.952C74.602 5.94133 74.7887 6 74.9914 6.128C75.2047 6.256 75.3114 6.4 75.3114 6.56C75.3114 6.64533 75.2687 6.79467 75.1834 7.008C75.098 7.22133 75.0127 7.424 74.9274 7.616L74.7674 7.968C74.554 8.48 74.3887 8.896 74.2714 9.216C74.154 9.52533 74.0687 9.85067 74.0154 10.192V10.176C74.0047 10.2293 73.9994 10.3093 73.9994 10.416C73.9994 10.736 74.1327 11.056 74.3994 11.376C74.4847 11.4933 74.5274 11.6 74.5274 11.696C74.5274 11.8347 74.4634 11.9573 74.3354 12.064C74.2074 12.1813 74.058 12.2507 73.8874 12.272L73.9034 12.256ZM75.0326 15.744C74.9259 15.744 74.8459 15.696 74.7926 15.6C74.7819 15.5893 74.7339 15.5253 74.6486 15.408C74.5633 15.2907 74.5206 15.12 74.5206 14.896C74.5206 14.8533 74.5313 14.768 74.5526 14.64C74.6699 14.192 74.7286 13.8827 74.7286 13.712C74.7286 13.6587 74.7393 13.5787 74.7606 13.472C74.7819 13.376 74.7979 13.2853 74.8086 13.2C74.8513 13.1253 74.8886 13.008 74.9206 12.848C74.9633 12.6987 74.9846 12.5653 74.9846 12.448C74.9846 12.3947 75.0006 12.3307 75.0326 12.256C75.0753 12.192 75.1233 12.1387 75.1766 12.096C75.1766 12.032 75.1926 11.936 75.2246 11.808C75.2566 11.6693 75.2779 11.5733 75.2886 11.52C75.3419 11.232 75.5499 10.5493 75.9126 9.472C76.2753 8.39467 76.5846 7.52533 76.8406 6.864C76.9686 6.56533 77.0753 6.288 77.1606 6.032C77.2459 5.776 77.2886 5.59467 77.2886 5.488C77.2886 5.44533 77.2993 5.408 77.3206 5.376C77.3526 5.33333 77.4006 5.28 77.4646 5.216C77.5499 5.13067 77.6619 5.088 77.8006 5.088C77.9819 5.088 78.1579 5.14667 78.3286 5.264C78.4033 5.38133 78.4566 5.48267 78.4886 5.568C78.5206 5.65333 78.5366 5.74933 78.5366 5.856C78.5366 5.888 78.5259 5.98933 78.5046 6.16C78.5046 6.384 78.4406 6.58667 78.3126 6.768C78.1846 6.94933 78.1259 7.03467 78.1366 7.024C78.6593 6.704 79.1446 6.544 79.5926 6.544C80.0726 6.544 80.4566 6.71467 80.7446 7.056C81.0326 7.38667 81.1766 7.78133 81.1766 8.24C81.1766 8.42133 81.0913 8.69333 80.9206 9.056C80.7499 9.408 80.6113 9.632 80.5046 9.728C80.4406 9.728 80.3553 9.84 80.2486 10.064C80.1206 10.2347 79.8753 10.416 79.5126 10.608C79.1606 10.7893 78.9206 10.8587 78.7926 10.816C78.7819 10.816 78.7659 10.832 78.7446 10.864C78.7233 10.8853 78.7126 10.9173 78.7126 10.96C78.7126 11.0027 78.5526 11.0773 78.2326 11.184C77.9126 11.2907 77.6353 11.344 77.4006 11.344C77.2726 11.344 77.1766 11.3387 77.1126 11.328C77.0486 11.3067 76.9846 11.2693 76.9206 11.216C76.8459 11.2907 76.8086 11.36 76.8086 11.424C76.8086 11.5307 76.7553 11.7013 76.6486 11.936C76.5419 12.16 76.4566 12.272 76.3926 12.272C76.3819 12.2827 76.3659 12.304 76.3446 12.336C76.3339 12.368 76.3499 12.4053 76.3926 12.448C76.3926 12.48 76.3873 12.5547 76.3766 12.672C76.3659 12.7893 76.3393 12.88 76.2966 12.944C76.2966 13.04 76.2806 13.168 76.2486 13.328C76.2166 13.4987 76.1793 13.6267 76.1366 13.712C76.1366 13.84 76.1153 13.9627 76.0726 14.08C76.0406 14.208 76.0033 14.272 75.9606 14.272C75.8966 14.2933 75.8646 14.448 75.8646 14.736C75.8539 14.992 75.7686 15.2213 75.6086 15.424C75.4593 15.6267 75.3153 15.728 75.1766 15.728L75.0326 15.744ZM77.2246 10.128C77.3739 10.128 77.6513 10.048 78.0566 9.888C78.4726 9.71733 78.7766 9.552 78.9686 9.392C79.2139 9.18933 79.4006 9.00267 79.5286 8.832C79.6566 8.66133 79.7206 8.49067 79.7206 8.32C79.7206 8.17067 79.6726 8.02667 79.5766 7.888C79.5019 7.77067 79.3899 7.712 79.2406 7.712C78.8886 7.712 78.4299 7.984 77.8646 8.528C77.6726 8.73067 77.5019 8.98667 77.3526 9.296C77.2033 9.59467 77.1286 9.824 77.1286 9.984C77.1286 10.08 77.1606 10.128 77.2246 10.128ZM86.4432 6.096C86.5819 6.24533 86.6832 6.37333 86.7472 6.48C86.8112 6.576 86.8432 6.69333 86.8432 6.832C86.8432 7.056 86.7579 7.32267 86.5872 7.632C86.5019 7.87733 86.4059 8.10667 86.2992 8.32C86.2032 8.53333 86.1286 8.672 86.0752 8.736L85.7072 9.584C85.5472 9.936 85.3499 10.3467 85.1152 10.816C84.8272 11.4133 84.6246 11.856 84.5072 12.144L84.2992 12.48C83.7659 13.3333 83.3552 13.9307 83.0672 14.272C82.8326 14.4853 82.5552 14.704 82.2352 14.928C81.9152 15.1627 81.6592 15.296 81.4672 15.328C81.2646 15.3707 81.0406 15.392 80.7952 15.392C80.3579 15.392 79.9686 15.3173 79.6272 15.168C79.2859 15.0187 79.0886 14.8373 79.0352 14.624L79.0032 14.432C79.0032 14.2507 79.0779 14.1067 79.2272 14C79.3659 13.904 79.5206 13.856 79.6912 13.856C79.7979 13.856 79.8779 13.8827 79.9312 13.936C79.9526 13.9467 80.0379 14.0053 80.1872 14.112C80.3366 14.2187 80.5392 14.272 80.7952 14.272C81.2752 14.272 81.7446 13.9573 82.2032 13.328C82.6512 12.6133 82.9926 12.0427 83.2272 11.616C83.0139 11.488 82.8059 11.2747 82.6032 10.976C82.4006 10.6667 82.3099 10.4533 82.3312 10.336V10.16C82.2459 10.16 82.1819 10 82.1392 9.68C82.1072 9.36 82.0912 8.96533 82.0912 8.496C82.0912 7.984 82.1019 7.62667 82.1232 7.424C82.1659 7.25333 82.1872 7.04533 82.1872 6.8C82.1979 6.544 82.2032 6.37867 82.2032 6.304C82.1926 6.15467 82.2192 6.02667 82.2832 5.92C82.3579 5.80267 82.4272 5.72267 82.4912 5.68C82.6299 5.62667 82.7419 5.6 82.8272 5.6C83.3179 5.6 83.5632 6.12267 83.5632 7.168C83.5632 7.37067 83.5579 7.52533 83.5472 7.632C83.5259 8.144 83.5152 8.50667 83.5152 8.72C83.5152 9.54133 83.6272 10.0747 83.8512 10.32C83.9472 10.096 84.0272 9.936 84.0912 9.84C84.2406 9.53067 84.3259 9.33333 84.3472 9.248C84.3686 9.17333 84.4272 9.05067 84.5232 8.88L84.7312 8.448C84.7526 8.384 84.8219 8.18133 84.9392 7.84C85.0566 7.488 85.1739 7.20533 85.2912 6.992C85.3339 6.90667 85.3979 6.784 85.4832 6.624C85.5686 6.45333 85.6379 6.33067 85.6912 6.256C85.7446 6.18133 85.8032 6.13333 85.8672 6.112C85.9526 6.03733 86.0432 6 86.1392 6C86.2352 6 86.3366 6.032 86.4432 6.096ZM90.9081 12.096C90.8334 12.1387 90.7321 12.1227 90.6041 12.048C90.4868 11.9733 90.3694 11.8613 90.2521 11.712C90.1668 11.5733 90.1081 11.44 90.0761 11.312C90.0441 11.1733 90.0281 10.976 90.0281 10.72L90.0441 10.352C90.0441 10.256 90.0281 10.208 89.9961 10.208C89.9641 10.208 89.8894 10.2613 89.7721 10.368C89.6654 10.464 89.5268 10.592 89.3561 10.752C89.0361 11.0613 88.7641 11.3013 88.5401 11.472C88.3268 11.632 88.1508 11.7067 88.0121 11.696C87.8948 11.696 87.7294 11.5947 87.5161 11.392C87.3028 11.1787 87.1588 10.976 87.0841 10.784C87.0521 10.656 87.0361 10.512 87.0361 10.352C87.0361 9.86133 87.1428 9.264 87.3561 8.56C87.5694 7.856 87.8201 7.248 88.1081 6.736C88.3961 6.21333 88.6361 5.96267 88.8281 5.984C88.9988 6.00533 89.1481 6.09067 89.2761 6.24C89.4148 6.37867 89.5268 6.54933 89.6121 6.752C89.6441 6.816 89.6601 6.86933 89.6601 6.912C89.6601 6.98667 89.6174 7.06133 89.5321 7.136C89.3721 7.34933 89.1694 7.70133 88.9241 8.192C88.6788 8.672 88.4814 9.11467 88.3321 9.52C88.1828 9.91467 88.1454 10.112 88.2201 10.112C88.3694 10.112 88.5028 10.0747 88.6201 10C88.7481 9.92533 88.9134 9.792 89.1161 9.6C89.5001 9.216 89.8734 8.72533 90.2361 8.128C90.6841 7.41333 90.9294 6.99733 90.9721 6.88L91.1481 6.56C91.2548 6.34667 91.3348 6.208 91.3881 6.144C91.4414 6.06933 91.5054 6.02133 91.5801 6H91.9481C92.0121 6.01067 92.0868 6.05867 92.1721 6.144C92.2681 6.18667 92.3588 6.24533 92.4441 6.32C92.5294 6.39467 92.5721 6.45867 92.5721 6.512L92.3161 7.104L92.1721 7.44C91.8841 8.08 91.6654 8.592 91.5161 8.976C91.3668 9.34933 91.2548 9.73867 91.1801 10.144C91.1694 10.1973 91.1641 10.288 91.1641 10.416C91.1641 10.736 91.1961 10.96 91.2601 11.088C91.3561 11.28 91.4521 11.4187 91.5481 11.504C91.6334 11.568 91.6334 11.648 91.5481 11.744C91.4628 11.8293 91.3401 11.9093 91.1801 11.984C91.0308 12.0587 90.9401 12.096 90.9081 12.096ZM90.7481 5.024C90.3748 5.04533 90.0654 4.944 89.8201 4.72C89.5854 4.48533 89.3881 4.11733 89.2281 3.616C89.2068 3.50933 89.1961 3.44 89.1961 3.408C89.1961 3.28 89.2281 3.168 89.2921 3.072C89.3348 2.99733 89.3988 2.94933 89.4841 2.928C89.5801 2.896 89.6654 2.89067 89.7401 2.912C89.9428 2.98667 90.0921 3.072 90.1881 3.168C90.2841 3.25333 90.3321 3.376 90.3321 3.536C90.3321 3.57867 90.3374 3.62133 90.3481 3.664C90.3694 3.70667 90.3801 3.73333 90.3801 3.744C90.4228 3.89333 90.5028 3.968 90.6201 3.968L90.7481 3.936C90.9721 3.84 91.1588 3.75467 91.3081 3.68C91.4574 3.59467 91.5908 3.49333 91.7081 3.376C91.8468 3.23733 92.0761 3.02933 92.3961 2.752C92.4814 2.67733 92.5774 2.65067 92.6841 2.672C92.8654 2.704 92.9614 2.752 92.9721 2.816L93.0041 2.848C93.0681 2.976 93.1001 3.13067 93.1001 3.312V3.328C93.1001 3.424 93.0681 3.52533 93.0041 3.632C92.9614 3.76 92.8974 3.86667 92.8121 3.952C92.7268 4.03733 92.5828 4.16 92.3801 4.32C92.1241 4.512 91.7828 4.71467 91.3561 4.928C91.2601 4.98133 91.1428 5.01333 91.0041 5.024C90.8761 5.024 90.7908 5.024 90.7481 5.024ZM101.626 10.704C101.7 10.8107 101.738 10.912 101.738 11.008C101.738 11.1147 101.7 11.2107 101.626 11.296C101.551 11.3813 101.487 11.424 101.434 11.424C101.178 11.424 100.89 11.3653 100.57 11.248C100.26 11.12 100.106 10.9387 100.106 10.704V9.712C100.106 9.28533 100.068 9.04 99.9937 8.976C99.8337 8.89067 99.6204 9.01333 99.3537 9.344C99.0871 9.664 98.7617 10.144 98.3777 10.784C98.2284 11.0187 98.1004 11.1893 97.9937 11.296C97.8871 11.392 97.7911 11.44 97.7057 11.44C97.6311 11.44 97.5671 11.4187 97.5137 11.376C97.1831 11.28 97.0177 11.0933 97.0177 10.816C97.0177 10.784 97.0284 10.7147 97.0497 10.608C97.1457 10.2773 97.2471 9.90933 97.3537 9.504C97.4711 9.09867 97.5617 8.752 97.6257 8.464C97.5937 8.4 97.5404 8.368 97.4657 8.368C97.3591 8.368 97.2364 8.42133 97.0977 8.528C97.0551 8.56 96.9751 8.61333 96.8577 8.688C96.7511 8.752 96.6391 8.84267 96.5217 8.96C96.4151 9.06667 96.3031 9.216 96.1857 9.408C96.1431 9.48267 96.0684 9.59467 95.9617 9.744C95.4284 10.5547 95.1031 11.0133 94.9857 11.12C94.9324 11.2693 94.8791 11.376 94.8257 11.44C94.7831 11.4933 94.7297 11.52 94.6657 11.52C94.6231 11.52 94.5697 11.504 94.5057 11.472C94.3031 11.376 94.1377 11.2427 94.0097 11.072C93.8924 10.8907 93.8337 10.6773 93.8337 10.432C93.8337 10.272 93.8817 9.952 93.9777 9.472C94.0737 8.992 94.1804 8.544 94.2977 8.128C94.3831 7.95733 94.4471 7.78133 94.4897 7.6C94.5431 7.408 94.5697 7.27467 94.5697 7.2C94.6017 6.99733 94.6657 6.72533 94.7617 6.384C94.8577 6.032 94.9271 5.84 94.9697 5.808C95.0337 5.744 95.1511 5.712 95.3217 5.712C95.4391 5.712 95.5511 5.73333 95.6577 5.776C95.7644 5.81867 95.8391 5.88267 95.8817 5.968C96.0204 6.128 96.0897 6.34667 96.0897 6.624C96.0897 6.88 96.0364 7.152 95.9297 7.44C95.8231 7.68533 95.6897 8.04267 95.5297 8.512C95.5297 8.512 95.5404 8.50133 95.5617 8.48C95.8177 8.11733 96.1484 7.712 96.5537 7.264C96.7457 7.05067 96.9591 6.88533 97.1937 6.768C97.4391 6.65067 97.6364 6.592 97.7857 6.592C98.0417 6.63467 98.2551 6.76267 98.4257 6.976C98.6071 7.17867 98.7191 7.46133 98.7617 7.824C98.7617 7.952 98.7511 8.112 98.7297 8.304C98.7084 8.48533 98.6924 8.60267 98.6817 8.656C98.7244 8.60267 98.8311 8.47467 99.0017 8.272C99.1831 8.05867 99.4017 7.84 99.6577 7.616C99.8924 7.43467 100.111 7.344 100.314 7.344C100.484 7.344 100.634 7.41333 100.762 7.552C100.996 7.69067 101.178 7.91467 101.306 8.224C101.444 8.53333 101.514 8.88533 101.514 9.28C101.514 9.41867 101.508 9.52533 101.498 9.6C101.487 9.67467 101.482 9.78133 101.482 9.92C101.482 10.0693 101.498 10.2133 101.53 10.352C101.562 10.48 101.594 10.5973 101.626 10.704ZM104.347 12C103.739 12 103.248 11.8293 102.875 11.488C102.501 11.1467 102.315 10.6613 102.315 10.032C102.315 9.78667 102.331 9.51467 102.363 9.216C102.384 8.96 102.485 8.608 102.667 8.16C102.859 7.712 103.115 7.27467 103.435 6.848C103.765 6.42133 104.149 6.10667 104.587 5.904C104.789 5.808 104.96 5.744 105.099 5.712C105.237 5.66933 105.397 5.648 105.579 5.648C106.016 5.648 106.368 5.728 106.635 5.888C106.912 6.048 107.104 6.22933 107.211 6.432C107.328 6.63467 107.387 6.81067 107.387 6.96V7.04V7.088C107.387 7.216 107.312 7.45067 107.163 7.792C107.013 8.13333 106.773 8.45333 106.443 8.752C106.123 9.05067 105.707 9.216 105.195 9.248C104.939 9.248 104.688 9.22667 104.443 9.184C104.208 9.13067 104.059 9.104 103.995 9.104C103.835 9.104 103.733 9.16267 103.691 9.28C103.648 9.39733 103.627 9.59467 103.627 9.872C103.659 10.1707 103.739 10.3787 103.867 10.496C104.005 10.6133 104.203 10.672 104.459 10.672C104.587 10.672 104.736 10.6347 104.907 10.56C105.077 10.4747 105.28 10.3413 105.515 10.16C105.643 10.0533 105.744 9.97867 105.819 9.936C105.893 9.89333 105.984 9.872 106.091 9.872C106.187 9.872 106.299 9.936 106.427 10.064C106.555 10.192 106.624 10.3147 106.635 10.432C106.613 10.56 106.496 10.752 106.283 11.008C106.069 11.264 105.792 11.4933 105.451 11.696C105.109 11.8987 104.741 12 104.347 12ZM104.907 8.144C105.109 8.144 105.248 8.12267 105.323 8.08C105.429 8.02667 105.589 7.89333 105.803 7.68C106.027 7.456 106.144 7.30133 106.155 7.216C106.155 7.10933 106.107 7.024 106.011 6.96C105.925 6.88533 105.803 6.83733 105.643 6.816H105.467C105.328 6.816 105.125 6.93333 104.859 7.168C104.603 7.392 104.379 7.65333 104.187 7.952C104.197 8.00533 104.277 8.05333 104.427 8.096C104.576 8.128 104.736 8.144 104.907 8.144ZM4.88592 24.792C5.31259 24.952 5.64325 25.1333 5.87792 25.336C6.11259 25.528 6.21392 25.8053 6.18192 26.168C6.16059 26.264 6.14459 26.3867 6.13392 26.536C6.12325 26.6747 6.10192 26.808 6.06992 26.936C6.04859 27.0533 6.00592 27.1653 5.94192 27.272C5.94192 27.2933 5.86192 27.5173 5.70192 27.944C5.45659 28.52 5.32325 28.904 5.30192 29.096C5.24859 29.288 5.20592 29.4533 5.17392 29.592C5.13125 29.7947 5.08859 29.96 5.04592 30.088C5.00325 30.216 4.93925 30.328 4.85392 30.424C4.72592 30.552 4.57125 30.616 4.38992 30.616C4.17659 30.616 3.98992 30.536 3.82992 30.376C3.66992 30.216 3.60592 30.024 3.63792 29.8C3.63792 29.5973 3.66992 29.272 3.73392 28.824C3.74459 28.7387 3.77125 28.6533 3.81392 28.568C3.85659 28.4827 3.88325 28.424 3.89392 28.392C4.06459 27.9867 4.21392 27.528 4.34192 27.016C4.48059 26.504 4.56059 26.1147 4.58192 25.848C4.25125 25.8587 3.73392 25.8907 3.02992 25.944C2.94459 26.296 2.84859 26.6267 2.74192 26.936C2.60325 27.3627 2.52325 27.64 2.50192 27.768C2.46992 27.928 2.37392 28.1893 2.21392 28.552C1.94725 29.1707 1.80859 29.576 1.79792 29.768C1.74459 29.8427 1.70725 29.9387 1.68592 30.056C1.66459 30.1733 1.64859 30.2853 1.63792 30.392C1.60592 30.5627 1.53659 30.68 1.42992 30.744C1.33392 30.808 1.18992 30.8613 0.99792 30.904C0.827253 30.904 0.688587 30.872 0.58192 30.808C0.48592 30.744 0.40592 30.6587 0.34192 30.552C0.27792 30.4347 0.219253 30.312 0.16592 30.184C0.16592 29.8853 0.224587 29.592 0.34192 29.304C0.37392 29.2293 0.40592 29.1387 0.43792 29.032C0.480587 28.9253 0.512587 28.84 0.53392 28.776C0.62992 28.4773 0.70992 28.264 0.77392 28.136C0.80592 27.9227 0.896587 27.624 1.04592 27.24C1.16325 26.9413 1.23259 26.744 1.25392 26.648C1.42459 26.0827 1.54725 25.688 1.62192 25.464C1.62192 25.24 1.68059 25.0587 1.79792 24.92C1.92592 24.7813 2.08059 24.712 2.26192 24.712C2.37925 24.7547 2.47525 24.776 2.54992 24.776C2.59259 24.776 2.63525 24.7653 2.67792 24.744C2.74192 24.712 3.00325 24.696 3.46192 24.696C3.73925 24.696 3.91525 24.6907 3.98992 24.68C4.09659 24.6693 4.19792 24.6747 4.29392 24.696C4.40059 24.7173 4.46992 24.7333 4.50192 24.744C4.54459 24.7547 4.59792 24.7653 4.66192 24.776C4.72592 24.7867 4.80059 24.792 4.88592 24.792ZM7.15329 33.976C6.97196 33.976 6.80129 33.88 6.64129 33.688C6.49196 33.496 6.41729 33.2773 6.41729 33.032C6.41729 32.936 6.43329 32.84 6.46529 32.744C6.47596 32.7013 6.50263 32.6 6.54529 32.44C6.59863 32.2907 6.63063 32.1627 6.64129 32.056C6.66263 31.9387 6.72663 31.7253 6.83329 31.416C6.93996 31.1067 7.02529 30.8987 7.08929 30.792C7.14263 30.696 7.18529 30.584 7.21729 30.456C7.24929 30.3173 7.26529 30.2 7.26529 30.104C7.33996 29.8693 7.40929 29.7093 7.47329 29.624C7.54796 29.3893 7.62796 29.208 7.71329 29.08C7.72396 29.048 7.73463 28.9733 7.74529 28.856C7.76663 28.728 7.80396 28.6533 7.85729 28.632C7.88929 28.4827 7.91596 28.3813 7.93729 28.328C8.01196 27.9973 8.15063 27.5813 8.35329 27.08C8.51329 26.6213 8.59329 26.312 8.59329 26.152C8.59329 25.9813 8.53463 25.8747 8.41729 25.832C8.29996 25.7893 8.24129 25.64 8.24129 25.384C8.24129 25.2453 8.26263 25.1173 8.30529 25C8.34796 24.8827 8.40663 24.808 8.48129 24.776C8.64129 24.712 8.84929 24.68 9.10529 24.68C9.27596 24.68 9.36129 24.696 9.36129 24.728C9.36129 24.76 9.36663 24.7867 9.3773 24.808C9.38796 24.8187 9.4093 24.824 9.44129 24.824C9.47329 24.7813 9.55329 24.8933 9.68129 25.16C9.80929 25.416 9.87329 25.5867 9.87329 25.672C9.85196 25.704 9.8413 25.7253 9.8413 25.736C9.85196 25.7467 9.87329 25.752 9.90529 25.752C9.97996 25.72 10.1186 25.6507 10.3213 25.544C10.5346 25.4267 10.668 25.336 10.7213 25.272C10.7426 25.2613 10.78 25.2453 10.8333 25.224C10.8866 25.192 10.9293 25.16 10.9613 25.128C11.0786 25.0853 11.212 25.064 11.3613 25.064C11.532 25.064 11.6973 25.0907 11.8573 25.144C12.0173 25.1973 12.1506 25.272 12.2573 25.368C12.4173 25.5707 12.5506 25.8053 12.6573 26.072C12.764 26.3387 12.8173 26.6 12.8173 26.856C12.8173 27.0693 12.7746 27.288 12.6893 27.512C12.668 27.576 12.5986 27.704 12.4813 27.896C12.3746 28.0773 12.3 28.2 12.2573 28.264C11.8306 28.9253 11.244 29.4693 10.4973 29.896C10.3586 29.992 10.156 30.0827 9.8893 30.168C9.63329 30.2427 9.44663 30.28 9.32929 30.28C9.26529 30.28 9.19596 30.2267 9.12129 30.12C9.0573 30.0027 8.99863 29.8693 8.94529 29.72C8.80663 30.0507 8.72663 30.2747 8.70529 30.392C8.70529 30.424 8.69463 30.4773 8.6733 30.552C8.66263 30.616 8.63596 30.664 8.59329 30.696C8.59329 30.7067 8.58263 30.7333 8.5613 30.776C8.55063 30.8187 8.51863 30.8773 8.46529 30.952L8.1933 31.736C8.06529 32.0453 7.98529 32.2907 7.95329 32.472C7.92129 32.8453 7.83596 33.1867 7.69729 33.496C7.55863 33.816 7.37729 33.976 7.15329 33.976ZM9.6653 28.76C9.82529 28.6853 10.0493 28.568 10.3373 28.408C10.636 28.248 10.8333 28.1093 10.9293 27.992C11.004 27.9067 11.052 27.816 11.0733 27.72C11.1053 27.624 11.132 27.5387 11.1533 27.464C11.26 27.1973 11.3346 27 11.3773 26.872C11.4093 26.808 11.4253 26.7333 11.4253 26.648C11.4253 26.5307 11.3933 26.44 11.3293 26.376C11.2013 26.3653 10.9933 26.4293 10.7053 26.568C10.428 26.696 10.1666 26.92 9.9213 27.24C9.5693 27.6987 9.3933 28.088 9.3933 28.408C9.3933 28.5147 9.41463 28.6 9.45729 28.664C9.51063 28.728 9.57996 28.76 9.6653 28.76ZM17.6157 30.968C17.5197 30.872 17.4397 30.7493 17.3757 30.6C17.3223 30.44 17.253 30.2 17.1677 29.88C17.1463 29.816 17.1357 29.7253 17.1357 29.608C17.1357 29.48 17.1357 29.3893 17.1357 29.336C17.093 29.432 17.0397 29.5387 16.9757 29.656C16.9117 29.7627 16.8477 29.8373 16.7837 29.88C16.5383 30.1253 16.293 30.3067 16.0477 30.424C15.7063 30.6373 15.413 30.744 15.1677 30.744C14.869 30.744 14.613 30.6053 14.3997 30.328C14.0583 30.0507 13.8877 29.72 13.8877 29.336C13.8877 29.2827 13.8983 29.1813 13.9197 29.032C13.941 28.6373 13.9943 28.2587 14.0797 27.896C14.1757 27.5333 14.3517 27.0693 14.6077 26.504L15.0877 25.544L15.3437 25.048C15.397 25.0267 15.4823 25.016 15.5997 25.016C15.7703 25.016 15.9303 25.048 16.0797 25.112C16.229 25.176 16.309 25.2613 16.3197 25.368C16.3517 25.4107 16.3677 25.4907 16.3677 25.608C16.3677 25.9493 16.2237 26.4027 15.9357 26.968L15.8077 27.272C15.6157 27.7307 15.477 28.088 15.3917 28.344C15.3063 28.6 15.2637 28.8133 15.2637 28.984C15.2637 29.1547 15.3277 29.2667 15.4557 29.32C15.509 29.352 15.573 29.368 15.6477 29.368C15.861 29.368 16.117 29.2027 16.4157 28.872C16.725 28.5413 17.0397 27.9867 17.3597 27.208C17.509 26.8453 17.5997 26.472 17.6317 26.088C17.6103 25.9707 17.6423 25.8427 17.7277 25.704C17.813 25.5653 17.925 25.4533 18.0637 25.368C18.1063 25.304 18.165 25.256 18.2397 25.224C18.3143 25.1813 18.3623 25.1813 18.3837 25.224L18.6397 25.208C18.6717 25.1973 18.7197 25.2453 18.7837 25.352C18.8583 25.4587 18.9117 25.5227 18.9437 25.544C19.0503 25.6293 19.1037 25.8 19.1037 26.056C19.1037 26.408 18.9757 26.8933 18.7197 27.512C18.517 27.9387 18.3783 28.2693 18.3037 28.504C18.2397 28.728 18.2023 28.9467 18.1917 29.16C18.1917 29.384 18.2077 29.56 18.2397 29.688C18.2823 29.8053 18.3783 29.928 18.5277 30.056C18.6983 30.1733 18.7677 30.4507 18.7357 30.888C18.7143 30.9627 18.6557 31.0213 18.5597 31.064C18.4637 31.1067 18.3463 31.128 18.2077 31.128C17.973 31.128 17.7757 31.0747 17.6157 30.968ZM26.5295 22.888C26.4762 22.92 26.3909 22.984 26.2735 23.08C26.1562 23.1653 26.0495 23.208 25.9535 23.208C25.9215 23.208 25.8735 23.1973 25.8095 23.176C25.6815 23.1333 25.5855 23.0853 25.5215 23.032C25.4682 22.9787 25.4149 22.9093 25.3615 22.824C25.3082 22.7387 25.2442 22.6853 25.1695 22.664L24.9775 22.648C24.6469 22.648 24.1989 22.6907 23.6335 22.776C23.0682 22.8507 22.7162 22.9253 22.5775 23C23.1322 23.448 23.5589 24.0027 23.8575 24.664C24.1562 25.3253 24.3055 26.0027 24.3055 26.696C24.3055 26.9733 24.2789 27.2613 24.2255 27.56C24.1295 28.1467 23.9429 28.696 23.6655 29.208C23.3882 29.7093 23.0255 30.1413 22.5775 30.504C22.1189 30.8773 21.7029 31.112 21.3295 31.208C21.2549 31.2293 21.1535 31.2347 21.0255 31.224C20.9082 31.2133 20.8175 31.2133 20.7535 31.224C20.4229 31.096 20.1722 30.952 20.0015 30.792C19.8415 30.632 19.6549 30.3707 19.4415 30.008C19.4202 29.88 19.4095 29.704 19.4095 29.48C19.4095 29.2027 19.4415 28.9573 19.5055 28.744C19.5695 28.52 19.6495 28.3013 19.7455 28.088C19.8522 27.864 19.9215 27.7093 19.9535 27.624L20.5455 26.76C20.7269 26.504 20.9935 26.248 21.3455 25.992C21.6975 25.736 22.0442 25.5333 22.3855 25.384L22.9455 25.56C22.7855 25.0373 22.5829 24.616 22.3375 24.296C22.1029 23.976 21.7775 23.6613 21.3615 23.352C21.2869 23.2987 21.2229 23.224 21.1695 23.128C21.1269 23.032 21.0895 22.936 21.0575 22.84C21.2069 22.3813 21.5642 22.0453 22.1295 21.832C22.6949 21.608 23.3829 21.4267 24.1935 21.288L24.5935 21.208C24.7002 21.176 24.7855 21.16 24.8495 21.16C24.9349 21.16 25.0202 21.1813 25.1055 21.224C25.1589 21.1813 25.2335 21.16 25.3295 21.16C25.5109 21.16 25.7189 21.24 25.9535 21.4C26.1882 21.56 26.3909 21.7253 26.5615 21.896C26.6789 22.0133 26.7375 22.104 26.7375 22.168C26.7375 22.1787 26.7162 22.2587 26.6735 22.408C26.6095 22.5787 26.5615 22.7387 26.5295 22.888ZM22.8495 26.664C22.5402 26.7493 22.2415 26.9147 21.9535 27.16C21.6762 27.3947 21.4469 27.688 21.2655 28.04C21.0842 28.3813 20.9935 28.7333 20.9935 29.096C20.9935 29.5333 21.1215 29.752 21.3775 29.752C21.4735 29.752 21.5482 29.736 21.6015 29.704C21.6655 29.6613 21.7455 29.5973 21.8415 29.512C22.2469 29.1493 22.5455 28.8027 22.7375 28.472C22.9402 28.1307 23.0415 27.752 23.0415 27.336C23.0415 27.1973 23.0362 27.096 23.0255 27.032C23.0042 26.84 22.9455 26.7173 22.8495 26.664ZM28.2733 26.92C28.6146 26.7813 28.94 26.712 29.2493 26.712C29.6013 26.712 29.884 26.7973 30.0973 26.968C30.3213 27.128 30.4333 27.3787 30.4333 27.72C30.4866 27.9013 30.5133 28.088 30.5133 28.28C30.5133 28.4293 30.4973 28.584 30.4653 28.744C30.1453 29.4053 29.8253 29.848 29.5053 30.072C29.356 30.2213 29.1373 30.3813 28.8493 30.552C28.5613 30.7227 28.3 30.84 28.0653 30.904C27.6386 31.0107 27.3613 31.064 27.2333 31.064C27.116 31.064 27.0146 31.0427 26.9293 31C26.844 30.9573 26.7426 30.8827 26.6253 30.776C26.476 30.648 26.4013 30.4987 26.4013 30.328C26.3693 30.5627 26.2413 30.712 26.0173 30.776C25.772 30.744 25.5906 30.68 25.4733 30.584C25.3666 30.4773 25.3133 30.3173 25.3133 30.104C25.3133 30.0613 25.324 29.9653 25.3453 29.816C25.3666 29.7413 25.404 29.5707 25.4573 29.304C25.5213 29.0373 25.58 28.8347 25.6333 28.696L25.9853 27.768C26.1986 27.1813 26.364 26.7333 26.4813 26.424C26.6093 26.1147 26.7266 25.8853 26.8333 25.736L27.1853 24.84L27.4093 24.68C27.676 24.7013 27.8573 24.7707 27.9533 24.888C28.0493 24.9947 28.1186 25.1653 28.1613 25.4C28.1506 25.5173 27.9373 26.056 27.5213 27.016C27.468 27.1547 27.4146 27.2827 27.3613 27.4C27.3186 27.5173 27.276 27.624 27.2333 27.72C27.724 27.272 28.0706 27.0053 28.2733 26.92ZM33.3133 25.24C33.3986 25.4427 33.4413 25.624 33.4413 25.784C33.4413 25.9227 33.4146 26.0507 33.3613 26.168C33.276 26.36 33.068 26.936 32.7373 27.896C32.4173 28.8453 32.236 29.416 32.1933 29.608C32.0866 29.8747 32.0066 30.2107 31.9533 30.616C31.9746 30.712 31.9586 30.8133 31.9053 30.92C31.852 31.0267 31.7613 31.1173 31.6333 31.192C31.3133 31.1707 31.0733 31.1067 30.9133 31C30.7533 30.8827 30.636 30.68 30.5613 30.392C30.5613 30.168 30.588 29.9547 30.6413 29.752C30.6946 29.5493 30.732 29.4053 30.7533 29.32C30.8813 28.84 31.0146 28.4293 31.1533 28.088C31.1853 28.024 31.2653 27.832 31.3933 27.512C31.6066 26.872 31.7666 26.3227 31.8733 25.864C31.9906 25.4053 32.06 25.128 32.0813 25.032C32.2306 24.872 32.3906 24.792 32.5613 24.792C32.796 24.792 33.0466 24.9413 33.3133 25.24ZM28.6573 29.256C29.052 28.7653 29.26 28.3547 29.2813 28.024C29.2813 27.992 29.26 27.9493 29.2173 27.896C29.1746 27.8427 29.1426 27.7947 29.1213 27.752C28.8546 27.8587 28.6786 27.9493 28.5933 28.024C28.508 28.088 28.4546 28.1307 28.4333 28.152C27.9853 28.504 27.676 28.776 27.5053 28.968C27.3346 29.16 27.116 29.464 26.8493 29.88L27.0253 29.896C27.1 29.9387 27.1906 29.96 27.2973 29.96C27.5213 29.96 27.7666 29.8907 28.0333 29.752C28.3106 29.6133 28.5186 29.448 28.6573 29.256ZM39.261 25.4C39.3784 25.5707 39.4477 25.7573 39.469 25.96C39.501 26.1627 39.5117 26.344 39.501 26.504C39.501 26.6533 39.5064 26.7493 39.517 26.792C39.4104 27.2187 39.2557 27.784 39.053 28.488C38.8504 29.1813 38.765 29.4533 38.797 29.304C38.7757 29.4 38.733 29.5333 38.669 29.704C38.5837 29.96 38.525 30.168 38.493 30.328C38.461 30.52 38.3917 30.6587 38.285 30.744C38.189 30.8187 38.045 30.8987 37.853 30.984L37.725 31.016C37.6504 31.016 37.5704 30.9893 37.485 30.936C37.4104 30.872 37.3357 30.808 37.261 30.744C37.1757 30.52 37.133 30.36 37.133 30.264C37.133 30.168 37.165 30.0347 37.229 29.864C37.3464 29.48 37.485 29.0107 37.645 28.456C37.805 27.8907 37.9437 27.4107 38.061 27.016L38.189 26.584C38.2317 26.3813 38.2477 26.2107 38.237 26.072C38.1837 26.0613 38.0717 26.056 37.901 26.056C37.6877 26.056 37.517 26.072 37.389 26.104C37.3037 26.4667 37.1757 26.84 37.005 27.224C36.845 27.5973 36.589 28.1307 36.237 28.824C36.045 29.1973 35.8264 29.5493 35.581 29.88L35.389 30.136L34.813 30.696L34.317 31.08C34.253 31.1333 34.1837 31.1653 34.109 31.176C34.0344 31.1973 33.9544 31.2027 33.869 31.192C33.7837 31.192 33.7144 31.192 33.661 31.192C33.5224 31.1493 33.389 31.0587 33.261 30.92C33.1437 30.7813 33.0637 30.696 33.021 30.664L32.941 30.472C32.941 30.376 32.9517 30.3067 32.973 30.264C33.005 30.2107 33.0744 30.1307 33.181 30.024C33.2557 29.896 33.3517 29.832 33.469 29.832C33.533 29.832 33.581 29.8373 33.613 29.848C33.6984 29.784 33.8264 29.6933 33.997 29.576C34.1677 29.448 34.3064 29.336 34.413 29.24C34.5304 29.1333 34.6264 29.0267 34.701 28.92C34.9357 28.5787 35.2237 28.1147 35.565 27.528C35.7037 27.2933 35.8797 26.936 36.093 26.456C35.997 26.424 35.933 26.4027 35.901 26.392C35.8797 26.3813 35.8157 26.344 35.709 26.28L35.501 25.576C35.501 25.3093 35.629 25.144 35.885 25.08C36.077 25.0373 36.3597 24.9893 36.733 24.936C36.9997 24.904 37.2237 24.8667 37.405 24.824C37.5437 24.7813 37.7144 24.76 37.917 24.76C38.2157 24.76 38.4877 24.8133 38.733 24.92C38.9464 25.016 39.1224 25.176 39.261 25.4ZM41.3548 30.968C41.2588 30.9253 41.1308 30.8933 40.9708 30.872C40.8321 30.8507 40.7201 30.824 40.6348 30.792C40.5495 30.76 40.4588 30.696 40.3628 30.6C40.2241 30.472 40.1121 30.3227 40.0268 30.152C39.9521 29.9707 39.9148 29.784 39.9148 29.592C39.9148 29.464 39.9255 29.368 39.9468 29.304C39.9788 29.208 39.9948 29.1227 39.9948 29.048C40.0055 28.7387 40.0855 28.4293 40.2348 28.12C40.2135 28.1627 40.2828 27.9867 40.4428 27.592C40.6135 27.112 40.9068 26.4987 41.3228 25.752L41.7548 24.952C41.8721 24.728 42.0535 24.616 42.2988 24.616C42.5015 24.616 42.7308 24.6747 42.9868 24.792C43.0081 24.8987 43.0455 24.9733 43.0988 25.016C43.1841 25.1867 43.2268 25.32 43.2268 25.416C43.2268 25.4907 43.2215 25.5493 43.2108 25.592C42.9761 25.9013 42.7948 26.1733 42.6668 26.408C42.8375 26.3013 43.0295 26.248 43.2428 26.248L43.5308 26.44C43.7761 26.6107 43.9361 26.7333 44.0108 26.808C44.0108 26.904 44.0481 27.0267 44.1228 27.176C44.2401 27.4853 44.2988 27.7467 44.2988 27.96C44.2988 28.6213 44.1121 29.1813 43.7388 29.64C43.3655 30.088 42.8535 30.4453 42.2028 30.712C42.1175 30.744 42.0268 30.7973 41.9308 30.872C41.8988 30.872 41.8028 30.8827 41.6428 30.904C41.4935 30.9253 41.3975 30.9467 41.3548 30.968ZM41.3868 29.56C41.4401 29.528 41.5361 29.4907 41.6748 29.448C41.8241 29.4053 41.9308 29.3573 41.9948 29.304C42.2615 29.1013 42.4641 28.888 42.6028 28.664C42.7521 28.44 42.8535 28.168 42.9068 27.848L42.8748 27.768C42.7041 27.6933 42.5601 27.5973 42.4428 27.48C42.3361 27.352 42.2881 27.2027 42.2988 27.032L42.0268 27.592C41.8775 27.9227 41.7388 28.3333 41.6108 28.824C41.5575 29.0373 41.4828 29.2827 41.3868 29.56ZM46.2279 30.888C45.9399 30.8773 45.6786 30.824 45.4439 30.728C45.2199 30.632 45.1079 30.4613 45.1079 30.216C45.1079 29.9813 45.1613 29.8053 45.2679 29.688C45.2466 29.6027 45.2359 29.5333 45.2359 29.48C45.2359 29.4373 45.2466 29.384 45.2679 29.32L45.2519 29.368C45.2839 29.2933 45.3053 29.2133 45.3159 29.128C45.3373 29.032 45.3533 28.9627 45.3639 28.92C45.3853 28.7707 45.4066 28.6587 45.4279 28.584L45.5559 28.12C45.6626 27.6507 45.7693 27.32 45.8759 27.128C46.1319 26.616 46.4733 25.8373 46.8999 24.792C47.0173 24.504 47.1826 24.36 47.3959 24.36C47.5773 24.36 47.7639 24.4453 47.9559 24.616C48.1479 24.776 48.3026 24.9573 48.4199 25.16L48.0679 25.768C47.8973 26.0453 47.7586 26.28 47.6519 26.472C47.5559 26.6533 47.4813 26.8453 47.4279 27.048C47.5986 27.048 47.7266 27.0427 47.8119 27.032C47.8653 27.032 47.9293 27.032 48.0039 27.032C48.0893 27.0213 48.1853 27.0213 48.2919 27.032C48.3879 27.0427 48.4893 27.0427 48.5959 27.032C48.7133 27.0107 48.7986 27 48.8519 27C49.0439 26.968 49.2146 26.9573 49.3639 26.968C49.4706 26.52 49.6199 26.0667 49.8119 25.608C50.0039 25.1493 50.2226 24.872 50.4679 24.776C50.5213 24.7547 50.5853 24.744 50.6599 24.744C50.7346 24.744 50.8039 24.7653 50.8679 24.808C50.9426 24.8507 51.0066 24.8933 51.0599 24.936C51.1133 24.968 51.1559 25 51.1879 25.032C51.3266 25.1387 51.4226 25.2293 51.4759 25.304C51.5399 25.368 51.5719 25.432 51.5719 25.496C51.5719 25.5707 51.5293 25.672 51.4439 25.8C51.3693 25.928 51.3106 26.024 51.2679 26.088C51.2039 26.2053 51.1559 26.3227 51.1239 26.44C51.0386 26.664 50.9693 26.8133 50.9159 26.888C50.8733 26.9627 50.7239 27.368 50.4679 28.104C50.2119 28.84 50.0733 29.2667 50.0519 29.384C49.9879 29.768 49.9506 30.0507 49.9399 30.232C49.9293 30.392 49.8759 30.5093 49.7799 30.584C49.6946 30.6587 49.5773 30.696 49.4279 30.696C49.2999 30.696 49.1666 30.6747 49.0279 30.632C48.8893 30.5787 48.7719 30.5147 48.6759 30.44C48.5159 30.312 48.4359 30.136 48.4359 29.912C48.4359 29.7307 48.4786 29.528 48.5639 29.304C48.6493 29.08 48.7079 28.9253 48.7399 28.84L48.7239 28.856C48.7453 28.7707 48.7719 28.6907 48.8039 28.616C48.8466 28.5307 48.8786 28.4453 48.8999 28.36C48.6653 28.3387 48.4893 28.328 48.3719 28.328C48.0839 28.328 47.6519 28.36 47.0759 28.424C47.0013 28.584 46.9319 28.7813 46.8679 29.016C46.8146 29.2507 46.7826 29.3947 46.7719 29.448C46.6866 29.8427 46.6066 30.152 46.5319 30.376C46.4573 30.5893 46.3559 30.76 46.2279 30.888ZM53.412 30.888C53.284 30.888 53.1827 30.8667 53.108 30.824C53.0334 30.7813 52.9267 30.7013 52.788 30.584C52.5747 30.36 52.4094 30.1307 52.292 29.896C52.1747 29.6507 52.132 29.4373 52.164 29.256C52.196 29.1813 52.2067 29.1067 52.196 29.032C52.196 28.9573 52.196 28.9093 52.196 28.888C52.1534 28.8453 52.132 28.8187 52.132 28.808C52.132 28.7867 52.1427 28.7707 52.164 28.76C52.1854 28.7387 52.2014 28.7173 52.212 28.696C52.276 28.696 52.2974 28.6373 52.276 28.52C52.2547 28.4347 52.292 28.248 52.388 27.96C52.484 27.672 52.6067 27.4053 52.756 27.16C52.8734 26.968 53.044 26.728 53.268 26.44C53.5027 26.152 53.7107 25.9333 53.892 25.784C54.4254 25.3253 54.9054 25.048 55.332 24.952C55.5454 24.8987 55.7534 24.872 55.956 24.872C56.2654 24.872 56.5054 24.9573 56.676 25.128C56.9107 25.224 57.0814 25.3627 57.188 25.544C57.2947 25.7253 57.364 25.9653 57.396 26.264C57.4067 26.328 57.412 26.4347 57.412 26.584C57.412 27.3733 57.1134 28.1947 56.516 29.048C56.2707 29.4 56.0254 29.6827 55.78 29.896C55.5347 30.1093 55.236 30.3227 54.884 30.536C54.692 30.664 54.4894 30.7493 54.276 30.792C54.0627 30.8347 53.7747 30.8667 53.412 30.888ZM55.044 28.936C55.2467 28.7547 55.3907 28.5733 55.476 28.392C55.572 28.2 55.7054 27.8693 55.876 27.4C55.94 27.304 55.972 27.112 55.972 26.824C55.972 26.568 55.9347 26.424 55.86 26.392C55.8067 26.3493 55.7427 26.328 55.668 26.328C55.572 26.328 55.4174 26.4027 55.204 26.552C54.8307 26.872 54.516 27.208 54.26 27.56C54.0147 27.9013 53.844 28.296 53.748 28.744C53.7374 28.7867 53.732 28.8507 53.732 28.936C53.732 29.2987 53.86 29.48 54.116 29.48C54.3614 29.48 54.6707 29.2987 55.044 28.936ZM60.0569 31.064C59.9289 31.0853 59.8276 31.096 59.7529 31.096C59.3156 31.096 58.9263 30.9573 58.5849 30.68C58.2543 30.392 58.0889 30.0293 58.0889 29.592L58.0729 29.336C58.0729 28.8347 58.1849 28.2533 58.4089 27.592C58.6329 26.9307 58.9103 26.392 59.2409 25.976C59.5076 25.6667 59.7369 25.416 59.9289 25.224C60.1209 25.032 60.2969 24.904 60.4569 24.84C60.5956 24.7867 60.7716 24.7387 60.9849 24.696C61.1983 24.6533 61.3583 24.632 61.4649 24.632C61.6783 24.6853 61.8756 24.76 62.0569 24.856C62.2489 24.952 62.3449 25.0587 62.3449 25.176L62.4249 25.256C62.4996 25.256 62.5849 25.3733 62.6809 25.608C62.7876 25.8427 62.8409 26.056 62.8409 26.248C62.8409 26.344 62.8249 26.424 62.7929 26.488C62.7503 26.6907 62.6649 26.888 62.5369 27.08C62.4196 27.272 62.3183 27.368 62.2329 27.368C62.1156 27.368 62.0569 27.4 62.0569 27.464C62.0569 27.5173 61.9929 27.544 61.8649 27.544C61.7583 27.544 61.6463 27.5227 61.5289 27.48C61.4116 27.4267 61.3423 27.3627 61.3209 27.288C61.3209 27.2347 61.3636 27.0213 61.4489 26.648C61.4809 26.488 61.4969 26.3547 61.4969 26.248C61.4969 26.056 61.4329 25.96 61.3049 25.96C61.2729 25.96 61.1929 25.9813 61.0649 26.024C60.7876 26.1733 60.5636 26.3493 60.3929 26.552C60.2329 26.744 60.0889 27.0107 59.9609 27.352C59.8329 27.6933 59.6836 28.1893 59.5129 28.84C59.4809 28.968 59.4649 29.0853 59.4649 29.192C59.4649 29.32 59.4809 29.4267 59.5129 29.512C59.5449 29.5867 59.5769 29.6293 59.6089 29.64C59.6623 29.6613 59.7583 29.672 59.8969 29.672C60.1636 29.672 60.3769 29.624 60.5369 29.528C60.7289 29.4213 60.9156 29.304 61.0969 29.176C61.2783 29.0373 61.3903 28.952 61.4329 28.92C61.4543 28.8987 61.4969 28.84 61.5609 28.744C61.6249 28.6373 61.6943 28.568 61.7689 28.536C61.8329 28.44 61.9129 28.3813 62.0089 28.36C62.1049 28.3387 62.2009 28.328 62.2969 28.328C62.3929 28.328 62.4569 28.328 62.4889 28.328C62.6276 28.3707 62.7609 28.4667 62.8889 28.616C63.0169 28.7653 63.0383 28.8613 62.9529 28.904C62.9209 28.904 62.8996 28.9147 62.8889 28.936C62.8783 28.9573 62.8729 28.9733 62.8729 28.984C62.8943 29.0373 62.8089 29.1813 62.6169 29.416C62.4249 29.64 62.2116 29.8587 61.9769 30.072C61.7423 30.2747 61.5823 30.376 61.4969 30.376C61.4543 30.376 61.4169 30.3813 61.3849 30.392C61.3529 30.4027 61.3369 30.4293 61.3369 30.472C61.3369 30.5147 61.1716 30.616 60.8409 30.776C60.5209 30.9253 60.2596 31.0213 60.0569 31.064ZM71.725 30.504C71.7037 30.5147 71.6504 30.52 71.565 30.52C71.405 30.52 71.2504 30.4773 71.101 30.392C70.9517 30.3067 70.8557 30.1787 70.813 30.008C70.8024 29.976 70.7544 29.8747 70.669 29.704C70.5944 29.5333 70.557 29.336 70.557 29.112C70.557 29.016 70.5624 28.9413 70.573 28.888L70.653 28.392C70.6744 28.1893 70.6957 28.0667 70.717 28.024V27.88C70.717 27.6987 70.701 27.608 70.669 27.608C70.5837 27.608 70.3597 27.8053 69.997 28.2C69.645 28.5947 69.341 28.984 69.085 29.368C69.0104 29.464 68.925 29.608 68.829 29.8C68.7437 29.9813 68.6904 30.0773 68.669 30.088C68.6264 30.1307 68.5624 30.152 68.477 30.152C68.381 30.152 68.2744 30.12 68.157 30.056C68.0397 29.992 67.9544 29.912 67.901 29.816C67.8797 29.7733 67.837 29.736 67.773 29.704C67.709 29.6613 67.677 29.5867 67.677 29.48C67.677 29.2987 67.7464 29 67.885 28.584C68.0024 28.232 68.0984 27.928 68.173 27.672C68.2584 27.416 68.3117 27.2453 68.333 27.16C68.333 27.0853 68.0664 27.2773 67.533 27.736C66.9464 28.4187 66.4237 29.0693 65.965 29.688C65.741 29.9973 65.565 30.2213 65.437 30.36C65.309 30.488 65.197 30.552 65.101 30.552C65.0264 30.552 64.9464 30.504 64.861 30.408C64.8184 30.3653 64.7437 30.312 64.637 30.248C64.541 30.184 64.493 30.1307 64.493 30.088C64.493 30.0027 64.4664 29.96 64.413 29.96C64.349 29.896 64.4557 29.5493 64.733 28.92C65.021 28.28 65.277 27.7893 65.501 27.448C65.5437 27.416 65.5757 27.3733 65.597 27.32C65.6184 27.256 65.6184 27.224 65.597 27.224C65.6184 27.192 65.6504 27.1387 65.693 27.064C65.7357 26.9893 65.7784 26.9253 65.821 26.872C66.0024 26.52 66.077 26.2373 66.045 26.024C66.0024 25.9813 65.9544 25.9653 65.901 25.976C65.8584 25.9867 65.8317 25.9973 65.821 26.008C65.7997 26.0187 65.741 26.04 65.645 26.072C65.5597 26.0933 65.485 26.1253 65.421 26.168C65.165 26.3387 64.989 26.424 64.893 26.424C64.7757 26.424 64.6637 26.296 64.557 26.04C64.525 25.944 64.509 25.8533 64.509 25.768C64.509 25.6293 64.5517 25.5227 64.637 25.448C64.7224 25.3733 64.8344 25.2933 64.973 25.208C65.1117 25.1227 65.1917 25.0693 65.213 25.048C65.3304 24.984 65.4797 24.9147 65.661 24.84C65.853 24.7547 65.997 24.696 66.093 24.664C66.221 24.6213 66.349 24.6 66.477 24.6C66.829 24.6 67.0797 24.7707 67.229 25.112C67.3784 25.2933 67.453 25.4853 67.453 25.688C67.453 25.8693 67.3784 26.12 67.229 26.44L67.069 26.68C67.037 26.744 67.021 26.7867 67.021 26.808C67.021 26.8293 67.0264 26.84 67.037 26.84C67.0797 26.84 67.1277 26.8027 67.181 26.728C67.2344 26.6747 67.3037 26.6107 67.389 26.536C67.4744 26.4507 67.533 26.408 67.565 26.408C67.5757 26.408 67.5917 26.4027 67.613 26.392C67.6344 26.3707 67.645 26.328 67.645 26.264L67.805 26.12C67.837 26.12 67.8957 26.0933 67.981 26.04C68.0664 25.976 68.1837 25.8853 68.333 25.768C68.4504 25.6827 68.557 25.64 68.653 25.64C68.685 25.6293 68.733 25.624 68.797 25.624C68.9997 25.624 69.165 25.736 69.293 25.96C69.421 26.1733 69.485 26.4507 69.485 26.792L69.149 27.656L69.725 26.952C69.821 26.8347 69.949 26.7067 70.109 26.568C70.1304 26.504 70.157 26.4667 70.189 26.456C70.2317 26.4347 70.2584 26.424 70.269 26.424C70.2797 26.424 70.2904 26.4187 70.301 26.408C70.3224 26.3973 70.333 26.3813 70.333 26.36C70.3757 26.328 70.429 26.2907 70.493 26.248C70.5677 26.1947 70.6157 26.152 70.637 26.12C70.733 26.0773 70.861 26.056 71.021 26.056C71.1917 26.056 71.3517 26.0933 71.501 26.168C71.6504 26.232 71.7624 26.3387 71.837 26.488C71.869 26.5413 71.9117 26.616 71.965 26.712C72.029 26.7973 72.0717 26.8827 72.093 26.968C72.125 27.0427 72.141 27.1387 72.141 27.256L72.077 27.608C72.077 27.5973 72.0504 27.7787 71.997 28.152C71.9437 28.2693 71.917 28.4507 71.917 28.696C71.917 28.8453 71.9224 28.9413 71.933 28.984C71.9544 29.0267 71.997 29.048 72.061 29.048C72.1997 29.016 72.317 28.968 72.413 28.904C72.5197 28.84 72.6424 28.744 72.781 28.616C72.8664 28.5307 72.9517 28.488 73.037 28.488C73.133 28.488 73.213 28.5307 73.277 28.616C73.3517 28.6907 73.405 28.7813 73.437 28.888C73.469 28.952 73.4104 29.1227 73.261 29.4C73.1224 29.6773 73.0157 29.816 72.941 29.816C72.9197 29.816 72.861 29.8587 72.765 29.944C72.669 30.0187 72.589 30.0773 72.525 30.12C72.3437 30.3227 72.1944 30.424 72.077 30.424C72.0344 30.424 71.9757 30.44 71.901 30.472C71.837 30.4933 71.7784 30.504 71.725 30.504ZM75.5237 30.952C75.3317 30.9413 75.1663 30.9147 75.0277 30.872C74.8997 30.8187 74.777 30.728 74.6597 30.6C74.393 30.3653 74.2597 29.9973 74.2597 29.496C74.2597 29.0053 74.361 28.4613 74.5637 27.864C74.7663 27.256 75.049 26.5253 75.4117 25.672C75.5823 25.2453 75.6837 25 75.7157 24.936C75.7157 24.8187 75.7637 24.7333 75.8597 24.68C75.9557 24.616 76.0783 24.584 76.2277 24.584C76.3557 24.584 76.4783 24.6053 76.5957 24.648C76.713 24.68 76.793 24.7227 76.8357 24.776C77.0277 24.9893 77.1237 25.2027 77.1237 25.416C77.1237 25.64 77.017 25.8693 76.8037 26.104C76.6223 26.296 76.4197 26.6213 76.1957 27.08C76.313 26.9947 76.4677 26.9307 76.6597 26.888C76.8517 26.8347 77.0277 26.808 77.1877 26.808C77.4117 26.808 77.657 26.872 77.9237 27C78.1903 27.128 78.4143 27.288 78.5957 27.48C78.809 27.704 78.937 27.96 78.9797 28.248C78.9903 28.3227 78.9957 28.424 78.9957 28.552C78.9957 29 78.8783 29.384 78.6437 29.704C78.4623 29.9493 78.2063 30.1627 77.8757 30.344C77.5557 30.5147 77.177 30.6853 76.7397 30.856L76.4517 30.984L76.2117 30.968C76.1903 30.9573 76.153 30.952 76.0997 30.952C76.0357 30.952 75.977 30.9627 75.9237 30.984L75.5237 30.952ZM76.0357 29.72C76.377 29.72 76.7023 29.6347 77.0117 29.464C77.321 29.2827 77.5503 29.064 77.6997 28.808C77.785 28.68 77.8277 28.5573 77.8277 28.44C77.8277 28.3547 77.7903 28.296 77.7157 28.264C77.641 28.2213 77.5077 28.2 77.3157 28.2C77.1557 28.2 76.905 28.2213 76.5637 28.264L76.3717 28.28C76.3077 28.2053 76.2437 28.1253 76.1797 28.04C76.1157 27.9547 76.0517 27.8853 75.9877 27.832C75.9343 27.768 75.9023 27.7573 75.8917 27.8L75.7637 28.168C75.561 28.7547 75.4597 29.1493 75.4597 29.352C75.4597 29.5333 75.5183 29.64 75.6357 29.672C75.7637 29.704 75.897 29.72 76.0357 29.72ZM88.3547 24.792C88.7813 24.952 89.112 25.1333 89.3467 25.336C89.5813 25.528 89.6827 25.8053 89.6507 26.168C89.6293 26.264 89.6133 26.3867 89.6027 26.536C89.592 26.6747 89.5707 26.808 89.5387 26.936C89.5173 27.0533 89.4747 27.1653 89.4107 27.272C89.4107 27.2933 89.3307 27.5173 89.1707 27.944C88.9253 28.52 88.792 28.904 88.7707 29.096C88.7173 29.288 88.6747 29.4533 88.6427 29.592C88.6 29.7947 88.5573 29.96 88.5147 30.088C88.472 30.216 88.408 30.328 88.3227 30.424C88.1947 30.552 88.04 30.616 87.8587 30.616C87.6453 30.616 87.4587 30.536 87.2987 30.376C87.1387 30.216 87.0747 30.024 87.1067 29.8C87.1067 29.5973 87.1387 29.272 87.2027 28.824C87.2133 28.7387 87.24 28.6533 87.2827 28.568C87.3253 28.4827 87.352 28.424 87.3627 28.392C87.5333 27.9867 87.6827 27.528 87.8107 27.016C87.9493 26.504 88.0293 26.1147 88.0507 25.848C87.72 25.8587 87.2027 25.8907 86.4987 25.944C86.4133 26.296 86.3173 26.6267 86.2107 26.936C86.072 27.3627 85.992 27.64 85.9707 27.768C85.9387 27.928 85.8427 28.1893 85.6827 28.552C85.416 29.1707 85.2773 29.576 85.2667 29.768C85.2133 29.8427 85.176 29.9387 85.1547 30.056C85.1333 30.1733 85.1173 30.2853 85.1067 30.392C85.0747 30.5627 85.0053 30.68 84.8987 30.744C84.8027 30.808 84.6587 30.8613 84.4667 30.904C84.296 30.904 84.1573 30.872 84.0507 30.808C83.9547 30.744 83.8747 30.6587 83.8107 30.552C83.7467 30.4347 83.688 30.312 83.6347 30.184C83.6347 29.8853 83.6933 29.592 83.8107 29.304C83.8427 29.2293 83.8747 29.1387 83.9067 29.032C83.9493 28.9253 83.9813 28.84 84.0027 28.776C84.0987 28.4773 84.1787 28.264 84.2427 28.136C84.2747 27.9227 84.3653 27.624 84.5147 27.24C84.632 26.9413 84.7013 26.744 84.7227 26.648C84.8933 26.0827 85.016 25.688 85.0907 25.464C85.0907 25.24 85.1493 25.0587 85.2667 24.92C85.3947 24.7813 85.5493 24.712 85.7307 24.712C85.848 24.7547 85.944 24.776 86.0187 24.776C86.0613 24.776 86.104 24.7653 86.1467 24.744C86.2107 24.712 86.472 24.696 86.9307 24.696C87.208 24.696 87.384 24.6907 87.4587 24.68C87.5653 24.6693 87.6667 24.6747 87.7627 24.696C87.8693 24.7173 87.9387 24.7333 87.9707 24.744C88.0133 24.7547 88.0667 24.7653 88.1307 24.776C88.1947 24.7867 88.2693 24.792 88.3547 24.792ZM90.622 33.976C90.4407 33.976 90.27 33.88 90.11 33.688C89.9607 33.496 89.886 33.2773 89.886 33.032C89.886 32.936 89.902 32.84 89.934 32.744C89.9447 32.7013 89.9714 32.6 90.014 32.44C90.0674 32.2907 90.0994 32.1627 90.11 32.056C90.1314 31.9387 90.1954 31.7253 90.302 31.416C90.4087 31.1067 90.494 30.8987 90.558 30.792C90.6114 30.696 90.654 30.584 90.686 30.456C90.718 30.3173 90.734 30.2 90.734 30.104C90.8087 29.8693 90.878 29.7093 90.942 29.624C91.0167 29.3893 91.0967 29.208 91.182 29.08C91.1927 29.048 91.2034 28.9733 91.214 28.856C91.2354 28.728 91.2727 28.6533 91.326 28.632C91.358 28.4827 91.3847 28.3813 91.406 28.328C91.4807 27.9973 91.6194 27.5813 91.822 27.08C91.982 26.6213 92.062 26.312 92.062 26.152C92.062 25.9813 92.0034 25.8747 91.886 25.832C91.7687 25.7893 91.71 25.64 91.71 25.384C91.71 25.2453 91.7314 25.1173 91.774 25C91.8167 24.8827 91.8754 24.808 91.95 24.776C92.11 24.712 92.318 24.68 92.574 24.68C92.7447 24.68 92.83 24.696 92.83 24.728C92.83 24.76 92.8354 24.7867 92.846 24.808C92.8567 24.8187 92.878 24.824 92.91 24.824C92.942 24.7813 93.022 24.8933 93.15 25.16C93.278 25.416 93.342 25.5867 93.342 25.672C93.3207 25.704 93.31 25.7253 93.31 25.736C93.3207 25.7467 93.342 25.752 93.374 25.752C93.4487 25.72 93.5874 25.6507 93.79 25.544C94.0034 25.4267 94.1367 25.336 94.19 25.272C94.2114 25.2613 94.2487 25.2453 94.302 25.224C94.3554 25.192 94.398 25.16 94.43 25.128C94.5474 25.0853 94.6807 25.064 94.83 25.064C95.0007 25.064 95.166 25.0907 95.326 25.144C95.486 25.1973 95.6194 25.272 95.726 25.368C95.886 25.5707 96.0194 25.8053 96.126 26.072C96.2327 26.3387 96.286 26.6 96.286 26.856C96.286 27.0693 96.2434 27.288 96.158 27.512C96.1367 27.576 96.0674 27.704 95.95 27.896C95.8434 28.0773 95.7687 28.2 95.726 28.264C95.2994 28.9253 94.7127 29.4693 93.966 29.896C93.8274 29.992 93.6247 30.0827 93.358 30.168C93.102 30.2427 92.9154 30.28 92.798 30.28C92.734 30.28 92.6647 30.2267 92.59 30.12C92.526 30.0027 92.4674 29.8693 92.414 29.72C92.2754 30.0507 92.1954 30.2747 92.174 30.392C92.174 30.424 92.1634 30.4773 92.142 30.552C92.1314 30.616 92.1047 30.664 92.062 30.696C92.062 30.7067 92.0514 30.7333 92.03 30.776C92.0194 30.8187 91.9874 30.8773 91.934 30.952L91.662 31.736C91.534 32.0453 91.454 32.2907 91.422 32.472C91.39 32.8453 91.3047 33.1867 91.166 33.496C91.0274 33.816 90.846 33.976 90.622 33.976ZM93.134 28.76C93.294 28.6853 93.518 28.568 93.806 28.408C94.1047 28.248 94.302 28.1093 94.398 27.992C94.4727 27.9067 94.5207 27.816 94.542 27.72C94.574 27.624 94.6007 27.5387 94.622 27.464C94.7287 27.1973 94.8034 27 94.846 26.872C94.878 26.808 94.894 26.7333 94.894 26.648C94.894 26.5307 94.862 26.44 94.798 26.376C94.67 26.3653 94.462 26.4293 94.174 26.568C93.8967 26.696 93.6354 26.92 93.39 27.24C93.038 27.6987 92.862 28.088 92.862 28.408C92.862 28.5147 92.8834 28.6 92.926 28.664C92.9794 28.728 93.0487 28.76 93.134 28.76ZM98.3964 30.888C98.2684 30.888 98.1671 30.8667 98.0924 30.824C98.0178 30.7813 97.9111 30.7013 97.7724 30.584C97.5591 30.36 97.3938 30.1307 97.2764 29.896C97.1591 29.6507 97.1164 29.4373 97.1484 29.256C97.1804 29.1813 97.1911 29.1067 97.1804 29.032C97.1804 28.9573 97.1804 28.9093 97.1804 28.888C97.1378 28.8453 97.1164 28.8187 97.1164 28.808C97.1164 28.7867 97.1271 28.7707 97.1484 28.76C97.1698 28.7387 97.1858 28.7173 97.1964 28.696C97.2604 28.696 97.2818 28.6373 97.2604 28.52C97.2391 28.4347 97.2764 28.248 97.3724 27.96C97.4684 27.672 97.5911 27.4053 97.7404 27.16C97.8578 26.968 98.0284 26.728 98.2524 26.44C98.4871 26.152 98.6951 25.9333 98.8764 25.784C99.4098 25.3253 99.8898 25.048 100.316 24.952C100.53 24.8987 100.738 24.872 100.94 24.872C101.25 24.872 101.49 24.9573 101.66 25.128C101.895 25.224 102.066 25.3627 102.172 25.544C102.279 25.7253 102.348 25.9653 102.38 26.264C102.391 26.328 102.396 26.4347 102.396 26.584C102.396 27.3733 102.098 28.1947 101.5 29.048C101.255 29.4 101.01 29.6827 100.764 29.896C100.519 30.1093 100.22 30.3227 99.8684 30.536C99.6764 30.664 99.4738 30.7493 99.2604 30.792C99.0471 30.8347 98.7591 30.8667 98.3964 30.888ZM100.028 28.936C100.231 28.7547 100.375 28.5733 100.46 28.392C100.556 28.2 100.69 27.8693 100.86 27.4C100.924 27.304 100.956 27.112 100.956 26.824C100.956 26.568 100.919 26.424 100.844 26.392C100.791 26.3493 100.727 26.328 100.652 26.328C100.556 26.328 100.402 26.4027 100.188 26.552C99.8151 26.872 99.5004 27.208 99.2444 27.56C98.9991 27.9013 98.8284 28.296 98.7324 28.744C98.7218 28.7867 98.7164 28.8507 98.7164 28.936C98.7164 29.2987 98.8444 29.48 99.1004 29.48C99.3458 29.48 99.6551 29.2987 100.028 28.936ZM104.961 31.288C103.745 31.288 103.137 30.5947 103.137 29.208C103.137 28.7067 103.26 28.1413 103.505 27.512C103.761 26.872 104.076 26.3013 104.449 25.8C104.833 25.288 105.212 24.9467 105.585 24.776C105.788 24.6693 106.023 24.616 106.289 24.616C106.769 24.616 107.185 24.7227 107.537 24.936C107.9 25.1387 108.081 25.528 108.081 26.104C108.081 26.4347 107.969 26.7973 107.745 27.192C107.521 27.5867 107.239 27.9227 106.897 28.2C106.567 28.4667 106.241 28.6 105.921 28.6C105.441 28.6 105.036 28.4453 104.705 28.136C104.524 28.4987 104.433 28.8453 104.433 29.176C104.433 29.4427 104.465 29.6507 104.529 29.8C104.593 29.9387 104.743 30.008 104.977 30.008C105.201 30.008 105.383 29.976 105.521 29.912C105.66 29.848 105.788 29.7733 105.905 29.688C106.023 29.6027 106.113 29.5387 106.177 29.496L106.241 29.464H106.225C106.417 29.3573 106.556 29.2773 106.641 29.224C106.737 29.16 106.817 29.1173 106.881 29.096C107.041 29.096 107.191 29.144 107.329 29.24C107.468 29.336 107.537 29.4533 107.537 29.592C107.537 29.6987 107.441 29.8747 107.249 30.12C107.057 30.3547 106.86 30.52 106.657 30.616L106.465 30.712H106.481C106.385 30.84 106.289 30.904 106.193 30.904H106.065C106.023 30.9893 105.879 31.0747 105.633 31.16C105.399 31.2453 105.175 31.288 104.961 31.288ZM105.793 27.432C106.092 27.432 106.337 27.304 106.529 27.048C106.732 26.792 106.833 26.536 106.833 26.28C106.833 26.1627 106.801 26.056 106.737 25.96C106.684 25.864 106.609 25.816 106.513 25.816C106.332 25.816 106.129 25.9013 105.905 26.072C105.681 26.2427 105.484 26.4667 105.313 26.744L105.105 27.08C105.148 27.0587 105.18 27.048 105.201 27.048C105.287 27.048 105.351 27.0853 105.393 27.16C105.436 27.2347 105.484 27.2987 105.537 27.352C105.591 27.4053 105.676 27.432 105.793 27.432ZM112.407 27.464L111.943 27.848C112.306 28.3173 112.599 28.7227 112.823 29.064C113.037 29.3733 113.207 29.5973 113.335 29.736C113.463 29.864 113.677 30.008 113.975 30.168C114.007 30.2 114.039 30.2533 114.071 30.328C114.114 30.4027 114.135 30.4827 114.135 30.568C114.071 30.8667 113.783 31.016 113.271 31.016C112.973 31.016 112.642 30.8187 112.279 30.424C111.917 30.0187 111.389 29.3573 110.695 28.44C110.599 28.6213 110.482 28.9893 110.343 29.544C110.226 29.9813 110.125 30.3067 110.039 30.52C109.965 30.7227 109.874 30.8293 109.767 30.84C109.714 30.84 109.602 30.824 109.431 30.792C109.271 30.76 109.111 30.7013 108.951 30.616C108.802 30.52 108.727 30.392 108.727 30.232C108.727 30.0613 108.759 29.864 108.823 29.64C108.898 29.4053 108.946 29.2613 108.967 29.208C109.031 29.0373 109.074 28.9093 109.095 28.824C109.49 27.7147 109.869 26.728 110.231 25.864C110.274 25.768 110.327 25.624 110.391 25.432C110.477 25.1867 110.557 24.9893 110.631 24.84C110.706 24.68 110.802 24.5307 110.919 24.392C110.962 24.296 111.095 24.248 111.319 24.248C111.586 24.248 111.783 24.312 111.911 24.44C112.039 24.568 112.103 24.712 112.103 24.872C112.103 24.9573 112.087 25.0373 112.055 25.112C112.023 25.1867 111.981 25.2613 111.927 25.336C111.885 25.4 111.847 25.464 111.815 25.528L111.767 25.656C111.671 25.9333 111.559 26.2053 111.431 26.472C111.314 26.7387 111.234 26.9147 111.191 27C111.33 26.8613 111.405 26.776 111.415 26.744C111.426 26.712 111.821 26.392 112.599 25.784C113.239 25.2933 113.623 24.984 113.751 24.856C113.783 24.8133 113.858 24.792 113.975 24.792C114.114 24.792 114.205 24.8027 114.247 24.824C114.375 24.856 114.477 24.936 114.551 25.064C114.637 25.1813 114.679 25.3413 114.679 25.544C114.679 25.6613 114.621 25.7733 114.503 25.88C114.386 25.9867 114.183 26.1467 113.895 26.36L113.319 26.776L113.095 26.968C113.053 26.9893 112.893 27.1013 112.615 27.304L112.407 27.464ZM123.43 29.704C123.505 29.8107 123.542 29.912 123.542 30.008C123.542 30.1147 123.505 30.2107 123.43 30.296C123.356 30.3813 123.292 30.424 123.238 30.424C122.982 30.424 122.694 30.3653 122.374 30.248C122.065 30.12 121.91 29.9387 121.91 29.704V28.712C121.91 28.2853 121.873 28.04 121.798 27.976C121.638 27.8907 121.425 28.0133 121.158 28.344C120.892 28.664 120.566 29.144 120.182 29.784C120.033 30.0187 119.905 30.1893 119.798 30.296C119.692 30.392 119.596 30.44 119.51 30.44C119.436 30.44 119.372 30.4187 119.318 30.376C118.988 30.28 118.822 30.0933 118.822 29.816C118.822 29.784 118.833 29.7147 118.854 29.608C118.95 29.2773 119.052 28.9093 119.158 28.504C119.276 28.0987 119.366 27.752 119.43 27.464C119.398 27.4 119.345 27.368 119.27 27.368C119.164 27.368 119.041 27.4213 118.902 27.528C118.86 27.56 118.78 27.6133 118.662 27.688C118.556 27.752 118.444 27.8427 118.326 27.96C118.22 28.0667 118.108 28.216 117.99 28.408C117.948 28.4827 117.873 28.5947 117.766 28.744C117.233 29.5547 116.908 30.0133 116.79 30.12C116.737 30.2693 116.684 30.376 116.63 30.44C116.588 30.4933 116.534 30.52 116.47 30.52C116.428 30.52 116.374 30.504 116.31 30.472C116.108 30.376 115.942 30.2427 115.814 30.072C115.697 29.8907 115.638 29.6773 115.638 29.432C115.638 29.272 115.686 28.952 115.782 28.472C115.878 27.992 115.985 27.544 116.102 27.128C116.188 26.9573 116.252 26.7813 116.294 26.6C116.348 26.408 116.374 26.2747 116.374 26.2C116.406 25.9973 116.47 25.7253 116.566 25.384C116.662 25.032 116.732 24.84 116.774 24.808C116.838 24.744 116.956 24.712 117.126 24.712C117.244 24.712 117.356 24.7333 117.462 24.776C117.569 24.8187 117.644 24.8827 117.686 24.968C117.825 25.128 117.894 25.3467 117.894 25.624C117.894 25.88 117.841 26.152 117.734 26.44C117.628 26.6853 117.494 27.0427 117.334 27.512C117.334 27.512 117.345 27.5013 117.366 27.48C117.622 27.1173 117.953 26.712 118.358 26.264C118.55 26.0507 118.764 25.8853 118.998 25.768C119.244 25.6507 119.441 25.592 119.59 25.592C119.846 25.6347 120.06 25.7627 120.23 25.976C120.412 26.1787 120.524 26.4613 120.566 26.824C120.566 26.952 120.556 27.112 120.534 27.304C120.513 27.4853 120.497 27.6027 120.486 27.656C120.529 27.6027 120.636 27.4747 120.806 27.272C120.988 27.0587 121.206 26.84 121.462 26.616C121.697 26.4347 121.916 26.344 122.118 26.344C122.289 26.344 122.438 26.4133 122.566 26.552C122.801 26.6907 122.982 26.9147 123.11 27.224C123.249 27.5333 123.318 27.8853 123.318 28.28C123.318 28.4187 123.313 28.5253 123.302 28.6C123.292 28.6747 123.286 28.7813 123.286 28.92C123.286 29.0693 123.302 29.2133 123.334 29.352C123.366 29.48 123.398 29.5973 123.43 29.704ZM126.007 31.144C125.879 31.1547 125.773 31.144 125.687 31.112C125.613 31.0907 125.501 31.032 125.351 30.936C125.117 30.7547 124.919 30.5307 124.759 30.264C124.61 29.9973 124.541 29.7733 124.551 29.592C124.562 29.56 124.567 29.512 124.567 29.448C124.567 29.384 124.562 29.336 124.551 29.304C124.541 29.2613 124.535 29.2347 124.535 29.224C124.493 29.192 124.466 29.1707 124.455 29.16C124.455 29.1387 124.461 29.1173 124.471 29.096C124.493 29.0747 124.509 29.0533 124.519 29.032C124.562 29.0213 124.583 29 124.583 28.968C124.583 28.936 124.573 28.8987 124.551 28.856C124.519 28.7707 124.535 28.5787 124.599 28.28C124.674 27.9707 124.77 27.6827 124.887 27.416C124.973 27.2133 125.106 26.952 125.287 26.632C125.479 26.312 125.655 26.0667 125.815 25.896C126.082 25.5867 126.301 25.3573 126.471 25.208C126.653 25.0587 126.855 24.9413 127.079 24.856C127.261 24.7813 127.447 24.744 127.639 24.744C127.895 24.744 128.119 24.8187 128.311 24.968C128.919 25.1387 129.287 25.4693 129.415 25.96C129.479 26.184 129.511 26.4347 129.511 26.712C129.511 27.3093 129.325 27.9653 128.951 28.68C128.749 29.0853 128.546 29.4213 128.343 29.688C128.151 29.944 127.917 30.1893 127.639 30.424C127.447 30.584 127.191 30.7333 126.871 30.872C126.562 31 126.274 31.0907 126.007 31.144ZM127.399 28.728C127.538 28.5253 127.65 28.3333 127.735 28.152C127.821 27.9707 127.895 27.7253 127.959 27.416C128.002 27.224 128.023 27.032 128.023 26.84C128.023 26.4987 127.975 26.312 127.879 26.28C127.805 26.248 127.73 26.232 127.655 26.232C127.431 26.232 127.197 26.376 126.951 26.664C126.706 26.9307 126.525 27.192 126.407 27.448C126.29 27.704 126.157 28.1147 126.007 28.68C125.965 28.8507 125.943 29.0213 125.943 29.192C125.943 29.3627 125.97 29.5013 126.023 29.608C126.077 29.704 126.157 29.752 126.263 29.752C126.562 29.752 126.941 29.4107 127.399 28.728ZM132.11 31.032C132.035 30.968 131.977 30.9307 131.934 30.92C131.902 30.8987 131.854 30.888 131.79 30.888C131.726 30.8773 131.662 30.8667 131.598 30.856C131.566 30.728 131.491 30.5413 131.374 30.296C131.289 30.1573 131.225 30.0347 131.182 29.928C131.15 29.8213 131.134 29.6987 131.134 29.56C131.134 29.496 131.102 29.432 131.038 29.368C130.985 29.2933 130.953 29.2507 130.942 29.24L131.086 29.144C131.054 29.08 131.038 29.016 131.038 28.952C131.038 28.9093 131.054 28.856 131.086 28.792C131.065 28.6853 131.054 28.5947 131.054 28.52C131.054 28.3387 131.081 28.1307 131.134 27.896C131.187 27.6507 131.219 27.5013 131.23 27.448C131.251 27.3627 131.273 27.2507 131.294 27.112C131.326 26.9627 131.347 26.8453 131.358 26.76C131.305 26.728 131.246 26.68 131.182 26.616C131.118 26.5413 131.07 26.488 131.038 26.456C131.07 26.2 131.118 26.0187 131.182 25.912C131.246 25.7947 131.379 25.6827 131.582 25.576H131.726C131.865 25.3627 132.019 24.9733 132.19 24.408C132.297 24.0773 132.435 23.7573 132.606 23.448C132.787 23.1387 132.905 22.9413 132.958 22.856C133.107 22.504 133.353 22.1307 133.694 21.736C134.035 21.3307 134.366 21.0267 134.686 20.824C134.889 20.7067 135.059 20.632 135.198 20.6C135.347 20.568 135.561 20.5467 135.838 20.536C136.062 20.664 136.254 20.824 136.414 21.016C136.574 21.208 136.654 21.416 136.654 21.64V21.88C136.654 22.0293 136.627 22.1573 136.574 22.264C136.574 22.36 136.558 22.456 136.526 22.552C136.494 22.648 136.473 22.7067 136.462 22.728C136.451 22.76 136.43 22.8133 136.398 22.888C136.377 22.9627 136.366 23.0267 136.366 23.08C136.014 23.8267 135.689 24.3813 135.39 24.744C135.102 25.1067 134.622 25.56 133.95 26.104C134.163 26.264 134.297 26.4293 134.35 26.6C134.403 26.7707 134.435 27.016 134.446 27.336C134.446 27.4853 134.451 27.6027 134.462 27.688C134.483 27.9653 134.494 28.168 134.494 28.296C134.494 28.8933 134.371 29.4373 134.126 29.928C133.923 30.28 133.689 30.536 133.422 30.696C133.155 30.856 132.803 30.9787 132.366 31.064L132.11 31.032ZM135.182 21.736C134.371 22.632 133.705 23.7947 133.182 25.224C133.609 25.0213 133.993 24.7707 134.334 24.472C134.686 24.1733 134.953 23.8533 135.134 23.512C135.283 23.2453 135.358 22.92 135.358 22.536C135.358 22.2053 135.299 21.9387 135.182 21.736ZM132.59 29.784C132.867 29.6453 133.059 29.4587 133.166 29.224C133.283 28.9787 133.342 28.696 133.342 28.376C133.342 28.0987 133.305 27.7573 133.23 27.352C133.198 27.224 133.182 27.0907 133.182 26.952C133.171 26.9093 133.123 26.8507 133.038 26.776C132.953 26.7013 132.899 26.6533 132.878 26.632C132.75 26.728 132.643 26.9947 132.558 27.432C132.483 27.8587 132.446 28.2907 132.446 28.728C132.446 29.1653 132.483 29.4533 132.558 29.592L132.59 29.784Z" fill="#3D3D3D"></path> </svg> 