<?xml version="1.0" encoding="UTF-8"?> <svg xmlns="http://www.w3.org/2000/svg" width="100" height="31" viewBox="0 0 100 31" fill="none"> <path d="M18.6051 0.258924C18.8078 0.290923 18.9838 0.392256 19.1331 0.562923C19.2825 0.73359 19.3571 0.920256 19.3571 1.12292C19.3571 1.18692 19.3518 1.23492 19.3411 1.26692C19.2985 1.38426 19.2558 1.46959 19.2131 1.52292C19.1705 1.56559 19.1118 1.58692 19.0371 1.58692C18.9305 1.58692 18.7705 1.53359 18.5571 1.42692C18.4505 1.60826 18.3918 1.72559 18.3811 1.77892C18.3385 1.93892 18.2798 2.10959 18.2051 2.29092C18.1091 2.40826 17.9651 2.74959 17.7731 3.31492C17.5918 3.88026 17.5011 4.24826 17.5011 4.41892C17.4478 4.56826 17.3678 4.84026 17.2611 5.23492C17.1545 5.62959 17.0318 6.06159 16.8931 6.53092C16.2745 8.66426 15.9705 9.71492 15.9811 9.68292C15.9705 9.85359 15.9438 10.0616 15.9011 10.3069C15.8798 10.4669 15.8585 10.6963 15.8371 10.9949C15.8478 11.0163 15.8531 11.0536 15.8531 11.1069C15.8531 11.1709 15.8371 11.2243 15.8051 11.2669C15.7731 11.3096 15.7411 11.3363 15.7091 11.3469C15.5705 11.4643 15.3785 11.5229 15.1331 11.5229C14.8665 11.5229 14.6798 11.4536 14.5731 11.3149C14.4131 11.0376 14.3491 10.8243 14.3811 10.6749C14.4131 10.3016 14.4985 9.70426 14.6371 8.88292C14.7011 8.57359 14.7705 8.30159 14.8451 8.06692C14.9198 7.82159 14.9678 7.71492 14.9891 7.74692L15.3091 6.59492C15.3731 6.41359 15.4211 6.23759 15.4531 6.06692C15.4958 5.88559 15.5278 5.76292 15.5491 5.69892C15.6345 5.29359 15.7358 4.91492 15.8531 4.56292C16.0025 4.21092 16.1571 3.68292 16.3171 2.97892C16.3811 2.74426 16.4665 2.47759 16.5731 2.17892C16.6905 1.88026 16.7651 1.72559 16.7971 1.71492C16.4238 1.75759 16.1411 1.80026 15.9491 1.84292C15.6398 1.90692 15.3305 1.95492 15.0211 1.98692L13.9331 2.14692C13.3358 2.23226 13.0158 2.27492 12.9731 2.27492L11.8211 4.94692L11.0051 7.07492C10.7811 7.83226 10.5411 8.57359 10.2851 9.29892C10.2531 9.40559 10.1838 9.61892 10.0771 9.93892C9.97046 10.2483 9.87979 10.5843 9.80513 10.9469L9.69313 11.5069C9.61846 11.6669 9.53313 11.7843 9.43713 11.8589C9.35179 11.9336 9.23446 11.9709 9.08513 11.9709C8.75446 11.9709 8.51446 11.9123 8.36513 11.7949C8.22646 11.6776 8.15713 11.4909 8.15713 11.2349C8.19979 11.0963 8.26379 10.9203 8.34913 10.7069C8.41313 10.5363 8.46113 10.3816 8.49313 10.2429C8.56779 9.94426 8.64246 9.67759 8.71713 9.44292L8.84513 9.05892C9.18646 7.88559 9.47446 7.01092 9.70913 6.43492L10.1411 5.21892C10.1731 5.15492 10.2318 5.00026 10.3171 4.75492L10.8771 3.09092C11.1331 2.57892 11.3145 2.11492 11.4211 1.69892C11.3465 1.58159 11.3091 1.44826 11.3091 1.29892C11.3091 1.12826 11.3571 0.984256 11.4531 0.866923C11.5598 0.74959 11.6985 0.690924 11.8691 0.690924C11.9438 0.690924 11.9971 0.696257 12.0291 0.706923C12.2105 0.760257 12.5198 0.79759 12.9571 0.818923C13.3945 0.82959 13.6185 0.82959 13.6291 0.818923C13.7358 0.76559 14.2425 0.674923 15.1491 0.546924C16.0665 0.418923 16.9678 0.30159 17.8531 0.194923L18.0291 0.178924C18.1251 0.178924 18.3171 0.20559 18.6051 0.258924ZM17.4134 15.0909C17.3067 15.0909 17.2267 15.0429 17.1734 14.9469C17.1627 14.9363 17.1147 14.8723 17.0294 14.7549C16.944 14.6376 16.9014 14.4669 16.9014 14.2429C16.9014 14.2003 16.912 14.1149 16.9334 13.9869C17.0507 13.5389 17.1094 13.2296 17.1094 13.0589C17.1094 13.0056 17.12 12.9256 17.1414 12.8189C17.1627 12.7229 17.1787 12.6323 17.1894 12.5469C17.232 12.4723 17.2694 12.3549 17.3014 12.1949C17.344 12.0456 17.3654 11.9123 17.3654 11.7949C17.3654 11.7416 17.3814 11.6776 17.4134 11.6029C17.456 11.5389 17.504 11.4856 17.5574 11.4429C17.5574 11.3789 17.5734 11.2829 17.6054 11.1549C17.6374 11.0163 17.6587 10.9203 17.6694 10.8669C17.7227 10.5789 17.9307 9.89626 18.2934 8.81892C18.656 7.74159 18.9654 6.87226 19.2214 6.21092C19.3494 5.91226 19.456 5.63492 19.5414 5.37892C19.6267 5.12292 19.6694 4.94159 19.6694 4.83492C19.6694 4.79226 19.68 4.75492 19.7014 4.72292C19.7334 4.68026 19.7814 4.62692 19.8454 4.56292C19.9307 4.47759 20.0427 4.43492 20.1814 4.43492C20.3627 4.43492 20.5387 4.49359 20.7094 4.61092C20.784 4.72826 20.8374 4.82959 20.8694 4.91492C20.9014 5.00026 20.9174 5.09626 20.9174 5.20292C20.9174 5.23492 20.9067 5.33626 20.8854 5.50692C20.8854 5.73092 20.8214 5.93359 20.6934 6.11492C20.5654 6.29626 20.5067 6.38159 20.5174 6.37092C21.04 6.05092 21.5254 5.89092 21.9734 5.89092C22.4534 5.89092 22.8374 6.06159 23.1254 6.40292C23.4134 6.73359 23.5574 7.12826 23.5574 7.58692C23.5574 7.76826 23.472 8.04026 23.3014 8.40292C23.1307 8.75492 22.992 8.97892 22.8854 9.07492C22.8214 9.07492 22.736 9.18692 22.6294 9.41092C22.5014 9.58159 22.256 9.76292 21.8934 9.95492C21.5414 10.1363 21.3014 10.2056 21.1734 10.1629C21.1627 10.1629 21.1467 10.1789 21.1254 10.2109C21.104 10.2323 21.0934 10.2643 21.0934 10.3069C21.0934 10.3496 20.9334 10.4243 20.6134 10.5309C20.2934 10.6376 20.016 10.6909 19.7814 10.6909C19.6534 10.6909 19.5574 10.6856 19.4934 10.6749C19.4294 10.6536 19.3654 10.6163 19.3014 10.5629C19.2267 10.6376 19.1894 10.7069 19.1894 10.7709C19.1894 10.8776 19.136 11.0483 19.0294 11.2829C18.9227 11.5069 18.8374 11.6189 18.7734 11.6189C18.7627 11.6296 18.7467 11.6509 18.7254 11.6829C18.7147 11.7149 18.7307 11.7523 18.7734 11.7949C18.7734 11.8269 18.768 11.9016 18.7574 12.0189C18.7467 12.1363 18.72 12.2269 18.6774 12.2909C18.6774 12.3869 18.6614 12.5149 18.6294 12.6749C18.5974 12.8456 18.56 12.9736 18.5174 13.0589C18.5174 13.1869 18.496 13.3096 18.4534 13.4269C18.4214 13.5549 18.384 13.6189 18.3414 13.6189C18.2774 13.6403 18.2454 13.7949 18.2454 14.0829C18.2347 14.3389 18.1494 14.5683 17.9894 14.7709C17.84 14.9736 17.696 15.0749 17.5574 15.0749L17.4134 15.0909ZM19.6054 9.47492C19.7547 9.47492 20.032 9.39492 20.4374 9.23492C20.8534 9.06426 21.1574 8.89892 21.3494 8.73892C21.5947 8.53626 21.7814 8.34959 21.9094 8.17892C22.0374 8.00826 22.1014 7.83759 22.1014 7.66692C22.1014 7.51759 22.0534 7.37359 21.9574 7.23492C21.8827 7.11759 21.7707 7.05892 21.6214 7.05892C21.2694 7.05892 20.8107 7.33092 20.2454 7.87492C20.0534 8.07759 19.8827 8.33359 19.7334 8.64292C19.584 8.94159 19.5094 9.17092 19.5094 9.33092C19.5094 9.42692 19.5414 9.47492 19.6054 9.47492ZM25.3163 11.2349C25.1883 11.2349 25.0869 11.2136 25.0123 11.1709C24.9376 11.1283 24.8309 11.0483 24.6923 10.9309C24.4789 10.7069 24.3136 10.4776 24.1963 10.2429C24.0789 9.99759 24.0363 9.78426 24.0683 9.60292C24.1003 9.52826 24.1109 9.45359 24.1003 9.37892C24.1003 9.30426 24.1003 9.25626 24.1003 9.23492C24.0576 9.19226 24.0363 9.16559 24.0363 9.15492C24.0363 9.13359 24.0469 9.11759 24.0683 9.10692C24.0896 9.08559 24.1056 9.06426 24.1163 9.04292C24.1803 9.04292 24.2016 8.98426 24.1803 8.86692C24.1589 8.78159 24.1963 8.59492 24.2923 8.30692C24.3883 8.01892 24.5109 7.75226 24.6603 7.50692C24.7776 7.31492 24.9483 7.07492 25.1723 6.78692C25.4069 6.49892 25.6149 6.28026 25.7963 6.13092C26.3296 5.67226 26.8096 5.39492 27.2363 5.29892C27.4496 5.24559 27.6576 5.21892 27.8603 5.21892C28.1696 5.21892 28.4096 5.30426 28.5803 5.47492C28.8149 5.57092 28.9856 5.70959 29.0923 5.89092C29.1989 6.07226 29.2683 6.31226 29.3003 6.61092C29.3109 6.67492 29.3163 6.78159 29.3163 6.93092C29.3163 7.72026 29.0176 8.54159 28.4203 9.39492C28.1749 9.74692 27.9296 10.0296 27.6843 10.2429C27.4389 10.4563 27.1403 10.6696 26.7883 10.8829C26.5963 11.0109 26.3936 11.0963 26.1803 11.1389C25.9669 11.1816 25.6789 11.2136 25.3163 11.2349ZM26.9483 9.28292C27.1509 9.10159 27.2949 8.92026 27.3803 8.73892C27.4763 8.54692 27.6096 8.21626 27.7803 7.74692C27.8443 7.65092 27.8763 7.45892 27.8763 7.17092C27.8763 6.91492 27.8389 6.77092 27.7643 6.73892C27.7109 6.69626 27.6469 6.67492 27.5723 6.67492C27.4763 6.67492 27.3216 6.74959 27.1083 6.89892C26.7349 7.21892 26.4203 7.55492 26.1643 7.90692C25.9189 8.24826 25.7483 8.64292 25.6523 9.09092C25.6416 9.13359 25.6363 9.19759 25.6363 9.28292C25.6363 9.64559 25.7643 9.82692 26.0203 9.82692C26.2656 9.82692 26.5749 9.64559 26.9483 9.28292ZM31.1771 11.4749C31.1131 11.4963 31.0118 11.5069 30.8731 11.5069C30.6491 11.5069 30.4411 11.4536 30.2491 11.3469C30.0571 11.2509 29.9291 11.1123 29.8651 10.9309C29.8545 10.9096 29.8811 10.7443 29.9451 10.4349C30.0091 10.1149 30.0518 9.93359 30.0731 9.89092C30.3611 9.18692 30.5798 8.43492 30.7291 7.63492C30.8891 6.69626 31.0118 6.10426 31.0971 5.85892C31.0865 5.80559 31.1078 5.72559 31.1611 5.61892C31.2145 5.50159 31.2678 5.40559 31.3211 5.33092C31.5238 5.18159 31.7531 5.05359 32.0091 4.94692C32.2651 4.84026 32.4945 4.79226 32.6971 4.80292C32.7291 4.79226 32.7825 4.78692 32.8571 4.78692L33.0971 4.80292C33.2145 4.80292 33.2945 4.77092 33.3371 4.70692C33.5185 4.74959 33.7211 4.77092 33.9451 4.77092H34.3771C34.5798 4.77092 34.7238 4.77626 34.8091 4.78692C34.9905 4.90426 35.1131 5.00026 35.1771 5.07492C35.2518 5.13892 35.3585 5.27226 35.4971 5.47492C35.4331 5.94426 35.2251 6.17892 34.8731 6.17892C33.9345 6.17892 33.1718 6.21626 32.5851 6.29092C32.5745 6.45092 32.5371 6.63226 32.4731 6.83492L32.3611 7.28292C32.2331 7.85892 32.1051 8.26959 31.9771 8.51492C31.9451 8.57892 31.9185 8.65892 31.8971 8.75492C31.8758 8.85092 31.8545 8.92559 31.8331 8.97892C31.7691 9.14959 31.6945 9.48026 31.6091 9.97092C31.5451 10.3443 31.4811 10.6536 31.4171 10.8989C31.3531 11.1443 31.2731 11.3363 31.1771 11.4749ZM36.4134 11.2349C36.1254 11.2243 35.864 11.1709 35.6294 11.0749C35.4054 10.9789 35.2934 10.8083 35.2934 10.5629C35.2934 10.3283 35.3467 10.1523 35.4534 10.0349C35.432 9.94959 35.4214 9.88026 35.4214 9.82692C35.4214 9.78426 35.432 9.73092 35.4534 9.66692L35.4374 9.71492C35.4694 9.64026 35.4907 9.56026 35.5014 9.47492C35.5227 9.37892 35.5387 9.30959 35.5494 9.26692C35.5707 9.11759 35.592 9.00559 35.6134 8.93092L35.7414 8.46692C35.848 7.99759 35.9547 7.66692 36.0614 7.47492C36.3174 6.96292 36.6587 6.18426 37.0854 5.13892C37.2027 4.85092 37.368 4.70692 37.5814 4.70692C37.7627 4.70692 37.9494 4.79226 38.1414 4.96292C38.3334 5.12292 38.488 5.30426 38.6054 5.50692L38.2534 6.11492C38.0827 6.39226 37.944 6.62692 37.8374 6.81892C37.7414 7.00026 37.6667 7.19226 37.6134 7.39492C37.784 7.39492 37.912 7.38959 37.9974 7.37892C38.0507 7.37892 38.1147 7.37892 38.1894 7.37892C38.2747 7.36826 38.3707 7.36826 38.4774 7.37892C38.5734 7.38959 38.6747 7.38959 38.7814 7.37892C38.8987 7.35759 38.984 7.34692 39.0374 7.34692C39.2294 7.31492 39.4 7.30426 39.5494 7.31492C39.656 6.86692 39.8054 6.41359 39.9974 5.95492C40.1894 5.49626 40.408 5.21892 40.6534 5.12292C40.7067 5.10159 40.7707 5.09092 40.8454 5.09092C40.92 5.09092 40.9894 5.11226 41.0534 5.15492C41.128 5.19759 41.192 5.24026 41.2454 5.28292C41.2987 5.31492 41.3414 5.34692 41.3734 5.37892C41.512 5.48559 41.608 5.57626 41.6614 5.65092C41.7254 5.71492 41.7574 5.77892 41.7574 5.84292C41.7574 5.91759 41.7147 6.01892 41.6294 6.14692C41.5547 6.27492 41.496 6.37092 41.4534 6.43492C41.3894 6.55226 41.3414 6.66959 41.3094 6.78692C41.224 7.01092 41.1547 7.16026 41.1014 7.23492C41.0587 7.30959 40.9094 7.71492 40.6534 8.45092C40.3974 9.18692 40.2587 9.61359 40.2374 9.73092C40.1734 10.1149 40.136 10.3976 40.1254 10.5789C40.1147 10.7389 40.0614 10.8563 39.9654 10.9309C39.88 11.0056 39.7627 11.0429 39.6134 11.0429C39.4854 11.0429 39.352 11.0216 39.2134 10.9789C39.0747 10.9256 38.9574 10.8616 38.8614 10.7869C38.7014 10.6589 38.6214 10.4829 38.6214 10.2589C38.6214 10.0776 38.664 9.87492 38.7494 9.65092C38.8347 9.42692 38.8934 9.27226 38.9254 9.18692L38.9094 9.20292C38.9307 9.11759 38.9574 9.03759 38.9894 8.96292C39.032 8.87759 39.064 8.79226 39.0854 8.70692C38.8507 8.68559 38.6747 8.67492 38.5574 8.67492C38.2694 8.67492 37.8374 8.70692 37.2614 8.77092C37.1867 8.93092 37.1174 9.12826 37.0534 9.36292C37 9.59759 36.968 9.74159 36.9574 9.79492C36.872 10.1896 36.792 10.4989 36.7174 10.7229C36.6427 10.9363 36.5414 11.1069 36.4134 11.2349ZM44.5575 11.2189C44.5042 11.2296 44.4348 11.2349 44.3495 11.2349C44.2108 11.2349 44.0988 11.2136 44.0135 11.1709C43.9282 11.1176 43.8268 11.0323 43.7095 10.9149C43.4642 10.7976 43.2508 10.6003 43.0695 10.3229C42.8882 10.0456 42.8082 9.82692 42.8295 9.66692C42.8828 9.15492 43.0268 8.60026 43.2615 8.00292C43.4962 7.39492 43.8002 6.85092 44.1735 6.37092C44.5575 5.88026 44.9628 5.53892 45.3895 5.34692C45.5815 5.27226 45.7575 5.23492 45.9175 5.23492C46.2482 5.23492 46.4668 5.34159 46.5735 5.55492C46.6482 5.70426 46.6855 5.81626 46.6855 5.89092C46.6855 6.01892 46.6108 6.10426 46.4615 6.14692C46.4295 6.14692 46.3922 6.16292 46.3495 6.19492C46.3068 6.22692 46.2855 6.25892 46.2855 6.29092C46.2962 6.30159 46.3442 6.30692 46.4295 6.30692C46.6108 6.30692 46.8348 6.28026 47.1015 6.22692C47.3682 6.17359 47.5388 6.11492 47.6135 6.05092C47.6775 6.01892 47.7308 6.00292 47.7735 6.00292L47.9975 6.03492C48.1788 6.08826 48.2695 6.15226 48.2695 6.22692C48.2695 6.28026 48.2855 6.34959 48.3175 6.43492C48.3602 6.52026 48.3975 6.56292 48.4295 6.56292C48.4828 6.56292 48.5095 6.60026 48.5095 6.67492C48.5095 6.73892 48.4722 6.82426 48.3975 6.93092C48.3335 7.02692 48.2375 7.12292 48.1095 7.21892C48.0562 7.25092 47.9762 7.29892 47.8695 7.36292C47.7735 7.42692 47.7148 7.48026 47.6935 7.52292C47.6828 7.56559 47.6882 7.62426 47.7095 7.69892C47.7522 7.78426 47.7735 7.89092 47.7735 8.01892C47.7735 8.38159 47.5975 8.80826 47.2455 9.29892C46.8935 9.77892 46.4615 10.2056 45.9495 10.5789C45.4482 10.9523 44.9842 11.1656 44.5575 11.2189ZM44.6055 9.87492C44.6695 9.87492 44.8295 9.81092 45.0855 9.68292C45.2242 9.54426 45.3362 9.45892 45.4215 9.42692C45.4535 9.42692 45.4802 9.40026 45.5015 9.34692C45.5335 9.28292 45.5815 9.19226 45.6455 9.07492C45.7202 8.94692 45.8375 8.78159 45.9975 8.57892C46.1682 8.38692 46.2855 8.23226 46.3495 8.11492C46.4242 7.99759 46.4615 7.88026 46.4615 7.76292C46.4615 7.72026 46.4508 7.64559 46.4295 7.53892C46.4188 7.50692 46.3815 7.48026 46.3175 7.45892C46.2642 7.42692 46.2108 7.40026 46.1575 7.37892C46.1042 7.37892 46.0508 7.39492 45.9975 7.42692C45.9442 7.44826 45.9068 7.45892 45.8855 7.45892C45.8322 7.45892 45.7735 7.43226 45.7095 7.37892L45.4535 7.05892L45.1815 7.33092C44.9362 7.57626 44.7282 7.90692 44.5575 8.32292C44.3975 8.73892 44.3015 9.11759 44.2695 9.45892C44.2588 9.60826 44.2802 9.71492 44.3335 9.77892C44.3975 9.83226 44.4882 9.86426 44.6055 9.87492ZM52.7584 8.49892C52.5984 8.75492 52.337 9.02159 51.9744 9.29892C51.6224 9.56559 51.2224 9.84826 50.7744 10.1469C50.9024 10.3923 51.0144 10.6856 51.1104 11.0269C51.217 11.3576 51.2757 11.6509 51.2864 11.9069C51.585 11.8536 51.7717 11.8269 51.8464 11.8269C51.889 11.8589 51.9744 11.9176 52.1024 12.0029C52.2304 12.0989 52.3264 12.1949 52.3904 12.2909C52.465 12.3976 52.5024 12.5096 52.5024 12.6269C52.5344 12.7123 52.5077 12.8189 52.4224 12.9469C52.3477 13.0749 52.2464 13.1443 52.1184 13.1549C52.0437 13.1656 51.921 13.1709 51.7504 13.1709C51.409 13.1709 51.169 13.2029 51.0304 13.2669C50.9557 13.3843 50.8757 13.5549 50.7904 13.7789C50.641 14.1629 50.4757 14.5043 50.2944 14.8029C50.113 15.1123 49.841 15.4163 49.4784 15.7149C49.3077 15.8643 49.1424 15.9816 48.9824 16.0669C48.8224 16.1629 48.6944 16.2109 48.5984 16.2109C48.1504 16.3283 47.793 16.3869 47.5264 16.3869C47.2917 16.3869 47.0784 16.3389 46.8864 16.2429C46.6837 16.1576 46.465 16.0083 46.2304 15.7949L45.7024 15.0109C45.681 14.8616 45.6704 14.7549 45.6704 14.6909C45.6704 14.4456 45.761 14.2163 45.9424 14.0029C46.433 13.4269 47.1104 12.9843 47.9744 12.6749C48.145 12.5896 48.2837 12.5469 48.3904 12.5469L48.5664 12.4509C48.5984 12.4189 48.6357 12.4029 48.6784 12.4029C48.7317 12.4136 48.7637 12.4136 48.7744 12.4029C48.817 12.3069 48.8917 12.2856 48.9984 12.3389L49.3664 12.2109C49.5264 12.1789 49.713 12.1256 49.9264 12.0509C49.937 11.9443 49.9424 11.8003 49.9424 11.6189C49.9424 11.2243 49.873 10.9629 49.7344 10.8349C49.6384 10.7389 49.5637 10.6269 49.5104 10.4989C49.4677 10.3603 49.441 10.2803 49.4304 10.2589C49.377 10.0883 49.3344 9.97092 49.3024 9.90692C49.3024 9.75759 49.329 9.65626 49.3824 9.60292C49.4464 9.53892 49.5264 9.49092 49.6224 9.45892C49.729 9.42692 49.809 9.40026 49.8624 9.37892C50.2464 9.19759 50.6677 8.90959 51.1264 8.51492C51.5957 8.10959 51.9637 7.72026 52.2304 7.34692C52.2944 7.25092 52.3264 7.15492 52.3264 7.05892C52.3264 6.93092 52.2784 6.81892 52.1824 6.72292C52.0864 6.61626 51.9584 6.55759 51.7984 6.54692C51.489 6.54692 51.0304 6.79226 50.4224 7.28292C50.2624 7.33626 50.1397 7.36292 50.0544 7.36292C49.937 7.36292 49.8357 7.31492 49.7504 7.21892C49.665 7.12292 49.5904 6.97359 49.5264 6.77092C49.5477 6.55759 49.585 6.40292 49.6384 6.30692C49.6917 6.20026 49.7664 6.09359 49.8624 5.98692C49.969 5.88026 50.049 5.78426 50.1024 5.69892C50.177 5.64559 50.273 5.57092 50.3904 5.47492C50.5184 5.37892 50.6357 5.30426 50.7424 5.25092C50.8597 5.19759 50.9877 5.17092 51.1264 5.17092C51.169 5.17092 51.2277 5.16026 51.3024 5.13892C51.3877 5.10692 51.4677 5.09092 51.5424 5.09092C52.1184 5.11226 52.5717 5.33626 52.9024 5.76292C53.201 6.14692 53.3504 6.52026 53.3504 6.88292C53.3504 7.28826 53.153 7.82692 52.7584 8.49892ZM48.4384 14.9949C48.6197 14.8456 48.7957 14.6643 48.9664 14.4509C49.137 14.2376 49.233 14.0456 49.2544 13.8749L49.3024 13.6189L48.7104 13.6669C48.369 13.7843 48.049 13.9283 47.7504 14.0989C47.4517 14.2696 47.2437 14.4243 47.1264 14.5629L46.7104 15.1389C46.9237 15.2776 47.1744 15.3469 47.4624 15.3469C47.825 15.3469 48.1504 15.2296 48.4384 14.9949ZM58.2216 11.6029C58.1896 11.6136 58.147 11.6189 58.0936 11.6189C57.955 11.6189 57.8163 11.5709 57.6776 11.4749C57.5496 11.3789 57.4376 11.2669 57.3416 11.1389C57.235 10.9789 57.155 10.7869 57.1016 10.5629C57.0483 10.3283 57.0216 10.1043 57.0216 9.89092C57.0216 9.88026 57.0163 9.86959 57.0056 9.85892C57.0056 9.83759 57.0003 9.83226 56.9896 9.84292C56.755 10.0989 56.435 10.3656 56.0296 10.6429C55.635 10.9203 55.3043 11.0589 55.0376 11.0589C54.8563 11.0589 54.6643 10.9469 54.4616 10.7229C54.2696 10.4989 54.147 10.2856 54.0936 10.0829C54.083 10.0403 54.0776 9.95492 54.0776 9.82692C54.0776 9.41092 54.1843 8.80292 54.3976 8.00292C54.611 7.20292 54.867 6.49892 55.1656 5.89092C55.475 5.27226 55.763 4.96292 56.0296 4.96292C56.275 4.96292 56.499 5.19226 56.7016 5.65092C56.7656 5.78959 56.7976 5.89092 56.7976 5.95492C56.7976 5.99759 56.7816 6.04559 56.7496 6.09892C56.7176 6.14159 56.675 6.19492 56.6216 6.25892L56.5896 6.29092C56.4403 6.46159 56.243 6.84559 55.9976 7.44292C55.7523 8.04026 55.555 8.56292 55.4056 9.01092L55.4216 8.99492C55.347 9.25092 55.3043 9.42159 55.2936 9.50692C55.6136 9.46426 55.9496 9.21359 56.3016 8.75492C56.6643 8.29626 57.091 7.65626 57.5816 6.83492C57.9123 6.29092 58.1576 5.90159 58.3176 5.66692C58.4883 5.43226 58.6323 5.30959 58.7496 5.29892C58.9203 5.28826 59.107 5.34692 59.3096 5.47492C59.523 5.60292 59.6296 5.74692 59.6296 5.90692C59.6296 5.99226 59.587 6.14159 59.5016 6.35492C59.4163 6.56826 59.331 6.77092 59.2456 6.96292L59.0856 7.31492C58.8723 7.82692 58.707 8.24292 58.5896 8.56292C58.4723 8.87226 58.387 9.19759 58.3336 9.53892V9.52292C58.323 9.57626 58.3176 9.65626 58.3176 9.76292C58.3176 10.0829 58.451 10.4029 58.7176 10.7229C58.803 10.8403 58.8456 10.9469 58.8456 11.0429C58.8456 11.1816 58.7816 11.3043 58.6536 11.4109C58.5256 11.5283 58.3763 11.5976 58.2056 11.6189L58.2216 11.6029ZM60.1669 14.3229C59.9855 14.3229 59.8149 14.2269 59.6549 14.0349C59.5055 13.8429 59.4309 13.6243 59.4309 13.3789C59.4309 13.2829 59.4469 13.1869 59.4789 13.0909C59.4895 13.0483 59.5162 12.9469 59.5589 12.7869C59.6122 12.6376 59.6442 12.5096 59.6549 12.4029C59.6762 12.2856 59.7402 12.0723 59.8469 11.7629C59.9535 11.4536 60.0389 11.2456 60.1029 11.1389C60.1562 11.0429 60.1989 10.9309 60.2309 10.8029C60.2629 10.6643 60.2789 10.5469 60.2789 10.4509C60.3535 10.2163 60.4229 10.0563 60.4869 9.97092C60.5615 9.73626 60.6415 9.55492 60.7269 9.42692C60.7375 9.39492 60.7482 9.32026 60.7589 9.20292C60.7802 9.07492 60.8175 9.00026 60.8709 8.97892C60.9029 8.82959 60.9295 8.72826 60.9509 8.67492C61.0255 8.34426 61.1642 7.92826 61.3669 7.42692C61.5269 6.96826 61.6069 6.65892 61.6069 6.49892C61.6069 6.32826 61.5482 6.22159 61.4309 6.17892C61.3135 6.13626 61.2549 5.98692 61.2549 5.73092C61.2549 5.59226 61.2762 5.46426 61.3189 5.34692C61.3615 5.22959 61.4202 5.15492 61.4949 5.12292C61.6549 5.05892 61.8629 5.02692 62.1189 5.02692C62.2895 5.02692 62.3749 5.04292 62.3749 5.07492C62.3749 5.10692 62.3802 5.13359 62.3909 5.15492C62.4015 5.16559 62.4229 5.17092 62.4549 5.17092C62.4869 5.12826 62.5669 5.24026 62.6949 5.50692C62.8229 5.76292 62.8869 5.93359 62.8869 6.01892C62.8655 6.05092 62.8549 6.07226 62.8549 6.08292C62.8655 6.09359 62.8869 6.09892 62.9189 6.09892C62.9935 6.06692 63.1322 5.99759 63.3349 5.89092C63.5482 5.77359 63.6815 5.68292 63.7349 5.61892C63.7562 5.60826 63.7935 5.59226 63.8469 5.57092C63.9002 5.53892 63.9429 5.50692 63.9749 5.47492C64.0922 5.43226 64.2255 5.41092 64.3749 5.41092C64.5455 5.41092 64.7109 5.43759 64.8709 5.49092C65.0309 5.54426 65.1642 5.61892 65.2709 5.71492C65.4309 5.91759 65.5642 6.15226 65.6709 6.41892C65.7775 6.68559 65.8309 6.94692 65.8309 7.20292C65.8309 7.41626 65.7882 7.63492 65.7029 7.85892C65.6815 7.92292 65.6122 8.05092 65.4949 8.24292C65.3882 8.42426 65.3135 8.54692 65.2709 8.61092C64.8442 9.27226 64.2575 9.81626 63.5109 10.2429C63.3722 10.3389 63.1695 10.4296 62.9029 10.5149C62.6469 10.5896 62.4602 10.6269 62.3429 10.6269C62.2789 10.6269 62.2095 10.5736 62.1349 10.4669C62.0709 10.3496 62.0122 10.2163 61.9589 10.0669C61.8202 10.3976 61.7402 10.6216 61.7189 10.7389C61.7189 10.7709 61.7082 10.8243 61.6869 10.8989C61.6762 10.9629 61.6495 11.0109 61.6069 11.0429C61.6069 11.0536 61.5962 11.0803 61.5749 11.1229C61.5642 11.1656 61.5322 11.2243 61.4789 11.2989L61.2069 12.0829C61.0789 12.3923 60.9989 12.6376 60.9669 12.8189C60.9349 13.1923 60.8495 13.5336 60.7109 13.8429C60.5722 14.1629 60.3909 14.3229 60.1669 14.3229ZM62.6789 9.10692C62.8389 9.03226 63.0629 8.91492 63.3509 8.75492C63.6495 8.59492 63.8469 8.45626 63.9429 8.33892C64.0175 8.25359 64.0655 8.16292 64.0869 8.06692C64.1189 7.97092 64.1455 7.88559 64.1669 7.81092C64.2735 7.54426 64.3482 7.34692 64.3909 7.21892C64.4229 7.15492 64.4389 7.08026 64.4389 6.99492C64.4389 6.87759 64.4069 6.78692 64.3429 6.72292C64.2149 6.71226 64.0069 6.77626 63.7189 6.91492C63.4415 7.04292 63.1802 7.26692 62.9349 7.58692C62.5829 8.04559 62.4069 8.43492 62.4069 8.75492C62.4069 8.86159 62.4282 8.94692 62.4709 9.01092C62.5242 9.07492 62.5935 9.10692 62.6789 9.10692ZM71.6053 5.44292C71.7439 5.59226 71.8453 5.72026 71.9093 5.82692C71.9733 5.92292 72.0053 6.04026 72.0053 6.17892C72.0053 6.40292 71.9199 6.66959 71.7493 6.97892C71.6639 7.22426 71.5679 7.45359 71.4613 7.66692C71.3653 7.88026 71.2906 8.01892 71.2373 8.08292L70.8693 8.93092C70.7093 9.28292 70.5119 9.69359 70.2773 10.1629C69.9893 10.7603 69.7866 11.2029 69.6693 11.4909L69.4613 11.8269C68.9279 12.6803 68.5173 13.2776 68.2293 13.6189C67.9946 13.8323 67.7173 14.0509 67.3973 14.2749C67.0773 14.5096 66.8213 14.6429 66.6293 14.6749C66.4266 14.7176 66.2026 14.7389 65.9573 14.7389C65.5199 14.7389 65.1306 14.6643 64.7893 14.5149C64.4479 14.3656 64.2506 14.1843 64.1973 13.9709L64.1653 13.7789C64.1653 13.5976 64.2399 13.4536 64.3893 13.3469C64.5279 13.2509 64.6826 13.2029 64.8533 13.2029C64.9599 13.2029 65.0399 13.2296 65.0933 13.2829C65.1146 13.2936 65.1999 13.3523 65.3493 13.4589C65.4986 13.5656 65.7013 13.6189 65.9573 13.6189C66.4373 13.6189 66.9066 13.3043 67.3653 12.6749C67.8133 11.9603 68.1546 11.3896 68.3893 10.9629C68.1759 10.8349 67.9679 10.6216 67.7653 10.3229C67.5626 10.0136 67.4719 9.80026 67.4933 9.68292V9.50692C67.4079 9.50692 67.3439 9.34692 67.3013 9.02692C67.2693 8.70692 67.2533 8.31226 67.2533 7.84292C67.2533 7.33092 67.2639 6.97359 67.2853 6.77092C67.3279 6.60026 67.3493 6.39226 67.3493 6.14692C67.3599 5.89092 67.3653 5.72559 67.3653 5.65092C67.3546 5.50159 67.3813 5.37359 67.4453 5.26692C67.5199 5.14959 67.5893 5.06959 67.6533 5.02692C67.7919 4.97359 67.9039 4.94692 67.9893 4.94692C68.4799 4.94692 68.7253 5.46959 68.7253 6.51492C68.7253 6.71759 68.7199 6.87226 68.7093 6.97892C68.6879 7.49092 68.6773 7.85359 68.6773 8.06692C68.6773 8.88826 68.7893 9.42159 69.0133 9.66692C69.1093 9.44292 69.1893 9.28292 69.2533 9.18692C69.4026 8.87759 69.4879 8.68026 69.5093 8.59492C69.5306 8.52026 69.5893 8.39759 69.6853 8.22692L69.8933 7.79492C69.9146 7.73092 69.9839 7.52826 70.1013 7.18692C70.2186 6.83492 70.3359 6.55226 70.4533 6.33892C70.4959 6.25359 70.5599 6.13092 70.6453 5.97092C70.7306 5.80026 70.7999 5.67759 70.8533 5.60292C70.9066 5.52826 70.9653 5.48026 71.0293 5.45892C71.1146 5.38426 71.2053 5.34692 71.3013 5.34692C71.3973 5.34692 71.4986 5.37892 71.6053 5.44292ZM76.0701 11.4429C75.9955 11.4856 75.8941 11.4696 75.7661 11.3949C75.6488 11.3203 75.5315 11.2083 75.4141 11.0589C75.3288 10.9203 75.2701 10.7869 75.2381 10.6589C75.2061 10.5203 75.1901 10.3229 75.1901 10.0669L75.2061 9.69892C75.2061 9.60292 75.1901 9.55492 75.1581 9.55492C75.1261 9.55492 75.0515 9.60826 74.9341 9.71492C74.8275 9.81092 74.6888 9.93892 74.5181 10.0989C74.1981 10.4083 73.9261 10.6483 73.7021 10.8189C73.4888 10.9789 73.3128 11.0536 73.1741 11.0429C73.0568 11.0429 72.8915 10.9416 72.6781 10.7389C72.4648 10.5256 72.3208 10.3229 72.2461 10.1309C72.2141 10.0029 72.1981 9.85892 72.1981 9.69892C72.1981 9.20826 72.3048 8.61092 72.5181 7.90692C72.7315 7.20292 72.9821 6.59492 73.2701 6.08292C73.5581 5.56026 73.7981 5.30959 73.9901 5.33092C74.1608 5.35226 74.3101 5.43759 74.4381 5.58692C74.5768 5.72559 74.6888 5.89626 74.7741 6.09892C74.8061 6.16292 74.8221 6.21626 74.8221 6.25892C74.8221 6.33359 74.7795 6.40826 74.6941 6.48292C74.5341 6.69626 74.3315 7.04826 74.0861 7.53892C73.8408 8.01892 73.6435 8.46159 73.4941 8.86692C73.3448 9.26159 73.3075 9.45892 73.3821 9.45892C73.5315 9.45892 73.6648 9.42159 73.7821 9.34692C73.9101 9.27226 74.0755 9.13892 74.2781 8.94692C74.6621 8.56292 75.0355 8.07226 75.3981 7.47492C75.8461 6.76026 76.0915 6.34426 76.1341 6.22692L76.3101 5.90692C76.4168 5.69359 76.4968 5.55492 76.5501 5.49092C76.6035 5.41626 76.6675 5.36826 76.7421 5.34692H77.1101C77.1741 5.35759 77.2488 5.40559 77.3341 5.49092C77.4301 5.53359 77.5208 5.59226 77.6061 5.66692C77.6915 5.74159 77.7341 5.80559 77.7341 5.85892L77.4781 6.45092L77.3341 6.78692C77.0461 7.42692 76.8275 7.93892 76.6781 8.32292C76.5288 8.69626 76.4168 9.08559 76.3421 9.49092C76.3315 9.54426 76.3261 9.63492 76.3261 9.76292C76.3261 10.0829 76.3581 10.3069 76.4221 10.4349C76.5181 10.6269 76.6141 10.7656 76.7101 10.8509C76.7955 10.9149 76.7955 10.9949 76.7101 11.0909C76.6248 11.1763 76.5021 11.2563 76.3421 11.3309C76.1928 11.4056 76.1021 11.4429 76.0701 11.4429ZM75.9101 4.37092C75.5368 4.39226 75.2275 4.29092 74.9821 4.06692C74.7475 3.83226 74.5501 3.46426 74.3901 2.96292C74.3688 2.85626 74.3581 2.78692 74.3581 2.75492C74.3581 2.62692 74.3901 2.51492 74.4541 2.41892C74.4968 2.34426 74.5608 2.29626 74.6461 2.27492C74.7421 2.24292 74.8275 2.23759 74.9021 2.25892C75.1048 2.33359 75.2541 2.41892 75.3501 2.51492C75.4461 2.60026 75.4941 2.72292 75.4941 2.88292C75.4941 2.92559 75.4995 2.96826 75.5101 3.01092C75.5315 3.05359 75.5421 3.08026 75.5421 3.09092C75.5848 3.24026 75.6648 3.31492 75.7821 3.31492L75.9101 3.28292C76.1341 3.18692 76.3208 3.10159 76.4701 3.02692C76.6195 2.94159 76.7528 2.84026 76.8701 2.72292C77.0088 2.58426 77.2381 2.37626 77.5581 2.09892C77.6435 2.02426 77.7395 1.99759 77.8461 2.01892C78.0275 2.05092 78.1235 2.09892 78.1341 2.16292L78.1661 2.19492C78.2301 2.32292 78.2621 2.47759 78.2621 2.65892V2.67492C78.2621 2.77092 78.2301 2.87226 78.1661 2.97892C78.1235 3.10692 78.0595 3.21359 77.9741 3.29892C77.8888 3.38426 77.7448 3.50692 77.5421 3.66692C77.2861 3.85892 76.9448 4.06159 76.5181 4.27492C76.4221 4.32826 76.3048 4.36026 76.1661 4.37092C76.0381 4.37092 75.9528 4.37092 75.9101 4.37092ZM86.7878 10.0509C86.8624 10.1576 86.8998 10.2589 86.8998 10.3549C86.8998 10.4616 86.8624 10.5576 86.7878 10.6429C86.7131 10.7283 86.6491 10.7709 86.5958 10.7709C86.3398 10.7709 86.0518 10.7123 85.7318 10.5949C85.4224 10.4669 85.2678 10.2856 85.2678 10.0509V9.05892C85.2678 8.63226 85.2304 8.38692 85.1558 8.32292C84.9958 8.23759 84.7824 8.36026 84.5158 8.69092C84.2491 9.01092 83.9238 9.49092 83.5398 10.1309C83.3904 10.3656 83.2624 10.5363 83.1558 10.6429C83.0491 10.7389 82.9531 10.7869 82.8678 10.7869C82.7931 10.7869 82.7291 10.7656 82.6758 10.7229C82.3451 10.6269 82.1798 10.4403 82.1798 10.1629C82.1798 10.1309 82.1904 10.0616 82.2118 9.95492C82.3078 9.62426 82.4091 9.25626 82.5158 8.85092C82.6331 8.44559 82.7238 8.09892 82.7878 7.81092C82.7558 7.74692 82.7024 7.71492 82.6278 7.71492C82.5211 7.71492 82.3984 7.76826 82.2598 7.87492C82.2171 7.90692 82.1371 7.96026 82.0198 8.03492C81.9131 8.09892 81.8011 8.18959 81.6838 8.30692C81.5771 8.41359 81.4651 8.56292 81.3478 8.75492C81.3051 8.82959 81.2304 8.94159 81.1238 9.09092C80.5904 9.90159 80.2651 10.3603 80.1478 10.4669C80.0944 10.6163 80.0411 10.7229 79.9878 10.7869C79.9451 10.8403 79.8918 10.8669 79.8278 10.8669C79.7851 10.8669 79.7318 10.8509 79.6678 10.8189C79.4651 10.7229 79.2998 10.5896 79.1718 10.4189C79.0544 10.2376 78.9958 10.0243 78.9958 9.77892C78.9958 9.61892 79.0438 9.29892 79.1398 8.81892C79.2358 8.33892 79.3424 7.89092 79.4598 7.47492C79.5451 7.30426 79.6091 7.12826 79.6518 6.94692C79.7051 6.75492 79.7318 6.62159 79.7318 6.54692C79.7638 6.34426 79.8278 6.07226 79.9238 5.73092C80.0198 5.37892 80.0891 5.18692 80.1318 5.15492C80.1958 5.09092 80.3131 5.05892 80.4838 5.05892C80.6011 5.05892 80.7131 5.08026 80.8198 5.12292C80.9264 5.16559 81.0011 5.22959 81.0438 5.31492C81.1824 5.47492 81.2518 5.69359 81.2518 5.97092C81.2518 6.22692 81.1984 6.49892 81.0918 6.78692C80.9851 7.03226 80.8518 7.38959 80.6918 7.85892C80.6918 7.85892 80.7024 7.84826 80.7238 7.82692C80.9798 7.46426 81.3104 7.05892 81.7158 6.61092C81.9078 6.39759 82.1211 6.23226 82.3558 6.11492C82.6011 5.99759 82.7984 5.93892 82.9478 5.93892C83.2038 5.98159 83.4171 6.10959 83.5878 6.32292C83.7691 6.52559 83.8811 6.80826 83.9238 7.17092C83.9238 7.29892 83.9131 7.45892 83.8918 7.65092C83.8704 7.83226 83.8544 7.94959 83.8438 8.00292C83.8864 7.94959 83.9931 7.82159 84.1638 7.61892C84.3451 7.40559 84.5638 7.18692 84.8198 6.96292C85.0544 6.78159 85.2731 6.69092 85.4758 6.69092C85.6464 6.69092 85.7958 6.76026 85.9238 6.89892C86.1584 7.03759 86.3398 7.26159 86.4678 7.57092C86.6064 7.88026 86.6758 8.23226 86.6758 8.62692C86.6758 8.76559 86.6704 8.87226 86.6598 8.94692C86.6491 9.02159 86.6438 9.12826 86.6438 9.26692C86.6438 9.41626 86.6598 9.56026 86.6918 9.69892C86.7238 9.82692 86.7558 9.94426 86.7878 10.0509ZM89.5088 11.3469C88.9008 11.3469 88.4101 11.1763 88.0368 10.8349C87.6634 10.4936 87.4768 10.0083 87.4768 9.37892C87.4768 9.13359 87.4928 8.86159 87.5248 8.56292C87.5461 8.30692 87.6474 7.95492 87.8288 7.50692C88.0208 7.05892 88.2768 6.62159 88.5968 6.19492C88.9274 5.76826 89.3114 5.45359 89.7488 5.25092C89.9514 5.15492 90.1221 5.09092 90.2608 5.05892C90.3994 5.01626 90.5594 4.99492 90.7408 4.99492C91.1781 4.99492 91.5301 5.07492 91.7968 5.23492C92.0741 5.39492 92.2661 5.57626 92.3728 5.77892C92.4901 5.98159 92.5488 6.15759 92.5488 6.30692V6.38692V6.43492C92.5488 6.56292 92.4741 6.79759 92.3248 7.13892C92.1754 7.48026 91.9354 7.80026 91.6048 8.09892C91.2848 8.39759 90.8688 8.56292 90.3568 8.59492C90.1008 8.59492 89.8501 8.57359 89.6048 8.53092C89.3701 8.47759 89.2208 8.45092 89.1568 8.45092C88.9968 8.45092 88.8954 8.50959 88.8528 8.62692C88.8101 8.74426 88.7888 8.94159 88.7888 9.21892C88.8208 9.51759 88.9008 9.72559 89.0288 9.84292C89.1674 9.96026 89.3648 10.0189 89.6208 10.0189C89.7488 10.0189 89.8981 9.98159 90.0688 9.90692C90.2394 9.82159 90.4421 9.68826 90.6768 9.50692C90.8048 9.40026 90.9061 9.32559 90.9808 9.28292C91.0554 9.24026 91.1461 9.21892 91.2528 9.21892C91.3488 9.21892 91.4608 9.28292 91.5888 9.41092C91.7168 9.53892 91.7861 9.66159 91.7968 9.77892C91.7754 9.90692 91.6581 10.0989 91.4448 10.3549C91.2314 10.6109 90.9541 10.8403 90.6128 11.0429C90.2714 11.2456 89.9034 11.3469 89.5088 11.3469ZM90.0688 7.49092C90.2714 7.49092 90.4101 7.46959 90.4848 7.42692C90.5914 7.37359 90.7514 7.24026 90.9648 7.02692C91.1888 6.80292 91.3061 6.64826 91.3168 6.56292C91.3168 6.45626 91.2688 6.37092 91.1728 6.30692C91.0874 6.23226 90.9648 6.18426 90.8048 6.16292H90.6288C90.4901 6.16292 90.2874 6.28026 90.0208 6.51492C89.7648 6.73892 89.5408 7.00026 89.3488 7.29892C89.3594 7.35226 89.4394 7.40026 89.5888 7.44292C89.7381 7.47492 89.8981 7.49092 90.0688 7.49092ZM6.68769 23.6909C6.70902 23.9896 6.68235 24.3736 6.60769 24.8429C6.53302 25.3123 6.42635 25.6856 6.28769 25.9629C6.01035 27.0616 5.54635 28.0376 4.89569 28.8909C4.24502 29.7443 3.49302 30.2616 2.63969 30.4429C2.55435 30.4749 2.35169 30.4269 2.03169 30.2989C1.72235 30.1603 1.49302 30.0109 1.34369 29.8509C1.09835 29.5949 0.975688 29.3176 0.975688 29.0189C0.901021 28.8696 0.858354 28.6829 0.847688 28.4589C0.847688 28.2349 0.847688 28.0909 0.847688 28.0269C0.847688 27.7816 0.895688 27.5363 0.991688 27.2909C1.09835 27.0349 1.22102 26.7736 1.35969 26.5069C1.47702 26.2083 1.71702 25.8669 2.07969 25.4829C2.45302 25.0883 2.81035 24.8056 3.15169 24.6349C3.26902 24.5603 3.42369 24.4963 3.61569 24.4429C3.81835 24.3896 4.02102 24.3629 4.22369 24.3629C4.37302 24.3629 4.53835 24.3896 4.71969 24.4429C4.82635 24.4749 4.92235 24.5283 5.00769 24.6029C5.09302 24.6669 5.18369 24.7523 5.27969 24.8589C5.36502 24.3043 5.40769 23.7336 5.40769 23.1469C5.40769 22.4749 5.32769 22.0216 5.16769 21.7869C5.00769 21.5629 4.79435 21.3869 4.52769 21.2589C4.26102 21.1309 3.98902 21.0669 3.71169 21.0669C3.49835 21.0669 3.29035 21.1096 3.08769 21.1949C2.95969 21.1309 2.86369 21.0563 2.79969 20.9709C2.73569 20.8856 2.68235 20.7736 2.63969 20.6349C2.65035 20.4216 2.72502 20.2563 2.86369 20.1389C3.01302 20.0109 3.23169 19.9203 3.51969 19.8669C3.71169 19.8243 3.87702 19.8029 4.01569 19.8029C4.25035 19.8029 4.45302 19.8563 4.62369 19.9629C5.42369 20.2296 5.96235 20.6723 6.23969 21.2909C6.51702 21.8989 6.66635 22.6989 6.68769 23.6909ZM4.06369 27.6269C4.26635 27.3603 4.44235 27.0456 4.59169 26.6829C4.74102 26.3096 4.81569 26.0163 4.81569 25.8029C4.81569 25.6216 4.72502 25.5309 4.54369 25.5309C4.41569 25.5309 4.25569 25.5736 4.06369 25.6589C3.87169 25.7443 3.68502 25.8563 3.50369 25.9949C3.16235 26.2403 2.76769 26.7523 2.31969 27.5309C2.18102 27.7763 2.11169 28.0856 2.11169 28.4589C2.11169 28.6403 2.13835 28.7949 2.19169 28.9229C2.25569 29.0509 2.34635 29.1149 2.46369 29.1149C2.67702 29.1149 2.89569 29.0029 3.11969 28.7789C3.34369 28.5549 3.54102 28.3256 3.71169 28.0909C3.89302 27.8456 4.01035 27.6909 4.06369 27.6269ZM8.89156 30.3469C8.28356 30.3469 7.7929 30.1763 7.41956 29.8349C7.04623 29.4936 6.85956 29.0083 6.85956 28.3789C6.85956 28.1336 6.87556 27.8616 6.90756 27.5629C6.9289 27.3069 7.03023 26.9549 7.21156 26.5069C7.40356 26.0589 7.65956 25.6216 7.97956 25.1949C8.31023 24.7683 8.69423 24.4536 9.13156 24.2509C9.33423 24.1549 9.5049 24.0909 9.64356 24.0589C9.78223 24.0163 9.94223 23.9949 10.1236 23.9949C10.5609 23.9949 10.9129 24.0749 11.1796 24.2349C11.4569 24.3949 11.6489 24.5763 11.7556 24.7789C11.8729 24.9816 11.9316 25.1576 11.9316 25.3069V25.3869V25.4349C11.9316 25.5629 11.8569 25.7976 11.7076 26.1389C11.5582 26.4803 11.3182 26.8003 10.9876 27.0989C10.6676 27.3976 10.2516 27.5629 9.73956 27.5949C9.48356 27.5949 9.2329 27.5736 8.98756 27.5309C8.7529 27.4776 8.60356 27.4509 8.53956 27.4509C8.37956 27.4509 8.27823 27.5096 8.23556 27.6269C8.1929 27.7443 8.17156 27.9416 8.17156 28.2189C8.20356 28.5176 8.28356 28.7256 8.41156 28.8429C8.55023 28.9603 8.74756 29.0189 9.00356 29.0189C9.13156 29.0189 9.2809 28.9816 9.45156 28.9069C9.62223 28.8216 9.8249 28.6883 10.0596 28.5069C10.1876 28.4003 10.2889 28.3256 10.3636 28.2829C10.4382 28.2403 10.5289 28.2189 10.6356 28.2189C10.7316 28.2189 10.8436 28.2829 10.9716 28.4109C11.0996 28.5389 11.1689 28.6616 11.1796 28.7789C11.1582 28.9069 11.0409 29.0989 10.8276 29.3549C10.6142 29.6109 10.3369 29.8403 9.99556 30.0429C9.65423 30.2456 9.28623 30.3469 8.89156 30.3469ZM9.45156 26.4909C9.65423 26.4909 9.7929 26.4696 9.86756 26.4269C9.97423 26.3736 10.1342 26.2403 10.3476 26.0269C10.5716 25.8029 10.6889 25.6483 10.6996 25.5629C10.6996 25.4563 10.6516 25.3709 10.5556 25.3069C10.4702 25.2323 10.3476 25.1843 10.1876 25.1629H10.0116C9.8729 25.1629 9.67023 25.2803 9.40356 25.5149C9.14756 25.7389 8.92356 26.0003 8.73156 26.2989C8.74223 26.3523 8.82223 26.4003 8.97156 26.4429C9.1209 26.4749 9.2809 26.4909 9.45156 26.4909ZM16.4113 30.4269C16.3686 30.4269 16.3046 30.4003 16.2193 30.3469L15.8193 30.2189C15.6913 30.0163 15.6273 29.7763 15.6273 29.4989C15.6273 29.2963 15.654 29.0936 15.7073 28.8909C15.7713 28.6776 15.8353 28.4856 15.8993 28.3149C15.974 28.1336 16.022 28.0163 16.0433 27.9629C15.958 27.9843 15.654 28.0483 15.1313 28.1549C14.854 28.1869 14.5926 28.2349 14.3473 28.2989L14.1393 28.1869L14.0433 28.6509C13.958 29.1629 13.8566 29.5363 13.7393 29.7709C13.526 29.7923 13.3926 29.8029 13.3393 29.8029C13.19 29.8029 12.9873 29.7603 12.7313 29.6749C12.5713 29.4616 12.4913 29.2163 12.4913 28.9389C12.4913 28.7576 12.518 28.5763 12.5713 28.3949C12.6246 28.2136 12.7046 28.0003 12.8113 27.7549C12.9073 27.5309 12.9766 27.3496 13.0193 27.2109C13.062 27.0616 13.0833 26.9176 13.0833 26.7789C13.1473 26.7149 13.3233 26.3096 13.6113 25.5629C13.91 24.8163 14.07 24.3629 14.0913 24.2029C14.102 23.9469 14.23 23.8189 14.4753 23.8189C14.6886 23.8189 14.9073 23.9096 15.1313 24.0909C15.3553 24.2616 15.4673 24.4483 15.4673 24.6509C15.4673 24.7363 15.4406 24.8216 15.3873 24.9069L14.6673 26.8109C14.8273 26.7896 14.9553 26.7523 15.0513 26.6989H16.0913C16.198 26.7523 16.2833 26.8109 16.3473 26.8749C16.5393 26.4163 16.694 26.0323 16.8113 25.7229C16.9286 25.4136 17.0193 25.0989 17.0833 24.7789C17.1366 24.5123 17.3126 24.2936 17.6113 24.1229C17.6753 24.1443 17.798 24.1869 17.9793 24.2509C18.1606 24.3149 18.2993 24.4003 18.3953 24.5069C18.502 24.6136 18.5713 24.7523 18.6033 24.9229C18.582 24.9869 18.5553 25.0883 18.5233 25.2269C18.502 25.3656 18.4753 25.4669 18.4433 25.5309L18.1713 26.1869C18.1393 26.2723 18.0486 26.4963 17.8993 26.8589C17.75 27.2109 17.6273 27.5469 17.5313 27.8669C17.4353 28.1869 17.3606 28.4803 17.3073 28.7469C17.2966 28.7789 17.2486 28.9443 17.1633 29.2429C17.078 29.4989 17.0246 29.6909 17.0033 29.8189C16.9713 30.0856 16.8593 30.2776 16.6673 30.3949L16.4113 30.4269ZM21.2327 30.6349C20.0167 30.6349 19.4087 29.9416 19.4087 28.5549C19.4087 28.0536 19.5314 27.4883 19.7767 26.8589C20.0327 26.2189 20.3474 25.6483 20.7207 25.1469C21.1047 24.6349 21.4834 24.2936 21.8567 24.1229C22.0594 24.0163 22.294 23.9629 22.5607 23.9629C23.0407 23.9629 23.4567 24.0696 23.8087 24.2829C24.1714 24.4856 24.3527 24.8749 24.3527 25.4509C24.3527 25.7816 24.2407 26.1443 24.0167 26.5389C23.7927 26.9336 23.51 27.2696 23.1687 27.5469C22.838 27.8136 22.5127 27.9469 22.1927 27.9469C21.7127 27.9469 21.3074 27.7923 20.9767 27.4829C20.7954 27.8456 20.7047 28.1923 20.7047 28.5229C20.7047 28.7896 20.7367 28.9976 20.8007 29.1469C20.8647 29.2856 21.014 29.3549 21.2487 29.3549C21.4727 29.3549 21.654 29.3229 21.7927 29.2589C21.9314 29.1949 22.0594 29.1203 22.1767 29.0349C22.294 28.9496 22.3847 28.8856 22.4487 28.8429L22.5127 28.8109H22.4967C22.6887 28.7043 22.8274 28.6243 22.9127 28.5709C23.0087 28.5069 23.0887 28.4643 23.1527 28.4429C23.3127 28.4429 23.462 28.4909 23.6007 28.5869C23.7394 28.6829 23.8087 28.8003 23.8087 28.9389C23.8087 29.0456 23.7127 29.2216 23.5207 29.4669C23.3287 29.7016 23.1314 29.8669 22.9287 29.9629L22.7367 30.0589H22.7527C22.6567 30.1869 22.5607 30.2509 22.4647 30.2509H22.3367C22.294 30.3363 22.15 30.4216 21.9047 30.5069C21.67 30.5923 21.446 30.6349 21.2327 30.6349ZM22.0647 26.7789C22.3634 26.7789 22.6087 26.6509 22.8007 26.3949C23.0034 26.1389 23.1047 25.8829 23.1047 25.6269C23.1047 25.5096 23.0727 25.4029 23.0087 25.3069C22.9554 25.2109 22.8807 25.1629 22.7847 25.1629C22.6034 25.1629 22.4007 25.2483 22.1767 25.4189C21.9527 25.5896 21.7554 25.8136 21.5847 26.0909L21.3767 26.4269C21.4194 26.4056 21.4514 26.3949 21.4727 26.3949C21.558 26.3949 21.622 26.4323 21.6647 26.5069C21.7074 26.5816 21.7554 26.6456 21.8087 26.6989C21.862 26.7523 21.9474 26.7789 22.0647 26.7789ZM29.6707 29.7709C29.6067 29.7176 29.5587 29.6483 29.5267 29.5629C29.4947 29.4776 29.4734 29.4296 29.4627 29.4189L29.4147 29.2909L29.2067 28.7469C29.1854 28.6829 29.1587 28.6189 29.1267 28.5549C29.0947 28.4909 29.068 28.4376 29.0467 28.3949C28.9934 28.5549 28.94 28.6829 28.8867 28.7789C28.8014 28.9603 28.732 29.1256 28.6787 29.2749C28.636 29.4136 28.588 29.6216 28.5347 29.8989C28.5774 29.9843 28.5987 30.0589 28.5987 30.1229C28.5987 30.2083 28.5667 30.2829 28.5027 30.3469C28.4387 30.4216 28.4014 30.4696 28.3907 30.4909C28.316 30.6189 28.2147 30.6829 28.0867 30.6829C28.0547 30.6829 28.0067 30.6723 27.9427 30.6509C27.5374 30.5443 27.26 30.3629 27.1107 30.1069C27.1427 29.9469 27.1534 29.8563 27.1427 29.8349C27.132 29.5896 27.2867 29.0829 27.6067 28.3149L26.8867 28.9869L26.5987 29.2589C26.3747 29.4616 26.2467 29.5843 26.2147 29.6269C26.0654 29.8403 25.9427 29.9789 25.8467 30.0429L25.3827 30.5549H24.8067C24.636 30.4376 24.508 30.3203 24.4227 30.2029C24.3374 30.0856 24.2787 29.9096 24.2467 29.6749C24.428 29.5149 24.556 29.3976 24.6307 29.3229C24.716 29.2483 24.764 29.1896 24.7747 29.1469L25.0627 28.9069C25.0947 28.8856 25.1214 28.8589 25.1427 28.8269C25.1747 28.7949 25.212 28.7576 25.2547 28.7149C25.4254 28.5763 26.0654 27.9523 27.1747 26.8429C26.9934 26.5549 26.8174 26.2296 26.6467 25.8669C26.572 25.7069 26.4974 25.5309 26.4227 25.3389L26.2947 25.0509L26.2627 24.8749C26.2414 24.7683 26.236 24.7256 26.2467 24.7469C26.204 24.6296 26.1827 24.5123 26.1827 24.3949C26.1827 24.2563 26.2094 24.1336 26.2627 24.0269C26.316 23.9096 26.3854 23.8243 26.4707 23.7709L26.6787 23.8669C26.7534 23.9096 26.8387 23.9416 26.9347 23.9629C27.0094 23.9736 27.0734 24.0003 27.1267 24.0429C27.18 24.0856 27.2174 24.1123 27.2387 24.1229C27.324 24.1656 27.3774 24.2029 27.3987 24.2349C27.4307 24.2669 27.4574 24.3096 27.4787 24.3629C27.5 24.4376 27.5694 24.5336 27.6867 24.6509C27.612 24.7469 27.58 24.8056 27.5907 24.8269C27.612 24.8483 27.6227 24.8589 27.6227 24.8589L27.6547 24.9709C27.772 25.3336 27.884 25.6536 27.9907 25.9309C28.0974 26.1976 28.172 26.3629 28.2147 26.4269C28.332 26.0749 28.5774 25.3923 28.9507 24.3789C28.9507 24.3469 28.972 24.2989 29.0147 24.2349C29.004 24.0749 29.0307 23.9576 29.0947 23.8829C29.1694 23.8083 29.292 23.7336 29.4627 23.6589C29.7827 23.7016 30.06 23.8669 30.2947 24.1549C30.3694 24.3789 30.4067 24.5496 30.4067 24.6669C30.4067 24.7949 30.38 24.9176 30.3267 25.0349C30.1667 25.3763 29.9427 25.9363 29.6547 26.7149L29.8947 26.4909L31.5907 24.6829C31.6227 24.6509 31.6547 24.5976 31.6867 24.5229C31.7187 24.4376 31.74 24.3789 31.7507 24.3469L31.7827 24.0909C31.932 24.0696 32.124 24.0589 32.3587 24.0589H32.4227C32.5507 24.0589 32.6627 24.1016 32.7587 24.1869C32.9507 24.3256 33.0467 24.4749 33.0467 24.6349C33.0467 24.7309 33.0254 24.8216 32.9827 24.9069C32.8654 25.1629 32.7107 25.4029 32.5187 25.6269C32.3374 25.8403 32.044 26.1389 31.6387 26.5229L31.1427 27.0189C30.8654 27.2536 30.5987 27.4243 30.3427 27.5309L29.9587 27.5629L30.1507 27.8029C30.332 28.1123 30.5614 28.5923 30.8387 29.2429C30.9454 29.4456 31.0147 29.5683 31.0467 29.6109L31.2707 29.9789L31.3027 30.1069C31.292 30.2243 31.26 30.3469 31.2067 30.4749C31.1534 30.6136 31.1 30.6936 31.0467 30.7149C30.908 30.7896 30.7267 30.8269 30.5027 30.8269C30.364 30.8269 30.188 30.8056 29.9747 30.7629L29.6707 29.7709ZM39.0508 25.2909C39.0081 25.4509 38.9388 25.6109 38.8428 25.7709C38.7468 25.9309 38.6828 26.0429 38.6508 26.1069C38.5761 26.2669 38.5175 26.3949 38.4748 26.4909C38.4321 26.5763 38.4001 26.6509 38.3788 26.7149C38.5921 26.8109 38.6881 27.0456 38.6668 27.4189L38.4908 27.6589L37.9788 27.8349C37.9361 28.0163 37.9041 28.1709 37.8828 28.2989C37.8615 28.4909 37.7975 28.7576 37.6908 29.0989L37.5948 29.4669C37.5415 29.6376 37.4721 29.7496 37.3868 29.8029C37.3121 29.8563 37.1948 29.8989 37.0348 29.9309C36.9708 29.9096 36.8801 29.8776 36.7628 29.8349C36.6455 29.7923 36.5601 29.7549 36.5068 29.7229C36.4535 29.6909 36.4001 29.6483 36.3468 29.5949C36.2828 29.4989 36.2508 29.3976 36.2508 29.2909C36.2508 29.1949 36.2881 29.0189 36.3628 28.7629C36.4908 28.3469 36.5815 28.0323 36.6348 27.8189L36.3628 27.8669C36.2028 27.8776 36.0801 27.8936 35.9948 27.9149C35.9095 27.9256 35.8455 27.9363 35.8028 27.9469C35.7175 27.9896 35.5468 28.0109 35.2908 28.0109C35.0775 28.0109 34.8908 27.9949 34.7308 27.9629C34.7095 28.0163 34.6828 28.0909 34.6508 28.1869C34.6188 28.2723 34.5815 28.3843 34.5388 28.5229C34.4748 28.7363 34.4428 28.8856 34.4428 28.9709L34.3788 29.4029C34.3575 29.4883 34.3361 29.6323 34.3148 29.8349C34.3041 30.0589 34.2508 30.2296 34.1548 30.3469C34.0588 30.4749 33.9361 30.5389 33.7868 30.5389C33.5415 30.5389 33.2588 30.3789 32.9388 30.0589L32.8748 29.8349L33.1308 28.6029C33.1521 28.5389 33.1735 28.4696 33.1948 28.3949C33.2161 28.3203 33.2321 28.2403 33.2428 28.1549L33.3708 27.7389L33.5468 27.2429C33.6961 26.7949 33.8188 26.4749 33.9148 26.2829C33.9575 26.1336 34.0108 25.9683 34.0748 25.7869C34.1495 25.6056 34.2028 25.4776 34.2348 25.4029C34.2561 25.3709 34.3201 25.1896 34.4268 24.8589C34.5335 24.5176 34.6081 24.2883 34.6508 24.1709C34.7361 23.9576 34.8908 23.8509 35.1148 23.8509C35.3388 23.8403 35.5361 23.9043 35.7068 24.0429C35.8775 24.1709 35.9681 24.3363 35.9788 24.5389C35.9788 24.5816 35.9735 24.6563 35.9628 24.7629C35.9521 24.8589 35.9361 24.9229 35.9148 24.9549L35.1628 26.8109C35.2588 26.8003 35.3761 26.7843 35.5148 26.7629C35.6535 26.7309 35.7548 26.7149 35.8188 26.7149C35.9681 26.6829 36.1548 26.6669 36.3788 26.6669C36.6028 26.6669 36.7788 26.6829 36.9068 26.7149C36.9601 26.6296 37.0241 26.4749 37.0988 26.2509C37.1201 26.1549 37.1681 26.0163 37.2428 25.8349C37.3281 25.5576 37.4455 25.2909 37.5948 25.0349C37.6055 25.0029 37.6161 24.9603 37.6268 24.9069C37.6375 24.8429 37.7121 24.6883 37.8508 24.4429C38.0215 24.3576 38.1761 24.3149 38.3148 24.3149C38.5281 24.3149 38.7095 24.3843 38.8588 24.5229C39.0188 24.6616 39.0988 24.8323 39.0988 25.0349C39.0988 25.1096 39.0828 25.1949 39.0508 25.2909ZM43.2009 26.2669C43.5423 26.1283 43.8676 26.0589 44.1769 26.0589C44.5289 26.0589 44.8116 26.1443 45.0249 26.3149C45.2489 26.4749 45.3609 26.7256 45.3609 27.0669C45.4143 27.2483 45.4409 27.4349 45.4409 27.6269C45.4409 27.7763 45.4249 27.9309 45.3929 28.0909C45.0729 28.7523 44.7529 29.1949 44.4329 29.4189C44.2836 29.5683 44.0649 29.7283 43.7769 29.8989C43.4889 30.0696 43.2276 30.1869 42.9929 30.2509C42.5663 30.3576 42.2889 30.4109 42.1609 30.4109C42.0436 30.4109 41.9423 30.3896 41.8569 30.3469C41.7716 30.3043 41.6703 30.2296 41.5529 30.1229C41.4036 29.9949 41.3289 29.8456 41.3289 29.6749C41.2969 29.9096 41.1689 30.0589 40.9449 30.1229C40.6996 30.0909 40.5183 30.0269 40.4009 29.9309C40.2943 29.8243 40.2409 29.6643 40.2409 29.4509C40.2409 29.4083 40.2516 29.3123 40.2729 29.1629C40.2943 29.0883 40.3316 28.9176 40.3849 28.6509C40.4489 28.3843 40.5076 28.1816 40.5609 28.0429L40.9129 27.1149C41.1263 26.5283 41.2916 26.0803 41.4089 25.7709C41.5369 25.4616 41.6543 25.2323 41.7609 25.0829L42.1129 24.1869L42.3369 24.0269C42.6036 24.0483 42.7849 24.1176 42.8809 24.2349C42.9769 24.3416 43.0463 24.5123 43.0889 24.7469C43.0783 24.8643 42.8649 25.4029 42.4489 26.3629C42.3956 26.5016 42.3423 26.6296 42.2889 26.7469C42.2463 26.8643 42.2036 26.9709 42.1609 27.0669C42.6516 26.6189 42.9983 26.3523 43.2009 26.2669ZM48.2409 24.5869C48.3263 24.7896 48.3689 24.9709 48.3689 25.1309C48.3689 25.2696 48.3423 25.3976 48.2889 25.5149C48.2036 25.7069 47.9956 26.2829 47.6649 27.2429C47.3449 28.1923 47.1636 28.7629 47.1209 28.9549C47.0143 29.2216 46.9343 29.5576 46.8809 29.9629C46.9023 30.0589 46.8863 30.1603 46.8329 30.2669C46.7796 30.3736 46.6889 30.4643 46.5609 30.5389C46.2409 30.5176 46.0009 30.4536 45.8409 30.3469C45.6809 30.2296 45.5636 30.0269 45.4889 29.7389C45.4889 29.5149 45.5156 29.3016 45.5689 29.0989C45.6223 28.8963 45.6596 28.7523 45.6809 28.6669C45.8089 28.1869 45.9423 27.7763 46.0809 27.4349C46.1129 27.3709 46.1929 27.1789 46.3209 26.8589C46.5343 26.2189 46.6943 25.6696 46.8009 25.2109C46.9183 24.7523 46.9876 24.4749 47.0089 24.3789C47.1583 24.2189 47.3183 24.1389 47.4889 24.1389C47.7236 24.1389 47.9743 24.2883 48.2409 24.5869ZM43.5849 28.6029C43.9796 28.1123 44.1876 27.7016 44.2089 27.3709C44.2089 27.3389 44.1876 27.2963 44.1449 27.2429C44.1023 27.1896 44.0703 27.1416 44.0489 27.0989C43.7823 27.2056 43.6063 27.2963 43.5209 27.3709C43.4356 27.4349 43.3823 27.4776 43.3609 27.4989C42.9129 27.8509 42.6036 28.1229 42.4329 28.3149C42.2623 28.5069 42.0436 28.8109 41.7769 29.2269L41.9529 29.2429C42.0276 29.2856 42.1183 29.3069 42.2249 29.3069C42.4489 29.3069 42.6943 29.2376 42.9609 29.0989C43.2383 28.9603 43.4463 28.7949 43.5849 28.6029ZM50.8447 30.3469C50.2367 30.3469 49.746 30.1763 49.3727 29.8349C48.9994 29.4936 48.8127 29.0083 48.8127 28.3789C48.8127 28.1336 48.8287 27.8616 48.8607 27.5629C48.882 27.3069 48.9834 26.9549 49.1647 26.5069C49.3567 26.0589 49.6127 25.6216 49.9327 25.1949C50.2634 24.7683 50.6474 24.4536 51.0847 24.2509C51.2874 24.1549 51.458 24.0909 51.5967 24.0589C51.7354 24.0163 51.8954 23.9949 52.0767 23.9949C52.514 23.9949 52.866 24.0749 53.1327 24.2349C53.41 24.3949 53.602 24.5763 53.7087 24.7789C53.826 24.9816 53.8847 25.1576 53.8847 25.3069V25.3869V25.4349C53.8847 25.5629 53.81 25.7976 53.6607 26.1389C53.5114 26.4803 53.2714 26.8003 52.9407 27.0989C52.6207 27.3976 52.2047 27.5629 51.6927 27.5949C51.4367 27.5949 51.186 27.5736 50.9407 27.5309C50.706 27.4776 50.5567 27.4509 50.4927 27.4509C50.3327 27.4509 50.2314 27.5096 50.1887 27.6269C50.146 27.7443 50.1247 27.9416 50.1247 28.2189C50.1567 28.5176 50.2367 28.7256 50.3647 28.8429C50.5034 28.9603 50.7007 29.0189 50.9567 29.0189C51.0847 29.0189 51.234 28.9816 51.4047 28.9069C51.5754 28.8216 51.778 28.6883 52.0127 28.5069C52.1407 28.4003 52.242 28.3256 52.3167 28.2829C52.3914 28.2403 52.482 28.2189 52.5887 28.2189C52.6847 28.2189 52.7967 28.2829 52.9247 28.4109C53.0527 28.5389 53.122 28.6616 53.1327 28.7789C53.1114 28.9069 52.994 29.0989 52.7807 29.3549C52.5674 29.6109 52.29 29.8403 51.9487 30.0429C51.6074 30.2456 51.2394 30.3469 50.8447 30.3469ZM51.4047 26.4909C51.6074 26.4909 51.746 26.4696 51.8207 26.4269C51.9274 26.3736 52.0874 26.2403 52.3007 26.0269C52.5247 25.8029 52.642 25.6483 52.6527 25.5629C52.6527 25.4563 52.6047 25.3709 52.5087 25.3069C52.4234 25.2323 52.3007 25.1843 52.1407 25.1629H51.9647C51.826 25.1629 51.6234 25.2803 51.3567 25.5149C51.1007 25.7389 50.8767 26.0003 50.6847 26.2989C50.6954 26.3523 50.7754 26.4003 50.9247 26.4429C51.074 26.4749 51.234 26.4909 51.4047 26.4909ZM62.7354 24.1389C63.1621 24.2989 63.4928 24.4803 63.7274 24.6829C63.9621 24.8749 64.0634 25.1523 64.0314 25.5149C64.0101 25.6109 63.9941 25.7336 63.9834 25.8829C63.9728 26.0216 63.9514 26.1549 63.9194 26.2829C63.8981 26.4003 63.8554 26.5123 63.7914 26.6189C63.7914 26.6403 63.7114 26.8643 63.5514 27.2909C63.3061 27.8669 63.1728 28.2509 63.1514 28.4429C63.0981 28.6349 63.0554 28.8003 63.0234 28.9389C62.9808 29.1416 62.9381 29.3069 62.8954 29.4349C62.8528 29.5629 62.7888 29.6749 62.7034 29.7709C62.5754 29.8989 62.4208 29.9629 62.2394 29.9629C62.0261 29.9629 61.8394 29.8829 61.6794 29.7229C61.5194 29.5629 61.4554 29.3709 61.4874 29.1469C61.4874 28.9443 61.5194 28.6189 61.5834 28.1709C61.5941 28.0856 61.6208 28.0003 61.6634 27.9149C61.7061 27.8296 61.7328 27.7709 61.7434 27.7389C61.9141 27.3336 62.0634 26.8749 62.1914 26.3629C62.3301 25.8509 62.4101 25.4616 62.4314 25.1949C62.1008 25.2056 61.5834 25.2376 60.8794 25.2909C60.7941 25.6429 60.6981 25.9736 60.5914 26.2829C60.4528 26.7096 60.3728 26.9869 60.3514 27.1149C60.3194 27.2749 60.2234 27.5363 60.0634 27.8989C59.7968 28.5176 59.6581 28.9229 59.6474 29.1149C59.5941 29.1896 59.5568 29.2856 59.5354 29.4029C59.5141 29.5203 59.4981 29.6323 59.4874 29.7389C59.4554 29.9096 59.3861 30.0269 59.2794 30.0909C59.1834 30.1549 59.0394 30.2083 58.8474 30.2509C58.6768 30.2509 58.5381 30.2189 58.4314 30.1549C58.3354 30.0909 58.2554 30.0056 58.1914 29.8989C58.1274 29.7816 58.0688 29.6589 58.0154 29.5309C58.0154 29.2323 58.0741 28.9389 58.1914 28.6509C58.2234 28.5763 58.2554 28.4856 58.2874 28.3789C58.3301 28.2723 58.3621 28.1869 58.3834 28.1229C58.4794 27.8243 58.5594 27.6109 58.6234 27.4829C58.6554 27.2696 58.7461 26.9709 58.8954 26.5869C59.0128 26.2883 59.0821 26.0909 59.1034 25.9949C59.2741 25.4296 59.3968 25.0349 59.4714 24.8109C59.4714 24.5869 59.5301 24.4056 59.6474 24.2669C59.7754 24.1283 59.9301 24.0589 60.1114 24.0589C60.2288 24.1016 60.3248 24.1229 60.3994 24.1229C60.4421 24.1229 60.4848 24.1123 60.5274 24.0909C60.5914 24.0589 60.8528 24.0429 61.3114 24.0429C61.5888 24.0429 61.7648 24.0376 61.8394 24.0269C61.9461 24.0163 62.0474 24.0216 62.1434 24.0429C62.2501 24.0643 62.3194 24.0803 62.3514 24.0909C62.3941 24.1016 62.4474 24.1123 62.5114 24.1229C62.5754 24.1336 62.6501 24.1389 62.7354 24.1389ZM67.0028 30.2189C66.9495 30.2296 66.8801 30.2349 66.7948 30.2349C66.6561 30.2349 66.5441 30.2136 66.4588 30.1709C66.3735 30.1176 66.2721 30.0323 66.1548 29.9149C65.9095 29.7976 65.6961 29.6003 65.5148 29.3229C65.3335 29.0456 65.2535 28.8269 65.2748 28.6669C65.3281 28.1549 65.4721 27.6003 65.7068 27.0029C65.9415 26.3949 66.2455 25.8509 66.6188 25.3709C67.0028 24.8803 67.4081 24.5389 67.8348 24.3469C68.0268 24.2723 68.2028 24.2349 68.3628 24.2349C68.6935 24.2349 68.9121 24.3416 69.0188 24.5549C69.0935 24.7043 69.1308 24.8163 69.1308 24.8909C69.1308 25.0189 69.0561 25.1043 68.9068 25.1469C68.8748 25.1469 68.8375 25.1629 68.7948 25.1949C68.7521 25.2269 68.7308 25.2589 68.7308 25.2909C68.7415 25.3016 68.7895 25.3069 68.8748 25.3069C69.0561 25.3069 69.2801 25.2803 69.5468 25.2269C69.8135 25.1736 69.9841 25.1149 70.0588 25.0509C70.1228 25.0189 70.1761 25.0029 70.2188 25.0029L70.4428 25.0349C70.6241 25.0883 70.7148 25.1523 70.7148 25.2269C70.7148 25.2803 70.7308 25.3496 70.7628 25.4349C70.8055 25.5203 70.8428 25.5629 70.8748 25.5629C70.9281 25.5629 70.9548 25.6003 70.9548 25.6749C70.9548 25.7389 70.9175 25.8243 70.8428 25.9309C70.7788 26.0269 70.6828 26.1229 70.5548 26.2189C70.5015 26.2509 70.4215 26.2989 70.3148 26.3629C70.2188 26.4269 70.1601 26.4803 70.1388 26.5229C70.1281 26.5656 70.1335 26.6243 70.1548 26.6989C70.1975 26.7843 70.2188 26.8909 70.2188 27.0189C70.2188 27.3816 70.0428 27.8083 69.6908 28.2989C69.3388 28.7789 68.9068 29.2056 68.3948 29.5789C67.8935 29.9523 67.4295 30.1656 67.0028 30.2189ZM67.0508 28.8749C67.1148 28.8749 67.2748 28.8109 67.5308 28.6829C67.6695 28.5443 67.7815 28.4589 67.8668 28.4269C67.8988 28.4269 67.9255 28.4003 67.9468 28.3469C67.9788 28.2829 68.0268 28.1923 68.0908 28.0749C68.1655 27.9469 68.2828 27.7816 68.4428 27.5789C68.6135 27.3869 68.7308 27.2323 68.7948 27.1149C68.8695 26.9976 68.9068 26.8803 68.9068 26.7629C68.9068 26.7203 68.8961 26.6456 68.8748 26.5389C68.8641 26.5069 68.8268 26.4803 68.7628 26.4589C68.7095 26.4269 68.6561 26.4003 68.6028 26.3789C68.5495 26.3789 68.4961 26.3949 68.4428 26.4269C68.3895 26.4483 68.3521 26.4589 68.3308 26.4589C68.2775 26.4589 68.2188 26.4323 68.1548 26.3789L67.8988 26.0589L67.6268 26.3309C67.3815 26.5763 67.1735 26.9069 67.0028 27.3229C66.8428 27.7389 66.7468 28.1176 66.7148 28.4589C66.7041 28.6083 66.7255 28.7149 66.7788 28.7789C66.8428 28.8323 66.9335 28.8643 67.0508 28.8749ZM79.0277 29.8509C79.0064 29.8616 78.953 29.8669 78.8677 29.8669C78.7077 29.8669 78.553 29.8243 78.4037 29.7389C78.2544 29.6536 78.1584 29.5256 78.1157 29.3549C78.105 29.3229 78.057 29.2216 77.9717 29.0509C77.897 28.8803 77.8597 28.6829 77.8597 28.4589C77.8597 28.3629 77.865 28.2883 77.8757 28.2349L77.9557 27.7389C77.977 27.5363 77.9984 27.4136 78.0197 27.3709V27.2269C78.0197 27.0456 78.0037 26.9549 77.9717 26.9549C77.8864 26.9549 77.6624 27.1523 77.2997 27.5469C76.9477 27.9416 76.6437 28.3309 76.3877 28.7149C76.313 28.8109 76.2277 28.9549 76.1317 29.1469C76.0464 29.3283 75.993 29.4243 75.9717 29.4349C75.929 29.4776 75.865 29.4989 75.7797 29.4989C75.6837 29.4989 75.577 29.4669 75.4597 29.4029C75.3424 29.3389 75.257 29.2589 75.2037 29.1629C75.1824 29.1203 75.1397 29.0829 75.0757 29.0509C75.0117 29.0083 74.9797 28.9336 74.9797 28.8269C74.9797 28.6456 75.049 28.3469 75.1877 27.9309C75.305 27.5789 75.401 27.2749 75.4757 27.0189C75.561 26.7629 75.6144 26.5923 75.6357 26.5069C75.6357 26.4323 75.369 26.6243 74.8357 27.0829C74.249 27.7656 73.7264 28.4163 73.2677 29.0349C73.0437 29.3443 72.8677 29.5683 72.7397 29.7069C72.6117 29.8349 72.4997 29.8989 72.4037 29.8989C72.329 29.8989 72.249 29.8509 72.1637 29.7549C72.121 29.7123 72.0464 29.6589 71.9397 29.5949C71.8437 29.5309 71.7957 29.4776 71.7957 29.4349C71.7957 29.3496 71.769 29.3069 71.7157 29.3069C71.6517 29.2429 71.7584 28.8963 72.0357 28.2669C72.3237 27.6269 72.5797 27.1363 72.8037 26.7949C72.8464 26.7629 72.8784 26.7203 72.8997 26.6669C72.921 26.6029 72.921 26.5709 72.8997 26.5709C72.921 26.5389 72.953 26.4856 72.9957 26.4109C73.0384 26.3363 73.081 26.2723 73.1237 26.2189C73.305 25.8669 73.3797 25.5843 73.3477 25.3709C73.305 25.3283 73.257 25.3123 73.2037 25.3229C73.161 25.3336 73.1344 25.3443 73.1237 25.3549C73.1024 25.3656 73.0437 25.3869 72.9477 25.4189C72.8624 25.4403 72.7877 25.4723 72.7237 25.5149C72.4677 25.6856 72.2917 25.7709 72.1957 25.7709C72.0784 25.7709 71.9664 25.6429 71.8597 25.3869C71.8277 25.2909 71.8117 25.2003 71.8117 25.1149C71.8117 24.9763 71.8544 24.8696 71.9397 24.7949C72.025 24.7203 72.137 24.6403 72.2757 24.5549C72.4144 24.4696 72.4944 24.4163 72.5157 24.3949C72.633 24.3309 72.7824 24.2616 72.9637 24.1869C73.1557 24.1016 73.2997 24.0429 73.3957 24.0109C73.5237 23.9683 73.6517 23.9469 73.7797 23.9469C74.1317 23.9469 74.3824 24.1176 74.5317 24.4589C74.681 24.6403 74.7557 24.8323 74.7557 25.0349C74.7557 25.2163 74.681 25.4669 74.5317 25.7869L74.3717 26.0269C74.3397 26.0909 74.3237 26.1336 74.3237 26.1549C74.3237 26.1763 74.329 26.1869 74.3397 26.1869C74.3824 26.1869 74.4304 26.1496 74.4837 26.0749C74.537 26.0216 74.6064 25.9576 74.6917 25.8829C74.777 25.7976 74.8357 25.7549 74.8677 25.7549C74.8784 25.7549 74.8944 25.7496 74.9157 25.7389C74.937 25.7176 74.9477 25.6749 74.9477 25.6109L75.1077 25.4669C75.1397 25.4669 75.1984 25.4403 75.2837 25.3869C75.369 25.3229 75.4864 25.2323 75.6357 25.1149C75.753 25.0296 75.8597 24.9869 75.9557 24.9869C75.9877 24.9763 76.0357 24.9709 76.0997 24.9709C76.3024 24.9709 76.4677 25.0829 76.5957 25.3069C76.7237 25.5203 76.7877 25.7976 76.7877 26.1389L76.4517 27.0029L77.0277 26.2989C77.1237 26.1816 77.2517 26.0536 77.4117 25.9149C77.433 25.8509 77.4597 25.8136 77.4917 25.8029C77.5344 25.7816 77.561 25.7709 77.5717 25.7709C77.5824 25.7709 77.593 25.7656 77.6037 25.7549C77.625 25.7443 77.6357 25.7283 77.6357 25.7069C77.6784 25.6749 77.7317 25.6376 77.7957 25.5949C77.8704 25.5416 77.9184 25.4989 77.9397 25.4669C78.0357 25.4243 78.1637 25.4029 78.3237 25.4029C78.4944 25.4029 78.6544 25.4403 78.8037 25.5149C78.953 25.5789 79.065 25.6856 79.1397 25.8349C79.1717 25.8883 79.2144 25.9629 79.2677 26.0589C79.3317 26.1443 79.3744 26.2296 79.3957 26.3149C79.4277 26.3896 79.4437 26.4856 79.4437 26.6029L79.3797 26.9549C79.3797 26.9443 79.353 27.1256 79.2997 27.4989C79.2464 27.6163 79.2197 27.7976 79.2197 28.0429C79.2197 28.1923 79.225 28.2883 79.2357 28.3309C79.257 28.3736 79.2997 28.3949 79.3637 28.3949C79.5024 28.3629 79.6197 28.3149 79.7157 28.2509C79.8224 28.1869 79.945 28.0909 80.0837 27.9629C80.169 27.8776 80.2544 27.8349 80.3397 27.8349C80.4357 27.8349 80.5157 27.8776 80.5797 27.9629C80.6544 28.0376 80.7077 28.1283 80.7397 28.2349C80.7717 28.2989 80.713 28.4696 80.5637 28.7469C80.425 29.0243 80.3184 29.1629 80.2437 29.1629C80.2224 29.1629 80.1637 29.2056 80.0677 29.2909C79.9717 29.3656 79.8917 29.4243 79.8277 29.4669C79.6464 29.6696 79.497 29.7709 79.3797 29.7709C79.337 29.7709 79.2784 29.7869 79.2037 29.8189C79.1397 29.8403 79.081 29.8509 79.0277 29.8509ZM83.4663 30.4909C83.3383 30.5016 83.2316 30.4909 83.1463 30.4589C83.0716 30.4376 82.9596 30.3789 82.8103 30.2829C82.5756 30.1016 82.3783 29.8776 82.2183 29.6109C82.069 29.3443 81.9996 29.1203 82.0103 28.9389C82.021 28.9069 82.0263 28.8589 82.0263 28.7949C82.0263 28.7309 82.021 28.6829 82.0103 28.6509C81.9996 28.6083 81.9943 28.5816 81.9943 28.5709C81.9516 28.5389 81.925 28.5176 81.9143 28.5069C81.9143 28.4856 81.9196 28.4643 81.9303 28.4429C81.9516 28.4216 81.9676 28.4003 81.9783 28.3789C82.021 28.3683 82.0423 28.3469 82.0423 28.3149C82.0423 28.2829 82.0316 28.2456 82.0103 28.2029C81.9783 28.1176 81.9943 27.9256 82.0583 27.6269C82.133 27.3176 82.229 27.0296 82.3463 26.7629C82.4316 26.5603 82.565 26.2989 82.7463 25.9789C82.9383 25.6589 83.1143 25.4136 83.2743 25.2429C83.541 24.9336 83.7596 24.7043 83.9303 24.5549C84.1116 24.4056 84.3143 24.2883 84.5383 24.2029C84.7196 24.1283 84.9063 24.0909 85.0983 24.0909C85.3543 24.0909 85.5783 24.1656 85.7703 24.3149C86.3783 24.4856 86.7463 24.8163 86.8743 25.3069C86.9383 25.5309 86.9703 25.7816 86.9703 26.0589C86.9703 26.6563 86.7836 27.3123 86.4103 28.0269C86.2076 28.4323 86.005 28.7683 85.8023 29.0349C85.6103 29.2909 85.3756 29.5363 85.0983 29.7709C84.9063 29.9309 84.6503 30.0803 84.3303 30.2189C84.021 30.3469 83.733 30.4376 83.4663 30.4909ZM84.8583 28.0749C84.997 27.8723 85.109 27.6803 85.1943 27.4989C85.2796 27.3176 85.3543 27.0723 85.4183 26.7629C85.461 26.5709 85.4823 26.3789 85.4823 26.1869C85.4823 25.8456 85.4343 25.6589 85.3383 25.6269C85.2636 25.5949 85.189 25.5789 85.1143 25.5789C84.8903 25.5789 84.6556 25.7229 84.4103 26.0109C84.165 26.2776 83.9836 26.5389 83.8663 26.7949C83.749 27.0509 83.6156 27.4616 83.4663 28.0269C83.4236 28.1976 83.4023 28.3683 83.4023 28.5389C83.4023 28.7096 83.429 28.8483 83.4823 28.9549C83.5356 29.0509 83.6156 29.0989 83.7223 29.0989C84.021 29.0989 84.3996 28.7576 84.8583 28.0749ZM91.5849 26.8109L91.1209 27.1949C91.4836 27.6643 91.7769 28.0696 92.0009 28.4109C92.2143 28.7203 92.3849 28.9443 92.5129 29.0829C92.6409 29.2109 92.8543 29.3549 93.1529 29.5149C93.1849 29.5469 93.2169 29.6003 93.2489 29.6749C93.2916 29.7496 93.3129 29.8296 93.3129 29.9149C93.2489 30.2136 92.9609 30.3629 92.4489 30.3629C92.1503 30.3629 91.8196 30.1656 91.4569 29.7709C91.0943 29.3656 90.5663 28.7043 89.8729 27.7869C89.7769 27.9683 89.6596 28.3363 89.5209 28.8909C89.4036 29.3283 89.3023 29.6536 89.2169 29.8669C89.1423 30.0696 89.0516 30.1763 88.9449 30.1869C88.8916 30.1869 88.7796 30.1709 88.6089 30.1389C88.4489 30.1069 88.2889 30.0483 88.1289 29.9629C87.9796 29.8669 87.9049 29.7389 87.9049 29.5789C87.9049 29.4083 87.9369 29.2109 88.0009 28.9869C88.0756 28.7523 88.1236 28.6083 88.1449 28.5549C88.2089 28.3843 88.2516 28.2563 88.2729 28.1709C88.6676 27.0616 89.0463 26.0749 89.4089 25.2109C89.4516 25.1149 89.5049 24.9709 89.5689 24.7789C89.6543 24.5336 89.7343 24.3363 89.8089 24.1869C89.8836 24.0269 89.9796 23.8776 90.0969 23.7389C90.1396 23.6429 90.2729 23.5949 90.4969 23.5949C90.7636 23.5949 90.9609 23.6589 91.0889 23.7869C91.2169 23.9149 91.2809 24.0589 91.2809 24.2189C91.2809 24.3043 91.2649 24.3843 91.2329 24.4589C91.2009 24.5336 91.1583 24.6083 91.1049 24.6829C91.0623 24.7469 91.0249 24.8109 90.9929 24.8749L90.9449 25.0029C90.8489 25.2803 90.7369 25.5523 90.6089 25.8189C90.4916 26.0856 90.4116 26.2616 90.3689 26.3469C90.5076 26.2083 90.5823 26.1229 90.5929 26.0909C90.6036 26.0589 90.9983 25.7389 91.7769 25.1309C92.4169 24.6403 92.8009 24.3309 92.9289 24.2029C92.9609 24.1603 93.0356 24.1389 93.1529 24.1389C93.2916 24.1389 93.3823 24.1496 93.4249 24.1709C93.5529 24.2029 93.6543 24.2829 93.7289 24.4109C93.8143 24.5283 93.8569 24.6883 93.8569 24.8909C93.8569 25.0083 93.7983 25.1203 93.6809 25.2269C93.5636 25.3336 93.3609 25.4936 93.0729 25.7069L92.4969 26.1229L92.2729 26.3149C92.2303 26.3363 92.0703 26.4483 91.7929 26.6509L91.5849 26.8109ZM98.5121 30.3149C98.4161 30.2189 98.3361 30.0963 98.2721 29.9469C98.2187 29.7869 98.1494 29.5469 98.0641 29.2269C98.0427 29.1629 98.0321 29.0723 98.0321 28.9549C98.0321 28.8269 98.0321 28.7363 98.0321 28.6829C97.9894 28.7789 97.9361 28.8856 97.8721 29.0029C97.8081 29.1096 97.7441 29.1843 97.6801 29.2269C97.4347 29.4723 97.1894 29.6536 96.9441 29.7709C96.6027 29.9843 96.3094 30.0909 96.0641 30.0909C95.7654 30.0909 95.5094 29.9523 95.2961 29.6749C94.9547 29.3976 94.7841 29.0669 94.7841 28.6829C94.7841 28.6296 94.7947 28.5283 94.8161 28.3789C94.8374 27.9843 94.8907 27.6056 94.9761 27.2429C95.0721 26.8803 95.2481 26.4163 95.5041 25.8509L95.9841 24.8909L96.2401 24.3949C96.2934 24.3736 96.3787 24.3629 96.4961 24.3629C96.6667 24.3629 96.8267 24.3949 96.9761 24.4589C97.1254 24.5229 97.2054 24.6083 97.2161 24.7149C97.2481 24.7576 97.2641 24.8376 97.2641 24.9549C97.2641 25.2963 97.1201 25.7496 96.8321 26.3149L96.7041 26.6189C96.5121 27.0776 96.3734 27.4349 96.2881 27.6909C96.2027 27.9469 96.1601 28.1603 96.1601 28.3309C96.1601 28.5016 96.2241 28.6136 96.3521 28.6669C96.4054 28.6989 96.4694 28.7149 96.5441 28.7149C96.7574 28.7149 97.0134 28.5496 97.3121 28.2189C97.6214 27.8883 97.9361 27.3336 98.2561 26.5549C98.4054 26.1923 98.4961 25.8189 98.5281 25.4349C98.5067 25.3176 98.5387 25.1896 98.6241 25.0509C98.7094 24.9123 98.8214 24.8003 98.9601 24.7149C99.0027 24.6509 99.0614 24.6029 99.1361 24.5709C99.2107 24.5283 99.2587 24.5283 99.2801 24.5709L99.5361 24.5549C99.5681 24.5443 99.6161 24.5923 99.6801 24.6989C99.7547 24.8056 99.8081 24.8696 99.8401 24.8909C99.9467 24.9763 100 25.1469 100 25.4029C100 25.7549 99.8721 26.2403 99.6161 26.8589C99.4134 27.2856 99.2747 27.6163 99.2001 27.8509C99.1361 28.0749 99.0987 28.2936 99.0881 28.5069C99.0881 28.7309 99.1041 28.9069 99.1361 29.0349C99.1787 29.1523 99.2747 29.2749 99.4241 29.4029C99.5947 29.5203 99.6641 29.7976 99.6321 30.2349C99.6107 30.3096 99.5521 30.3683 99.4561 30.4109C99.3601 30.4536 99.2427 30.4749 99.1041 30.4749C98.8694 30.4749 98.6721 30.4216 98.5121 30.3149Z" fill="#3D3D3D"></path> </svg> 