<?xml version="1.0" encoding="UTF-8"?> <svg xmlns="http://www.w3.org/2000/svg" width="104" height="36" viewBox="0 0 104 36" fill="none"> <path d="M12.2829 0.912C12.4855 0.943999 12.6615 1.04533 12.8109 1.216C12.9602 1.38667 13.0349 1.57333 13.0349 1.776C13.0349 1.84 13.0295 1.888 13.0189 1.92C12.9762 2.03733 12.9335 2.12267 12.8909 2.176C12.8482 2.21867 12.7895 2.24 12.7149 2.24C12.6082 2.24 12.4482 2.18667 12.2349 2.08C12.1282 2.26133 12.0695 2.37867 12.0589 2.432C12.0162 2.592 11.9575 2.76267 11.8829 2.944C11.7869 3.06133 11.6429 3.40267 11.4509 3.968C11.2695 4.53333 11.1789 4.90133 11.1789 5.072C11.1255 5.22133 11.0455 5.49333 10.9389 5.888C10.8322 6.28267 10.7095 6.71467 10.5709 7.184C9.95219 9.31733 9.64819 10.368 9.65886 10.336C9.64819 10.5067 9.62153 10.7147 9.57886 10.96C9.55753 11.12 9.53619 11.3493 9.51486 11.648C9.52553 11.6693 9.53086 11.7067 9.53086 11.76C9.53086 11.824 9.51486 11.8773 9.48286 11.92C9.45086 11.9627 9.41886 11.9893 9.38686 12C9.24819 12.1173 9.05619 12.176 8.81086 12.176C8.54419 12.176 8.35753 12.1067 8.25086 11.968C8.09086 11.6907 8.02686 11.4773 8.05886 11.328C8.09086 10.9547 8.17619 10.3573 8.31486 9.536C8.37886 9.22667 8.44819 8.95467 8.52286 8.72C8.59753 8.47467 8.64553 8.368 8.66686 8.4L8.98686 7.248C9.05086 7.06667 9.09886 6.89067 9.13086 6.72C9.17353 6.53867 9.20553 6.416 9.22686 6.352C9.31219 5.94667 9.41353 5.568 9.53086 5.216C9.68019 4.864 9.83486 4.336 9.99486 3.632C10.0589 3.39733 10.1442 3.13067 10.2509 2.832C10.3682 2.53333 10.4429 2.37867 10.4749 2.368C10.1015 2.41067 9.81886 2.45333 9.62686 2.496C9.31753 2.56 9.00819 2.608 8.69886 2.64L7.61086 2.8C7.01353 2.88533 6.69353 2.928 6.65086 2.928L5.49886 5.6L4.68286 7.728C4.45886 8.48533 4.21886 9.22667 3.96286 9.952C3.93086 10.0587 3.86153 10.272 3.75486 10.592C3.64819 10.9013 3.55753 11.2373 3.48286 11.6L3.37086 12.16C3.29619 12.32 3.21086 12.4373 3.11486 12.512C3.02953 12.5867 2.91219 12.624 2.76286 12.624C2.43219 12.624 2.19219 12.5653 2.04286 12.448C1.90419 12.3307 1.83486 12.144 1.83486 11.888C1.87753 11.7493 1.94153 11.5733 2.02686 11.36C2.09086 11.1893 2.13886 11.0347 2.17086 10.896C2.24553 10.5973 2.32019 10.3307 2.39486 10.096L2.52286 9.712C2.86419 8.53867 3.15219 7.664 3.38686 7.088L3.81886 5.872C3.85086 5.808 3.90953 5.65333 3.99486 5.408L4.55486 3.744C4.81086 3.232 4.99219 2.768 5.09886 2.352C5.02419 2.23467 4.98686 2.10133 4.98686 1.952C4.98686 1.78133 5.03486 1.63733 5.13086 1.52C5.23753 1.40267 5.37619 1.344 5.54686 1.344C5.62153 1.344 5.67486 1.34933 5.70686 1.36C5.88819 1.41333 6.19753 1.45067 6.63486 1.472C7.07219 1.48267 7.29619 1.48267 7.30686 1.472C7.41353 1.41867 7.92019 1.328 8.82686 1.2C9.74419 1.072 10.6455 0.954666 11.5309 0.848L11.7069 0.832C11.8029 0.832 11.9949 0.858666 12.2829 0.912ZM11.0911 15.744C10.9844 15.744 10.9044 15.696 10.8511 15.6C10.8404 15.5893 10.7924 15.5253 10.7071 15.408C10.6218 15.2907 10.5791 15.12 10.5791 14.896C10.5791 14.8533 10.5898 14.768 10.6111 14.64C10.7284 14.192 10.7871 13.8827 10.7871 13.712C10.7871 13.6587 10.7978 13.5787 10.8191 13.472C10.8404 13.376 10.8564 13.2853 10.8671 13.2C10.9098 13.1253 10.9471 13.008 10.9791 12.848C11.0218 12.6987 11.0431 12.5653 11.0431 12.448C11.0431 12.3947 11.0591 12.3307 11.0911 12.256C11.1338 12.192 11.1818 12.1387 11.2351 12.096C11.2351 12.032 11.2511 11.936 11.2831 11.808C11.3151 11.6693 11.3364 11.5733 11.3471 11.52C11.4004 11.232 11.6084 10.5493 11.9711 9.472C12.3338 8.39467 12.6431 7.52533 12.8991 6.864C13.0271 6.56533 13.1338 6.288 13.2191 6.032C13.3044 5.776 13.3471 5.59467 13.3471 5.488C13.3471 5.44533 13.3578 5.408 13.3791 5.376C13.4111 5.33333 13.4591 5.28 13.5231 5.216C13.6084 5.13067 13.7204 5.088 13.8591 5.088C14.0404 5.088 14.2164 5.14667 14.3871 5.264C14.4618 5.38133 14.5151 5.48267 14.5471 5.568C14.5791 5.65333 14.5951 5.74933 14.5951 5.856C14.5951 5.888 14.5844 5.98933 14.5631 6.16C14.5631 6.384 14.4991 6.58667 14.3711 6.768C14.2431 6.94933 14.1844 7.03467 14.1951 7.024C14.7178 6.704 15.2031 6.544 15.6511 6.544C16.1311 6.544 16.5151 6.71467 16.8031 7.056C17.0911 7.38667 17.2351 7.78133 17.2351 8.24C17.2351 8.42133 17.1498 8.69333 16.9791 9.056C16.8084 9.408 16.6698 9.632 16.5631 9.728C16.4991 9.728 16.4138 9.84 16.3071 10.064C16.1791 10.2347 15.9338 10.416 15.5711 10.608C15.2191 10.7893 14.9791 10.8587 14.8511 10.816C14.8404 10.816 14.8244 10.832 14.8031 10.864C14.7818 10.8853 14.7711 10.9173 14.7711 10.96C14.7711 11.0027 14.6111 11.0773 14.2911 11.184C13.9711 11.2907 13.6938 11.344 13.4591 11.344C13.3311 11.344 13.2351 11.3387 13.1711 11.328C13.1071 11.3067 13.0431 11.2693 12.9791 11.216C12.9044 11.2907 12.8671 11.36 12.8671 11.424C12.8671 11.5307 12.8138 11.7013 12.7071 11.936C12.6004 12.16 12.5151 12.272 12.4511 12.272C12.4404 12.2827 12.4244 12.304 12.4031 12.336C12.3924 12.368 12.4084 12.4053 12.4511 12.448C12.4511 12.48 12.4458 12.5547 12.4351 12.672C12.4244 12.7893 12.3978 12.88 12.3551 12.944C12.3551 13.04 12.3391 13.168 12.3071 13.328C12.2751 13.4987 12.2378 13.6267 12.1951 13.712C12.1951 13.84 12.1738 13.9627 12.1311 14.08C12.0991 14.208 12.0618 14.272 12.0191 14.272C11.9551 14.2933 11.9231 14.448 11.9231 14.736C11.9124 14.992 11.8271 15.2213 11.6671 15.424C11.5178 15.6267 11.3738 15.728 11.2351 15.728L11.0911 15.744ZM13.2831 10.128C13.4324 10.128 13.7098 10.048 14.1151 9.888C14.5311 9.71733 14.8351 9.552 15.0271 9.392C15.2724 9.18933 15.4591 9.00267 15.5871 8.832C15.7151 8.66133 15.7791 8.49067 15.7791 8.32C15.7791 8.17067 15.7311 8.02667 15.6351 7.888C15.5604 7.77067 15.4484 7.712 15.2991 7.712C14.9471 7.712 14.4884 7.984 13.9231 8.528C13.7311 8.73067 13.5604 8.98667 13.4111 9.296C13.2618 9.59467 13.1871 9.824 13.1871 9.984C13.1871 10.08 13.2191 10.128 13.2831 10.128ZM19.874 12C19.266 12 18.7753 11.8293 18.402 11.488C18.0287 11.1467 17.842 10.6613 17.842 10.032C17.842 9.78667 17.858 9.51467 17.89 9.216C17.9113 8.96 18.0127 8.608 18.194 8.16C18.386 7.712 18.642 7.27467 18.962 6.848C19.2927 6.42133 19.6767 6.10667 20.114 5.904C20.3167 5.808 20.4873 5.744 20.626 5.712C20.7647 5.66933 20.9247 5.648 21.106 5.648C21.5433 5.648 21.8953 5.728 22.162 5.888C22.4393 6.048 22.6313 6.22933 22.738 6.432C22.8553 6.63467 22.914 6.81067 22.914 6.96V7.04V7.088C22.914 7.216 22.8393 7.45067 22.69 7.792C22.5407 8.13333 22.3007 8.45333 21.97 8.752C21.65 9.05067 21.234 9.216 20.722 9.248C20.466 9.248 20.2153 9.22667 19.97 9.184C19.7353 9.13067 19.586 9.104 19.522 9.104C19.362 9.104 19.2607 9.16267 19.218 9.28C19.1753 9.39733 19.154 9.59467 19.154 9.872C19.186 10.1707 19.266 10.3787 19.394 10.496C19.5327 10.6133 19.73 10.672 19.986 10.672C20.114 10.672 20.2633 10.6347 20.434 10.56C20.6047 10.4747 20.8073 10.3413 21.042 10.16C21.17 10.0533 21.2713 9.97867 21.346 9.936C21.4207 9.89333 21.5113 9.872 21.618 9.872C21.714 9.872 21.826 9.936 21.954 10.064C22.082 10.192 22.1513 10.3147 22.162 10.432C22.1407 10.56 22.0233 10.752 21.81 11.008C21.5967 11.264 21.3193 11.4933 20.978 11.696C20.6367 11.8987 20.2687 12 19.874 12ZM20.434 8.144C20.6367 8.144 20.7753 8.12267 20.85 8.08C20.9567 8.02667 21.1167 7.89333 21.33 7.68C21.554 7.456 21.6713 7.30133 21.682 7.216C21.682 7.10933 21.634 7.024 21.538 6.96C21.4527 6.88533 21.33 6.83733 21.17 6.816H20.994C20.8553 6.816 20.6527 6.93333 20.386 7.168C20.13 7.392 19.906 7.65333 19.714 7.952C19.7247 8.00533 19.8047 8.05333 19.954 8.096C20.1033 8.128 20.2633 8.144 20.434 8.144ZM23.4097 10.896C23.3884 10.8533 23.3777 10.7893 23.3777 10.704V10.64C23.3777 10.4907 23.3297 10.3733 23.2337 10.288C23.2551 10.1173 23.2764 9.99467 23.2977 9.92C23.3937 9.28 23.5004 8.78933 23.6177 8.448C23.7457 8.096 23.9964 7.70667 24.3697 7.28C24.4551 7.184 24.5457 7.09333 24.6417 7.008C24.8017 6.74133 25.0364 6.51733 25.3457 6.336C25.6657 6.144 26.0017 5.99467 26.3537 5.888C26.5991 5.81333 26.7857 5.776 26.9137 5.776C26.9671 5.776 27.0577 5.78667 27.1857 5.808C27.1857 5.75467 27.1697 5.68533 27.1377 5.6C27.1164 5.504 27.1057 5.42933 27.1057 5.376C27.1271 5.312 27.1377 5.264 27.1377 5.232C27.1377 5.18933 27.1217 5.104 27.0897 4.976C27.0471 4.92267 27.0151 4.85867 26.9937 4.784C26.9831 4.69867 26.9724 4.64533 26.9617 4.624C26.9404 4.42133 26.8871 4.272 26.8017 4.176C26.8337 3.89867 26.7111 3.66933 26.4337 3.488C26.1671 3.30667 25.8631 3.216 25.5217 3.216C25.2444 3.216 25.0151 3.28 24.8337 3.408C24.7271 3.42933 24.6097 3.44 24.4817 3.44C24.2791 3.44 24.1404 3.40267 24.0657 3.328C23.7991 3.05067 23.6657 2.82133 23.6657 2.64C23.6657 2.544 23.7084 2.45867 23.7937 2.384C23.8791 2.29867 24.0177 2.20267 24.2097 2.096L24.5777 1.872C24.6631 1.89333 24.7324 1.904 24.7857 1.904C24.7964 1.89333 24.8231 1.87733 24.8657 1.856C24.9191 1.83467 24.9617 1.824 24.9937 1.824C25.0364 1.824 25.0791 1.82933 25.1217 1.84C25.2497 1.81867 25.3404 1.808 25.3937 1.808C25.5111 1.808 25.6444 1.82933 25.7937 1.872C25.9537 1.904 26.0764 1.92533 26.1617 1.936C26.5457 2 26.9031 2.17067 27.2337 2.448C27.5751 2.72533 27.8311 3.04533 28.0017 3.408C28.1617 3.728 28.2737 3.96267 28.3377 4.112C28.4017 4.272 28.4604 4.56 28.5137 4.976C28.5777 5.38133 28.6097 5.72267 28.6097 6C28.6097 6.10667 28.6044 6.18133 28.5937 6.224C28.4657 6.98133 28.2524 7.76533 27.9537 8.576C27.6657 9.38667 27.3244 10.1227 26.9297 10.784C26.6951 11.1893 26.3697 11.5093 25.9537 11.744C25.5377 11.9787 25.0951 12.1067 24.6257 12.128L24.3537 11.92C24.0871 11.728 23.8791 11.5627 23.7297 11.424C23.5911 11.2853 23.4844 11.104 23.4097 10.88V10.896ZM24.6417 10.688C24.6951 10.7627 24.7591 10.8053 24.8337 10.816C24.8551 10.8053 24.8977 10.7893 24.9617 10.768C25.0257 10.736 25.0684 10.6987 25.0897 10.656C25.3031 10.496 25.5484 10.2133 25.8257 9.808C26.1031 9.392 26.3004 9.04 26.4177 8.752C26.5457 8.368 26.6417 8.13867 26.7057 8.064C26.8871 7.712 26.9724 7.39733 26.9617 7.12C26.1404 7.46133 25.5004 8.04267 25.0417 8.864C25.0097 9.04533 24.9511 9.24267 24.8657 9.456C24.7591 9.75467 24.7004 9.98933 24.6897 10.16C24.6364 10.256 24.6097 10.3573 24.6097 10.464C24.6097 10.5067 24.6204 10.5813 24.6417 10.688ZM31.0477 11.872C30.9944 11.8827 30.9251 11.888 30.8397 11.888C30.7011 11.888 30.5891 11.8667 30.5037 11.824C30.4184 11.7707 30.3171 11.6853 30.1997 11.568C29.9544 11.4507 29.7411 11.2533 29.5597 10.976C29.3784 10.6987 29.2984 10.48 29.3197 10.32C29.3731 9.808 29.5171 9.25333 29.7517 8.656C29.9864 8.048 30.2904 7.504 30.6637 7.024C31.0477 6.53333 31.4531 6.192 31.8797 6C32.0717 5.92533 32.2477 5.888 32.4077 5.888C32.7384 5.888 32.9571 5.99467 33.0637 6.208C33.1384 6.35733 33.1757 6.46933 33.1757 6.544C33.1757 6.672 33.1011 6.75733 32.9517 6.8C32.9197 6.8 32.8824 6.816 32.8397 6.848C32.7971 6.88 32.7757 6.912 32.7757 6.944C32.7864 6.95467 32.8344 6.96 32.9197 6.96C33.1011 6.96 33.3251 6.93333 33.5917 6.88C33.8584 6.82667 34.0291 6.768 34.1037 6.704C34.1677 6.672 34.2211 6.656 34.2637 6.656L34.4877 6.688C34.6691 6.74133 34.7597 6.80533 34.7597 6.88C34.7597 6.93333 34.7757 7.00267 34.8077 7.088C34.8504 7.17333 34.8877 7.216 34.9197 7.216C34.9731 7.216 34.9997 7.25333 34.9997 7.328C34.9997 7.392 34.9624 7.47733 34.8877 7.584C34.8237 7.68 34.7277 7.776 34.5997 7.872C34.5464 7.904 34.4664 7.952 34.3597 8.016C34.2637 8.08 34.2051 8.13333 34.1837 8.176C34.1731 8.21867 34.1784 8.27733 34.1997 8.352C34.2424 8.43733 34.2637 8.544 34.2637 8.672C34.2637 9.03467 34.0877 9.46133 33.7357 9.952C33.3837 10.432 32.9517 10.8587 32.4397 11.232C31.9384 11.6053 31.4744 11.8187 31.0477 11.872ZM31.0957 10.528C31.1597 10.528 31.3197 10.464 31.5757 10.336C31.7144 10.1973 31.8264 10.112 31.9117 10.08C31.9437 10.08 31.9704 10.0533 31.9917 10C32.0237 9.936 32.0717 9.84533 32.1357 9.728C32.2104 9.6 32.3277 9.43467 32.4877 9.232C32.6584 9.04 32.7757 8.88533 32.8397 8.768C32.9144 8.65067 32.9517 8.53333 32.9517 8.416C32.9517 8.37333 32.9411 8.29867 32.9197 8.192C32.9091 8.16 32.8717 8.13333 32.8077 8.112C32.7544 8.08 32.7011 8.05333 32.6477 8.032C32.5944 8.032 32.5411 8.048 32.4877 8.08C32.4344 8.10133 32.3971 8.112 32.3757 8.112C32.3224 8.112 32.2637 8.08533 32.1997 8.032L31.9437 7.712L31.6717 7.984C31.4264 8.22933 31.2184 8.56 31.0477 8.976C30.8877 9.392 30.7917 9.77067 30.7597 10.112C30.7491 10.2613 30.7704 10.368 30.8237 10.432C30.8877 10.4853 30.9784 10.5173 31.0957 10.528ZM43.4566 10.704C43.5313 10.8107 43.5686 10.912 43.5686 11.008C43.5686 11.1147 43.5313 11.2107 43.4566 11.296C43.3819 11.3813 43.3179 11.424 43.2646 11.424C43.0086 11.424 42.7206 11.3653 42.4006 11.248C42.0913 11.12 41.9366 10.9387 41.9366 10.704V9.712C41.9366 9.28533 41.8993 9.04 41.8246 8.976C41.6646 8.89067 41.4513 9.01333 41.1846 9.344C40.9179 9.664 40.5926 10.144 40.2086 10.784C40.0593 11.0187 39.9313 11.1893 39.8246 11.296C39.7179 11.392 39.6219 11.44 39.5366 11.44C39.4619 11.44 39.3979 11.4187 39.3446 11.376C39.0139 11.28 38.8486 11.0933 38.8486 10.816C38.8486 10.784 38.8593 10.7147 38.8806 10.608C38.9766 10.2773 39.0779 9.90933 39.1846 9.504C39.3019 9.09867 39.3926 8.752 39.4566 8.464C39.4246 8.4 39.3713 8.368 39.2966 8.368C39.1899 8.368 39.0673 8.42133 38.9286 8.528C38.8859 8.56 38.8059 8.61333 38.6886 8.688C38.5819 8.752 38.4699 8.84267 38.3526 8.96C38.2459 9.06667 38.1339 9.216 38.0166 9.408C37.9739 9.48267 37.8993 9.59467 37.7926 9.744C37.2593 10.5547 36.9339 11.0133 36.8166 11.12C36.7633 11.2693 36.7099 11.376 36.6566 11.44C36.6139 11.4933 36.5606 11.52 36.4966 11.52C36.4539 11.52 36.4006 11.504 36.3366 11.472C36.1339 11.376 35.9686 11.2427 35.8406 11.072C35.7233 10.8907 35.6646 10.6773 35.6646 10.432C35.6646 10.272 35.7126 9.952 35.8086 9.472C35.9046 8.992 36.0113 8.544 36.1286 8.128C36.2139 7.95733 36.2779 7.78133 36.3206 7.6C36.3739 7.408 36.4006 7.27467 36.4006 7.2C36.4326 6.99733 36.4966 6.72533 36.5926 6.384C36.6886 6.032 36.7579 5.84 36.8006 5.808C36.8646 5.744 36.9819 5.712 37.1526 5.712C37.2699 5.712 37.3819 5.73333 37.4886 5.776C37.5953 5.81867 37.6699 5.88267 37.7126 5.968C37.8513 6.128 37.9206 6.34667 37.9206 6.624C37.9206 6.88 37.8673 7.152 37.7606 7.44C37.6539 7.68533 37.5206 8.04267 37.3606 8.512C37.3606 8.512 37.3713 8.50133 37.3926 8.48C37.6486 8.11733 37.9793 7.712 38.3846 7.264C38.5766 7.05067 38.7899 6.88533 39.0246 6.768C39.2699 6.65067 39.4673 6.592 39.6166 6.592C39.8726 6.63467 40.0859 6.76267 40.2566 6.976C40.4379 7.17867 40.5499 7.46133 40.5926 7.824C40.5926 7.952 40.5819 8.112 40.5606 8.304C40.5393 8.48533 40.5233 8.60267 40.5126 8.656C40.5553 8.60267 40.6619 8.47467 40.8326 8.272C41.0139 8.05867 41.2326 7.84 41.4886 7.616C41.7233 7.43467 41.9419 7.344 42.1446 7.344C42.3153 7.344 42.4646 7.41333 42.5926 7.552C42.8273 7.69067 43.0086 7.91467 43.1366 8.224C43.2753 8.53333 43.3446 8.88533 43.3446 9.28C43.3446 9.41867 43.3393 9.52533 43.3286 9.6C43.3179 9.67467 43.3126 9.78133 43.3126 9.92C43.3126 10.0693 43.3286 10.2133 43.3606 10.352C43.3926 10.48 43.4246 10.5973 43.4566 10.704ZM52.103 1.552C52.3057 1.91467 52.407 2.208 52.407 2.432C52.407 2.57067 52.3803 2.72 52.327 2.88C52.2737 3.04 52.199 3.22133 52.103 3.424C52.0177 3.616 51.959 3.74933 51.927 3.824C51.7243 4.21867 51.4363 4.61333 51.063 5.008C50.6897 5.40267 50.2523 5.77067 49.751 6.112C49.303 6.50667 48.8657 6.81067 48.439 7.024L48.279 7.104C48.5563 7.17867 48.8443 7.34933 49.143 7.616C49.239 7.712 49.287 7.82933 49.287 7.968C49.287 8 49.2763 8.05867 49.255 8.144C49.2443 8.272 49.2337 8.39467 49.223 8.512C49.2123 8.61867 49.207 8.72 49.207 8.816C49.1537 8.93333 49.095 9.12 49.031 9.376C48.967 9.62133 48.8977 9.84 48.823 10.032C48.7483 10.224 48.6417 10.432 48.503 10.656C48.3003 11.008 48.135 11.248 48.007 11.376C47.8897 11.4933 47.6443 11.6747 47.271 11.92L46.823 12.208C46.791 12.208 46.679 12.208 46.487 12.208C46.295 12.2187 46.0977 12.1707 45.895 12.064C45.703 11.968 45.543 11.8133 45.415 11.6C45.3297 11.44 45.255 11.264 45.191 11.072C45.1377 10.8693 45.111 10.688 45.111 10.528C45.111 10.4107 45.127 10.32 45.159 10.256C45.2977 9.52 45.4097 8.98133 45.495 8.64C45.5803 8.288 45.6337 8.08533 45.655 8.032L45.799 7.696C45.8417 7.6 45.879 7.50933 45.911 7.424C45.943 7.328 45.959 7.22667 45.959 7.12L45.943 6.944C45.9217 6.67733 46.0017 6.46933 46.183 6.32C46.3537 6.17067 46.4763 6.016 46.551 5.856C46.6257 5.67467 46.743 5.424 46.903 5.104C47.0737 4.784 47.2017 4.57067 47.287 4.464L47.607 4.016C47.7457 3.80267 47.863 3.632 47.959 3.504C48.0657 3.36533 48.1883 3.23733 48.327 3.12C48.4443 2.90667 48.6043 2.704 48.807 2.512C49.0203 2.30933 49.271 2.09067 49.559 1.856C49.7937 1.664 49.9377 1.54133 49.991 1.488C50.0443 1.43467 50.1457 1.38667 50.295 1.344C50.455 1.30133 50.6097 1.264 50.759 1.232L51.111 1.136C51.207 1.08267 51.3617 1.104 51.575 1.2C51.799 1.28533 51.975 1.40267 52.103 1.552ZM50.951 3.232C51.143 2.848 51.239 2.53867 51.239 2.304C51.239 2.21867 51.2283 2.16 51.207 2.128C51.0577 2.20267 50.663 2.54933 50.023 3.168C48.7857 4.40533 48.055 5.296 47.831 5.84L47.943 5.856C48.423 5.67467 48.871 5.41867 49.287 5.088C49.7137 4.74667 50.071 4.41067 50.359 4.08C50.647 3.73867 50.8443 3.456 50.951 3.232ZM47.847 8.64C47.847 8.27733 47.8417 8.048 47.831 7.952C47.8203 7.856 47.7883 7.73867 47.735 7.6L47.815 7.328L47.527 7.424C47.4203 7.46667 47.3457 7.54133 47.303 7.648C47.2817 7.712 47.2497 7.82933 47.207 8C47.1643 8.17067 47.111 8.288 47.047 8.352C47.0043 8.39467 46.9137 8.736 46.775 9.376C46.6363 10.016 46.567 10.416 46.567 10.576C46.567 10.672 46.6043 10.72 46.679 10.72C46.7323 10.72 46.7963 10.688 46.871 10.624C46.9563 10.56 47.0417 10.464 47.127 10.336C47.319 10.0907 47.4897 9.70133 47.639 9.168C47.7457 8.85867 47.815 8.68267 47.847 8.64ZM50.8446 14.976C50.6633 14.976 50.4926 14.88 50.3326 14.688C50.1833 14.496 50.1086 14.2773 50.1086 14.032C50.1086 13.936 50.1246 13.84 50.1566 13.744C50.1673 13.7013 50.1939 13.6 50.2366 13.44C50.2899 13.2907 50.3219 13.1627 50.3326 13.056C50.3539 12.9387 50.4179 12.7253 50.5246 12.416C50.6313 12.1067 50.7166 11.8987 50.7806 11.792C50.8339 11.696 50.8766 11.584 50.9086 11.456C50.9406 11.3173 50.9566 11.2 50.9566 11.104C51.0313 10.8693 51.1006 10.7093 51.1646 10.624C51.2393 10.3893 51.3193 10.208 51.4046 10.08C51.4153 10.048 51.4259 9.97333 51.4366 9.856C51.4579 9.728 51.4953 9.65333 51.5486 9.632C51.5806 9.48267 51.6073 9.38133 51.6286 9.328C51.7033 8.99733 51.8419 8.58133 52.0446 8.08C52.2046 7.62133 52.2846 7.312 52.2846 7.152C52.2846 6.98133 52.2259 6.87467 52.1086 6.832C51.9913 6.78933 51.9326 6.64 51.9326 6.384C51.9326 6.24533 51.9539 6.11733 51.9966 6C52.0393 5.88267 52.0979 5.808 52.1726 5.776C52.3326 5.712 52.5406 5.68 52.7966 5.68C52.9673 5.68 53.0526 5.696 53.0526 5.728C53.0526 5.76 53.0579 5.78667 53.0686 5.808C53.0793 5.81867 53.1006 5.824 53.1326 5.824C53.1646 5.78133 53.2446 5.89333 53.3726 6.16C53.5006 6.416 53.5646 6.58667 53.5646 6.672C53.5433 6.704 53.5326 6.72533 53.5326 6.736C53.5433 6.74667 53.5646 6.752 53.5966 6.752C53.6713 6.72 53.8099 6.65067 54.0126 6.544C54.2259 6.42667 54.3593 6.336 54.4126 6.272C54.4339 6.26133 54.4713 6.24533 54.5246 6.224C54.5779 6.192 54.6206 6.16 54.6526 6.128C54.7699 6.08533 54.9033 6.064 55.0526 6.064C55.2233 6.064 55.3886 6.09067 55.5486 6.144C55.7086 6.19733 55.8419 6.272 55.9486 6.368C56.1086 6.57067 56.2419 6.80533 56.3486 7.072C56.4553 7.33867 56.5086 7.6 56.5086 7.856C56.5086 8.06933 56.4659 8.288 56.3806 8.512C56.3593 8.576 56.2899 8.704 56.1726 8.896C56.0659 9.07733 55.9913 9.2 55.9486 9.264C55.5219 9.92533 54.9353 10.4693 54.1886 10.896C54.0499 10.992 53.8473 11.0827 53.5806 11.168C53.3246 11.2427 53.1379 11.28 53.0206 11.28C52.9566 11.28 52.8873 11.2267 52.8126 11.12C52.7486 11.0027 52.6899 10.8693 52.6366 10.72C52.4979 11.0507 52.4179 11.2747 52.3966 11.392C52.3966 11.424 52.3859 11.4773 52.3646 11.552C52.3539 11.616 52.3273 11.664 52.2846 11.696C52.2846 11.7067 52.2739 11.7333 52.2526 11.776C52.2419 11.8187 52.2099 11.8773 52.1566 11.952L51.8846 12.736C51.7566 13.0453 51.6766 13.2907 51.6446 13.472C51.6126 13.8453 51.5273 14.1867 51.3886 14.496C51.2499 14.816 51.0686 14.976 50.8446 14.976ZM53.3566 9.76C53.5166 9.68533 53.7406 9.568 54.0286 9.408C54.3273 9.248 54.5246 9.10933 54.6206 8.992C54.6953 8.90667 54.7433 8.816 54.7646 8.72C54.7966 8.624 54.8233 8.53867 54.8446 8.464C54.9513 8.19733 55.0259 8 55.0686 7.872C55.1006 7.808 55.1166 7.73333 55.1166 7.648C55.1166 7.53067 55.0846 7.44 55.0206 7.376C54.8926 7.36533 54.6846 7.42933 54.3966 7.568C54.1193 7.696 53.8579 7.92 53.6126 8.24C53.2606 8.69867 53.0846 9.088 53.0846 9.408C53.0846 9.51467 53.1059 9.6 53.1486 9.664C53.2019 9.728 53.2713 9.76 53.3566 9.76ZM58.715 11.712C58.5337 11.7547 58.315 11.6587 58.059 11.424C57.803 11.1893 57.6537 10.9707 57.611 10.768C57.5897 10.6613 57.579 10.5707 57.579 10.496C57.579 10.08 57.7123 9.57867 57.979 8.992C58.2457 8.39467 58.603 7.83467 59.051 7.312C59.5097 6.78933 60.011 6.41067 60.555 6.176C60.779 6.05867 60.923 6 60.987 6C61.051 6 61.195 6.05867 61.419 6.176C61.6323 6.22933 61.803 6.288 61.931 6.352C62.059 6.416 62.1763 6.51733 62.283 6.656C62.4217 6.93333 62.523 7.27467 62.587 7.68C62.651 7.904 62.683 8.064 62.683 8.16C62.683 8.24533 62.651 8.32 62.587 8.384C62.5763 8.39467 62.555 8.416 62.523 8.448C62.5017 8.48 62.491 8.50667 62.491 8.528C62.491 8.53867 62.5017 8.544 62.523 8.544C62.523 8.55467 62.5177 8.58133 62.507 8.624C62.4963 8.656 62.475 8.704 62.443 8.768C62.315 9.17333 62.251 9.488 62.251 9.712C62.251 9.78667 62.2617 9.87733 62.283 9.984C62.3897 10.2613 62.523 10.4 62.683 10.4C62.8323 10.4 63.003 10.304 63.195 10.112C63.355 10.0053 63.515 9.952 63.675 9.952C63.771 9.952 63.819 9.97867 63.819 10.032C63.8297 10.0427 63.851 10.0587 63.883 10.08C63.915 10.1013 63.947 10.112 63.979 10.112C64.0217 10.112 64.043 10.16 64.043 10.256C64.043 10.3413 64.0217 10.4533 63.979 10.592C63.947 10.7307 63.9043 10.8427 63.851 10.928C63.7763 11.0027 63.7177 11.0667 63.675 11.12C63.6323 11.1733 63.611 11.216 63.611 11.248L63.371 11.472C63.1683 11.5893 62.9283 11.648 62.651 11.648C62.363 11.648 62.1337 11.5893 61.963 11.472C61.7923 11.3547 61.6323 11.2107 61.483 11.04C61.3337 10.8587 61.2377 10.6987 61.195 10.56L61.115 10.4L60.651 10.704L60.251 11.12C60.1657 11.2267 60.091 11.28 60.027 11.28H59.867C59.867 11.3547 59.7177 11.4453 59.419 11.552C59.1203 11.6587 58.8857 11.712 58.715 11.712ZM59.051 10.368C59.1683 10.368 59.4083 10.2347 59.771 9.968C60.1443 9.69067 60.395 9.472 60.523 9.312C60.5657 9.25867 60.619 9.184 60.683 9.088C60.7577 8.98133 60.8217 8.90133 60.875 8.848C61.0457 8.64533 61.1683 8.48533 61.243 8.368C61.3283 8.24 61.371 8.11733 61.371 8C61.371 7.91467 61.3337 7.79733 61.259 7.648C61.2163 7.52 61.1523 7.456 61.067 7.456C61.0243 7.456 60.9017 7.49333 60.699 7.568C60.4963 7.68533 60.2563 7.92533 59.979 8.288C59.7123 8.65067 59.4777 9.01867 59.275 9.392C59.0723 9.76533 58.971 10.0373 58.971 10.208C58.971 10.24 58.9817 10.272 59.003 10.304C59.0243 10.336 59.0403 10.3573 59.051 10.368ZM73.2986 9.888C73.3199 9.984 73.3306 10.112 73.3306 10.272C73.3306 10.5387 73.2826 10.7787 73.1866 10.992C73.0906 11.2053 72.9466 11.4773 72.7546 11.808C72.7333 11.8507 72.6639 11.968 72.5466 12.16C72.4293 12.3627 72.3386 12.5653 72.2746 12.768C72.2106 12.96 72.1306 13.0987 72.0346 13.184C71.9493 13.2693 71.7999 13.376 71.5866 13.504L71.3466 13.536C71.2613 13.3973 71.1653 13.2747 71.0586 13.168C70.9519 13.0507 70.8719 12.944 70.8186 12.848C70.7653 12.752 70.7279 12.6133 70.7066 12.432L71.4746 10.88C71.3893 10.9013 71.2826 10.9333 71.1546 10.976C71.0266 11.0187 70.9253 11.0453 70.8506 11.056H70.8666C70.8026 11.088 70.7333 11.1147 70.6586 11.136C70.5946 11.1573 70.5253 11.1573 70.4506 11.136C70.3013 11.2 70.0666 11.2747 69.7466 11.36C69.5333 11.4133 69.3466 11.4667 69.1866 11.52H69.2026C69.0319 11.584 68.8186 11.6267 68.5626 11.648C68.5093 11.6587 68.4399 11.6693 68.3546 11.68C68.2799 11.6907 68.1893 11.712 68.0826 11.744H68.1306C67.8853 11.7973 67.6666 11.824 67.4746 11.824C66.8773 11.824 66.3333 11.6533 65.8426 11.312C65.3519 10.96 65.0373 10.496 64.8986 9.92C64.8773 9.81333 64.8666 9.72267 64.8666 9.648C64.8666 9.296 64.9679 8.85333 65.1706 8.32C65.3733 7.776 65.5759 7.33333 65.7786 6.992C65.7786 6.85333 65.8053 6.74667 65.8586 6.672V6.688C65.8906 6.64533 65.9173 6.592 65.9386 6.528C65.9706 6.45333 65.9919 6.39467 66.0026 6.352V6.384C66.0559 6.20267 66.1359 6.032 66.2426 5.872C66.5306 5.872 66.7706 5.92533 66.9626 6.032C67.1653 6.13867 67.3413 6.31467 67.4906 6.56C67.1386 7.616 66.8719 8.272 66.6906 8.528C66.6159 8.64533 66.5359 8.83733 66.4506 9.104C66.3759 9.37067 66.3386 9.6 66.3386 9.792C66.3386 9.89867 66.3599 9.99467 66.4026 10.08C66.4773 10.1013 66.5733 10.144 66.6906 10.208C66.8079 10.2613 66.9146 10.288 67.0106 10.288H67.4906C67.7679 10.288 67.9706 10.272 68.0986 10.24C68.0986 10.0053 68.1519 9.71733 68.2586 9.376L68.2426 9.392L68.4346 8.704C68.5626 8.288 68.6586 7.94667 68.7226 7.68C68.7866 7.41333 68.8239 7.152 68.8346 6.896C68.8559 6.56533 69.0213 6.39467 69.3306 6.384C69.4906 6.37333 69.6079 6.39467 69.6826 6.448C69.7679 6.50133 69.8799 6.60267 70.0186 6.752L70.1946 6.944C70.2159 7.24267 70.1573 7.70133 70.0186 8.32C69.8906 8.93867 69.7626 9.44 69.6346 9.824C69.8906 9.74933 70.2159 9.664 70.6106 9.568L71.0106 9.472L70.8986 9.44L70.9626 9.12C70.9946 8.93867 71.0319 8.752 71.0746 8.56C71.1279 8.35733 71.1919 8.18133 71.2666 8.032C71.3093 7.95733 71.3893 7.66933 71.5066 7.168C71.6346 6.656 71.7306 6.256 71.7946 5.968L72.3386 5.792L72.8186 6.016L73.1066 6.496C73.1386 6.688 73.1226 6.91733 73.0586 7.184C72.9946 7.45067 72.8986 7.808 72.7706 8.256V8.24C72.7493 8.304 72.7066 8.43733 72.6426 8.64C72.5786 8.84267 72.5359 9.02933 72.5146 9.2C72.7919 9.30667 73.0533 9.536 73.2986 9.888ZM74.6494 11.664C74.6174 11.6 74.5267 11.5147 74.3774 11.408C74.228 11.3013 74.1534 11.2373 74.1534 11.216C74.1534 11.1733 74.1267 11.1147 74.0734 11.04C74.0307 10.9547 73.988 10.88 73.9454 10.816C73.86 10.7307 73.9187 10.4533 74.1214 9.984C74.324 9.51467 74.596 8.96 74.9374 8.32C75.0014 8.256 75.0814 8.144 75.1774 7.984C75.284 7.824 75.3534 7.73333 75.3854 7.712C75.3854 7.66933 75.4014 7.632 75.4334 7.6C75.4654 7.55733 75.5027 7.536 75.5454 7.536L75.6734 7.28C75.716 7.184 75.924 6.95467 76.2974 6.592C76.6707 6.22933 76.964 5.984 77.1774 5.856C77.38 5.71733 77.5987 5.648 77.8334 5.648C78.0894 5.648 78.308 5.72267 78.4894 5.872L78.9214 6.24C79.2414 6.50667 79.4227 6.66133 79.4654 6.704L80.0574 7.232L79.7854 8.032C79.6894 8.32 79.6414 8.592 79.6414 8.848C79.6414 9.25333 79.7534 9.632 79.9774 9.984C80.0307 10.1013 80.1 10.192 80.1854 10.256C80.2814 10.32 80.404 10.3627 80.5534 10.384C80.788 10.4267 80.9054 10.544 80.9054 10.736C80.9054 10.9707 80.8627 11.1467 80.7774 11.264C80.692 11.3813 80.5907 11.456 80.4734 11.488C80.3027 11.5093 80.1854 11.52 80.1214 11.52C79.812 11.52 79.5294 11.44 79.2734 11.28C79.0174 11.12 78.7934 10.848 78.6014 10.464C78.5587 10.4 78.5 10.2827 78.4254 10.112C78.3614 9.94133 78.324 9.824 78.3134 9.76C78.2387 9.86667 78.116 10.0053 77.9454 10.176C76.8467 11.2853 75.956 11.84 75.2734 11.84C75.0387 11.84 74.8307 11.7813 74.6494 11.664ZM75.5294 10.336C75.7 10.3573 76.0307 10.1653 76.5214 9.76C76.5747 9.71733 76.6334 9.66933 76.6974 9.616C76.7614 9.552 76.8307 9.488 76.9054 9.424C77.204 9.17867 77.4334 8.976 77.5934 8.816C77.764 8.64533 77.9347 8.44267 78.1054 8.208L78.4574 7.632C78.3507 7.39733 78.2547 7.24267 78.1694 7.168C78.084 7.08267 77.9987 7.04 77.9134 7.04C77.7 7.04 77.4334 7.232 77.1134 7.616C76.7934 7.98933 76.4094 8.56 75.9614 9.328C75.844 9.52 75.748 9.72267 75.6734 9.936C75.5987 10.1387 75.5507 10.272 75.5294 10.336ZM85.326 12.096C85.2513 12.1387 85.15 12.1227 85.022 12.048C84.9047 11.9733 84.7873 11.8613 84.67 11.712C84.5847 11.5733 84.526 11.44 84.494 11.312C84.462 11.1733 84.446 10.976 84.446 10.72L84.462 10.352C84.462 10.256 84.446 10.208 84.414 10.208C84.382 10.208 84.3073 10.2613 84.19 10.368C84.0833 10.464 83.9447 10.592 83.774 10.752C83.454 11.0613 83.182 11.3013 82.958 11.472C82.7447 11.632 82.5687 11.7067 82.43 11.696C82.3127 11.696 82.1473 11.5947 81.934 11.392C81.7207 11.1787 81.5767 10.976 81.502 10.784C81.47 10.656 81.454 10.512 81.454 10.352C81.454 9.86133 81.5607 9.264 81.774 8.56C81.9873 7.856 82.238 7.248 82.526 6.736C82.814 6.21333 83.054 5.96267 83.246 5.984C83.4167 6.00533 83.566 6.09067 83.694 6.24C83.8327 6.37867 83.9447 6.54933 84.03 6.752C84.062 6.816 84.078 6.86933 84.078 6.912C84.078 6.98667 84.0353 7.06133 83.95 7.136C83.79 7.34933 83.5873 7.70133 83.342 8.192C83.0967 8.672 82.8993 9.11467 82.75 9.52C82.6007 9.91467 82.5633 10.112 82.638 10.112C82.7873 10.112 82.9207 10.0747 83.038 10C83.166 9.92533 83.3313 9.792 83.534 9.6C83.918 9.216 84.2913 8.72533 84.654 8.128C85.102 7.41333 85.3473 6.99733 85.39 6.88L85.566 6.56C85.6727 6.34667 85.7527 6.208 85.806 6.144C85.8593 6.06933 85.9233 6.02133 85.998 6H86.366C86.43 6.01067 86.5047 6.05867 86.59 6.144C86.686 6.18667 86.7767 6.24533 86.862 6.32C86.9473 6.39467 86.99 6.45867 86.99 6.512L86.734 7.104L86.59 7.44C86.302 8.08 86.0833 8.592 85.934 8.976C85.7847 9.34933 85.6727 9.73867 85.598 10.144C85.5873 10.1973 85.582 10.288 85.582 10.416C85.582 10.736 85.614 10.96 85.678 11.088C85.774 11.28 85.87 11.4187 85.966 11.504C86.0513 11.568 86.0513 11.648 85.966 11.744C85.8807 11.8293 85.758 11.9093 85.598 11.984C85.4487 12.0587 85.358 12.096 85.326 12.096ZM85.166 5.024C84.7927 5.04533 84.4833 4.944 84.238 4.72C84.0033 4.48533 83.806 4.11733 83.646 3.616C83.6247 3.50933 83.614 3.44 83.614 3.408C83.614 3.28 83.646 3.168 83.71 3.072C83.7527 2.99733 83.8167 2.94933 83.902 2.928C83.998 2.896 84.0833 2.89067 84.158 2.912C84.3607 2.98667 84.51 3.072 84.606 3.168C84.702 3.25333 84.75 3.376 84.75 3.536C84.75 3.57867 84.7553 3.62133 84.766 3.664C84.7873 3.70667 84.798 3.73333 84.798 3.744C84.8407 3.89333 84.9207 3.968 85.038 3.968L85.166 3.936C85.39 3.84 85.5767 3.75467 85.726 3.68C85.8753 3.59467 86.0087 3.49333 86.126 3.376C86.2647 3.23733 86.494 3.02933 86.814 2.752C86.8993 2.67733 86.9953 2.65067 87.102 2.672C87.2833 2.704 87.3793 2.752 87.39 2.816L87.422 2.848C87.486 2.976 87.518 3.13067 87.518 3.312V3.328C87.518 3.424 87.486 3.52533 87.422 3.632C87.3793 3.76 87.3153 3.86667 87.23 3.952C87.1447 4.03733 87.0007 4.16 86.798 4.32C86.542 4.512 86.2007 4.71467 85.774 4.928C85.678 4.98133 85.5607 5.01333 85.422 5.024C85.294 5.024 85.2087 5.024 85.166 5.024ZM96.0436 10.704C96.1183 10.8107 96.1556 10.912 96.1556 11.008C96.1556 11.1147 96.1183 11.2107 96.0436 11.296C95.9689 11.3813 95.9049 11.424 95.8516 11.424C95.5956 11.424 95.3076 11.3653 94.9876 11.248C94.6783 11.12 94.5236 10.9387 94.5236 10.704V9.712C94.5236 9.28533 94.4863 9.04 94.4116 8.976C94.2516 8.89067 94.0383 9.01333 93.7716 9.344C93.5049 9.664 93.1796 10.144 92.7956 10.784C92.6463 11.0187 92.5183 11.1893 92.4116 11.296C92.3049 11.392 92.2089 11.44 92.1236 11.44C92.0489 11.44 91.9849 11.4187 91.9316 11.376C91.6009 11.28 91.4356 11.0933 91.4356 10.816C91.4356 10.784 91.4463 10.7147 91.4676 10.608C91.5636 10.2773 91.6649 9.90933 91.7716 9.504C91.8889 9.09867 91.9796 8.752 92.0436 8.464C92.0116 8.4 91.9583 8.368 91.8836 8.368C91.7769 8.368 91.6543 8.42133 91.5156 8.528C91.4729 8.56 91.3929 8.61333 91.2756 8.688C91.1689 8.752 91.0569 8.84267 90.9396 8.96C90.8329 9.06667 90.7209 9.216 90.6036 9.408C90.5609 9.48267 90.4863 9.59467 90.3796 9.744C89.8463 10.5547 89.5209 11.0133 89.4036 11.12C89.3503 11.2693 89.2969 11.376 89.2436 11.44C89.2009 11.4933 89.1476 11.52 89.0836 11.52C89.0409 11.52 88.9876 11.504 88.9236 11.472C88.7209 11.376 88.5556 11.2427 88.4276 11.072C88.3103 10.8907 88.2516 10.6773 88.2516 10.432C88.2516 10.272 88.2996 9.952 88.3956 9.472C88.4916 8.992 88.5983 8.544 88.7156 8.128C88.8009 7.95733 88.8649 7.78133 88.9076 7.6C88.9609 7.408 88.9876 7.27467 88.9876 7.2C89.0196 6.99733 89.0836 6.72533 89.1796 6.384C89.2756 6.032 89.3449 5.84 89.3876 5.808C89.4516 5.744 89.5689 5.712 89.7396 5.712C89.8569 5.712 89.9689 5.73333 90.0756 5.776C90.1823 5.81867 90.2569 5.88267 90.2996 5.968C90.4383 6.128 90.5076 6.34667 90.5076 6.624C90.5076 6.88 90.4543 7.152 90.3476 7.44C90.2409 7.68533 90.1076 8.04267 89.9476 8.512C89.9476 8.512 89.9583 8.50133 89.9796 8.48C90.2356 8.11733 90.5663 7.712 90.9716 7.264C91.1636 7.05067 91.3769 6.88533 91.6116 6.768C91.8569 6.65067 92.0543 6.592 92.2036 6.592C92.4596 6.63467 92.6729 6.76267 92.8436 6.976C93.0249 7.17867 93.1369 7.46133 93.1796 7.824C93.1796 7.952 93.1689 8.112 93.1476 8.304C93.1263 8.48533 93.1103 8.60267 93.0996 8.656C93.1423 8.60267 93.2489 8.47467 93.4196 8.272C93.6009 8.05867 93.8196 7.84 94.0756 7.616C94.3103 7.43467 94.5289 7.344 94.7316 7.344C94.9023 7.344 95.0516 7.41333 95.1796 7.552C95.4143 7.69067 95.5956 7.91467 95.7236 8.224C95.8623 8.53333 95.9316 8.88533 95.9316 9.28C95.9316 9.41867 95.9263 9.52533 95.9156 9.6C95.9049 9.67467 95.8996 9.78133 95.8996 9.92C95.8996 10.0693 95.9156 10.2133 95.9476 10.352C95.9796 10.48 96.0116 10.5973 96.0436 10.704ZM98.7646 12C98.1566 12 97.6659 11.8293 97.2926 11.488C96.9193 11.1467 96.7326 10.6613 96.7326 10.032C96.7326 9.78667 96.7486 9.51467 96.7806 9.216C96.8019 8.96 96.9033 8.608 97.0846 8.16C97.2766 7.712 97.5326 7.27467 97.8526 6.848C98.1833 6.42133 98.5673 6.10667 99.0046 5.904C99.2073 5.808 99.3779 5.744 99.5166 5.712C99.6553 5.66933 99.8153 5.648 99.9966 5.648C100.434 5.648 100.786 5.728 101.053 5.888C101.33 6.048 101.522 6.22933 101.629 6.432C101.746 6.63467 101.805 6.81067 101.805 6.96V7.04V7.088C101.805 7.216 101.73 7.45067 101.581 7.792C101.431 8.13333 101.191 8.45333 100.861 8.752C100.541 9.05067 100.125 9.216 99.6126 9.248C99.3566 9.248 99.1059 9.22667 98.8606 9.184C98.6259 9.13067 98.4766 9.104 98.4126 9.104C98.2526 9.104 98.1513 9.16267 98.1086 9.28C98.0659 9.39733 98.0446 9.59467 98.0446 9.872C98.0766 10.1707 98.1566 10.3787 98.2846 10.496C98.4233 10.6133 98.6206 10.672 98.8766 10.672C99.0046 10.672 99.1539 10.6347 99.3246 10.56C99.4953 10.4747 99.6979 10.3413 99.9326 10.16C100.061 10.0533 100.162 9.97867 100.237 9.936C100.311 9.89333 100.402 9.872 100.509 9.872C100.605 9.872 100.717 9.936 100.845 10.064C100.973 10.192 101.042 10.3147 101.053 10.432C101.031 10.56 100.914 10.752 100.701 11.008C100.487 11.264 100.21 11.4933 99.8686 11.696C99.5273 11.8987 99.1593 12 98.7646 12ZM99.3246 8.144C99.5273 8.144 99.6659 8.12267 99.7406 8.08C99.8473 8.02667 100.007 7.89333 100.221 7.68C100.445 7.456 100.562 7.30133 100.573 7.216C100.573 7.10933 100.525 7.024 100.429 6.96C100.343 6.88533 100.221 6.83733 100.061 6.816H99.8846C99.7459 6.816 99.5433 6.93333 99.2766 7.168C99.0206 7.392 98.7966 7.65333 98.6046 7.952C98.6153 8.00533 98.6953 8.05333 98.8446 8.096C98.9939 8.128 99.1539 8.144 99.3246 8.144ZM6.47555 25.08C6.56088 25.1653 6.60355 25.2827 6.60355 25.432C6.60355 25.5707 6.57155 25.7093 6.50755 25.848C6.44355 25.976 6.36888 26.0773 6.28355 26.152C6.01688 26.3547 5.72355 26.5893 5.40355 26.856C4.71021 27.4107 4.19288 27.8107 3.85155 28.056C3.91555 28.152 4.04888 28.392 4.25155 28.776L4.42755 29.112C4.47021 29.176 4.52355 29.2613 4.58755 29.368C4.65155 29.4747 4.72088 29.5493 4.79555 29.592C4.87021 29.624 4.99288 29.64 5.16355 29.64C5.35555 29.7253 5.47821 29.816 5.53155 29.912C5.58488 29.9973 5.61155 30.088 5.61155 30.184C5.61155 30.2693 5.61688 30.3387 5.62755 30.392L5.53155 30.648C5.53155 30.648 5.47821 30.712 5.37155 30.84C5.27555 30.968 5.09421 31.032 4.82755 31.032C4.73155 31.032 4.60355 31.0053 4.44355 30.952C4.15555 30.856 3.85155 30.6267 3.53155 30.264C3.45688 30.168 3.24888 29.7253 2.90755 28.936C2.73688 28.5307 2.59821 28.216 2.49155 27.992C2.36355 28.3227 2.29955 28.5893 2.29955 28.792C2.20355 28.952 2.11821 29.1653 2.04355 29.432C1.96888 29.6987 1.92088 29.864 1.89955 29.928C1.83555 30.1947 1.67021 30.4293 1.40355 30.632C1.17955 30.6427 1.01421 30.6267 0.907547 30.584C0.811547 30.5307 0.68888 30.4133 0.539547 30.232C0.46488 30.072 0.427547 29.9067 0.427547 29.736C0.427547 29.6187 0.44888 29.4747 0.491547 29.304C0.51288 29.2293 0.699547 28.7067 1.05155 27.736C1.33955 26.9253 1.48888 26.4987 1.49955 26.456C1.53155 26.3493 1.57955 26.2267 1.64355 26.088C1.71821 25.9493 1.77155 25.8533 1.80355 25.8C1.99555 25.4693 2.11821 25.192 2.17155 24.968C2.21421 24.808 2.29421 24.68 2.41155 24.584C2.53955 24.4773 2.67288 24.424 2.81155 24.424C2.99288 24.424 3.14755 24.504 3.27555 24.664V24.648C3.30755 24.6587 3.34488 24.6853 3.38755 24.728C3.44088 24.76 3.47821 24.792 3.49955 24.824C3.63821 24.984 3.70755 25.1653 3.70755 25.368C3.70755 25.5067 3.67021 25.6347 3.59555 25.752L3.32355 26.248C3.14221 26.5253 2.98755 26.824 2.85955 27.144C3.06221 27.112 3.21155 27.08 3.30755 27.048C3.40355 27.016 3.49955 26.9413 3.59555 26.824C3.71288 26.7067 3.85688 26.5627 4.02755 26.392C4.20888 26.2213 4.38488 26.0507 4.55555 25.88C4.76888 25.688 4.96621 25.5013 5.14755 25.32C5.15821 25.2987 5.19555 25.2453 5.25955 25.16C5.33421 25.064 5.40888 24.984 5.48355 24.92C5.56888 24.856 5.65955 24.808 5.75555 24.776C5.96888 24.7973 6.12888 24.8293 6.23555 24.872C6.35288 24.9147 6.43288 24.984 6.47555 25.08ZM7.2353 30.664C7.2033 30.6 7.11263 30.5147 6.9633 30.408C6.81396 30.3013 6.7393 30.2373 6.7393 30.216C6.7393 30.1733 6.71263 30.1147 6.6593 30.04C6.61663 29.9547 6.57396 29.88 6.5313 29.816C6.44596 29.7307 6.50463 29.4533 6.7073 28.984C6.90996 28.5147 7.18196 27.96 7.5233 27.32C7.5873 27.256 7.6673 27.144 7.7633 26.984C7.86996 26.824 7.9393 26.7333 7.9713 26.712C7.9713 26.6693 7.9873 26.632 8.0193 26.6C8.0513 26.5573 8.08863 26.536 8.1313 26.536L8.2593 26.28C8.30196 26.184 8.50996 25.9547 8.8833 25.592C9.25663 25.2293 9.54996 24.984 9.7633 24.856C9.96596 24.7173 10.1846 24.648 10.4193 24.648C10.6753 24.648 10.894 24.7227 11.0753 24.872L11.5073 25.24C11.8273 25.5067 12.0086 25.6613 12.0513 25.704L12.6433 26.232L12.3713 27.032C12.2753 27.32 12.2273 27.592 12.2273 27.848C12.2273 28.2533 12.3393 28.632 12.5633 28.984C12.6166 29.1013 12.686 29.192 12.7713 29.256C12.8673 29.32 12.99 29.3627 13.1393 29.384C13.374 29.4267 13.4913 29.544 13.4913 29.736C13.4913 29.9707 13.4486 30.1467 13.3633 30.264C13.278 30.3813 13.1766 30.456 13.0593 30.488C12.8886 30.5093 12.7713 30.52 12.7073 30.52C12.398 30.52 12.1153 30.44 11.8593 30.28C11.6033 30.12 11.3793 29.848 11.1873 29.464C11.1446 29.4 11.086 29.2827 11.0113 29.112C10.9473 28.9413 10.91 28.824 10.8993 28.76C10.8246 28.8667 10.702 29.0053 10.5313 29.176C9.43263 30.2853 8.54196 30.84 7.8593 30.84C7.62463 30.84 7.41663 30.7813 7.2353 30.664ZM8.1153 29.336C8.28596 29.3573 8.61663 29.1653 9.1073 28.76C9.16063 28.7173 9.2193 28.6693 9.2833 28.616C9.3473 28.552 9.41663 28.488 9.4913 28.424C9.78996 28.1787 10.0193 27.976 10.1793 27.816C10.35 27.6453 10.5206 27.4427 10.6913 27.208L11.0433 26.632C10.9366 26.3973 10.8406 26.2427 10.7553 26.168C10.67 26.0827 10.5846 26.04 10.4993 26.04C10.286 26.04 10.0193 26.232 9.6993 26.616C9.3793 26.9893 8.9953 27.56 8.5473 28.328C8.42996 28.52 8.33396 28.7227 8.2593 28.936C8.18463 29.1387 8.13663 29.272 8.1153 29.336ZM15.7679 30.872C15.4479 30.872 15.2399 30.856 15.1439 30.824C15.0479 30.7813 14.9306 30.696 14.7919 30.568C14.7599 30.4933 14.6906 30.392 14.5839 30.264C14.4879 30.136 14.4079 30.04 14.3439 29.976C14.3119 29.8587 14.2959 29.72 14.2959 29.56C14.2959 29.2827 14.3333 28.9573 14.4079 28.584C14.4933 28.2107 14.5946 27.8693 14.7119 27.56C14.7546 27.4747 14.7866 27.3947 14.8079 27.32C14.8399 27.2453 14.8613 27.1973 14.8719 27.176C14.8719 27.1013 15.0053 26.872 15.2719 26.488C15.5493 26.0933 15.7679 25.8213 15.9279 25.672C16.0026 25.5867 16.1146 25.496 16.2639 25.4C16.4239 25.304 16.5626 25.2347 16.6799 25.192C16.7119 25.1813 16.8399 25.1333 17.0639 25.048C17.2986 24.9627 17.5119 24.92 17.7039 24.92C17.8746 24.92 18.0399 24.9573 18.1999 25.032C18.3706 25.096 18.5093 25.2027 18.6159 25.352C18.8933 25.6293 19.0319 25.992 19.0319 26.44C19.0319 26.5253 19.0213 26.6213 18.9999 26.728C18.9466 26.9413 18.8346 27.1173 18.6639 27.256C18.5039 27.384 18.3333 27.448 18.1519 27.448C17.9706 27.448 17.8159 27.3787 17.6879 27.24C17.6453 27.1333 17.6239 27.064 17.6239 27.032C17.6239 27 17.6453 26.9093 17.6879 26.76C17.7306 26.568 17.7519 26.4453 17.7519 26.392C17.7519 26.2533 17.7039 26.184 17.6079 26.184C17.4799 26.184 17.3786 26.216 17.3039 26.28C17.2293 26.344 17.0906 26.4827 16.8879 26.696C16.7493 26.8453 16.5839 27.064 16.3919 27.352C16.2106 27.6293 16.0666 27.896 15.9599 28.152C15.8639 28.44 15.7946 28.648 15.7519 28.776C15.7199 28.8933 15.7039 28.9627 15.7039 28.984C15.7039 29.0267 15.6986 29.0693 15.6879 29.112C15.6773 29.144 15.6719 29.1813 15.6719 29.224C15.6719 29.2987 15.6879 29.3573 15.7199 29.4C15.7519 29.4427 15.8106 29.4853 15.8959 29.528C15.9173 29.5387 15.9546 29.56 16.0079 29.592C16.0613 29.624 16.1146 29.64 16.1679 29.64C16.2319 29.64 16.3226 29.6133 16.4399 29.56C16.5573 29.5067 16.6319 29.4747 16.6639 29.464C16.8026 29.4 16.9999 29.2613 17.2559 29.048L17.6399 28.76C17.7146 28.7067 17.7786 28.664 17.8319 28.632C17.8959 28.5893 17.9439 28.5627 17.9759 28.552C18.0079 28.5307 18.0239 28.5307 18.0239 28.552C18.0239 28.5947 18.0399 28.616 18.0719 28.616C18.1039 28.616 18.1413 28.5947 18.1839 28.552C18.2266 28.488 18.3013 28.456 18.4079 28.456C18.4933 28.456 18.5786 28.4827 18.6639 28.536C18.7599 28.5787 18.8079 28.616 18.8079 28.648L18.7919 28.728C18.7919 28.7813 18.8186 28.8347 18.8719 28.888C18.8719 28.9307 18.8559 28.9893 18.8239 29.064C18.8026 29.128 18.7706 29.1813 18.7279 29.224C18.6213 29.384 18.4986 29.5493 18.3599 29.72C18.2319 29.8907 18.1413 30.008 18.0879 30.072H18.0719C18.0186 30.072 17.9439 30.12 17.8479 30.216C17.6879 30.3653 17.5493 30.44 17.4319 30.44C17.3893 30.4613 17.3413 30.488 17.2879 30.52C17.2346 30.5413 17.2079 30.568 17.2079 30.6C17.0266 30.7813 16.5466 30.872 15.7679 30.872ZM22.8042 30.856C22.6762 30.9093 22.5428 30.936 22.4042 30.936C22.1802 30.936 21.9082 30.8773 21.5882 30.76C21.5455 30.76 21.4015 30.6587 21.1562 30.456C20.9215 30.2427 20.7775 30.0773 20.7242 29.96C20.5962 29.7787 20.5322 29.5387 20.5322 29.24C20.5322 28.728 20.7135 28.0293 21.0762 27.144C21.1935 26.8987 21.3855 26.5787 21.6522 26.184C21.9295 25.7787 22.1162 25.5493 22.2122 25.496C22.2442 25.4853 22.3188 25.4587 22.4362 25.416C22.5535 25.3627 22.6868 25.2987 22.8362 25.224C22.9108 25.192 23.0655 25.1547 23.3002 25.112C23.5348 25.0587 23.7002 25.032 23.7962 25.032C23.9988 25.032 24.2228 25.1067 24.4682 25.256C24.7135 25.3947 24.9055 25.56 25.0442 25.752C25.1935 25.944 25.2468 26.1093 25.2042 26.248C25.1935 26.2907 25.1348 26.4187 25.0282 26.632C24.9215 26.8347 24.8362 26.968 24.7722 27.032C24.7295 27.0853 24.6495 27.112 24.5322 27.112C24.3935 27.112 24.2655 27.0747 24.1482 27C24.0308 26.9253 23.9668 26.8187 23.9562 26.68C23.9348 26.616 23.8655 26.5467 23.7482 26.472C23.6415 26.3973 23.5668 26.3493 23.5242 26.328C23.4495 26.328 23.3482 26.4027 23.2202 26.552C23.0922 26.6907 22.9375 26.8933 22.7562 27.16C22.5535 27.3627 22.4095 27.5813 22.3242 27.816C22.2495 28.04 22.1962 28.248 22.1642 28.44C22.1428 28.6213 22.1215 28.744 22.1002 28.808C22.0788 28.872 22.0682 28.936 22.0682 29C22.0682 29.1067 22.0895 29.2133 22.1322 29.32C22.1748 29.416 22.2175 29.4693 22.2602 29.48C22.4522 29.4907 22.7508 29.448 23.1562 29.352C23.5722 29.2453 23.9402 29.128 24.2602 29C24.4095 28.904 24.5695 28.856 24.7402 28.856C24.8148 28.856 24.8895 28.8667 24.9642 28.888C25.0388 28.8987 25.0922 28.9093 25.1242 28.92C25.2308 28.9627 25.2842 29.0587 25.2842 29.208C25.2842 29.3467 25.2362 29.4907 25.1402 29.64C25.0442 29.7893 24.9108 29.912 24.7402 30.008C24.5588 30.104 24.4042 30.2 24.2762 30.296C24.1482 30.392 24.0842 30.4667 24.0842 30.52C24.0628 30.52 24.0202 30.536 23.9562 30.568C23.8922 30.5893 23.8495 30.5947 23.8282 30.584C23.7108 30.5947 23.5295 30.632 23.2842 30.696C23.0388 30.76 22.8788 30.8133 22.8042 30.856ZM28.6805 30.872C28.6272 30.8827 28.5579 30.888 28.4725 30.888C28.3339 30.888 28.2219 30.8667 28.1365 30.824C28.0512 30.7707 27.9499 30.6853 27.8325 30.568C27.5872 30.4507 27.3739 30.2533 27.1925 29.976C27.0112 29.6987 26.9312 29.48 26.9525 29.32C27.0059 28.808 27.1499 28.2533 27.3845 27.656C27.6192 27.048 27.9232 26.504 28.2965 26.024C28.6805 25.5333 29.0859 25.192 29.5125 25C29.7045 24.9253 29.8805 24.888 30.0405 24.888C30.3712 24.888 30.5899 24.9947 30.6965 25.208C30.7712 25.3573 30.8085 25.4693 30.8085 25.544C30.8085 25.672 30.7339 25.7573 30.5845 25.8C30.5525 25.8 30.5152 25.816 30.4725 25.848C30.4299 25.88 30.4085 25.912 30.4085 25.944C30.4192 25.9547 30.4672 25.96 30.5525 25.96C30.7339 25.96 30.9579 25.9333 31.2245 25.88C31.4912 25.8267 31.6619 25.768 31.7365 25.704C31.8005 25.672 31.8539 25.656 31.8965 25.656L32.1205 25.688C32.3019 25.7413 32.3925 25.8053 32.3925 25.88C32.3925 25.9333 32.4085 26.0027 32.4405 26.088C32.4832 26.1733 32.5205 26.216 32.5525 26.216C32.6059 26.216 32.6325 26.2533 32.6325 26.328C32.6325 26.392 32.5952 26.4773 32.5205 26.584C32.4565 26.68 32.3605 26.776 32.2325 26.872C32.1792 26.904 32.0992 26.952 31.9925 27.016C31.8965 27.08 31.8379 27.1333 31.8165 27.176C31.8059 27.2187 31.8112 27.2773 31.8325 27.352C31.8752 27.4373 31.8965 27.544 31.8965 27.672C31.8965 28.0347 31.7205 28.4613 31.3685 28.952C31.0165 29.432 30.5845 29.8587 30.0725 30.232C29.5712 30.6053 29.1072 30.8187 28.6805 30.872ZM28.7285 29.528C28.7925 29.528 28.9525 29.464 29.2085 29.336C29.3472 29.1973 29.4592 29.112 29.5445 29.08C29.5765 29.08 29.6032 29.0533 29.6245 29C29.6565 28.936 29.7045 28.8453 29.7685 28.728C29.8432 28.6 29.9605 28.4347 30.1205 28.232C30.2912 28.04 30.4085 27.8853 30.4725 27.768C30.5472 27.6507 30.5845 27.5333 30.5845 27.416C30.5845 27.3733 30.5739 27.2987 30.5525 27.192C30.5419 27.16 30.5045 27.1333 30.4405 27.112C30.3872 27.08 30.3339 27.0533 30.2805 27.032C30.2272 27.032 30.1739 27.048 30.1205 27.08C30.0672 27.1013 30.0299 27.112 30.0085 27.112C29.9552 27.112 29.8965 27.0853 29.8325 27.032L29.5765 26.712L29.3045 26.984C29.0592 27.2293 28.8512 27.56 28.6805 27.976C28.5205 28.392 28.4245 28.7707 28.3925 29.112C28.3819 29.2613 28.4032 29.368 28.4565 29.432C28.5205 29.4853 28.6112 29.5173 28.7285 29.528ZM40.0014 20.552C40.2041 20.9147 40.3054 21.208 40.3054 21.432C40.3054 21.5707 40.2788 21.72 40.2254 21.88C40.1721 22.04 40.0974 22.2213 40.0014 22.424C39.9161 22.616 39.8574 22.7493 39.8254 22.824C39.6228 23.2187 39.3348 23.6133 38.9614 24.008C38.5881 24.4027 38.1508 24.7707 37.6494 25.112C37.2014 25.5067 36.7641 25.8107 36.3374 26.024L36.1774 26.104C36.4548 26.1787 36.7428 26.3493 37.0414 26.616C37.1374 26.712 37.1854 26.8293 37.1854 26.968C37.1854 27 37.1748 27.0587 37.1534 27.144C37.1428 27.272 37.1321 27.3947 37.1214 27.512C37.1108 27.6187 37.1054 27.72 37.1054 27.816C37.0521 27.9333 36.9934 28.12 36.9294 28.376C36.8654 28.6213 36.7961 28.84 36.7214 29.032C36.6468 29.224 36.5401 29.432 36.4014 29.656C36.1988 30.008 36.0334 30.248 35.9054 30.376C35.7881 30.4933 35.5428 30.6747 35.1694 30.92L34.7214 31.208C34.6894 31.208 34.5774 31.208 34.3854 31.208C34.1934 31.2187 33.9961 31.1707 33.7934 31.064C33.6014 30.968 33.4414 30.8133 33.3134 30.6C33.2281 30.44 33.1534 30.264 33.0894 30.072C33.0361 29.8693 33.0094 29.688 33.0094 29.528C33.0094 29.4107 33.0254 29.32 33.0574 29.256C33.1961 28.52 33.3081 27.9813 33.3934 27.64C33.4788 27.288 33.5321 27.0853 33.5534 27.032L33.6974 26.696C33.7401 26.6 33.7774 26.5093 33.8094 26.424C33.8414 26.328 33.8574 26.2267 33.8574 26.12L33.8414 25.944C33.8201 25.6773 33.9001 25.4693 34.0814 25.32C34.2521 25.1707 34.3748 25.016 34.4494 24.856C34.5241 24.6747 34.6414 24.424 34.8014 24.104C34.9721 23.784 35.1001 23.5707 35.1854 23.464L35.5054 23.016C35.6441 22.8027 35.7614 22.632 35.8574 22.504C35.9641 22.3653 36.0868 22.2373 36.2254 22.12C36.3428 21.9067 36.5028 21.704 36.7054 21.512C36.9188 21.3093 37.1694 21.0907 37.4574 20.856C37.6921 20.664 37.8361 20.5413 37.8894 20.488C37.9428 20.4347 38.0441 20.3867 38.1934 20.344C38.3534 20.3013 38.5081 20.264 38.6574 20.232L39.0094 20.136C39.1054 20.0827 39.2601 20.104 39.4734 20.2C39.6974 20.2853 39.8734 20.4027 40.0014 20.552ZM38.8494 22.232C39.0414 21.848 39.1374 21.5387 39.1374 21.304C39.1374 21.2187 39.1268 21.16 39.1054 21.128C38.9561 21.2027 38.5614 21.5493 37.9214 22.168C36.6841 23.4053 35.9534 24.296 35.7294 24.84L35.8414 24.856C36.3214 24.6747 36.7694 24.4187 37.1854 24.088C37.6121 23.7467 37.9694 23.4107 38.2574 23.08C38.5454 22.7387 38.7428 22.456 38.8494 22.232ZM35.7454 27.64C35.7454 27.2773 35.7401 27.048 35.7294 26.952C35.7188 26.856 35.6868 26.7387 35.6334 26.6L35.7134 26.328L35.4254 26.424C35.3188 26.4667 35.2441 26.5413 35.2014 26.648C35.1801 26.712 35.1481 26.8293 35.1054 27C35.0628 27.1707 35.0094 27.288 34.9454 27.352C34.9028 27.3947 34.8121 27.736 34.6734 28.376C34.5348 29.016 34.4654 29.416 34.4654 29.576C34.4654 29.672 34.5028 29.72 34.5774 29.72C34.6308 29.72 34.6948 29.688 34.7694 29.624C34.8548 29.56 34.9401 29.464 35.0254 29.336C35.2174 29.0907 35.3881 28.7013 35.5374 28.168C35.6441 27.8587 35.7134 27.6827 35.7454 27.64ZM40.9099 26.92C41.2513 26.7813 41.5766 26.712 41.8859 26.712C42.2379 26.712 42.5206 26.7973 42.7339 26.968C42.9579 27.128 43.0699 27.3787 43.0699 27.72C43.1233 27.9013 43.1499 28.088 43.1499 28.28C43.1499 28.4293 43.1339 28.584 43.1019 28.744C42.7819 29.4053 42.4619 29.848 42.1419 30.072C41.9926 30.2213 41.7739 30.3813 41.4859 30.552C41.1979 30.7227 40.9366 30.84 40.7019 30.904C40.2753 31.0107 39.9979 31.064 39.8699 31.064C39.7526 31.064 39.6513 31.0427 39.5659 31C39.4806 30.9573 39.3793 30.8827 39.2619 30.776C39.1126 30.648 39.0379 30.4987 39.0379 30.328C39.0059 30.5627 38.8779 30.712 38.6539 30.776C38.4086 30.744 38.2273 30.68 38.1099 30.584C38.0033 30.4773 37.9499 30.3173 37.9499 30.104C37.9499 30.0613 37.9606 29.9653 37.9819 29.816C38.0033 29.7413 38.0406 29.5707 38.0939 29.304C38.1579 29.0373 38.2166 28.8347 38.2699 28.696L38.6219 27.768C38.8353 27.1813 39.0006 26.7333 39.1179 26.424C39.2459 26.1147 39.3633 25.8853 39.4699 25.736L39.8219 24.84L40.0459 24.68C40.3126 24.7013 40.4939 24.7707 40.5899 24.888C40.6859 24.9947 40.7553 25.1653 40.7979 25.4C40.7873 25.5173 40.5739 26.056 40.1579 27.016C40.1046 27.1547 40.0513 27.2827 39.9979 27.4C39.9553 27.5173 39.9126 27.624 39.8699 27.72C40.3606 27.272 40.7073 27.0053 40.9099 26.92ZM45.9499 25.24C46.0353 25.4427 46.0779 25.624 46.0779 25.784C46.0779 25.9227 46.0513 26.0507 45.9979 26.168C45.9126 26.36 45.7046 26.936 45.3739 27.896C45.0539 28.8453 44.8726 29.416 44.8299 29.608C44.7233 29.8747 44.6433 30.2107 44.5899 30.616C44.6113 30.712 44.5953 30.8133 44.5419 30.92C44.4886 31.0267 44.3979 31.1173 44.2699 31.192C43.9499 31.1707 43.7099 31.1067 43.5499 31C43.3899 30.8827 43.2726 30.68 43.1979 30.392C43.1979 30.168 43.2246 29.9547 43.2779 29.752C43.3313 29.5493 43.3686 29.4053 43.3899 29.32C43.5179 28.84 43.6513 28.4293 43.7899 28.088C43.8219 28.024 43.9019 27.832 44.0299 27.512C44.2433 26.872 44.4033 26.3227 44.5099 25.864C44.6273 25.4053 44.6966 25.128 44.7179 25.032C44.8673 24.872 45.0273 24.792 45.1979 24.792C45.4326 24.792 45.6833 24.9413 45.9499 25.24ZM41.2939 29.256C41.6886 28.7653 41.8966 28.3547 41.9179 28.024C41.9179 27.992 41.8966 27.9493 41.8539 27.896C41.8113 27.8427 41.7793 27.7947 41.7579 27.752C41.4913 27.8587 41.3153 27.9493 41.2299 28.024C41.1446 28.088 41.0913 28.1307 41.0699 28.152C40.6219 28.504 40.3126 28.776 40.1419 28.968C39.9713 29.16 39.7526 29.464 39.4859 29.88L39.6619 29.896C39.7366 29.9387 39.8273 29.96 39.9339 29.96C40.1579 29.96 40.4033 29.8907 40.6699 29.752C40.9473 29.6133 41.1553 29.448 41.2939 29.256ZM48.5537 31C47.9457 31 47.455 30.8293 47.0817 30.488C46.7083 30.1467 46.5217 29.6613 46.5217 29.032C46.5217 28.7867 46.5377 28.5147 46.5697 28.216C46.591 27.96 46.6923 27.608 46.8737 27.16C47.0657 26.712 47.3217 26.2747 47.6417 25.848C47.9723 25.4213 48.3563 25.1067 48.7937 24.904C48.9963 24.808 49.167 24.744 49.3057 24.712C49.4443 24.6693 49.6043 24.648 49.7857 24.648C50.223 24.648 50.575 24.728 50.8417 24.888C51.119 25.048 51.311 25.2293 51.4177 25.432C51.535 25.6347 51.5937 25.8107 51.5937 25.96V26.04V26.088C51.5937 26.216 51.519 26.4507 51.3697 26.792C51.2203 27.1333 50.9803 27.4533 50.6497 27.752C50.3297 28.0507 49.9137 28.216 49.4017 28.248C49.1457 28.248 48.895 28.2267 48.6497 28.184C48.415 28.1307 48.2657 28.104 48.2017 28.104C48.0417 28.104 47.9403 28.1627 47.8977 28.28C47.855 28.3973 47.8337 28.5947 47.8337 28.872C47.8657 29.1707 47.9457 29.3787 48.0737 29.496C48.2123 29.6133 48.4097 29.672 48.6657 29.672C48.7937 29.672 48.943 29.6347 49.1137 29.56C49.2843 29.4747 49.487 29.3413 49.7217 29.16C49.8497 29.0533 49.951 28.9787 50.0257 28.936C50.1003 28.8933 50.191 28.872 50.2977 28.872C50.3937 28.872 50.5057 28.936 50.6337 29.064C50.7617 29.192 50.831 29.3147 50.8417 29.432C50.8203 29.56 50.703 29.752 50.4897 30.008C50.2763 30.264 49.999 30.4933 49.6577 30.696C49.3163 30.8987 48.9483 31 48.5537 31ZM49.1137 27.144C49.3163 27.144 49.455 27.1227 49.5297 27.08C49.6363 27.0267 49.7963 26.8933 50.0097 26.68C50.2337 26.456 50.351 26.3013 50.3617 26.216C50.3617 26.1093 50.3137 26.024 50.2177 25.96C50.1323 25.8853 50.0097 25.8373 49.8497 25.816H49.6737C49.535 25.816 49.3323 25.9333 49.0657 26.168C48.8097 26.392 48.5857 26.6533 48.3937 26.952C48.4043 27.0053 48.4843 27.0533 48.6337 27.096C48.783 27.128 48.943 27.144 49.1137 27.144ZM55.0364 34.744C54.9298 34.744 54.8498 34.696 54.7964 34.6C54.7858 34.5893 54.7378 34.5253 54.6524 34.408C54.5671 34.2907 54.5244 34.12 54.5244 33.896C54.5244 33.8533 54.5351 33.768 54.5564 33.64C54.6738 33.192 54.7324 32.8827 54.7324 32.712C54.7324 32.6587 54.7431 32.5787 54.7644 32.472C54.7858 32.376 54.8018 32.2853 54.8124 32.2C54.8551 32.1253 54.8924 32.008 54.9244 31.848C54.9671 31.6987 54.9884 31.5653 54.9884 31.448C54.9884 31.3947 55.0044 31.3307 55.0364 31.256C55.0791 31.192 55.1271 31.1387 55.1804 31.096C55.1804 31.032 55.1964 30.936 55.2284 30.808C55.2604 30.6693 55.2818 30.5733 55.2924 30.52C55.3458 30.232 55.5538 29.5493 55.9164 28.472C56.2791 27.3947 56.5884 26.5253 56.8444 25.864C56.9724 25.5653 57.0791 25.288 57.1644 25.032C57.2498 24.776 57.2924 24.5947 57.2924 24.488C57.2924 24.4453 57.3031 24.408 57.3244 24.376C57.3564 24.3333 57.4044 24.28 57.4684 24.216C57.5538 24.1307 57.6658 24.088 57.8044 24.088C57.9858 24.088 58.1618 24.1467 58.3324 24.264C58.4071 24.3813 58.4604 24.4827 58.4924 24.568C58.5244 24.6533 58.5404 24.7493 58.5404 24.856C58.5404 24.888 58.5298 24.9893 58.5084 25.16C58.5084 25.384 58.4444 25.5867 58.3164 25.768C58.1884 25.9493 58.1298 26.0347 58.1404 26.024C58.6631 25.704 59.1484 25.544 59.5964 25.544C60.0764 25.544 60.4604 25.7147 60.7484 26.056C61.0364 26.3867 61.1804 26.7813 61.1804 27.24C61.1804 27.4213 61.0951 27.6933 60.9244 28.056C60.7538 28.408 60.6151 28.632 60.5084 28.728C60.4444 28.728 60.3591 28.84 60.2524 29.064C60.1244 29.2347 59.8791 29.416 59.5164 29.608C59.1644 29.7893 58.9244 29.8587 58.7964 29.816C58.7858 29.816 58.7698 29.832 58.7484 29.864C58.7271 29.8853 58.7164 29.9173 58.7164 29.96C58.7164 30.0027 58.5564 30.0773 58.2364 30.184C57.9164 30.2907 57.6391 30.344 57.4044 30.344C57.2764 30.344 57.1804 30.3387 57.1164 30.328C57.0524 30.3067 56.9884 30.2693 56.9244 30.216C56.8498 30.2907 56.8124 30.36 56.8124 30.424C56.8124 30.5307 56.7591 30.7013 56.6524 30.936C56.5458 31.16 56.4604 31.272 56.3964 31.272C56.3858 31.2827 56.3698 31.304 56.3484 31.336C56.3378 31.368 56.3538 31.4053 56.3964 31.448C56.3964 31.48 56.3911 31.5547 56.3804 31.672C56.3698 31.7893 56.3431 31.88 56.3004 31.944C56.3004 32.04 56.2844 32.168 56.2524 32.328C56.2204 32.4987 56.1831 32.6267 56.1404 32.712C56.1404 32.84 56.1191 32.9627 56.0764 33.08C56.0444 33.208 56.0071 33.272 55.9644 33.272C55.9004 33.2933 55.8684 33.448 55.8684 33.736C55.8578 33.992 55.7724 34.2213 55.6124 34.424C55.4631 34.6267 55.3191 34.728 55.1804 34.728L55.0364 34.744ZM57.2284 29.128C57.3778 29.128 57.6551 29.048 58.0604 28.888C58.4764 28.7173 58.7804 28.552 58.9724 28.392C59.2178 28.1893 59.4044 28.0027 59.5324 27.832C59.6604 27.6613 59.7244 27.4907 59.7244 27.32C59.7244 27.1707 59.6764 27.0267 59.5804 26.888C59.5058 26.7707 59.3938 26.712 59.2444 26.712C58.8924 26.712 58.4338 26.984 57.8684 27.528C57.6764 27.7307 57.5058 27.9867 57.3564 28.296C57.2071 28.5947 57.1324 28.824 57.1324 28.984C57.1324 29.08 57.1644 29.128 57.2284 29.128ZM63.5793 30.776C63.4726 30.7973 63.3766 30.808 63.2913 30.808C63.1526 30.808 63.0246 30.7973 62.9073 30.776C62.79 30.744 62.7313 30.7067 62.7313 30.664C62.7313 30.632 62.726 30.6107 62.7153 30.6C62.7046 30.5893 62.6833 30.584 62.6513 30.584C62.6193 30.552 62.5446 30.4987 62.4273 30.424C62.3206 30.3387 62.23 30.28 62.1553 30.248C62.0273 30.0667 61.9633 29.8693 61.9633 29.656C61.9633 29.4533 62.0273 29.128 62.1553 28.68C62.166 28.264 62.3153 27.8 62.6033 27.288C62.902 26.7653 63.2593 26.2853 63.6753 25.848C64.0913 25.4 64.4646 25.08 64.7953 24.888C64.9553 24.728 65.1793 24.648 65.4673 24.648C65.6913 24.648 65.8886 24.696 66.0593 24.792C66.198 24.8773 66.3686 25.0587 66.5713 25.336C66.7846 25.6133 66.9446 25.864 67.0513 26.088C67.0726 26.1627 67.0993 26.264 67.1313 26.392C67.174 26.52 67.1953 26.6747 67.1953 26.856L67.1633 27.304C67.0353 27.7413 66.9713 28.136 66.9713 28.488C66.95 28.6373 66.9606 28.76 67.0033 28.856C67.046 28.9413 67.1046 28.984 67.1793 28.984C67.2326 28.984 67.2913 28.968 67.3553 28.936C67.4193 28.904 67.494 28.888 67.5793 28.888C67.718 28.888 67.8353 28.9307 67.9313 29.016C68.0273 29.1013 68.0753 29.208 68.0753 29.336C68.0753 29.4427 68.0486 29.544 67.9953 29.64C67.8993 29.8533 67.718 30.0453 67.4513 30.216C67.1953 30.3867 66.9553 30.472 66.7313 30.472C66.55 30.472 66.374 30.376 66.2033 30.184C66.0433 29.992 65.9153 29.7413 65.8193 29.432L65.7233 29.064L65.1473 29.592L64.7793 29.96C64.6086 30.1307 64.5126 30.232 64.4913 30.264C64.438 30.3493 64.342 30.4293 64.2033 30.504C64.0753 30.5787 63.8673 30.6693 63.5793 30.776ZM64.0113 29.24C64.2033 29.1333 64.3633 29 64.4913 28.84C64.63 28.68 64.8006 28.456 65.0033 28.168C65.046 28.104 65.0886 28.04 65.1313 27.976C65.174 27.9013 65.2273 27.8267 65.2913 27.752C65.4726 27.5067 65.6006 27.3093 65.6753 27.16C65.7606 27.0107 65.8246 26.8507 65.8673 26.68C65.8246 26.5413 65.7606 26.4133 65.6753 26.296C65.6006 26.168 65.5313 26.0987 65.4673 26.088C65.1686 26.088 64.7633 26.44 64.2513 27.144C64.198 27.2187 64.1126 27.352 63.9953 27.544C63.8886 27.736 63.8193 27.864 63.7873 27.928C63.734 28.0027 63.6593 28.184 63.5633 28.472C63.478 28.7493 63.4353 28.9307 63.4353 29.016C63.4353 29.2507 63.5046 29.368 63.6433 29.368C63.75 29.368 63.8726 29.3253 64.0113 29.24ZM68.7862 35.672C68.7222 35.64 68.6155 35.6133 68.4662 35.592C68.3168 35.5707 68.2048 35.544 68.1302 35.512C67.9168 35.416 67.7088 35.272 67.5062 35.08C67.3142 34.888 67.1862 34.6907 67.1222 34.488C67.0368 34.456 66.9622 34.2747 66.8982 33.944C66.8555 33.7733 66.8235 33.6613 66.8022 33.608C66.8662 33.448 66.9835 33.2187 67.1542 32.92L67.5542 32.856C67.7248 32.824 67.8422 32.8613 67.9062 32.968C67.9702 33.0853 68.0235 33.2613 68.0662 33.496C68.1195 33.7733 68.1888 33.9813 68.2742 34.12C68.3595 34.2693 68.5142 34.344 68.7382 34.344C69.0368 34.344 69.2715 34.2053 69.4422 33.928C69.6235 33.6613 69.8048 33.2933 69.9862 32.824C70.0182 32.7387 70.0982 32.5467 70.2262 32.248C70.3648 31.96 70.4342 31.736 70.4342 31.576L70.4662 31.224C70.4875 31.1173 70.4982 30.984 70.4982 30.824C70.4982 30.6747 70.4822 30.536 70.4502 30.408C70.4502 30.3653 70.4395 30.296 70.4182 30.2C70.4075 30.104 70.4022 30.008 70.4022 29.912C70.3702 29.8587 70.3168 29.768 70.2422 29.64C70.1675 29.5013 70.0875 29.3893 70.0022 29.304L69.9862 28.616C70.0502 28.584 70.1088 28.5467 70.1622 28.504C70.2262 28.4507 70.2795 28.4133 70.3222 28.392C70.6422 28.2747 70.9675 28.0987 71.2982 27.864C71.6288 27.6187 71.9008 27.3413 72.1142 27.032C72.3275 26.712 72.4128 26.3867 72.3702 26.056C72.0395 26.1413 71.7835 26.264 71.6022 26.424C71.4315 26.584 71.2395 26.8133 71.0262 27.112C70.8128 27.4107 70.6315 27.6347 70.4822 27.784L70.0342 27.768C69.8528 27.7253 69.7195 27.6453 69.6342 27.528C69.5488 27.4107 69.4582 27.2347 69.3622 27C69.4475 26.904 69.5275 26.76 69.6022 26.568C69.6982 26.376 69.7728 26.248 69.8262 26.184C70.2635 25.6613 70.6262 25.2987 70.9142 25.096C71.3835 24.776 71.8422 24.616 72.2902 24.616C72.5888 24.616 72.8555 24.6907 73.0902 24.84C73.3248 24.9787 73.5062 25.176 73.6342 25.432C73.7835 25.6987 73.8582 25.9973 73.8582 26.328C73.8582 26.9253 73.6235 27.528 73.1542 28.136C72.9942 28.3493 72.7915 28.5467 72.5462 28.728C72.3115 28.9093 72.1515 29.032 72.0662 29.096L71.7302 29.336C71.8688 30.008 71.9542 30.568 71.9862 31.016C72.0075 31.3467 71.9435 31.784 71.7942 32.328C71.6555 32.872 71.4422 33.4107 71.1542 33.944C70.8662 34.4773 70.5195 34.904 70.1142 35.224C69.7835 35.48 69.3408 35.6293 68.7862 35.672ZM74.3777 34.888C74.2497 34.8453 74.0577 34.696 73.8017 34.44C73.5563 34.1947 73.4337 34.024 73.4337 33.928C73.4337 33.768 73.5403 33.24 73.7537 32.344C73.967 31.4587 74.175 30.7387 74.3777 30.184C74.3883 30.1413 74.4577 29.9653 74.5857 29.656C74.7137 29.3467 74.8363 28.9733 74.9537 28.536C75.039 28.2267 75.263 27.624 75.6257 26.728L76.0897 25.576C76.175 25.3307 76.2763 25.064 76.3937 24.776C76.511 24.488 76.5803 24.312 76.6017 24.248C76.6443 24.12 76.879 23.9973 77.3057 23.88C77.327 23.8693 77.3643 23.864 77.4177 23.864C77.567 23.864 77.695 23.9493 77.8017 24.12C77.8337 24.184 77.8497 24.2587 77.8497 24.344C77.8497 24.5467 77.791 24.7813 77.6737 25.048L77.5617 25.368L78.1377 25.24C78.8843 25.2827 79.3003 25.3147 79.3857 25.336C79.6203 25.3467 79.7857 25.3893 79.8817 25.464C79.9883 25.5387 80.0897 25.656 80.1857 25.816C80.3777 25.9973 80.4843 26.1573 80.5057 26.296C80.5163 26.3387 80.5217 26.408 80.5217 26.504C80.5217 26.8773 80.3777 27.3093 80.0897 27.8C79.8017 28.2907 79.503 28.6373 79.1937 28.84C79.087 28.8827 78.9963 28.9253 78.9217 28.968C78.847 29.0107 78.799 29.0373 78.7777 29.048C78.7563 29.1013 78.639 29.192 78.4257 29.32C78.2123 29.448 77.967 29.5707 77.6897 29.688C77.423 29.8053 77.1937 29.8747 77.0017 29.896C76.895 29.9173 76.7723 29.928 76.6337 29.928C76.5163 29.928 76.4257 29.912 76.3617 29.88C76.2337 29.8587 76.1483 29.848 76.1057 29.848C76.0737 29.848 76.0577 29.8693 76.0577 29.912C76.0577 29.9227 75.9883 30.072 75.8497 30.36C75.7217 30.6373 75.5723 31.1013 75.4017 31.752C75.0923 32.68 74.8203 33.528 74.5857 34.296C74.4683 34.6587 74.399 34.856 74.3777 34.888ZM76.4417 28.504C76.4523 28.5467 76.5163 28.568 76.6337 28.568C76.8043 28.568 77.0283 28.52 77.3057 28.424C77.583 28.328 77.8337 28.2053 78.0577 28.056C78.2817 27.9067 78.4097 27.7573 78.4417 27.608C78.495 27.5547 78.5803 27.464 78.6977 27.336C78.815 27.1973 78.895 27.096 78.9377 27.032C78.9803 26.9573 79.0017 26.8987 79.0017 26.856C79.0017 26.824 78.975 26.7813 78.9217 26.728C78.8043 26.568 78.655 26.488 78.4737 26.488C78.239 26.488 77.8763 26.6213 77.3857 26.888C77.183 26.9627 77.0497 27.0267 76.9857 27.08C76.9323 27.1333 76.8683 27.2507 76.7937 27.432C76.7297 27.592 76.687 27.6933 76.6657 27.736C76.495 28.1413 76.4203 28.3973 76.4417 28.504ZM84.5037 26.92C84.845 26.7813 85.1703 26.712 85.4797 26.712C85.8317 26.712 86.1143 26.7973 86.3277 26.968C86.5517 27.128 86.6637 27.3787 86.6637 27.72C86.717 27.9013 86.7437 28.088 86.7437 28.28C86.7437 28.4293 86.7277 28.584 86.6957 28.744C86.3757 29.4053 86.0557 29.848 85.7357 30.072C85.5863 30.2213 85.3677 30.3813 85.0797 30.552C84.7917 30.7227 84.5303 30.84 84.2957 30.904C83.869 31.0107 83.5917 31.064 83.4637 31.064C83.3463 31.064 83.245 31.0427 83.1597 31C83.0743 30.9573 82.973 30.8827 82.8557 30.776C82.7063 30.648 82.6317 30.4987 82.6317 30.328C82.5997 30.5627 82.4717 30.712 82.2477 30.776C82.0023 30.744 81.821 30.68 81.7037 30.584C81.597 30.4773 81.5437 30.3173 81.5437 30.104C81.5437 30.0613 81.5543 29.9653 81.5757 29.816C81.597 29.7413 81.6343 29.5707 81.6877 29.304C81.7517 29.0373 81.8103 28.8347 81.8637 28.696L82.2157 27.768C82.429 27.1813 82.5943 26.7333 82.7117 26.424C82.8397 26.1147 82.957 25.8853 83.0637 25.736L83.4157 24.84L83.6397 24.68C83.9063 24.7013 84.0877 24.7707 84.1837 24.888C84.2797 24.9947 84.349 25.1653 84.3917 25.4C84.381 25.5173 84.1677 26.056 83.7517 27.016C83.6983 27.1547 83.645 27.2827 83.5917 27.4C83.549 27.5173 83.5063 27.624 83.4637 27.72C83.9543 27.272 84.301 27.0053 84.5037 26.92ZM89.5437 25.24C89.629 25.4427 89.6717 25.624 89.6717 25.784C89.6717 25.9227 89.645 26.0507 89.5917 26.168C89.5063 26.36 89.2983 26.936 88.9677 27.896C88.6477 28.8453 88.4663 29.416 88.4237 29.608C88.317 29.8747 88.237 30.2107 88.1837 30.616C88.205 30.712 88.189 30.8133 88.1357 30.92C88.0823 31.0267 87.9917 31.1173 87.8637 31.192C87.5437 31.1707 87.3037 31.1067 87.1437 31C86.9837 30.8827 86.8663 30.68 86.7917 30.392C86.7917 30.168 86.8183 29.9547 86.8717 29.752C86.925 29.5493 86.9623 29.4053 86.9837 29.32C87.1117 28.84 87.245 28.4293 87.3837 28.088C87.4157 28.024 87.4957 27.832 87.6237 27.512C87.837 26.872 87.997 26.3227 88.1037 25.864C88.221 25.4053 88.2903 25.128 88.3117 25.032C88.461 24.872 88.621 24.792 88.7917 24.792C89.0263 24.792 89.277 24.9413 89.5437 25.24ZM84.8877 29.256C85.2823 28.7653 85.4903 28.3547 85.5117 28.024C85.5117 27.992 85.4903 27.9493 85.4477 27.896C85.405 27.8427 85.373 27.7947 85.3517 27.752C85.085 27.8587 84.909 27.9493 84.8237 28.024C84.7383 28.088 84.685 28.1307 84.6637 28.152C84.2157 28.504 83.9063 28.776 83.7357 28.968C83.565 29.16 83.3463 29.464 83.0797 29.88L83.2557 29.896C83.3303 29.9387 83.421 29.96 83.5277 29.96C83.7517 29.96 83.997 29.8907 84.2637 29.752C84.541 29.6133 84.749 29.448 84.8877 29.256ZM97.2514 20.552C97.4541 20.9147 97.5554 21.208 97.5554 21.432C97.5554 21.5707 97.5288 21.72 97.4754 21.88C97.4221 22.04 97.3474 22.2213 97.2514 22.424C97.1661 22.616 97.1074 22.7493 97.0754 22.824C96.8728 23.2187 96.5848 23.6133 96.2114 24.008C95.8381 24.4027 95.4008 24.7707 94.8994 25.112C94.4514 25.5067 94.0141 25.8107 93.5874 26.024L93.4274 26.104C93.7048 26.1787 93.9928 26.3493 94.2914 26.616C94.3874 26.712 94.4354 26.8293 94.4354 26.968C94.4354 27 94.4248 27.0587 94.4034 27.144C94.3928 27.272 94.3821 27.3947 94.3714 27.512C94.3608 27.6187 94.3554 27.72 94.3554 27.816C94.3021 27.9333 94.2434 28.12 94.1794 28.376C94.1154 28.6213 94.0461 28.84 93.9714 29.032C93.8968 29.224 93.7901 29.432 93.6514 29.656C93.4488 30.008 93.2834 30.248 93.1554 30.376C93.0381 30.4933 92.7928 30.6747 92.4194 30.92L91.9714 31.208C91.9394 31.208 91.8274 31.208 91.6354 31.208C91.4434 31.2187 91.2461 31.1707 91.0434 31.064C90.8514 30.968 90.6914 30.8133 90.5634 30.6C90.4781 30.44 90.4034 30.264 90.3394 30.072C90.2861 29.8693 90.2594 29.688 90.2594 29.528C90.2594 29.4107 90.2754 29.32 90.3074 29.256C90.4461 28.52 90.5581 27.9813 90.6434 27.64C90.7288 27.288 90.7821 27.0853 90.8034 27.032L90.9474 26.696C90.9901 26.6 91.0274 26.5093 91.0594 26.424C91.0914 26.328 91.1074 26.2267 91.1074 26.12L91.0914 25.944C91.0701 25.6773 91.1501 25.4693 91.3314 25.32C91.5021 25.1707 91.6248 25.016 91.6994 24.856C91.7741 24.6747 91.8914 24.424 92.0514 24.104C92.2221 23.784 92.3501 23.5707 92.4354 23.464L92.7554 23.016C92.8941 22.8027 93.0114 22.632 93.1074 22.504C93.2141 22.3653 93.3368 22.2373 93.4754 22.12C93.5928 21.9067 93.7528 21.704 93.9554 21.512C94.1688 21.3093 94.4194 21.0907 94.7074 20.856C94.9421 20.664 95.0861 20.5413 95.1394 20.488C95.1928 20.4347 95.2941 20.3867 95.4434 20.344C95.6034 20.3013 95.7581 20.264 95.9074 20.232L96.2594 20.136C96.3554 20.0827 96.5101 20.104 96.7234 20.2C96.9474 20.2853 97.1234 20.4027 97.2514 20.552ZM96.0994 22.232C96.2914 21.848 96.3874 21.5387 96.3874 21.304C96.3874 21.2187 96.3768 21.16 96.3554 21.128C96.2061 21.2027 95.8114 21.5493 95.1714 22.168C93.9341 23.4053 93.2034 24.296 92.9794 24.84L93.0914 24.856C93.5714 24.6747 94.0194 24.4187 94.4354 24.088C94.8621 23.7467 95.2194 23.4107 95.5074 23.08C95.7954 22.7387 95.9928 22.456 96.0994 22.232ZM92.9954 27.64C92.9954 27.2773 92.9901 27.048 92.9794 26.952C92.9688 26.856 92.9368 26.7387 92.8834 26.6L92.9634 26.328L92.6754 26.424C92.5688 26.4667 92.4941 26.5413 92.4514 26.648C92.4301 26.712 92.3981 26.8293 92.3554 27C92.3128 27.1707 92.2594 27.288 92.1954 27.352C92.1528 27.3947 92.0621 27.736 91.9234 28.376C91.7848 29.016 91.7154 29.416 91.7154 29.576C91.7154 29.672 91.7528 29.72 91.8274 29.72C91.8808 29.72 91.9448 29.688 92.0194 29.624C92.1048 29.56 92.1901 29.464 92.2754 29.336C92.4674 29.0907 92.6381 28.7013 92.7874 28.168C92.8941 27.8587 92.9634 27.6827 92.9954 27.64ZM98.1599 26.92C98.5013 26.7813 98.8266 26.712 99.1359 26.712C99.4879 26.712 99.7706 26.7973 99.9839 26.968C100.208 27.128 100.32 27.3787 100.32 27.72C100.373 27.9013 100.4 28.088 100.4 28.28C100.4 28.4293 100.384 28.584 100.352 28.744C100.032 29.4053 99.7119 29.848 99.3919 30.072C99.2426 30.2213 99.0239 30.3813 98.7359 30.552C98.4479 30.7227 98.1866 30.84 97.9519 30.904C97.5253 31.0107 97.2479 31.064 97.1199 31.064C97.0026 31.064 96.9013 31.0427 96.8159 31C96.7306 30.9573 96.6293 30.8827 96.5119 30.776C96.3626 30.648 96.2879 30.4987 96.2879 30.328C96.2559 30.5627 96.1279 30.712 95.9039 30.776C95.6586 30.744 95.4773 30.68 95.3599 30.584C95.2533 30.4773 95.1999 30.3173 95.1999 30.104C95.1999 30.0613 95.2106 29.9653 95.2319 29.816C95.2533 29.7413 95.2906 29.5707 95.3439 29.304C95.4079 29.0373 95.4666 28.8347 95.5199 28.696L95.8719 27.768C96.0853 27.1813 96.2506 26.7333 96.3679 26.424C96.4959 26.1147 96.6133 25.8853 96.7199 25.736L97.0719 24.84L97.2959 24.68C97.5626 24.7013 97.7439 24.7707 97.8399 24.888C97.9359 24.9947 98.0053 25.1653 98.0479 25.4C98.0373 25.5173 97.8239 26.056 97.4079 27.016C97.3546 27.1547 97.3013 27.2827 97.2479 27.4C97.2053 27.5173 97.1626 27.624 97.1199 27.72C97.6106 27.272 97.9573 27.0053 98.1599 26.92ZM103.2 25.24C103.285 25.4427 103.328 25.624 103.328 25.784C103.328 25.9227 103.301 26.0507 103.248 26.168C103.163 26.36 102.955 26.936 102.624 27.896C102.304 28.8453 102.123 29.416 102.08 29.608C101.973 29.8747 101.893 30.2107 101.84 30.616C101.861 30.712 101.845 30.8133 101.792 30.92C101.739 31.0267 101.648 31.1173 101.52 31.192C101.2 31.1707 100.96 31.1067 100.8 31C100.64 30.8827 100.523 30.68 100.448 30.392C100.448 30.168 100.475 29.9547 100.528 29.752C100.581 29.5493 100.619 29.4053 100.64 29.32C100.768 28.84 100.901 28.4293 101.04 28.088C101.072 28.024 101.152 27.832 101.28 27.512C101.493 26.872 101.653 26.3227 101.76 25.864C101.877 25.4053 101.947 25.128 101.968 25.032C102.117 24.872 102.277 24.792 102.448 24.792C102.683 24.792 102.933 24.9413 103.2 25.24ZM98.5439 29.256C98.9386 28.7653 99.1466 28.3547 99.1679 28.024C99.1679 27.992 99.1466 27.9493 99.1039 27.896C99.0613 27.8427 99.0293 27.7947 99.0079 27.752C98.7413 27.8587 98.5653 27.9493 98.4799 28.024C98.3946 28.088 98.3413 28.1307 98.3199 28.152C97.8719 28.504 97.5626 28.776 97.3919 28.968C97.2213 29.16 97.0026 29.464 96.7359 29.88L96.9119 29.896C96.9866 29.9387 97.0773 29.96 97.1839 29.96C97.4079 29.96 97.6533 29.8907 97.9199 29.752C98.1973 29.6133 98.4053 29.448 98.5439 29.256Z" fill="#3D3D3D"></path> </svg> 