<?xml version="1.0" encoding="UTF-8"?> <svg xmlns="http://www.w3.org/2000/svg" width="98" height="109" viewBox="0 0 98 109" fill="none"> <path d="M79.2188 2.03125H75.1562C73.5401 2.03125 71.9901 2.67327 70.8473 3.81607C69.7045 4.95887 69.0625 6.50884 69.0625 8.125V12.1875C69.0625 12.7262 68.8485 13.2429 68.4676 13.6238C68.0866 14.0047 67.57 14.2188 67.0312 14.2188H62.9688C62.43 14.2188 61.9134 14.0047 61.5324 13.6238C61.1515 13.2429 60.9375 12.7262 60.9375 12.1875V8.125C60.9375 6.50884 60.2955 4.95887 59.1527 3.81607C58.0099 2.67327 56.4599 2.03125 54.8438 2.03125H50.7812C49.1651 2.03125 47.6151 2.67327 46.4723 3.81607C45.3295 4.95887 44.6875 6.50884 44.6875 8.125V12.1875C44.6875 12.7262 44.4735 13.2429 44.0926 13.6238C43.7116 14.0047 43.195 14.2188 42.6562 14.2188H38.5938C38.055 14.2188 37.5384 14.0047 37.1574 13.6238C36.7765 13.2429 36.5625 12.7262 36.5625 12.1875V8.125C36.5625 6.50884 35.9205 4.95887 34.7777 3.81607C33.6349 2.67327 32.0849 2.03125 30.4688 2.03125H26.4062C24.7901 2.03125 23.2401 2.67327 22.0973 3.81607C20.9545 4.95887 20.3125 6.50884 20.3125 8.125V62.9688H10.1562C8.54009 62.9688 6.99012 63.6108 5.84732 64.7536C4.70452 65.8964 4.0625 67.4463 4.0625 69.0625V89.375C4.06573 92.0676 5.13679 94.649 7.04076 96.553C8.94473 98.457 11.5261 99.528 14.2188 99.5312H75.1562C77.8489 99.528 80.4303 98.457 82.3342 96.553C84.2382 94.649 85.3093 92.0676 85.3125 89.375V8.125C85.3125 6.50884 84.6705 4.95887 83.5277 3.81607C82.3849 2.67327 80.8349 2.03125 79.2188 2.03125V2.03125ZM8.125 89.375V69.0625C8.125 68.5238 8.33901 68.0071 8.71994 67.6262C9.10087 67.2453 9.61753 67.0312 10.1562 67.0312H20.3125V89.375C20.3125 90.9912 19.6705 92.5411 18.5277 93.6839C17.3849 94.8267 15.8349 95.4688 14.2188 95.4688C12.6026 95.4688 11.0526 94.8267 9.90982 93.6839C8.76702 92.5411 8.125 90.9912 8.125 89.375ZM81.25 89.375C81.25 90.9912 80.608 92.5411 79.4652 93.6839C78.3224 94.8267 76.7724 95.4688 75.1562 95.4688H22.2909C23.6352 93.7211 24.3675 91.5799 24.375 89.375V8.125C24.375 7.58628 24.589 7.06962 24.9699 6.68869C25.3509 6.30776 25.8675 6.09375 26.4062 6.09375H30.4688C31.0075 6.09375 31.5241 6.30776 31.9051 6.68869C32.286 7.06962 32.5 7.58628 32.5 8.125V12.1875C32.5 13.8037 33.142 15.3536 34.2848 16.4964C35.4276 17.6392 36.9776 18.2812 38.5938 18.2812H42.6562C44.2724 18.2812 45.8224 17.6392 46.9652 16.4964C48.108 15.3536 48.75 13.8037 48.75 12.1875V8.125C48.75 7.58628 48.964 7.06962 49.3449 6.68869C49.7259 6.30776 50.2425 6.09375 50.7812 6.09375H54.8438C55.3825 6.09375 55.8991 6.30776 56.2801 6.68869C56.661 7.06962 56.875 7.58628 56.875 8.125V12.1875C56.875 13.8037 57.517 15.3536 58.6598 16.4964C59.8026 17.6392 61.3526 18.2812 62.9688 18.2812H67.0312C68.6474 18.2812 70.1974 17.6392 71.3402 16.4964C72.483 15.3536 73.125 13.8037 73.125 12.1875V8.125C73.125 7.58628 73.339 7.06962 73.7199 6.68869C74.1009 6.30776 74.6175 6.09375 75.1562 6.09375H79.2188C79.7575 6.09375 80.2741 6.30776 80.6551 6.68869C81.036 7.06962 81.25 7.58628 81.25 8.125V89.375Z" fill="#2C9FB9"></path> <path d="M71.0938 79.2188H34.5312C33.9925 79.2188 33.4759 79.4328 33.0949 79.8137C32.714 80.1946 32.5 80.7113 32.5 81.25C32.5 81.7887 32.714 82.3054 33.0949 82.6863C33.4759 83.0672 33.9925 83.2812 34.5312 83.2812H71.0938C71.6325 83.2812 72.1491 83.0672 72.5301 82.6863C72.911 82.3054 73.125 81.7887 73.125 81.25C73.125 80.7113 72.911 80.1946 72.5301 79.8137C72.1491 79.4328 71.6325 79.2188 71.0938 79.2188Z" fill="#2C9FB9"></path> <path d="M40 48.9661H43.8062V29.8051C45.1643 29.483 46.6117 29.2684 48.1485 29.161C49.721 29.0537 51.2756 29 52.8124 29C54.4564 29 56.0646 29.161 57.6371 29.483C59.2454 29.8051 60.657 30.3955 61.8722 31.2542C63.123 32.113 64.1237 33.2759 64.8742 34.7429C65.6247 36.21 66 38.0885 66 40.3785C66 42.6328 65.6069 44.5113 64.8206 46.0141C64.0701 47.5169 63.0515 48.7335 61.7649 49.6638C60.5141 50.5942 59.0667 51.2561 57.4227 51.6497C55.8144 52.0433 54.1704 52.258 52.4907 52.2938L48.2557 52.3475V56.1582H57.1546V59.4859H48.2557V67H43.8062V59.4859H40V56.1582H43.8062V52.2938H40V48.9661ZM52.9196 32.7571C51.9904 32.7571 51.0969 32.7928 50.2392 32.8644C49.4172 32.9002 48.756 32.9717 48.2557 33.0791V48.6441H52.3299C53.4021 48.6441 54.4742 48.5367 55.5464 48.322C56.6186 48.1073 57.5835 47.6959 58.4412 47.0876C59.299 46.4793 59.9959 45.6563 60.532 44.6186C61.068 43.5452 61.3182 42.1497 61.2825 40.4322C61.3182 38.9652 61.1038 37.7486 60.6392 36.7825C60.2103 35.7806 59.6027 34.9934 58.8165 34.4209C58.066 33.8126 57.1725 33.3832 56.1361 33.1328C55.1354 32.8823 54.0632 32.7571 52.9196 32.7571Z" fill="#2C9FB9"></path> </svg> 