<?xml version="1.0" encoding="UTF-8"?> <svg xmlns="http://www.w3.org/2000/svg" width="28" height="19" viewBox="0 0 28 19" fill="none"> <path fill-rule="evenodd" clip-rule="evenodd" d="M9.06149 17.7668C9.96764 16.9447 10.4207 15.8333 10.4207 14.4327C10.4207 13.2147 10.0885 12.1795 9.42395 11.3269C8.75944 10.4744 7.82309 10.0481 6.61489 10.0481C6.19202 10.0481 5.85976 10.0785 5.61812 10.1394C5.61812 8.43429 6.02589 7.01844 6.84142 5.89183C7.65696 4.76522 8.72923 3.86699 10.0583 3.19712L7.79288 0C7.12837 0.243591 6.35815 0.669869 5.4822 1.27885C4.60625 1.88782 3.76052 2.69471 2.94498 3.69952C2.12945 4.70433 1.43474 5.92227 0.860841 7.35337C0.286944 8.78446 0 10.5048 0 12.5144C0 14.6458 0.528582 16.2596 1.58576 17.3558C2.64294 18.4519 3.98705 19 5.61812 19C7.00756 19 8.15534 18.5889 9.06149 17.7668ZM26.6408 17.7668C27.5469 16.9447 28 15.8333 28 14.4327C28 13.2147 27.6677 12.1795 27.0032 11.3269C26.3387 10.4744 25.4024 10.0481 24.1942 10.0481C23.7713 10.0481 23.4391 10.0785 23.1974 10.1394C23.1974 8.43429 23.6052 7.01844 24.4207 5.89183C25.2362 4.76522 26.3085 3.86699 27.6375 3.19712L25.3722 0C24.7077 0.243591 23.9374 0.669869 23.0615 1.27885C22.1855 1.88782 21.3398 2.69471 20.5243 3.69952C19.7087 4.70433 19.014 5.92227 18.4401 7.35337C17.8662 8.78446 17.5793 10.5048 17.5793 12.5144C17.5793 14.6458 18.1079 16.2596 19.165 17.3558C20.2222 18.4519 21.5663 19 23.1974 19C24.5868 19 25.7346 18.5889 26.6408 17.7668Z" fill="#009AB1"></path> </svg> 