<?xml version="1.0" encoding="UTF-8"?> <svg xmlns="http://www.w3.org/2000/svg" xmlns:xlink="http://www.w3.org/1999/xlink" height="53" viewBox="0 0 131 32" width="217"> <linearGradient id="a" x1="0" x2="0%" y1="0%" y2="100%"> <stop offset="0" stop-color="#83b023"></stop> <stop offset="1" stop-color="#69aa2c"></stop> </linearGradient> <clipPath id="b"> <path d="m6 4.8h21.7v20.2h-21.7z"></path> </clipPath> <path d="m16.1 0c8.9 0 16.1 7.2 16.1 16s-7.2 16-16.1 16-16.1-7.2-16.1-16 7.2-16 16.1-16z" fill="url(#a)"></path> <g fill="#f05f20"> <path d="m41.2 3.8h-2.8v.4h1.2v3.4h.4v-3.4h1.2z"></path> <path d="m42 3.8h-.5l1.4 2.8c-.1.2-.1.4-.2.5s-.2.2-.3.2-.1 0-.2 0-.1 0-.2-.1v.3c.1 0 .1.1.2.1h.3c.1 0 .2 0 .3-.1.1 0 .2-.1.2-.2.1-.1.2-.2.2-.4.1-.2.2-.4.3-.6l1-2.5h-.5l-.7 2-.1.5-.2-.5z"></path> <path d="m45.2 7.6h.5v-1.4h.1.1.1s.1 0 .1 0c.2 0 .4 0 .5-.1.2 0 .3-.1.5-.2.1-.1.2-.2.3-.4s.1-.4.1-.6 0-.4-.1-.6-.2-.3-.3-.4-.3-.1-.5-.2c-.2 0-.3 0-.5 0s-.3 0-.5 0-.3 0-.4.1zm1.3-3.4c.1 0 .2.1.3.1.1.1.2.1.2.2.1.1.1.2.1.4s0 .3-.1.4-.1.2-.2.3-.2.1-.3.1-.2 0-.4 0c0 0 0 0-.1 0h-.1-.1-.1v-1.5h.2.3z"></path> <path d="m48.4 6.5c.1.2.2.4.3.6s.3.3.5.4.4.1.7.1c.5 0 .9-.2 1.2-.5s.4-.8.4-1.5c0-.3 0-.6-.1-.8s-.2-.4-.3-.6-.3-.3-.5-.4-.4-.1-.7-.1c-.5 0-.9.2-1.1.5-.3.3-.4.8-.4 1.5-.1.3-.1.6 0 .8zm.6-2c.2-.3.5-.4.8-.4.2 0 .4 0 .5.1s.2.2.3.3.2.3.2.5.1.4.1.6c0 .5-.1.9-.3 1.2s-.5.4-.8.4c-.2 0-.3 0-.5-.1-.1-.1-.2-.2-.3-.3s-.2-.3-.2-.5-.1-.4-.1-.6c.1-.5.2-.9.3-1.2z"></path> <path d="m54.6 7.6h.4v-3.8h-2.7v3.8h.5v-3.4h1.8z"></path> <path d="m56.2 7.6h2.1v-.4h-1.6v-1.3h1.5v-.4h-1.5v-1.3h1.6v-.4h-2.1z"></path> <path d="m59.3 7.6h.5v-1.4h.1.1.1.1c.2 0 .4 0 .5-.1.2 0 .3-.1.5-.2.1-.1.2-.2.3-.4s.1-.4.1-.6 0-.4-.1-.6-.2-.3-.3-.4-.3-.1-.5-.2c-.2 0-.3 0-.5 0s-.3 0-.5 0-.3 0-.4.1zm1.3-3.4c.1 0 .2.1.3.1.1.1.2.1.2.2.1.1.1.2.1.4s0 .3-.1.4-.1.2-.2.3-.2.1-.3.1-.2 0-.4 0c0 0 0 0-.1 0h-.1-.1-.1v-1.5h.2.3z"></path> <path d="m64.8 7.6h.5l-1.4-3.9h-.2l-1.4 3.9h.5l.2-1h1.4zm-1.2-2.6.1-.6.1.6.4 1.2h-1.1z"></path> <path d="m68.4 3.8h-2.8v.4h1.2v3.4h.5v-3.4h1.2v-.4z"></path> <path d="m69.2 6.5c.1.2.2.4.3.6s.3.3.5.4.4.1.7.1c.5 0 .9-.2 1.2-.5s.4-.8.4-1.5c0-.3 0-.6-.1-.8s-.2-.4-.3-.6-.3-.3-.5-.4-.4-.1-.7-.1c-.5 0-.9.2-1.1.5-.3.3-.4.8-.4 1.5-.1.3-.1.6 0 .8zm.6-2c.2-.3.5-.4.8-.4.2 0 .4 0 .5.1s.2.2.3.3.2.3.2.5.1.4.1.6c0 .5-.1.9-.3 1.2s-.5.4-.8.4c-.2 0-.3 0-.5-.1-.1-.1-.2-.2-.3-.3s-.2-.3-.2-.5-.1-.4-.1-.6c0-.5.1-.9.3-1.2z"></path> <path d="m73.2 7.6h.5v-1.4h.1.1.1s.1 0 .1 0c.2 0 .4 0 .5-.1.2 0 .3-.1.5-.2.1-.1.2-.2.3-.4s.1-.4.1-.6 0-.4-.1-.6-.2-.3-.3-.4-.3-.1-.5-.2c-.2 0-.3 0-.5 0s-.3 0-.5 0-.3 0-.4.1zm1.2-3.4c.1 0 .2.1.3.1.1.1.2.1.2.2.1.1.1.2.1.4s0 .3-.1.4-.1.2-.2.3-.2.1-.3.1-.2 0-.4 0c0 0 0 0-.1 0h-.1-.1-.1v-1.5h.2.3z"></path> </g> <path d="m39 23.3h2.5v-5.4c.4 0 .7.1.9.2.2.2.5.5.8 1.1.2.3.3.5.3.6.1.1.1.2.1.3l1.5 3.2h3l-1.7-3.4c-.4-.9-.8-1.5-1.2-2s-.8-.8-1.4-1c.5-.3.8-.5.9-.8.2-.3.3-.6.5-1.1.3-.8.5-1.3.7-1.6.1-.3.3-.5.6-.6.2-.1.6-.2 1.1-.2h.4v-1.8c-.2 0-.3 0-.4 0-1.2 0-2 .2-2.5.5s-1 1.2-1.6 2.5c-.4 1.1-.7 1.7-.9 1.9s-.6.4-1.1.4v-5.3h-2.5z" fill="#191919"></path> <path d="m50 23.3h2.5l5-8.1v8.1h2.4v-12.4h-2.5l-5 8.2v-8.2h-2.4z" fill="#191919"></path> <path d="m63.9 12.2c0 2.1-.1 3.9-.2 5.3-.2 1.4-.5 2.6-1 3.7h-1.1v4.8h2.1v-2.7h7.8v2.7h2.1v-4.8h-1.1v-10.3h-8.6zm6.1.8v8.2h-4.7c.7-1.7 1-4.5 1-8.2z" fill="#191919"></path> <path d="m78.1 23.3v-2.4h-2.4v2.4z" fill="#191919"></path> <path d="m86.3 23.3v-10.3h3.7v-2.1h-9.9v2.1h3.7v10.3z" fill="#191919"></path> <path d="m93.4 20.5c0-1.5.1-2.5.2-3s.3-.8.5-1 .5-.3.8-.3.7.1 1.1.4l.7-2.1c-.5-.3-1-.4-1.6-.4-.4 0-.7.1-1 .3s-.6.6-1 1.2v-1.3h-2.1v9h2.4z" fill="#191919"></path> <path d="m100.6 16.2c.2-.2.6-.2 1-.2.6 0 1.1.1 1.3.3s.3.5.3 1v.2c-.4.2-1.2.4-2.3.6-.8.2-1.5.3-1.9.6-.4.2-.8.5-1 .9s-.4.8-.4 1.4c0 .8.3 1.4.8 1.9s1.3.8 2.2.8c.5 0 1-.1 1.5-.3s.9-.5 1.3-.9c0 0 0 .1.1.3.1.3.2.5.2.7h2.4c-.2-.4-.4-.8-.4-1.2-.1-.4-.1-1-.1-1.7v-2.8c0-1-.1-1.7-.3-2.1s-.6-.7-1.1-1-1.3-.4-2.4-.4c-1.2 0-2.1.2-2.6.6-.6.4-1 1.1-1.3 1.9l2.2.4c.1-.6.3-.8.5-1zm2.7 3.3c0 .6 0 1-.1 1.2-.1.3-.3.6-.6.8-.4.3-.8.4-1.2.4s-.7-.1-1-.4c-.2-.2-.4-.5-.4-.9 0-.3.2-.6.5-.8.2-.1.6-.3 1.3-.4s1.1-.3 1.5-.4z" fill="#191919"></path> <path d="m113 23.3 3.6-9h-2.5l-1.7 4.6c-.1.3-.2.5-.3.8 0 .1-.1.4-.2.8l-.5-1.5-1.7-4.6h-2.5l3.6 9h2.2z" fill="#191919"></path> <path d="m123.1 21.4c-.3.2-.6.3-.9.3-.5 0-1-.2-1.4-.6s-.6-.9-.6-1.6h6c0-1.8-.3-3.2-1.1-4-.8-.9-1.8-1.3-3.2-1.3-1.2 0-2.2.4-3 1.3-.8.8-1.2 2-1.2 3.5 0 1.2.3 2.3.9 3.1.8 1 1.9 1.5 3.5 1.5 1 0 1.8-.2 2.5-.7s1.1-1.1 1.4-2l-2.4-.4c0 .4-.2.7-.5.9zm-2.8-3.4c0-.6.2-1.2.5-1.5.3-.4.8-.6 1.3-.6s.9.2 1.2.5c.3.4.5.9.5 1.6z" fill="#191919"></path> <path d="m131 23.3v-12.4h-2.4v12.4z" fill="#191919"></path> <path clip-path="url(#b)" d="m19.1 7c0 1.2-1 2.2-2.2 2.2s-2.2-1-2.2-2.2 1-2.2 2.2-2.2 2.2 1 2.2 2.2" fill="#fff"></path> <path clip-path="url(#b)" clip-rule="evenodd" d="m22.1 22.6v-1.3h.9v2.1h1.1v.7c-.2 0-.3 0-.4 0s-.2 0-.4 0h-.3-1zm-3 1.5.1-1.6-.1-1.1 1.6-.1h.7v.5h-.7-.7v.5h.1.1.4.3.2v.6h-.8l-.6.1v.4h.1 1.1.5v.4.3s0 0-.1 0c-.2 0-.4 0-.6 0h-.8zm-2.1-.1-.7-2.8h.2.2.3.1l.2.8.3 1.3.5-2.1.6.1c-.2.7-.3 1.3-.5 1.8l-.4.9zm-2.4-1.2h.5l-.1-.5-.1-.5zm-.9 1.2.4-1.3.5-1.5h.9l.8 2.7h-.9l-.2-.6h-.6l-.2.7zm-1.9-1.6h.7v-.6c-.1 0-.2 0-.2 0-.1 0-.1 0-.2 0 0 0 0 0-.1 0s-.1 0-.2 0zm-1 1.6c0-.2 0-.4 0-.6s0-.4 0-.7v-1.4h.6.6c.4 0 .7.1.9.2s.3.3.3.6c0 .2-.1.3-.2.5-.1.1-.3.2-.5.2.2 0 .3.1.4.2s.1.3.1.5v.2.3c0 .1 0 .1.1.2l-.7-.2c0-.1 0-.3-.1-.4 0-.1 0-.3 0-.4 0 0 0 0 0-.1v-.1h-.8v1zm-2 0c0-.3 0-.7 0-1s0-.7 0-1c0 0 0 0-.1 0-.2 0-.3 0-.4 0 0 0-.1 0-.2 0s-.1 0-.1 0v-.8l1.1.1h1.1v.3.3h-.7v1.5.3.2.2c-.2 0-.3 0-.5-.1 0 0-.1 0-.2 0m3-4.4v-4.3h.7v1.9l1.5-1.9h1l-1.4 1.7 1.4 2.7h-.9l-1-2-.6.7v1.3h-.7zm-4.6.7h17.7v4.7h-17.7zm16.8-8.4c.1 0 .1 0 .1.1v.1c.4 0 .8.3 1 .6h.6c.1 0 .1.1.1.1 0 .1-.1.1-.1.1h-.5-.9-1.5c.1-.5.6-.9 1.1-.9 0 0 0 0 0-.1zm1.2 1.3c0 .7-.5 1.3-1.2 1.3s-1.2-.5-1.2-1.2c0 0 0 0 0-.1zm-8.3 6.4h-.5c-.4 0-.7 0-.7-.4l-.5-6.9c0-.1 0-.2 0-.3.5-.4 1.1-.6 1.6-.6.6 0 1 .1 1.6.6v.1l-.5 6.9c0 .4-.1.6-.5.6zm-7.5-7.6c.4 0 .7.2.9.4h.2c.3-.2 1-.6 1.5.2-.1.2-.2.4-.5.4-.2-.4-.6-.4-.9-.3 0 .1 0 .1-.1.2 0 .1.1.3.1.4 0 .7-.5 1.2-1.2 1.2s-1.2-.5-1.2-1.2c0-.2 0-.3.1-.4s-.1-.1-.1-.2c-.2-.1-.6-.1-.9.3-.2 0-.4-.1-.5-.4.4-.8 1.2-.4 1.5-.2h.2c.2-.3.5-.4.9-.4m-1.2 3.2-1 4.4h4.1l-1.1-4.2c-.7.2-1.3.1-2-.2m17 .1-.3 4.3h-1.8l-.4-4.4c.8.3 1.7.4 2.5.1m-18.7-2.8c2.1 3.8 4.8 2.1 6.6.2 1.2-1.1 2.3-2.5 3.7-2.5s2.6 1.4 3.7 2.5c1.8 1.9 4.6 3.6 6.7-.2l.5.2c-2.5 4.1-5.5 2.3-7.6.3-1.1-1-2.2-2-3.3-2-1.2 0-2.3 1.1-3.4 2.1-2 1.9-4.9 3.8-7.4-.3zm12.3 2.8h1.3c.3 0 .5 0 .7.1s.4.2.5.4.3.4.3.7c.1.3.1.6.1 1s0 .7-.1.9c-.1.3-.2.6-.4.8-.1.1-.3.3-.5.3-.2.1-.4.1-.6.1h-1.4v-4.3zm.7.7v2.9h.5.4c.1 0 .2-.1.3-.2s.1-.2.2-.4c0-.2.1-.5.1-.8s0-.6-.1-.8c0-.2-.1-.3-.2-.4s-.2-.2-.3-.2-.3 0-.6 0h-.3z" fill="#fff" fill-rule="evenodd"></path> </svg> 