<?xml version="1.0" encoding="UTF-8"?> <svg xmlns="http://www.w3.org/2000/svg" width="45" height="50" viewBox="0 0 45 50" fill="none"> <path d="M43.3392 17.4299C43.1292 12.9499 41.8192 8.41994 42.4792 3.97994C42.4792 3.96994 42.4892 3.95994 42.4892 3.94994C42.4992 3.87994 42.4992 3.80994 42.5092 3.72994C42.5192 3.66994 41.9792 3.98994 41.2692 4.47994C41.5192 4.12994 41.9192 3.54994 42.0492 3.40994C42.1192 3.32994 43.6393 1.37994 43.2793 1.29994C43.2093 1.27994 43.1392 1.26994 43.0692 1.24994C42.1492 1.04994 40.7592 2.60994 39.7592 3.95994C39.2592 4.48994 38.7592 5.00994 38.2992 5.56994C36.1692 3.29994 35.8793 -0.980062 31.9193 1.88994C30.6093 2.83994 29.3893 4.17994 28.4493 5.48994C28.0593 6.03994 27.7992 6.68994 27.5492 7.34994C25.7792 6.41994 25.6292 2.21994 24.2992 1.44994C24.0492 1.29994 23.5593 1.65994 23.3893 1.76994C21.9993 2.65994 20.7992 3.74994 19.8393 5.08994C19.5193 5.54994 19.2992 5.93994 19.0792 6.36994C18.1392 5.05994 17.8492 3.24994 16.5892 2.05994C16.4192 1.98994 16.2492 2.01994 16.0892 2.12994C13.3892 3.14994 12.3792 5.21994 11.2892 7.38994C9.24925 6.38994 6.41925 2.68994 5.88925 1.43994C5.57925 0.97994 1.21925 4.55994 1.68925 5.63994C1.99925 6.13994 1.94924 7.24994 1.84924 8.35994C1.18924 8.97994 0.719247 9.62994 0.859247 10.1199C1.91925 13.7999 1.23925 17.6899 1.43925 21.4599C1.60925 24.7799 1.70925 28.0199 1.70925 31.3499C1.71925 37.0399 1.78924 42.6399 2.26924 48.2999C2.23924 48.4799 2.31924 48.5499 2.48924 48.5199C2.66924 48.5499 2.85925 48.5799 3.03925 48.6199C3.16925 48.6399 3.31925 48.6099 3.46925 48.5599C3.71925 48.6099 3.96925 48.6299 4.21925 48.6499C3.88925 49.1699 3.66924 49.5499 3.66924 49.5499C8.53924 48.8299 13.5293 48.3699 18.4193 48.0299C23.6793 47.6599 28.9992 48.1999 34.2592 47.6899C34.0492 48.0299 33.9392 48.2599 33.9892 48.2799C40.9692 51.3799 44.2392 37.5899 44.4992 33.4899C44.8492 28.1599 43.5892 22.7599 43.3392 17.4299ZM38.2592 44.0599C38.1392 44.0099 37.9992 44.0199 37.8492 44.0499C29.6392 42.8499 20.4792 43.5299 12.0392 44.6499C11.9892 44.6499 11.9392 44.6499 11.8892 44.6599C10.2592 44.7599 8.48924 45.0699 6.90924 44.6499C6.98924 44.4599 7.00925 44.3399 6.95925 44.3399C4.92924 44.0999 5.77925 27.9599 5.81925 25.9999C5.88925 22.4299 5.58924 18.9699 5.51924 15.3999C5.48924 13.7399 5.53925 12.1099 5.45925 10.4899C6.81925 11.5899 8.32924 12.1899 9.66924 11.5199C11.3592 10.6799 12.5092 9.20994 13.4392 7.57994C14.3292 9.03994 15.2792 11.4699 15.8592 11.8299C16.3492 12.1399 17.6292 10.8699 17.8992 10.6399C18.3392 10.2599 19.7093 8.92994 20.8893 7.53994C20.9493 8.37994 21.3192 9.26994 21.7392 9.95994C22.7292 11.5899 24.0492 12.2999 25.7492 11.7599C27.6792 11.1499 29.6392 8.63994 30.5893 6.95994C30.7192 6.73994 30.8092 6.48994 30.8992 6.24994C30.9792 6.31994 31.0692 6.39994 31.1792 6.47994C31.5392 8.27994 33.3592 10.7199 35.0492 11.1699C35.8292 11.3699 37.0493 10.1299 37.6393 9.51994C37.4393 11.1299 37.4492 12.7499 37.6192 14.3899C38.0092 18.0899 38.0492 21.7899 38.4492 25.4899C38.7793 28.5799 39.1592 31.6399 39.4392 34.7399C39.4992 35.7899 39.5192 44.5899 38.2592 44.0599Z" fill="#333333"></path> <path d="M29.7991 15.4699L29.8091 15.4599C27.7191 15.0499 25.2191 15.9499 23.0391 15.9899C20.6691 16.0299 18.3291 15.9799 15.9691 16.3099C14.8791 16.4599 13.7291 17.8699 13.0491 18.6399C12.8891 18.8199 11.3991 20.7399 12.0791 20.6599C14.4191 20.3599 16.7191 20.4399 19.0691 20.4299C21.4391 20.4099 23.7391 20.0099 26.0791 19.6399C27.2091 19.4599 28.4591 17.9299 29.1091 17.1399C29.2491 16.9599 30.3891 15.3999 29.7991 15.4699Z" fill="#333333"></path> <path d="M32.7992 23.1798C26.9492 22.2998 20.3892 24.4298 14.5292 24.9398C13.1492 25.0598 10.9492 28.8298 11.0492 28.8298C17.1592 28.3898 23.4492 27.7298 29.5092 26.8498C30.4592 26.7098 33.3392 23.2598 32.7992 23.1798Z" fill="#333333"></path> <path d="M34.6692 32.1599C29.0392 32.3199 23.3892 33.1699 17.7592 33.4799C16.5992 33.5399 15.1991 35.2799 14.4991 36.0799C14.3091 36.2999 12.6391 38.3799 13.4191 38.3299C19.2191 37.9599 24.9891 36.8899 30.7491 36.5399C32.2591 36.4399 34.8492 32.1599 34.6692 32.1599Z" fill="#333333"></path> </svg> 