<?xml version="1.0" encoding="UTF-8"?> <svg xmlns="http://www.w3.org/2000/svg" width="108" height="101" viewBox="0 0 108 101" fill="none"> <path d="M70.7042 3.20192e-05C64.4432 -0.00856448 58.2998 1.71398 52.9429 4.98014C47.586 8.24629 43.2209 12.9309 40.3229 18.5238C37.4249 24.1168 36.105 30.4038 36.5069 36.7004C36.9088 42.9969 39.0171 49.0617 42.6024 54.2344L39.0871 57.7769C37.9623 57.2357 36.6989 57.058 35.47 57.2681C34.241 57.4783 33.1066 58.0661 32.2219 58.951L7.99409 83.3666C6.15828 85.2821 5.14246 87.8476 5.16542 90.5105C5.18838 93.1734 6.24829 95.7208 8.11685 97.6038C9.98542 99.4869 12.5131 100.555 15.1556 100.578C17.798 100.601 20.3438 99.5776 22.2446 97.7275L46.4784 73.3119C47.3551 72.4198 47.937 71.2766 48.1444 70.0386C48.3519 68.8006 48.1748 67.5282 47.6374 66.3955L51.1547 62.851C55.5678 65.9452 60.6417 67.9491 65.9659 68.7005C71.2901 69.4519 76.7151 68.9298 81.8019 67.1763C86.8887 65.4228 91.4945 62.4872 95.2466 58.6071C98.9987 54.7269 101.792 50.0112 103.4 44.8414C105.008 39.6715 105.386 34.1929 104.503 28.8486C103.62 23.5043 101.501 18.4445 98.3177 14.0786C95.1344 9.71263 90.9758 6.16317 86.1787 3.71737C81.3815 1.27157 76.0804 -0.00188741 70.7042 3.20192e-05V3.20192e-05ZM43.6263 70.4397L19.3945 94.8594C18.2426 95.9673 16.7116 96.5854 15.1193 96.5854C13.5271 96.5854 11.996 95.9673 10.8442 94.8594C9.71057 93.7167 9.07374 92.167 9.07374 90.5511C9.07374 88.9353 9.71057 87.3856 10.8442 86.2428L35.072 61.8232C35.45 61.4424 35.9626 61.2284 36.497 61.2284C37.0315 61.2284 37.5441 61.4424 37.9221 61.8232L43.6243 67.5696C44.0018 67.9501 44.2141 68.4661 44.2144 69.0042C44.2148 69.5423 44.0033 70.0586 43.6263 70.4397V70.4397ZM45.0514 63.2592L42.1992 60.385L45.1279 57.4316C46.0198 58.4445 46.9694 59.4042 47.972 60.3058L45.0514 63.2592ZM70.7042 65C64.7244 65 58.8789 63.2131 53.9069 59.8651C48.9349 56.5172 45.0597 51.7586 42.7713 46.1912C40.4829 40.6237 39.8842 34.4975 41.0508 28.5871C42.2174 22.6768 45.0969 17.2478 49.3253 12.9866C53.5536 8.72549 58.9409 5.82362 64.8058 4.64798C70.6707 3.47234 76.7498 4.07572 82.2744 6.38183C87.799 8.68794 92.521 12.5932 95.8432 17.6038C99.1654 22.6143 100.939 28.5051 100.939 34.5313C100.93 42.6093 97.7412 50.3538 92.0731 56.0658C86.405 61.7779 78.7201 64.9909 70.7042 65V65Z" fill="#2C9FB9"></path> <path d="M70.7041 8.125C65.5216 8.125 60.4555 9.6737 56.1464 12.5753C51.8374 15.4768 48.4788 19.6009 46.4956 24.426C44.5123 29.2511 43.9934 34.5605 45.0045 39.6829C46.0155 44.8052 48.5111 49.5103 52.1757 53.2033C55.8403 56.8963 60.5092 59.4112 65.5921 60.4301C70.675 61.449 75.9436 60.9261 80.7316 58.9274C85.5196 56.9288 89.612 53.5443 92.4912 49.2018C95.3704 44.8593 96.9072 39.7539 96.9072 34.5312C96.8992 27.5304 94.136 20.8185 89.2237 15.8681C84.3114 10.9177 77.6511 8.13306 70.7041 8.125V8.125ZM70.7041 56.875C66.3189 56.875 62.0322 55.5646 58.3861 53.1094C54.7399 50.6542 51.8981 47.1646 50.22 43.0818C48.5418 38.999 48.1028 34.5065 48.9583 30.1722C49.8138 25.8379 51.9254 21.8567 55.0262 18.7318C58.127 15.607 62.0777 13.479 66.3786 12.6168C70.6795 11.7547 75.1375 12.1972 79.1889 13.8883C83.2403 15.5795 86.7031 18.4433 89.1393 22.1177C91.5756 25.7921 92.876 30.1121 92.876 34.5312C92.869 40.455 90.5309 46.1342 86.3743 50.3229C82.2178 54.5117 76.5823 56.868 70.7041 56.875Z" fill="#2C9FB9"></path> <path d="M82.2074 22.939C81.8294 22.5582 81.3168 22.3442 80.7824 22.3442C80.2479 22.3442 79.7353 22.5582 79.3573 22.939L59.2011 43.2515C58.8339 43.6346 58.6307 44.1477 58.6353 44.6802C58.6399 45.2128 58.8519 45.7223 59.2256 46.0989C59.5993 46.4755 60.1049 46.6891 60.6334 46.6938C61.1619 46.6984 61.671 46.4937 62.0512 46.1236L82.2074 25.8111C82.5853 25.4302 82.7976 24.9137 82.7976 24.3751C82.7976 23.8364 82.5853 23.3199 82.2074 22.939V22.939Z" fill="#2C9FB9"></path> </svg> 