<svg width="211" height="35" viewBox="0 0 211 35" fill="none" xmlns="http://www.w3.org/2000/svg">
<path d="M27.9199 7.00244V14.0047H34.8885V7.00244H27.9199Z" fill="#83C451"/>
<path d="M27.9199 27.9979H34.8885V20.9956H27.9199V27.9979Z" fill="#D1DE3D"/>
<path d="M27.9199 34.9998H34.8885V27.9976H27.9199V34.9998Z" fill="#00B6F2"/>
<path d="M20.9395 7.00226H27.9193V0H20.9395V7.00226Z" fill="#78D1F7"/>
<path d="M20.9395 14.0047H27.9193V7.00244H20.9395V14.0047Z" fill="#00B6F2"/>
<path d="M20.9395 21.0067H27.9193V14.0044H20.9395V21.0067Z" fill="#78D1F7"/>
<path d="M13.96 7.00226H20.9398V0H13.96V7.00226Z" fill="#3F4F6A"/>
<path d="M13.96 20.9954H20.9398V14.0044H13.96V20.9954Z" fill="#D1DE3D"/>
<path d="M13.96 27.9976V34.9998H20.9398V27.9976H13.96Z" fill="#83C451"/>
<path d="M6.97949 14.0047H13.9594V7.00244H6.97949V14.0047Z" fill="#83C451"/>
<path d="M6.97949 20.9954V14.0044H13.9594V20.9954H6.97949Z" fill="#78D1F7"/>
<path d="M6.97949 27.9979H13.9594V20.9956H6.97949V27.9979Z" fill="#00B6F2"/>
<path d="M0 0V7.00226H6.97987V0H0Z" fill="#78D1F7"/>
<path d="M0 7.00244V14.0047H6.97987V7.00244H0Z" fill="#D1DE3D"/>
<path d="M0 27.9979H6.97987V20.9956H0V27.9979Z" fill="#3F4F6A"/>
<path d="M0 34.9998H6.97987V27.9976H0V34.9998Z" fill="#78D1F7"/>
<path d="M56.5508 7.8381L61.4977 21.82L66.4221 7.8381H71.64V27.1056H67.6531V21.8426L68.0484 12.751L62.8418 27.1056H60.1198L54.9358 12.7623L55.3311 21.7974V27.1056H51.3555V7.8381H56.5508ZM87.7457 19.7871C87.7457 24.1466 85.3852 27.4331 81.1272 27.4331C76.8693 27.4331 74.5427 24.1466 74.5427 19.7871C74.5427 15.4276 76.9032 12.175 81.1611 12.175C85.4191 12.175 87.7457 15.4276 87.7457 19.7871ZM84.0637 19.7871C84.0637 16.862 83.0924 15.1001 81.1385 15.1001C79.1846 15.1001 78.2133 16.862 78.2133 19.7871C78.2133 22.7123 79.1846 24.4515 81.1385 24.4515C83.0924 24.4515 84.0637 22.6897 84.0637 19.7645V19.7871ZM105.523 24.8016L105.308 31.0924H102.778L102.575 27.1056H92.5232L92.3876 31.0585H89.8351L89.5867 24.7678C92.3538 23.085 93.2234 19.4596 93.7091 16.173L94.2512 12.4912H102.948L104.19 24.2256L105.523 24.8016ZM100.892 24.3725L100.023 15.3373H97.1312L96.9054 16.941C96.5214 19.4031 95.934 22.588 94.0366 24.3951L100.892 24.3725ZM120.849 12.4912H116.941C116.545 16.3598 115.634 20.1581 114.231 23.7852C112.661 20.1914 111.63 16.3859 111.17 12.4912H107.183C107.669 17.5622 109.894 22.6558 112.39 27.1056L109.555 32.9333H113.406L116.332 26.891C118.274 22.588 120.352 17.4267 120.849 12.4912ZM137.079 27.1056L135.532 12.4912H126.158L125.367 18.1382C124.983 20.9278 124.147 23.6722 121.843 24.6209L123.04 27.58C127.242 26.3376 128.462 22.1588 128.981 18.5448L129.41 15.4276H132.144L133.363 27.1056H137.079ZM151.502 22.588C151.502 25.7052 149.175 27.4444 144.996 27.4444C143.205 27.4702 141.428 27.108 139.79 26.3828V12.4912H143.438V17.9349C144.035 17.8002 144.644 17.7283 145.256 17.7203C149.311 17.7316 151.502 19.5386 151.502 22.588ZM147.865 22.588C147.865 20.9843 146.939 20.0921 144.906 20.0921C144.409 20.1104 143.916 20.19 143.438 20.3292V24.8468C143.937 25.0453 144.47 25.145 145.008 25.1405C146.894 25.0727 147.865 24.2595 147.865 22.588ZM160.289 13.7448C161.109 13.7145 161.927 13.8578 162.688 14.1653C163.449 14.4729 164.136 14.9377 164.705 15.5293C165.873 16.8165 166.482 18.5143 166.399 20.2502V20.589C166.417 21.8009 166.15 23.0001 165.62 24.0901C165.121 25.1001 164.335 25.9406 163.361 26.507C162.351 27.0978 161.199 27.3987 160.029 27.3767C159.174 27.4088 158.323 27.2571 157.532 26.9317C156.74 26.6063 156.028 26.1149 155.444 25.4906C154.228 24.1026 153.6 22.2961 153.693 20.4535V19.1998C153.573 16.7192 154.161 14.2555 155.387 12.0959C155.908 11.2445 156.61 10.5185 157.444 9.96988C158.277 9.42126 159.222 9.06356 160.21 8.92232C161.184 8.82463 162.129 8.53277 162.988 8.06398C163.234 7.90504 163.435 7.68543 163.572 7.4263C163.708 7.16716 163.776 6.87724 163.768 6.58447H165.134C165.158 7.2297 164.998 7.86841 164.671 8.42539C164.323 8.92439 163.842 9.31568 163.282 9.55479C162.375 9.92924 161.421 10.18 160.447 10.3002C159.109 10.488 157.883 11.1491 156.991 12.1637C156.039 13.3221 155.439 14.7293 155.263 16.2182C155.833 15.4738 156.558 14.8613 157.386 14.4225C158.311 13.9365 159.346 13.6991 160.391 13.7336L160.289 13.7448ZM155.331 20.2615V20.589C155.266 22.0195 155.733 23.4233 156.641 24.5306C157.472 25.4426 158.632 25.9871 159.864 26.0443C161.097 26.1015 162.302 25.6667 163.214 24.8355L163.519 24.5306C164.451 23.3944 164.933 21.9556 164.874 20.4873V20.1485C164.926 18.8068 164.452 17.4978 163.553 16.5006C163.112 16.034 162.577 15.6668 161.983 15.4234C161.389 15.18 160.75 15.0659 160.108 15.0888C159.473 15.0688 158.842 15.1866 158.257 15.4342C157.672 15.6818 157.147 16.0534 156.72 16.5232C155.813 17.5485 155.332 18.8819 155.376 20.2502L155.331 20.2615ZM178.529 27.1056C178.338 26.4561 178.235 25.7836 178.224 25.1066C177.666 25.831 176.936 26.4053 176.101 26.7781C175.243 27.1696 174.311 27.37 173.368 27.3654C172.135 27.4387 170.922 27.0342 169.979 26.236C169.566 25.8735 169.238 25.4246 169.017 24.9211C168.796 24.4176 168.689 23.8717 168.703 23.3221C168.695 22.6564 168.86 22 169.183 21.4177C169.506 20.8354 169.975 20.3473 170.544 20.0017C171.997 19.1106 173.688 18.685 175.389 18.782H178.258V17.1556C178.291 16.7 178.225 16.2426 178.063 15.8154C177.901 15.3882 177.648 15.0015 177.321 14.6822C176.549 14.0469 175.562 13.7316 174.565 13.8013C173.58 13.7619 172.612 14.0609 171.82 14.6484C171.483 14.8715 171.204 15.1728 171.007 15.5267C170.81 15.8805 170.702 16.2766 170.691 16.6813H169.076C169.087 16.0971 169.238 15.524 169.515 15.0095C169.792 14.495 170.187 14.0537 170.668 13.7223C171.781 12.8502 173.163 12.3912 174.576 12.4235C175.942 12.3453 177.288 12.7714 178.36 13.6206C178.832 14.0453 179.205 14.5693 179.451 15.1552C179.697 15.741 179.811 16.374 179.783 17.0088V23.7852C179.733 24.8389 179.883 25.8926 180.223 26.891V27.1056H178.529ZM173.548 25.9762C174.547 25.9913 175.529 25.7252 176.383 25.2082C177.188 24.7282 177.823 24.0099 178.202 23.1527V20.0017H175.378C174.087 19.9488 172.806 20.2495 171.674 20.8713C171.271 21.0958 170.935 21.4233 170.701 21.8202C170.467 22.2171 170.343 22.6693 170.341 23.1301C170.333 23.5085 170.409 23.884 170.563 24.2297C170.717 24.5753 170.946 24.8825 171.233 25.1292C171.871 25.6922 172.698 25.9946 173.548 25.9762ZM195.008 27.1056H193.415V20.5438H185.701V27.1056H184.097V12.7849H185.69V19.1998H193.404V12.7849H194.996L195.008 27.1056ZM203.139 20.5438H200.937V27.1056H199.333V12.7849H200.937V19.1434H203.106L208.357 12.7962H210.357L204.427 19.7419L211 27.1056H208.945L203.139 20.5438Z" fill="#26466B"/>
</svg>
