<svg width="220" height="35" viewBox="0 0 220 35" fill="none" xmlns="http://www.w3.org/2000/svg">
<g clip-path="url(#clip0)">
<path d="M185.9 0.314453H185.114V34.3359H185.9V0.314453Z" fill="black"/>
<path d="M199.1 21.2141H196.429V13.3569H201.064V14.1426H197.372V16.6569H199.1C200.672 16.6569 201.693 17.2855 201.693 18.8569V18.9355C201.614 20.4284 200.672 21.2141 199.1 21.2141ZM199.022 20.5069C200.2 20.5069 200.672 19.9569 200.672 19.0141V18.9355C200.672 17.9926 200.122 17.4426 198.943 17.4426H197.293V20.5069H199.022Z" fill="black"/>
<path d="M202.558 19.6427C202.558 18.307 203.972 17.8356 205.465 17.8356H206.329V17.4427C206.329 16.4999 206.015 16.107 205.072 16.107C204.286 16.107 203.815 16.4213 203.736 17.1284H202.793C202.95 15.7927 203.972 15.3213 205.072 15.3213C206.172 15.3213 207.193 15.7927 207.193 17.3641V21.2141H206.25V20.507C205.858 21.057 205.308 21.3713 204.443 21.3713C203.343 21.3713 202.558 20.8213 202.558 19.6427ZM206.25 19.2499V18.5427H205.465C204.286 18.5427 203.5 18.857 203.5 19.6427C203.5 20.2713 203.815 20.5856 204.6 20.5856C205.465 20.5856 206.25 20.1141 206.25 19.2499Z" fill="black"/>
<path d="M212.457 18.6999H209.628V21.2142H208.686V15.4785H209.628V17.9142H212.457V15.4785H213.4V21.2142H212.457V18.6999Z" fill="black"/>
<path d="M215.835 18.3071V21.2142H214.893V15.4785H215.835V18.1499L218.193 15.4785H219.293L216.857 18.1499L219.528 21.2142H218.428L215.835 18.3071Z" fill="black"/>
<path d="M17.05 0.393066C7.62143 0.393066 0 8.0145 0 17.4431C0 26.8716 7.62143 34.4931 17.05 34.4931C26.4786 34.4931 34.1 26.8716 34.1 17.4431C34.1 8.0145 26.4786 0.393066 17.05 0.393066ZM14.6929 24.6716L13.4357 28.3645C8.72143 26.7931 5.57857 22.3145 5.57857 17.2859C5.57857 12.2574 8.72143 7.85735 13.5143 6.20735L14.7714 9.90021C11.6286 10.9216 9.58571 13.9074 9.58571 17.2074C9.42857 20.6645 11.55 23.6502 14.6929 24.6716ZM20.5071 28.4431L19.3286 24.6716C22.55 23.6502 24.6714 20.6645 24.6714 17.2859C24.6714 13.9074 22.55 11.0002 19.4071 9.97878L20.6643 6.20735C25.4571 7.77878 28.6786 12.2574 28.6786 17.2859C28.6786 22.4716 25.3786 26.9502 20.5071 28.4431Z" fill="#00BEF0"/>
<path d="M173.171 20.5073L175.057 22.7859C173.093 24.8288 170.657 25.3788 168.693 25.3788C166.807 25.3788 165.471 25.0645 164.293 24.5145C161.778 23.2573 160.521 20.743 160.521 17.6788C160.521 13.043 163.664 9.5859 168.3 9.5859C173.485 9.5859 176 13.4359 175.607 18.4645H163.821C163.9 19.7216 164.607 20.9002 165.628 21.5288C166.493 22.0788 167.514 22.3145 168.85 22.3145C170.343 22.3145 171.835 21.843 173.171 20.5073ZM163.9 15.7145H172.228C171.993 13.9073 170.5 12.3359 168.143 12.3359C165.707 12.3359 164.214 14.0645 163.9 15.7145ZM84.7783 24.9073H89.0211L82.3426 17.1288L88.9425 9.82161H84.7783L79.7497 15.6359H78.2568V9.82161H75.0354V24.8288H78.2568V18.8573H79.7497L84.7783 24.9073ZM98.6068 12.5716C95.8568 12.5716 94.0497 14.693 94.0497 17.3645C94.0497 20.0359 95.8568 22.1573 98.6068 22.1573C101.357 22.1573 103.085 20.1145 103.085 17.3645C103.164 14.7716 101.435 12.5716 98.6068 12.5716ZM99.1568 9.50732C103.4 9.50732 106.543 12.8073 106.543 17.3645C106.543 21.843 103.478 25.3002 99.1568 25.3002C97.114 25.3002 95.464 24.593 94.2854 23.3359V31.193H90.9854V9.90018H94.2068V11.7073C95.464 10.2145 97.114 9.50732 99.1568 9.50732ZM141.978 9.90018H128.543V12.8859H133.65V24.9073H136.95V12.8859H142.057V9.90018H141.978ZM72.7568 9.90018H59.2426V12.8859H64.3497V24.9073H67.6497V12.8859H72.7568V9.90018ZM55.314 17.443C55.314 14.6145 53.3497 12.5716 50.5997 12.5716C47.9283 12.5716 45.8854 14.6145 45.8854 17.443C45.8854 20.2716 47.8497 22.3145 50.5997 22.3145C53.2711 22.3145 55.314 20.2716 55.314 17.443ZM42.5068 17.443C42.5068 12.9645 45.964 9.5859 50.5997 9.5859C55.1568 9.5859 58.6925 12.9645 58.6925 17.443C58.6925 21.9216 55.2354 25.3788 50.5997 25.3788C46.0426 25.3002 42.5068 21.9216 42.5068 17.443ZM157.928 9.90018V24.9073H154.707V15.243L146.85 24.9073H144.257V9.90018H147.478V19.5645L155.335 9.90018H157.928ZM126.264 24.9073H123.043V9.90018H126.264V24.9073ZM117.935 19.8002C117.935 18.4645 116.993 17.5216 115.735 17.5216H112.435V22.1573H115.735C116.993 22.1573 117.935 21.1359 117.935 19.8002ZM121.157 19.8002C121.157 22.7859 118.957 24.9073 115.814 24.9073H109.214V9.90018H112.435V14.7716H116.128C119.271 14.7716 121.157 16.8145 121.157 19.8002Z" fill="black"/>
</g>
<defs>
<clipPath id="clip0">
<rect width="220" height="34.5714" fill="white"/>
</clipPath>
</defs>
</svg>
