<svg width="238" height="40" viewBox="0 0 238 40" fill="none" xmlns="http://www.w3.org/2000/svg">
<path d="M45.0667 34.5239H39.207V13.8074H60.3021V34.5239H54.4436V17.8318H45.0667V34.5239Z" fill="#54BF36"/>
<path d="M63.1431 19.4888V40H68.5436V32.9858C70.3531 34.94 73.3009 35.0875 74.0118 35.0875C79.1618 35.0875 82.3225 31.8015 82.3225 27.0366C82.3225 22.0646 79.1963 18.9279 74.1189 18.9279C72.8387 18.9279 70.3531 19.1349 68.293 21.296H68.1866L68.2216 19.4888H63.1431ZM68.293 26.977C68.293 22.7754 70.8867 21.9468 72.5204 21.9468C74.1189 21.9468 76.7109 22.7754 76.7109 26.977C76.7109 29.5825 75.6109 32.0692 72.5204 32.0692C69.3597 32.0692 68.293 29.5825 68.293 26.977Z" fill="#54BF36"/>
<path d="M95.711 32.7209C93.7229 34.584 91.8074 35.0879 89.6746 35.0879C83.85 35.0879 83.6357 30.7072 83.6357 28.9025V19.4891H89.0346V28.191C89.0346 31.1814 90.0673 32.0696 92.0542 32.0696C95.4624 32.0696 95.711 29.0208 95.711 27.9257V19.4891H101.112V34.5246H95.711V32.7209Z" fill="#54BF36"/>
<path d="M108.854 28.1903H112.158C114.713 28.1903 115.246 28.9606 115.246 29.9672C115.246 30.6179 114.89 31.5061 112.225 31.5061H108.854V28.1903ZM103.456 19.4885V34.5239H114.182C118.088 34.5239 120.787 33.7547 120.787 30.6769C120.787 28.3093 119.471 27.2735 116.489 26.7412V26.6519C118.443 26.3854 120.148 25.1718 120.148 23.1303C120.148 19.4885 115.886 19.4885 114.217 19.4885H103.456ZM108.854 22.5093H111.765C113.292 22.5093 114.605 22.7454 114.605 23.9875C114.605 25.3503 112.546 25.3796 111.658 25.3796H108.854V22.5093Z" fill="#54BF36"/>
<path d="M127.605 24.3439C127.605 22.1245 129.949 21.9472 130.909 21.9472C131.513 21.9472 133.749 21.9769 133.822 23.9298C133.822 24.078 133.822 24.1963 133.822 24.3439C133.715 25.824 132.295 25.5282 128.318 26.0309C125.048 26.4747 121.604 27.3028 121.604 30.7371C121.604 31.9803 122.137 35.0879 127.89 35.0879C130.094 35.0879 132.509 34.5246 133.927 33.0457H134.037L134.497 34.5246H140.179V34.2591C139.149 34.0516 139.078 33.0457 139.113 31.4175L139.219 24.5504C139.256 22.8056 139.078 18.9283 130.945 18.9283C128.991 18.9283 122.705 19.1049 122.456 24.3439H127.605ZM133.857 28.3099C133.857 31.3288 131.228 32.0696 129.916 32.0696C128.92 32.0696 127.144 31.7429 127.144 30.323C127.144 28.6353 129.168 28.3099 130.306 28.1617C132.401 27.8655 132.223 27.9548 133.857 27.3622V28.3099Z" fill="#54BF36"/>
<path d="M139.823 22.5093V19.4885H157.154V22.5093H151.187V34.5239H145.79V22.5093H139.823Z" fill="#54BF36"/>
<path d="M164.046 17.8318H177.506V13.8074H158.184V34.5239H170.046C175.801 34.5239 179.493 32.5127 179.493 28.2796C179.493 21.6508 172.107 21.5022 170.046 21.5022H164.046V17.8318ZM164.046 25.5276H168.91C170.334 25.5276 173.173 25.6757 173.173 28.1611C173.173 30.1148 171.112 30.499 168.805 30.499H164.046V25.5276Z" fill="#54BF36"/>
<path d="M186.527 24.3439C186.527 22.1245 188.873 21.9472 189.829 21.9472C190.434 21.9472 192.672 21.9769 192.744 23.9298C192.744 24.078 192.744 24.1963 192.744 24.3439C192.636 25.824 191.216 25.5282 187.235 26.0309C183.97 26.4747 180.525 27.3028 180.525 30.7371C180.525 31.9803 181.057 35.0879 186.811 35.0879C189.013 35.0879 191.428 34.5246 192.849 33.0457H192.954L193.417 34.5246H199.099V34.2591C198.073 34.0516 197.998 33.0457 198.035 31.4175L198.141 24.5504C198.176 22.8056 197.998 18.9283 189.864 18.9283C187.913 18.9283 181.625 19.1049 181.377 24.3439H186.527ZM192.777 28.3099C192.777 31.3288 190.149 32.0696 188.836 32.0696C187.842 32.0696 186.066 31.7429 186.066 30.323C186.066 28.6353 188.088 28.3099 189.224 28.1617C191.322 27.8655 191.143 27.9548 192.777 27.3622V28.3099Z" fill="#54BF36"/>
<path d="M205.848 34.5239H200.449V19.4885H205.848V25.1421H212.347V19.4885H217.746V34.5239H212.347V28.1611H205.848V34.5239Z" fill="#54BF36"/>
<path d="M231.384 19.4885H237.384L229.963 26.5324L237.741 34.5239H231.417L225.594 27.9541H225.489V34.5239H220.091V19.4885H225.489V25.5276H225.594L231.384 19.4885Z" fill="#54BF36"/>
<path d="M0 34.5791H13.522V21.0577H0V34.5791Z" fill="#231F20"/>
<path d="M27.4509 7.1483C27.4509 11.746 27.4509 22.8351 27.4509 27.4328C26.1665 27.4328 25.9405 27.4328 24.6923 27.4328C23.5013 17.4009 17.1978 11.0994 7.16374 9.9085C7.16374 8.66051 7.16374 8.43498 7.16374 7.1483C11.7622 7.1483 22.8523 7.1483 27.4509 7.1483ZM0.0141602 -0.000193251V16.8298H3.59017C12.9996 16.8298 17.7707 21.6 17.7707 31.0062V34.582H34.6004V-0.000193251H0.0141602Z" fill="#54BF36"/>
</svg>
