<?xml version="1.0" encoding="UTF-8"?> <svg xmlns="http://www.w3.org/2000/svg" width="512" height="512" viewBox="0 0 512 512" fill="none"> <g clip-path="url(#clip0)"> <path d="M340.977 412.67L298.346 453.938L308.351 511.867L256 484.535L203.649 511.867L213.654 453.938L171.022 412.67L229.912 404.172L256 351.68L282.087 404.172L340.977 412.67ZM511.933 412.803L453.042 404.305L426.955 351.813L400.868 404.305L341.977 412.803L384.609 454.071L374.605 512L426.956 484.668L479.308 512L469.303 454.071L511.933 412.803ZM111.132 403.728L85.0439 351.199L58.9567 403.728L0.0660019 412.232L42.6979 453.528L32.6935 511.498L85.0449 484.147L137.396 511.498L127.392 453.528L170.024 412.232L111.132 403.728ZM114.651 327.379L76.1832 316.451C87.1354 277.898 110.771 243.169 142.738 218.662C155.765 208.676 169.801 200.555 184.581 194.37C160.424 174.181 145.028 143.842 145.028 109.97C145.028 49.3322 194.362 -0.000976562 255 -0.000976562C315.638 -0.000976562 364.971 49.3322 364.971 109.97C364.971 143.23 350.128 173.085 326.721 193.268C342.32 199.508 357.12 207.887 370.811 218.317C402.679 242.597 426.361 277.051 437.494 315.331L399.095 326.498C380.849 263.761 322.417 219.943 256.999 219.943C191.156 219.943 132.621 264.121 114.651 327.379ZM185.018 109.971C185.018 148.559 216.412 179.953 255 179.953C293.588 179.953 324.982 148.559 324.982 109.971C324.982 71.3835 293.588 39.9896 255 39.9896C216.412 39.9896 185.018 71.3835 185.018 109.971Z" fill="#FF533C"></path> </g> <defs> <clipPath id="clip0"> <rect width="512" height="512" fill="white"></rect> </clipPath> </defs> </svg> 