<?xml version="1.0" encoding="UTF-8"?> <!-- Generator: Adobe Adobe Illustrator 24.2.0, SVG Export Plug-In . SVG Version: 6.00 Build 0) --> <svg xmlns="http://www.w3.org/2000/svg" xmlns:xlink="http://www.w3.org/1999/xlink" id="Layer_1" x="0px" y="0px" viewBox="0 0 200 200" style="enable-background:new 0 0 200 200;" xml:space="preserve"> <style type="text/css"> .st0{fill:none;stroke:#000000;stroke-miterlimit:10;} </style> <path class="st0" d="M-5.26-26.26"></path> <path d="M114.06,66.69c-2.08-8.18-10.01-15.73-18.74-12.24c-2.6,1.04-4.84,2.64-6.71,4.59c-0.69-0.06-2.94,1.78-3.08,1.89 c-1.22,1.08-3.52,2.98-3.78,4.74c-1.53,10.46,0.31,21.06,0.1,31.59c-0.04,2.19-0.18,4.36-0.33,6.54c-1.64-0.18-3.27-0.4-4.88-0.7 c-2.41-0.44-7.96,7.76-7.09,7.91c3.77,0.68,7.67,1.11,11.53,1.41c0,0.1-0.01,0.2-0.01,0.3c-0.06,4.31,1.12,10.18-0.39,14.25 c-0.69,1.85,1.67,0.07,2.18-0.29c1.76-1.28,3.35-3.08,4.46-4.95c1.42-2.41,1.25-5.67,1.05-8.67c0.84,0.08,1.67,0.15,2.51,0.12 c1.97-0.06,4.01-0.74,5.99-0.36c1.82,0.35,5.93-4.65,6.52-6.19c0.05-0.14,0.11-0.28,0.16-0.42c0.21-0.28,0.25-0.57,0.13-0.88 c-1.76-0.78-2.78-0.46-4.7-0.36c-2.4,0.12-4.77-0.31-7.17-0.44c-1.16-0.06-2.32-0.13-3.49-0.2c0.13-2.98,0.33-5.94,0.46-8.92 c2.79,0.17,5.82-0.15,7.8-0.31c4.14-0.33,7.44-2.08,10.6-4.76C114.52,84.11,116.44,76.02,114.06,66.69z M106.69,84.36 c-0.09,0.7-0.3,1.38-0.47,1.92c-4.9,0.89-10.1,0.18-14.92-0.73c-0.48-0.09-1.4,0.47-2.45,1.33c-0.18-6.43-0.76-12.9-0.65-19.31 c0.39-0.55,0.7-1.12,0.83-1.7c0.25-1.16,0.42-2.74,0.96-3.82c0.75-1.5-0.37-0.5,1.42-0.89c2.55-0.55,5.05,0.27,7.1,1.74 c4.55,3.27,7.21,8.36,8,13.81C106.88,79.25,107.01,81.81,106.69,84.36z"></path> <path d="M152.97,67.17c-1.48,1.13-3.18,2.73-4,4.45c-0.39,0.82-0.77,1.64-1.14,2.48c-2.41-5.62-4.88-11.14-7.83-16.59 c-3.5-6.44-7.49-13.78-13.73-17.96c-11.81-7.91-30.36-8.77-43.36-3.95c-12.41,4.6-23.01,14.06-31.01,24.43 c-8.46,10.96-15.41,24.08-10.48,38.05c0.03,0.1,7.03-4.17,6.32-6.32c-4.42-13.34,2.3-26.74,11.1-36.69 c8.52-9.63,19.95-14.23,32.58-14.65c12.59-0.41,26.56,2.67,34.54,13.1c3.66,4.78,6.4,10.2,9.16,15.52c1.22,2.35,2.29,4.8,3.37,7.23 c-0.09-0.01-0.18-0.02-0.28-0.03c-1.27-0.06-7.12,5.83-6.18,6.52c3.1,2.28,6.93,3.49,10.23,5.39c1.02,0.59,0.94,0.86,2.11,0.48 c1.61-0.52,3.24-2.52,4.27-3.75c1.68-1.99,1.96-3.58,2.28-6.07c0.54-4.16,2.2-8.13,3.98-11.9C155.71,65.25,153.33,66.9,152.97,67.17 z"></path> <path d="M142.94,109.72c-0.08-0.87-6.61,4.38-6.97,6.25c-1.64,8.44-10.05,15.59-17.35,19.04c-7.51,3.56-15.7,4.38-23.9,3.46 c-7.55-0.84-15.69-2.95-22.14-7.15c-2.76-1.8-5.54-3.92-8.24-6.16c2.26-1.97,5.28-5.22,4.57-5.55c-4.3-1.96-9.89-1.37-13.72-4.15 c-1.27-0.92-8.02,5.79-7.16,7.16c0.27,0.44,0.48,0.92,0.64,1.45c-0.11,0.32-0.13,0.57,0.01,0.7c0.07,0.07,0.14,0.13,0.21,0.2 c0.06,0.29,0.1,0.58,0.13,0.88c-0.78,1.74-1.02,3.69-1.04,6.28c-0.04,5.34-0.36,11.98,1.22,17.13c0.08,0.25,7.25-4.68,7.06-6.69 c-0.17-1.85-0.49-3.6-0.79-5.36c-0.12-2.15-0.11-4.32-0.22-6.4c5.47,4.75,11.5,9.12,18,11.72c9.43,3.77,20.76,5.38,30.74,3.09 c9.09-2.08,17.13-7.3,23.86-13.61c3.61-3.38,6.98-7.08,9.82-11.13C139.71,117.98,143.27,113.42,142.94,109.72z"></path> </svg> 