<?xml version="1.0" encoding="UTF-8"?> <svg xmlns="http://www.w3.org/2000/svg" width="79" height="91" viewBox="0 0 79 91" fill="none"> <path d="M49.54 35.2626C55.2687 29.5339 55.2687 20.2459 49.54 14.5172C43.8113 8.7885 34.5233 8.7885 28.7946 14.5172C23.0659 20.2459 23.0659 29.5339 28.7946 35.2626C34.5233 40.9913 43.8113 40.9913 49.54 35.2626Z" fill="#EFB735"></path> <path d="M43.5475 49.3924C55.2625 47.3182 64.0625 37.0711 64.0625 24.8876C64.0623 11.1646 52.8978 0 39.1747 0C25.4517 0 14.2871 11.1646 14.2871 24.8876C14.2871 37.0752 23.0855 47.3189 34.8019 49.3926L27.1561 59.493C26.749 60.0309 26.6814 60.753 26.9818 61.3571C27.2822 61.9612 27.8985 62.3432 28.5732 62.3432H32.3238V89.2227C32.3238 90.2043 33.1195 91 34.1011 91H44.2485C45.2301 91 46.0258 90.2043 46.0258 89.2227V62.3432H49.7764C50.4511 62.3432 51.0675 61.9612 51.3678 61.3571C51.6682 60.753 51.6007 60.031 51.1935 59.493L43.5475 49.3924ZM17.8418 24.8876C17.8418 13.1246 27.4117 3.55469 39.1747 3.55469C50.9377 3.55469 60.5076 13.1246 60.5076 24.8876C60.5076 35.9608 52.0286 45.168 41.0827 46.1365L40.5916 45.4879C40.2557 45.0441 39.7312 44.7834 39.1745 44.7834C38.6179 44.7834 38.0934 45.0441 37.7575 45.4879L37.2666 46.1365C26.3192 45.1682 17.8418 35.9645 17.8418 24.8876V24.8876ZM44.2483 58.7885C43.2667 58.7885 42.471 59.5842 42.471 60.5658V87.4453H35.8783V60.5658C35.8783 59.5842 35.0826 58.7885 34.1009 58.7885H32.1476L39.1747 49.5054L46.2018 58.7885H44.2483Z" fill="white"></path> <path d="M77.9872 74.3981L67.3857 60.393C67.0498 59.9492 66.5253 59.6885 65.9687 59.6885C65.412 59.6885 64.8875 59.9492 64.5516 60.393L53.9501 74.3981C53.5429 74.9359 53.4754 75.6581 53.7757 76.2622C54.0761 76.8663 54.6925 77.2483 55.3672 77.2483H59.1177V89.2226C59.1177 90.2042 59.9134 90.9999 60.8951 90.9999H71.0425C72.0241 90.9999 72.8198 90.2042 72.8198 89.2226V77.2483H76.5703C77.245 77.2483 77.8614 76.8663 78.1618 76.2622C78.462 75.6581 78.3944 74.9361 77.9872 74.3981V74.3981ZM71.0423 73.6936C70.0606 73.6936 69.2649 74.4893 69.2649 75.4709V87.4452H62.6722V75.4709C62.6722 74.4893 61.8765 73.6936 60.8949 73.6936H58.9416L65.9687 64.4105L72.9958 73.6936H71.0423Z" fill="white"></path> <path d="M13.7959 60.393C13.46 59.9492 12.9355 59.6885 12.3788 59.6885C11.8222 59.6885 11.2977 59.9492 10.9617 60.393L0.36025 74.3981C-0.0469398 74.9359 -0.114479 75.6581 0.185892 76.2622C0.486263 76.8663 1.10265 77.2483 1.77733 77.2483H5.52788V89.2226C5.52788 90.2042 6.32359 90.9999 7.30522 90.9999H17.4526C18.4342 90.9999 19.23 90.2042 19.23 89.2226V77.2483H22.9805C23.6552 77.2483 24.2716 76.8663 24.5719 76.2622C24.8723 75.6581 24.8048 74.9361 24.3976 74.3981L13.7959 60.393ZM17.4524 73.6936C16.4708 73.6936 15.6751 74.4893 15.6751 75.4709V87.4452H9.08238V75.4709C9.08238 74.4893 8.28667 73.6936 7.30504 73.6936H5.35174L12.3788 64.4105L19.4059 73.6936H17.4524Z" fill="white"></path> <path d="M41.1517 30.5833H37.3688V33.3333H34.4083V30.5833H32V28.1667H34.4083V26.8929H32V24.4762H34.4083V16H40.952C42.8395 16 44.3471 16.5 45.475 17.5C46.6028 18.4921 47.1667 19.8135 47.1667 21.4643C47.1667 23.1468 46.6302 24.4683 45.5572 25.4286C44.4842 26.381 42.9922 26.869 41.0812 26.8929H37.3688V28.1667H41.1517V30.5833ZM37.3688 24.4762H40.905C41.9701 24.4762 42.7847 24.2262 43.3486 23.7262C43.9125 23.2262 44.1944 22.4802 44.1944 21.4881C44.1944 20.5992 43.9164 19.873 43.3603 19.3095C42.8121 18.746 42.0524 18.4524 41.0812 18.4286H37.3688V24.4762Z" fill="white"></path> </svg> 