<?xml version="1.0" encoding="UTF-8"?> <svg xmlns="http://www.w3.org/2000/svg" xmlns:xlink="http://www.w3.org/1999/xlink" width="66px" height="108px" viewBox="0 0 66 108"> <!-- Generator: Sketch 53 (72520) - https://sketchapp.com --> <title>svgexport-1</title> <desc>Created with Sketch.</desc> <g id="Page-1" stroke="none" stroke-width="1" fill="none" fill-rule="evenodd"> <g id="svgexport-1" fill="#4F4F4F" fill-rule="nonzero"> <path d="M44.1,108 C43.3,108 42.5,107.6 42.1,106.9 C41.3,105.8 41.6,104.2 42.7,103.4 C44,102.5 49.5,99.4 54.3,96.8 C38.4,95.5 25.1,88.5 15.8,76.6 C-1.1,55 -1.5,23.1 3.2,2.4 C3.5,1.1 4.9,0.2 6.2,0.5 C7.5,0.8 8.4,2.2 8.1,3.5 C3.6,23.1 3.9,53.3 19.7,73.5 C28.7,85 41.2,91.2 56.9,91.9 L55.1,89.6 C53.7,87.9 52.4,86.2 51,84.5 C50.3,83.6 49.5,82.6 48.7,81.6 C47.8,80.5 48,79 49.1,78.1 C50.2,77.2 51.7,77.4 52.6,78.5 C52.6,78.5 52.6,78.6 52.7,78.6 L59.1,86.5 C59.6,87 60,87.6 60.5,88.2 C62,90 63.6,91.8 64.9,93.8 C64.9,93.9 65,93.9 65,94 C65.1,94.3 65.2,94.5 65.3,94.8 L65.3,95.4 C65.3,95.6 65.2,95.8 65.1,96 C65,96.1 65,96.3 64.9,96.4 C64.8,96.6 64.6,96.8 64.4,97 C64.3,97.1 64.1,97.2 63.9,97.3 C63.8,97.3 63.8,97.4 63.7,97.4 C62.5,98 47.7,106 45.6,107.4 C45.1,107.9 44.6,108 44.1,108 Z" id="Path"></path> </g> </g> </svg> 