<?xml version="1.0" encoding="UTF-8"?> <svg xmlns="http://www.w3.org/2000/svg" width="46" height="52" viewBox="0 0 46 52" fill="none"> <path d="M23 49C35.7025 49 46 38.7025 46 26C46 13.2975 35.7025 3 23 3C10.2975 3 0 13.2975 0 26C0 38.7025 10.2975 49 23 49Z" fill="#1F98AD"></path> <path d="M10.5237 24.5017L32.6995 15.9514C33.7288 15.5796 34.6277 16.2025 34.2942 17.7589L34.2961 17.7569L30.5203 35.5455C30.2404 36.8067 29.491 37.1134 28.4426 36.5192L22.6926 32.2814L19.9192 34.9533C19.6125 35.26 19.3538 35.5187 18.7596 35.5187L19.1679 29.6671L29.8245 20.0397C30.2884 19.6314 29.721 19.4014 29.1096 19.8078L15.9402 28.0993L10.263 26.3283C9.03062 25.9373 9.00378 25.0959 10.5237 24.5017Z" fill="white"></path> </svg> 