<?xml version="1.0" encoding="UTF-8"?>
<svg version="1.1" viewBox="0 0 129 40" xmlns="http://www.w3.org/2000/svg">
<g fill="none" fill-rule="evenodd">
<g transform="translate(-961 -1762)">
<g transform="translate(961 1762)">
<path d="m62.603 16.628c0.1458-0.22811 0.29486-0.45243 0.45096-0.67676h0.091059v5.0562h2.303v-8.5832h-2.303l-2.5778 3.9141c-0.14526 0.22378-0.29052 0.43946-0.43416 0.64811-0.14363 0.21189-0.28944 0.43514-0.43199 0.66811h-0.091601v-5.2303h-2.3019v8.5832h2.3019c0.43416-0.5973 0.85747-1.2081 1.271-1.8341 0.41518-0.62649 0.83362-1.2443 1.2537-1.853 0.16857-0.23243 0.32521-0.46486 0.46884-0.69243" fill="#1A1918"/>
<polyline points="69.923 17.444 73.35 17.444 73.35 21.006 75.653 21.006 75.653 12.423 73.35 12.423 73.35 15.689 69.923 15.689 69.923 12.423 67.621 12.423 67.621 21.006 69.923 21.006 69.923 17.444" fill="#1A1918"/>
<path d="m82.517 19.041c-0.22873 0.16378-0.52955 0.24595-0.90083 0.24595h-1.4868v-2.107h1.4678c0.38483 0 0.69107 0.089189 0.9198 0.26378 0.2271 0.17568 0.34093 0.43946 0.34093 0.79027 0 0.37405-0.11382 0.64324-0.34093 0.80703m2.6445-0.78811c0-0.88-0.30678-1.5605-0.91547-2.0476-0.6114-0.48432-1.4304-0.72865-2.457-0.72865h-1.6597v-3.0535h-2.3036v8.5838h4.064c0.99297 0 1.7865-0.22108 2.38-0.65784 0.59513-0.44054 0.89162-1.1378 0.89162-2.0962" fill="#1A1918"/>
<path d="m112.44 19.287c-0.28239 0.12865-0.57833 0.20432-0.88945 0.22757v-5.547c0.75503 0.059459 1.3366 0.3427 1.7448 0.85135 0.4076 0.50973 0.61248 1.1395 0.61248 1.887 0 0.44595-0.066668 0.83838-0.2 1.1768-0.13063 0.34-0.30461 0.62541-0.52142 0.86-0.21518 0.23351-0.46451 0.41568-0.74636 0.54432zm-3.0516 0.21081c-0.32575-0.024865-0.63308-0.098919-0.92251-0.22811-0.29052-0.12973-0.54527-0.31027-0.76262-0.54595-0.21681-0.23297-0.38917-0.5173-0.516-0.85081-0.12737-0.33243-0.19079-0.72108-0.19079-1.167 0-0.74757 0.20868-1.3773 0.62603-1.887 0.41681-0.50865 1.006-0.79189 1.7659-0.85135v5.5303zm5.4017 0.38432c0.40434-0.38432 0.72251-0.84595 0.95829-1.3854 0.23361-0.53892 0.35285-1.153 0.35285-1.8443 0-0.6427-0.11545-1.2281-0.34418-1.7541-0.22819-0.52703-0.54527-0.97946-0.94799-1.3605-0.40326-0.38-0.88457-0.67838-1.4445-0.89459-0.55936-0.21676-1.1648-0.34162-1.8141-0.37784v-3.2281l-2.1621 0.82595v2.4022c-0.63958 0.036216-1.2407 0.16703-1.8033 0.39514-0.56207 0.22919-1.0488 0.53351-1.4602 0.91351-0.41031 0.37838-0.73281 0.83081-0.96858 1.3508-0.23578 0.52054-0.3534 1.0978-0.3534 1.7276 0 0.69135 0.10894 1.3086 0.32684 1.8535 0.21626 0.5427 0.52847 1.0114 0.93335 1.4027 0.40434 0.39297 0.88782 0.69784 1.4494 0.91459 0.5637 0.21514 1.1881 0.34054 1.8759 0.37568v3.6368l2.1794-0.82595v-2.8276c0.63687-0.034054 1.2342-0.16486 1.7876-0.38541 0.55448-0.22216 1.032-0.52811 1.4347-0.91459z" fill="#1A1918"/>
<path d="m126.21 17.883c-0.13225 0.34-0.30678 0.62541-0.52142 0.86-0.21572 0.23351-0.46613 0.41568-0.7469 0.54432-0.28293 0.12919-0.57942 0.20432-0.89053 0.22757v-5.547c0.75394 0.058919 1.3366 0.3427 1.7448 0.85081 0.40814 0.51027 0.61085 1.1395 0.61085 1.8881 0 0.44541-0.063958 0.8373-0.19675 1.1762zm-4.3182 1.6151c-0.32738-0.024865-0.6347-0.099459-0.92522-0.22811-0.28944-0.12973-0.54418-0.31027-0.76099-0.54541-0.21843-0.23351-0.38971-0.51784-0.51708-0.85135-0.12737-0.33297-0.18971-0.72108-0.18971-1.1665 0-0.74865 0.20759-1.3778 0.6244-1.8881 0.4179-0.50811 1.0071-0.79189 1.7686-0.85081v5.5303zm6.3584-1.0005c0.23469-0.53946 0.35177-1.153 0.35177-1.8449 0-0.6427-0.11382-1.2281-0.3431-1.7541-0.22765-0.52649-0.54473-0.98-0.94853-1.3605-0.40272-0.37946-0.88511-0.67784-1.4445-0.89459-0.56044-0.21676-1.1659-0.34162-1.8147-0.3773v-3.2286l-2.1594 0.82541v2.4032c-0.64121 0.035676-1.2423 0.16649-1.8049 0.39514-0.56153 0.22919-1.0483 0.53243-1.4591 0.91297-0.41085 0.37892-0.73389 0.83081-0.96967 1.3508-0.23578 0.52108-0.3534 1.0973-0.3534 1.7276 0 0.69189 0.10786 1.3086 0.32738 1.853 0.21626 0.54378 0.52738 1.0119 0.93281 1.4038 0.40434 0.39297 0.88782 0.6973 1.451 0.91405 0.56044 0.21459 1.187 0.34054 1.8759 0.37568v3.6362l2.1773-0.82541v-2.827c0.6385-0.034595 1.2336-0.16541 1.7876-0.38595 0.55394-0.22216 1.032-0.52811 1.4353-0.91405 0.40434-0.38486 0.72359-0.84649 0.95829-1.3854z" fill="#1A1918"/>
<polyline points="47.978 10.774 51.33 10.774 51.33 21.017 53.724 21.017 53.724 10.774 56.964 10.774 56.964 8.7746 47.978 8.7746 47.978 10.774" fill="#1A1918"/>
<polyline points="94.743 12.469 92.117 12.469 89.032 16.116 89.032 12.423 86.748 12.423 86.748 21.016 89.032 21.016 89.032 16.837 92.045 21.016 94.76 21.016 91.373 16.418 94.743 12.469" fill="#1A1918"/>
<path d="m101.16 17.769c-0.084555 0.3173-0.20651 0.59405-0.36315 0.83459-0.15935 0.23946-0.35665 0.42703-0.59297 0.56108-0.23686 0.13459-0.5057 0.20216-0.81086 0.20216-0.61898 0-1.0922-0.23297-1.4212-0.69297-0.32792-0.46162-0.49215-1.1146-0.49215-1.9584 0-0.74757 0.15935-1.3686 0.47372-1.8595 0.31762-0.49189 0.77779-0.73838 1.3843-0.73838 0.64392 0 1.129 0.24432 1.458 0.72973 0.329 0.48541 0.49161 1.1205 0.49161 1.9049 0 0.36162-0.042278 0.70054-0.12737 1.0168m1.2629-4.3005c-0.3664-0.38595-0.81086-0.68162-1.3296-0.88649-0.51871-0.20486-1.084-0.30757-1.7003-0.30757-0.61465 0-1.1816 0.1027-1.7003 0.30757-0.51979 0.20486-0.96425 0.49784-1.3399 0.8773-0.37237 0.38054-0.66234 0.85027-0.86777 1.4049-0.20434 0.55514-0.30732 1.1843-0.30732 1.8881 0 0.67784 0.099731 1.2919 0.29865 1.8422 0.19784 0.55081 0.47914 1.0178 0.84121 1.4043 0.36261 0.38541 0.79893 0.68432 1.3128 0.89622 0.51166 0.20973 1.0867 0.31459 1.7269 0.31459 0.61356 0 1.1816-0.1027 1.7008-0.30703 0.51871-0.20378 0.96425-0.50108 1.3388-0.88595 0.37399-0.38703 0.66668-0.85784 0.8759-1.413 0.21247-0.55514 0.31816-1.1859 0.31816-1.8881 0-0.67784-0.10352-1.2935-0.30895-1.8422-0.2038-0.54973-0.49053-1.0178-0.8591-1.4049" fill="#1A1918"/>
<path d="m56.5 31.577c0-0.49351-0.15231-0.87892-0.45638-1.1557-0.30461-0.27676-0.72684-0.41514-1.2672-0.41514h-2.5079v3.1297h2.5079c0.54906 0 0.97292-0.13189 1.2732-0.39622 0.30028-0.26378 0.45042-0.65135 0.45042-1.1627zm-1.7751-2.4178c0.84934 0 1.5155 0.20108 2 0.60324 0.48456 0.40216 0.72684 1.0092 0.72684 1.8211 0 0.78703-0.23578 1.3897-0.70733 1.8086-0.47155 0.41892-1.1317 0.62865-1.9811 0.62865h-3.4342v-8.3503h5.3383v0.88486h-4.399v2.6038h2.4564z" fill="#1A1918"/>
<path d="m62.481 31.339c-0.25637-0.14486-0.51275-0.26054-0.76912-0.34595-0.25583-0.085405-0.5637-0.12811-0.92197-0.12811-0.40976 0-0.75557 0.10865-1.0374 0.32703-0.28185 0.21784-0.42277 0.53189-0.42277 0.9427 0 0.41027 0.11924 0.7227 0.35827 0.93622 0.23957 0.21405 0.58484 0.32054 1.038 0.32054 0.3328-0.016757 0.65096-0.10649 0.95449-0.26919 0.30299-0.16216 0.56966-0.35946 0.80056-0.59027v-1.193zm-1.3507-3.6941c0.72847 0 1.2878 0.16919 1.6786 0.50649 0.38971 0.33838 0.58484 0.84486 0.58484 1.5205v4.3481h-0.91276v-0.61568h-0.026017c-0.33442 0.29946-0.66668 0.49622-0.99677 0.59027-0.33009 0.093514-0.645 0.14054-0.94528 0.14054-0.24879 0-0.49757-0.036216-0.74582-0.10811-0.24879-0.072973-0.47426-0.18811-0.67535-0.34595-0.20163-0.1573-0.36478-0.35946-0.4889-0.60703-0.12412-0.24703-0.18645-0.54973-0.18645-0.90757 0-0.30703 0.057996-0.58378 0.17345-0.83081 0.11599-0.24757 0.2786-0.45838 0.4889-0.63297 0.2103-0.17514 0.45909-0.30919 0.74582-0.4027 0.28727-0.094054 0.60272-0.14108 0.94528-0.14108 0.2748 0 0.55123 0.027568 0.82983 0.082162 0.2786 0.054595 0.57237 0.16595 0.88132 0.33351v-0.77568c0-0.48324-0.12195-0.83459-0.36532-1.0541-0.24337-0.22-0.60814-0.33027-1.0954-0.33027-0.30732 0-0.59297 0.038919-0.85801 0.11568-0.2645 0.076757-0.52955 0.17946-0.79405 0.30757l-0.30841-0.71351c0.29974-0.1427 0.61736-0.25838 0.95178-0.34649 0.33442-0.088108 0.70733-0.13297 1.1187-0.13297z" fill="#1A1918"/>
<polyline points="69.014 34.021 69.014 31.135 65.722 31.135 65.722 34.021 64.809 34.021 64.809 27.748 65.722 27.748 65.722 30.339 69.014 30.339 69.014 27.748 69.928 27.748 69.928 34.021 69.014 34.021" fill="#1A1918"/>
<polyline points="75.972 27.774 73.13 30.66 76.05 34.021 74.957 34.021 72.23 30.826 72.23 34.021 71.316 34.021 71.316 27.774 72.23 27.774 72.23 30.544 74.931 27.774 75.972 27.774" fill="#1A1918"/>
<path d="m10.807 31.004l-0.48782 0.82541c-0.17399-0.54378-0.48944-1.1081-0.6927-1.507-0.39025 0.80324-1.0087 0.81946-1.6038 0.82378 0.13171-1.9249-2.2916-3.8605-1.2266-6.0562 0.21247-0.43946 0.074798-0.97676-0.38429-1.207-1.6261-0.82378-0.87319 2.5935-2.4982 2.6962 0.31112-0.38757 0.42874-1.1989 0.47535-1.2692-0.34581 0.08973-1.174 0.61405-1.5458-0.057838 0.94961-0.51568 1.2228-1.2914 1.3718-2.0703 0.18916-0.98541 0.27589-1.4416 0.4683-1.847 0.2-0.43297 0.52088-0.80811 1.2071-1.6957-0.16261 0.024865-1.9919 0.40865-2.4017 0.2173 3.1616-1.9362 2.4488-4.3989 7.2717-6.5941-1.264-0.93622-2.5578-1.6827-1.6304-3.4724 1.3209 1.5827 3.831 1.0351 5.1871 0.29946-1.3399-0.26757-3.0656-1.4438-3.4765-2.7541 0.5057-0.077838 1.1594 0.46811 1.5361 0.7227 0.18103-0.48324 0.25312-1.0459 0.84067-1.1681-0.78321 1.6741 0.76533 2.5443 2.2423 2.5514 0.22819 0 1.1838-0.094595 1.1838-0.094595-0.15176-0.31351-0.76966-1.1686-0.32033-1.5151 0.36098 0.33838 0.79134 0.60811 1.1843 0.90811 2.8716 2.2162-1.3653 4.2714-3.0987 5.2038-2.7204 1.4659-1.9925 3.2092-0.85584 3.6551-0.0048782 0.19838-0.12683 0.28541-0.31545 0.34649-0.7946 0.26486-1.541-0.30054-2.1746-0.66324 0.038483 1.0941-0.036315 2.1454 1.1756 2.7476l-0.83579 0.30486c0.71871 0.54378 0.93715 0.83243 1.8027 0.94486-0.40434 0.19514-0.90571 0.19189-1.335 0.23189 0.1084 0.30324 0.19784 0.71297 0.42494 0.98486-1.7713 0.20919-2.4797-0.79892-3.0272-0.7573-1.168 0.086486-1.0954 2.2795 1.7794 2.2827l-0.29811 0.49027s0.54527 0.3173 1.0434 0.37838c-0.19079 0.15405-0.37562 0.36216-0.53605 0.52108l0.45909 0.39405c-1.1729 0.21027-1.5057-1.0346-2.2667-0.43405-1.1605 0.9173 1.3989 2.8541 3.8532 2.5649-0.20651 0.26324-0.78213 0.65027-1.032 0.85189 2.0006 1.8843 1.0136 3.6578 1.8364 4.9573-1.7236-0.11405-3.0011-1.3762-3.2998-2.7411m2.2483-2.1189c0.55503-0.44 1.0136-0.65946 0.99189-1.7205-0.83308 0.42378-3.1974 0.40162-4.1849-0.95459-0.27914-0.38486 0.018971-0.57892 0.28944-0.27568 0.67535 0.76432 1.9274 0.41784 2.3843 0.19676-0.072088-0.26162-0.27534-0.60432-0.44608-0.75081 0.17074-0.16865 0.65367-0.4173 0.75395-0.84757-0.25963-0.14-1.2624-0.24-1.2624-0.24 0.16152-0.15351 0.36207-0.37027 0.24228-0.9427-1.0244 0.31405-2.29-0.11189-2.5778-0.49081-0.28293-0.37135 0.0065042-0.72 0.24282-0.47514 0.51058 0.53568 3.0272 1.1481 3.9638 0.21784-0.34797-0.095135-0.73118-0.40541-0.8011-0.59676 0.86614-0.086486 1.5578-0.59676 1.6141-1.2324-0.47914 0-1.3843-0.034595-1.6916-0.26595 0.41573-0.15297 0.67698-0.30324 0.80815-0.76649-1.5843-0.095676-1.7095-1.2692-1.7177-1.4638 1.0309 0.59351 2.8472 0.33081 2.3778-1.1314-0.85639-0.045405-1.7225-1.4308 0.63795-2.7049 2.1448-1.1568 4.5855-2.4054 4.3708-4.4616-0.14092-1.3141-2.3133-2.2124-2.5887-2.8784-0.90625 0.43027-1.09 0.92973-0.68077 1.7665 0 0-2.0185 0.20054-2.1778-1.0389-0.06992-0.55622 0.30245-1.0768 0.70191-1.4735-0.22602 0-1.748-0.40595-2.2066 0.83027-0.85422-0.58054-1.5827-0.55946-2.1578 0.052973 0.91709 0.54378 1.4851 2.4049 3.0011 2.9546-1.0786 0.58378-2.8223 0.33838-3.8402-1.4524-0.96262 1.447-1.5166 2.8795 0.54744 4.4086-3.7578 1.7065-3.7307 4.9654-6.9991 6.5189 0.33226 0.88757 1.0315 0.88757 1.9214 0.74919-1.4136 1.8319-0.20922 3.7476-2.4456 4.5314 0.20868 0.74649 0.62874 1.3416 1.4548 1.1238-0.23524 0.36541-0.38971 0.3573-0.75503 0.75892 1.2228 0.76811 2.6732 0.21135 3.0017-2.2519 0.05908-0.43946 0.66668-0.16486 0.45584 0.26649-1.3941 2.8751 2.1312 5.0373 0.88403 7.1465 1.1008-0.045946 1.9372-0.13081 2.3973-0.50216 0.22385 0.4427 0.35773 0.88108 0.31003 1.313 0.60706-0.1227 0.82874-0.4827 0.87048-0.89135 0.39838 1.1562 1.8212 2.3935 4.0993 2.3935-1.2082-1.7151-0.083471-3.4573-1.7897-5.4195" fill="#D1D6D6"/>
<path d="m7.6527 24.129c0.41464 0.43189 0.91872 0.47622 1.8738 0.41568-1.0493-0.12595-1.638-0.38054-2.0033-1.0751-0.054744-0.35784-0.089975-0.74108-0.10569-1.1514-0.031979-1.1005 0.33117-2.4119 1.0943-3.847-0.0054202 0.90054 0.71113 2.3162 2.3074 2.5519-1.4363-0.62595-2.2792-2.0357-1.8201-3.3989 0.29919-0.4773 0.63687-0.96919 1.0136-1.4686 0.18971-0.24162 0.37345-0.47405 0.55394-0.69081-0.1935 0.69622 0.65096 1.4151 1.2157 1.5351-0.30678-0.29784-0.96316-1.2659 0.5534-2.8838-0.42386 0.19892-0.89162 0.48162-1.2461 0.75892 2.7567-2.9708 5.0212-3.0535 6.0625-4.5476-1.5079 1.0276-5.4988 1.5822-7.2918 1.0968 0.98972 0.66 3.3751 0.59946 3.9578 0.47676-1.9453 1.8859-6.192 3.833-6.927 5.5665 1.0353-1.1319 1.7036-1.3395 2.599-1.6314-0.70516 1.0497-1.3404 1.9735-1.7784 3.0443-1.1296 2.447-2.6407 2.4778-2.7399 4.4968 0.51546-1.5643 1.561-1.9605 2.2862-2.9881-0.12846 0.65622-0.18754 1.3827-0.16477 2.2232 0.025475 0.91297 0.20868 1.7151 0.49974 2.4324-0.073714 0.99838 0.015718 2.7022 1.1626 3.827-0.77942-0.98432-0.9469-2.5832-0.87753-3.207 0.89758 1.7281 3.4586 4.1141 4.696 5.7184-1.2374-2.0627-4.2716-4.473-4.9215-7.2541" fill="#D1D6D6"/>
<path d="m35.99 15.836c0.89216 0.29297 1.5643 0.49946 2.5979 1.6314-0.73389-1.7335-4.9838-3.6811-6.9291-5.567 0.58538 0.1227 2.9697 0.18378 3.9594-0.47622-1.7914 0.48541-5.7839-0.069189-7.2923-1.0968 1.0423 1.4941 3.3058 1.5773 6.063 4.5476-0.35339-0.2773-0.82224-0.56-1.2466-0.75892 1.5155 1.6178 0.86072 2.5843 0.5534 2.8838 0.56532-0.12 1.4087-0.83784 1.2163-1.5351 0.18103 0.21676 0.3664 0.44919 0.55394 0.69081 0.37941 0.49946 0.71438 0.99135 1.013 1.4686 0.45963 1.3632-0.38592 2.773-1.8179 3.3989 1.5962-0.23514 2.3128-1.6514 2.3047-2.5519 0.76316 1.4351 1.129 2.7465 1.0943 3.847-0.01355 0.41027-0.05095 0.79351-0.10407 1.1514-0.36695 0.69459-0.95558 0.94973-2.0011 1.0751 0.95287 0.060541 1.4537 0.016216 1.8732-0.41568-0.65205 2.7811-3.6857 5.1903-4.9237 7.2541 1.238-1.6043 3.7957-3.9903 4.696-5.7184 0.06992 0.62378-0.098105 2.2227-0.87536 3.207 1.1447-1.1249 1.2342-2.8286 1.161-3.8276 0.28998-0.71784 0.47101-1.5189 0.49866-2.4319 0.027101-0.84054-0.036315-1.567-0.16423-2.2232 0.72522 1.0276 1.7708 1.4238 2.2868 2.9881-0.098105-2.0189-1.6092-2.0497-2.741-4.4968-0.43632-1.0708-1.0699-1.9946-1.7762-3.0443" fill="#D1D6D6"/>
<path d="m41.094 25.31c0.043361 0.07027 0.15827 0.88162 0.46993 1.2697-1.6261-0.10324-0.87102-3.5205-2.4976-2.6968-0.45909 0.23027-0.59622 0.76757-0.38266 1.207 1.064 2.1957-1.3605 4.1314-1.2244 6.0562-0.59893-0.0043243-1.2212-0.02054-1.6092-0.82378-0.20055 0.39892-0.51871 0.96324-0.69107 1.507l-0.48673-0.82541c-0.30136 1.3649-1.5784 2.6276-3.3003 2.7411 0.8179-1.2995-0.16423-3.073 1.8358-4.9573-0.25041-0.2-0.82441-0.58865-1.032-0.85189 2.4559 0.28919 5.0153-1.6476 3.8521-2.5649-0.75937-0.60054-1.0943 0.64432-2.2645 0.43405l0.45855-0.39405c-0.15989-0.16-0.34743-0.36649-0.5366-0.52108 0.49974-0.061081 1.0434-0.37838 1.0434-0.37838l-0.29811-0.49027c2.8759-0.0032433 2.9442-2.1962 1.7811-2.2827-0.54689-0.041622-1.2586 0.96757-3.0282 0.75784 0.22385-0.27243 0.31545-0.68324 0.42548-0.98541-0.42603-0.04-0.93281-0.036757-1.335-0.23189 0.8656-0.11297 1.0829-0.40108 1.8017-0.94486l-0.83308-0.30486c1.2098-0.60216 1.1355-1.6541 1.1718-2.7476-0.63091 0.36378-1.3805 0.92811-2.1719 0.66324-0.18862-0.061081-0.31166-0.14811-0.31654-0.34649 1.1366-0.44595 1.8607-2.1892-0.85584-3.6551-1.7323-0.93243-5.9714-2.9876-3.0987-5.2043 0.39242-0.29946 0.82061-0.56919 1.1821-0.90757 0.45042 0.34649-0.16532 1.2016-0.31979 1.5151 0 0 0.95503 0.095676 1.1816 0.095676 1.4808-0.0081081 3.032-0.87946 2.2472-2.5524 0.58755 0.12216 0.65692 0.68486 0.83633 1.1681 0.37779-0.25459 1.0325-0.80054 1.5393-0.7227-0.41139 1.3103-2.135 2.4865-3.476 2.7541 1.354 0.73568 3.8651 1.2832 5.1855-0.29946 0.92739 1.7897-0.36424 2.5362-1.6304 3.4735 4.8223 2.1941 4.1112 4.6557 7.2739 6.593-0.40868 0.19135-2.2423-0.19351-2.4055-0.2173 0.68999 0.88757 1.0114 1.2627 1.2114 1.6957 0.19133 0.40541 0.27589 0.86054 0.46505 1.847 0.15122 0.77892 0.4244 1.5546 1.3724 2.0692-0.37128 0.67297-1.1989 0.14865-1.5404 0.058919m-0.18808-4.8935c0.88945 0.13784 1.5892 0.13784 1.9214-0.75027-3.2689-1.5524-3.2418-4.8114-7.0001-6.5178 2.0656-1.5292 1.509-2.9616 0.55015-4.4092-1.0168 1.7914-2.7665 2.0368-3.8396 1.453 1.5133-0.54973 2.0835-2.4108 2.9995-2.9546-0.57291-0.61243-1.3063-0.63351-2.1572-0.052973-0.46288-1.2373-1.9805-0.83027-2.2087-0.83027 0.3973 0.39622 0.774 0.9173 0.703 1.4735-0.15718 1.2395-2.1767 1.0395-2.1767 1.0395 0.40651-0.8373 0.22602-1.3368-0.68023-1.767-0.27805 0.66649-2.4477 1.5643-2.587 2.8778-0.21735 2.0568 2.2239 3.3054 4.3687 4.4622 2.3605 1.2741 1.4938 2.6595 0.63904 2.7049-0.47426 1.4622 1.3437 1.7249 2.3757 1.1314-0.0048782 0.19459-0.13496 1.3681-1.7193 1.4638 0.13334 0.46324 0.39405 0.61351 0.81032 0.76757-0.31058 0.23027-1.213 0.26486-1.6927 0.26486 0.057996 0.63568 0.74907 1.1449 1.6158 1.2308-0.069378 0.19189-0.45367 0.50324-0.8011 0.59838 0.93606 0.93027 3.451 0.31784 3.9632-0.21784 0.23415-0.24486 0.52196 0.10378 0.24337 0.47459-0.28998 0.37946-1.5545 0.80541-2.5789 0.49135-0.11762 0.57243 0.080761 0.78919 0.24066 0.9427 0 0-1.0022 0.1-1.2613 0.24 0.097021 0.43027 0.58429 0.67892 0.75395 0.84757-0.16965 0.14649-0.37237 0.48919-0.445 0.75081 0.45909 0.22108 1.7117 0.56703 2.3822-0.19676 0.27372-0.30324 0.57074-0.10973 0.29323 0.27568-0.98972 1.3562-3.3524 1.3778-4.1871 0.95459-0.023307 1.0611 0.43632 1.2805 0.99189 1.7211-1.7068 1.9616-0.57996 3.7038-1.7881 5.4189 2.2748 0 3.6993-1.2373 4.0987-2.3935 0.043903 0.40865 0.26234 0.76865 0.8694 0.89135-0.046614-0.43189 0.088349-0.87027 0.30841-1.313 0.4618 0.37135 1.3014 0.45622 2.3979 0.50216-1.245-2.1092 2.2808-4.2714 0.88349-7.1465-0.20759-0.43243 0.39947-0.70595 0.458-0.26649 0.32684 2.4632 1.7789 3.02 3.0028 2.2519-0.36911-0.40162-0.52034-0.39351-0.75503-0.75892 0.82332 0.21784 1.2434-0.3773 1.4553-1.1238-2.2374-0.78378-1.0336-2.7-2.4477-4.5314" fill="#D1D6D6"/>
<path d="m18.148 29.386l0.6721-0.50865c0.11924-0.090811 0.19567-0.14811 0.33334-0.13027l0.9469 0.12378c0.051492 0.22703 0.20271 0.44865 0.20271 0.44865l-1.0071-0.21189c-0.14255-0.016757-0.18429-0.0097297-0.31871 0.085946l-0.47643 0.35946c-0.094311 0.074595-0.097021 0.19027-0.043903 0.30541l0.077508 0.16595-0.33388 0.25135-0.12683-0.23946c-0.12954-0.25568-0.13821-0.48811 0.074256-0.65027m1.5388-1.7751l-0.17561 0.092432c-0.12033 0.06973-0.18212 0.10108-0.28673-0.03027l-0.076424-0.095135c-0.036857-0.044865-0.049866-0.15784 0.028185-0.24216l0.74961-0.87297-0.69161-0.56541 0.88078 0.32378 0.32196-0.40054c0.094311 0.081081 0.061248 0.31243 0.061248 0.31243 0.35665 0 1.3924 0.51297 1.432 1.7989 0 0 0.23361 0.34541 0.53226 0.36378l1.5258 0.091351c0.25204 0 0.88457-0.48 1.6976-0.025405 0.20542-0.12432 0.42548-0.2227 0.6515-0.24757 0.71546-0.052973 1.2428 0.44486 1.6358 0.94541 0.28673 0.3627 0.67969 0.91838 0.67969 0.91838-0.16857 0.2-0.33605 0.26757-0.47535 0.21676-0.21247-0.10703-0.28022-0.27784-0.34689-0.51297-0.10678-0.37351-0.51925-0.69297-0.51925-0.69297 0.1393 0.25135 0.16911 0.53568 0.23578 0.79622-0.59568-0.58757-0.70896-1.3076-1.1252-1.4054-0.18537-0.045946-0.39838 0.031892-0.59893 0.26324 0.21084 0.48541 0.20055 1.0503 0.41518 1.4265 0.16369 0.2827 0.19729 0.30757 0.27155 0.36973 0.17616 0.12595 0.07534 0.35135 0.048782 0.51676l-0.22602 1.413h-0.37995l0.25041-1.3832c0.076424-0.42054-1.1095-0.42054-1.7166-1.2238-0.51763 0.60216-1.9686 0.45135-2.5957 0.3573-0.25312-0.036757-0.49974-0.021622-0.63958 0.22757-0.08076 0.14054-0.21843 0.098378-0.30136 0.077838l-1.1442-0.24649c-0.20109-0.046486-0.28781-0.0064865-0.37724 0.1773l-0.22982 0.47297c-0.050408 0.11081-0.04824 0.19081 0.042819 0.27946l0.10949 0.11622c-0.065042 0.22811-0.27209 0.4-0.27209 0.4l-0.25041-0.28c-0.12087-0.14162-0.12683-0.34811-0.030353-0.54865l0.3702-0.76973c0.043361-0.084324 0.12141-0.17784 0.2786-0.17784l1.4163-0.023243-0.43416-0.70378c-0.32358-0.52919 0.21247-1.4703 0.13279-1.9151-0.040109 0.59676-0.76262 0.32378-0.87482 0.40541m5.8928 3.2557l-0.61085 1.5022h-0.37995l0.61031-1.4546c0.063416-0.18703-0.05637-0.27568-0.20868-0.48162 0.22602 0.12811 0.38863 0.21027 0.66397 0.31676-0.024933 0.041081-0.053118 0.065405-0.074798 0.1173m-7.4516-0.17027l0.68728-0.58108-0.10461-0.20973c-0.074798-0.14757-0.034689-0.15892 0.045529-0.21676l0.36098-0.26973c0.084555-0.069189 0.17236-0.061081 0.27697-0.036216l1.0889 0.25568h-1.1491c-0.26721 0.017297-0.34472 0.11946-0.43903 0.31459l-0.079676 0.16216-0.29594 0.60541c-0.10082 0.20865-0.15231 0.48595 0.11111 0.80108l0.20922 0.24649-0.42332 0.85622h0.35719l0.29215-0.59514c0.023307-0.021081 0.45692-0.41351 0.54744-0.8227-0.12358-0.1-0.21301-0.17135-0.14418-0.31405l0.13334-0.2827c0.042277-0.094595 0.057996-0.13351 0.18429-0.10757l1.1447 0.24703c0.14255 0.037838 0.35177 0.10054 0.50408-0.12811 0.15773-0.23946 0.17832-0.21297 0.54147-0.17622l0.58375 0.061081c0.79785 0.075676 1.5941-0.12432 1.9046-0.36919 0.1084 0.24757 0.32413 0.43676 0.42548 0.62865 0.036857 0.070811-0.024391 0.17189-0.074256 0.2973l-0.6553 1.5616h1.0103l0.57237-1.427c0.053118-0.13459 0.12954-0.24378 0.19025-0.29676l-0.32846 1.7238h0.97942l0.26125-1.7081c0.056912-0.3773 0.023307-0.50108-0.15881-0.65568-0.40976-0.34378-0.40001-1.067-0.53226-1.5065 0.06992-0.03946 0.1496-0.06 0.24662-0.048649 0.2141 0.021622 0.37399 0.56486 0.62603 0.91405 0.50082 0.70378 1.1886 1.4805 1.9735 0.38649-0.076424-0.12432-0.16044-0.23946-0.25421-0.34703l-0.21897-0.25514c-0.12737-0.14216-0.73606-0.83514-0.9881-1.0854-0.57616-0.57676-1.4597-0.48973-1.8114-0.20973-0.79785-0.41568-1.6391 0.021622-1.838 0.0054054l-1.3735-0.082703c-0.06179-0.0037838-0.15773-0.025405-0.22385-0.13135l0.25421-0.083784c-0.23903-0.99135-0.83958-1.8222-1.8884-1.9638 0 0-0.061248-0.31351-0.2206-0.37405l-0.31329 0.36865c-0.088349 0.011892-0.18537 0.038378-0.26396 0.072973l-1.3388-0.49622 1.0054 1.0124s-0.52196 0.73622-0.66993 0.88649c-0.098105 0.1373-0.088349 0.24541 0.021139 0.37784l0.19567 0.25568c0.10136 0.13081 0.21084 0.12703 0.37182 0.043784l0.2206-0.11351c0.094311-0.08054 0.41844 0.077838 0.55557-0.048108-0.088891 0.28811-0.13117 0.56486-0.15285 0.78595l-0.90192-0.10865c-0.19784-0.025405-0.28673 0-0.40814 0.094054l-0.76912 0.59081c-0.2515 0.19297-0.33009 0.52541-0.17345 0.84811l0.31058 0.64757" fill="#D1D6D6"/>
<path d="m21.064 11.263c0.36749 0.25297 1.0168 0.52324 1.0168 0.52324v-0.43135l-1.4298-0.54595s0 0.17459 0.41302 0.45405" fill="#D1D6D6"/>
<path d="m22.081 10.743v-0.42703l-1.6228-0.57892s0.19296 0.20541 0.60597 0.48757c0.36749 0.25189 1.0168 0.51838 1.0168 0.51838" fill="#D1D6D6"/>
<path d="m22.081 9.7686v-0.43243l-1.7767-0.65189s0.34689 0.28108 0.75991 0.56108c0.36749 0.25297 1.0168 0.52324 1.0168 0.52324" fill="#D1D6D6"/>
<path d="m27.072 15.639h1.8179c-0.076424-0.26216-0.35936-0.52757-0.88891-0.52757-0.50245 0-0.80273 0.28865-0.92902 0.52757" fill="#D1D6D6"/>
<path d="m25.171 8.6843l-1.7735 0.65189v0.43243s0.65042-0.26973 1.0152-0.52324c0.41356-0.28 0.75828-0.56108 0.75828-0.56108" fill="#D1D6D6"/>
<path d="m24.827 10.809l-1.4288 0.54595v0.43135s0.64879-0.27027 1.0157-0.52324c0.41302-0.27946 0.41302-0.45405 0.41302-0.45405" fill="#D1D6D6"/>
<path d="m25.019 9.7368l-1.6212 0.57892v0.42703s0.65042-0.26649 1.0157-0.51838c0.41302-0.28216 0.60543-0.48757 0.60543-0.48757" fill="#D1D6D6"/>
<path d="m17.472 15.112c-0.52901 0-0.81248 0.26541-0.8862 0.52757h1.8174c-0.12846-0.23892-0.42657-0.52757-0.93118-0.52757" fill="#D1D6D6"/>
<path d="m22.739 8.4708l-2.9182-1.1497c0.24716-0.58541 1.3919-1.0843 2.9182-1.0843s2.6694 0.49892 2.9166 1.0843l-2.9166 1.1497zm2.1729 3.593l-1.9686 1.0314v-4.1676l2.6732-0.90595-0.70462 4.0422zm2.2998 1.7378c-0.73823 0.12811-1.3708 1.0286-1.8911 1.8378l-0.058538 0.094054h-0.55394l-5.421e-4 0.095676c-0.05908 0.62541-0.65367 1.4757-1.9697 1.4757-0.6076 0-1.0651-0.18541-1.3794-0.43838-0.27372-0.22108-0.44391-0.49459-0.52738-0.75459-0.031437-0.096757-0.05095-0.19027-0.059622-0.2827l-0.0043362-0.095676h-0.55069l-0.059622-0.094054c-0.5225-0.80919-1.1556-1.7097-1.89-1.8378l2.0071-1.1611 2.4651 1.3362 2.4629-1.3362 2.0098 1.1611zm2.7068 3.0649c-0.2103 0.54757-0.3805 1.1395-0.3805 1.7319v6.3676h-0.74256c-0.33659-0.32541-0.62169-1.4124-0.62169-1.4124-0.18429 0.39297 0.026559 1.1827 0.22494 1.4124h-0.95666c-0.23632-0.31892-0.44174-1.4503-0.44174-1.4503-0.28564 0.32541-0.10461 1.2059 0.07263 1.4503h-0.6347c-0.041193-0.45189 0.088349-0.94486 0.088349-0.94486-0.33063-0.061081-0.68511-0.23622-0.68348-0.60541 0.16748 0.15784 0.23524 0.15568 0.46884 0.15135l0.27047-0.21243c-0.89704 0.028108-0.93715-0.95135-0.22873-1.4108-0.70842 0.022703-1.2396-0.3973-0.97997-1.1503-0.50624-0.26054-0.68403-1.1124-0.31058-1.4865-0.27047-0.29297-0.31545-0.86541-0.14255-1.2578-0.35719 0-0.75991-0.14324-0.9843-0.38649-0.017344 0.0081081-0.037399 0.014054-0.05637 0.02 0.44716-0.18216 0.82495-0.46432 1.0819-0.81622h4.9567zm-0.37887 12.649c0 1.3286-0.61519 2.3362-1.638 2.8968l0.36749-0.74432h-0.35502l-0.47047 0.95243c-0.48673 0.18432-1.0407 0.28486-1.6526 0.28486-1.8678 0-2.3616 0.076216-3.0505 0.7627-0.69378-0.68649-1.1865-0.7627-3.0505-0.7627-0.60868 0-1.1594-0.09946-1.6466-0.28h0.014092l0.46993-0.9573h-0.35502l-0.41302 0.83676c-0.098105-0.046486-0.19296-0.096216-0.28673-0.15081l0.34093-0.68595h-0.35177l-0.25312 0.51135c-0.80002-0.58811-1.2705-1.5043-1.2705-2.6638v-4.1751h13.601v4.1751zm-9.2587-7.6249l0.574 0.07027c0.042819 0.31405-0.039567 0.84541-0.24445 1.1411l-0.55503-0.16054c0.14743-0.35189 0.18537-0.67676 0.22548-1.0508zm-0.82495-0.41946s0.52576-0.025405 0.67427 0.030811c0.11057 0.045405 0.035773 0.22865-0.10515 0.20919-0.1496-0.018378-0.56912-0.24-0.56912-0.24zm-0.035773-2.0843l-0.47155 1.7205 0.16098-2.7735 0.73281-0.62486 0.37237 0.81568-0.94148 2.693 0.2477-1.813c0.024391-0.12703-0.079676-0.14054-0.10082-0.017838zm-0.36261 2.8665c-0.24824 0.10054-0.50082-0.034595-0.42277-0.19514 0.11437 0.10541 0.43524 0.054054 0.43524 0.054054l-0.012466 0.14108zm-0.46505 0.22973c0.11382 0.11081 0.46017 0.069189 0.46017 0.069189l0.01355 0.068108c-0.15122 0.20054-0.5702 0.11081-0.47372-0.1373zm-0.5431-1.1065c-0.13225-0.088108-0.07263-0.28 0.074256-0.28 0.15989 0.0037838 0.37399 0.18541 0.58646 0.27622 0 0-0.55448 0.073514-0.66072 0.0037838zm0.52576 1.5232s0.15935 0.068108 0.3599 0.083243c-0.023307 0.10919-0.10732 0.21622-0.24391 0.18541-0.11274-0.024865-0.16369-0.16541-0.11599-0.26865zm0.37291-1.0384c-0.26667 0.085946-0.38429-0.10486-0.37128-0.26811 0.52088-0.19135 0.75286-0.068108 0.90625 0.02973 0.14092 0.088108 0.25637 0.33784 0.44608 0.49568-0.031979 0.21243-0.098105 0.52162-0.17453 0.72865-0.53334-0.1373-0.56099-0.60541-0.36098-0.89189-0.11274-0.13027-0.2309-0.16324-0.44554-0.094054zm2.3128 0.15243l0.57129 0.067568c0.055828 0.31459-0.050408 0.97784-0.26613 1.2957l-0.58213-0.16757c0.23253-0.30486 0.31816-0.84649 0.27697-1.1957zm0.98213 0.12l0.47155 0.05946c0.074256 0.38919 0.026017 1.0643-0.22385 1.4497l-0.54906-0.16c0.2412-0.32486 0.35285-0.99514 0.30136-1.3492zm0.84446 0.10432h0.010298c0.1225 0.018378 0.2515-0.0016216 0.36911-0.050811 0.25421 0.36486 0.45313 1.1897 0.14797 1.7065-0.1729 0.0010811-0.3431-0.028108-0.50137-0.072432l-0.12683-0.037838c0.258-0.40054 0.21897-1.1038 0.10082-1.5454zm0.7198-0.2773l0.33334-0.32595c0.34201 0.29568 0.78809 0.95892 0.64825 1.5876l-0.36424 0.33135c-0.073714 0.072973-0.15285 0.12757-0.2309 0.17568 0.22602-0.5627-0.063416-1.4254-0.38646-1.7686zm1.961 0.18703c-0.073172 0.096757-0.13334 0.21135-0.17128 0.33405l-0.40597 0.37297c0.081302-0.59297-0.31708-1.2935-0.68186-1.5789l0.43307-0.42216 0.084555 0.085946c-0.14418 0.37838 0.13767 1.1184 0.74148 1.2081zm-1.0786-2.8654c-0.21355 0.40649-0.19187 0.87514 0.058538 1.3l-0.1664 0.16324c-0.72793-0.089189-1.0152-1.1724-1.0152-1.1724-0.01355 0.094595-0.023307 0.19351-0.021681 0.28811-0.4244-0.15676-0.69432-0.53243-0.6721-1.0486 0.16098 0.09027 0.34201 0.15297 0.53443 0.18703l0.048782-0.31784c-0.50841-0.088108-0.80544-0.40541-0.9198-0.77946-0.022765-0.0032433-0.045529-0.0070271-0.067752-0.011351 0.089433 0.0081081 0.17941 0.015135 0.27209 0.015135 0.30082 0 0.58755-0.046486 0.85639-0.12486 0.21084 0.3 0.58646 0.51459 0.96316 0.55676-0.059622 0.24703-0.030895 0.55892 0.12954 0.94432zm-4.1746-2.4157c0.35123 0.47946 0.92143 0.83405 1.5957 0.97405 0.057996 0.25297 0.19404 0.52865 0.46288 0.75297-0.11111 0.74432 0.20976 1.4395 1.013 1.6249 0.083471 0.37838 0.32033 0.66541 0.71546 0.80216l-0.55828 0.64324c-0.21247 0.24703-0.49107 0.32649-0.72251 0.29676l-2.4949-0.2827c0.10732-0.27676-0.17941-0.5973-0.96858-0.46l0.98051-2.733-0.59893-1.2697-1.1334 0.96486-0.08347 2.8686-0.48077-0.23676c-0.63524-0.27135-0.81953 0.86919-0.21735 0.87405l0.23849 0.0027027c-0.014634 0.11892 0.020597 0.24649 0.11328 0.28649-0.11328 0.048108-0.14634 0.26108-0.0043361 0.33568-0.14526 0.068108-0.16261 0.28432-0.047156 0.37892-0.12629 0.20973-0.14526 0.66811 0.29215 0.7827 0.3561 0.094595 0.58104-0.29081 0.65638-0.51351l3.8803 1.1984c0.55069 0.1573 0.94094 0.07027 1.3973-0.32973l1.013-0.88324c-0.12629 0.5773 0.081302 1.0984 0.52196 1.2703 0 0-0.063958 0.51676-0.042819 0.75135h-10.105v-6.3676c0-0.59243-0.17128-1.1843-0.3767-1.7319h4.9535zm-0.6553-8.8449l2.6705 0.90595v4.1676l-1.9664-1.0314-0.70408-4.0422zm6.4885-0.49568c0-1.02-1.7171-1.933-3.6104-1.933-1.8949 0-3.612 0.91297-3.612 1.933l0.040109 0.24757 0.7534 4.3292-3.5795 2.0811c-0.38158 0.22324-0.85855 0.83838-0.91926 1.4557h0.65313c0.10786-0.61676 0.59784-1.3022 1.5128-1.2611 0.82658 0.044865 1.3144 0.54649 1.8011 1.2611l0.12521 0.18973 0.18049 0.2827h-5.2652c0.38537 0.77351 0.75503 1.5951 0.75503 2.4865v10.917c0 2.8086 2.1643 4.1454 4.5069 4.1454 1.8082 0 2.0521-0.081081 3.0505 0.91351 0.99514-0.99459 1.2374-0.91351 3.0505-0.91351 2.3421 0 4.5058-1.3368 4.5058-4.1454v-10.917c0-0.89135 0.36586-1.713 0.75232-2.4865h-5.2679l0.18266-0.2827 0.12575-0.18973c0.48294-0.71459 0.97346-1.2162 1.8-1.2611 0.91059-0.041081 1.4033 0.64432 1.5106 1.2611h0.65259c-0.058538-0.6173-0.53822-1.2324-0.91763-1.4557l-3.5795-2.0811 0.75503-4.3292 0.037399-0.24757z" fill="#D1D6D6"/>
<path d="m29.23 20.982l0.0043361-0.31946c-0.98105-0.022703-1.2076-1.1795-1.2076-1.1795-0.28618 0.85081 0.46342 1.4843 1.2033 1.4989" fill="#D1D6D6"/>
<path d="m27.99 22.938l-0.099731-0.3027c-0.83633 0.21351-1.2678-1.1097-1.2678-1.1097-0.26992 0.96216 0.6656 1.6427 1.3675 1.4124" fill="#D1D6D6"/>
<path d="m28.571 21.711c-1 0.15838-1.4114-1.0027-1.4114-1.0027-0.11057 0.63189 0.30028 1.2724 0.961 1.3411-0.14851 0.82432 0.62007 1.2476 1.2851 0.95351l-0.095937-0.28649c-0.57779 0.19081-1.1198-0.37838-0.73877-1.0054" fill="#D1D6D6"/>
<path d="m27.972 18.397l0.0081302-0.31838c-1.3204-0.27297-1.2087-1.1789-1.2087-1.1789-0.28564 0.85351 0.46288 1.4838 1.2006 1.4973" fill="#D1D6D6"/>
<polyline points="19.604 31.668 19.13 32.625 19.487 32.625 19.959 31.668 19.604 31.668" fill="#D1D6D6"/>
<polyline points="20.317 31.668 19.845 32.625 20.203 32.625 20.672 31.668 20.317 31.668" fill="#D1D6D6"/>
<polyline points="23.177 31.668 22.706 32.625 23.06 32.625 23.532 31.668 23.177 31.668" fill="#D1D6D6"/>
<polyline points="23.894 31.668 23.419 32.625 23.776 32.625 24.247 31.668 23.894 31.668" fill="#D1D6D6"/>
<polyline points="22.463 31.668 21.989 32.625 22.346 32.625 22.818 31.668 22.463 31.668" fill="#D1D6D6"/>
<polyline points="26.639 32.625 26.994 32.625 27.467 31.668 27.111 31.668 26.639 32.625" fill="#D1D6D6"/>
<polyline points="21.032 31.668 20.561 32.625 20.918 32.625 21.389 31.668 21.032 31.668" fill="#D1D6D6"/>
<polyline points="21.746 31.668 21.274 32.625 21.632 32.625 22.103 31.668 21.746 31.668" fill="#D1D6D6"/>
<path d="m19.984 4.4265l0.56099-1.1897 1.0445 0.55243 1.1502-1.133 1.1523 1.133 1.0418-0.55243 0.55774 1.1897 0.69161-0.10703c-0.17616 0.33243-0.31058 0.6227-0.4347 1.0297-0.75666-0.44108-1.8824-0.78054-3.0087-0.78054-1.1285 0-2.251 0.33946-3.0093 0.78054-0.12629-0.40703-0.25746-0.6973-0.43687-1.0297l0.69053 0.10703zm2.7567 0.52108c1.4651 0 2.6391 0.48432 3.2873 1.0054 0 0 0.19404-1.1611 0.84988-2.18l-1.18 0.13243-0.6179-1.3103-1.1881 0.61568-1.1512-1.14-1.1512 1.14-1.1908-0.61568-0.61844 1.3103-1.1794-0.13243c0.65801 1.0189 0.84934 2.18 0.84934 2.18 0.64771-0.52108 1.8228-1.0054 3.2906-1.0054z" fill="#D1D6D6"/>
<path d="m23.945 2.6022c0.17236 0.014595 0.32358-0.11405 0.33822-0.28486 0.016802-0.16919-0.23361-0.62649-0.23361-0.62649s-0.37508 0.4027-0.387 0.57514c-0.015718 0.16919 0.11274 0.31946 0.28239 0.33622" fill="#D1D6D6"/>
<path d="m25.88 3.3027c0.15393 0.081622 0.33984 0.02 0.42223-0.13189 0.081844-0.14865 0.028727-0.66541 0.028727-0.66541s-0.49974 0.22324-0.58104 0.37568c-0.07805 0.15081-0.021139 0.33892 0.13008 0.42162" fill="#D1D6D6"/>
<path d="m21.532 2.6022c0.17399-0.016757 0.30082-0.16703 0.2851-0.33622-0.015176-0.17243-0.38646-0.57514-0.38646-0.57514s-0.24987 0.4573-0.23361 0.62649c0.013008 0.17081 0.1664 0.29946 0.33497 0.28486" fill="#D1D6D6"/>
<path d="m19.599 3.3027c0.15285-0.082703 0.21084-0.27081 0.12846-0.42162-0.080218-0.15243-0.57942-0.37568-0.57942-0.37568s-0.051492 0.51676 0.031437 0.66541c0.079676 0.15189 0.26721 0.21351 0.41952 0.13189" fill="#D1D6D6"/>
<path d="m41.005 14.141c0.12737 0.2827 0.37995 1.2654-0.22494 2.0146-0.68728-1.3724-1.6347-2.547-2.3995-3.0541-0.16803-0.10757 0.091601-0.30054 0.56261-0.36216 1.4282-0.26919 3.1003 0.33405 3.8955 0.54432-0.3702 0.27784-0.67264 0.40054-1.0493 0.44811 0.57833 0.48324 0.99839 0.89243 1.2981 1.3481-0.56207 0.13946-0.8759-0.21459-2.0824-0.93892m1.799-0.23297c0.41247-0.14595 0.73118-0.53946 0.88945-0.90054-1.0483-0.15189-3.8348-1.3178-6.1242-0.36757 0.85747-0.81297 1.6271-0.9173 1.6992-2.0854 0.35719 0.25514 0.95829 0.39892 1.296-0.20973-0.23524-0.69676-0.83308-0.13243-0.91547-0.32432-0.11762-0.26486 0.75232 0.083784 0.93877-0.82054-0.67644-0.23189-0.87861 0.31892-0.99894 0.19135-0.11166-0.12216 0.42982-0.35351 0.030895-1.0822-0.70462 0.41027-0.33713 0.87351-0.48565 0.92378-0.18103 0.072432-0.039025-0.49351-0.81628-0.46703-0.076424 0.83243 0.73172 0.86 0.5973 0.99243-0.15827 0.16216-0.36911-0.47946-0.9572-0.15459 0.01084 0.67297 0.55557 1.0416 1.1209 0.88324-0.091059 1.2789-1.2667 1.0405-2.1431 2.4805 1.8542 0.94811 2.6927 2.6027 3.8342 3.7443 0.37724-0.26486 1.0222-1.4524 1.0222-1.4524 1.2347 0.95459 2.1041 0.0043243 2.1041 0.0043243-0.42548-0.43405-0.4412-0.76378-1.0922-1.3557" fill="#D1D6D6"/>
<path d="m22.396 36.591l-0.80273-0.03027-0.092685 0.32162 0.10082 0.0043243c0.033063 0 0.033063-0.062162 0.06179-0.096216 0.016802-0.012432 0.16206-0.036216 0.27751-0.024324l0.33659 0.025406c-0.19892 0.41135-0.71709 0.79892-0.71058 1.0714 0.0081303 0.14541 0.15556 0.17568 0.24282 0.17027 0.16206-0.0048649 0.2141-0.11946 0.25637-0.29405 0.097021-0.40541 0.29432-0.71514 0.43632-1.1784l-0.099731 0.0037838-0.0065042 0.026486" fill="#D1D6D6"/>
<path d="m22.944 37.069l0.01355-0.24649h0.69812l-0.036315-0.27568c-0.19133 0.0059459-0.47155 0.068649-0.7301 0.07027l-0.047155 0.53838c0.32358-0.014054 0.53443 0.12649 0.53443 0.46486 0 0.12541-0.082928 0.36162-0.22873 0.37892-0.033605 0.0048649-0.07805-0.007027-0.099189-0.023784-0.070462-0.052432 0.021681-0.10919 0.021681-0.19676 0-0.11081-0.11491-0.15081-0.19079-0.1373-0.12033 0.007027-0.16423 0.084324-0.16423 0.18 0 0.19892 0.29486 0.25351 0.42277 0.25351 0.28564 0 0.61736-0.15892 0.61736-0.4827 0-0.42541-0.47697-0.51459-0.8114-0.52324" fill="#D1D6D6"/>
<path d="m24.617 37.289c-0.2477 0-0.28347-0.38649-0.28347-0.57351 0-0.053514 0.049324-0.12757 0.10353-0.12757 0.22656 0 0.28944 0.52541 0.30732 0.67351-0.036857 0.014054-0.08076 0.027568-0.12737 0.027568m-0.15773-0.77459c-0.24879 0-0.45475 0.18595-0.45475 0.44 0 0.40108 0.43145 0.53297 0.75178 0.38054 0.039567 0.31135-0.023849 0.53514-0.14255 0.5427-0.10136 0-0.086723-0.075676-0.10136-0.13892-0.026559-0.12216-0.12141-0.15459-0.22114-0.12216-0.10407 0.02973-0.12033 0.1227-0.10244 0.19081 0.046613 0.15838 0.24228 0.16216 0.33551 0.15027 0.41247-0.047027 0.58375-0.35081 0.58375-0.68865 0-0.39189-0.2244-0.75459-0.64879-0.75459" fill="#D1D6D6"/>
<path d="m21.028 36.432c-0.036857 0.044865-0.20868 0.26-0.57942 0.53459l0.030353 0.055676c0.041193-0.022703 0.10624-0.052973 0.21843-0.12l-0.21843 0.76c-0.011382 0.041622-0.06179 0.046486-0.086723 0.041622l-0.13063-0.01946-0.023849 0.09027 0.70896 0.12649 0.021139-0.088108-0.12195-0.028108c-0.035773-0.01027-0.05908-0.035135-0.052034-0.076216l0.3225-1.2632-0.088349-0.013514" fill="#D1D6D6"/>
<path d="m26.397 37.33l-0.62874-2.0411c1.3388-0.27514 2.2721-0.55946 2.9838-0.83405v1.2735l1.1046 0.44378c-0.93335 0.42432-2.0911 0.84541-3.4597 1.1578m-3.6564 1.1924c-1.251 0-2.4694-0.18649-3.5134-0.44162l0.66397-2.1378c0.44066 0.10108 1.5404 0.23568 2.8494 0.23568 1.309 0 2.4049-0.13459 2.8483-0.23568l0.66505 2.1378c-1.0472 0.25514-2.2678 0.44162-3.5134 0.44162m-7.1216-2.3503l1.1073-0.44378v-1.2735c0.71113 0.27459 1.645 0.55892 2.9838 0.83405l-0.62711 2.0411c-1.3664-0.31243-2.5263-0.73351-3.464-1.1578m13.475-0.70973v-1.56c-1.2098 0.55243-2.7486 1.0011-4.728 1.1795l-0.090517 0.5573c0.16911 0.023243 0.38104 0.044324 0.66668 0.061622-0.73552 0.10162-1.6819 0.15027-2.2017 0.15027-0.52088 0-1.4667-0.048649-2.2022-0.15027 0.28347-0.017297 0.4954-0.038378 0.66451-0.061622l-0.089433-0.5573c-1.9805-0.17838-3.522-0.62703-4.7291-1.1795v1.56l-1.6407 0.67243c1.2147 0.63081 2.6141 1.1449 4.2294 1.5605l-0.19025 0.65351c0.92685 0.26973 2.4055 0.54541 3.9578 0.54541 1.5507 0 3.0304-0.27568 3.9551-0.54541l-0.19133-0.65351c1.6158-0.41568 3.0163-0.92973 4.2315-1.5605l-1.6418-0.67243" fill="#D1D6D6"/>
<path d="m2.3908 15.079c0.29974-0.45568 0.71709-0.86486 1.3003-1.3465-0.38104-0.049189-0.67969-0.17189-1.0521-0.44973 0.79622-0.21027 2.4721-0.81351 3.8982-0.54432 0.4683 0.061622 0.73335 0.25459 0.56153 0.36216-0.76695 0.50703-1.7139 1.6816-2.4028 3.053-0.60164-0.74811-0.34906-1.7308-0.22168-2.0135-1.2049 0.72432-1.5198 1.0784-2.0835 0.93892m1.296 0.17946s0.645 1.1876 1.0212 1.4524c1.1426-1.1416 1.9822-2.7962 3.8353-3.7443-0.87698-1.44-2.0548-1.1989-2.1399-2.4795 0.56099 0.1573 1.1079-0.21297 1.1193-0.88432-0.59026-0.32162-0.79947 0.31838-0.95883 0.15459-0.13225-0.13514 0.67535-0.16 0.59784-0.99189-0.77834-0.023784-0.63416 0.53892-0.8179 0.46649-0.1458-0.051892 0.22006-0.51459-0.48619-0.92378-0.39676 0.73189 0.1458 0.95946 0.033063 1.0822-0.11924 0.12757-0.32358-0.42324-0.99785-0.19135 0.18212 0.90432 1.0548 0.55568 0.93661 0.82054-0.082387 0.19189-0.67861-0.37135-0.91276 0.32541 0.33442 0.60757 0.93769 0.46378 1.2916 0.20973 0.074256 1.1719 0.84338 1.2686 1.703 2.0843-2.2895-0.95027-5.0771 0.21514-6.128 0.36811 0.15989 0.36054 0.4786 0.75405 0.88999 0.89676-0.64771 0.59784-0.66343 0.92595-1.09 1.3578 0 0 0.86777 0.95135 2.1036-0.0032433" fill="#D1D6D6"/>
<path d="m21.735 14.39v0.68703c0.23903-0.28486 0.69703-0.22973 0.69703-0.22973v0.98919s-0.015176 0.48811-0.18862 0.69946h0.99352c-0.1729-0.21135-0.18916-0.69946-0.18916-0.69946v-0.98919s0.458-0.055135 0.69595 0.22973v-0.68703h-2.0087" fill="#D1D6D6"/>
<path d="m44.49 14.685c-0.12033-0.12378-0.19296-0.23568-0.29269-0.39189-0.051492-0.08-0.10786-0.16432-0.17182-0.25676 0.1729-0.20054 0.32087-0.43189 0.43145-0.68541l0.44391-1.0086-1.0922-0.15676c-0.18483-0.027027-0.48185-0.10486-0.8282-0.19568-0.67047-0.17514-1.529-0.4-2.4678-0.49784 0.32087-0.14054 0.59188-0.39243 0.78213-0.73405l0.17941-0.3227s-0.047698-0.45243-0.22439-0.59459c0.068294-0.14 0.1187-0.29459 0.15447-0.46324l0.14797-0.72216-0.69812-0.23838c-0.10786-0.037838-0.21735-0.064324-0.32413-0.081622-0.039567-0.13243-0.098105-0.27243-0.17778-0.41946l-0.41464-0.75784-0.74798 0.43676c-0.18591 0.10919-0.3431 0.23297-0.47047 0.37243-0.11166-0.020541-0.2309-0.030811-0.35665-0.030811 0 0-0.42548-0.047568-0.89812 0.1227l-0.60326-0.62324-0.71329-0.76c-0.66668-0.71243-1.5708-0.9227-2.4933-0.57297-0.35177-0.34973-0.90083-0.64054-1.7523-0.64054-0.28835 0-0.54147 0.034595-0.69161 0.054595 0 0-1.1729 0.21297-1.8315 0.8373l-0.80056-0.37946c-0.53605 0.84108-1.4531 1.1086-1.4531 1.1086-0.06179-0.24595-0.16965-0.47622-0.32196-0.68541l0.052576-0.2973c0-0.0086486 0.17941-1.0135 0.72847-1.8643l0.95395-1.4811-1.3518 0.15135c0.0032521-0.13405-0.0027101-0.29135-0.021681-0.47892l-0.12087-1.153-1.0596 0.47676c-0.11762 0.052973-0.21572 0.10432-0.30678 0.15351l-0.20922-0.44486-0.4851 0.25135c-0.048782-0.12-0.11111-0.25459-0.19675-0.41027l-0.55936-1.0222-0.79405 0.85351c-0.081302 0.088108-0.1496 0.16865-0.20976 0.24649l-0.48185-0.47784-0.48456 0.48c-0.060164-0.077838-0.12683-0.15838-0.20813-0.24541l-0.79568-0.86162-0.56099 1.0276c-0.085639 0.15676-0.14689 0.28973-0.19567 0.40973l-0.48402-0.25081-0.2103 0.44432c-0.091601-0.049189-0.19079-0.10054-0.30732-0.15459l-1.0634-0.47676-0.11762 1.1568c-0.019513 0.18649-0.024391 0.34324-0.021139 0.47622l-1.354-0.15135 0.9572 1.4822c0.55069 0.84973 0.7263 1.853 0.72684 1.8605l0.050408 0.2973c-0.15393 0.21189-0.26125 0.44216-0.32304 0.68811 0 0-0.8656-0.36919-1.445-1.1097l-0.81628 0.38811c-0.93173-0.62703-1.509-0.87135-2.5128-0.89946-0.85205-0.023243-1.4011 0.29081-1.7518 0.64-0.9236-0.34865-1.8255-0.1373-2.49 0.57351 0 0-0.43741 0.47351-0.71438 0.76-0.27697 0.28757-0.68403 0.52486-0.68403 0.52486s-0.57996-0.12973-1.1756 0.0075676c-0.12737-0.14-0.28564-0.26432-0.47481-0.37514l-0.74961-0.43514-0.41247 0.76216c-0.078592 0.14541-0.13605 0.28324-0.17453 0.41514-0.10732 0.017297-0.21572 0.043784-0.32467 0.081622l-0.69324 0.23838 0.14526 0.71784c0.034689 0.17297 0.085097 0.32757 0.15447 0.46811-0.040109 0.076216-0.075882 0.15838-0.10569 0.24486l-0.11708 0.34865 0.17832 0.3227c0.18862 0.34108 0.45909 0.59405 0.7805 0.73459-0.93877 0.097838-1.7979 0.3227-2.47 0.49838-0.34472 0.090811-0.64337 0.16865-0.82766 0.19622l-1.0976 0.15784 0.24987 0.56324 0.19946 0.44811c0.11328 0.25081 0.26071 0.48216 0.43416 0.68108-0.0645 0.091892-0.34255 0.52378-0.46397 0.64757l-0.55394 0.56324 0.53226 0.58541c0.066126 0.071892 0.66234 0.69514 1.6277 0.69622 0.26342 0 0.52576-0.045946 0.78538-0.1373 0.25746 0.40162 0.56153 0.80757 0.84175 1.0076-0.51275 0.60162-1.097 1.1227-1.928 1.5173l-0.69487 0.33027 0.29757 0.79135c0.19513 0.4773 0.57291 1.0022 1.3052 1.2027-0.15664 0.46649-0.23253 0.91081-0.29865 1.3043-0.15664 0.9373-0.22277 1.3254-1.0504 1.6151l-0.74311 0.25946 0.21247 0.75568c0.17236 0.61568 0.42819 1.0232 0.70787 1.2908l-0.49378 0.54216s1.1724 0.87568 2.3209 0.9827c0.016261 0.0021621 0.99677 0.064324 1.4363-0.49459 0.17616 0.63351 0.45475 1.2178 0.70679 1.7486 0.51925 1.0886 0.79568 1.7341 0.44771 2.3216l-0.7843 1.3276 1.5437-0.064324c0.67373-0.028108 1.3003-0.068108 1.8412-0.20216 0 0.02973-0.001626 0.056757-0.0048782 0.084324l-0.12629 1.14 1.3523-0.28432c0.14309-0.042703 0.27534-0.097838 0.39784-0.16378 0.83796 0.97622 2.2597 1.7389 4.1773 1.7389h0.1122l-2.2044 0.9027 1.6044 0.83297c1.0569 0.54865 2.2315 1.0086 3.5708 1.3978l-0.187 0.64 0.80598 0.23514c0.46505 0.13676 2.1453 0.58054 4.192 0.58054 2.0467 0 3.7253-0.44486 4.1914-0.58054l0.80381-0.23514-0.18645-0.63892c1.3409-0.39027 2.516-0.85027 3.573-1.3989l1.6055-0.83297-2.206-0.9027h0.11111c1.916 0 3.3383-0.7627 4.1757-1.7389 0.12141 0.064324 0.25529 0.12108 0.39676 0.16378l1.3518 0.28432-0.12358-1.1389c-0.0027101-0.027027-0.0043361-0.055135-0.0043361-0.084865 0.54039 0.13351 1.1675 0.17351 1.8407 0.20162l1.5415 0.064324-0.78159-1.3265c-0.34852-0.58865-0.071546-1.2335 0.44662-2.3222 0.25258-0.52973 0.53063-1.1151 0.70733-1.7492 0.29757 0.22649 0.61627 0.36108 0.93552 0.43189 0 0 0.24716 0.074054 0.48402 0.08 0.68294 0.020541 1.0222-0.17243 1.4916-0.46703l0.85097-0.53405-0.49811-0.5427c0.27914-0.26757 0.53497-0.67459 0.70787-1.287l0.21464-0.75784-0.74527-0.25946c-0.8282-0.28973-0.89324-0.67784-1.051-1.6146-0.06721-0.39405-0.14038-0.83838-0.29865-1.3049 0.73172-0.20108 1.109-0.72649 1.3041-1.2027l0.29703-0.79243-0.69432-0.32919c-0.83145-0.39459-1.4152-0.91568-1.9285-1.5173 0.28131-0.20054 0.58538-0.60703 0.84446-1.0076 0.258 0.091351 0.51925 0.13622 0.78376 0.1373 0.96533 0 1.5632-0.62378 1.6282-0.69514l0.53226-0.58486-0.55286-0.56432" fill="#fff"/>
<path d="m22.741 33.669c-0.69324-0.68703-1.1865-0.7627-3.0537-0.7627-2.2299 0-3.7459-1.3038-3.7459-3.3892v-4.173h13.598v4.173c0 2.0854-1.5128 3.3892-3.7475 3.3892-1.8678 0-2.3616 0.075676-3.0505 0.7627m-6.7996-8.6995v-6.3659c0-0.59297-0.17182-1.1849-0.37779-1.7308h4.9529c0.45475 0.62216 1.2792 1.0395 2.2244 1.0395 0.94203 0 1.7664-0.4173 2.2217-1.0395h4.954c-0.2103 0.54595-0.37941 1.1378-0.37941 1.7308v6.3659h-13.596" fill="#FFE62A"/>
<path d="m16.728 34.457v1.2719l-1.1057 0.44378c0.93606 0.42432 2.096 0.84541 3.4613 1.1573l0.6282-2.0389c-1.3399-0.27622-2.2727-0.56108-2.9838-0.83405" fill="#fff"/>
<path d="m22.741 36.179c-1.3084 0-2.4087-0.13459-2.8483-0.23676l-0.66343 2.1389c1.0423 0.25514 2.2624 0.44162 3.5117 0.44162 1.2456 0 2.4651-0.18649 3.5123-0.44162l-0.6656-2.1389c-0.44174 0.10216-1.5377 0.23676-2.8467 0.23676" fill="#fff"/>
<path d="m28.751 34.457c-0.71113 0.27297-1.6434 0.55784-2.9827 0.83405l0.62928 2.0389c1.367-0.31189 2.5247-0.73297 3.4586-1.1573l-1.1052-0.44378v-1.2719" fill="#fff"/>
<path d="m12.34 14.122c-1.5176 1.6178-0.86072 2.5854-0.55394 2.8838-0.56532-0.12108-1.4082-0.83892-1.2163-1.5341-0.17995 0.21514-0.36315 0.44811-0.5534 0.68865-0.3767 0.50054-0.71384 0.99189-1.0125 1.4676-0.46017 1.3643 0.38375 2.7735 1.8185 3.3978-1.5957-0.23351-2.3112-1.6492-2.3063-2.5497-0.76262 1.4357-1.1258 2.7459-1.0927 3.8465 0.014634 0.40865 0.049866 0.79189 0.10353 1.1514 0.3664 0.69351 0.95503 0.94811 2.0028 1.0746-0.95341 0.06-1.4564 0.015676-1.8721-0.41676 0.64988 2.7811 3.6825 5.1897 4.9183 7.2524-1.2358-1.6032-3.7957-3.9897-4.6928-5.7168-0.069378 0.62378 0.097563 2.2227 0.87698 3.2059-1.1469-1.1238-1.2358-2.8286-1.1621-3.8254-0.29052-0.71784-0.47426-1.52-0.4992-2.4324-0.023307-0.83946 0.036315-1.5665 0.16423-2.2216-0.72413 1.027-1.7702 1.4232-2.2857 2.9859 0.10027-2.0168 1.6103-2.0481 2.7394-4.4946 0.43795-1.0708 1.0727-1.9941 1.7773-3.0432-0.89433 0.29189-1.5632 0.5-2.5973 1.6303 0.73443-1.7324 4.9795-3.6795 6.9237-5.5649-0.58267 0.12324-2.9675 0.18324-3.9567-0.47568 1.7935 0.48486 5.7839-0.069189 7.2907-1.0968-1.0407 1.4924-3.3047 1.5768-6.0614 4.5449 0.35502-0.27514 0.82278-0.55784 1.2472-0.75784m2.0716-0.17189c1.7334-0.93297 5.9687-2.9865 3.0976-5.2016-0.39188-0.30054-0.8217-0.57081-1.1843-0.90811-0.44825 0.34486 0.16857 1.2 0.32196 1.5135 0 0-0.95558 0.096216-1.1848 0.096216-1.4765-0.0064865-3.0255-0.87838-2.2412-2.5508-0.58755 0.12108-0.66018 0.68378-0.83958 1.1676-0.37724-0.25459-1.0315-0.80054-1.5361-0.72378 0.41031 1.3086 2.1366 2.4876 3.4754 2.7551-1.355 0.73514-3.8646 1.2822-5.1855-0.30054-0.92739 1.7881 0.36478 2.5362 1.6293 3.473-4.8191 2.193-4.1085 4.6535-7.2701 6.5903 0.41085 0.19189 2.2391-0.19351 2.4017-0.21676-0.68674 0.88811-1.0071 1.2632-1.2076 1.6941-0.19133 0.40541-0.2786 0.86216-0.4683 1.8476-0.14905 0.77892-0.42115 1.5546-1.3702 2.0697 0.37182 0.67135 1.1984 0.14703 1.5442 0.057297-0.047155 0.07027-0.16315 0.88054-0.47372 1.2697 1.6239-0.10432 0.87211-3.5189 2.4976-2.6968 0.458 0.23027 0.59568 0.76757 0.38375 1.2076-1.0667 2.1951 1.3583 4.1303 1.226 6.0541 0.59622-0.0048649 1.2136-0.020541 1.6038-0.82378 0.20217 0.40054 0.51763 0.96324 0.6927 1.507l0.48619-0.82486c0.29865 1.3643 1.5751 2.6265 3.2998 2.7389-0.82278-1.2978 0.16261-3.0714-1.8353-4.9557 0.24824-0.2 0.82441-0.58703 1.0304-0.85027-2.4532 0.28757-5.0126-1.6476-3.851-2.5659 0.76045-0.6 1.0922 0.64541 2.2651 0.43622l-0.45855-0.39514c0.16152-0.15838 0.34472-0.36595 0.53551-0.52108-0.49757-0.060541-1.0423-0.37838-1.0423-0.37838l0.29703-0.48973c-2.8732-0.0032433-2.9469-2.1951-1.7794-2.2827 0.54906-0.04 1.2575 0.96757 3.0266 0.75838-0.22656-0.27243-0.31654-0.68216-0.42386-0.98649 0.42765-0.038919 0.9301-0.035135 1.3334-0.23081-0.86397-0.11189-1.0829-0.4-1.8011-0.94378l0.83579-0.30486c-1.2114-0.60216-1.1377-1.653-1.1751-2.7476 0.63308 0.36378 1.3789 0.92757 2.1735 0.66486 0.18916-0.063243 0.31058-0.15027 0.31491-0.34703-1.1361-0.44541-1.8629-2.1892 0.85584-3.6546" fill="#fff"/>
<path d="m38.216 20.394c0.12737 0.65514 0.19187 1.3827 0.16423 2.2216-0.027101 0.91243-0.20922 1.7146-0.4992 2.4324 0.074256 0.99676-0.015176 2.7016-1.161 3.8254 0.77725-0.98432 0.94528-2.5822 0.87698-3.2059-0.90083 1.727-3.4581 4.1135-4.6955 5.7168 1.2374-2.0627 4.2711-4.4724 4.9215-7.2524-0.41844 0.43243-0.91872 0.47676-1.8727 0.4173 1.0466-0.12703 1.6336-0.38162 2.0006-1.0751 0.054744-0.35946 0.090517-0.7427 0.10461-1.1519 0.034689-1.1-0.33063-2.4103-1.0932-3.8459 0.0075883 0.90054-0.70842 2.3162-2.3057 2.5508 1.4326-0.62541 2.2776-2.0346 1.8179-3.3989-0.29757-0.47568-0.63253-0.96703-1.0119-1.4676-0.18808-0.24054-0.37291-0.47297-0.55394-0.68865 0.19187 0.69514-0.65096 1.413-1.2163 1.5341 0.30732-0.29838 0.96208-1.2659-0.55286-2.8838 0.42494 0.2 0.89324 0.4827 1.2466 0.75784-2.7562-2.9681-5.018-3.0519-6.063-4.5449 1.5095 1.0276 5.5004 1.5822 7.2918 1.0968-0.98864 0.65892-3.3741 0.59892-3.9578 0.47568 1.9437 1.8854 6.1925 3.8324 6.9253 5.5643-1.0331-1.1297-1.7052-1.3378-2.5957-1.6292 0.70462 1.0492 1.3382 1.9719 1.7746 3.0422 1.1317 2.447 2.6423 2.4778 2.7415 4.4962-0.516-1.5649-1.5616-1.96-2.2868-2.987m3.0418 2.7919c-0.18971-0.98595-0.2748-1.4422-0.46668-1.8465-0.19838-0.43189-0.51979-0.80703-1.2103-1.6951 0.16369 0.023243 1.9957 0.40865 2.4049 0.21676-3.1621-1.9368-2.451-4.3973-7.2717-6.5903 1.2662-0.93676 2.5567-1.6843 1.6309-3.4741-1.3209 1.5838-3.8321 1.0368-5.1855 0.30162 1.3415-0.26757 3.0651-1.4454 3.4754-2.7551-0.50679-0.076757-1.161 0.46919-1.5377 0.7227-0.17941-0.4827-0.24933-1.0459-0.83687-1.1681 0.78484 1.6741-0.76587 2.5459-2.2467 2.5524-0.22602 0-1.1811-0.096216-1.1811-0.096216 0.15339-0.31351 0.76912-1.1686 0.31925-1.5135-0.36153 0.3373-0.78918 0.60757-1.1821 0.90811-2.8727 2.2151 1.367 4.2697 3.0987 5.2016 2.715 1.4654 1.9919 3.2081 0.85584 3.6546 0.0032521 0.19676 0.12629 0.28378 0.31545 0.34703 0.7908 0.2627 1.5393-0.30108 2.1708-0.66486-0.036315 1.0935 0.039567 2.1454-1.1724 2.7476l0.83362 0.30486c-0.71926 0.54378-0.93552 0.83189-1.7995 0.94378 0.40109 0.19568 0.90734 0.19189 1.3334 0.23189-0.10949 0.3027-0.20217 0.71297-0.42548 0.98541 1.7708 0.20919 2.4814-0.79838 3.0272-0.75838 1.1632 0.087568 1.0949 2.2795-1.78 2.2827l0.29811 0.49081s-0.54364 0.31676-1.0434 0.3773c0.18971 0.15514 0.3767 0.36216 0.5366 0.52108l-0.45855 0.39514c1.1702 0.20919 1.5052-1.0362 2.2645-0.43622 1.1615 0.91838-1.3968 2.8535-3.8516 2.5659 0.20705 0.2627 0.78159 0.65027 1.032 0.85135-1.9995 1.8832-1.0174 3.6568-1.8353 4.9562 1.7204-0.11405 2.9974-1.3762 3.2998-2.7405l0.48565 0.82486c0.17399-0.54378 0.49269-1.1065 0.69161-1.507 0.38808 0.80324 1.0092 0.81946 1.6076 0.82378-0.1355-1.9238 2.2884-3.8589 1.2244-6.0541-0.21247-0.43892-0.07534-0.9773 0.38266-1.2076 1.6271-0.82216 0.87211 2.5924 2.4976 2.6968-0.31112-0.38919-0.42711-1.1995-0.47101-1.2697 0.34364 0.08973 1.1686 0.61568 1.541-0.057838-0.94745-0.51459-1.2201-1.2914-1.3713-2.0692" fill="#fff"/>
<path d="m24.962 16.873c-0.45475 0.62216-1.2802 1.0395-2.2212 1.0395-0.21897 0-0.43145-0.023784-0.63145-0.063243 0.055828 0.25676 0.18862 0.52108 0.46288 0.74973-0.11166 0.74432 0.21139 1.4411 1.0125 1.6243 0.085639 0.37892 0.32033 0.66649 0.71709 0.80216l-0.55774 0.64324c-0.21518 0.24649-0.49595 0.32486-0.72251 0.29676l-2.4938-0.28324c0.10786-0.27622-0.18049-0.59568-0.97021-0.45838l0.97888-2.7346-0.59676-1.2686-1.1317 0.96486-0.083471 2.8681-0.48727-0.23676c-0.6282-0.27243-0.81303 0.86919-0.21518 0.87405l0.2412 0.0027027c-0.01626 0.1173 0.021681 0.24703 0.11491 0.28865-0.11274 0.045405-0.14743 0.25784-0.0059622 0.33243-0.14201 0.068649-0.16261 0.28541-0.047156 0.37892-0.12304 0.21135-0.14634 0.66757 0.28998 0.78324 0.35936 0.093514 0.58484-0.29081 0.65855-0.51405l3.8808 1.1989c0.54581 0.1573 0.9404 0.068649 1.3962-0.33027l1.013-0.88324c-0.12737 0.5773 0.080218 1.0984 0.52088 1.2703 0 0-0.070462 0.52919-0.042819 0.74919l1.3572 0.0021621h2.1383v-6.3649c0-0.59351 0.16911-1.1859 0.37941-1.7319h-4.9546" fill="#fff"/>
<path d="m19.149 27.583l0.07534 0.094595c0.10569 0.12973 0.16694 0.098919 0.28781 0.02973l0.17616-0.092973c0.11003-0.082703 0.83254 0.19135 0.87373-0.40703 0.079676 0.44703-0.45367 1.3876-0.13334 1.9135l0.43361 0.70811-1.4157 0.02c-0.15502 0-0.23578 0.092973-0.2786 0.17838l-0.3702 0.76595c-0.095937 0.20108-0.089433 0.41189 0.032521 0.55135l0.25041 0.28108s0.20488-0.17405 0.27101-0.40054l-0.11111-0.11405c-0.091601-0.088649-0.091601-0.17027-0.041193-0.28054l0.22819-0.47189c0.088349-0.18541 0.17724-0.22486 0.37833-0.17838l1.1442 0.24649c0.084555 0.02 0.21952 0.061081 0.30082-0.078378 0.1393-0.24811 0.38808-0.26432 0.63904-0.22649 0.6282 0.094054 2.0781 0.24378 2.5957-0.35838 0.60706 0.80378 1.7935 0.80378 1.7155 1.2243l-0.25041 1.3822h0.37779l0.22927-1.4124c0.026017-0.16432 0.12737-0.39081-0.050408-0.5173-0.07263-0.056757-0.10624-0.084865-0.27155-0.36811-0.21572-0.37676-0.20434-0.94054-0.41302-1.4254 0.19729-0.23189 0.41085-0.31081 0.5973-0.26811 0.4179 0.10216 0.53172 0.82162 1.1258 1.4092-0.067752-0.26108-0.095937-0.54757-0.23686-0.79568 0 0 0.41247 0.31892 0.51871 0.69189 0.067752 0.23459 0.13659 0.40486 0.34743 0.51297 0.14038 0.050811 0.30678-0.016757 0.47426-0.21676 0 0-0.39188-0.55514-0.67861-0.91838-0.39296-0.49946-0.91872-0.99946-1.6353-0.94162-0.22494 0.018919-0.44337 0.12108-0.65042 0.24378-0.81303-0.45405-1.445 0.026486-1.6971 0.026486l-1.5231-0.09027c-0.30028-0.018919-0.53605-0.36541-0.53605-0.36541-0.039025-1.2854-1.0743-1.7978-1.4315-1.7978 0 0 0.033605-0.23189-0.060706-0.31243l-0.31871 0.39838-0.88295-0.32108 0.69216 0.56541-0.75124 0.87081c-0.076966 0.085946-0.065042 0.19838-0.027101 0.24486" fill="#fff"/>
<path d="m18.149 29.389c-0.21247 0.16432-0.2038 0.39405-0.074798 0.65027l0.12792 0.2373 0.3328-0.25243-0.07534-0.16324c-0.05366-0.11459-0.052034-0.23135 0.042277-0.30486l0.47643-0.35892c0.13388-0.097297 0.17561-0.10757 0.31871-0.087027l1.0071 0.21135s-0.15176-0.22162-0.2038-0.44703l-0.94799-0.12486c-0.13442-0.017297-0.21518 0.040541-0.3328 0.12865l-0.67047 0.51081" fill="#fff"/>
<path d="m24.589 32.37h0.37995l0.61031-1.5016c0.021681-0.051351 0.050408-0.075135 0.073714-0.11784-0.27426-0.10757-0.4347-0.18486-0.66343-0.31568 0.15339 0.20486 0.27318 0.29297 0.20976 0.48162l-0.61031 1.4535" fill="#fff"/>
<path d="m23.398 11.363l1.4271-0.54595s0 0.17459-0.41139 0.45297c-0.36586 0.25297-1.0157 0.5227-1.0157 0.5227v-0.42973zm0-1.0405l1.6212-0.5773s-0.19404 0.20486-0.60543 0.48649c-0.36586 0.25081-1.0157 0.52054-1.0157 0.52054v-0.42973zm0-0.97784l1.7735-0.65189s-0.34635 0.28-0.75774 0.56108c-0.36586 0.25297-1.0157 0.52216-1.0157 0.52216v-0.43135zm1.5133 2.7265l0.70462-4.0416-2.6705 0.90486v4.1686l1.9659-1.0319z" fill="#fff"/>
<path d="m20.158 15.647l0.059622 0.092973h0.5496l0.0059622 0.095676c0.0070463 0.091351 0.027101 0.18595 0.057996 0.28162 0.085097 0.26162 0.25421 0.53459 0.52738 0.75568 0.31545 0.25351 0.77183 0.43838 1.3794 0.43838 1.316 0 1.9106-0.84973 1.9681-1.4757l0.0032521-0.095676h0.55232l0.058538-0.092973c0.51925-0.81027 1.1529-1.7103 1.8906-1.8378l-2.0087-1.1622-2.4629 1.3362-2.4646-1.3362-2.006 1.1622c0.73443 0.12757 1.3675 1.0276 1.8895 1.8378" fill="#fff"/>
<path d="m22.081 10.323v0.42973s-0.64879-0.26865-1.0141-0.52054c-0.41464-0.28216-0.60706-0.48649-0.60706-0.48649l1.6212 0.5773zm0-0.97784v0.43135s-0.64879-0.26919-1.0141-0.52216c-0.41464-0.28162-0.76153-0.56108-0.76153-0.56108l1.7756 0.65189zm0 2.4486s-0.64879-0.27027-1.0141-0.52216c-0.41464-0.27892-0.41464-0.45405-0.41464-0.45405l1.4288 0.54595v0.43027zm0.44933 1.3097v-4.1686l-2.6678-0.90541 0.70191 4.0422 1.9659 1.0319z" fill="#fff"/>
<path d="m22.74 6.2465c-1.5263 0-2.67 0.49892-2.9182 1.0832l2.9182 1.1497 2.9161-1.1497c-0.2477-0.58432-1.3903-1.0832-2.9161-1.0832" fill="#fff"/>
<path d="m22.741 4.5784c1.1247 0 2.2499 0.33946 3.0077 0.78054 0.12304-0.40649 0.25583-0.69622 0.4347-1.0286l-0.69161 0.10595-0.55774-1.1897-1.0434 0.55297-1.1496-1.1335-1.1512 1.1335-1.0428-0.55297-0.56261 1.1897-0.68999-0.10595c0.18049 0.33243 0.31112 0.62216 0.43741 1.0286 0.75882-0.44108 1.8808-0.78054 3.0093-0.78054" fill="#fff"/>
<path d="m41.783 13.739c0.37779-0.048649 0.68023-0.17297 1.0499-0.44919-0.79676-0.21135-2.4673-0.81297-3.8933-0.54324-0.47155 0.061622-0.73226 0.25243-0.56424 0.36108 0.76587 0.50649 1.7122 1.6811 2.4001 3.0524 0.60435-0.74811 0.35068-1.7319 0.22439-2.0135 1.206 0.72486 1.5209 1.0773 2.0813 0.93946-0.29811-0.45622-0.7198-0.86649-1.2981-1.347" fill="#fff"/>
<path d="m4.702 16.161c0.68836-1.3714 1.6353-2.5459 2.4028-3.0524 0.17074-0.10865-0.093769-0.29946-0.56207-0.36108-1.4277-0.26973-3.1014 0.33189-3.8982 0.54324 0.37345 0.27622 0.6721 0.40054 1.0521 0.44919-0.5805 0.48162-1.0006 0.89081-1.2987 1.347 0.56316 0.13784 0.87698-0.21459 2.0813-0.94-0.12466 0.28324-0.37941 1.2659 0.22277 2.0141" fill="#fff"/>
<path d="m10.811 31.006l-0.48619 0.82486c-0.17507-0.54378-0.49053-1.1065-0.6927-1.507-0.39025 0.80324-1.0076 0.81946-1.6038 0.82378 0.13225-1.9238-2.2927-3.8589-1.226-6.0541 0.21247-0.43892 0.074256-0.9773-0.38375-1.2076-1.6255-0.82216-0.87373 2.5924-2.4976 2.6968 0.31058-0.38919 0.42657-1.1995 0.47372-1.2697-0.34581 0.08973-1.1724 0.61568-1.5442-0.057297 0.94907-0.51514 1.2212-1.2908 1.3708-2.0697 0.18916-0.98541 0.27643-1.4422 0.46776-1.8465 0.20055-0.43189 0.52088-0.80703 1.2076-1.6951-0.16261 0.023243-1.9908 0.40865-2.4022 0.21676 3.1621-1.9368 2.4505-4.3973 7.2706-6.5903-1.264-0.93676-2.5562-1.6843-1.6293-3.473 1.3209 1.5827 3.8304 1.0357 5.1855 0.30054-1.3388-0.26757-3.0651-1.4454-3.4749-2.7551 0.50408-0.076757 1.1583 0.46919 1.5344 0.72378 0.18103-0.48432 0.25312-1.0465 0.84067-1.1676-0.7843 1.6724 0.76479 2.5443 2.2412 2.5508 0.22927 0 1.1848-0.096216 1.1848-0.096216-0.15339-0.31351-0.77021-1.1686-0.32196-1.5135 0.36261 0.3373 0.79243 0.60757 1.1843 0.90811 2.8711 2.2151-1.3653 4.2697-3.0987 5.2016-2.7177 1.4654-1.9908 3.2092-0.85476 3.6546-0.0043361 0.19676-0.12575 0.28378-0.31491 0.34703-0.7946 0.2627-1.5404-0.30162-2.1735-0.66486 0.037399 1.0946-0.037399 2.1454 1.1751 2.7476l-0.83579 0.30324c0.71817 0.54541 0.93715 0.83351 1.8011 0.94541-0.40326 0.19568-0.90463 0.19189-1.3334 0.23189 0.10786 0.30324 0.19729 0.71297 0.42386 0.98541-1.7691 0.20919-2.4776-0.79838-3.0266-0.75838-1.1675 0.087568-1.0938 2.2795 1.7794 2.2827l-0.29811 0.49081s0.54418 0.31676 1.0434 0.3773c-0.19079 0.15405-0.37399 0.3627-0.53551 0.52108l0.45909 0.39514c-1.1735 0.20919-1.5052-1.0362-2.2656-0.43622-1.1615 0.91838 1.3979 2.8535 3.851 2.5659-0.20597 0.26324-0.78213 0.65027-1.0304 0.85135 1.9979 1.8832 1.0125 3.6568 1.8347 4.9562-1.7242-0.11514-3.0001-1.3762-3.2993-2.7405m2.2477-2.1189c0.55557-0.43892 1.0152-0.65838 0.99189-1.7205-0.83362 0.42486-3.1963 0.40216-4.1833-0.95297-0.27968-0.38595 0.019513-0.57946 0.28835-0.27622 0.67535 0.76432 1.928 0.41838 2.3843 0.19784-0.072088-0.26378-0.27534-0.60541-0.44608-0.75189 0.17074-0.16757 0.65476-0.4173 0.75286-0.84703-0.25854-0.13946-1.2607-0.24-1.2607-0.24 0.16098-0.15514 0.36153-0.37027 0.24174-0.9427-1.0244 0.31405-2.2889-0.11243-2.5773-0.49027-0.28239-0.37189 0.0059622-0.72 0.24391-0.47351 0.5095 0.53351 3.0255 1.1465 3.9611 0.21676-0.34689-0.095676-0.73118-0.40595-0.79947-0.59784 0.8656-0.086486 1.5561-0.59622 1.6136-1.2314-0.47914 0-1.3843-0.034595-1.6922-0.26595 0.41518-0.15297 0.67752-0.3027 0.80869-0.76649-1.5832-0.095676-1.709-1.2686-1.7177-1.4627 1.0309 0.59297 2.8472 0.32865 2.3778-1.1314-0.85801-0.045946-1.7225-1.4303 0.63687-2.7016 2.1458-1.1589 4.5844-2.4076 4.3687-4.4622-0.14038-1.3157-2.3117-2.2124-2.587-2.8778-0.90625 0.43027-1.0884 0.92973-0.67915 1.7659 0 0-2.0196 0.2-2.1789-1.0389-0.068836-0.55568 0.30299-1.0757 0.703-1.4724-0.2271 0-1.748-0.40595-2.2066 0.82973-0.85259-0.58054-1.5816-0.55892-2.1561 0.053514 0.91601 0.54216 1.4835 2.4038 2.999 2.953-1.0781 0.5827-2.8212 0.33892-3.838-1.4514-0.96262 1.4459-1.5166 2.8784 0.54744 4.407-3.7573 1.7054-3.7296 4.9638-6.9974 6.5168 0.33171 0.88703 1.0304 0.88703 1.9209 0.74811-1.413 1.8308-0.20868 3.747-2.4461 4.5303 0.2103 0.74649 0.63037 1.3432 1.4548 1.1249-0.23415 0.36432-0.38863 0.3573-0.75395 0.75784 1.2228 0.76811 2.6727 0.21189 3.0011-2.2519 0.057996-0.44054 0.6656-0.16486 0.45584 0.26703-1.3941 2.8735 2.1307 5.0357 0.88349 7.1443 1.0998-0.045946 1.9372-0.13189 2.3952-0.50108 0.22494 0.44162 0.35936 0.88 0.31112 1.3119 0.6076-0.1227 0.8282-0.48108 0.86994-0.89297 0.39892 1.1584 1.8212 2.3951 4.0971 2.3951-1.2076-1.7157-0.082929-3.4578-1.7887-5.4189" fill="#1A1918"/>
<path d="m7.6576 24.132c0.41573 0.43243 0.91872 0.47676 1.8721 0.4173-1.0477-0.12703-1.6363-0.38162-2.0033-1.0751-0.053118-0.35946-0.088349-0.7427-0.10298-1.1514-0.033063-1.1005 0.33009-2.4108 1.0927-3.8465-0.0048782 0.9 0.71004 2.3157 2.3063 2.5508-1.4347-0.62541-2.2786-2.0346-1.8185-3.3989 0.29865-0.47568 0.63579-0.96703 1.0125-1.4676 0.18916-0.24054 0.37345-0.47297 0.5534-0.68865-0.19187 0.69459 0.65096 1.413 1.2147 1.5335-0.30516-0.29784-0.96208-1.2654 0.55448-2.8832-0.42332 0.2-0.89108 0.4827-1.2461 0.75784 2.7551-2.9681 5.0207-3.0519 6.0614-4.5449-1.5068 1.0276-5.4971 1.5822-7.2907 1.0968 0.98918 0.65892 3.3741 0.59892 3.9567 0.47568-1.9442 1.8854-6.1893 3.8324-6.9243 5.5649 1.0336-1.1314 1.7036-1.3384 2.5979-1.6297-0.70462 1.0492-1.3393 1.9719-1.7773 3.0427-1.129 2.4465-2.6391 2.4778-2.7394 4.4957 0.51546-1.5638 1.5605-1.9605 2.2857-2.987-0.12792 0.65514-0.18754 1.3827-0.16477 2.2216 0.025475 0.91243 0.20922 1.7146 0.49974 2.4324-0.073714 0.99676 0.015176 2.7016 1.1621 3.8254-0.77942-0.98324-0.94636-2.5822-0.87698-3.2059 0.89704 1.727 3.457 4.1135 4.6939 5.7168-1.2369-2.0627-4.2695-4.4714-4.9193-7.2524" fill="#1A1918"/>
<path d="m35.988 15.843c0.88999 0.29135 1.5616 0.49838 2.5952 1.6297-0.73226-1.7324-4.9822-3.6795-6.9259-5.5649 0.58375 0.12216 2.9692 0.18324 3.9578-0.47568-1.7914 0.48541-5.7822-0.069189-7.2907-1.0968 1.0423 1.493 3.3058 1.5768 6.0619 4.5449-0.35339-0.27514-0.8217-0.55784-1.2466-0.75784 1.5149 1.6178 0.86018 2.5854 0.55286 2.8838 0.56532-0.12108 1.4082-0.83946 1.2163-1.5341 0.18103 0.21568 0.36586 0.44811 0.55394 0.68865 0.37941 0.50054 0.71438 0.99189 1.0119 1.4676 0.45963 1.3643-0.38537 2.7735-1.8168 3.3989 1.5962-0.23459 2.3122-1.6508 2.3041-2.5508 0.76316 1.4357 1.1285 2.7459 1.0938 3.8465-0.014092 0.40865-0.049866 0.79189-0.10353 1.1514-0.36803 0.69351-0.95666 0.94811-2.0022 1.0751 0.95449 0.059459 1.4548 0.015135 1.8732-0.4173-0.65042 2.7811-3.683 5.1897-4.9215 7.2524 1.2385-1.6032 3.7947-3.9897 4.6955-5.7168 0.069378 0.62378-0.099189 2.2227-0.87698 3.2059 1.1464-1.1238 1.2353-2.8286 1.161-3.8265 0.28998-0.71676 0.4721-1.5189 0.4992-2.4314 0.027643-0.83892-0.036857-1.5665-0.16423-2.2216 0.72522 1.027 1.7702 1.4232 2.2868 2.987-0.099189-2.0178-1.6098-2.0492-2.7415-4.4957-0.43632-1.0708-1.0694-1.9935-1.7735-3.0427" fill="#1A1918"/>
<path d="m41.088 25.313c0.043903 0.07027 0.15989 0.88054 0.47101 1.2697-1.6255-0.10432-0.87156-3.5189-2.4976-2.6968-0.458 0.23027-0.59513 0.76865-0.38266 1.2076 1.0629 2.1951-1.3599 4.1303-1.2239 6.0541-0.59893-0.0043244-1.2201-0.020541-1.6076-0.82378-0.19946 0.40054-0.51817 0.96324-0.69216 1.5059l-0.48619-0.82378c-0.3019 1.3643-1.5789 2.6265-3.2993 2.7405 0.8179-1.2995-0.16532-3.073 1.8364-4.9562-0.25204-0.20108-0.82603-0.58865-1.0331-0.85135 2.4548 0.28757 5.0131-1.6476 3.8516-2.5659-0.75991-0.6-1.0943 0.64541-2.2645 0.43622l0.45855-0.39514c-0.15989-0.15838-0.34689-0.36595-0.5366-0.52108 0.49974-0.060541 1.0434-0.3773 1.0434-0.3773l-0.29811-0.49081c2.8743-0.0032433 2.9432-2.1951 1.78-2.2827-0.54581-0.04-1.2564 0.96757-3.0272 0.75838 0.22331-0.27243 0.316-0.68216 0.42548-0.98541-0.42603-0.04-0.93227-0.036216-1.3344-0.23189 0.86506-0.11189 1.0813-0.4 1.8006-0.94378l-0.83254-0.30486c1.2109-0.60216 1.135-1.653 1.1718-2.7476-0.63199 0.36378-1.3805 0.92757-2.1713 0.66486-0.18916-0.063243-0.3122-0.15027-0.316-0.34703 1.1366-0.44541 1.8602-2.1892-0.8553-3.6546-1.7317-0.93189-5.9714-2.9865-3.0987-5.2016 0.39296-0.30054 0.81953-0.57081 1.1811-0.90811 0.45096 0.34486-0.16477 1.2-0.31816 1.5135 0 0 0.95503 0.096216 1.1811 0.096216 1.4808-0.0064865 3.0315-0.87838 2.2467-2.5524 0.58755 0.12216 0.65747 0.68541 0.83687 1.1681 0.3767-0.25351 1.0309-0.79946 1.5377-0.7227-0.41139 1.3097-2.135 2.4876-3.4754 2.7551 1.3534 0.73514 3.8651 1.2822 5.1855-0.30054 0.92576 1.7886-0.36478 2.5362-1.6309 3.473 4.8207 2.1919 4.109 4.6535 7.2717 6.5903-0.40922 0.19189-2.2412-0.19351-2.4049-0.21676 0.69053 0.88811 1.0119 1.2632 1.2103 1.6951 0.19187 0.40432 0.27697 0.86054 0.46668 1.8465 0.15122 0.77892 0.42386 1.5546 1.3713 2.0697-0.37237 0.67297-1.1973 0.14703-1.541 0.057297m-0.18754-4.893c0.88945 0.13892 1.5892 0.13892 1.9209-0.74757-3.2689-1.553-3.2407-4.8114-6.9974-6.5168 2.0651-1.5286 1.5079-2.9611 0.54906-4.407-1.0157 1.7903-2.7643 2.0341-3.8375 1.4514 1.5117-0.54919 2.0824-2.4108 2.9984-2.9535-0.57291-0.61297-1.3046-0.63351-2.1583-0.054054-0.46126-1.2346-1.9794-0.82865-2.2076-0.82865 0.39892 0.39676 0.77563 0.91622 0.70408 1.4724-0.15718 1.2389-2.1773 1.0389-2.1773 1.0389 0.4076-0.83622 0.22656-1.3357-0.68023-1.7659-0.27697 0.66541-2.445 1.5622-2.586 2.8773-0.21735 2.0551 2.2239 3.3038 4.3676 4.4627 2.3589 1.2714 1.4938 2.6557 0.63958 2.7016-0.47426 1.4611 1.342 1.7243 2.3757 1.1314-0.0048781 0.19405-0.13605 1.367-1.7198 1.4632 0.13388 0.46324 0.39513 0.61297 0.80977 0.76595-0.30949 0.23135-1.213 0.26595-1.6911 0.26595 0.05637 0.63514 0.74853 1.1449 1.6147 1.2314-0.068836 0.19135-0.45367 0.50216-0.80002 0.59784 0.93552 0.92973 3.4505 0.31676 3.9627-0.21676 0.23415-0.24649 0.51979 0.10162 0.2412 0.47243-0.28944 0.37892-1.5529 0.80541-2.5778 0.49135-0.11762 0.57189 0.079676 0.78865 0.24174 0.9427 0 0-1.0022 0.09946-1.2618 0.24 0.097563 0.42973 0.58375 0.67946 0.75449 0.84703-0.17074 0.14649-0.37345 0.48811-0.44662 0.75189 0.45963 0.22054 1.7111 0.56595 2.3838-0.19784 0.27209-0.30324 0.56912-0.10973 0.29106 0.27568-0.98755 1.3557-3.3513 1.3778-4.1855 0.95351-0.023307 1.0622 0.43741 1.2805 0.99189 1.7205-1.7084 1.9611-0.57942 3.7032-1.787 5.4189 2.2743 0 3.6966-1.2384 4.096-2.3951 0.044987 0.41189 0.26342 0.77027 0.86939 0.89297-0.046613-0.43297 0.088891-0.87027 0.30949-1.3119 0.46017 0.36919 1.2998 0.45514 2.3973 0.50108-1.2445-2.1086 2.2792-4.2708 0.88132-7.1443-0.20651-0.43189 0.40055-0.70649 0.45909-0.26703 0.32684 2.4638 1.7784 3.02 3.0022 2.2519-0.36803-0.40054-0.52034-0.39351-0.75557-0.75784 0.82387 0.21838 1.2434-0.37838 1.4548-1.1249-2.2358-0.78324-1.0315-2.6995-2.4467-4.5308" fill="#1A1918"/>
<path d="m18.149 29.389l0.67047-0.50865c0.12033-0.09027 0.19838-0.14811 0.33442-0.13081l0.94636 0.12486c0.052034 0.22541 0.2038 0.44703 0.2038 0.44703l-1.0071-0.21135c-0.14309-0.016757-0.18483-0.01027-0.31871 0.085946l-0.47643 0.36c-0.095395 0.073514-0.097563 0.19027-0.043903 0.30486l0.076966 0.16541-0.3328 0.25135-0.12792-0.23838c-0.129-0.25622-0.13767-0.48757 0.074798-0.65027m1.5377-1.7746l-0.17453 0.092432c-0.12087 0.06973-0.18212 0.10054-0.28781-0.02973l-0.07534-0.095676c-0.037941-0.044865-0.049866-0.1573 0.027101-0.24324l0.74961-0.87081-0.69053-0.56541 0.87969 0.32324 0.32196-0.40054c0.094311 0.08054 0.061248 0.31189 0.061248 0.31189 0.35665 0 1.3919 0.51297 1.4315 1.7989 0 0 0.23524 0.34541 0.5328 0.36324l1.5252 0.091892c0.25258 0 0.88457-0.48054 1.6976-0.026486 0.20488-0.1227 0.42548-0.22162 0.65042-0.24703 0.71655-0.052973 1.2423 0.44541 1.6353 0.94595 0.28673 0.36216 0.67969 0.9173 0.67969 0.9173-0.16911 0.2-0.33497 0.26757-0.47535 0.21676-0.21084-0.10811-0.27968-0.27838-0.34743-0.51297-0.10732-0.37297-0.51871-0.69189-0.51871-0.69189 0.14038 0.25027 0.16911 0.53459 0.23686 0.79568-0.59676-0.58757-0.70842-1.307-1.1258-1.4059-0.18483-0.045946-0.40001 0.032973-0.59893 0.26324 0.2103 0.48649 0.19892 1.0503 0.41464 1.427 0.16423 0.28162 0.19838 0.30757 0.27155 0.36811 0.17616 0.12649 0.076424 0.35297 0.049866 0.5173l-0.22602 1.413h-0.3805l0.25041-1.3827c0.076966-0.42108-1.1084-0.42108-1.7155-1.2243-0.51763 0.60324-1.9675 0.45243-2.5957 0.35838-0.25258-0.037838-0.49974-0.021622-0.63904 0.22703-0.081303 0.13892-0.21789 0.097297-0.30082 0.077838l-1.1442-0.24649c-0.20109-0.046486-0.28835-0.007027-0.37779 0.1773l-0.22873 0.47243c-0.050408 0.11081-0.047155 0.19189 0.043903 0.28108l0.10786 0.11568c-0.065584 0.22649-0.27155 0.39892-0.27155 0.39892l-0.24933-0.28054c-0.12195-0.14108-0.12846-0.34649-0.032521-0.54649l0.3702-0.77135c0.044445-0.085405 0.12358-0.17838 0.2786-0.17838l1.4157-0.021622-0.43361-0.70432c-0.3225-0.52811 0.21301-1.4692 0.13334-1.9141-0.040651 0.59676-0.7637 0.32432-0.87536 0.40541m5.8917 3.2541l-0.61139 1.5022h-0.37887l0.61031-1.4546c0.063416-0.18811-0.05637-0.27568-0.20976-0.48108 0.2271 0.12757 0.38917 0.21135 0.66343 0.31568-0.023307 0.042703-0.052034 0.066486-0.073714 0.11784m-7.4495-0.17027l0.68728-0.58108-0.10461-0.20811c-0.074798-0.14919-0.034689-0.15784 0.044445-0.2173l0.36315-0.26973c0.08347-0.068649 0.17236-0.060541 0.27426-0.036216l1.09 0.25514h-1.1496c-0.26559 0.017838-0.34255 0.11892-0.43849 0.31568l-0.079134 0.16054-0.2954 0.60595c-0.10027 0.20811-0.15285 0.48649 0.11111 0.8l0.20868 0.24811-0.42332 0.85405h0.35665l0.29269-0.59243c0.023307-0.021622 0.45584-0.41514 0.54744-0.82324-0.12466-0.10162-0.2141-0.17243-0.14472-0.31459l0.13279-0.28324c0.043361-0.094054 0.058538-0.13243 0.18537-0.10757l1.1431 0.24649c0.14255 0.03946 0.35177 0.10162 0.50462-0.12757 0.1561-0.23838 0.17778-0.21297 0.54093-0.17676l0.58375 0.061622c0.79785 0.075676 1.5941-0.12324 1.9046-0.36865 0.1084 0.24757 0.32413 0.43568 0.42548 0.62811 0.036857 0.071351-0.024933 0.17189-0.074256 0.2973l-0.6553 1.5605h1.0103l0.57183-1.4243c0.053118-0.13622 0.13008-0.24486 0.18916-0.29946l-0.32792 1.7238h0.98051l0.26017-1.7054c0.057454-0.37892 0.023307-0.50162-0.15935-0.6573-0.40868-0.34378-0.39947-1.0665-0.53118-1.5049 0.069378-0.04 0.1496-0.06 0.24608-0.048649 0.2141 0.018919 0.37453 0.56324 0.62657 0.91351 0.50137 0.70324 1.1865 1.4795 1.9708 0.38595-0.075882-0.12432-0.15773-0.23838-0.25258-0.34649l-0.21897-0.25622c-0.12737-0.14162-0.73443-0.83405-0.9881-1.0838-0.57454-0.57838-1.4586-0.48973-1.8109-0.20973-0.79676-0.41676-1.638 0.021081-1.8369 0.0048649l-1.3729-0.082703c-0.062332-0.0043243-0.15773-0.024865-0.22439-0.13189l0.25529-0.083243c-0.23903-0.99081-0.83904-1.8211-1.8878-1.9632 0 0-0.061248-0.31297-0.22168-0.37351l-0.31274 0.36811c-0.088891 0.011892-0.18483 0.03946-0.26342 0.073514l-1.3388-0.49676 1.0054 1.0124s-0.52196 0.73622-0.66993 0.88703c-0.099189 0.1373-0.089433 0.24486 0.021139 0.37676l0.19458 0.25514c0.10136 0.13243 0.21084 0.12703 0.37182 0.045405l0.2206-0.11405c0.095937-0.080541 0.4179 0.077838 0.55665-0.048649-0.088891 0.28865-0.13279 0.56541-0.15285 0.78541l-0.903-0.10757c-0.19675-0.026486-0.28618 0-0.40651 0.092973l-0.76966 0.59135c-0.25095 0.19243-0.329 0.52378-0.17453 0.84703l0.31166 0.64757" fill="#1A1918"/>
<path d="m21.067 11.271c0.36532 0.25189 1.0141 0.52216 1.0141 0.52216v-0.43027l-1.4288-0.54595s0 0.17514 0.41464 0.45405" fill="#1A1918"/>
<path d="m22.081 10.752v-0.42973l-1.6212-0.5773s0.19242 0.20486 0.60706 0.48649c0.36532 0.25081 1.0141 0.52054 1.0141 0.52054" fill="#1A1918"/>
<path d="m22.081 9.7762v-0.43135l-1.7756-0.65189s0.34689 0.28 0.76153 0.56108c0.36532 0.25297 1.0141 0.52216 1.0141 0.52216" fill="#1A1918"/>
<path d="m27.072 15.647h1.8158c-0.074798-0.26324-0.35719-0.52865-0.88782-0.52865-0.50082 0-0.80273 0.28973-0.92793 0.52865" fill="#1A1918"/>
<path d="m25.171 8.693l-1.7735 0.65189v0.43135s0.64988-0.26919 1.0157-0.52216c0.41302-0.28108 0.75774-0.56108 0.75774-0.56108" fill="#1A1918"/>
<path d="m24.826 10.817l-1.4282 0.54595v0.43027s0.64988-0.27027 1.0157-0.52216c0.41247-0.27892 0.41247-0.45405 0.41247-0.45405" fill="#1A1918"/>
<path d="m25.019 9.7454l-1.6212 0.5773v0.42973s0.65042-0.26865 1.0157-0.52054c0.41247-0.28162 0.60543-0.48649 0.60543-0.48649" fill="#1A1918"/>
<path d="m17.475 15.118c-0.52955 0-0.8114 0.26541-0.88728 0.52865h1.8179c-0.12954-0.23946-0.42657-0.52865-0.93064-0.52865" fill="#1A1918"/>
<path d="m22.74 8.4795l-2.9182-1.1497c0.24824-0.58432 1.3919-1.0832 2.9182-1.0832 1.5258 0 2.6683 0.49892 2.9161 1.0832l-2.9161 1.1497zm2.1713 3.5919l-1.9659 1.0319v-4.1686l2.6716-0.90486-0.70571 4.0416zm2.2998 1.7378c-0.73768 0.12757-1.3713 1.0276-1.8906 1.8378l-0.057996 0.092973h-0.55394l-0.0021681 0.095676c-0.057454 0.62595-0.65205 1.4757-1.9681 1.4757-0.60706 0-1.064-0.18541-1.3794-0.43838-0.27318-0.22108-0.44283-0.49405-0.52738-0.75568-0.030895-0.094595-0.05095-0.19027-0.05908-0.28162l-0.0048782-0.095676h-0.5496l-0.059622-0.092973c-0.52196-0.81027-1.155-1.7103-1.8895-1.8378l2.006-1.1622 2.4651 1.3362 2.4624-1.3362 2.0087 1.1622zm2.7063 3.0638c-0.21084 0.54595-0.37995 1.1384-0.37995 1.7319v6.3649h-0.74202c-0.33768-0.32595-0.62224-1.4103-0.62224-1.4103-0.18483 0.39081 0.027101 1.1811 0.22439 1.4103h-0.95558c-0.2374-0.31946-0.44229-1.4497-0.44229-1.4497-0.28564 0.32486-0.10461 1.2049 0.07263 1.4497h-0.63524c-0.039567-0.45189 0.089975-0.94486 0.089975-0.94486-0.33226-0.061081-0.68565-0.23514-0.68511-0.60378 0.16857 0.15676 0.23686 0.15405 0.46939 0.14919l0.26992-0.21189c-0.89541 0.029189-0.93715-0.95135-0.2271-1.4097-0.71004 0.022703-1.2396-0.39838-0.98159-1.1497-0.50462-0.26-0.6824-1.1119-0.30949-1.487-0.26992-0.29189-0.31491-0.86541-0.14201-1.2573-0.35719 0-0.75991-0.14216-0.9843-0.38541-0.017344 0.0081081-0.037941 0.013514-0.05637 0.02 0.44716-0.18216 0.82603-0.46486 1.0819-0.81622h4.9551zm-0.37833 12.644c0 1.3276-0.61519 2.3368-1.6385 2.8951l0.36749-0.74324h-0.35502l-0.47047 0.95243c-0.48673 0.18432-1.0407 0.28486-1.651 0.28486-1.8678 0-2.3616 0.075676-3.0505 0.76216-0.69324-0.68649-1.1859-0.76216-3.0505-0.76216-0.60706 0-1.1594-0.098919-1.6439-0.28108h0.011924l0.47101-0.95622h-0.35394l-0.41302 0.83676c-0.099189-0.046486-0.19404-0.096216-0.28618-0.15135l0.3393-0.68541h-0.35285l-0.25204 0.51081c-0.80002-0.58703-1.2694-1.5038-1.2694-2.6627v-4.1741h13.598v4.1741zm-9.256-7.6232l0.57237 0.071351c0.043361 0.31243-0.038483 0.84378-0.24282 1.14l-0.55557-0.15946c0.14797-0.35081 0.18483-0.67838 0.22602-1.0519zm-0.82603-0.41838s0.52684-0.024865 0.67535 0.030811c0.10949 0.045405 0.034689 0.22919-0.10678 0.20865-0.14797-0.017838-0.56858-0.23946-0.56858-0.23946zm-0.034689-2.0827l-0.47264 1.7184 0.16152-2.7724 0.73226-0.62486 0.37291 0.81568-0.94203 2.6924 0.24879-1.8124c0.023307-0.12595-0.079676-0.14054-0.10082-0.016757zm-0.36315 2.8654c-0.24716 0.098378-0.50028-0.035676-0.42223-0.19514 0.11437 0.10378 0.4347 0.052973 0.4347 0.052973l-0.012466 0.14216zm-0.46505 0.22919c0.11491 0.10973 0.46071 0.068108 0.46071 0.068108l0.012466 0.069189c-0.15122 0.20054-0.56912 0.10973-0.47318-0.1373zm-0.54256-1.1076c-0.13225-0.088108-0.07263-0.27892 0.074256-0.27892 0.1599 0.0037838 0.37508 0.18541 0.58646 0.27568 0 0-0.55448 0.075135-0.66072 0.0032432zm0.52576 1.5249s0.15827 0.065946 0.3599 0.082162c-0.023307 0.10973-0.10895 0.21568-0.24391 0.18541-0.11274-0.024865-0.16369-0.16486-0.11599-0.26757zm0.37237-1.0389c-0.26613 0.085946-0.38321-0.10595-0.37182-0.26919 0.52196-0.18919 0.75449-0.067027 0.90679 0.02973 0.13984 0.088649 0.25692 0.33892 0.445 0.49568-0.030353 0.21351-0.096479 0.52162-0.1729 0.72811-0.53334-0.13622-0.56099-0.60541-0.36261-0.89027-0.11111-0.13027-0.22927-0.16324-0.44445-0.094054zm2.3122 0.15243l0.57074 0.067568c0.05637 0.31297-0.050408 0.97784-0.26559 1.2951l-0.58213-0.16811c0.23307-0.30432 0.31816-0.84541 0.27697-1.1946zm0.98213 0.12l0.47101 0.058378c0.07534 0.39027 0.026017 1.0654-0.22385 1.4492l-0.54744-0.15838c0.23957-0.32595 0.35285-0.99622 0.30028-1.3492zm0.84392 0.10432h0.010298c0.1225 0.018378 0.2515-0.0027027 0.36911-0.050811 0.25421 0.36378 0.45367 1.1892 0.14797 1.7043-0.1729 0.0032433-0.3431-0.027027-0.50137-0.071892l-0.12683-0.037838c0.258-0.39892 0.2206-1.1032 0.10082-1.5438zm0.7198-0.2773l0.33497-0.32649c0.33984 0.29622 0.78647 0.95838 0.64717 1.587l-0.36478 0.33351c-0.074798 0.071892-0.15285 0.12595-0.23198 0.17405 0.2271-0.56108-0.062332-1.4259-0.38537-1.7681zm1.9594 0.18649c-0.072088 0.097297-0.13171 0.21081-0.16965 0.33405l-0.40597 0.37135c0.081302-0.59135-0.31762-1.2924-0.68186-1.5773l0.43145-0.42216 0.086181 0.086486c-0.14418 0.3773 0.13767 1.1189 0.73985 1.2076zm-1.077-2.8638c-0.21355 0.40595-0.19187 0.87405 0.059622 1.2989l-0.16748 0.16378c-0.72793-0.090811-1.0152-1.173-1.0152-1.173-0.014634 0.097297-0.023307 0.19243-0.021681 0.28919-0.4244-0.15676-0.69324-0.53351-0.67156-1.0486 0.16044 0.089189 0.34147 0.15243 0.5328 0.18541l0.049866-0.31622c-0.50841-0.088649-0.80544-0.40541-0.91818-0.78-0.024391-0.0021622-0.046072-0.0081081-0.069378-0.0097298 0.091059 0.0075676 0.17941 0.014595 0.27209 0.014595 0.3019 0 0.58755-0.046486 0.85639-0.12541 0.21084 0.3 0.58646 0.51514 0.96208 0.55676-0.058538 0.24541-0.029811 0.55784 0.13063 0.94432zm-4.1735-2.4151c0.35123 0.47892 0.92089 0.83405 1.5957 0.97297 0.056912 0.25297 0.19404 0.52973 0.4618 0.75297-0.11111 0.74432 0.20976 1.4395 1.013 1.6243 0.083471 0.37892 0.32033 0.66649 0.71492 0.80216l-0.55774 0.64324c-0.21247 0.24649-0.49107 0.32486-0.72251 0.29676l-2.4938-0.28324c0.10786-0.27622-0.17941-0.59568-0.96858-0.45838l0.98051-2.7346-0.59839-1.2686-1.1339 0.96486-0.082929 2.8681-0.48185-0.23676c-0.63362-0.27243-0.8179 0.86919-0.21626 0.87405l0.23903 0.0027027c-0.015176 0.1173 0.020055 0.24703 0.11274 0.28649-0.11274 0.047568-0.14743 0.26-0.0043362 0.33568-0.14363 0.067568-0.16315 0.28432-0.047155 0.37784-0.12629 0.21135-0.14526 0.66757 0.29215 0.78324 0.35719 0.093514 0.58104-0.29081 0.6553-0.51405l3.8803 1.1989c0.55015 0.1573 0.9404 0.068649 1.3962-0.33027l1.013-0.88324c-0.12737 0.5773 0.081302 1.0984 0.5225 1.2703 0 0-0.063958 0.51892-0.043903 0.75135h-10.101v-6.3649c0-0.59351-0.17182-1.1859-0.37616-1.7319h4.9513zm-0.6553-8.8432l2.6694 0.90486v4.1686l-1.9664-1.0319-0.703-4.0416zm6.4863-0.49622c0-1.0189-1.716-1.9308-3.6093-1.9308-1.8943 0-3.6104 0.91189-3.6104 1.9308l0.039025 0.24973 0.75395 4.3276-3.5789 2.0805c-0.3805 0.22216-0.85693 0.8373-0.91763 1.4557h0.65313c0.10786-0.61784 0.5973-1.3032 1.5101-1.2605 0.82603 0.043243 1.3155 0.54432 1.8017 1.2605l0.12521 0.18865 0.17995 0.28162h-5.2624c0.38646 0.77459 0.75449 1.5962 0.75449 2.4876v10.912c0 2.8081 2.1621 4.1449 4.5042 4.1449 1.8082 0 2.0521-0.082162 3.0505 0.91351 0.99514-0.99568 1.238-0.91351 3.0505-0.91351 2.3393 0 4.5036-1.3368 4.5036-4.1449v-10.912c0-0.89135 0.3664-1.713 0.75286-2.4876h-5.2662l0.18103-0.28162 0.12575-0.18865c0.48402-0.71622 0.97509-1.2173 1.8017-1.2605 0.91005-0.042703 1.4017 0.6427 1.5095 1.2605h0.6515c-0.057996-0.61838-0.53714-1.2335-0.91709-1.4557l-3.5784-2.0805 0.75503-4.3276 0.036857-0.24973z" fill="#1A1918"/>
<path d="m29.228 20.986l0.0054202-0.31892c-0.98213-0.023243-1.2065-1.1778-1.2065-1.1778-0.28781 0.85027 0.4618 1.4838 1.2011 1.4968" fill="#1A1918"/>
<path d="m27.988 22.942l-0.098105-0.30162c-0.83742 0.21351-1.2705-1.1097-1.2705-1.1097-0.26776 0.96108 0.66668 1.6422 1.3686 1.4114" fill="#1A1918"/>
<path d="m28.57 21.715c-1.0006 0.15784-1.4114-1.0027-1.4114-1.0027-0.11057 0.63189 0.29974 1.273 0.96208 1.3405-0.1496 0.82541 0.61844 1.2476 1.2835 0.95405l-0.095937-0.28757c-0.57779 0.19351-1.1198-0.37676-0.73823-1.0043" fill="#1A1918"/>
<path d="m27.971 18.403l0.0092143-0.31946c-1.3204-0.27135-1.2103-1.1778-1.2103-1.1778-0.2851 0.85351 0.46451 1.4838 1.2011 1.4973" fill="#1A1918"/>
<polyline points="19.605 31.669 19.133 32.625 19.488 32.625 19.959 31.669 19.605 31.669" fill="#1A1918"/>
<polyline points="20.318 31.669 19.846 32.625 20.205 32.625 20.673 31.669 20.318 31.669" fill="#1A1918"/>
<polyline points="23.177 31.669 22.706 32.625 23.061 32.625 23.532 31.669 23.177 31.669" fill="#1A1918"/>
<polyline points="23.893 31.669 23.419 32.625 23.776 32.625 24.245 31.669 23.893 31.669" fill="#1A1918"/>
<polyline points="22.463 31.669 21.991 32.625 22.346 32.625 22.818 31.669 22.463 31.669" fill="#1A1918"/>
<polyline points="26.638 32.625 26.994 32.625 27.466 31.669 27.11 31.669 26.638 32.625" fill="#1A1918"/>
<polyline points="21.034 31.669 20.562 32.625 20.918 32.625 21.39 31.669 21.034 31.669" fill="#1A1918"/>
<polyline points="21.746 31.669 21.274 32.625 21.632 32.625 22.103 31.669 21.746 31.669" fill="#1A1918"/>
<path d="m19.984 4.4362l0.56261-1.1892 1.0428 0.55243 1.1512-1.1335 1.1512 1.1335 1.0418-0.55243 0.55611 1.1892 0.69324-0.10595c-0.17778 0.33243-0.31166 0.62108-0.4347 1.0286-0.75774-0.44108-1.883-0.78054-3.0077-0.78054-1.1285 0-2.251 0.33946-3.0093 0.78054-0.12629-0.40757-0.258-0.69622-0.43741-1.0286l0.68999 0.10595zm2.7567 0.52108c1.4651 0 2.638 0.48378 3.2862 1.0043 0 0 0.19404-1.16 0.85042-2.1784l-1.1811 0.13189-0.61682-1.3103-1.1876 0.61568-1.1512-1.1395-1.1512 1.1395-1.1897-0.61568-0.6179 1.3103-1.18-0.13189c0.65747 1.0184 0.84934 2.1784 0.84934 2.1784 0.64663-0.52054 1.8228-1.0043 3.2895-1.0043z" fill="#1A1918"/>
<path d="m23.945 2.613c0.17128 0.014054 0.32358-0.11514 0.33822-0.28378 0.016802-0.17027-0.23361-0.62703-0.23361-0.62703s-0.37508 0.40216-0.387 0.57405c-0.01626 0.16865 0.11274 0.31946 0.28239 0.33676" fill="#1A1918"/>
<path d="m25.88 3.3119c0.15231 0.082162 0.33822 0.021622 0.4206-0.13081 0.082929-0.14973 0.028727-0.66649 0.028727-0.66649s-0.49811 0.22432-0.5805 0.37676c-0.07805 0.15027-0.021139 0.33784 0.13117 0.42054" fill="#1A1918"/>
<path d="m21.532 2.613c0.17453-0.017297 0.30082-0.16811 0.28564-0.33676-0.015718-0.17189-0.387-0.57405-0.387-0.57405s-0.24987 0.45676-0.23361 0.62703c0.01355 0.16865 0.1664 0.29784 0.33497 0.28378" fill="#1A1918"/>
<path d="m19.6 3.3119c0.15176-0.082703 0.20976-0.27027 0.12846-0.42054-0.080218-0.15243-0.57942-0.37676-0.57942-0.37676s-0.053118 0.51676 0.030353 0.66649c0.079676 0.15243 0.2683 0.21297 0.42061 0.13081" fill="#1A1918"/>
<path d="m40.999 14.147c0.12683 0.2827 0.37995 1.2643-0.22385 2.0135-0.68782-1.3714-1.6342-2.5459-2.4001-3.0524-0.16748-0.10865 0.092685-0.29946 0.56424-0.36108 1.426-0.26973 3.0965 0.33189 3.8933 0.54324-0.37074 0.27622-0.67156 0.40054-1.0499 0.44703 0.57833 0.48378 1 0.89297 1.2981 1.3492-0.56045 0.13784-0.87536-0.21514-2.0819-0.93946m1.799-0.23297c0.41193-0.14595 0.73064-0.53784 0.88945-0.90054-1.0488-0.15027-3.8337-1.3168-6.1237-0.36703 0.85747-0.81189 1.6277-0.91676 1.7008-2.0843 0.35556 0.25514 0.95666 0.39892 1.2949-0.20973-0.23632-0.69514-0.832-0.13243-0.91601-0.32324-0.11653-0.26649 0.75232 0.081622 0.93769-0.82162-0.67535-0.23135-0.87753 0.31892-0.99785 0.19135-0.11166-0.12162 0.42874-0.35351 0.030895-1.0816-0.703 0.41027-0.33713 0.87297-0.48565 0.92486-0.17995 0.070811-0.038483-0.49351-0.81519-0.46811-0.076424 0.83351 0.7301 0.85892 0.59784 0.99189-0.1599 0.16108-0.37074-0.47892-0.95774-0.15459 0.010298 0.67297 0.55611 1.0422 1.1203 0.88324-0.092143 1.2784-1.2667 1.04-2.1431 2.4795 1.8542 0.94811 2.6933 2.6011 3.8342 3.7443 0.3767-0.26649 1.0206-1.4519 1.0206-1.4519 1.2347 0.95351 2.103 0.0037838 2.103 0.0037838-0.42494-0.43405-0.44012-0.76432-1.0905-1.3562" fill="#1A1918"/>
<path d="m22.396 36.591l-0.80381-0.02973-0.091601 0.32054 0.10082 0.0054054c0.033605 0 0.033605-0.062703 0.062874-0.096757 0.015718-0.012432 0.16152-0.036216 0.27643-0.024324l0.33659 0.025406c-0.19784 0.41135-0.71655 0.79838-0.71004 1.0714 0.0075883 0.14541 0.15556 0.17405 0.24391 0.17027 0.16206-0.005946 0.21247-0.11946 0.25475-0.29459 0.098105-0.40486 0.29432-0.71297 0.43632-1.1773l-0.099731 0.0032432-0.0065042 0.026486" fill="#1A1918"/>
<path d="m22.945 37.069l0.011924-0.24703h0.69812l-0.036857-0.27568c-0.19079 0.0064865-0.47101 0.068649-0.72793 0.07027l-0.048782 0.53838c0.32358-0.014054 0.53443 0.12649 0.53443 0.46432 0 0.12595-0.082928 0.36108-0.22873 0.37892-0.033605 0.0048648-0.07805-0.0064865-0.099189-0.023243-0.06992-0.052432 0.021681-0.11027 0.021681-0.19676 0-0.11243-0.11491-0.15189-0.19133-0.13784-0.11979 0.0075676-0.1626 0.085405-0.1626 0.18054 0 0.19838 0.2954 0.25351 0.42169 0.25351 0.28673 0 0.61736-0.15892 0.61736-0.4827 0-0.42595-0.47806-0.51351-0.80977-0.5227" fill="#1A1918"/>
<path d="m24.618 37.289c-0.24879 0-0.28456-0.38649-0.28456-0.57405 0-0.052973 0.047698-0.12757 0.10353-0.12757 0.22656 0 0.2889 0.52595 0.30732 0.67405-0.036857 0.014054-0.08076 0.027568-0.12629 0.027568m-0.15881-0.77459c-0.25041 0-0.45584 0.18595-0.45584 0.44 0 0.40108 0.43199 0.53297 0.75232 0.38108 0.039025 0.31135-0.024391 0.53459-0.14255 0.54216-0.10082 0-0.086181-0.075676-0.10082-0.14-0.026559-0.12108-0.1225-0.15351-0.22114-0.12108-0.10461 0.03027-0.12033 0.12216-0.10244 0.19189 0.046613 0.1573 0.24174 0.16054 0.33551 0.14919 0.41085-0.046486 0.58321-0.35081 0.58321-0.68865 0-0.39135-0.22494-0.75459-0.64825-0.75459" fill="#1A1918"/>
<path d="m21.029 36.432c-0.037399 0.045946-0.20976 0.26-0.57996 0.53568l0.030895 0.053514c0.040651-0.021622 0.10624-0.051892 0.21789-0.11892l-0.21789 0.76054c-0.012466 0.041081-0.062874 0.044865-0.087265 0.041081l-0.12954-0.018378-0.024391 0.089189 0.70896 0.12649 0.021681-0.08973-0.1225-0.026486c-0.036315-0.01027-0.058538-0.036216-0.052576-0.077297l0.32304-1.2622-0.088349-0.013514" fill="#1A1918"/>
<path d="m26.396 37.33l-0.62874-2.0389c1.3399-0.27622 2.2721-0.56 2.9838-0.83405v1.2719l1.1046 0.44378c-0.93335 0.42432-2.0911 0.84541-3.4597 1.1573m-3.6548 1.193c-1.2493 0-2.4694-0.18649-3.5117-0.44162l0.66343-2.1389c0.43958 0.10216 1.5399 0.23676 2.8483 0.23676 1.309 0 2.4049-0.13459 2.8467-0.23676l0.6656 2.1389c-1.0472 0.25514-2.2667 0.44162-3.5123 0.44162m-7.1183-2.3503l1.1057-0.44378v-1.2719c0.71167 0.27405 1.6439 0.55784 2.9838 0.83405l-0.6282 2.0389c-1.3653-0.31189-2.5263-0.73297-3.4613-1.1573m13.47-0.70811v-1.5605c-1.2092 0.55297-2.7486 1.0011-4.7275 1.1784l-0.089975 0.55784c0.16803 0.023784 0.38158 0.044324 0.6656 0.062703-0.73335 0.1-1.6808 0.14865-2.2 0.14865-0.52034 0-1.4667-0.048649-2.2011-0.14865 0.28347-0.018378 0.4954-0.038919 0.66343-0.062703l-0.089433-0.55784c-1.9794-0.1773-3.5204-0.62541-4.7264-1.1784v1.5605l-1.6407 0.67135c1.2147 0.63027 2.6131 1.1443 4.2294 1.5595l-0.19133 0.65351c0.92576 0.27027 2.4049 0.54757 3.9562 0.54757 1.5507 0 3.0288-0.2773 3.9546-0.54757l-0.19079-0.65351c1.6141-0.41514 3.0158-0.92919 4.2304-1.5595l-1.6423-0.67135" fill="#1A1918"/>
<path d="m2.3963 15.086c0.29974-0.45622 0.71926-0.86541 1.3014-1.347-0.38104-0.048649-0.67969-0.17297-1.0531-0.44919 0.79676-0.21135 2.4721-0.81297 3.8982-0.54324 0.4683 0.061622 0.73281 0.25243 0.56099 0.36-0.76641 0.50757-1.7133 1.6822-2.4017 3.053-0.60218-0.74865-0.34743-1.7303-0.22277-2.013-1.2044 0.72486-1.5182 1.0773-2.083 0.93946m1.297 0.18s0.645 1.1854 1.0195 1.4514c1.1431-1.1427 1.9827-2.7957 3.8353-3.7438-0.87698-1.4395-2.0537-1.1978-2.141-2.4795 0.56316 0.15892 1.1079-0.21189 1.1193-0.88324-0.58917-0.3227-0.79947 0.31892-0.95829 0.15459-0.13171-0.13514 0.67481-0.15838 0.59839-0.99081-0.77779-0.024324-0.63524 0.53784-0.8179 0.46703-0.1458-0.052973 0.21952-0.51514-0.48619-0.92486-0.39621 0.73135 0.1458 0.95946 0.033605 1.0816-0.11979 0.12757-0.32358-0.4227-0.99839-0.19135 0.1832 0.90324 1.0558 0.55514 0.93715 0.82162-0.082929 0.19081-0.67861-0.37189-0.91276 0.32324 0.33551 0.60865 0.93769 0.46486 1.2905 0.21081 0.075882 1.1714 0.84392 1.2692 1.7036 2.0832-2.2895-0.94973-5.0754 0.21568-6.1275 0.36865 0.16206 0.36108 0.47968 0.75297 0.89216 0.89568-0.64988 0.5973-0.66505 0.92595-1.09 1.3595 0 0 0.86614 0.94973 2.1025-0.0037838" fill="#1A1918"/>
<path d="m21.737 14.396v0.68757c0.2374-0.28486 0.69595-0.22865 0.69595-0.22865v0.98865s-0.015718 0.48865-0.18916 0.69784h0.99352c-0.1729-0.20919-0.18916-0.69784-0.18916-0.69784v-0.98865s0.458-0.056216 0.69595 0.22865v-0.68757h-2.0071" fill="#1A1918"/>
</g>
</g>
</g>
</svg>
