<svg width="139" height="27" viewBox="0 0 139 27" fill="none" xmlns="http://www.w3.org/2000/svg">
<path fill-rule="evenodd" clip-rule="evenodd" d="M136.839 19.8676V10.3129C136.839 9.37084 136.839 8.42883 136.704 7.48681C136.028 3.71875 133.462 1.56557 129.814 0.623552C126.437 -0.18389 122.925 -0.18389 119.548 0.488978C117.792 0.758126 116.171 1.16185 114.685 1.96929C114.808 2.76866 114.961 3.56802 115.115 4.3795C115.297 5.34574 115.483 6.32948 115.631 7.35224C117.387 6.41022 119.278 6.0065 121.169 5.87193C123.195 5.73735 125.222 5.73735 127.248 6.41022C128.328 6.81394 129.274 7.48681 129.409 8.69798C129.5 9.15149 129.469 9.66691 129.439 10.1594C129.424 10.3976 129.409 10.6305 129.409 10.8512C124.816 9.23627 123.736 9.1017 120.224 9.63999C114.55 10.4474 111.713 14.6192 112.794 20.2713C113.469 23.6357 116.711 26.5963 121.034 26.8654C124.951 27.1346 128.464 26.1926 130.895 22.6936C130.895 23.0974 130.895 23.2319 131.03 23.5011C131.3 24.7122 131.841 25.6543 132.921 26.1926C134.948 27.1346 136.974 26.8654 139 26.3271V22.2899C137.109 22.0208 136.974 21.8862 136.839 19.8676ZM126.572 20.5405C125.357 21.0788 124.141 21.2133 122.925 21.0788C121.574 20.9442 120.494 20.1367 120.088 18.9256C119.683 17.4453 120.088 16.0995 121.304 15.2921C122.52 14.3501 124.006 14.2155 125.492 14.4846C126.843 14.6192 128.193 15.0229 129.409 15.8304C129.544 18.2527 128.734 19.5984 126.572 20.5405ZM29.5831 23.5011C32.2847 25.9234 35.6618 27 39.309 27C43.0914 27 46.4684 25.9234 49.1701 23.2319C52.277 20.2713 53.2225 16.6378 53.0875 12.6006C52.8173 7.89053 50.7911 4.25704 46.6035 1.96929C43.3615 0.085257 39.7143 -0.318464 36.0671 0.488978C33.0952 1.16185 30.5287 2.50758 28.6375 4.66076C26.4762 7.21766 25.5306 10.1783 25.5306 13.4081C25.2604 17.4453 26.4762 20.8096 29.5831 23.5011ZM33.2303 11.1203C34.0408 8.42883 36.2021 6.81394 39.4441 6.67937C41.7405 6.67937 43.6317 7.75596 44.7123 10.0437C45.9281 12.7352 45.9281 15.2921 44.3071 17.849C42.9563 20.0022 40.6599 20.8096 38.2284 20.5405C35.6618 20.1367 34.0408 18.6564 33.3654 16.2341C32.69 14.4846 32.69 12.7352 33.2303 11.1203ZM93.8824 15.5612C93.207 15.5276 92.5316 15.4939 91.8562 15.5612H91.9913V26.3271H85.2371V0.758126H91.9913V10.0437C92.4667 10.0437 92.9774 10.0787 93.5001 10.1137C94.7564 10.1998 96.0748 10.2886 97.1244 9.90914C99.0156 9.23627 100.366 7.89053 100.907 6.0065C101.255 4.96625 101.435 3.92465 101.627 2.81307C101.733 2.19806 101.843 1.56153 101.987 0.892699H108.742C108.877 6.14107 107.931 10.582 102.798 13.5426C102.865 13.6772 102.967 13.8454 103.068 14.0136C103.169 14.1819 103.271 14.3501 103.338 14.4846C103.912 15.4388 104.497 16.4023 105.088 17.3739C106.579 19.8326 108.1 22.3397 109.552 24.8468C109.71 25.0823 109.822 25.3636 109.94 25.6623C110.026 25.8777 110.115 26.1024 110.227 26.3271H102.393C100.366 22.9628 98.3401 19.4639 96.3139 15.965L95.9087 15.5612C95.2332 15.6285 94.5578 15.5949 93.8824 15.5612ZM72.9446 26.3271H79.6987V0.758126H72.9446V11.524C71.3722 12.4876 70.5577 12.4808 69.1447 12.4687L68.622 12.466C65.9203 12.466 63.759 10.7166 63.6239 8.02511C63.4888 6.0065 63.4888 2.10386 63.4888 0.758126H56.7347V10.1783C56.7347 12.7352 58.2206 15.0229 60.2468 16.7724C62.9485 18.9256 65.9203 19.4639 69.1623 19.0602C70.0633 18.9606 70.8914 18.787 71.8099 18.5932C72.1301 18.5259 72.461 18.4573 72.8095 18.3873V26.3271H72.9446ZM14.8591 26.3271H8.10496V7.48681H0V0.758126H22.964V7.48681H14.8591V26.3271Z" fill="#231F20"/>
</svg>
