<svg width="147" height="45" viewBox="0 0 147 45" fill="none" xmlns="http://www.w3.org/2000/svg">
<path d="M76.2073 14.7535H71.4894L68.1506 20.6876H66.432L66.3771 7.84509H61.9107V31.0392H66.3771L66.432 24.6733H68.1396L72.573 31.0392H77.521L71.7409 22.603L76.2073 14.7535Z" fill="black"/>
<path d="M110.013 22.3905C109.106 21.7967 108.122 21.331 107.09 21.0066L106.105 20.6302L105.843 20.5306C105.23 20.2981 104.584 20.0546 104.562 19.4235C104.556 19.2366 104.597 19.0512 104.681 18.8847C104.766 18.7182 104.89 18.576 105.043 18.4713C105.367 18.2459 105.746 18.1156 106.138 18.095C106.993 18.0352 107.841 18.2909 108.524 18.8146L108.645 18.8921L111.031 16.1132L110.911 16.0136C110.614 15.7457 110.291 15.5083 109.948 15.305C109.332 14.9489 108.663 14.6982 107.966 14.5633C106.963 14.3474 105.926 14.3474 104.923 14.5633C103.953 14.6931 103.033 15.0745 102.252 15.6704C101.752 16.0656 101.335 16.5565 101.023 17.115C100.712 17.6735 100.512 18.2886 100.435 18.9253C100.298 20.0742 100.586 21.2337 101.245 22.1802C102.119 23.1597 103.263 23.8534 104.529 24.173L104.726 24.2394L105.175 24.3944C106.795 24.948 107.255 25.1694 107.517 25.5015C107.64 25.6686 107.708 25.8695 107.714 26.0772C107.714 26.8633 106.762 27.1843 106.116 27.3836C105.665 27.4694 105.201 27.4606 104.752 27.3578C104.304 27.255 103.882 27.0603 103.511 26.7858C102.911 26.38 102.397 25.8567 102 25.2469C101.749 25.5126 99.2743 27.9815 99.3182 28.0258L99.3951 28.1365C100.587 29.6459 102.257 30.6937 104.124 31.1035C104.55 31.187 104.982 31.2425 105.416 31.2696H105.865C107.339 31.3008 108.784 30.8462 109.98 29.9743C110.79 29.3952 111.411 28.586 111.765 27.6493C111.98 27.0205 112.056 26.3516 111.988 25.6898C111.92 25.0279 111.709 24.3892 111.371 23.8187C111.025 23.2498 110.562 22.7627 110.013 22.3905Z" fill="black"/>
<path d="M124.438 22.3908C123.534 21.797 122.555 21.3313 121.526 21.0069L120.53 20.6305L120.278 20.5308C119.654 20.2983 119.019 20.0547 118.986 19.4237C118.989 19.2371 119.035 19.0539 119.121 18.8885C119.207 18.7232 119.329 18.5804 119.479 18.4716C119.803 18.2461 120.182 18.1158 120.574 18.0952C121.429 18.0375 122.276 18.2929 122.96 18.8148L123.069 18.8923L125.456 16.1134L125.347 16.0138C125.047 15.7433 124.721 15.5058 124.372 15.3052C123.76 14.9495 123.095 14.6988 122.402 14.5635C121.395 14.3473 120.355 14.3473 119.348 14.5635C118.379 14.6971 117.46 15.0781 116.676 15.6706C116.174 16.0621 115.753 16.5502 115.437 17.1069C115.122 17.6636 114.918 18.2779 114.838 18.9144C114.694 20.0638 114.983 21.2256 115.648 22.1693C116.522 23.1488 117.666 23.8425 118.932 24.1622L119.118 24.2286L119.566 24.3836C121.198 24.9371 121.657 25.1586 121.92 25.4907C122.046 25.6549 122.112 25.8585 122.106 26.0664C122.106 26.8524 121.165 27.1735 120.519 27.3728C120.066 27.4588 119.599 27.4501 119.15 27.3474C118.7 27.2445 118.275 27.0497 117.903 26.7749C117.307 26.3632 116.795 25.841 116.392 25.2361C116.151 25.5017 113.677 27.9706 113.71 28.0149L113.797 28.1256C114.99 29.635 116.66 30.6829 118.527 31.0927C118.953 31.1768 119.385 31.2323 119.819 31.2587H120.267C121.742 31.29 123.186 30.8353 124.383 29.9634C125.193 29.3844 125.813 28.5752 126.168 27.6385C126.382 27.0097 126.459 26.3408 126.391 25.6789C126.323 25.0171 126.112 24.3784 125.773 23.8079C125.432 23.2458 124.976 22.7629 124.438 22.3908Z" fill="black"/>
<path d="M90.8792 14.7571V16.3514H90.6826C89.46 15.1134 87.8035 14.4132 86.074 14.4029C85.0134 14.3816 83.96 14.5866 82.9834 15.0043C82.0063 15.4221 81.127 16.0433 80.4031 16.8274C78.9433 18.4808 78.1606 20.6342 78.2139 22.8501C78.1573 25.1033 78.9383 27.2959 80.4031 28.9946C81.11 29.7793 81.975 30.4009 82.9406 30.8174C83.9056 31.2339 84.948 31.4353 85.9971 31.4081C87.7294 31.3752 89.3952 30.7288 90.704 29.5814H90.8792V31.0096H95.5208V14.7571H90.8792ZM91.1093 22.9387C91.156 24.2485 90.7232 25.5296 89.8939 26.5368C89.4968 26.9869 89.0063 27.3431 88.4576 27.5804C87.9095 27.8175 87.3158 27.93 86.7199 27.9096C86.1415 27.9195 85.5681 27.7972 85.0431 27.5518C84.518 27.3064 84.0544 26.9443 83.6875 26.4925C82.8681 25.4644 82.4479 24.1693 82.505 22.8501C82.4677 21.5706 82.8961 20.3218 83.709 19.3406C84.0835 18.8956 84.5504 18.5398 85.0766 18.2987C85.6027 18.0575 86.175 17.937 86.7523 17.9456C87.3449 17.927 87.9337 18.0414 88.4769 18.2807C89.0201 18.52 89.5045 18.8782 89.8939 19.3295C90.7232 20.3412 91.1555 21.6257 91.1093 22.9387Z" fill="black"/>
<path d="M141.358 14.757V16.3512H141.161C139.941 15.1159 138.29 14.4159 136.564 14.4027C135.502 14.3828 134.447 14.5882 133.469 15.0058C132.49 15.4234 131.609 16.0439 130.882 16.8273C129.422 18.4806 128.64 20.634 128.693 22.85C128.636 25.1032 129.418 27.2958 130.882 28.9945C131.589 29.7791 132.454 30.4008 133.419 30.8173C134.385 31.2337 135.427 31.4352 136.476 31.408C138.209 31.3751 139.874 30.7287 141.183 29.5813H141.358V31.0095H146V14.757H141.358ZM141.589 22.9385C141.64 24.2491 141.207 25.532 140.373 26.5367C139.976 26.9867 139.486 27.343 138.937 27.5802C138.388 27.8174 137.795 27.9299 137.198 27.9095C136.62 27.9194 136.047 27.797 135.522 27.5516C134.997 27.3063 134.534 26.9442 134.166 26.4924C133.347 25.4643 132.927 24.1692 132.984 22.85C132.947 21.5705 133.375 20.3216 134.188 19.3405C134.563 18.8955 135.03 18.5397 135.556 18.2985C136.082 18.0574 136.654 17.9368 137.231 17.9455C137.824 17.9268 138.413 18.0413 138.956 18.2806C139.499 18.5199 139.983 18.8781 140.373 19.3294C141.207 20.3385 141.64 21.6247 141.589 22.9385Z" fill="black"/>
<path d="M31.5 5.30688C21.7532 5.30688 14 13.0329 14 22.5C14 32.0759 21.8639 39.6931 31.5 39.6931C41.1361 39.6931 49 31.9671 49 22.5C49 13.0329 41.1361 5.30688 31.5 5.30688ZM31.5 28.8114C27.9557 28.8114 24.9652 25.8733 24.9652 22.3912C24.9652 18.909 27.9557 15.971 31.5 15.971C35.0443 15.971 38.0348 18.909 38.0348 22.3912C37.9241 25.9821 35.0443 28.8114 31.5 28.8114Z" fill="url(#paint0_linear)"/>
<path d="M14 10.3636V35.6476H7.87498L0 10.3636H14Z" fill="url(#paint1_linear)"/>
<defs>
<linearGradient id="paint0_linear" x1="6.80017" y1="10.2037" x2="6.80017" y2="35.2316" gradientUnits="userSpaceOnUse">
<stop stop-color="#0160D1"/>
<stop offset="1" stop-color="#00479C"/>
</linearGradient>
<linearGradient id="paint1_linear" x1="7" y1="10.3636" x2="7" y2="35.6476" gradientUnits="userSpaceOnUse">
<stop stop-color="#0160D1"/>
<stop offset="1" stop-color="#00479C"/>
</linearGradient>
</defs>
</svg>
