<?xml version="1.0" encoding="UTF-8"?> <svg xmlns="http://www.w3.org/2000/svg" width="53" height="64" viewBox="0 0 53 64" fill="none"> <path d="M19.6092 31.8099C17.5592 31.7599 14.5992 34.9199 13.2792 36.2899C12.5192 37.0699 11.8192 37.8999 11.2292 38.7699C10.2792 39.4699 9.31922 40.3499 9.29922 41.0299C9.16922 45.4999 9.89922 49.7499 9.86922 54.1699C9.84922 56.9299 9.07922 61.7099 12.2092 63.0299C17.1392 65.1099 21.4792 57.6999 21.8692 53.8699C22.1892 50.7099 23.6092 31.8999 19.6092 31.8099ZM14.4292 57.4899C13.1892 55.7099 13.7492 51.9299 13.7492 49.9299C13.7492 47.1899 13.4192 44.5299 13.2192 41.8299C13.8892 41.1599 14.3992 40.4899 14.4492 40.0599C14.4792 39.8099 14.5392 37.5399 14.7292 37.4599C17.0792 36.4799 16.3392 38.5099 16.7192 39.2099C17.8592 41.2699 17.2492 45.1499 17.2592 47.4099C17.2692 50.8399 18.0692 55.3799 17.2692 59.0299C16.1592 58.9499 15.0092 58.3299 14.4292 57.4899Z" fill="#333333"></path> <path d="M38.0095 34.5099C38.0395 31.9599 37.7295 26.5399 35.1595 25.0799C33.0095 23.8599 30.7195 26.5399 29.4295 27.9399C24.0295 33.8399 24.6595 43.1999 23.9895 50.5999C23.9795 50.7099 24.2895 50.5399 24.7395 50.2399C24.8095 52.6199 24.9195 54.9999 25.1595 57.3799C25.1695 57.4999 25.3095 57.5099 25.5195 57.4299C25.3195 60.0299 25.6395 62.8299 29.2395 62.2899C31.4595 61.9599 33.6895 59.5599 34.8895 57.7599C39.1595 51.3899 37.9295 41.7599 38.0095 34.5099ZM29.1595 54.4799C29.5695 53.9599 29.7695 53.5099 29.5995 53.2699C29.3995 49.7899 29.2995 46.2999 29.1695 42.8099C29.4595 40.7299 29.5695 38.6299 29.8795 36.4599C30.0695 35.1499 30.3195 33.8999 30.5795 32.6099C30.6295 31.9799 30.7295 31.3599 30.8595 30.7399C34.3895 34.3099 33.0895 50.1799 31.5895 57.4999C30.8495 57.2399 30.1595 56.8199 29.8695 56.4999C29.4095 55.9899 29.2395 55.2399 29.1595 54.4799Z" fill="#333333"></path> <path d="M52.6591 32.7798C52.6891 29.8498 53.3491 22.8998 50.8391 20.4998C48.7091 18.4598 45.6891 21.9798 44.2691 23.5798C43.4191 24.5498 42.8291 25.5099 42.4291 26.5099C41.1991 27.3699 39.7791 28.6099 39.8291 29.4599C40.1491 34.8999 40.5391 40.5498 40.3891 45.9698C40.3091 48.8898 40.0291 51.8898 39.8091 54.8098C39.6791 56.4798 39.0491 58.5199 39.9291 60.1199C43.2491 66.1699 51.4791 55.5798 52.0791 51.8598C53.0791 45.6298 52.5991 39.0598 52.6591 32.7798ZM47.2991 53.6999C47.2091 55.1999 47.9391 56.6399 46.3191 56.9299C42.0291 57.6899 44.5891 45.0399 44.7191 42.9099C44.9591 39.0599 44.7791 35.0499 44.5291 31.0899C45.1091 30.5199 45.5691 29.9799 45.6791 29.6599C45.8891 29.0599 45.9991 28.0399 46.1091 26.9399C47.4791 30.0999 47.5091 37.0499 47.5091 38.3699C47.5191 41.5999 47.5691 44.8298 47.5691 48.0598C47.5791 49.9798 47.4191 51.7699 47.2991 53.6999Z" fill="#333333"></path> <path d="M49.6093 1.01983C48.9293 -0.0101697 47.5093 0.629834 46.5893 0.859834C45.1093 1.23983 43.5893 1.38983 42.0893 1.66983C40.9693 1.87983 39.8793 3.19983 39.1593 3.99983C38.9993 4.17983 37.5293 6.14983 38.1893 6.01983C39.4193 5.78983 40.6693 5.64983 41.8893 5.39983C42.6493 5.24983 43.6093 4.76983 44.2393 4.98983C44.0693 5.20983 43.9093 5.42983 43.7993 5.62983C43.1793 6.27983 42.5793 6.95983 41.9993 7.69983C40.9693 9.01983 40.1293 10.7398 39.1393 12.2398C38.7693 10.6198 38.7193 8.73983 36.6593 9.15983C35.2193 9.45983 33.8893 11.5498 32.9493 12.5098C30.2593 15.2698 27.3593 19.4298 24.3493 22.8898C23.7293 21.8398 23.0093 19.1198 22.0193 18.6598C21.5593 18.4498 20.7993 19.1598 20.4993 19.3898C17.7493 21.5598 16.1093 23.9798 13.4193 26.4698C9.57929 30.0298 5.51929 33.3498 1.76929 37.0198C-0.540712 39.2798 0.209287 40.1298 2.56929 37.8198C6.62929 33.8698 11.4393 30.6198 15.3093 26.4998C16.8593 24.8498 18.2193 23.0298 19.9393 21.5598C21.7393 20.0298 18.5993 22.8898 18.5193 24.2298C18.4593 25.2498 19.3493 27.1198 19.8293 28.0498C19.8993 28.0598 19.9693 28.0798 20.0393 28.0898C22.3893 28.0098 24.6393 24.6398 25.9093 22.9698C28.1493 20.0298 30.5693 16.9898 33.0593 14.2698C33.8893 15.1098 34.0593 16.9498 34.7493 17.8798C35.0593 18.3098 36.7993 16.7198 36.9293 16.6098C39.4693 14.4498 41.3993 11.8598 43.2693 9.11983C43.7893 8.34983 44.3993 7.56983 44.8593 6.74983C44.7593 7.60983 44.4093 8.48983 44.2693 9.29983C44.0993 10.3198 43.5593 11.9998 44.0893 12.9198C44.5393 13.6998 48.3293 9.42983 48.5693 8.89983C49.2193 7.43983 49.2193 5.95983 49.4693 4.38983C49.6193 3.44983 50.2293 1.95983 49.6093 1.01983Z" fill="#333333"></path> </svg> 