<svg width="131" height="35" viewBox="0 0 131 35" fill="none" xmlns="http://www.w3.org/2000/svg">
<path d="M122.13 8.86255H114.158V26.1486H122.13V8.86255Z" fill="#97000F"/>
<path fill-rule="evenodd" clip-rule="evenodd" d="M28.6721 19.1392C28.1547 19.372 27.6374 19.6099 27.0968 19.8582C27.4302 18.421 27.4339 16.9269 27.1076 15.4881C26.7814 14.0492 26.1336 12.7029 25.2129 11.55C24.2922 10.3971 23.1225 9.46761 21.7915 8.83117C20.4604 8.19474 19.0025 7.86788 17.5271 7.8751C16.0518 7.88232 14.5972 8.22344 13.2724 8.87288C11.9476 9.52232 10.7871 10.4632 9.87771 11.6251C8.96835 12.7869 8.33381 14.1395 8.02164 15.5815C7.70948 17.0235 7.7278 18.5174 8.07522 19.9513C7.54239 19.6927 7.01214 19.4599 6.49224 19.2271C2.38995 17.401 0.258614 16.2707 0.667292 12.5538C1.76646 8.91668 4.00911 5.73096 7.06235 3.46949C10.1156 1.20801 13.8167 -0.00866607 17.6162 4.64677e-05C21.4157 0.008759 25.1112 1.2424 28.154 3.51785C31.1969 5.79331 33.4249 8.98928 34.5074 12.6314C34.8229 16.2086 32.7071 17.3415 28.6721 19.1392Z" fill="#1F5036"/>
<path fill-rule="evenodd" clip-rule="evenodd" d="M23.6257 27.1369C24.6603 24.6331 27.2779 23.4588 30.0482 22.2224C31.7579 21.462 33.6693 20.611 35.1592 19.3203C34.8671 22.4198 33.7614 25.387 31.9542 27.9219C30.1469 30.4568 27.7021 32.4694 24.8673 33.7559C24.2222 32.7945 23.7795 31.7119 23.5661 30.5741C23.3527 29.4362 23.3729 28.2667 23.6257 27.1369Z" fill="#97000F"/>
<path fill-rule="evenodd" clip-rule="evenodd" d="M5.11623 22.3076C7.89679 23.5517 10.5222 24.7312 11.5516 27.2557C11.7833 28.3676 11.7908 29.5145 11.5736 30.6293C11.3564 31.7441 10.9189 32.8044 10.2868 33.748C7.4644 32.4681 5.02824 30.4684 3.22271 27.9497C1.41718 25.4309 0.305773 22.4816 0 19.3977C1.50538 20.691 3.40392 21.542 5.11623 22.3076Z" fill="#97000F"/>
<path fill-rule="evenodd" clip-rule="evenodd" d="M14.5623 14.8945V11.4414C15.496 11.0036 16.5147 10.7766 17.5459 10.7766C18.5772 10.7766 19.5958 11.0036 20.5295 11.4414V14.8945H23.9826C24.4212 15.8284 24.6485 16.8476 24.6485 17.8794C24.6485 18.9112 24.4212 19.9303 23.9826 20.8643H20.5295V24.3122C19.5958 24.75 18.5772 24.9769 17.5459 24.9769C16.5147 24.9769 15.496 24.75 14.5623 24.3122V20.8643H11.1222C10.6827 19.9305 10.4549 18.9113 10.4549 17.8794C10.4549 16.8474 10.6827 15.8282 11.1222 14.8945H14.5623Z" fill="#97000F"/>
<path fill-rule="evenodd" clip-rule="evenodd" d="M63.7847 23.1121C63.6488 23.546 63.4837 23.9703 63.2907 24.3821C63.0999 24.7853 62.8298 25.146 62.4966 25.4426C62.1061 25.7753 61.6494 26.0213 61.1568 26.1642C59.7559 26.516 58.2898 26.516 56.8889 26.1642C56.3961 26.0217 55.9393 25.7757 55.5491 25.4426C55.2151 25.1467 54.9449 24.7859 54.755 24.3821C54.5609 23.9708 54.3958 23.5464 54.261 23.1121L50.451 11.1906C50.3898 10.979 50.3129 10.7724 50.2208 10.5724C50.138 10.3999 50.0518 10.3137 49.9621 10.3137C49.7966 10.3137 49.7034 10.4198 49.7034 10.6293C49.7034 10.8388 49.6853 11.0069 49.6853 11.1233L49.9311 26.1513H41.9153V5.51047C41.9153 4.42929 42.1739 3.59469 42.6913 3.00668C43.1739 2.43988 43.7849 1.99649 44.4734 1.71339C45.1147 1.44889 45.7939 1.28823 46.4857 1.23746C47.1557 1.1909 47.6549 1.16504 47.9834 1.16504C48.545 1.17368 49.1055 1.216 49.6621 1.29178C50.2796 1.3696 50.881 1.54417 51.4442 1.80909C52.0608 2.10264 52.6123 2.5169 53.066 3.02737C53.6264 3.68781 54.0471 4.45512 54.3024 5.28285L58.2883 17.2768C58.3115 17.3492 58.3452 17.4423 58.3917 17.5587C58.4437 17.6863 58.5033 17.8107 58.5702 17.9312C58.6329 18.0508 58.7093 18.1628 58.7978 18.2648C58.8241 18.3033 58.8582 18.3358 58.8978 18.3604C58.9375 18.3849 58.9818 18.4008 59.028 18.4071C59.0739 18.4011 59.118 18.3852 59.1573 18.3607C59.1966 18.3362 59.2301 18.3035 59.2556 18.2648C59.345 18.1629 59.4222 18.0509 59.4858 17.9312C59.5527 17.8107 59.6123 17.6863 59.6643 17.5587C59.7083 17.4423 59.7445 17.3492 59.7704 17.2768L63.7563 5.28285C63.9882 4.44975 64.4035 3.6791 64.9719 3.02737C65.4342 2.51852 65.9912 2.10471 66.6118 1.80909C67.1749 1.54381 67.7764 1.36922 68.394 1.29178C68.9584 1.21738 69.5267 1.17678 70.0959 1.17021C71.5082 1.17021 72.6135 1.32368 73.4119 1.63062C74.0934 1.86388 74.7126 2.24959 75.2225 2.75836C75.6077 3.15481 75.8761 3.64971 75.9985 4.18874C76.0959 4.6228 76.1487 5.06567 76.1563 5.51047V26.1461H68.112L68.3966 11.1182C68.4165 10.8954 68.38 10.6713 68.2905 10.4663C68.2207 10.3603 68.1483 10.3086 68.0784 10.3086C68.0086 10.3086 67.9362 10.3732 67.8663 10.5025C67.7568 10.7252 67.6626 10.9551 67.5844 11.1906L63.7847 23.1121Z" fill="#97000F"/>
<path fill-rule="evenodd" clip-rule="evenodd" d="M79.6946 26.1463V6.11071C79.6999 5.53058 79.7588 4.95218 79.8705 4.38288C79.9784 3.76434 80.2601 3.18928 80.6827 2.72489C81.0192 2.35876 81.4267 2.06484 81.8803 1.86098C82.5338 1.56719 83.2464 1.42822 83.9624 1.45489H97.6144C98.5632 1.44992 99.5097 1.55055 100.436 1.75493C101.355 1.96951 102.183 2.46928 102.8 3.18271C103.442 3.89307 103.907 4.74465 104.158 5.6684C104.474 6.7151 104.633 8.13254 104.634 9.92072C104.634 10.3432 104.616 10.901 104.58 11.5942C104.541 12.3237 104.447 13.0492 104.298 13.7644C104.147 14.5139 103.922 15.2468 103.628 15.9526C103.364 16.6159 102.947 17.2077 102.412 17.6804C101.802 18.1832 101.083 18.5373 100.312 18.7151C99.5804 18.9056 98.8282 19.0064 98.0722 19.0151H87.6664V26.1411L79.6946 26.1463ZM93.375 12.8849C93.869 12.8849 94.3527 12.8668 94.8234 12.8306C95.283 12.7992 95.7124 12.5905 96.021 12.2486C96.4452 11.7779 96.6573 11.0605 96.6573 10.0966C96.6554 9.7534 96.6199 9.4112 96.5513 9.07491C96.4723 8.70754 96.2628 8.38127 95.9615 8.15668C95.6395 7.87802 95.2394 7.7055 94.8157 7.66265C94.3637 7.61523 93.9096 7.59192 93.4552 7.59281H89.058C88.795 7.5775 88.5327 7.63193 88.2975 7.75059C88.1373 7.84254 87.9995 7.96887 87.894 8.12047C87.8015 8.25803 87.7405 8.41438 87.7156 8.57829C87.6936 8.73079 87.6824 8.88464 87.6819 9.0387V12.8849H93.375Z" fill="#97000F"/>
<path fill-rule="evenodd" clip-rule="evenodd" d="M112.032 1.45752V6.70825H113.1C113.147 6.70697 113.194 6.70003 113.24 6.68756C113.296 6.66833 113.345 6.63219 113.38 6.5841C113.414 6.53652 113.434 6.47986 113.436 6.42114C113.436 6.35907 113.436 6.29957 113.436 6.24526V1.45752H115.904V7.38593C115.906 7.55874 115.898 7.73152 115.878 7.90325C115.846 8.07434 115.762 8.23143 115.638 8.35331C115.506 8.51093 115.323 8.61642 115.12 8.65076C114.956 8.66854 114.791 8.67803 114.626 8.67922H106.973C106.79 8.67929 106.607 8.66545 106.427 8.63783C106.242 8.60002 106.076 8.49952 105.956 8.35331C105.84 8.22715 105.76 8.07149 105.726 7.90325C105.701 7.732 105.688 7.55904 105.69 7.38593V4.22515V4.20963C105.69 4.16824 105.69 4.12427 105.69 4.0803V2.75339C105.683 2.41898 105.808 2.09537 106.039 1.85312C106.27 1.61086 106.587 1.46959 106.921 1.46011H108.155V6.24526C108.155 6.29957 108.155 6.35907 108.155 6.42114C108.154 6.48037 108.175 6.5379 108.212 6.5841C108.246 6.63269 108.295 6.66897 108.351 6.68756C108.397 6.7002 108.444 6.70715 108.491 6.70825H109.559V1.45752H112.032Z" fill="#97000F"/>
<path fill-rule="evenodd" clip-rule="evenodd" d="M116.052 8.66628V1.45752H118.589V8.66628H116.052ZM121.007 8.66628L119.003 5.76674C118.92 5.64395 118.845 5.51705 118.775 5.38652C118.703 5.25759 118.665 5.11257 118.664 4.96491C118.67 4.8188 118.708 4.67578 118.775 4.54588C118.864 4.36636 118.966 4.19348 119.08 4.02857L120.762 1.47045H123.558L121.525 4.21739C121.335 4.42959 121.206 4.68853 121.15 4.96749C121.153 5.08258 121.186 5.19488 121.245 5.2934C121.307 5.39613 121.375 5.49542 121.447 5.59085L123.855 8.67922L121.007 8.66628Z" fill="#97000F"/>
<path fill-rule="evenodd" clip-rule="evenodd" d="M128.113 1.45723C128.474 1.44618 128.834 1.51323 129.168 1.65381C129.405 1.75701 129.623 1.90151 129.809 2.08059C129.945 2.22529 130.058 2.38914 130.146 2.56687C130.228 2.73262 130.295 2.90583 130.345 3.08418C130.391 3.25884 130.422 3.43709 130.438 3.61701C130.438 3.7929 130.456 3.95327 130.456 4.09811V7.12698C130.455 7.32551 130.438 7.52362 130.404 7.71931C130.366 7.93149 130.267 8.12812 130.12 8.28577C129.976 8.45318 129.78 8.56713 129.564 8.60909C129.362 8.64562 129.158 8.66466 128.953 8.66599H124.931C124.711 8.66481 124.491 8.64578 124.274 8.60909C124.039 8.56652 123.824 8.44954 123.661 8.27542C123.531 8.14587 123.426 7.99327 123.351 7.82536C123.273 7.65366 123.216 7.47295 123.183 7.28735C123.147 7.1056 123.126 6.92143 123.118 6.73641C123.118 6.55535 123.105 6.3924 123.105 6.24755C123.105 6.1027 123.105 5.93458 123.123 5.76386C123.136 5.5972 123.163 5.43192 123.203 5.26983C123.239 5.10819 123.298 4.95235 123.377 4.80683C123.457 4.65829 123.567 4.52795 123.7 4.42402C123.873 4.28387 124.082 4.19435 124.303 4.16536C124.511 4.14407 124.721 4.13457 124.931 4.13691H127.932V4.02828C127.931 3.95292 127.925 3.8777 127.913 3.80325C127.899 3.70898 127.861 3.61996 127.802 3.54459C127.762 3.48165 127.708 3.42764 127.646 3.38585C127.584 3.34405 127.514 3.31534 127.44 3.30145C127.304 3.27449 127.165 3.26063 127.026 3.26007H123.571V1.45723H128.113ZM126.118 5.83629C126.06 5.83723 126.002 5.84416 125.945 5.85698C125.87 5.87346 125.801 5.90911 125.743 5.96044C125.702 6.00353 125.673 6.05725 125.661 6.11564C125.648 6.17601 125.642 6.23759 125.642 6.29928C125.642 6.35412 125.648 6.40882 125.661 6.46224C125.675 6.51838 125.704 6.56997 125.743 6.61226C125.788 6.65773 125.845 6.69071 125.906 6.70796C125.967 6.72506 126.03 6.73377 126.093 6.73383H127.414C127.484 6.73335 127.553 6.72642 127.621 6.71313C127.683 6.70315 127.741 6.67729 127.789 6.63812C127.846 6.60063 127.886 6.54205 127.901 6.47517C127.913 6.41301 127.919 6.34974 127.919 6.28635V5.83629H126.118Z" fill="#97000F"/>
<path fill-rule="evenodd" clip-rule="evenodd" d="M42.5852 33.4895C42.4987 33.4891 42.4123 33.4831 42.3266 33.4714C42.2314 33.4639 42.141 33.4268 42.0679 33.3654C42.0273 33.3343 41.9934 33.2954 41.968 33.251C41.9427 33.2065 41.9266 33.1575 41.9205 33.1067C41.9078 33.0314 41.9 32.9554 41.8972 32.8791V28.7768H42.3602V32.7524C42.3574 32.7954 42.3574 32.8386 42.3602 32.8817C42.3602 32.9288 42.3786 32.9741 42.4114 33.0079C42.4442 33.0417 42.489 33.0614 42.5361 33.0627H42.6784H45.1511V28.769H45.6141V33.0627H46.2271V33.4818L42.5852 33.4895Z" fill="#1F5036"/>
<path fill-rule="evenodd" clip-rule="evenodd" d="M49.0336 33.4893C48.9323 33.4889 48.8311 33.4811 48.7309 33.466C48.6194 33.4513 48.51 33.4235 48.405 33.3832C48.1587 33.2877 47.945 33.1234 47.7894 32.9099C47.6082 32.6806 47.4937 32.4059 47.4583 32.1158C47.4228 31.7955 47.4055 31.4734 47.4066 31.151C47.4066 30.9855 47.4066 30.8122 47.4195 30.6337C47.428 30.4593 47.4531 30.2861 47.4945 30.1164C47.5364 29.944 47.6007 29.7779 47.686 29.6224C47.7748 29.4604 47.8942 29.3172 48.0377 29.2008C48.2434 29.0254 48.4912 28.9069 48.7568 28.8567C49.0058 28.809 49.2586 28.7839 49.5121 28.7817C49.707 28.7836 49.9015 28.8 50.094 28.8309C50.3122 28.8628 50.5221 28.9366 50.7122 29.0482C50.7614 29.0792 50.826 29.1258 50.9088 29.1904C51.0084 29.2692 51.0956 29.3625 51.1675 29.4672C51.3849 29.7827 51.4938 30.1603 51.4779 30.5432C51.4779 30.5768 51.4779 30.6208 51.4779 30.6751C51.475 30.7309 51.4672 30.7863 51.4546 30.8406C51.4427 30.8988 51.4235 30.9553 51.3977 31.0088C51.3713 31.0652 51.3334 31.1154 51.2865 31.1562C51.2149 31.2221 51.1244 31.2637 51.0278 31.2752C50.9466 31.2892 50.8645 31.297 50.7821 31.2985H47.9032C47.8947 31.4613 47.8947 31.6245 47.9032 31.7873C47.9087 31.9464 47.9322 32.1043 47.9731 32.2581C47.9995 32.36 48.0405 32.4575 48.0946 32.5478C48.1513 32.6446 48.2229 32.7319 48.3067 32.8064C48.3975 32.8876 48.5016 32.9523 48.6145 32.9978C48.744 33.0511 48.8832 33.0766 49.0232 33.0729H51.333V33.4919L49.0336 33.4893ZM50.7743 30.8743C50.8184 30.8778 50.862 30.8639 50.8959 30.8355C50.922 30.8094 50.9415 30.7775 50.9528 30.7424C50.9644 30.7109 50.9705 30.6776 50.9709 30.6441V30.5639C50.976 30.3654 50.9427 30.1677 50.8726 29.9819C50.8199 29.8445 50.7448 29.7169 50.6502 29.6043C50.5793 29.5119 50.4915 29.4338 50.3915 29.3741C50.2947 29.3201 50.1912 29.2792 50.0837 29.2525C49.9786 29.226 49.8712 29.2096 49.763 29.2034C49.6569 29.2034 49.5509 29.2034 49.4422 29.2034C49.3336 29.2034 49.2069 29.2033 49.0879 29.2163C48.9686 29.225 48.8507 29.2467 48.7361 29.2809C48.619 29.3182 48.5096 29.376 48.4128 29.4517C48.3013 29.5404 48.2075 29.6492 48.136 29.7724C48.0425 29.9237 47.9818 30.0928 47.9575 30.269C47.932 30.4724 47.9173 30.6771 47.9136 30.882L50.7743 30.8743Z" fill="#1F5036"/>
<path fill-rule="evenodd" clip-rule="evenodd" d="M56.4492 33.4896V31.2677H53.6195V33.4896H53.1591V28.7769H53.6195V30.8487H56.4492V28.7769H56.9096V33.4896H56.4492Z" fill="#1F5036"/>
<path fill-rule="evenodd" clip-rule="evenodd" d="M60.0212 33.4896V29.1959H58.2442V28.7769H62.2611V29.1959H60.4842V33.4896H60.0212Z" fill="#1F5036"/>
<path fill-rule="evenodd" clip-rule="evenodd" d="M64.0589 35.0001H63.5959V29.364C63.5897 29.2596 63.6199 29.1564 63.6812 29.0717C63.7214 29.0161 63.7673 28.965 63.8183 28.9191C63.8998 28.8564 63.996 28.8154 64.0977 28.8001C64.1789 28.7862 64.261 28.7784 64.3434 28.7769H65.5358C65.6108 28.7769 65.7065 28.7769 65.8177 28.7769C65.9406 28.7887 66.0619 28.813 66.1799 28.8493C66.3134 28.8908 66.4425 28.9453 66.5653 29.0122C66.7042 29.0915 66.8305 29.1908 66.9403 29.3071C67.0542 29.4259 67.1485 29.5621 67.2197 29.7106C67.2862 29.8528 67.3365 30.0021 67.3697 30.1555C67.4022 30.3053 67.4221 30.4576 67.4292 30.6107C67.4292 30.7608 67.4292 30.9082 67.4292 31.0504C67.4299 31.3488 67.4109 31.6469 67.3723 31.9428C67.3317 32.2408 67.2238 32.5257 67.0567 32.7757C66.8918 33.0317 66.6487 33.2276 66.3635 33.3344C66.0478 33.4359 65.7173 33.484 65.3858 33.4766H64.0511V34.9872L64.0589 35.0001ZM65.5798 33.0706C65.7923 33.0711 66.0028 33.028 66.198 32.9438C66.3928 32.8588 66.5577 32.7174 66.6713 32.5377C66.7853 32.3555 66.8586 32.1508 66.886 31.9376C66.9247 31.6687 66.9428 31.3972 66.9403 31.1255C66.9446 30.866 66.929 30.6066 66.8938 30.3495C66.8738 30.1885 66.8321 30.031 66.7696 29.8813C66.6723 29.6561 66.4981 29.4727 66.2781 29.364C66.077 29.2643 65.856 29.2113 65.6315 29.2088H64.271C64.2446 29.209 64.2187 29.2161 64.196 29.2295L64.1287 29.2709C64.1028 29.294 64.0832 29.3234 64.0718 29.3562C64.0635 29.3831 64.0592 29.4109 64.0589 29.439V33.0835L65.5798 33.0706Z" fill="#1F5036"/>
<path fill-rule="evenodd" clip-rule="evenodd" d="M73.5464 29.1338C73.5834 29.0389 73.6368 28.9514 73.7042 28.8751C73.7971 28.784 73.922 28.7329 74.0521 28.7329C74.1822 28.7329 74.3071 28.784 74.4 28.8751C74.4674 28.9514 74.5208 29.0389 74.5578 29.1338L76.0787 33.0705H76.4615V33.4896H71.6479V33.0705H72.0281L73.5516 29.1338H73.5464ZM72.5118 33.0705H75.5872L74.1543 29.3278C74.1411 29.2994 74.1264 29.2718 74.1103 29.245C74.1058 29.2317 74.0976 29.2199 74.0866 29.2112C74.0755 29.2025 74.0622 29.1971 74.0482 29.1959C74.0249 29.1959 74.0043 29.2114 73.9861 29.245L73.9422 29.3278L72.5118 33.0705Z" fill="#1F5036"/>
<path fill-rule="evenodd" clip-rule="evenodd" d="M81.2699 33.4893V29.3198C81.2699 29.2965 81.257 29.2836 81.2259 29.2836C81.2141 29.2867 81.2034 29.2929 81.1949 29.3017C81.1691 29.3283 81.1466 29.3578 81.1277 29.3896L78.7299 33.2048C78.6686 33.3021 78.5927 33.3893 78.5049 33.4635C78.4219 33.5197 78.3231 33.5478 78.2229 33.5436C78.1636 33.547 78.1043 33.5371 78.0493 33.5148C77.9943 33.4924 77.9449 33.4581 77.9048 33.4143C77.8265 33.3113 77.7871 33.184 77.7936 33.0548V28.7766H78.2566V32.8763C78.2566 32.8996 78.2566 32.9229 78.2566 32.9513C78.2569 32.9573 78.2584 32.9632 78.2611 32.9686C78.2638 32.974 78.2675 32.9788 78.2721 32.9827C78.2768 32.9866 78.2821 32.9895 78.2879 32.9912C78.2937 32.9929 78.2997 32.9934 78.3057 32.9927C78.329 32.9927 78.36 32.9539 78.404 32.8763L80.8302 28.9965C80.8781 28.9091 80.949 28.8364 81.0351 28.7863C81.1212 28.7362 81.2194 28.7105 81.3191 28.7119C81.401 28.7057 81.4825 28.7286 81.5493 28.7766C81.6019 28.8187 81.6436 28.8728 81.6708 28.9344C81.6955 28.9904 81.7121 29.0496 81.72 29.1103C81.72 29.1698 81.72 29.2189 81.72 29.2525V33.4764L81.2699 33.4893Z" fill="#1F5036"/>
<path fill-rule="evenodd" clip-rule="evenodd" d="M86.0887 28.7769C86.2474 28.7769 86.4047 28.8076 86.5517 28.8674C86.6895 28.9184 86.8142 28.9998 86.9164 29.1053C87.0382 29.2356 87.1199 29.3981 87.1518 29.5735C87.1832 29.7294 87.1997 29.8879 87.2009 30.0469V32.8662C87.1994 32.9469 87.1917 33.0273 87.1777 33.1068C87.165 33.2068 87.1163 33.2988 87.0406 33.3654C86.9689 33.4303 86.8782 33.4702 86.7819 33.4792C86.6901 33.491 86.5977 33.4971 86.5052 33.4973H84.6946C84.55 33.4968 84.4057 33.4865 84.2626 33.4663C84.1082 33.4437 83.9627 33.3803 83.841 33.2827C83.7404 33.2081 83.6603 33.1093 83.6082 32.9955C83.5554 32.8835 83.5138 32.7666 83.484 32.6464C83.4557 32.5363 83.4383 32.4236 83.4323 32.3101C83.4323 32.2015 83.4323 32.1109 83.4323 32.0514C83.4338 31.8522 83.4564 31.6536 83.4996 31.4591C83.5452 31.2549 83.6593 31.0724 83.8229 30.9418C83.9486 30.8367 84.0991 30.7655 84.26 30.7349C84.4067 30.7073 84.5556 30.6926 84.7049 30.6909H86.7483V29.99C86.7452 29.8937 86.7304 29.7982 86.7043 29.7054C86.6825 29.6037 86.6364 29.5087 86.5698 29.4287C86.5156 29.3643 86.4475 29.313 86.3707 29.2786C86.2775 29.2358 86.1758 29.2146 86.0732 29.2166H83.7789V28.7975L86.0887 28.7769ZM84.5807 31.0892C84.465 31.084 84.3502 31.1118 84.2497 31.1694C84.1803 31.2085 84.1182 31.2593 84.066 31.3194C84.0021 31.4081 83.9612 31.5112 83.947 31.6195C83.9247 31.7615 83.9143 31.9051 83.916 32.0489C83.9163 32.196 83.9267 32.3429 83.947 32.4886C83.9625 32.6265 84.0162 32.7573 84.1022 32.8662C84.1539 32.9294 84.2194 32.9798 84.2936 33.0137C84.3746 33.0514 84.4629 33.0708 84.5523 33.0706H86.4534C86.4879 33.0729 86.5224 33.0729 86.5569 33.0706C86.5961 33.0689 86.6331 33.0522 86.6604 33.024C86.6821 33.0005 86.6997 32.9734 86.7121 32.9438C86.7149 32.9172 86.7149 32.8903 86.7121 32.8636V31.0892H84.5807Z" fill="#1F5036"/>
<path fill-rule="evenodd" clip-rule="evenodd" d="M89.0684 33.4896V29.452C89.0684 29.3821 89.0684 29.3045 89.0684 29.2218C89.0695 29.1431 89.0919 29.0663 89.1331 28.9993C89.1761 28.9136 89.2515 28.8485 89.3426 28.8183C89.4259 28.7903 89.5133 28.7763 89.6012 28.7769H92.5991V29.1959H89.7771C89.7416 29.1919 89.7056 29.1961 89.672 29.2082C89.6383 29.2203 89.6079 29.24 89.5831 29.2657C89.5535 29.3065 89.5364 29.3551 89.534 29.4054C89.534 29.4597 89.534 29.5037 89.534 29.5321V33.4896H89.0684Z" fill="#1F5036"/>
<path fill-rule="evenodd" clip-rule="evenodd" d="M97.229 33.4896V31.2677H94.4019V33.4896H93.9389V28.7769H94.4019V30.8487H97.229V28.7769H97.692V33.4896H97.229Z" fill="#1F5036"/>
<path fill-rule="evenodd" clip-rule="evenodd" d="M99.3991 30.665C99.4114 30.4975 99.4383 30.3313 99.4793 30.1684C99.522 29.9977 99.5809 29.8314 99.6551 29.6718C99.7315 29.5095 99.8377 29.363 99.9681 29.2398C100.08 29.1318 100.209 29.0443 100.351 28.9812C100.492 28.9146 100.639 28.8626 100.791 28.826C100.943 28.7901 101.098 28.7659 101.254 28.7536C101.409 28.7432 101.561 28.738 101.711 28.738C101.861 28.738 102.014 28.7432 102.169 28.7536C102.324 28.7659 102.478 28.7901 102.63 28.826C102.781 28.8617 102.927 28.9138 103.067 28.9812C103.208 29.0468 103.338 29.134 103.452 29.2398C103.583 29.363 103.689 29.5095 103.765 29.6718C103.841 29.8309 103.9 29.9973 103.941 30.1684C103.983 30.3313 104.011 30.4974 104.024 30.665C104.024 30.8306 104.039 30.9754 104.039 31.1073C104.055 31.522 103.993 31.9359 103.858 32.3282C103.77 32.58 103.632 32.8114 103.452 33.0085C103.327 33.1305 103.182 33.2302 103.023 33.3033C102.87 33.3721 102.71 33.4258 102.547 33.4637C102.396 33.4981 102.243 33.5197 102.089 33.5284C101.944 33.5284 101.818 33.5439 101.711 33.5439C101.605 33.5439 101.479 33.5439 101.334 33.5284C101.179 33.5199 101.025 33.4983 100.873 33.4637C100.711 33.4259 100.552 33.3721 100.4 33.3033C100.24 33.2309 100.094 33.1312 99.9681 33.0085C99.7847 32.8136 99.6454 32.5816 99.5594 32.3282C99.4266 31.9354 99.3662 31.5217 99.381 31.1073C99.381 30.9754 99.381 30.8306 99.3991 30.665ZM99.8828 31.4876C99.8854 31.6238 99.8992 31.7596 99.9241 31.8936C99.9475 32.0349 99.9848 32.1735 100.035 32.3075C100.087 32.442 100.163 32.5656 100.26 32.6722C100.352 32.7693 100.459 32.8514 100.576 32.9153C100.693 32.9775 100.817 33.0244 100.946 33.055C101.074 33.0839 101.205 33.1029 101.336 33.1119C101.468 33.1119 101.595 33.1119 101.711 33.1119C101.828 33.1119 101.952 33.1119 102.084 33.1119C102.215 33.1033 102.346 33.0843 102.475 33.055C102.603 33.0244 102.728 32.9775 102.844 32.9153C102.962 32.852 103.069 32.7699 103.16 32.6722C103.254 32.5642 103.33 32.4409 103.382 32.3075C103.434 32.1736 103.472 32.035 103.496 31.8936C103.521 31.7596 103.535 31.6238 103.538 31.4876C103.538 31.3582 103.538 31.247 103.538 31.1513C103.538 31.0556 103.538 30.9314 103.538 30.7918C103.535 30.6486 103.521 30.5059 103.496 30.365C103.473 30.2213 103.437 30.0801 103.388 29.9434C103.338 29.8096 103.264 29.6861 103.17 29.5787C103.082 29.4786 102.974 29.3984 102.852 29.3433C102.731 29.286 102.603 29.2426 102.472 29.214C102.341 29.1842 102.208 29.1643 102.074 29.1545C101.944 29.1545 101.815 29.1545 101.711 29.1545C101.608 29.1545 101.476 29.1545 101.347 29.1545C101.214 29.1642 101.081 29.184 100.951 29.214C100.819 29.2422 100.69 29.2856 100.568 29.3433C100.447 29.3978 100.339 29.4781 100.253 29.5787C100.158 29.6854 100.084 29.8092 100.035 29.9434C99.9838 30.0797 99.9466 30.221 99.9241 30.365C99.8991 30.5059 99.8853 30.6486 99.8828 30.7918C99.8828 30.9314 99.8828 31.0504 99.8828 31.1513C99.8828 31.2522 99.8802 31.3582 99.8828 31.4876Z" fill="#1F5036"/>
<path fill-rule="evenodd" clip-rule="evenodd" d="M107.363 33.4893C107.072 33.4982 106.784 33.4389 106.52 33.316C106.313 33.2136 106.129 33.0701 105.979 32.8944C105.793 32.6792 105.67 32.4171 105.622 32.1365C105.573 31.8251 105.55 31.5102 105.553 31.195C105.553 31.0346 105.553 30.8691 105.566 30.7009C105.574 30.5321 105.596 30.3642 105.633 30.1992C105.667 30.0342 105.72 29.8736 105.791 29.7206C105.864 29.5647 105.963 29.4229 106.085 29.3016C106.247 29.1475 106.436 29.0239 106.642 28.9369C106.93 28.8201 107.241 28.7655 107.552 28.7765H109.153V29.1956H107.511C107.186 29.1762 106.864 29.2674 106.598 29.4542C106.373 29.627 106.214 29.8717 106.148 30.1474C106.127 30.2324 106.114 30.3189 106.109 30.4061C106.109 30.507 106.091 30.6104 106.083 30.7165C106.075 30.8225 106.067 30.926 106.065 31.0243C106.062 31.1226 106.065 31.2027 106.065 31.2596C106.065 31.3166 106.065 31.4252 106.065 31.5183C106.065 31.6114 106.065 31.7226 106.091 31.8261C106.101 31.9261 106.118 32.0254 106.14 32.1236C106.156 32.2063 106.181 32.2871 106.215 32.3641C106.278 32.5074 106.373 32.6347 106.492 32.7366C106.598 32.8287 106.72 32.9014 106.851 32.9513C106.977 32.9977 107.108 33.029 107.242 33.0444C107.362 33.0583 107.483 33.0652 107.604 33.0651H109.257V33.4841L107.363 33.4893Z" fill="#1F5036"/>
<path fill-rule="evenodd" clip-rule="evenodd" d="M112.185 33.4896V29.1959H110.405V28.7769H114.425V29.1959H112.648V33.4896H112.185Z" fill="#1F5036"/>
<path fill-rule="evenodd" clip-rule="evenodd" d="M119.241 33.4893V29.3198C119.241 29.2965 119.225 29.2836 119.197 29.2836C119.184 29.2857 119.172 29.2921 119.163 29.3017C119.139 29.3286 119.117 29.3581 119.098 29.3896L116.696 33.2048C116.637 33.3029 116.563 33.3903 116.476 33.4635C116.392 33.5194 116.292 33.5474 116.191 33.5436C116.132 33.547 116.073 33.5371 116.018 33.5148C115.963 33.4924 115.913 33.4581 115.873 33.4143C115.795 33.3113 115.755 33.184 115.762 33.0548V28.7766H116.225V32.8763C116.225 32.8996 116.225 32.9229 116.225 32.9513C116.225 32.9573 116.227 32.9632 116.229 32.9686C116.232 32.974 116.236 32.9788 116.24 32.9827C116.245 32.9866 116.25 32.9895 116.256 32.9912C116.262 32.9929 116.268 32.9934 116.274 32.9927C116.297 32.9927 116.331 32.9539 116.372 32.8763L118.798 28.9965C118.846 28.9091 118.917 28.8364 119.003 28.7863C119.089 28.7362 119.188 28.7105 119.287 28.7119C119.369 28.7057 119.451 28.7286 119.517 28.7766C119.57 28.8187 119.612 28.8728 119.639 28.9344C119.665 28.9899 119.682 29.0493 119.688 29.1103C119.688 29.1698 119.688 29.2189 119.688 29.2525V33.4764L119.241 33.4893Z" fill="#1F5036"/>
<path fill-rule="evenodd" clip-rule="evenodd" d="M121.569 33.4894V28.7767H122.032V33.4894H121.569ZM124.541 33.4894L122.557 31.6219C122.458 31.5345 122.376 31.4292 122.316 31.3115C122.278 31.2306 122.257 31.1425 122.254 31.0529C122.257 30.9294 122.301 30.8104 122.378 30.714C122.449 30.6143 122.53 30.5217 122.619 30.4373L124.414 28.7664H125.045L122.947 30.7503C122.916 30.7787 122.877 30.8227 122.826 30.8796C122.78 30.9258 122.753 30.9877 122.751 31.0529C122.755 31.1021 122.771 31.1495 122.8 31.19C122.827 31.233 122.859 31.2729 122.896 31.309L125.198 33.4791L124.541 33.4894Z" fill="#1F5036"/>
<path fill-rule="evenodd" clip-rule="evenodd" d="M130.001 33.4893V29.3198C130.001 29.2965 129.988 29.2836 129.957 29.2836C129.945 29.2867 129.934 29.2929 129.926 29.3017C129.9 29.3283 129.877 29.3578 129.859 29.3896L127.458 33.2048C127.399 33.303 127.324 33.3905 127.236 33.4635C127.152 33.52 127.052 33.5482 126.951 33.5436C126.892 33.547 126.833 33.5371 126.779 33.5147C126.724 33.4923 126.675 33.458 126.636 33.4143C126.557 33.3113 126.518 33.184 126.524 33.0548V28.7766H127V32.8763C127 32.8996 127 32.9229 127 32.9513C127.001 32.9573 127.002 32.9632 127.005 32.9686C127.008 32.974 127.011 32.9788 127.016 32.9827C127.021 32.9866 127.026 32.9895 127.032 32.9912C127.038 32.9929 127.044 32.9934 127.05 32.9927C127.073 32.9927 127.104 32.9539 127.145 32.8763L129.574 28.9965C129.622 28.9089 129.693 28.8361 129.779 28.7859C129.865 28.7358 129.963 28.7102 130.063 28.7119C130.145 28.7057 130.226 28.7286 130.293 28.7766C130.345 28.8194 130.387 28.8733 130.415 28.9344C130.44 28.9901 130.455 29.0495 130.461 29.1103C130.464 29.1576 130.464 29.2052 130.461 29.2525V33.4764L130.001 33.4893Z" fill="#1F5036"/>
</svg>
