<?xml version="1.0" encoding="UTF-8"?><!DOCTYPE svg PUBLIC "-//W3C//DTD SVG 1.1//EN" "http://www.w3.org/Graphics/SVG/1.1/DTD/svg11.dtd"><svg xmlns="http://www.w3.org/2000/svg" xmlns:xlink="http://www.w3.org/1999/xlink"><defs>
<clipPath id="clip0">
<rect width="40" height="36"/>
</clipPath>

<clipPath id="clip0">
<rect width="36" height="36"/>
</clipPath>

<clipPath id="clip0">
<rect width="28" height="36"/>
</clipPath>
</defs><symbol id="icon-arrow-prev" viewBox="0 0 21 12">
<path d="M2 6L7 1M2 6L7 11M2 6L20 6" stroke-width="2" stroke-linecap="round"/>
</symbol><symbol id="icon-arrow" viewBox="0 0 21 12">
<path d="M19 6L14 11M19 6L14 1M19 6H1" stroke-width="2" stroke-linecap="round"/>
</symbol><symbol id="icon-conf" viewBox="0 0 26 34">
<path d="M23.6583 14.8169H23.1568V10.387C23.1568 4.66225 18.4917 0 12.7457 0C7.00825 0 2.33608 4.65517 2.33608 10.387C2.33608 10.9154 2.75967 11.3376 3.2895 11.3376C3.41467 11.3383 3.53876 11.3143 3.65459 11.2668C3.77041 11.2193 3.87569 11.1494 3.96433 11.061C4.05298 10.9726 4.12324 10.8676 4.17105 10.7519C4.21887 10.6362 4.24329 10.5122 4.24292 10.387C4.24292 5.71058 8.05375 1.90117 12.7472 1.90117C17.4335 1.90117 21.2514 5.7035 21.2514 10.387V14.8169H1.84167C1.35396 14.8169 0.88617 15.0104 0.540912 15.3548C0.195654 15.6993 0.00112547 16.1666 0 16.6543L0 28.492C0.0037495 29.9536 0.586814 31.3541 1.6214 32.3866C2.65599 33.4191 4.05771 33.9993 5.51933 34H19.9807C21.442 33.9993 22.8436 33.4193 23.8781 32.3871C24.9126 31.3549 25.4959 29.9548 25.5 28.4934V16.6558C25.4992 16.1678 25.3049 15.7001 24.9596 15.3553C24.6143 15.0106 24.1463 14.8169 23.6583 14.8169ZM23.5946 28.4934C23.5927 29.4505 23.2111 30.3678 22.5335 31.0438C21.8559 31.7197 20.9378 32.0992 19.9807 32.0988H5.52642C4.5693 32.0992 3.65116 31.7197 2.97358 31.0438C2.296 30.3678 1.91438 29.4505 1.9125 28.4934V16.7181H23.5946V28.4934Z"/>
<path d="M12.7529 28.1045C13.6968 28.1049 14.6024 27.7307 15.2706 27.064C15.9389 26.3973 16.3153 25.4927 16.3172 24.5487C16.3172 23.6034 15.9417 22.6968 15.2732 22.0283C14.6048 21.3599 13.6982 20.9844 12.7529 20.9844C11.8076 20.9844 10.9009 21.3599 10.2325 22.0283C9.56406 22.6968 9.18854 23.6034 9.18854 24.5487C9.19041 25.4927 9.56681 26.3973 10.2351 27.064C10.9034 27.7307 11.8089 28.1049 12.7529 28.1045ZM12.7529 22.887C13.6709 22.887 14.4118 23.6335 14.4118 24.5416C14.4127 24.9816 14.2389 25.4039 13.9284 25.7157C13.618 26.0275 13.1964 26.2031 12.7564 26.2041C12.3164 26.205 11.8941 26.0311 11.5823 25.7207C11.2706 25.4103 11.0949 24.9887 11.094 24.5487C11.0954 24.1089 11.2706 23.6876 11.5813 23.3763C11.892 23.0651 12.3131 22.8892 12.7529 22.887Z"/>
</symbol><symbol id="icon-feauters1" viewBox="0 0 53 53">
<path d="M50.5156 0.828125H2.48438C1.11228 0.828125 0 1.9404 0 3.3125V39.75C0 40.2073 0.370793 40.5781 0.828125 40.5781H19.6928L18.3678 47.2031H16.5625C16.1052 47.2031 15.7344 47.5739 15.7344 48.0312V50.5156H14.0781V52.1719H38.9219V50.5156H37.2656V48.0312C37.2656 47.5739 36.8948 47.2031 36.4375 47.2031H34.6308L33.3058 40.5781H52.1719C52.6292 40.5781 53 40.2073 53 39.75V3.3125C53 1.9404 51.8877 0.828125 50.5156 0.828125ZM35.6094 48.8594V50.5156H17.3906V48.8594H35.6094ZM20.0572 47.2031L21.3809 40.5781H31.6178L32.9428 47.2031H20.0572ZM51.3438 38.9219H1.65625V31.4688H51.3438V38.9219ZM10.7656 20.7031C10.983 20.7027 11.1914 20.6164 11.3453 20.463L14.9236 16.9236L21.7739 23.773C22.0973 24.0963 22.6215 24.0963 22.9449 23.773L25.6719 21.046L30.0551 25.4292C30.2104 25.5845 30.421 25.6719 30.6406 25.6719C30.8608 25.6723 31.0721 25.5849 31.2278 25.4292L38.8548 17.8022L41.5876 21.2207C41.7449 21.4171 41.9828 21.5314 42.2344 21.5312H47.2031V29.8125H5.79688V20.7031H10.7656ZM5.79688 19.0469V6.625H47.2031V19.875H42.6319L39.5686 16.0441C39.4216 15.8603 39.2033 15.7476 38.9683 15.7344C38.7332 15.7246 38.5045 15.8124 38.3364 15.977L30.6406 23.6728L26.2574 19.2895C25.934 18.9662 25.4098 18.9662 25.0864 19.2895L22.3594 22.0165L15.5116 15.1663C15.1885 14.8447 14.6662 14.8447 14.3431 15.1663L10.4253 19.0469H5.79688ZM51.3438 29.8125H48.8594V5.79688C48.8594 5.33954 48.4886 4.96875 48.0312 4.96875H4.96875C4.51142 4.96875 4.14062 5.33954 4.14062 5.79688V29.8125H1.65625V3.3125C1.65625 2.85517 2.02704 2.48438 2.48438 2.48438H50.5156C50.973 2.48438 51.3438 2.85517 51.3438 3.3125V29.8125Z"/>
<path d="M26.5 32.2969C25.1279 32.2969 24.0156 33.4091 24.0156 34.7812C24.0156 36.1534 25.1279 37.2656 26.5 37.2656C27.8721 37.2656 28.9844 36.1534 28.9844 34.7812C28.9844 33.4091 27.8721 32.2969 26.5 32.2969ZM26.5 35.6094C26.0427 35.6094 25.6719 35.2386 25.6719 34.7812C25.6719 34.3239 26.0427 33.9531 26.5 33.9531C26.9573 33.9531 27.3281 34.3239 27.3281 34.7812C27.3281 35.2386 26.9573 35.6094 26.5 35.6094Z"/>
<path d="M9.10938 9.10938C8.65204 9.10938 8.28125 9.48017 8.28125 9.9375V13.25H9.9375V10.7656H12.4219V9.10938H9.10938Z"/>
</symbol><symbol id="icon-feauters2" viewBox="0 0 40 51">
<path d="M37.4531 3.1875H30.2812V0.796875C30.2812 0.356801 29.9244 0 29.4844 0H10.3594C9.9193 0 9.5625 0.356801 9.5625 0.796875V3.1875H2.39062C1.0703 3.1875 0 4.2578 0 5.57812V48.6094C0 49.9297 1.0703 51 2.39062 51H37.4531C38.7734 51 39.8438 49.9297 39.8438 48.6094V5.57812C39.8438 4.2578 38.7734 3.1875 37.4531 3.1875ZM26.2969 7.96875V6.375H11.1562V1.59375H28.6875V7.17188C28.6875 7.61195 29.0443 7.96875 29.4844 7.96875H31.0781V9.5625H8.76562V7.96875H26.2969ZM31.875 11.1562C32.3151 11.1562 32.6719 10.7994 32.6719 10.3594H34.2656V45.4219H5.57812V10.3594H7.17188C7.17188 10.7994 7.52868 11.1562 7.96875 11.1562H31.875ZM38.25 48.6094C38.25 49.0494 37.8932 49.4062 37.4531 49.4062H2.39062C1.95055 49.4062 1.59375 49.0494 1.59375 48.6094V5.57812C1.59375 5.13805 1.95055 4.78125 2.39062 4.78125H9.5625V6.375H7.96875C7.52868 6.375 7.17188 6.7318 7.17188 7.17188V8.76562H4.78125C4.34118 8.76562 3.98438 9.12243 3.98438 9.5625V46.2188C3.98438 46.6588 4.34118 47.0156 4.78125 47.0156H35.0625C35.5026 47.0156 35.8594 46.6588 35.8594 46.2188V9.5625C35.8594 9.12243 35.5026 8.76562 35.0625 8.76562H32.6719V7.17188C32.6719 6.7318 32.3151 6.375 31.875 6.375H30.2812V4.78125H37.4531C37.8932 4.78125 38.25 5.13805 38.25 5.57812V48.6094Z"/>
<path d="M14.3438 36.6562H9.5625C9.12243 36.6562 8.76562 37.0131 8.76562 37.4531V42.2344C8.76562 42.6744 9.12243 43.0312 9.5625 43.0312H14.3438C14.7838 43.0312 15.1406 42.6744 15.1406 42.2344V37.4531C15.1406 37.0131 14.7838 36.6562 14.3438 36.6562ZM13.5469 41.4375H10.3594V38.25H13.5469V41.4375Z"/>
<path d="M18.3281 37.4531H16.7344V39.0469H18.3281V37.4531Z"/>
<path d="M21.5156 37.4531H19.9219V39.0469H21.5156V37.4531Z"/>
<path d="M31.0781 40.6406H16.7344V42.2344H31.0781V40.6406Z"/>
<path d="M28.6875 19.9219H23.9062V15.1406C23.9062 14.7006 23.5494 14.3438 23.1094 14.3438H16.7344C16.2943 14.3438 15.9375 14.7006 15.9375 15.1406V19.9219H11.1562C10.7162 19.9219 10.3594 20.2787 10.3594 20.7188V27.0938C10.3594 27.5338 10.7162 27.8906 11.1562 27.8906H15.9375V32.6719C15.9375 33.1119 16.2943 33.4688 16.7344 33.4688H23.1094C23.5494 33.4688 23.9062 33.1119 23.9062 32.6719V27.8906H28.6875C29.1276 27.8906 29.4844 27.5338 29.4844 27.0938V20.7188C29.4844 20.2787 29.1276 19.9219 28.6875 19.9219ZM27.8906 26.2969H23.1094C22.6693 26.2969 22.3125 26.6537 22.3125 27.0938V31.875H17.5312V27.0938C17.5312 26.6537 17.1744 26.2969 16.7344 26.2969H11.9531V21.5156H16.7344C17.1744 21.5156 17.5312 21.1588 17.5312 20.7188V15.9375H22.3125V20.7188C22.3125 21.1588 22.6693 21.5156 23.1094 21.5156H27.8906V26.2969Z"/>
</symbol><symbol id="icon-feauters3" viewBox="0 0 55 55">
<path d="M54.1403 11.1721H40.3905V6.01592H42.1092C42.5838 6.01592 42.9686 5.63114 42.9686 5.15656V2.57847C42.9686 1.62919 42.1991 0.859741 41.2498 0.859741H13.7502C12.8009 0.859741 12.0315 1.62919 12.0315 2.57847V5.15656C12.0315 5.63114 12.4163 6.01592 12.8909 6.01592H14.6096V11.1721H0.859766C0.385183 11.1721 0.000402826 11.5569 0.000402826 12.0315V28.3594C-0.000134275 28.3831 -0.000134275 28.4068 0.000402826 28.4306C0.0200608 29.3601 0.789621 30.0977 1.71913 30.0781H2.57849V52.4061C2.57849 52.6336 2.66883 52.8518 2.82943 53.0128L3.7034 53.8885C3.86474 54.0498 4.08367 54.1405 4.31183 54.1403H50.696C50.9241 54.1405 51.143 54.0498 51.3044 53.8885L52.1698 53.0214C52.3309 52.8602 52.4216 52.6417 52.4216 52.4138V30.0781H53.2809C53.3047 30.0786 53.3284 30.0786 53.3521 30.0781C54.2818 30.0584 55.0193 29.2889 54.9997 28.3594V12.0315C54.9995 11.5568 54.6149 11.1721 54.1403 11.1721ZM13.7502 4.29719V2.57847H41.2498V4.29719H13.7502ZM38.6717 6.01592V11.1721H16.3283V6.01592H38.6717ZM53.2808 14.6096H38.6716V16.3283H53.2808V28.3594H44.6873V30.0781H46.406V43.8279H48.1247V30.0781H50.7028V52.058L50.3402 52.4215H4.66836L4.29711 52.0503V49.8434H42.9685V48.1247H4.29711V30.0781H6.8752V43.8279H8.59393V30.0781H10.3127V28.3594H1.71902V12.8908H53.2808V14.6096Z"/>
<path d="M4.29718 14.6095C3.82249 14.6095 3.43782 14.9942 3.43782 15.4689V18.9063H5.15655V16.3283H7.73464V14.6095H4.29718Z"/>
<path d="M27.5 17.1876C19.9062 17.1876 13.7502 23.3437 13.7502 30.9375C13.7502 38.5312 19.9062 44.6873 27.5 44.6873C35.0901 44.6782 41.2408 38.5276 41.2498 30.9375C41.2498 23.3436 35.0938 17.1876 27.5 17.1876ZM27.5 42.9685C20.8554 42.9685 15.4689 37.582 15.4689 30.9375C15.4689 24.2929 20.8554 18.9064 27.5 18.9064C34.1416 18.9135 39.524 24.2959 39.5311 30.9375C39.5311 37.5819 34.1445 42.9685 27.5 42.9685Z"/>
<path d="M35.2343 27.5H30.9374V23.2032C30.9374 22.7286 30.5527 22.3438 30.0781 22.3438H24.9219C24.4473 22.3438 24.0625 22.7286 24.0625 23.2032V27.5H19.7657C19.2911 27.5 18.9064 27.8848 18.9064 28.3594V33.5155C18.9064 33.9901 19.2911 34.3749 19.7657 34.3749H24.0625V38.6717C24.0625 39.1463 24.4473 39.5311 24.9219 39.5311H30.0781C30.5527 39.5311 30.9374 39.1463 30.9374 38.6717V34.3749H35.2343C35.7088 34.3749 36.0936 33.9901 36.0936 33.5155V28.3594C36.0936 27.8847 35.7088 27.5 35.2343 27.5ZM34.3749 32.6562H30.0781C29.6035 32.6562 29.2187 33.041 29.2187 33.5155V37.8124H25.7813V33.5155C25.7813 33.041 25.3965 32.6562 24.9219 32.6562H20.6251V29.2187H24.9219C25.3965 29.2187 25.7813 28.8339 25.7813 28.3594V24.0625H29.2187V28.3594C29.2187 28.8339 29.6035 29.2187 30.0781 29.2187H34.3749V32.6562Z"/>
</symbol><symbol id="icon-feauters4" viewBox="0 0 53 53">
<path d="M52.1494 19.0644C51.9453 17.2703 50.5524 15.8341 48.7627 15.5717C48.2789 15.5003 47.6661 15.4267 46.9378 15.3521C46.854 13.0749 46.7387 10.7979 46.5906 8.54059C46.5625 8.11273 46.1924 7.7888 45.7649 7.81675C45.3369 7.84481 45.0129 8.21449 45.041 8.64236C45.2807 12.2926 45.4358 15.9943 45.5048 19.6642C45.2482 19.5977 44.9824 19.5542 44.7096 19.5366C39.0689 19.1717 33.3501 19.0004 27.7096 19.0256C26.3122 19.0314 25.1364 17.9874 24.9843 16.5941L24.9783 16.5383C24.9584 16.3547 24.9384 16.1702 24.9176 15.9868C24.7034 14.0939 23.2397 12.5572 21.358 12.2498C17.0627 11.5481 12.5862 11.4371 7.756 11.9151C7.86781 9.7336 8.01057 7.52564 8.18532 5.33528C8.30944 3.78149 9.52802 2.53371 11.0825 2.36828C21.3079 1.28076 31.6778 1.28076 41.9042 2.36828C43.4589 2.53381 44.6774 3.78159 44.8017 5.33745L44.8194 5.56106C44.8553 5.98841 45.2317 6.30551 45.6582 6.26969C46.0855 6.23376 46.4027 5.85818 46.3669 5.43093L46.3496 5.21157C46.1659 2.91385 44.3654 1.06874 42.0684 0.824215C31.733 -0.274901 21.2528 -0.274901 10.9184 0.824215C8.62146 1.06864 6.82118 2.91375 6.63732 5.21167C6.4545 7.50194 6.30625 9.81156 6.19216 12.0901C5.64887 12.157 5.10257 12.2286 4.54996 12.3099C2.62742 12.5925 1.13315 14.1344 0.916058 16.0595C-0.296209 26.7915 -0.305319 37.6737 0.888935 48.4033C1.11503 50.4441 2.76272 52.044 4.80587 52.2078C5.26562 52.2453 5.72548 52.2806 6.1843 52.3139C6.61082 52.3447 6.98381 52.0234 7.01487 51.5958C7.04593 51.1681 6.72438 50.7961 6.29662 50.7651C5.84236 50.7322 5.38706 50.6971 4.93072 50.6599C3.62725 50.5554 2.57648 49.5345 2.43217 48.2318C1.25065 37.6166 1.25965 26.8509 2.45898 16.2336C2.59719 15.0081 3.54971 14.0264 4.77585 13.8463C10.6951 12.9749 16.0374 12.954 21.1075 13.7823C22.3059 13.9782 23.2381 14.9565 23.3745 16.1615C23.395 16.3425 23.4146 16.5243 23.4342 16.7053L23.4403 16.7618C23.678 18.9416 25.5047 20.5786 27.6941 20.5784H27.717C33.321 20.553 39.004 20.7235 44.6093 21.0862C45.979 21.1746 47.075 22.277 47.1587 23.6507C47.5516 30.0862 47.5062 36.6072 47.0239 43.0326C47.0236 43.0363 47.0233 43.0399 47.0231 43.0436C46.8936 44.7783 46.7303 46.5306 46.5378 48.253C46.3949 49.5434 45.3455 50.5555 44.0421 50.6598C32.539 51.5856 20.8791 51.6922 9.38609 50.9766C8.95709 50.9488 8.58958 51.2754 8.56297 51.7032C8.53626 52.1312 8.86164 52.4997 9.28971 52.5264C14.3273 52.8401 19.3965 52.9969 24.4709 52.9969C25.4935 52.9969 29.4848 52.9998 30.4603 52.9998C36.468 52.9998 42.5311 52.7565 48.5234 52.2742C50.4268 52.1206 51.9617 50.6293 52.1732 48.7282C53.2685 38.8886 53.2604 28.9083 52.1494 19.0644ZM50.63 48.5568C50.5006 49.7202 49.5621 50.6327 48.3987 50.7266C47.9265 50.7646 47.4537 50.8008 46.9805 50.8358C47.5788 50.1861 47.9787 49.3514 48.0811 48.4248C48.2762 46.6813 48.4414 44.9064 48.5725 43.1496C48.5727 43.1463 48.5729 43.1429 48.5731 43.1395C49.0599 36.6473 49.1056 30.0586 48.7088 23.5561C48.6318 22.2928 48.0074 21.1763 47.0709 20.441C47.0529 19.2698 47.0258 18.095 46.9902 16.9188C47.6018 16.9834 48.1213 17.0469 48.5366 17.1081C49.6307 17.2684 50.4818 18.1451 50.6062 19.2393C51.7045 28.9678 51.7124 38.8315 50.63 48.5568Z"/>
<path d="M39.5551 7.94999C39.0446 7.92804 38.5184 7.90931 37.989 7.8944C37.9739 7.36301 37.9552 6.8368 37.9334 6.32818C37.9052 5.67484 37.44 5.13061 36.8022 5.00473C35.5491 4.75751 34.2787 4.75751 33.0258 5.00473C32.3879 5.13061 31.9228 5.67484 31.8945 6.32829C31.8726 6.83876 31.8538 7.36498 31.839 7.8944C31.3095 7.90941 30.7833 7.92804 30.2728 7.94999C29.6194 7.97815 29.0752 8.44328 28.9492 9.0813C28.702 10.3342 28.702 11.6047 28.9492 12.8576C29.0752 13.4955 29.6195 13.9606 30.2728 13.9888C30.7833 14.0107 31.3095 14.0294 31.839 14.0444C31.854 14.5738 31.8726 15.1 31.8945 15.6106C31.9227 16.2639 32.3879 16.8081 33.0258 16.934C33.6523 17.0576 34.2831 17.1194 34.9139 17.1194C35.5447 17.1194 36.1757 17.0576 36.8022 16.934C37.4399 16.8081 37.905 16.2638 37.9333 15.6105C37.9551 15.1019 37.9739 14.5756 37.9889 14.0443C38.5183 14.0292 39.0445 14.0106 39.555 13.9887C40.2085 13.9605 40.7527 13.4954 40.8787 12.8573C41.1259 11.6045 41.1259 10.334 40.8787 9.0811C40.7529 8.44328 40.2086 7.97815 39.5551 7.94999ZM39.3772 12.442C38.8676 12.4633 38.3432 12.4813 37.8162 12.4956C37.0651 12.516 36.4608 13.1204 36.4405 13.8715C36.4261 14.4003 36.4081 14.9248 36.3868 15.4324C35.4088 15.6112 34.4192 15.6112 33.4414 15.4324C33.4201 14.9229 33.4021 14.3983 33.3878 13.8716C33.3675 13.1205 32.7631 12.5161 32.0118 12.4956C31.485 12.4813 30.9604 12.4633 30.451 12.442C30.2722 11.4642 30.2722 10.4744 30.451 9.49675C30.9605 9.47542 31.485 9.45741 32.0118 9.44312C32.7631 9.42273 33.3675 8.81835 33.3878 8.06718C33.4021 7.54035 33.4201 7.01579 33.4414 6.50645C34.4193 6.32766 35.4089 6.32766 36.3868 6.50645C36.408 7.01413 36.4261 7.53859 36.4405 8.06728C36.4608 8.81845 37.0652 9.42283 37.8163 9.44322C38.3432 9.45751 38.8676 9.47552 39.3772 9.49685C39.5558 10.4745 39.5558 11.4643 39.3772 12.442Z"/>
<path d="M11.9543 6.68206C11.5254 6.68206 11.1779 7.0297 11.1779 7.45849C11.1779 7.88729 11.5254 8.23493 11.9543 8.23493H24.7588C25.1877 8.23493 25.5352 7.88729 25.5352 7.45849C25.5352 7.0297 25.1877 6.68206 24.7588 6.68206H11.9543Z"/>
<path d="M18.0525 34.0288C19.6632 33.948 20.9858 32.6804 21.1291 31.0802C21.2752 29.4513 21.2752 27.7993 21.1291 26.1703C20.9858 24.57 19.6632 23.3025 18.0525 23.2216C14.8063 23.0589 11.5141 23.0589 8.26779 23.2216C6.65727 23.3024 5.33454 24.57 5.19116 26.1702C5.04509 27.7992 5.04509 29.4512 5.19116 31.0801C5.33454 32.6803 6.65727 33.948 8.26779 34.0287C9.89095 34.1102 11.5256 34.1509 13.1601 34.1509C14.7947 34.1509 16.4294 34.1103 18.0525 34.0288ZM6.73781 30.9416C6.60012 29.4046 6.60012 27.846 6.73781 26.3089C6.81255 25.4754 7.50368 24.8149 8.34564 24.7726C9.94302 24.6925 11.5516 24.6524 13.1601 24.6524C14.7687 24.6524 16.3772 24.6925 17.9746 24.7726C18.8166 24.8149 19.5078 25.4754 19.5825 26.3089C19.7201 27.846 19.7201 29.4046 19.5825 30.9417C19.5077 31.7753 18.8166 32.4358 17.9746 32.4779C14.78 32.6382 11.5404 32.6382 8.34564 32.4779C7.50379 32.4357 6.81255 31.7752 6.73781 30.9416Z"/>
<path d="M8.9179 28.0221H17.4024C17.8313 28.0221 18.1789 27.6745 18.1789 27.2457C18.1789 26.8169 17.8313 26.4692 17.4024 26.4692H8.9179C8.489 26.4692 8.14147 26.8169 8.14147 27.2457C8.14147 27.6745 8.489 28.0221 8.9179 28.0221Z"/>
<path d="M14.962 30.0049C14.962 29.5761 14.6145 29.2285 14.1856 29.2285H8.9179C8.489 29.2285 8.14147 29.5761 8.14147 30.0049C8.14147 30.4337 8.489 30.7813 8.9179 30.7813H14.1856C14.6144 30.7813 14.962 30.4337 14.962 30.0049Z"/>
</symbol><symbol id="icon-inner1" viewBox="0 0 56 55">
<path d="M55.0667 0H7.46667V1.83333H23.3333V3.66667H1.86667V1.83333H5.6V0H0.933333C0.685798 0 0.448401 0.0965771 0.273367 0.268485C0.098333 0.440394 0 0.673552 0 0.916667V4.58333C0 4.82645 0.098333 5.05961 0.273367 5.23151C0.448401 5.40342 0.685798 5.5 0.933333 5.5H13.3817C13.1736 5.92953 13.066 6.39933 13.0667 6.875V8.25C13.0666 8.35785 13.0858 8.46486 13.1236 8.56614L9.17572 11.8891C8.62195 12.3542 8.24271 12.9881 8.09848 13.6896C7.95425 14.3912 8.05333 15.1199 8.37993 15.7597L8.98333 16.9444L7.93333 17.5395C7.71897 17.6611 7.56256 17.8613 7.49849 18.0961C7.43443 18.3309 7.46797 18.5811 7.59173 18.7917L8.99173 21.1733C9.06422 21.2965 9.16487 21.4014 9.28573 21.4799L11.0275 22.6092C11.1721 22.703 11.3405 22.7554 11.5137 22.7605C11.6869 22.7656 11.8582 22.7232 12.0083 22.6381L12.9416 24.2259L14.5582 23.3092L13.6249 21.7214C13.775 21.6363 13.898 21.5119 13.9802 21.362C14.0623 21.2121 14.1003 21.0427 14.0899 20.8727L13.965 18.8266C13.9563 18.6846 13.914 18.5465 13.8416 18.4233L12.4416 16.0417C12.3178 15.8311 12.1139 15.6775 11.8748 15.6146C11.6358 15.5517 11.381 15.5846 11.1666 15.7062L10.6023 16.0261L10.0497 14.9404C9.90968 14.6662 9.8672 14.3539 9.92901 14.0533C9.99081 13.7526 10.1533 13.4809 10.3907 13.2816L15.2787 9.16667H20.3707L17.0996 12.9148C16.6804 13.3938 16.4149 13.9838 16.3363 14.6106C16.2578 15.2374 16.3697 15.8731 16.6581 16.4376L17.2216 17.5445L16.4808 17.8093C16.3656 17.8505 16.2598 17.9136 16.1694 17.9949C16.0791 18.0762 16.0059 18.1742 15.9541 18.2833C15.9023 18.3924 15.8728 18.5105 15.8675 18.6308C15.8622 18.751 15.881 18.8712 15.9229 18.9843L17.1998 22.4298C17.2494 22.5635 17.3299 22.6841 17.4351 22.7819L18.9506 24.1913C19.0765 24.3084 19.2331 24.3887 19.4028 24.4233C19.5725 24.4579 19.7487 24.4453 19.9116 24.3871L20.8692 26.9712L22.6233 26.3442L21.6657 23.76C21.8285 23.7018 21.9716 23.6002 22.079 23.4667C22.1864 23.3331 22.2538 23.1728 22.2737 23.0038L22.5122 20.9675C22.5288 20.8261 22.5116 20.6829 22.4621 20.5491L21.1853 17.1036C21.1434 16.9905 21.0792 16.8866 20.9964 16.7978C20.9136 16.7091 20.8138 16.6372 20.7027 16.5863C20.5916 16.5354 20.4714 16.5065 20.3489 16.5013C20.2265 16.496 20.1041 16.5145 19.989 16.5557L18.9873 16.9139L18.3276 15.6177C18.2041 15.3758 18.1561 15.1034 18.1898 14.8347C18.2234 14.5661 18.3372 14.3132 18.5169 14.108L22.8293 9.16667H27.0667V18.3333H26.1333C25.8858 18.3333 25.6484 18.4299 25.4734 18.6018C25.2983 18.7737 25.2 19.0069 25.2 19.25V23.8333C25.2 23.9757 25.2337 24.116 25.2986 24.2433L26.2319 26.0766C26.3094 26.2289 26.4286 26.3569 26.576 26.4464C26.7235 26.5359 26.8933 26.5833 27.0667 26.5833V29.3333H28.9333V26.5833C29.1067 26.5833 29.2765 26.5359 29.424 26.4464C29.5714 26.3569 29.6906 26.2289 29.7681 26.0766L30.7014 24.2433C30.7663 24.116 30.8 23.9757 30.8 23.8333V19.25C30.8 19.0069 30.7017 18.7737 30.5266 18.6018C30.3516 18.4299 30.1142 18.3333 29.8667 18.3333H28.9333V9.16667H33.1707L37.4831 14.108C37.6628 14.3132 37.7766 14.5661 37.8102 14.8347C37.8439 15.1034 37.7959 15.3758 37.6724 15.6177L37.0127 16.9134L36.011 16.5552C35.8959 16.5141 35.7735 16.4956 35.6511 16.5008C35.5286 16.5061 35.4084 16.535 35.2973 16.5858C35.1862 16.6367 35.0864 16.7086 35.0036 16.7974C34.9208 16.8861 34.8566 16.99 34.8147 17.1032L33.5379 20.5487C33.4884 20.6824 33.4712 20.8256 33.4878 20.967L33.7263 23.0033C33.7462 23.1723 33.8136 23.3326 33.921 23.4662C34.0284 23.5998 34.1715 23.7013 34.3343 23.7595L33.3767 26.3437L35.1308 26.9707L36.0884 24.3867C36.2513 24.4449 36.4275 24.4574 36.5972 24.4228C36.7669 24.3882 36.9235 24.3079 37.0494 24.1908L38.5649 22.7815C38.6701 22.6836 38.7506 22.5631 38.8002 22.4293L40.0771 18.9838C40.119 18.8707 40.1378 18.7506 40.1325 18.6303C40.1272 18.51 40.0977 18.392 40.0459 18.2829C39.9941 18.1738 39.9209 18.0757 39.8306 17.9944C39.7402 17.9131 39.6344 17.85 39.5192 17.8089L38.7784 17.5441L39.3419 16.4371C39.6303 15.8726 39.7422 15.237 39.6637 14.6101C39.5851 13.9833 39.3196 13.3933 38.9004 12.9143L35.6293 9.16667H40.7213L45.6097 13.2815C45.847 13.4809 46.0095 13.7525 46.0713 14.0532C46.1331 14.3539 46.0907 14.6662 45.9507 14.9404L45.398 16.0261L44.8337 15.7062C44.7276 15.6459 44.6104 15.6069 44.4888 15.5911C44.3673 15.5754 44.2438 15.5833 44.1254 15.6145C44.007 15.6456 43.8959 15.6994 43.7987 15.7727C43.7014 15.846 43.6198 15.9374 43.5585 16.0417L42.1586 18.4233C42.0861 18.5465 42.0438 18.6846 42.0351 18.8266L41.91 20.8727C41.8997 21.0427 41.9377 21.2121 42.0198 21.362C42.102 21.5119 42.225 21.6363 42.3751 21.7214L41.4417 23.3092L43.0584 24.2259L43.9917 22.6381C44.1418 22.7232 44.3131 22.7656 44.4863 22.7605C44.6595 22.7554 44.8279 22.703 44.9725 22.6092L46.7143 21.4799C46.8351 21.4014 46.9358 21.2965 47.0083 21.1733L48.4083 18.7917C48.532 18.5811 48.5656 18.3309 48.5015 18.0961C48.4374 17.8613 48.281 17.6611 48.0667 17.5395L47.0167 16.9444L47.6195 15.7603C47.9461 15.1205 48.0452 14.3917 47.9009 13.6901C47.7567 12.9886 47.3774 12.3547 46.8236 11.8895L42.8758 8.56659C42.9139 8.46523 42.9333 8.35804 42.9333 8.25V6.875C42.934 6.39933 42.8264 5.92953 42.6183 5.5H55.0667C55.3142 5.5 55.5516 5.40342 55.7266 5.23151C55.9017 5.05961 56 4.82645 56 4.58333V0.916667C56 0.673552 55.9017 0.440394 55.7266 0.268485C55.5516 0.0965771 55.3142 0 55.0667 0ZM11.2916 17.7522L12.1147 19.1525L12.192 20.417L11.5745 20.7672L10.4981 20.0692L9.67493 18.6688L11.2916 17.7522ZM20.6326 20.972L20.4851 22.2304L19.8152 22.4699L18.8785 21.5991L17.9963 19.2183L19.7504 18.5913L20.6326 20.972ZM28.9333 23.6169L28.3565 24.75H27.6435L27.0667 23.6169V20.1667H28.9333V23.6169ZM37.1215 21.599L36.1847 22.4698L35.5149 22.2303L35.3674 20.9718L36.2496 18.591L38.0037 19.218L37.1215 21.599ZM45.5019 20.0687L44.4255 20.7667L43.808 20.4166L43.8853 19.152L44.7084 17.7517L46.3251 18.6684L45.5019 20.0687ZM23.3333 5.5V7.33333H14.9333V6.875C14.9337 6.51045 15.0814 6.16094 15.3438 5.90316C15.6063 5.64539 15.9622 5.50039 16.3333 5.5H23.3333ZM25.2 7.33333V1.83333H30.8V7.33333H25.2ZM41.0667 6.875V7.33333H32.6667V5.5H39.6667C40.0378 5.50039 40.3937 5.64539 40.6562 5.90316C40.9186 6.16094 41.0663 6.51045 41.0667 6.875ZM54.1333 3.66667H32.6667V1.83333H54.1333V3.66667Z"/>
<path d="M28.9333 3.66667H27.0667V5.5H28.9333V3.66667Z"/>
<path d="M55.0667 31.1667H15.8667C15.8667 30.9236 15.7683 30.6904 15.5933 30.5185C15.4183 30.3466 15.1809 30.25 14.9333 30.25H4.66667C4.41913 30.25 4.18173 30.3466 4.0067 30.5185C3.83167 30.6904 3.73333 30.9236 3.73333 31.1667H0.933333C0.685798 31.1667 0.448401 31.2632 0.273367 31.4352C0.098333 31.6071 0 31.8402 0 32.0833V33.4583C0.000941336 34.3025 0.340205 35.1124 0.944409 35.7128C1.54861 36.3132 2.36918 36.6559 3.22863 36.6667L3.73333 36.7041V45.8333C3.73333 46.0765 3.83167 46.3096 4.0067 46.4815C4.18173 46.6534 4.41913 46.75 4.66667 46.75H14.9333C15.1809 46.75 15.4183 46.6534 15.5933 46.4815C15.7683 46.3096 15.8667 46.0765 15.8667 45.8333V37.6033L17.7333 37.7417V41.25C17.7333 41.4931 17.8317 41.7263 18.0067 41.8982C18.1817 42.0701 18.4191 42.1667 18.6667 42.1667H19.6V49.5H14.4667C13.6006 49.501 12.7703 49.8393 12.1579 50.4408C11.5455 51.0422 11.201 51.8577 11.2 52.7083V54.0833C11.2 54.3265 11.2983 54.5596 11.4734 54.7315C11.6484 54.9034 11.8858 55 12.1333 55H37.3333V53.1667H13.0667V52.7083C13.0671 52.3438 13.2147 51.9943 13.4772 51.7365C13.7396 51.4787 14.0955 51.3337 14.4667 51.3333H41.5333C41.9045 51.3337 42.2604 51.4787 42.5228 51.7365C42.7853 51.9943 42.9329 52.3438 42.9333 52.7083V53.1667H39.2V55H43.8667C44.1142 55 44.3516 54.9034 44.5266 54.7315C44.7017 54.5596 44.8 54.3265 44.8 54.0833V52.7083C44.799 51.8577 44.4545 51.0422 43.8421 50.4408C43.2297 49.8393 42.3994 49.501 41.5333 49.5H36.4V42.1667H37.3333C37.5809 42.1667 37.8183 42.0701 37.9933 41.8982C38.1683 41.7263 38.2667 41.4931 38.2667 41.25V37.7416L52.7714 36.6667C53.6308 36.6559 54.4514 36.3132 55.0556 35.7128C55.6598 35.1124 55.9991 34.3025 56 33.4583V32.0833C56 31.8402 55.9017 31.6071 55.7266 31.4352C55.5516 31.2632 55.3142 31.1667 55.0667 31.1667ZM3.33667 34.8359C3.31333 34.8343 3.29 34.8333 3.26667 34.8333C2.89549 34.8329 2.53962 34.6879 2.27716 34.4302C2.0147 34.1724 1.86707 33.8229 1.86667 33.4583V33H3.73333V34.8653L3.33667 34.8359ZM5.6 44.9167V32.0833H14V41.25H7.46667V43.0833H14V44.9167H5.6ZM34.5333 49.5H21.4667V42.1667H23.3333V43.3125C23.3347 44.4669 23.8022 45.5736 24.6333 46.3899C25.4644 47.2062 26.5913 47.6654 27.7667 47.6667H28.2333C29.4087 47.6654 30.5356 47.2062 31.3667 46.3899C32.1978 45.5736 32.6653 44.4669 32.6667 43.3125V42.1667H34.5333V49.5ZM25.2 42.1667H30.8V43.3125C30.7992 43.9808 30.5286 44.6216 30.0474 45.0942C29.5662 45.5667 28.9138 45.8326 28.2333 45.8333H27.7667C27.0862 45.8326 26.4338 45.5667 25.9526 45.0942C25.4714 44.6216 25.2008 43.9808 25.2 43.3125V42.1667ZM36.4 40.3333H19.6V37.88L27.93 38.4975C27.9533 38.4992 27.9767 38.5 28 38.5C28.0233 38.5 28.0467 38.4992 28.07 38.4975L36.4 37.88V40.3333ZM54.1333 33.4583C54.1329 33.8229 53.9853 34.1724 53.7228 34.4302C53.4604 34.6879 53.1045 34.8329 52.7333 34.8333C52.71 34.8333 52.6867 34.8342 52.6633 34.8359L28 36.664L15.8667 35.7647V33H54.1333V33.4583Z"/>
</symbol><symbol id="icon-inner2" viewBox="0 0 84 55">
<path d="M65.4364 52.1837L63.0334 37.9393C62.7744 36.4045 61.6992 35.1716 60.2269 34.722L53.7455 32.7419C53.6113 31.1376 52.9617 29.6242 51.8806 28.4262C51.0158 27.468 49.9282 26.7703 48.7292 26.3853C48.9344 26.1548 49.1246 25.925 49.2991 25.7003C50.8404 23.7154 51.6656 21.5287 51.8757 20.0365H52.3757C53.6762 20.0365 54.7343 18.9653 54.7343 17.6484V16.4243C54.7343 15.5455 54.246 14.7491 53.5118 14.3359V11.3921C53.5118 10.9473 53.1556 10.5866 52.7163 10.5866C52.2769 10.5866 51.9209 10.9471 51.9209 11.3921V14.6968C51.6111 14.7513 51.2415 14.8454 50.8634 15.0066C50.8246 15.0209 50.787 15.0375 50.7513 15.0573C50.6659 15.0967 50.5804 15.1383 50.4952 15.1852V8.69451C50.4952 6.90132 49.0545 5.44253 47.2835 5.44253H45.0879C44.3306 5.44253 43.5908 5.70969 43.0045 6.19502L42.789 6.37334C42.3933 6.70098 41.8938 6.88144 41.3826 6.88144C40.8713 6.88144 40.3717 6.70098 39.976 6.37334L39.7606 6.19502C39.1743 5.70979 38.4346 5.44253 37.6773 5.44253H35.4814C33.7104 5.44253 32.2697 6.90132 32.2697 8.69451V15.1852C32.1845 15.1383 32.099 15.0967 32.0136 15.0573C31.9779 15.0375 31.9404 15.0209 31.9017 15.0066C31.5235 14.8454 31.1538 14.7513 30.8441 14.6968V6.34058C30.8441 3.73259 32.9397 1.61079 35.5154 1.61079H47.2494C49.8252 1.61079 51.9207 3.73259 51.9207 6.34058V7.60665C51.9207 8.05149 52.2768 8.4121 52.7161 8.4121C53.1553 8.4121 53.5116 8.05159 53.5116 7.60665V6.34058C53.5116 2.84442 50.7023 0 47.2494 0H35.5154C32.0624 0 29.2533 2.84442 29.2533 6.34058V14.336C28.519 14.7492 28.0307 15.5454 28.0307 16.4244V17.6486C28.0307 18.9654 29.0888 20.0366 30.3893 20.0366H30.8893C31.0993 21.5288 31.9246 23.7155 33.4659 25.7004C33.6402 25.9249 33.8303 26.1544 34.0353 26.3847C31.279 27.2712 29.269 29.7804 29.0195 32.7419L22.5379 34.722C21.0656 35.1716 19.9903 36.4045 19.7314 37.9393L18.7555 43.7238C18.6816 44.1623 18.9727 44.5784 19.4057 44.6532C19.8385 44.7283 20.2497 44.4335 20.3237 43.995L21.2996 38.2104C21.4561 37.2818 22.1067 36.5361 22.9974 36.2641L28.9922 34.4327V36.0259C27.618 36.282 26.4488 37.2377 25.9672 38.5619C25.8394 38.9134 25.7599 39.2814 25.7311 39.6556L25.1517 47.1854C25.108 47.7526 25.3018 48.3174 25.6832 48.7347C26.0646 49.1522 26.6056 49.3917 27.1674 49.3917H28.1591C28.5984 49.3917 28.9546 49.0312 28.9546 48.5863C28.9546 48.1413 28.5984 47.7809 28.1591 47.7809H27.1674C27.0476 47.7809 26.9324 47.73 26.851 47.6409C26.7697 47.5519 26.7284 47.4316 26.7378 47.3107L27.3172 39.7809C27.3347 39.5541 27.3827 39.3312 27.4602 39.1184C27.7952 38.1973 28.7 37.5735 29.7118 37.5663L29.8428 37.5653C29.849 37.5652 29.855 37.5652 29.8611 37.5652C30.8444 37.5652 31.7149 38.1298 32.0821 39.0076C32.1851 39.2537 32.2477 39.5139 32.2683 39.7809L32.8479 47.3108C32.8571 47.4316 32.8159 47.5519 32.7346 47.641C32.6533 47.7299 32.538 47.7809 32.4182 47.7809H31.4265C30.9871 47.7809 30.631 48.1414 30.631 48.5863C30.631 49.0311 30.9871 49.3917 31.4265 49.3917H32.4182C32.98 49.3917 33.5211 49.1523 33.9024 48.7347C34.2839 48.3172 34.4777 47.7525 34.434 47.1855L33.8544 39.6556C33.8205 39.215 33.717 38.7854 33.5469 38.379C33.023 37.1268 31.9025 36.2562 30.5829 36.0206V33.9467L33.3174 33.1113C33.5662 33.6418 34.0592 34.7884 35.0358 37.2598C36.02 39.7535 37.2433 42.9498 38.4166 46.0571C38.425 46.0832 38.4347 46.1087 38.4455 46.1336C39.2284 48.208 39.988 50.2398 40.6376 51.9925C40.7541 52.3068 41.0508 52.515 41.3824 52.515C41.7139 52.515 42.0106 52.3068 42.1271 51.9925C42.7766 50.2398 43.5361 48.208 44.3192 46.1336C44.3301 46.1087 44.3397 46.0831 44.3481 46.0571C45.5205 42.9517 46.7432 39.7574 47.727 37.2644C48.7049 34.7898 49.1983 33.6423 49.4472 33.1113L52.1817 33.9467V38.7039C50.2871 39.0765 48.8519 40.7684 48.8519 42.7942C48.8519 45.0921 50.6983 46.9616 52.9678 46.9616C55.2374 46.9616 57.0837 45.0922 57.0837 42.7942C57.0837 40.7751 55.658 39.0873 53.7725 38.7073V34.4328L59.7674 36.2642C60.6581 36.5362 61.3086 37.2819 61.4653 38.2105L63.8683 52.455C63.9082 52.6912 63.8461 52.9221 63.6934 53.1053C63.5409 53.2883 63.3264 53.3893 63.0897 53.3893H19.6749C19.4383 53.3893 19.2239 53.2884 19.0713 53.1053C18.9187 52.9221 18.8565 52.6913 18.8964 52.455L19.6895 47.754C19.7634 47.3155 19.4723 46.8994 19.0393 46.8246C18.6065 46.7494 18.1954 47.0444 18.1213 47.4828L17.3283 52.1838C17.21 52.8855 17.4021 53.6 17.8553 54.1441C18.3088 54.6881 18.972 55 19.6749 55H63.0897C63.7927 55 64.456 54.688 64.9094 54.144C65.3626 53.5999 65.5547 52.8854 65.4364 52.1837ZM51.9302 16.3377C52.3541 16.2307 52.6943 16.2326 52.6981 16.2327C52.8352 16.2346 52.9685 16.2021 53.0869 16.1393C53.1223 16.2285 53.1432 16.3245 53.1432 16.4244V17.6486C53.1432 18.0772 52.7988 18.4259 52.3755 18.4259H51.9302V16.3377ZM30.8345 18.4259H30.3892C29.9659 18.4259 29.6215 18.0772 29.6215 17.6486V16.4244C29.6215 16.3245 29.6425 16.2285 29.6778 16.1394C29.7961 16.2022 29.9294 16.2347 30.0666 16.2327C30.0726 16.2338 30.4119 16.2319 30.8345 16.3381V18.4259ZM32.4253 19.329V17.213C32.6664 17.2861 32.93 17.2761 33.1734 17.1733C33.5909 16.9969 33.8606 16.5873 33.8606 16.1296V8.69451C33.8606 7.78959 34.5877 7.05332 35.4814 7.05332H37.677C38.0683 7.05332 38.4506 7.19136 38.7535 7.44208L38.9688 7.6204C39.6479 8.18265 40.5051 8.49213 41.3824 8.49213C42.2596 8.49213 43.1168 8.18254 43.7959 7.6204L44.0112 7.44208C44.314 7.19136 44.6964 7.05332 45.0877 7.05332H47.2832C48.177 7.05332 48.9041 7.78959 48.9041 8.69451V16.1297C48.9041 16.5873 49.1738 16.997 49.5913 17.1734C49.7307 17.2323 49.8767 17.2609 50.0214 17.2609C50.1293 17.2609 50.2364 17.2449 50.3394 17.2137V19.329C50.3394 20.5049 49.5365 22.7885 48.0484 24.7047C47.5555 25.3394 46.9219 26.0213 46.1418 26.6173C46.1171 26.6341 46.0934 26.6522 46.0708 26.6716C44.8623 27.5763 43.3084 28.2694 41.3824 28.2694C39.4563 28.2694 37.9024 27.5763 36.6938 26.6715C36.6712 26.6522 36.6476 26.6341 36.623 26.6174C35.8429 26.0213 35.2093 25.3394 34.7163 24.7047C33.2283 22.7886 32.4253 20.5049 32.4253 19.329ZM46.5936 32.3415L41.3824 36.2854L36.1711 32.3415C36.6878 31.6765 36.9774 30.8228 36.9774 30.0609V28.7626C38.2028 29.4299 39.6651 29.8803 41.3824 29.8803C43.0996 29.8803 44.562 29.4299 45.7873 28.7626V30.0609C45.7873 30.8228 46.0769 31.6765 46.5936 32.3415ZM34.8435 31.4425C34.4187 31.2787 33.9478 31.2518 33.5023 31.3742C33.4828 31.3788 33.4637 31.3841 33.4451 31.3896L30.697 32.2292C31.1618 29.9152 33.0175 28.0733 35.3865 27.7166V30.0609C35.3865 30.5662 35.1637 31.0886 34.8435 31.4425ZM37.0024 37.908C37.0009 37.9042 36.9994 37.9005 36.9981 37.8968C36.9577 37.7936 36.9179 37.6918 36.8785 37.5911C36.8714 37.5728 36.8643 37.5547 36.8572 37.5366C36.8185 37.4381 36.7802 37.3404 36.7425 37.2442C36.7398 37.2375 36.7372 37.2308 36.7345 37.2239C36.6166 36.9239 36.503 36.6361 36.3937 36.3604C36.3858 36.3404 36.3778 36.3201 36.3699 36.3002C36.3385 36.2212 36.3076 36.1433 36.2769 36.0664C36.2657 36.0381 36.2546 36.0102 36.2434 35.9822C36.2137 35.9077 36.1842 35.8336 36.1551 35.7611C36.1464 35.7394 36.138 35.7183 36.1294 35.6967C36.0766 35.565 36.0251 35.4367 35.9748 35.3115C35.9612 35.2777 35.9473 35.2432 35.9338 35.2098C35.9141 35.161 35.8949 35.1135 35.8756 35.0657C35.8548 35.0142 35.834 34.963 35.8136 34.9128C35.806 34.894 35.798 34.8741 35.7904 34.8554C35.7842 34.8404 35.7786 34.8265 35.7726 34.8116C35.6807 34.5855 35.5934 34.3725 35.5105 34.1722C35.5099 34.1706 35.5091 34.169 35.5085 34.1674C35.4644 34.0607 35.4212 33.9565 35.3797 33.8572C35.3582 33.8058 35.337 33.7552 35.3162 33.7055L39.7981 37.0973L37.9253 37.9028C37.922 37.9042 37.9186 37.9056 37.9153 37.9071L37.1334 38.2435C37.0891 38.1299 37.0457 38.0186 37.0024 37.908ZM38.9004 42.8395C38.7433 42.4267 38.585 42.0115 38.4264 41.5968C38.1783 40.948 37.9414 40.3312 37.7147 39.7436L38.0116 39.6159L39.2244 41.0434L38.9004 42.8395ZM41.3977 49.3856C41.3749 49.3377 41.3478 49.2925 41.3164 49.2504C40.9569 48.2884 40.5007 47.0712 39.9958 45.732L40.7385 41.615H42.0262L42.7689 45.732C42.2398 47.135 41.7646 48.4037 41.3977 49.3856ZM42.3246 40.0043H40.4401L39.5484 38.9548L41.3824 38.166L43.2163 38.9548L42.3246 40.0043ZM44.3383 41.5968C44.1797 42.0115 44.0214 42.4267 43.8643 42.8395L43.5403 41.0433L44.7531 39.6158L45.05 39.7435C44.8233 40.3311 44.5864 40.948 44.3383 41.5968ZM47.3851 33.8572C47.3457 33.9513 47.3048 34.0501 47.2631 34.1508C47.2577 34.1639 47.2522 34.1771 47.2468 34.1903C47.2055 34.2902 47.1635 34.3923 47.12 34.4985C47.1171 34.5055 47.1141 34.5129 47.1113 34.52C47.0737 34.6117 47.0352 34.7062 46.9961 34.8025C46.9887 34.8206 46.9818 34.8372 46.9745 34.8554C46.9658 34.877 46.9565 34.8999 46.9477 34.9217C46.9303 34.9646 46.9126 35.0085 46.8947 35.0523C46.8729 35.1063 46.8511 35.1601 46.8287 35.2155C46.8216 35.2331 46.8143 35.2515 46.8071 35.2692C46.7517 35.4066 46.6949 35.5482 46.6367 35.6936C46.6276 35.7164 46.6186 35.7387 46.6095 35.7618C46.5807 35.8337 46.5514 35.9071 46.522 35.9809C46.5106 36.0097 46.499 36.0385 46.4874 36.0678C46.4571 36.1439 46.4264 36.221 46.3955 36.2993C46.3868 36.3211 46.378 36.3434 46.3693 36.3653C46.2614 36.6373 46.1494 36.921 46.0333 37.2166C46.0294 37.2264 46.0256 37.236 46.0218 37.2458C45.9842 37.3413 45.9463 37.4385 45.9079 37.5363C45.9007 37.5546 45.8935 37.5728 45.8863 37.5912C45.8466 37.6924 45.8066 37.7947 45.7661 37.8985C45.7654 37.9005 45.7646 37.9024 45.7639 37.9042C45.7202 38.0162 45.6763 38.1288 45.6315 38.2437L44.8488 37.907C44.8461 37.9058 44.8433 37.9047 44.8407 37.9035L42.9669 37.0975L47.4488 33.7058C47.4277 33.7552 47.4065 33.8057 47.3851 33.8572ZM49.3196 31.3897L49.3172 31.389C48.8557 31.2488 48.3634 31.272 47.9213 31.4425C47.601 31.0886 47.3783 30.5662 47.3783 30.0609V27.7154C49.7621 28.0712 51.6123 29.8957 52.071 32.2302L49.3196 31.3897ZM55.4928 42.7942C55.4928 44.204 54.3601 45.3508 52.9678 45.3508C51.5756 45.3508 50.4428 44.204 50.4428 42.7942C50.4428 41.3844 51.5756 40.2375 52.9678 40.2375C54.3601 40.2375 55.4928 41.3844 55.4928 42.7942Z"/>
<path d="M83.9834 28.5919L82.8127 21.4696C82.6865 20.7023 82.1627 20.0858 81.4454 19.861L78.2878 18.8709C78.2224 18.0688 77.9059 17.3121 77.3792 16.7131C76.9579 16.234 76.428 15.8851 75.8439 15.6926C75.9439 15.5774 76.0366 15.4625 76.1216 15.3501C76.8725 14.3577 77.2745 13.2644 77.3769 12.5183H77.6204C78.254 12.5183 78.7695 11.9827 78.7695 11.3242V10.7121C78.7695 10.2727 78.5316 9.87457 78.1739 9.66794V8.19604C78.1739 7.97363 78.0004 7.79332 77.7864 7.79332C77.5723 7.79332 77.3989 7.97357 77.3989 8.19604V9.84841C77.2479 9.87564 77.0679 9.92269 76.8837 10.0033C76.8648 10.0105 76.8464 10.0187 76.8291 10.0287C76.7875 10.0484 76.7458 10.0692 76.7043 10.0926V6.84726C76.7043 5.95066 76.0024 5.22126 75.1396 5.22126H74.07C73.701 5.22126 73.3406 5.35484 73.055 5.59751L72.95 5.68667C72.7572 5.85049 72.5139 5.94072 72.2648 5.94072C72.0157 5.94072 71.7723 5.85049 71.5796 5.68667L71.4746 5.59751C71.189 5.3549 70.8286 5.22126 70.4597 5.22126H69.3899C68.5271 5.22126 67.8252 5.95066 67.8252 6.84726V10.0926C67.7837 10.0692 67.742 10.0484 67.7004 10.0287C67.6831 10.0187 67.6648 10.0105 67.6459 10.0033C67.4617 9.92269 67.2816 9.87564 67.1307 9.84841V5.67029C67.1307 4.36629 68.1516 3.3054 69.4064 3.3054H75.123C76.3779 3.3054 77.3988 4.36629 77.3988 5.67029V6.30333C77.3988 6.52574 77.5723 6.70605 77.7863 6.70605C78.0002 6.70605 78.1738 6.5258 78.1738 6.30333V5.67029C78.1738 3.92221 76.8052 2.5 75.123 2.5H69.4064C67.7242 2.5 66.3557 3.92221 66.3557 5.67029V9.66799C65.9979 9.87462 65.7601 10.2727 65.7601 10.7122V11.3243C65.7601 11.9827 66.2755 12.5183 66.9091 12.5183H67.1527C67.255 13.2644 67.6571 14.3578 68.408 15.3502C68.4929 15.4624 68.5855 15.5772 68.6854 15.6924C67.3426 16.1356 66.3633 17.3902 66.2418 18.8709L63.0841 19.861C62.3668 20.0858 61.8429 20.7023 61.7168 21.4696L61.2414 24.3619C61.2054 24.5812 61.3472 24.7892 61.5581 24.8266C61.769 24.8642 61.9693 24.7167 62.0054 24.4975L62.4808 21.6052C62.5571 21.1409 62.874 20.7681 63.3079 20.6321L66.2285 19.7163V20.5129C65.559 20.641 64.9894 21.1188 64.7548 21.7809C64.6925 21.9567 64.6538 22.1407 64.6397 22.3278L64.3575 26.0927C64.3362 26.3763 64.4306 26.6587 64.6164 26.8674C64.8022 27.0761 65.0658 27.1959 65.3394 27.1959H65.8226C66.0366 27.1959 66.2102 27.0156 66.2102 26.7931C66.2102 26.5707 66.0366 26.3905 65.8226 26.3905H65.3394C65.2811 26.3905 65.225 26.365 65.1853 26.3204C65.1457 26.276 65.1256 26.2158 65.1302 26.1554L65.4124 22.3904C65.421 22.2771 65.4444 22.1656 65.4821 22.0592C65.6453 21.5986 66.0861 21.2867 66.579 21.2831L66.6429 21.2827C66.6459 21.2826 66.6488 21.2826 66.6518 21.2826C67.1308 21.2826 67.5549 21.5649 67.7338 22.0038C67.784 22.1268 67.8145 22.2569 67.8245 22.3904L68.1069 26.1554C68.1114 26.2158 68.0913 26.276 68.0517 26.3205C68.0121 26.365 67.9559 26.3905 67.8976 26.3905H67.4144C67.2004 26.3905 67.0269 26.5707 67.0269 26.7931C67.0269 27.0156 67.2004 27.1959 67.4144 27.1959H67.8976C68.1712 27.1959 68.4348 27.0761 68.6206 26.8674C68.8065 26.6586 68.9009 26.3762 68.8796 26.0927L68.5972 22.3278C68.5807 22.1075 68.5303 21.8927 68.4475 21.6895C68.1922 21.0634 67.6463 20.6281 67.0034 20.5103V19.4734L68.3356 19.0556C68.4568 19.3209 68.697 19.8942 69.1728 21.1299C69.6523 22.3768 70.2483 23.9749 70.8199 25.5286C70.8239 25.5416 70.8287 25.5543 70.8339 25.5668C71.2154 26.604 71.5854 27.6199 71.9019 28.4963C71.9586 28.6534 72.1032 28.7575 72.2647 28.7575C72.4262 28.7575 72.5708 28.6534 72.6275 28.4963C72.944 27.6199 73.314 26.604 73.6955 25.5668C73.7008 25.5543 73.7055 25.5416 73.7095 25.5286C74.2807 23.9758 74.8764 22.3787 75.3557 21.1322C75.8321 19.8949 76.0725 19.3211 76.1937 19.0556L77.5259 19.4734V21.8519C76.6029 22.0383 75.9037 22.8842 75.9037 23.8971C75.9037 25.046 76.8032 25.9808 77.9089 25.9808C79.0146 25.9808 79.9141 25.0461 79.9141 23.8971C79.9141 22.8875 79.2195 22.0436 78.3009 21.8537V19.7164L81.2215 20.6321C81.6555 20.7681 81.9723 21.141 82.0487 21.6052L83.2194 28.7275C83.2388 28.8456 83.2086 28.9611 83.1342 29.0526C83.0599 29.1442 82.9554 29.1947 82.8401 29.1947H61.6893C61.574 29.1947 61.4696 29.1442 61.3952 29.0526C61.3209 28.9611 61.2906 28.8456 61.31 28.7275L61.6964 26.377C61.7324 26.1577 61.5906 25.9497 61.3797 25.9123C61.1688 25.8747 60.9685 26.0222 60.9324 26.2414L60.5461 28.5919C60.4884 28.9428 60.582 29.3 60.8028 29.572C61.0237 29.844 61.3468 30 61.6893 30H82.8401C83.1826 30 83.5057 29.844 83.7266 29.572C83.9474 29.2999 84.041 28.9427 83.9834 28.5919ZM77.4034 10.6688C77.6099 10.6153 77.7757 10.6163 77.7775 10.6164C77.8443 10.6173 77.9092 10.6011 77.9669 10.5696C77.9842 10.6143 77.9943 10.6622 77.9943 10.7122V11.3243C77.9943 11.5386 77.8266 11.7129 77.6203 11.7129H77.4034V10.6688ZM67.126 11.7129H66.9091C66.7028 11.7129 66.5351 11.5386 66.5351 11.3243V10.7122C66.5351 10.6622 66.5453 10.6143 66.5625 10.5697C66.6201 10.6011 66.6851 10.6173 66.7519 10.6164C66.7548 10.6169 66.9201 10.6159 67.126 10.6691V11.7129ZM67.901 12.1645V11.1065C68.0185 11.1431 68.1469 11.1381 68.2655 11.0867C68.4689 10.9985 68.6002 10.7937 68.6002 10.5648V6.84726C68.6002 6.3948 68.9545 6.02666 69.3899 6.02666H70.4596C70.6502 6.02666 70.8364 6.09568 70.984 6.22104L71.0889 6.3102C71.4197 6.59132 71.8373 6.74607 72.2647 6.74607C72.6921 6.74607 73.1097 6.59127 73.4405 6.3102L73.5454 6.22104C73.693 6.09568 73.8792 6.02666 74.0698 6.02666H75.1395C75.5749 6.02666 75.9292 6.3948 75.9292 6.84726V10.5649C75.9292 10.7937 76.0606 10.9985 76.2639 11.0867C76.3319 11.1161 76.403 11.1304 76.4735 11.1304C76.526 11.1304 76.5782 11.1224 76.6284 11.1069V12.1645C76.6284 12.7525 76.2372 13.8942 75.5123 14.8523C75.2721 15.1697 74.9635 15.5107 74.5834 15.8087C74.5714 15.817 74.5598 15.8261 74.5488 15.8358C73.9601 16.2881 73.203 16.6347 72.2647 16.6347C71.3264 16.6347 70.5693 16.2881 69.9805 15.8357C69.9695 15.8261 69.958 15.817 69.9461 15.8087C69.566 15.5107 69.2573 15.1697 69.0171 14.8523C68.2922 13.8943 67.901 12.7525 67.901 12.1645ZM74.8035 18.6708L72.2647 20.6427L69.7259 18.6708C69.9776 18.3382 70.1187 17.9114 70.1187 17.5305V16.8813C70.7157 17.215 71.4281 17.4401 72.2647 17.4401C73.1013 17.4401 73.8138 17.215 74.4107 16.8813V17.5305C74.4107 17.9114 74.5518 18.3382 74.8035 18.6708ZM69.0791 18.2212C68.8722 18.1393 68.6427 18.1259 68.4257 18.1871C68.4162 18.1894 68.4069 18.192 68.3978 18.1948L67.059 18.6146C67.2854 17.4576 68.1895 16.5367 69.3437 16.3583V17.5305C69.3437 17.7831 69.2351 18.0443 69.0791 18.2212ZM70.1309 21.454C70.1302 21.4521 70.1294 21.4502 70.1288 21.4484C70.1091 21.3968 70.0897 21.3459 70.0705 21.2956C70.0671 21.2864 70.0636 21.2773 70.0601 21.2683C70.0413 21.2191 70.0227 21.1702 70.0042 21.1221C70.003 21.1187 70.0017 21.1154 70.0004 21.112C69.9429 20.962 69.8876 20.8181 69.8344 20.6802C69.8305 20.6702 69.8266 20.66 69.8227 20.6501C69.8074 20.6106 69.7924 20.5716 69.7775 20.5332C69.772 20.5191 69.7665 20.5051 69.7611 20.4911C69.7466 20.4538 69.7323 20.4168 69.7181 20.3805C69.7139 20.3697 69.7097 20.3592 69.7056 20.3484C69.6799 20.2825 69.6547 20.2183 69.6302 20.1558C69.6236 20.1388 69.6169 20.1216 69.6103 20.1049C69.6007 20.0805 69.5913 20.0568 69.5819 20.0329C69.5718 20.0071 69.5617 19.9815 69.5517 19.9564C69.548 19.947 69.5441 19.937 69.5404 19.9277C69.5374 19.9202 69.5347 19.9132 69.5317 19.9058C69.487 19.7928 69.4444 19.6863 69.4041 19.5861C69.4038 19.5853 69.4034 19.5845 69.4031 19.5837C69.3816 19.5303 69.3605 19.4782 69.3403 19.4286C69.3298 19.4029 69.3195 19.3776 69.3094 19.3528L71.4929 21.0486L70.5805 21.4514C70.5789 21.4521 70.5772 21.4528 70.5756 21.4536L70.1947 21.6217C70.1731 21.565 70.152 21.5093 70.1309 21.454ZM71.0556 23.9198C70.979 23.7134 70.9019 23.5058 70.8246 23.2984C70.7038 22.974 70.5884 22.6656 70.4779 22.3718L70.6225 22.3079L71.2134 23.0217L71.0556 23.9198ZM72.2722 27.1928C72.2611 27.1688 72.2479 27.1462 72.2326 27.1252C72.0574 26.6442 71.8352 26.0356 71.5892 25.366L71.951 23.3075H72.5784L72.9402 25.366C72.6824 26.0675 72.4509 26.7018 72.2722 27.1928ZM72.7237 22.5022H71.8057L71.3713 21.9774L72.2647 21.583L73.1582 21.9774L72.7237 22.5022ZM73.7048 23.2984C73.6275 23.5058 73.5504 23.7134 73.4739 23.9198L73.316 23.0217L73.9069 22.3079L74.0515 22.3718C73.941 22.6656 73.8256 22.974 73.7048 23.2984ZM75.1891 19.4286C75.1699 19.4757 75.15 19.525 75.1297 19.5754C75.127 19.582 75.1244 19.5886 75.1217 19.5952C75.1016 19.6451 75.0811 19.6961 75.06 19.7493C75.0586 19.7528 75.0571 19.7565 75.0557 19.76C75.0374 19.8058 75.0187 19.8531 74.9996 19.9013C74.996 19.9103 74.9927 19.9186 74.9891 19.9277C74.9849 19.9385 74.9803 19.9499 74.976 19.9608C74.9675 19.9823 74.9589 20.0042 74.9502 20.0261C74.9396 20.0532 74.929 20.0801 74.9181 20.1077C74.9146 20.1165 74.911 20.1257 74.9075 20.1346C74.8806 20.2033 74.8529 20.2741 74.8245 20.3468C74.8201 20.3582 74.8157 20.3694 74.8112 20.3809C74.7972 20.4168 74.783 20.4535 74.7687 20.4904C74.7631 20.5049 74.7574 20.5193 74.7518 20.5339C74.737 20.572 74.7221 20.6105 74.707 20.6496C74.7028 20.6605 74.6985 20.6717 74.6942 20.6827C74.6417 20.8187 74.5871 20.9605 74.5305 21.1083C74.5287 21.1132 74.5268 21.118 74.5249 21.1229C74.5067 21.1707 74.4882 21.2192 74.4694 21.2682C74.466 21.2773 74.4625 21.2864 74.4589 21.2956C74.4396 21.3462 74.4201 21.3973 74.4004 21.4493C74.4 21.4502 74.3997 21.4512 74.3993 21.4521C74.378 21.5081 74.3566 21.5644 74.3348 21.6218L73.9535 21.4535C73.9522 21.4529 73.9508 21.4523 73.9495 21.4517L73.0366 21.0488L75.2201 19.3529C75.2099 19.3776 75.1996 19.4028 75.1891 19.4286ZM76.1316 18.1949L76.1304 18.1945C75.9055 18.1244 75.6657 18.136 75.4503 18.2212C75.2943 18.0443 75.1858 17.7831 75.1858 17.5305V16.3577C76.3472 16.5356 77.2485 17.4479 77.472 18.6151L76.1316 18.1949ZM79.139 23.8971C79.139 24.602 78.5872 25.1754 77.9089 25.1754C77.2306 25.1754 76.6788 24.602 76.6788 23.8971C76.6788 23.1922 77.2306 22.6188 77.9089 22.6188C78.5872 22.6188 79.139 23.1922 79.139 23.8971Z"/>
<path d="M23.4539 28.5919L22.2832 21.4696C22.1571 20.7023 21.6332 20.0858 20.916 19.861L17.7584 18.8709C17.693 18.0688 17.3765 17.3121 16.8498 16.7131C16.4285 16.234 15.8986 15.8851 15.3145 15.6926C15.4145 15.5774 15.5072 15.4625 15.5922 15.3501C16.3431 14.3577 16.7451 13.2644 16.8474 12.5183H17.091C17.7246 12.5183 18.2401 11.9827 18.2401 11.3242V10.7121C18.2401 10.2727 18.0022 9.87457 17.6445 9.66794V8.19604C17.6445 7.97363 17.471 7.79332 17.257 7.79332C17.0429 7.79332 16.8695 7.97357 16.8695 8.19604V9.84841C16.7185 9.87564 16.5385 9.92269 16.3542 10.0033C16.3354 10.0105 16.317 10.0187 16.2997 10.0287C16.2581 10.0484 16.2164 10.0692 16.1749 10.0926V6.84726C16.1749 5.95066 15.473 5.22126 14.6102 5.22126H13.5405C13.1716 5.22126 12.8112 5.35484 12.5256 5.59751L12.4206 5.68667C12.2278 5.85049 11.9845 5.94072 11.7354 5.94072C11.4863 5.94072 11.2429 5.85049 11.0501 5.68667L10.9452 5.59751C10.6596 5.3549 10.2992 5.22126 9.93025 5.22126H8.8605C7.99769 5.22126 7.29579 5.95066 7.29579 6.84726V10.0926C7.25429 10.0692 7.21263 10.0484 7.17102 10.0287C7.15366 10.0187 7.13536 10.0105 7.11649 10.0033C6.93228 9.92269 6.75216 9.87564 6.60128 9.84841V5.67029C6.60128 4.36629 7.62219 3.3054 8.87704 3.3054H14.5936C15.8485 3.3054 16.8694 4.36629 16.8694 5.67029V6.30333C16.8694 6.52574 17.0429 6.70605 17.2568 6.70605C17.4708 6.70605 17.6444 6.5258 17.6444 6.30333V5.67029C17.6444 3.92221 16.2758 2.5 14.5936 2.5H8.87704C7.1948 2.5 5.82625 3.92221 5.82625 5.67029V9.66799C5.46852 9.87462 5.23066 10.2727 5.23066 10.7122V11.3243C5.23066 11.9827 5.74613 12.5183 6.3797 12.5183H6.6233C6.72559 13.2644 7.12766 14.3578 7.87856 15.3502C7.96348 15.4624 8.0561 15.5772 8.15596 15.6924C6.81314 16.1356 5.83389 17.3902 5.71238 18.8709L2.55465 19.861C1.8374 20.0858 1.3135 20.7023 1.18739 21.4696L0.711978 24.3619C0.675953 24.5812 0.81778 24.7892 1.02871 24.8266C1.23959 24.8642 1.43988 24.7167 1.47595 24.4975L1.95137 21.6052C2.02766 21.1409 2.3446 20.7681 2.7785 20.6321L5.69904 19.7163V20.5129C5.0296 20.641 4.45997 21.1188 4.22536 21.7809C4.16308 21.9567 4.12437 22.1407 4.11031 22.3278L3.82805 26.0927C3.80675 26.3763 3.90119 26.6587 4.087 26.8674C4.27281 27.0761 4.53636 27.1959 4.81004 27.1959H5.2932C5.50724 27.1959 5.68075 27.0156 5.68075 26.7931C5.68075 26.5707 5.50724 26.3905 5.2932 26.3905H4.81004C4.75168 26.3905 4.69555 26.365 4.65591 26.3204C4.61632 26.276 4.59621 26.2158 4.60076 26.1554L4.88302 22.3904C4.89155 22.2771 4.91496 22.1656 4.95269 22.0592C5.11592 21.5986 5.5567 21.2867 6.04963 21.2831L6.11347 21.2827C6.11646 21.2826 6.11941 21.2826 6.12236 21.2826C6.60144 21.2826 7.02553 21.5649 7.20441 22.0038C7.2546 22.1268 7.28509 22.2569 7.29512 22.3904L7.57748 26.1554C7.58198 26.2158 7.56187 26.276 7.52228 26.3205C7.48269 26.365 7.42651 26.3905 7.36815 26.3905H6.88499C6.67096 26.3905 6.49744 26.5707 6.49744 26.7931C6.49744 27.0156 6.67096 27.1959 6.88499 27.1959H7.36815C7.64183 27.1959 7.90543 27.0761 8.0912 26.8674C8.27706 26.6586 8.37149 26.3762 8.3502 26.0927L8.06783 22.3278C8.05129 22.1075 8.0009 21.8927 7.91805 21.6895C7.66277 21.0634 7.11691 20.6281 6.47403 20.5103V19.4734L7.8062 19.0556C7.9274 19.3209 8.16759 19.8942 8.64336 21.1299C9.12286 22.3768 9.71885 23.9749 10.2905 25.5286C10.2945 25.5416 10.2992 25.5543 10.3045 25.5668C10.686 26.604 11.056 27.6199 11.3725 28.4963C11.4292 28.6534 11.5738 28.7575 11.7353 28.7575C11.8968 28.7575 12.0414 28.6534 12.0981 28.4963C12.4146 27.6199 12.7846 26.604 13.1661 25.5668C13.1714 25.5543 13.1761 25.5416 13.1801 25.5286C13.7513 23.9758 14.347 22.3787 14.8263 21.1322C15.3027 19.8949 15.5431 19.3211 15.6643 19.0556L16.9965 19.4734V21.8519C16.0735 22.0383 15.3743 22.8842 15.3743 23.8971C15.3743 25.046 16.2738 25.9808 17.3795 25.9808C18.4852 25.9808 19.3847 25.0461 19.3847 23.8971C19.3847 22.8875 18.6901 22.0436 17.7715 21.8537V19.7164L20.6921 20.6321C21.126 20.7681 21.4429 21.141 21.5193 21.6052L22.69 28.7275C22.7094 28.8456 22.6792 28.9611 22.6048 29.0526C22.5305 29.1442 22.426 29.1947 22.3107 29.1947H1.15989C1.04458 29.1947 0.940174 29.1442 0.865797 29.0526C0.791472 28.9611 0.761184 28.8456 0.780618 28.7275L1.16697 26.377C1.203 26.1577 1.06117 25.9497 0.850239 25.9123C0.639359 25.8747 0.439074 26.0222 0.402997 26.2414L0.0166409 28.5919C-0.0409895 28.9428 0.0526147 29.3 0.273419 29.572C0.494327 29.844 0.817419 30 1.15989 30H22.3107C22.6532 30 22.9763 29.844 23.1972 29.572C23.418 29.2999 23.5116 28.9427 23.4539 28.5919ZM16.874 10.6688C17.0805 10.6153 17.2463 10.6163 17.2481 10.6164C17.3149 10.6173 17.3798 10.6011 17.4375 10.5696C17.4548 10.6143 17.4649 10.6622 17.4649 10.7122V11.3243C17.4649 11.5386 17.2972 11.7129 17.0909 11.7129H16.874V10.6688ZM6.59658 11.7129H6.37965C6.17342 11.7129 6.00565 11.5386 6.00565 11.3243V10.7122C6.00565 10.6622 6.01588 10.6143 6.03309 10.5697C6.09072 10.6011 6.15564 10.6173 6.22247 10.6164C6.22542 10.6169 6.39071 10.6159 6.59658 10.6691V11.7129ZM7.37162 12.1645V11.1065C7.48905 11.1431 7.61749 11.1381 7.73606 11.0867C7.93944 10.9985 8.07083 10.7937 8.07083 10.5648V6.84726C8.07083 6.3948 8.42509 6.02666 8.8605 6.02666H9.93015C10.1208 6.02666 10.307 6.09568 10.4546 6.22104L10.5595 6.3102C10.8903 6.59132 11.3079 6.74607 11.7353 6.74607C12.1627 6.74607 12.5803 6.59127 12.9111 6.3102L13.016 6.22104C13.1635 6.09568 13.3498 6.02666 13.5404 6.02666H14.6101C15.0455 6.02666 15.3998 6.3948 15.3998 6.84726V10.5649C15.3998 10.7937 15.5311 10.9985 15.7345 11.0867C15.8024 11.1161 15.8736 11.1304 15.9441 11.1304C15.9966 11.1304 16.0488 11.1224 16.099 11.1069V12.1645C16.099 12.7525 15.7078 13.8942 14.9829 14.8523C14.7427 15.1697 14.434 15.5107 14.054 15.8087C14.042 15.817 14.0304 15.8261 14.0194 15.8358C13.4307 16.2881 12.6736 16.6347 11.7353 16.6347C10.797 16.6347 10.0399 16.2881 9.45112 15.8357C9.44011 15.8261 9.42863 15.817 9.41664 15.8087C9.03659 15.5107 8.72792 15.1697 8.48773 14.8523C7.76283 13.8943 7.37162 12.7525 7.37162 12.1645ZM14.2741 18.6708L11.7353 20.6427L9.19646 18.6708C9.44822 18.3382 9.58927 17.9114 9.58927 17.5305V16.8813C10.1863 17.215 10.8987 17.4401 11.7353 17.4401C12.5719 17.4401 13.2843 17.215 13.8813 16.8813V17.5305C13.8813 17.9114 14.0224 18.3382 14.2741 18.6708ZM8.54971 18.2212C8.34275 18.1393 8.11332 18.1259 7.89629 18.1871C7.88678 18.1894 7.87747 18.192 7.86843 18.1948L6.52959 18.6146C6.75603 17.4576 7.66013 16.5367 8.81424 16.3583V17.5305C8.81424 17.7831 8.7057 18.0443 8.54971 18.2212ZM9.60147 21.454C9.60075 21.4521 9.60003 21.4502 9.59935 21.4484C9.57971 21.3968 9.56033 21.3459 9.5411 21.2956C9.53764 21.2864 9.53418 21.2773 9.53071 21.2683C9.5119 21.2191 9.49324 21.1702 9.47484 21.1221C9.47355 21.1187 9.47226 21.1154 9.47096 21.112C9.41354 20.962 9.35818 20.8181 9.30495 20.6802C9.30107 20.6702 9.29719 20.66 9.29332 20.6501C9.27802 20.6106 9.26298 20.5716 9.24804 20.5332C9.24256 20.5191 9.23713 20.5051 9.23171 20.4911C9.21724 20.4538 9.20287 20.4168 9.1887 20.3805C9.18447 20.3697 9.18033 20.3592 9.17615 20.3484C9.15046 20.2825 9.12534 20.2183 9.10084 20.1558C9.09422 20.1388 9.08745 20.1216 9.08089 20.1049C9.07127 20.0805 9.06192 20.0568 9.05251 20.0329C9.04238 20.0071 9.03225 19.9815 9.02233 19.9564C9.0186 19.947 9.01473 19.937 9.01101 19.9277C9.00801 19.9202 9.00527 19.9132 9.00232 19.9058C8.95756 19.7928 8.91503 19.6863 8.87466 19.5861C8.87435 19.5853 8.87399 19.5845 8.87368 19.5837C8.85217 19.5303 8.83114 19.4782 8.81093 19.4286C8.80044 19.4029 8.7901 19.3776 8.77997 19.3528L10.9635 21.0486L10.0511 21.4514C10.0495 21.4521 10.0478 21.4528 10.0462 21.4536L9.66531 21.6217C9.6437 21.565 9.62256 21.5093 9.60147 21.454ZM10.5261 23.9198C10.4496 23.7134 10.3725 23.5058 10.2952 23.2984C10.1744 22.974 10.0589 22.6656 9.94849 22.3718L10.0931 22.3079L10.684 23.0217L10.5261 23.9198ZM11.7428 27.1928C11.7317 27.1688 11.7184 27.1462 11.7031 27.1252C11.528 26.6442 11.3058 26.0356 11.0598 25.366L11.4216 23.3075H12.049L12.4108 25.366C12.153 26.0675 11.9215 26.7018 11.7428 27.1928ZM12.1943 22.5022H11.2763L10.8418 21.9774L11.7353 21.583L12.6287 21.9774L12.1943 22.5022ZM13.1754 23.2984C13.0981 23.5058 13.021 23.7134 12.9444 23.9198L12.7866 23.0217L13.3775 22.3079L13.5221 22.3718C13.4116 22.6656 13.2962 22.974 13.1754 23.2984ZM14.6597 19.4286C14.6405 19.4757 14.6206 19.525 14.6003 19.5754C14.5976 19.582 14.5949 19.5886 14.5923 19.5952C14.5722 19.6451 14.5517 19.6961 14.5305 19.7493C14.5292 19.7528 14.5277 19.7565 14.5263 19.76C14.508 19.8058 14.4892 19.8531 14.4702 19.9013C14.4666 19.9103 14.4632 19.9186 14.4597 19.9277C14.4554 19.9385 14.4509 19.9499 14.4466 19.9608C14.4381 19.9823 14.4295 20.0042 14.4208 20.0261C14.4102 20.0532 14.3996 20.0801 14.3887 20.1077C14.3852 20.1165 14.3816 20.1257 14.3781 20.1346C14.3511 20.2033 14.3234 20.2741 14.2951 20.3468C14.2907 20.3582 14.2863 20.3694 14.2818 20.3809C14.2678 20.4168 14.2536 20.4535 14.2392 20.4904C14.2337 20.5049 14.228 20.5193 14.2224 20.5339C14.2076 20.572 14.1927 20.6105 14.1776 20.6496C14.1733 20.6605 14.1691 20.6717 14.1648 20.6827C14.1122 20.8187 14.0577 20.9605 14.0011 21.1083C13.9993 21.1132 13.9974 21.118 13.9955 21.1229C13.9772 21.1707 13.9587 21.2192 13.94 21.2682C13.9366 21.2773 13.9331 21.2864 13.9295 21.2956C13.9102 21.3462 13.8907 21.3973 13.871 21.4493C13.8706 21.4502 13.8703 21.4512 13.8699 21.4521C13.8486 21.5081 13.8272 21.5644 13.8054 21.6218L13.4241 21.4535C13.4228 21.4529 13.4214 21.4523 13.4201 21.4517L12.5072 21.0488L14.6907 19.3529C14.6805 19.3776 14.6701 19.4028 14.6597 19.4286ZM15.6022 18.1949L15.601 18.1945C15.3761 18.1244 15.1363 18.136 14.9209 18.2212C14.7649 18.0443 14.6564 17.7831 14.6564 17.5305V16.3577C15.8177 16.5356 16.7191 17.4479 16.9426 18.6151L15.6022 18.1949ZM18.6096 23.8971C18.6096 24.602 18.0578 25.1754 17.3795 25.1754C16.7012 25.1754 16.1494 24.602 16.1494 23.8971C16.1494 23.1922 16.7012 22.6188 17.3795 22.6188C18.0578 22.6188 18.6096 23.1922 18.6096 23.8971Z"/>
</symbol><symbol id="icon-inner3" viewBox="0 0 74 74"><g id="Numbers"><text font-family="ArialMT, Arial" font-size="18" transform="translate(31.995 -17.877)">4<tspan x="-5.005" y="124">14</tspan><tspan x="-5.005" y="248">24</tspan><tspan x="-5.005" y="372">34</tspan><tspan x="-5.005" y="496">44</tspan><tspan x="-5.005" y="620">54</tspan><tspan x="-5.005" y="744">64</tspan><tspan x="-5.005" y="868">74</tspan><tspan x="-5.005" y="992">84</tspan><tspan x="-5.005" y="1116">94</tspan><tspan x="-10.011" y="1240">104</tspan><tspan letter-spacing="-.074em" x="-9.343" y="1364">1</tspan><tspan x="-.668" y="1364">14</tspan><tspan x="-10.011" y="1488">124</tspan><tspan x="-10.011" y="1612">134</tspan><tspan x="-10.011" y="1736">144</tspan><tspan x="-10.011" y="1860">154</tspan><tspan x="-10.011" y="1984">164</tspan><tspan x="-10.011" y="2108">174</tspan><tspan x="-10.011" y="2232">184</tspan><tspan x="-10.011" y="2356">194</tspan><tspan x="-10.011" y="2480">204</tspan><tspan x="-10.011" y="2604">214</tspan><tspan x="-10.011" y="2728">224</tspan><tspan x="-10.011" y="2852">234</tspan><tspan x="-10.011" y="2976">244</tspan><tspan x="-10.011" y="3100">254</tspan><tspan x="-10.011" y="3224">264</tspan><tspan x="-10.011" y="3348">274</tspan><tspan x="-10.011" y="3472">284</tspan><tspan x="-10.011" y="3596">294</tspan></text></g><g id="Icons"><path d="m30.375 55.539h-16.575a1.5 1.5 0 0 1 -1.5-1.5v-3.704a1.5 1.5 0 0 1 1.5-1.5h16.575a1.5 1.5 0 0 1 1.5 1.5v3.706a1.5 1.5 0 0 1 -1.5 1.498zm-16.076-2h15.574v-2.7h-15.573z"/><path d="m46.715 72h-19.65a2.989 2.989 0 0 1 -2.2-5.008l4.654-5.075a1 1 0 1 1 1.474 1.352l-4.654 5.075a.989.989 0 0 0 .726 1.656h19.65a.988.988 0 0 0 .728-1.656l-4.653-5.075a1 1 0 0 1 1.475-1.352l4.652 5.075a2.988 2.988 0 0 1 -2.202 5.008z"/><path d="m36.89 64.665a22.076 22.076 0 0 1 -18.172-9.557 1 1 0 1 1 1.647-1.135 20.04 20.04 0 1 0 30.2-25.986 1 1 0 0 1 1.363-1.464 22.031 22.031 0 0 1 -15.038 38.142z"/><path d="m36.89 59.366a16.7 16.7 0 0 1 -10.916-4.066 1 1 0 0 1 1.308-1.513 14.72 14.72 0 0 0 20.096-21.487 1 1 0 1 1 1.422-1.406 16.578 16.578 0 0 1 4.832 11.73 16.761 16.761 0 0 1 -16.742 16.742z"/><path d="m45.665 33.15a6.642 6.642 0 1 1 6.641-6.642 6.649 6.649 0 0 1 -6.641 6.642zm0-11.283a4.642 4.642 0 1 0 4.641 4.641 4.647 4.647 0 0 0 -4.641-4.641z"/><path d="m45.665 29.729a3.221 3.221 0 1 1 3.221-3.221 3.224 3.224 0 0 1 -3.221 3.221zm0-4.442a1.221 1.221 0 1 0 1.221 1.221 1.222 1.222 0 0 0 -1.221-1.221z"/><path d="m34.8 38.211h-.032a1 1 0 0 1 -.7-.315l-9.595-10.244a1 1 0 0 1 .047-1.413l24.425-22.886a1 1 0 0 1 1.412.044l9.595 10.244a1 1 0 0 1 -.047 1.414l-9.2 8.617a1 1 0 0 1 -1.368-1.46l8.472-7.934-8.225-8.784-22.968 21.521 8.226 8.785 6.3-5.9a1 1 0 1 1 1.368 1.459l-7.03 6.589a1 1 0 0 1 -.68.263z"/><path d="m57.119 13.075a1 1 0 0 1 -.73-.317l-5.381-5.743a1 1 0 0 1 .047-1.415l3.291-3.084a1.918 1.918 0 0 1 2.709.088l4.128 4.406a1.919 1.919 0 0 1 -.089 2.709l-3.294 3.086a1 1 0 0 1 -.681.27zm-3.967-6.7 4.013 4.284 2.5-2.343-4.013-4.281z"/><path d="m27.38 40.6h-.065a1.9 1.9 0 0 1 -1.336-.6l-4.127-4.406a1.917 1.917 0 0 1 .088-2.709l4.687-4.391a1 1 0 0 1 1.414.046l5.381 5.743a1 1 0 0 1 -.047 1.414l-4.687 4.392a1.905 1.905 0 0 1 -1.308.511zm-4.012-6.318 4.014 4.283 3.9-3.65-4.013-4.284z"/></g></symbol><symbol id="icon-inner4" viewBox="0 0 49 55">
<path d="M48.9653 52.1837L46.5212 37.9393C46.2578 36.4045 45.1641 35.1716 43.6667 34.722L37.0745 32.7419C36.938 31.1376 36.2773 29.6242 35.1777 28.4262C34.2981 27.468 33.1919 26.7703 31.9724 26.3853C32.1811 26.1548 32.3746 25.925 32.5521 25.7003C34.1198 23.7154 34.9591 21.5287 35.1727 20.0365H35.6813C37.004 20.0365 38.0802 18.9653 38.0802 17.6484V16.4243C38.0802 15.5454 37.5836 14.7491 36.8368 14.3359V11.3921C36.8368 10.9473 36.4745 10.5866 36.0277 10.5866C35.5808 10.5866 35.2187 10.9471 35.2187 11.3921V14.6968C34.9036 14.7513 34.5277 14.8454 34.1431 15.0066C34.1037 15.0209 34.0654 15.0374 34.0291 15.0573C33.9423 15.0967 33.8553 15.1383 33.7686 15.1852V8.69451C33.7686 6.90132 32.3033 5.44253 30.502 5.44253H28.2689C27.4986 5.44253 26.7462 5.70969 26.1499 6.19502L25.9307 6.37334C25.5282 6.70098 25.0202 6.88144 24.5002 6.88144C23.9802 6.88144 23.4721 6.70098 23.0696 6.37334L22.8505 6.19502C22.2542 5.70979 21.5018 5.44253 20.7316 5.44253H18.4982C16.6969 5.44253 15.2316 6.90132 15.2316 8.69451V15.1852C15.1449 15.1383 15.0579 15.0967 14.9711 15.0573C14.9348 15.0374 14.8966 15.0209 14.8572 15.0066C14.4727 14.8454 14.0966 14.7513 13.7816 14.6968V6.34058C13.7816 3.73259 15.913 1.61079 18.5328 1.61079H30.4673C33.0872 1.61079 35.2185 3.73259 35.2185 6.34058V7.60665C35.2185 8.05148 35.5807 8.4121 36.0275 8.4121C36.4742 8.4121 36.8365 8.05159 36.8365 7.60665V6.34058C36.8365 2.84442 33.9793 0 30.4673 0H18.5328C15.0207 0 12.1636 2.84442 12.1636 6.34058V14.336C11.4167 14.7492 10.9202 15.5454 10.9202 16.4244V17.6486C10.9202 18.9654 11.9963 20.0366 13.319 20.0366H13.8276C14.0411 21.5288 14.8805 23.7155 16.4482 25.7004C16.6255 25.9249 16.8189 26.1544 17.0273 26.3847C14.2239 27.2712 12.1795 29.7803 11.9258 32.7419L5.33339 34.722C3.83597 35.1716 2.74223 36.4045 2.47894 37.9393L1.48641 43.7238C1.4112 44.1623 1.7073 44.5784 2.14766 44.6532C2.58792 44.7283 3.00606 44.4334 3.08138 43.995L4.07391 38.2104C4.23318 37.2818 4.89486 36.5361 5.80074 36.2641L11.898 34.4327V36.0259C10.5004 36.282 9.31116 37.2377 8.82137 38.5619C8.69134 38.9134 8.61052 39.2814 8.58117 39.6556L7.99189 47.1854C7.94743 47.7526 8.14458 48.3174 8.5325 48.7347C8.92043 49.1522 9.47064 49.3917 10.042 49.3917H11.0507C11.4976 49.3917 11.8598 49.0312 11.8598 48.5863C11.8598 48.1413 11.4976 47.7809 11.0507 47.7809H10.042C9.92018 47.7809 9.803 47.73 9.72023 47.6409C9.63758 47.5519 9.5956 47.4316 9.6051 47.3107L10.1944 39.7809C10.2122 39.5541 10.2611 39.3312 10.3398 39.1184C10.6806 38.1973 11.6008 37.5735 12.6299 37.5663L12.7632 37.5653C12.7695 37.5652 12.7756 37.5652 12.7818 37.5652C13.7819 37.5652 14.6673 38.1298 15.0408 39.0076C15.1456 39.2537 15.2092 39.5138 15.2302 39.7809L15.8197 47.3108C15.829 47.4316 15.7871 47.5519 15.7044 47.641C15.6218 47.7299 15.5045 47.7809 15.3826 47.7809H14.3739C13.9271 47.7809 13.5648 48.1414 13.5648 48.5863C13.5648 49.0311 13.9271 49.3917 14.3739 49.3917H15.3826C15.954 49.3917 16.5043 49.1523 16.8921 48.7347C17.2802 48.3172 17.4773 47.7525 17.4329 47.1855L16.8434 39.6556C16.8088 39.215 16.7036 38.7854 16.5307 38.379C15.9977 37.1268 14.8581 36.2562 13.516 36.0206V33.9467L16.2971 33.1113C16.5502 33.6418 17.0516 34.7884 18.0449 37.2598C19.046 39.7535 20.2902 42.9498 21.4836 46.0571C21.4921 46.0832 21.5019 46.1087 21.5129 46.1336C22.3093 48.208 23.0818 50.2398 23.7425 51.9925C23.861 52.3068 24.1628 52.515 24.5 52.515C24.8372 52.515 25.139 52.3068 25.2575 51.9925C25.9181 50.2398 26.6906 48.208 27.4871 46.1336C27.4982 46.1087 27.5079 46.0831 27.5164 46.0571C28.7089 42.9517 29.9525 39.7574 30.9531 37.2644C31.9477 34.7898 32.4496 33.6423 32.7027 33.1113L35.4839 33.9467V38.7039C33.5569 39.0765 32.0973 40.7684 32.0973 42.7942C32.0973 45.092 33.9752 46.9616 36.2835 46.9616C38.5919 46.9616 40.4698 45.0922 40.4698 42.7942C40.4698 40.7751 39.0197 39.0873 37.102 38.7073V34.4328L43.1994 36.2642C44.1052 36.5362 44.7668 37.2819 44.9262 38.2105L47.3703 52.455C47.4109 52.6912 47.3477 52.9221 47.1925 53.1053C47.0373 53.2883 46.8192 53.3893 46.5785 53.3893H2.42153C2.18079 53.3893 1.96282 53.2884 1.80754 53.1053C1.65237 52.9221 1.58914 52.6913 1.62971 52.455L2.43631 47.754C2.51152 47.3155 2.21543 46.8994 1.77506 46.8246C1.3348 46.7494 0.916663 47.0444 0.841344 47.4828L0.0347415 52.1838C-0.0855745 52.8855 0.109845 53.6 0.570822 54.1441C1.03202 54.688 1.70654 55 2.42153 55H46.5785C47.2935 55 47.9681 54.688 48.4292 54.144C48.8902 53.5999 49.0856 52.8854 48.9653 52.1837ZM35.2282 16.3377C35.6593 16.2307 36.0053 16.2326 36.0092 16.2327C36.1486 16.2346 36.2842 16.2021 36.4046 16.1393C36.4406 16.2285 36.4619 16.3245 36.4619 16.4244V17.6486C36.4619 18.0772 36.1116 18.4259 35.6811 18.4259H35.2282V16.3377ZM13.7718 18.4259H13.3189C12.8884 18.4259 12.5381 18.0772 12.5381 17.6486V16.4244C12.5381 16.3245 12.5595 16.2285 12.5954 16.1394C12.7157 16.2022 12.8513 16.2347 12.9908 16.2327C12.9969 16.2338 13.342 16.2319 13.7718 16.3381V18.4259ZM15.3899 19.329V17.213C15.635 17.2861 15.9032 17.2761 16.1507 17.1733C16.5753 16.9969 16.8496 16.5873 16.8496 16.1296V8.69451C16.8496 7.78959 17.5892 7.05332 18.4982 7.05332H20.7314C21.1293 7.05332 21.5181 7.19136 21.8262 7.44208L22.0452 7.6204C22.7359 8.18265 23.6077 8.49213 24.5 8.49213C25.3923 8.49213 26.2641 8.18254 26.9548 7.6204L27.1738 7.44208C27.4818 7.19136 27.8707 7.05332 28.2686 7.05332H30.5018C31.4108 7.05332 32.1504 7.78959 32.1504 8.69451V16.1297C32.1504 16.5873 32.4247 16.997 32.8493 17.1734C32.9911 17.2323 33.1395 17.2609 33.2867 17.2609C33.3965 17.2609 33.5054 17.2449 33.6101 17.2137V19.329C33.6101 20.5049 32.7935 22.7885 31.28 24.7047C30.7787 25.3394 30.1342 26.0213 29.3408 26.6173C29.3157 26.6341 29.2916 26.6522 29.2686 26.6716C28.0394 27.5763 26.4589 28.2694 24.5 28.2694C22.5411 28.2694 20.9606 27.5763 19.7313 26.6715C19.7083 26.6522 19.6843 26.6341 19.6593 26.6174C18.8659 26.0213 18.2214 25.3394 17.72 24.7047C16.2066 22.7886 15.3899 20.5049 15.3899 19.329ZM29.8004 32.3415L24.5 36.2854L19.1996 32.3415C19.7252 31.6765 20.0197 30.8228 20.0197 30.0609V28.7626C21.2661 29.4299 22.7534 29.8803 24.5 29.8803C26.2466 29.8803 27.734 29.4299 28.9803 28.7626V30.0609C28.9803 30.8228 29.2748 31.6765 29.8004 32.3415ZM17.8494 31.4425C17.4173 31.2787 16.9383 31.2518 16.4852 31.3742C16.4654 31.3788 16.4459 31.3841 16.4271 31.3896L13.632 32.2292C14.1047 29.9152 15.9922 28.0733 18.4017 27.7166V30.0609C18.4017 30.5662 18.175 31.0886 17.8494 31.4425ZM20.0452 37.908C20.0437 37.9042 20.0422 37.9005 20.0408 37.8968C19.9998 37.7936 19.9593 37.6918 19.9191 37.5911C19.9119 37.5728 19.9047 37.5547 19.8975 37.5366C19.8582 37.4381 19.8192 37.3404 19.7808 37.2442C19.7781 37.2375 19.7754 37.2308 19.7727 37.2239C19.6528 36.9239 19.5373 36.6361 19.4261 36.3604C19.418 36.3404 19.4099 36.3201 19.4018 36.3002C19.3699 36.2211 19.3385 36.1433 19.3073 36.0664C19.2959 36.0381 19.2845 36.0102 19.2732 35.9822C19.243 35.9077 19.213 35.8336 19.1834 35.7611C19.1746 35.7394 19.166 35.7183 19.1572 35.6967C19.1036 35.565 19.0511 35.4366 19 35.3115C18.9862 35.2777 18.972 35.2432 18.9583 35.2098C18.9383 35.161 18.9187 35.1135 18.8991 35.0657C18.878 35.0142 18.8568 34.963 18.8361 34.9128C18.8283 34.894 18.8202 34.8741 18.8125 34.8554C18.8062 34.8404 18.8005 34.8265 18.7943 34.8116C18.7009 34.5855 18.6121 34.3725 18.5278 34.1722C18.5271 34.1706 18.5264 34.169 18.5257 34.1674C18.4809 34.0607 18.4369 33.9565 18.3947 33.8572C18.3728 33.8058 18.3513 33.7552 18.3301 33.7055L22.8886 37.0973L20.9839 37.9028C20.9805 37.9042 20.9771 37.9056 20.9737 37.9071L20.1784 38.2435C20.1333 38.1299 20.0892 38.0186 20.0452 37.908ZM21.9756 42.8395C21.8158 42.4267 21.6548 42.0115 21.4935 41.5968C21.2412 40.948 21.0003 40.3312 20.7697 39.7436L21.0716 39.6159L22.3052 41.0434L21.9756 42.8395ZM24.5156 49.3856C24.4924 49.3377 24.4648 49.2925 24.4329 49.2504C24.0673 48.2884 23.6033 47.0712 23.0898 45.732L23.8451 41.615H25.1549L25.9102 45.732C25.3721 47.135 24.8888 48.4036 24.5156 49.3856ZM25.4583 40.0043H23.5417L22.6347 38.9548L24.5 38.166L26.3653 38.9548L25.4583 40.0043ZM27.5065 41.5968C27.3452 42.0115 27.1842 42.4267 27.0244 42.8395L26.6948 41.0433L27.9284 39.6158L28.2303 39.7435C27.9997 40.3311 27.7588 40.948 27.5065 41.5968ZM30.6054 33.8572C30.5653 33.9513 30.5237 34.05 30.4813 34.1508C30.4758 34.1639 30.4702 34.1771 30.4646 34.1903C30.4227 34.2902 30.3799 34.3923 30.3357 34.4985C30.3328 34.5055 30.3298 34.5129 30.3269 34.52C30.2887 34.6116 30.2495 34.7062 30.2097 34.8025C30.2022 34.8206 30.1952 34.8372 30.1878 34.8554C30.1789 34.877 30.1694 34.8999 30.1605 34.9217C30.1428 34.9646 30.1247 35.0085 30.1066 35.0523C30.0844 35.1063 30.0623 35.1601 30.0395 35.2155C30.0323 35.2331 30.0248 35.2515 30.0175 35.2692C29.9612 35.4066 29.9033 35.5482 29.8442 35.6936C29.8349 35.7164 29.8257 35.7387 29.8165 35.7618C29.7872 35.8337 29.7574 35.9071 29.7275 35.9809C29.7159 36.0097 29.7041 36.0385 29.6924 36.0678C29.6615 36.1439 29.6303 36.221 29.5988 36.2992C29.59 36.3211 29.581 36.3434 29.5722 36.3653C29.4624 36.6373 29.3486 36.921 29.2304 37.2166C29.2265 37.2264 29.2226 37.236 29.2188 37.2458C29.1806 37.3413 29.1419 37.4385 29.1029 37.5363C29.0956 37.5546 29.0883 37.5728 29.081 37.5912C29.0406 37.6924 28.9999 37.7947 28.9587 37.8985C28.9579 37.9005 28.9572 37.9024 28.9564 37.9042C28.912 38.0162 28.8673 38.1287 28.8218 38.2437L28.0257 37.907C28.0229 37.9058 28.0201 37.9047 28.0174 37.9035L26.1116 37.0975L30.6701 33.7058C30.6487 33.7552 30.6272 33.8057 30.6054 33.8572ZM32.5729 31.3897L32.5725 31.3896L32.5704 31.389C32.1011 31.2488 31.6004 31.272 31.1507 31.4425C30.825 31.0886 30.5985 30.5662 30.5985 30.0609V27.7154C33.023 28.0712 34.9048 29.8957 35.3714 32.2302L32.5729 31.3897ZM38.8517 42.7942C38.8517 44.204 37.6996 45.3508 36.2835 45.3508C34.8675 45.3508 33.7153 44.204 33.7153 42.7942C33.7153 41.3844 34.8675 40.2375 36.2835 40.2375C37.6996 40.2375 38.8517 41.3844 38.8517 42.7942Z"/>
</symbol><symbol id="icon-laws" viewBox="0 0 40 36">
<g clip-path="url(#clip0)">
<path d="M39.3436 18.1157L33.5436 5.59129H35.2636C35.82 5.59129 36.2727 5.13049 36.2727 4.55989C36.2727 3.98929 35.8218 3.52849 35.2655 3.52849H24.2873C23.7709 1.10929 21.4327 -0.424306 19.0655 0.103094C17.3873 0.477494 16.0782 1.81489 15.7127 3.52849H4.73636C4.18 3.52849 3.72727 3.98929 3.72727 4.55989C3.72727 5.13049 4.17818 5.59129 4.73636 5.59129H6.45636L0.656364 18.1157C0.467032 18.1892 0.303794 18.3164 0.187054 18.4813C0.0703146 18.6461 0.00525222 18.8414 0 19.0427C0 23.5391 3.56727 27.1859 7.96909 27.1859H8.02C12.4345 27.1319 16.0091 23.5013 16.0909 18.9905C16.0967 18.7855 16.029 18.585 15.8999 18.4246C15.7708 18.2642 15.5886 18.1542 15.3855 18.1139L9.58545 5.58949H15.7164C16.1709 7.16809 17.4255 8.37049 18.9945 8.73409V28.0103C15.5636 28.4783 13.0127 31.4843 13.0436 35.0195C13.0436 35.5595 13.4709 35.9987 14 36.0005L14.0509 35.9987H25.9545C26.0823 36.0037 26.2098 35.9837 26.3296 35.9398C26.4495 35.8959 26.5594 35.8289 26.6531 35.7427C26.7467 35.6566 26.8222 35.5529 26.8752 35.4378C26.9282 35.3226 26.9576 35.1982 26.9618 35.0717L26.9636 35.0195C26.9945 31.4825 24.4418 28.4783 21.0127 28.0103V8.73409C21.7927 8.54681 22.5079 8.15651 23.0842 7.60362C23.6606 7.05073 24.0772 6.35535 24.2909 5.58949H30.42L24.62 18.1139C24.4126 18.165 24.2292 18.2852 24.1008 18.4543C23.9723 18.6235 23.9065 18.8312 23.9145 19.0427C23.9145 23.5391 27.4818 27.1859 31.8836 27.1859H31.9345C36.3418 27.1589 39.9218 23.5445 40.0036 19.0427C39.9907 18.843 39.9221 18.6507 39.8057 18.4871C39.6892 18.3235 39.5293 18.1949 39.3436 18.1157ZM8.02 25.1249C5.09273 25.1393 2.59091 22.9739 2.11818 20.0219H13.9709C13.4218 22.9487 10.9364 25.0799 8.02 25.1249ZM13.1145 17.9609H2.92545L8.02 6.77569L13.1145 17.9609ZM24.8418 33.9377H15.1582C15.7164 31.6463 17.6909 30.0083 20 29.9183C22.3091 30.0083 24.2836 31.6463 24.8418 33.9377ZM20 6.77569C18.6909 6.77569 17.6291 5.69029 17.6291 4.35289C17.6291 3.01549 18.6909 1.93009 20 1.93009C21.3091 1.93009 22.3709 3.01369 22.3709 4.35289C22.3709 5.69029 21.3091 6.77569 20 6.77569ZM31.98 6.77569L37.0745 17.9609H26.8855L31.98 6.77569ZM31.9309 25.1249C29.0036 25.1393 26.5018 22.9739 26.0291 20.0219H37.8818C37.3327 22.9487 34.8473 25.0799 31.9309 25.1249Z"/>
</g>

</symbol><symbol id="icon-phone" viewBox="0 0 12 12">
<path d="M11.9738 9.29781C11.9398 9.19554 11.7239 9.04488 11.3261 8.84619C11.2183 8.78357 11.0648 8.69846 10.8661 8.59049C10.6672 8.48252 10.4867 8.38303 10.3249 8.2921C10.1627 8.20121 10.0108 8.11314 9.86888 8.02804C9.8462 8.01099 9.77518 7.96135 9.65587 7.87879C9.53644 7.79646 9.43572 7.73535 9.35318 7.6955C9.27082 7.65589 9.18981 7.63595 9.11025 7.63595C8.99664 7.63595 8.85473 7.71696 8.68434 7.87879C8.51395 8.04082 8.35765 8.21682 8.21568 8.40733C8.07368 8.59774 7.92308 8.77375 7.76416 8.93569C7.60499 9.09769 7.47422 9.17861 7.37207 9.17861C7.32078 9.17861 7.25684 9.16432 7.18021 9.13611C7.10362 9.10772 7.04535 9.08339 7.00535 9.06378C6.96571 9.04375 6.89768 9.00411 6.80102 8.94425C6.70418 8.88458 6.65033 8.8519 6.63899 8.84619C5.86063 8.41428 5.19307 7.91995 4.6362 7.36332C4.07951 6.80636 3.58512 6.13887 3.15333 5.36041C3.14766 5.34904 3.11491 5.29504 3.0553 5.1985C2.9956 5.10188 2.95581 5.03379 2.93592 4.99391C2.91604 4.95417 2.89189 4.89591 2.86354 4.81922C2.83518 4.74253 2.82094 4.67865 2.82094 4.62746C2.82094 4.52525 2.90192 4.3945 3.06387 4.23539C3.22578 4.07638 3.40196 3.92575 3.59223 3.78381C3.78265 3.64187 3.95865 3.48557 4.12062 3.31518C4.28253 3.1447 4.36348 3.00273 4.36348 2.88912C4.36348 2.80963 4.3436 2.72858 4.30387 2.64622C4.26411 2.56368 4.20304 2.46297 4.12062 2.34359C4.03817 2.22428 3.98847 2.15332 3.97139 2.13049C3.88626 1.98855 3.79829 1.83658 3.70727 1.67464C3.61626 1.51272 3.51691 1.33225 3.40891 1.13341C3.301 0.934661 3.21584 0.781198 3.15327 0.673257C2.95452 0.275613 2.80398 0.0596122 2.70168 0.0256419C2.66189 0.00859706 2.60219 0 2.52273 0C2.36924 0 2.169 0.0283583 1.92186 0.0852542C1.67463 0.14206 1.4801 0.201643 1.33804 0.26424C1.05395 0.383494 0.75284 0.730063 0.434629 1.30383C0.144866 1.8378 0 2.36631 0 2.88897C0 3.04225 0.00994035 3.19139 0.029821 3.3364C0.0497017 3.48127 0.0852243 3.64465 0.136419 3.8265C0.187523 4.00829 0.228747 4.14333 0.259912 4.23127C0.291106 4.31928 0.349345 4.47692 0.434599 4.70426C0.519734 4.93155 0.570928 5.07068 0.587973 5.12182C0.78681 5.67866 1.0226 6.17576 1.29529 6.61329C1.74395 7.34051 2.35622 8.09207 3.13175 8.86766C3.9073 9.64318 4.65871 10.2554 5.386 10.7043C5.82346 10.9769 6.32075 11.2127 6.8775 11.4117C6.92866 11.4286 7.0678 11.4797 7.29499 11.5651C7.52228 11.6503 7.67998 11.7086 7.76798 11.7398C7.85601 11.7711 7.99108 11.8124 8.17273 11.8636C8.35476 11.9147 8.51798 11.9503 8.66285 11.9703C8.8078 11.9899 8.95697 12 9.11028 12C9.63291 12 10.1615 11.8551 10.6955 11.5653C11.2692 11.2473 11.6157 10.9461 11.735 10.6618C11.7978 10.5199 11.8572 10.3253 11.914 10.0781C11.971 9.83095 11.9993 9.63074 11.9993 9.47727C11.9995 9.39748 11.9909 9.33793 11.9738 9.29781Z"/>
</symbol><symbol id="icon-plus" viewBox="0 0 48 48">
<circle cx="24" cy="24" r="23.5"/>
<path d="M24 15.0278L24 31.9723M15.5 23.4723H31.5" stroke-linecap="round"/>
</symbol><symbol id="icon-rule" viewBox="0 0 36 36">
<g clip-path="url(#clip0)">
<path d="M34.1237 11.2736H24.7307V1.88362C24.7307 0.847115 23.8892 0.00561523 22.8527 0.00561523H13.1462C12.1082 0.00561523 11.2682 0.847115 11.2682 1.88362V11.2736H1.87522C0.838719 11.2736 -0.00278091 12.1136 -0.00278091 13.1516V22.8536C-0.00278091 23.8901 0.838719 24.7316 1.87522 24.7316H11.2682V34.1216C11.2682 35.1596 12.1082 35.9996 13.1462 35.9996H22.8527C23.8892 35.9996 24.7307 35.1581 24.7307 34.1216V24.7316H34.1237C35.1602 24.7316 36.0032 23.8901 36.0032 22.8536V13.1516C36.0028 12.6534 35.8046 12.1757 35.4522 11.8236C35.0998 11.4714 34.6219 11.2736 34.1237 11.2736Z"/>
<path d="M32.2455 13.4192H22.5855V3.76075C22.5855 2.87125 21.864 2.15125 20.9745 2.15125H15.0255C14.136 2.15125 13.4145 2.87125 13.4145 3.76075V13.4192H3.75448C2.86498 13.4192 2.14348 14.1407 2.14348 15.0287V20.9747C2.14348 21.8642 2.86498 22.5842 3.75448 22.5842H13.4145V32.2427C13.4145 33.1322 14.136 33.8522 15.0255 33.8522H20.9745C21.864 33.8522 22.5855 33.1322 22.5855 32.2427V22.5842H32.2455C33.135 22.5842 33.8565 21.8627 33.8565 20.9747V15.0302C33.8561 14.6031 33.6862 14.1936 33.3842 13.8915C33.0822 13.5895 32.6726 13.4196 32.2455 13.4192Z"/>
</g>

</symbol><symbol id="icon-safe" viewBox="0 0 28 36">
<g clip-path="url(#clip0)">
<path d="M18.039 13.6246L12.4026 19.7026L10.0016 17.1046C9.89367 16.9877 9.76519 16.8949 9.62359 16.8315C9.48199 16.7681 9.33007 16.7354 9.1766 16.7353C9.02314 16.7351 8.87117 16.7676 8.72947 16.8307C8.58776 16.8938 8.45914 16.9864 8.35101 17.1031C8.13196 17.3401 8.00896 17.6602 8.0087 17.9938C8.00844 18.3274 8.13093 18.6476 8.34961 18.8851L11.5752 22.3756C11.6828 22.4932 11.8111 22.5867 11.9528 22.6505C12.0944 22.7144 12.2465 22.7473 12.4002 22.7474C12.5539 22.7476 12.7061 22.7149 12.8478 22.6513C12.9896 22.5877 13.1181 22.4945 13.2258 22.3771L19.6882 15.4081C19.9073 15.171 20.0303 14.851 20.0305 14.5174C20.0308 14.1838 19.9083 13.8635 19.6896 13.6261C19.5819 13.5088 19.4534 13.4157 19.3118 13.3521C19.1702 13.2885 19.0182 13.2556 18.8646 13.2555C18.711 13.2554 18.559 13.2879 18.4172 13.3513C18.2755 13.4146 18.1469 13.5075 18.039 13.6246Z"/>
<path d="M27.0144 5.98497C24.2578 5.98197 22.0164 3.74997 22.0192 1.00947C22.0192 0.460469 21.5726 0.0149686 21.0196 0.0134686L7.02097 0.00146862C6.46937 -3.13793e-05 6.02137 0.445469 6.02137 0.994468C6.01857 3.73647 3.77437 5.96397 1.01777 5.96097C0.466171 5.96097 0.0167712 6.40497 0.0167712 6.95397L0.0139712 11.25C0.00417123 23.895 1.28657 32.2455 13.706 35.9595C13.8936 36.0166 14.0924 36.0166 14.28 35.9595C26.4348 32.3445 28 24.195 28.0098 11.2725L28.0126 6.97797C28.014 6.43047 27.566 5.98497 27.0144 5.98497ZM26.0106 11.2725C26.0022 23.1495 25.3736 30.4515 13.9944 33.9675C2.71177 30.4605 2.00477 23.0625 2.01317 11.2515L2.01597 7.88097C5.07637 7.44597 7.50677 5.03397 7.94777 1.99047L20.0886 2.00097C20.5254 5.04597 22.9516 7.46097 26.012 7.90197L26.0106 11.2725Z"/>
</g>

</symbol></svg>